<?xml version="1.0" encoding="utf-8"?>
<!-- Generator: Adobe Illustrator 23.0.3, SVG Export Plug-In . SVG Version: 6.00 Build 0)  -->
<svg version="1.1" id="Layer_1" xmlns="http://www.w3.org/2000/svg" xmlns:xlink="http://www.w3.org/1999/xlink" x="0px" y="0px"
	 viewBox="0 0 300 500" style="enable-background:new 0 0 300 500;" xml:space="preserve">
<g id="Layer_3">
</g>
<path d="M125.9,42.5c-0.7-9.2-8.7-18-6.7-27.3c0.2-1.1,1-2.1-1.7-2.4c-6.2-0.6-2.2-2.3-0.3-2.7c5.9-1.6,3.5-3.3-0.2-5.6
	c5-0.6,9.4-0.1,13.1-1.4c6.5-2.3,20.2-2,26.7-2.9c10.6-1.4,15,6.5,23.9,4.1c4.2,12.3-2.5,23.6-6.5,35.2c-3-3.8-6.2-7.6-7.6-11.8
	c-1.8-6.8-1.5-6.8-13.3-7.4c-16.6-0.9-16.6-0.2-20.9,8.9C130.6,33.4,129.6,38.3,125.9,42.5z"/>
</svg>
