<?xml version="1.0" encoding="utf-8"?>
<!-- Generator: Adobe Illustrator 23.0.3, SVG Export Plug-In . SVG Version: 6.00 Build 0)  -->
<svg version="1.1" id="Layer_1" xmlns="http://www.w3.org/2000/svg" xmlns:xlink="http://www.w3.org/1999/xlink" x="0px" y="0px"
	 viewBox="0 0 300 500" style="enable-background:new 0 0 300 500;" xml:space="preserve">
<style type="text/css">
	.st0{fill:#FEE8B9;}
</style>
<g id="Layer_3">
</g>
<path class="st0" d="M125.2,45.2c-0.7-9.3-8.8-18.2-6.7-27.7c0.2-1.1,1-2.1-1.7-2.5c-6.3-0.6-2.2-2.3-0.3-2.8c6-1.6,3.5-3.3-0.2-5.7
	c5-0.6,9.5-0.1,13.3-1.4c6.5-2.3,20.5-2.1,27-2.9c10.7-1.4,15.2,6.6,24.2,4.1c4.3,12.5-2.6,24-6.5,35.7c-3-3.9-6.3-7.7-7.7-11.9
	c-1.8-6.9-1.5-6.9-13.5-7.6c-16.8-1-16.8-0.2-21.2,9C129.9,36,128.9,40.9,125.2,45.2z"/>
</svg>
