<?xml version="1.0" encoding="UTF-8" standalone="no"?>
<!-- Generator: Adobe Illustrator 23.0.1, SVG Export Plug-In . SVG Version: 6.00 Build 0)  -->

<svg
   xmlns:dc="http://purl.org/dc/elements/1.1/"
   xmlns:cc="http://creativecommons.org/ns#"
   xmlns:rdf="http://www.w3.org/1999/02/22-rdf-syntax-ns#"
   xmlns:svg="http://www.w3.org/2000/svg"
   xmlns="http://www.w3.org/2000/svg"
   xmlns:sodipodi="http://sodipodi.sourceforge.net/DTD/sodipodi-0.dtd"
   xmlns:inkscape="http://www.inkscape.org/namespaces/inkscape"
   version="1.1"
   id="Layer_1"
   x="0px"
   y="0px"
   viewBox="0 0 300 500"
   style="enable-background:new 0 0 300 500;"
   xml:space="preserve"
   sodipodi:docname="blonde_long_hair.svg"
   inkscape:version="0.92.3 (2405546, 2018-03-11)"><metadata
   id="metadata30"><rdf:RDF><cc:Work
       rdf:about=""><dc:format>image/svg+xml</dc:format><dc:type
         rdf:resource="http://purl.org/dc/dcmitype/StillImage" /><dc:title></dc:title></cc:Work></rdf:RDF></metadata><defs
   id="defs28" /><sodipodi:namedview
   pagecolor="#ffffff"
   bordercolor="#666666"
   borderopacity="1"
   objecttolerance="10"
   gridtolerance="10"
   guidetolerance="10"
   inkscape:pageopacity="0"
   inkscape:pageshadow="2"
   inkscape:window-width="1920"
   inkscape:window-height="1017"
   id="namedview26"
   showgrid="false"
   inkscape:zoom="1.696"
   inkscape:cx="150"
   inkscape:cy="250"
   inkscape:window-x="-8"
   inkscape:window-y="-8"
   inkscape:window-maximized="1"
   inkscape:current-layer="Layer_1" />
<style
   type="text/css"
   id="style21">
	.st0{fill:#FDE8B9;}
</style>
<path
   class="st0"
   d="M137.6,88.6c-6.2,3.1-13.3,0.5-19.7,2.9c-2,0.8-4.3,1-6.5,1.5c0.7-5-3.5-9.9-0.1-15.3c3.2,1.2,4.3,6.4,8.7,4.4  c4.7-2.1,3.8-6.5,3.8-10.3c0.2-16.4-1.1-32.8,2.9-49c2.2-8.8,7.9-13.3,17.2-13.9c0.3,0,0.5,0,0.8,0c19.2-1.6,31.7,2.4,31.3,28.8  c-0.2,12,0,24.1,0,36.1c0,3.6,0.6,7.1,4.5,8.6c4.2,1.6,5.6-2.3,8.5-5c1.3,5.3,1.6,9.8-0.8,14.3c-6.9,0.8-13.6-1.7-20.5-1.6  c-4.1,0.1-5.1-2.8-5.4-5.9c-0.3-3.9-0.1-7.9-0.1-11.8c2.3-8.2,5.1-16.2,4.2-24.9c-0.4-4.6-1.5-8.1-5.9-10.3c-4.1-2.1-7-5.6-10.2-9.8  c-3.9,5.2-8.2,9.3-13.4,12.4c-3,1.7-3.5,4.7-3.4,7.8c0.3,5.9,0.5,11.9,2.8,17.4C139.7,72.8,138.4,80.6,137.6,88.6z"
   id="path23" />
<path
   style="fill:#ffeeaa;fill-opacity:1;stroke-width:0.58962262"
   d="m 110.8291,87.162765 c -0.78759,-4.351774 -0.8855,-6.127146 -0.40573,-7.35734 0.78434,-2.011209 1.25792,-2.025331 3.06465,-0.09139 0.78619,0.841545 2.16477,1.912618 3.06352,2.380165 1.45023,0.754434 1.87303,0.736698 3.75768,-0.15763 3.58758,-1.702411 3.74611,-2.662164 3.7576,-22.749004 0.0203,-35.407614 2.60708,-44.739019 13.5511,-48.882787 4.46475,-1.6905009 18.6603,-1.9225422 23.61911,-0.3860791 6.78036,2.1008591 10.63262,6.0500611 13.05341,13.3819121 1.21169,3.669837 1.29954,5.276439 1.61459,29.529573 0.35995,27.709787 0.2906,27.151733 3.61861,29.117635 2.47757,1.463544 3.88369,1.16283 6.69959,-1.432777 1.59169,-1.46717 2.74002,-2.140566 2.98215,-1.748773 0.71113,1.150619 0.56762,8.50977 -0.20997,10.767924 -0.73475,2.133721 -0.85779,2.210684 -3.51637,2.199623 -1.51524,-0.0063 -5.40829,-0.395891 -8.65121,-0.865737 -3.24292,-0.469853 -6.87873,-0.862689 -8.07957,-0.872972 -5.55518,-0.04757 -6.59957,-2.184976 -6.20881,-12.706692 0.19934,-5.367435 0.65135,-8.409876 1.88173,-12.665778 1.1128,-3.849159 1.71341,-7.538121 1.91998,-11.792453 0.46303,-9.536153 -0.70642,-12.41118 -6.57552,-16.165596 -1.70013,-1.087562 -4.51804,-3.598422 -6.26203,-5.579689 l -3.17087,-3.602302 -3.49961,3.87752 c -1.92478,2.132636 -5.38254,5.199853 -7.6839,6.816037 -2.30136,1.616184 -4.50663,3.518198 -4.90059,4.226698 -0.85777,1.542631 -0.94931,8.650315 -0.17984,13.965068 0.30518,2.1079 1.36125,6.279168 2.34681,9.269484 1.50608,4.569613 1.79112,6.356736 1.78681,11.202833 -0.003,3.171238 -0.17241,7.158591 -0.37686,8.860778 -0.35559,2.960395 -0.46427,3.117966 -2.50077,3.625997 -1.17097,0.292104 -4.915,0.684375 -8.32007,0.871698 -3.40507,0.187323 -7.51769,0.716975 -9.13915,1.176998 -6.55643,1.860118 -5.86212,2.275826 -7.03647,-4.212948 z"
   id="path32"
   inkscape:connector-curvature="0" /></svg>