<?xml version="1.0" encoding="UTF-8" standalone="no"?>
<!-- Generator: Adobe Illustrator 23.0.1, SVG Export Plug-In . SVG Version: 6.00 Build 0)  -->

<svg
   xmlns:dc="http://purl.org/dc/elements/1.1/"
   xmlns:cc="http://creativecommons.org/ns#"
   xmlns:rdf="http://www.w3.org/1999/02/22-rdf-syntax-ns#"
   xmlns:svg="http://www.w3.org/2000/svg"
   xmlns="http://www.w3.org/2000/svg"
   xmlns:sodipodi="http://sodipodi.sourceforge.net/DTD/sodipodi-0.dtd"
   xmlns:inkscape="http://www.inkscape.org/namespaces/inkscape"
   version="1.1"
   id="Layer_1"
   x="0px"
   y="0px"
   viewBox="0 0 300 500"
   style="enable-background:new 0 0 300 500;"
   xml:space="preserve"
   sodipodi:docname="blonde_Medium_hair.svg"
   inkscape:version="0.92.3 (2405546, 2018-03-11)"><metadata
   id="metadata30"><rdf:RDF><cc:Work
       rdf:about=""><dc:format>image/svg+xml</dc:format><dc:type
         rdf:resource="http://purl.org/dc/dcmitype/StillImage" /><dc:title></dc:title></cc:Work></rdf:RDF></metadata><defs
   id="defs28" /><sodipodi:namedview
   pagecolor="#ffffff"
   bordercolor="#666666"
   borderopacity="1"
   objecttolerance="10"
   gridtolerance="10"
   guidetolerance="10"
   inkscape:pageopacity="0"
   inkscape:pageshadow="2"
   inkscape:window-width="1920"
   inkscape:window-height="1017"
   id="namedview26"
   showgrid="false"
   inkscape:zoom="1.696"
   inkscape:cx="150"
   inkscape:cy="250"
   inkscape:window-x="-8"
   inkscape:window-y="-8"
   inkscape:window-maximized="1"
   inkscape:current-layer="Layer_1" />
<style
   type="text/css"
   id="style21">
	.st0{fill:#FFE1AA;}
</style>
<path
   class="st0"
   d="M137.4,86.9c-1,3.6,0.3,7.6-1.9,11c-2.9,0.5-0.9-5.8-5.6-3.6c-3.9,1.8-3.3-0.7-2.8-3.8c1.4-8.3-3.2-4.1-6.2-2.7  c-2.5-1.9,2.7-12-6.9-5.7c-0.6-4,1.8-6.7,2.9-10.2c-3.9-0.5-7.6-0.4-10.9-2.7c2.9-3.8,8.4-4.4,10.4-9.3c-2.7-2.9-8.2-2.3-9.9-7.1  c2-1.9,5.5,0,7.3-2.7c0.4-2.4-1.8-1.7-2.9-2.1c-3.2-1.1-7.6-1.9-7-5.9c0.6-3.7,4.7-1.2,7.1-1.3c6.3-0.4,8.1-4.6,9.5-9.6  c2.2-7.5,1.9-17.1,11.2-19.9c12.2-3.6,25-3.9,37.2,0.6c5.9,2.2,6.8,8.4,8.3,13.7c4.3,15.2,4.3,15.2,19.2,14.9  c-0.9,6.8-7.1,6.5-11.4,8.6c1.1,4.3,5.7,1.3,7.5,3.9c-1.9,4.3-6.6,4.2-9.9,6.5c1.4,3.6,4.6,5.3,7.8,7c1.7,0.9,3.5,1.8,0.8,3.7  c-1.9,2.6-7.6-2.5-7.8,3.7c0.2,0.5,0.3,1,0.3,1.6c1,2.1-0.2,3.2-1.9,4c-1.1,0.1-2.2,0.2-3.3,0.3c-2.7,1.1,0.7,4.8-2.5,5.6  c-6.7-0.8-3.4,4-3.9,6.7c-4.3,0.2-0.6-4.8-3.2-5.4c1.4,2.2,1.2,4.5,0,6.9c-1.1-0.2-2.2-0.5-3.3-0.7c-2-2.1-1.4-5.3-3.1-7.5  c-0.2-6.8,5-11.7,6.4-18c1.8-8.6,3.5-17.2-3.9-24c-4.2-3.8-9.7-5.8-13.6-10.2c-1.1-1.2-3.3-1-4.1,0.4c-3.3,5.7-9.4,7.5-14.1,11.2  c-3.4,2.6-4.6,6.3-4.5,10.5c0.2,7.8,2.2,15.1,5.8,22C135.7,80.6,138.4,83.1,137.4,86.9z"
   id="path23" />
<path
   style="fill:#ffeeaa;fill-opacity:1;stroke-width:0.58962262"
   d="m 133.44957,95.725236 c -0.8639,-1.962771 -1.15844,-2.04503 -4.61371,-1.288556 l -2.00139,0.438173 0.40636,-4.123957 c 0.58499,-5.936763 -0.24577,-6.368343 -6.27975,-3.262335 -0.24321,0.125201 -0.44221,-1.005908 -0.44221,-2.513567 0,-4.772659 -1.30208,-5.903644 -4.74626,-4.122588 -1.6526,0.854593 -1.73959,0.839263 -1.73959,-0.306527 0,-0.663355 0.66332,-2.838556 1.47406,-4.83378 0.81073,-1.995218 1.47405,-3.684021 1.47405,-3.752889 0,-0.06887 -1.52565,-0.31434 -3.39033,-0.545489 -4.0139,-0.497571 -7.45639,-1.80888 -6.94042,-2.643739 0.20204,-0.326892 1.61411,-1.432234 3.13796,-2.456321 3.62983,-2.439397 6.60317,-5.258792 6.60317,-6.2613 0,-0.440669 -1.52565,-1.472076 -3.39033,-2.292015 -3.61054,-1.58763 -6.04363,-3.480596 -6.04363,-4.701998 0,-0.430441 1.11014,-0.912002 2.62671,-1.139426 4.95045,-0.742366 6.01856,-3.269364 1.72255,-4.075301 -3.50302,-0.657171 -6.64226,-2.507083 -7.05672,-4.158435 -0.71365,-2.843404 -0.107,-3.216583 4.99671,-3.07373 3.97032,0.111129 4.95473,-0.05936 6.36306,-1.101991 2.8737,-2.127503 4.12242,-4.693812 5.99436,-12.319334 2.14459,-8.736154 3.08671,-10.905561 5.75248,-13.246138 5.48217,-4.813414 23.83865,-6.6539173 35.81474,-3.590948 9.42866,2.411444 10.58023,3.701324 14.06652,15.756013 2.63031,9.094921 3.22862,10.468286 5.47625,12.570187 1.42245,1.330221 2.1471,1.493832 7.42631,1.676714 5.01051,0.173575 5.85005,0.345133 5.85005,1.195457 0,2.476574 -3.3004,4.977197 -8.69694,6.58943 -1.37824,0.411754 -2.50589,0.930853 -2.50589,1.153553 0,0.83085 2.2002,2.356544 3.39837,2.356544 0.68301,0 1.93311,0.262823 2.77801,0.584051 1.33869,0.508968 1.45074,0.743673 0.87163,1.825737 -0.36548,0.682928 -2.63979,2.141843 -5.054,3.242034 l -4.38947,2.000347 0.84544,1.627925 c 0.91297,1.757923 2.76754,3.267717 6.70921,5.461916 1.37825,0.767224 2.5059,1.72904 2.5059,2.137377 0,1.429829 -2.30972,2.438803 -4.91152,2.145543 -3.20033,-0.360726 -4.1592,0.681668 -4.01969,4.369846 0.11975,3.166091 -0.63249,4.317489 -2.82075,4.317489 -2.26651,0 -3.48523,1.166008 -3.69263,3.532906 -0.1342,1.531439 -0.4825,2.103733 -1.35966,2.234045 -3.83355,0.569517 -3.83254,0.568538 -3.83254,3.717978 0,2.64273 -0.12408,2.937234 -1.10616,2.62553 -0.79223,-0.251444 -1.19664,-0.0053 -1.42501,0.868249 -0.26261,1.00421 -0.61357,1.148526 -1.98936,0.818019 -2.13344,-0.512506 -1.82273,-0.09094 -3.40552,-4.620595 -1.68115,-4.811168 -1.41553,-6.429599 2.39989,-14.622318 1.64357,-3.529186 2.98803,-7.504507 3.4897,-10.318395 2.15126,-12.06658 -0.007,-17.386211 -9.68095,-23.865874 -2.47347,-1.656672 -5.72802,-4.030756 -7.23234,-5.275744 -1.50433,-1.244987 -3.13068,-2.263613 -3.61412,-2.263613 -0.48344,0 -1.88765,1.230944 -3.12046,2.735432 -1.23282,1.504487 -4.51508,4.189999 -7.29391,5.967805 -6.24358,3.994437 -7.50269,5.122623 -9.01977,8.081868 -1.05653,2.060882 -1.16131,3.078587 -0.88031,8.549528 0.36934,7.190785 1.56175,11.456334 5.75874,20.600409 l 2.87793,6.270206 -0.57667,5.589593 c -0.31717,3.074275 -0.72325,6.053921 -0.9024,6.621433 -0.51082,1.618172 -1.72253,1.213119 -2.64575,-0.884434 z m 36.36175,-8.461085 c -0.20984,-0.54684 -0.5142,-0.861592 -0.67634,-0.699446 -0.16215,0.162146 -0.12312,0.742229 0.0867,1.289069 0.20984,0.546839 0.5142,0.861592 0.67634,0.699445 0.16215,-0.162146 0.12312,-0.742228 -0.0867,-1.289068 z"
   id="path32"
   inkscape:connector-curvature="0" /></svg>