<?xml version="1.0" encoding="UTF-8" standalone="no"?>
<!-- Generator: Adobe Illustrator 23.0.1, SVG Export Plug-In . SVG Version: 6.00 Build 0)  -->

<svg
   xmlns:dc="http://purl.org/dc/elements/1.1/"
   xmlns:cc="http://creativecommons.org/ns#"
   xmlns:rdf="http://www.w3.org/1999/02/22-rdf-syntax-ns#"
   xmlns:svg="http://www.w3.org/2000/svg"
   xmlns="http://www.w3.org/2000/svg"
   xmlns:sodipodi="http://sodipodi.sourceforge.net/DTD/sodipodi-0.dtd"
   xmlns:inkscape="http://www.inkscape.org/namespaces/inkscape"
   version="1.1"
   id="Layer_1"
   x="0px"
   y="0px"
   viewBox="0 0 300 500"
   style="enable-background:new 0 0 300 500;"
   xml:space="preserve"
   sodipodi:docname="blonde_short_hair.svg"
   inkscape:version="0.92.3 (2405546, 2018-03-11)"><metadata
   id="metadata96"><rdf:RDF><cc:Work
       rdf:about=""><dc:format>image/svg+xml</dc:format><dc:type
         rdf:resource="http://purl.org/dc/dcmitype/StillImage" /><dc:title></dc:title></cc:Work></rdf:RDF></metadata><defs
   id="defs94" /><sodipodi:namedview
   pagecolor="#ffffff"
   bordercolor="#666666"
   borderopacity="1"
   objecttolerance="10"
   gridtolerance="10"
   guidetolerance="10"
   inkscape:pageopacity="0"
   inkscape:pageshadow="2"
   inkscape:window-width="1920"
   inkscape:window-height="1017"
   id="namedview92"
   showgrid="false"
   inkscape:zoom="1.696"
   inkscape:cx="150"
   inkscape:cy="250"
   inkscape:window-x="-8"
   inkscape:window-y="-8"
   inkscape:window-maximized="1"
   inkscape:current-layer="Layer_1" />
<style
   type="text/css"
   id="style87">
	.st0{fill:#FEE8B9;}
</style>
<path
   class="st0"
   d="M135.2,58.5c-0.7-11.7-8.2-22.9-6.3-34.8c0.2-1.4,0.9-2.7-1.6-3.1c-5.9-0.8-2.1-2.9-0.3-3.5  c5.6-2,3.3-4.2-0.2-7.1c4.7-0.8,8.9-0.1,12.4-1.8c6.1-2.9,19.1-2.6,25.2-3.7c10-1.8,14.2,8.3,22.6,5.2c4,15.7-2.4,30.1-6.1,44.9  c-2.8-4.9-5.9-9.7-7.2-15c-1.7-8.7-1.4-8.7-12.6-9.5c-15.7-1.2-15.7-0.3-19.8,11.3C139.6,46.9,138.7,53.1,135.2,58.5z"
   id="path89" />
<path
   style="fill:#ffeeaa;fill-opacity:1;stroke-width:0.58962262"
   d="m 134.94059,55.041274 c -0.23237,-1.378243 -1.61738,-6.485849 -3.07779,-11.350236 -2.36124,-7.864886 -2.67208,-9.573456 -2.80691,-15.428165 -0.0834,-3.621104 -0.32934,-6.871398 -0.54657,-7.222877 -0.21722,-0.351479 -1.01013,-0.639053 -1.76202,-0.639053 -0.75188,0 -1.68514,-0.383259 -2.0739,-0.851688 -0.58542,-0.705386 -0.18792,-1.114642 2.314,-2.382461 1.66146,-0.841926 3.17613,-1.935471 3.36594,-2.430101 0.20867,-0.54377 -0.39646,-1.664424 -1.53057,-2.83453 l -1.87567,-1.9352049 4.98073,-0.3514958 c 2.73941,-0.1933226 5.99162,-0.7738693 7.22714,-1.2901036 3.04968,-1.2742378 10.53256,-2.4421147 21.28136,-3.3214512 l 8.96227,-0.7331843 6.3337,3.1172414 c 5.42657,2.6707804 6.69394,3.0766364 8.84897,2.8337344 l 2.51526,-0.2835068 0.46707,2.7254798 c 0.25688,1.499013 0.42615,5.378781 0.37615,8.621705 -0.0986,6.39685 -1.2253,12.238446 -4.8195,24.988091 -2.15918,7.659271 -2.2509,7.847908 -3.14917,6.476969 -2.31485,-3.532908 -5.35978,-10.406165 -6.32995,-14.288484 -0.58496,-2.340797 -1.36553,-4.820238 -1.73461,-5.509868 -1.14046,-2.130961 -4.37645,-2.746751 -14.64021,-2.785946 l -9.53793,-0.03642 -1.79748,1.717577 c -1.95624,1.869273 -3.82496,6.3414 -6.30412,15.086668 -1.56511,5.520967 -3.48421,10.613208 -3.99975,10.613208 -0.14517,0 -0.45407,-1.127653 -0.68644,-2.505896 z"
   id="path98"
   inkscape:connector-curvature="0" /><path
   style="fill:#ffeeaa;fill-opacity:1;stroke-width:0.58962262"
   d="m 134.90772,55.336085 c -0.22283,-1.216097 -1.58685,-6.323703 -3.03116,-11.350236 -2.22014,-7.726617 -2.67558,-10.214762 -2.94672,-16.098401 l -0.3207,-6.959252 -1.67342,-0.334684 c -3.2448,-0.64896 -3.19975,-1.713052 0.14945,-3.530233 1.69705,-0.92077 3.18298,-1.980846 3.30207,-2.355723 0.11909,-0.374877 -0.62074,-1.635195 -1.64408,-2.800708 l -1.8606,-2.1191122 2.56697,-0.035148 c 3.10714,-0.042544 6.34819,-0.6203565 12.59056,-2.2446335 4.4632,-1.161331 20.11559,-3.0206936 25.46396,-3.0248868 1.77819,-0.00139 4.1695,0.835116 8.54953,2.9907272 5.13127,2.525329 6.47016,2.9512043 8.57389,2.7271783 2.46152,-0.262127 2.4984,-0.2384631 2.91697,1.871725 0.73525,3.706731 0.38362,14.918212 -0.61257,19.531076 -1.59033,7.364034 -5.78712,21.816037 -6.33527,21.816037 -0.91575,0 -5.79057,-10.44655 -7.07653,-15.164737 -0.68771,-2.523191 -1.48962,-5.042937 -1.78204,-5.599434 -0.86028,-1.637198 -4.53786,-2.241069 -14.54191,-2.387832 -8.69102,-0.1275 -9.51369,-0.04765 -10.72674,1.041154 -2.02034,1.813399 -3.88399,5.962241 -6.21797,13.842386 -2.10602,7.110516 -4.08846,12.395822 -4.64949,12.395822 -0.15898,0 -0.47137,-0.994988 -0.6942,-2.211085 z"
   id="path100"
   inkscape:connector-curvature="0" /></svg>