<?xml version="1.0" encoding="utf-8"?>
<!-- Generator: Adobe Illustrator 23.0.3, SVG Export Plug-In . SVG Version: 6.00 Build 0)  -->
<svg version="1.1" id="Layer_1" xmlns="http://www.w3.org/2000/svg" xmlns:xlink="http://www.w3.org/1999/xlink" x="0px" y="0px"
	 viewBox="0 0 300 500" style="enable-background:new 0 0 300 500;" xml:space="preserve">
<style type="text/css">
	.st0{fill:#FFE1AA;}
</style>
<g id="Layer_3">
</g>
<path class="st0" d="M135.5,66.5c-1.2,3,0.4,6.3-2.2,9.2c-3.4,0.4-1.1-4.8-6.6-3c-4.6,1.5-3.9-0.6-3.3-3.2c1.7-6.9-3.8-3.4-7.3-2.3
	c-2.9-1.6,3.2-10-8.1-4.8c-0.7-3.3,2.1-5.6,3.4-8.5c-4.6-0.4-9-0.3-12.9-2.3c3.4-3.2,9.9-3.7,12.3-7.8c-3.2-2.4-9.7-1.9-11.7-5.9
	c2.4-1.6,6.5,0,8.6-2.3c0.5-2-2.1-1.4-3.4-1.8c-3.8-0.9-9-1.6-8.3-4.9c0.7-3.1,5.5-1,8.4-1.1c7.4-0.3,9.5-3.8,11.2-8
	c2.6-6.3,2.2-14.3,13.2-16.6c14.4-3,29.5-3.3,43.9,0.5c7,1.8,8,7,9.8,11.4c5.1,12.7,5.1,12.7,22.6,12.4c-1.1,5.7-8.4,5.4-13.4,7.2
	c1.3,3.6,6.7,1.1,8.8,3.3c-2.2,3.6-7.8,3.5-11.7,5.4c1.7,3,5.4,4.4,9.2,5.8c2,0.8,4.1,1.5,0.9,3.1c-2.2,2.2-9-2.1-9.2,3.1
	c0.2,0.4,0.4,0.8,0.4,1.3c1.2,1.8-0.2,2.7-2.2,3.3c-1.3,0.1-2.6,0.2-3.9,0.3c-3.2,0.9,0.8,4-2.9,4.7c-7.9-0.7-4,3.3-4.6,5.6
	c-5.1,0.2-0.7-4-3.8-4.5c1.7,1.8,1.4,3.8,0,5.8c-1.3-0.2-2.6-0.4-3.9-0.6c-2.4-1.8-1.7-4.4-3.7-6.3c-0.2-5.7,5.9-9.8,7.5-15
	c2.1-7.2,4.1-14.4-4.6-20c-5-3.2-11.4-4.8-16-8.5c-1.3-1-3.9-0.8-4.8,0.3c-3.9,4.8-11.1,6.3-16.6,9.4c-4,2.2-5.4,5.3-5.3,8.8
	c0.2,6.5,2.6,12.6,6.8,18.4C133.5,61.2,136.7,63.3,135.5,66.5z"/>
</svg>
