<?xml version="1.0" encoding="UTF-8" standalone="no"?>
<svg
   xmlns:dc="http://purl.org/dc/elements/1.1/"
   xmlns:cc="http://creativecommons.org/ns#"
   xmlns:rdf="http://www.w3.org/1999/02/22-rdf-syntax-ns#"
   xmlns:svg="http://www.w3.org/2000/svg"
   xmlns="http://www.w3.org/2000/svg"
   xmlns:sodipodi="http://sodipodi.sourceforge.net/DTD/sodipodi-0.dtd"
   xmlns:inkscape="http://www.inkscape.org/namespaces/inkscape"
   version="1.1"
   width="71.999702"
   height="119.9999"
   id="svg1935"
   viewBox="0 0 71.999702 119.9999"
   sodipodi:docname="blue_eyes.svg"
   inkscape:version="0.92.3 (2405546, 2018-03-11)">
  <metadata
     id="metadata1941">
    <rdf:RDF>
      <cc:Work
         rdf:about="">
        <dc:format>image/svg+xml</dc:format>
        <dc:type
           rdf:resource="http://purl.org/dc/dcmitype/StillImage" />
        <dc:title></dc:title>
      </cc:Work>
    </rdf:RDF>
  </metadata>
  <defs
     id="defs1939" />
  <sodipodi:namedview
     pagecolor="#ffffff"
     bordercolor="#666666"
     borderopacity="1"
     objecttolerance="10"
     gridtolerance="10"
     guidetolerance="10"
     inkscape:pageopacity="0"
     inkscape:pageshadow="2"
     inkscape:window-width="1920"
     inkscape:window-height="1051"
     id="namedview1937"
     showgrid="false"
     inkscape:zoom="1.9666683"
     inkscape:cx="-36.96619"
     inkscape:cy="59.99995"
     inkscape:window-x="-9"
     inkscape:window-y="-9"
     inkscape:window-maximized="1"
     inkscape:current-layer="svg1935" />
  <g
     id="Layer1000">
    <g
       id="Layer1001">
      <path
         d="m 39.2618,8.3526 c 0.2505,-0.0195 0.4486,0.1673 0.4691,0.3952 0.0216,0.2525 -0.1683,0.4506 -0.3942,0.4711 C 39.0832,9.2415 38.8831,9.0506 38.8646,8.8227 38.843,8.5702 39.0339,8.3711 39.2618,8.3526 Z m -1.0315,0.1591 c 0.0051,0.0554 -0.0093,0.1109 0.0041,0.2258 0.041,0.3624 0.2627,0.6744 0.5819,0.8355 0.0442,0.0226 0.076,0.0349 0.1222,0.0514 0.0185,0.0071 0.0431,0.0112 0.0369,0.0164 0.0257,0.0102 0.1961,0.0215 0.2361,0.0246 0.0801,0.0062 0.1776,0.0134 0.2566,0.0093 C 39.5256,9.6541 39.5851,9.6562 39.696,9.61 39.7689,9.5792 39.8294,9.5474 39.889,9.5084 40.2554,9.2661 40.4361,8.8248 40.3426,8.3875 40.3365,8.3588 40.3129,8.289 40.3129,8.2695 40.2287,8.2407 40.1507,8.211 40.0614,8.1863 39.4363,8.018 39.0093,8.1401 38.4499,8.4009 38.374,8.4368 38.3031,8.4778 38.2303,8.5117 Z"
         style="fill:#0093dc;fill-rule:evenodd"
         id="path1900"
         inkscape:connector-curvature="0" />
      <path
         d="m 37.2551,9.2836 c -0.0451,0.0041 -0.1016,0.002 -0.1437,-0.0072 -0.1898,-0.0452 0.038,-0.1817 0.1294,-0.1981 -0.0103,0.0606 -0.0216,0.0934 -0.0011,0.1622 0.0042,0.0143 0.0124,0.0308 0.0154,0.0431 z M 37.4676,9.2733 37.2942,9.2805 C 37.2613,9.2169 37.2521,9.1563 37.2777,9.0804 37.2859,9.0578 37.3116,9.0578 37.3588,9.0383 37.3824,9.028 37.4235,9.0054 37.445,9.0003 c -0.0205,0.0688 -0.0462,0.1283 -0.0082,0.2166 0.0103,0.0215 0.0236,0.039 0.0308,0.0564 z m 2.0005,0.4014 C 39.3891,9.6788 39.2916,9.6716 39.2115,9.6654 39.1715,9.6623 39.0011,9.651 38.9754,9.6408 38.8995,9.6356 38.6911,9.5946 38.61,9.5771 38.3986,9.5309 37.9808,9.415 37.7848,9.3308 37.5415,9.2261 37.5343,9.337 37.4748,9.2138 37.4471,9.1563 37.4461,9.0988 37.4676,9.0383 37.4984,8.951 37.5025,8.9777 37.5692,8.9233 37.6082,8.8915 37.6503,8.8627 37.6945,8.833 37.8115,8.7509 38.025,8.6205 38.1605,8.5497 38.1779,8.5404 38.2169,8.522 38.2303,8.5117 38.3031,8.4778 38.374,8.4368 38.4499,8.4009 39.0093,8.1401 39.4363,8.018 40.0614,8.1863 c 0.0893,0.0247 0.1673,0.0544 0.2515,0.0832 0.0431,0.0205 0.1242,0.0492 0.1817,0.0759 0.3161,0.1437 0.3931,0.2084 0.663,0.3911 0.0226,0.0154 0.1366,0.0965 0.1324,0.1293 -0.0102,0.076 -0.1252,0.1704 -0.1827,0.2125 C 40.9,9.2292 40.6157,9.4026 40.356,9.5104 40.046,9.6377 39.8027,9.6644 39.4681,9.6747 Z M 38.0127,8.5353 c 0.0051,-0.0072 0,-0.0041 0.0102,-0.0072 -0.0051,0.0082 0,0.0052 -0.0102,0.0072 z M 38.0229,8.5281 C 38.0291,8.5199 38.025,8.5209 38.0363,8.5179 38.0301,8.5271 38.0352,8.5251 38.0229,8.5281 Z m 0.0134,-0.0102 c 0.0051,-0.0072 0.001,-0.0041 0.0102,-0.0062 -0.0051,0.0072 0,0.0041 -0.0102,0.0062 z m 0.0143,-0.0103 -0.0041,0.0041 z m 0.0062,-0.0031 -0.0062,0.0031 z m 0.0041,-0.0031 -0.0041,0.0031 z m 0,0 z m 0.0103,-0.0102 0.001,0.001 c 0,0 -0.0021,-0.001 -0.001,-0.001 z m 1.5293,-0.5851 z m 0,0 c 0.0278,-0.0431 0.0873,-0.0657 0.115,-0.1108 0.0154,-0.0267 0.0144,-0.0288 0.0113,-0.0606 -0.0185,10e-4 -0.0257,0.0154 -0.037,0.0246 L 39.5862,7.8507 C 39.5615,7.8681 39.539,7.8866 39.5102,7.901 39.5,7.9061 39.4743,7.9184 39.4609,7.9143 39.4209,7.9051 39.4548,7.8497 39.4692,7.8332 39.4897,7.8096 39.5174,7.7942 39.54,7.7737 L 39.6005,7.708 c 0.0308,-0.0328 0.0647,-0.0708 0.0852,-0.1098 -0.0123,0.0031 -0.0061,0.002 -0.0143,0.0092 -0.115,0.0924 -0.3459,0.2494 -0.4784,0.3192 0.0072,-0.0307 0.0483,-0.0903 0.0668,-0.1149 L 39.3193,7.7378 C 39.3532,7.6947 39.3911,7.6577 39.424,7.6136 39.4384,7.5951 39.4486,7.5787 39.4609,7.5582 39.4743,7.5376 39.4815,7.5181 39.4876,7.4914 L 39.3665,7.6208 C 39.3583,7.629 39.3573,7.6331 39.3501,7.6413 39.3265,7.6659 39.3018,7.6895 39.2782,7.7131 L 39.2023,7.785 C 39.1735,7.8065 39.153,7.8312 39.1294,7.8548 39.0719,7.9123 38.9498,8.0221 38.8779,8.0395 38.9354,7.9533 38.9908,7.8856 39.0524,7.8035 39.076,7.7727 39.1171,7.7131 39.1253,7.669 39.1325,7.6269 39.1038,7.668 39.0863,7.6865 39.034,7.7388 38.9939,7.8014 38.9467,7.8579 38.9426,7.864 38.9405,7.8661 38.9364,7.8712 38.8944,7.9236 38.8461,7.9708 38.7989,8.018 L 38.6932,8.1176 C 38.6819,8.1278 38.6757,8.1309 38.6655,8.1412 38.6573,8.1483 38.6439,8.1596 38.6357,8.1658 38.6532,8.0898 38.8194,7.9307 38.8513,7.8096 38.8533,7.7994 38.8615,7.7604 38.843,7.7881 38.8102,7.8384 38.7712,7.8825 38.7342,7.9297 38.7024,7.9708 38.6614,8.0077 38.6275,8.0488 38.6193,8.059 38.608,8.0683 38.5987,8.0775 38.5895,8.0868 38.5813,8.096 38.571,8.1052 L 38.5402,8.133 C 38.5166,8.1566 38.4479,8.2253 38.4232,8.2407 38.4263,8.2264 38.4335,8.2171 38.4407,8.2069 38.4766,8.1453 38.5166,8.0488 38.5392,7.981 38.5433,7.9677 38.5474,7.9513 38.5536,7.94 38.5413,7.9441 38.4889,8.0242 38.4766,8.0385 L 38.3965,8.133 c -0.0102,0.0123 -0.0154,0.0184 -0.0277,0.0297 -0.0113,0.0123 -0.0174,0.0216 -0.0287,0.0329 -0.039,0.04 -0.077,0.079 -0.1181,0.118 -0.0441,0.0431 -0.1098,0.0975 -0.1591,0.1345 -0.0123,0.0092 -0.0215,0.0164 -0.0338,0.0246 -0.0924,0.0636 -0.2751,0.1889 -0.3583,0.2617 -0.0071,0.0062 -0.0092,0.0072 -0.0164,0.0134 -0.0287,0.0267 -0.0688,0.0575 -0.0903,0.0883 0.0123,-0.0031 0.0185,-0.0103 0.0277,-0.0165 0.0093,-0.0071 0.0185,-0.0123 0.0288,-0.0195 l 0.2781,-0.1899 c 0.0236,-0.0164 0.0914,-0.0687 0.114,-0.0749 -0.0083,0.0113 -0.0483,0.038 -0.0637,0.0493 -0.0862,0.0657 -0.1796,0.1252 -0.2586,0.2001 l -0.0647,0.0514 c -0.1119,0.0831 -0.1509,0.117 -0.2895,0.1724 -0.0564,0.0226 -0.1201,0.0328 -0.1745,0.0585 -0.0503,0.0236 -0.1006,0.0493 -0.1344,0.0944 -0.0483,0.0627 -0.0288,0.1119 0.039,0.1386 0.0441,0.0185 0.0975,0.0216 0.1488,0.0226 0.0739,0 0.2135,-0.0216 0.2751,-0.0123 0.0328,0.0051 0.0739,0.002 0.1078,0.0061 0.0297,0.0041 0.0698,0.0093 0.0975,0.0185 0.0595,0.0195 0.1088,0.0452 0.1683,0.0647 l 0.1704,0.0585 c 0.117,0.039 0.2381,0.0739 0.3572,0.1047 0.1242,0.0318 0.2494,0.0595 0.3788,0.0831 0.0657,0.0113 0.1324,0.0216 0.1981,0.0308 0.0944,0.0144 0.1714,0.0154 0.2617,0.0257 0.0164,0.002 0.037,0.002 0.0554,0.0031 0.0318,0.0041 0.0791,0 0.1119,0.0041 0.0287,0.0041 0.076,0.0061 0.1098,0.002 0.0524,-0.0072 0.114,-0.002 0.1663,-0.0082 0.0144,-0.0021 0.04,-0.0041 0.0534,-0.0051 C 39.8274,9.6931 39.929,9.6736 40.0255,9.6521 40.1753,9.6192 40.3591,9.5576 40.4976,9.4878 40.512,9.4807 40.5243,9.4755 40.5377,9.4694 40.6629,9.4078 40.7871,9.338 40.9031,9.26 L 41.1433,9.0968 C 41.1546,9.0875 41.1658,9.0804 41.1761,9.0711 41.2182,9.0352 41.2593,8.9982 41.29,8.952 41.3024,8.9325 41.3219,8.8987 41.3249,8.871 l 0.0657,0.0082 c 0.0134,0.002 0.0236,10e-4 0.036,0.002 l 0.117,0.0031 c 0.0174,0 0.0184,-0.0031 0.0338,-0.0031 0.0134,-10e-4 0.0278,0.0011 0.0411,-10e-4 0.0462,-0.0051 0.0975,-0.0041 0.1458,-0.0113 0.0349,-0.0051 0.1231,-10e-4 0.1139,-0.041 C 41.8669,8.7827 41.7016,8.8063 41.6,8.7899 41.5518,8.7827 41.5138,8.7724 41.4748,8.7581 41.4512,8.7498 41.3834,8.718 41.3722,8.7026 c 0.1272,0 0.1847,0.0236 0.312,0.0277 0.0277,0.0011 0.0749,0.0031 0.078,-0.0338 -0.0216,0 -0.0544,-0.0072 -0.0749,-0.0103 C 41.6082,8.6729 41.3906,8.602 41.2777,8.5754 41.2531,8.5692 41.2326,8.562 41.2326,8.5323 41.29,8.4932 41.405,8.5425 41.4071,8.4809 41.3845,8.4799 41.3095,8.4645 41.2459,8.4635 c -0.0174,0 -0.0185,-0.0031 -0.0339,-0.0031 -0.0123,-10e-4 -0.0256,0 -0.0379,0 C 41.1207,8.4573 41.055,8.4512 41.0057,8.444 40.9862,8.4399 40.9657,8.4358 40.9472,8.4306 40.9308,8.4255 40.9031,8.4214 40.8938,8.4091 l 0.0616,-0.0308 c 0.0657,-0.0246 0.1858,0.002 0.2053,-0.079 -0.0215,0 -0.0267,0.003 -0.0482,0.003 -0.0811,0.0011 -0.1643,0.0216 -0.2464,0.0206 -0.0349,0 -0.0708,0 -0.1057,0 0.0318,-0.0442 0.312,-0.1027 0.3623,-0.1776 -0.0318,0 -0.1929,0.0462 -0.2402,0.0575 -0.0349,0.0082 -0.1159,0.0318 -0.1467,0.0349 0.0267,-0.039 0.1303,-0.0534 0.1683,-0.1232 -0.0164,0 -0.0287,0.0082 -0.0411,0.0133 -0.0338,0.0134 -0.2658,0.0832 -0.2976,0.0863 0.0072,-0.0339 0.04,-0.0709 0.0605,-0.0965 0.0216,-0.0277 0.0555,-0.0513 0.0842,-0.0739 0.0359,-0.0277 0.1016,-0.0729 0.1211,-0.115 0.0236,-0.0564 -0.0462,-0.0082 -0.08,0.0093 l -0.153,0.0831 c -0.0328,0.0185 -0.1847,0.1016 -0.2319,0.0801 -0.0206,-0.0432 0.1118,-0.1653 0.1385,-0.191 0.0401,-0.04 0.1694,-0.1426 0.0945,-0.1929 -0.0267,0.0185 -0.0349,0.0626 -0.1869,0.1385 -0.0379,0.0185 -0.0698,0.0349 -0.1067,0.0544 -0.0349,0.0195 -0.0657,0.0462 -0.117,0.0473 -0.0236,0 -0.0483,0.0071 -0.0647,-0.0083 C 40.1086,7.9349 40.1261,7.9072 40.1353,7.8938 40.1486,7.8743 40.1558,7.8641 40.1702,7.8466 40.2061,7.8045 40.3498,7.6557 40.3529,7.6187 40.279,7.6352 40.084,7.7902 40.0162,7.8394 39.9895,7.86 39.928,7.899 39.8838,7.8887 c 0,-0.0298 0.0093,-0.0441 0.0257,-0.0667 0.0144,-0.0206 0.0267,-0.036 0.0421,-0.0544 0.0164,-0.0185 0.0277,-0.0298 0.0451,-0.0472 L 40.046,7.6742 C 40.0542,7.667 40.0604,7.6598 40.0676,7.6516 40.0922,7.6269 40.1209,7.6095 40.1456,7.5849 40.163,7.5664 40.1743,7.5561 40.1907,7.5346 40.2031,7.5192 40.2205,7.4945 40.2226,7.4709 40.1558,7.5161 39.9885,7.6475 39.9239,7.6988 39.8561,7.7522 39.7648,7.8168 39.6868,7.8589 39.6611,7.8733 39.6293,7.899 39.6005,7.9061 Z"
         style="fill:#1f1a17;fill-rule:evenodd"
         id="path1902"
         inkscape:connector-curvature="0" />
      <path
         d="M 39.4681,9.6747 C 39.8027,9.6644 40.046,9.6377 40.356,9.5104 40.6157,9.4026 40.9,9.2292 41.1073,9.0783 41.1648,9.0362 41.2798,8.9418 41.29,8.8658 41.2942,8.833 41.1802,8.7519 41.1576,8.7365 40.8877,8.5538 40.8107,8.4891 40.4946,8.3454 40.4371,8.3187 40.356,8.29 40.3129,8.2695 c 0,0.0195 0.0236,0.0893 0.0297,0.118 0.0935,0.4373 -0.0872,0.8786 -0.4536,1.1209 -0.0596,0.039 -0.1201,0.0708 -0.193,0.1016 -0.1109,0.0462 -0.1704,0.0441 -0.2279,0.0647 z"
         style="fill:#ffffff;fill-rule:evenodd"
         id="path1904"
         inkscape:connector-curvature="0" />
      <path
         d="M 38.9754,9.6408 C 38.9816,9.6356 38.957,9.6315 38.9385,9.6244 38.8923,9.6079 38.8605,9.5956 38.8163,9.573 38.4971,9.4119 38.2754,9.0999 38.2344,8.7375 38.221,8.6226 38.2354,8.5671 38.2303,8.5117 c -0.0134,0.0103 -0.0524,0.0287 -0.0698,0.038 -0.1355,0.0708 -0.349,0.2012 -0.466,0.2833 -0.0442,0.0297 -0.0863,0.0585 -0.1253,0.0903 -0.0667,0.0544 -0.0708,0.0277 -0.1016,0.115 -0.0215,0.0605 -0.0205,0.118 0.0072,0.1755 0.0595,0.1232 0.0667,0.0123 0.31,0.117 0.196,0.0842 0.6138,0.2001 0.8252,0.2463 0.0811,0.0175 0.2895,0.0585 0.3654,0.0637 z"
         style="fill:#fefefe;fill-rule:evenodd"
         id="path1906"
         inkscape:connector-curvature="0" />
      <path
         d="M 39.2618,8.3526 C 39.034,8.3711 38.843,8.5702 38.8646,8.8227 38.8831,9.0506 39.0832,9.2415 39.3367,9.2189 39.5626,9.1984 39.7525,9.0003 39.7309,8.7478 39.7104,8.5199 39.5123,8.3331 39.2618,8.3526 Z"
         style="fill:#1f1a17;fill-rule:evenodd"
         id="path1908"
         inkscape:connector-curvature="0" />
      <path
         d="M 39.4394,9.8286 C 39.114,9.8286 38.8122,9.7701 38.5146,9.6962 38.4663,9.6839 38.4222,9.6757 38.3729,9.6634 38.3483,9.6572 38.3267,9.6521 38.3011,9.6459 38.2775,9.6398 38.2518,9.6305 38.2282,9.6305 c 10e-4,0 0.0021,0 0.0021,0.001 10e-4,0.0052 0.0174,0.0103 0.0215,0.0124 0.1037,0.0503 0.2433,0.0636 0.3172,0.1006 0.0246,0.0123 0.077,0.0513 0.0975,0.0564 -0.0062,-0.0236 -0.0205,-0.0308 -0.0308,-0.0472 0.037,0.0082 0.0924,0.041 0.1242,0.0595 0.0205,0.0123 0.037,0.0236 0.0565,0.037 0.0164,0.0113 0.0349,0.0308 0.0554,0.0369 0.0143,-0.0318 -0.0052,-0.0503 -0.0072,-0.079 0.0103,0.0051 0.0359,0.0103 0.0503,0.0154 0.0616,0.0205 0.1108,0.0605 0.1652,0.0934 0.0349,0.0215 0.0904,0.0626 0.1304,0.0657 C 39.1982,9.9651 39.152,9.9302 39.1335,9.9148 39.1068,9.8923 39.0791,9.8717 39.0596,9.842 c 0.077,0 0.1468,0.0297 0.195,0.0585 0.0462,0.0267 0.0924,0.0544 0.1355,0.0872 0.0103,0.0072 0.0072,0.0082 0.0216,0.0123 -0.0164,-0.0708 -0.0934,-0.0862 -0.1293,-0.1406 0.0513,-0.0123 0.1139,0.039 0.1519,0.0667 0.0246,0.0185 0.0441,0.0267 0.0708,0.0421 C 39.5256,9.9795 39.5615,10 39.5903,10 39.5728,9.9733 39.4661,9.9025 39.4394,9.8625 c 0.0462,0 0.154,0.0564 0.1817,0.078 0.0441,0.0349 0.1129,0.0842 0.1673,0.0965 C 39.7822,10.0277 39.774,10.0206 39.7648,10.0134 39.7545,10.0062 39.7494,10 39.7381,9.9918 L 39.6242,9.9077 C 39.6118,9.8994 39.5728,9.8758 39.5656,9.8666 c 0.0216,0 0.0657,0.0195 0.0822,0.0267 0.0205,0.0092 0.0985,0.0585 0.0657,-0.0031 0.0646,0.0051 0.1375,0.0626 0.1991,0.0872 0.0123,0.0052 0.0226,0.0072 0.0328,0.0124 C 39.9403,9.9672 39.9167,9.9477 39.9023,9.9302 39.8951,9.923 39.889,9.92 39.8818,9.9138 39.8674,9.9005 39.8582,9.8923 39.8418,9.881 39.8305,9.8728 39.8048,9.8615 39.7986,9.8522 c 0.0883,0.0206 0.1571,0.0524 0.2392,0.0791 0.0287,0.0102 0.0534,0.0164 0.0862,0.0236 C 40.1168,9.9251 40.0635,9.8994 40.0368,9.884 40.0163,9.8728 39.9526,9.8368 39.9423,9.8214 c 0.1437,0 0.2823,0.1581 0.3798,0.1581 C 40.3119,9.9641 40.2975,9.9538 40.2842,9.9426 40.278,9.9374 40.2749,9.9333 40.2698,9.9282 L 40.0891,9.8009 c 0.1324,0 0.2412,0.0431 0.347,0.0852 0.0431,0.0164 0.1539,0.0626 0.194,0.0657 C 40.6085,9.9189 40.5264,9.8717 40.4905,9.8512 40.4022,9.8019 40.3088,9.7763 40.2123,9.7465 40.2031,9.7434 40.2051,9.7455 40.199,9.7393 c 0.1108,0 0.1919,0.0072 0.2904,0.0318 0.0822,0.0206 0.1632,0.0493 0.2433,0.0811 0.0133,0.0062 0.0236,0.0103 0.039,0.0164 0.0236,0.0093 0.0965,0.0473 0.115,0.0493 C 40.8815,9.9107 40.8466,9.8861 40.8364,9.8789 L 40.7029,9.7896 C 40.6331,9.7434 40.5459,9.7024 40.4679,9.6695 40.4566,9.6644 40.4453,9.6623 40.4381,9.6541 c 0.0986,0 0.1632,0.0123 0.2515,0.0462 C 40.7594,9.727 40.8507,9.764 40.9277,9.764 40.9205,9.7352 40.7132,9.6387 40.6721,9.6192 40.6557,9.61 40.6444,9.6038 40.626,9.5966 40.6106,9.5905 40.5921,9.5802 40.5757,9.5792 40.589,9.5279 40.8015,9.5648 40.8456,9.572 40.9041,9.5823 40.9595,9.6008 41.0201,9.6059 41.0129,9.5741 40.9503,9.5433 40.9185,9.5299 40.8672,9.5084 40.8477,9.5227 40.7871,9.4827 c 0.0431,-0.0811 0.2002,-0.0523 0.2741,-0.038 0.0236,0.0052 0.0482,0.0093 0.0698,0.0134 0.0225,0.0051 0.0482,0.0133 0.0708,0.0143 C 41.1956,9.4006 41.0222,9.3647 40.9585,9.3636 40.9688,9.3503 40.9924,9.338 41.0109,9.3328 41.0745,9.3154 41.1556,9.3226 41.2192,9.3318 41.2541,9.337 41.289,9.3462 41.3249,9.3493 41.3126,9.3051 41.2079,9.2672 41.1463,9.2672 L 41.095,9.2713 c 0.0503,-0.075 0.2156,-0.0473 0.2895,-0.0298 0.0143,0.0031 0.0359,0.0082 0.0493,0.0092 -0.0113,-0.0503 -0.114,-0.0954 -0.1571,-0.0995 0.0257,-0.038 0.076,-0.0585 0.1232,-0.0585 0.0493,0 0.0872,0.0379 0.2289,0.0379 C 41.6267,9.0968 41.5826,9.0711 41.5528,9.0629 41.5364,9.0588 41.5456,9.068 41.5364,9.0557 c 0.0503,0 0.0472,-0.0061 0.1098,0 0.0175,0.0021 0.0359,0.0062 0.0585,0.0062 C 41.6616,8.9982 41.4512,8.9623 41.3835,8.9941 41.366,9.0023 41.3496,9.0218 41.3342,9.0342 l -0.0986,0.08 c -0.0174,0.0134 -0.0328,0.0247 -0.0502,0.038 -0.0688,0.0523 -0.1427,0.0965 -0.2146,0.1447 -0.1077,0.0729 -0.2217,0.1376 -0.3336,0.2033 -0.1139,0.0657 -0.2443,0.1221 -0.3664,0.1714 -0.2648,0.1047 -0.543,0.157 -0.8314,0.157 z"
         style="fill:#1f1a17;fill-rule:evenodd"
         id="path1910"
         inkscape:connector-curvature="0" />
      <path
         d="M 37.4676,9.2733 C 37.4604,9.2559 37.4471,9.2384 37.4368,9.2169 37.3988,9.1286 37.4245,9.0691 37.445,9.0003 37.4235,9.0054 37.3824,9.028 37.3588,9.0383 37.3116,9.0578 37.2859,9.0578 37.2777,9.0804 37.2521,9.1563 37.2613,9.2169 37.2942,9.2805 Z"
         style="fill:#fefefe;fill-rule:evenodd"
         id="path1912"
         inkscape:connector-curvature="0" />
      <path
         d="M 37.2551,9.2836 C 37.2521,9.2713 37.2439,9.2548 37.2397,9.2405 37.2192,9.1717 37.2305,9.1389 37.2408,9.0783 37.1494,9.0947 36.9216,9.2312 37.1114,9.2764 37.1535,9.2856 37.21,9.2877 37.2551,9.2836 Z"
         style="fill:#fefefe;fill-rule:evenodd"
         id="path1914"
         inkscape:connector-curvature="0" />
    </g>
    <g
       id="Layer1002">
      <path
         d="M 32.9894,8.3526 C 32.739,8.3331 32.5409,8.5199 32.5203,8.7478 32.4988,9.0003 32.6887,9.1984 32.9145,9.2189 33.168,9.2415 33.3682,9.0506 33.3866,8.8227 33.4082,8.5702 33.2173,8.3711 32.9894,8.3526 Z M 34.021,8.5117 C 34.0158,8.5671 34.0302,8.6226 34.0169,8.7375 33.9758,9.0999 33.7541,9.4119 33.4349,9.573 33.3907,9.5956 33.3589,9.6079 33.3127,9.6244 33.2942,9.6315 33.2696,9.6356 33.2758,9.6408 33.2501,9.651 33.0797,9.6623 33.0397,9.6654 32.9596,9.6716 32.8621,9.6788 32.7831,9.6747 32.7256,9.6541 32.6661,9.6562 32.5552,9.61 32.4823,9.5792 32.4218,9.5474 32.3623,9.5084 31.9958,9.2661 31.8152,8.8248 31.9086,8.3875 31.9147,8.3588 31.9383,8.289 31.9383,8.2695 32.0225,8.2407 32.1005,8.211 32.1898,8.1863 c 0.6251,-0.1683 1.0521,-0.0462 1.6115,0.2146 0.076,0.0359 0.1468,0.0769 0.2197,0.1108 z"
         style="fill:#0093dc;fill-rule:evenodd"
         id="path1917"
         inkscape:connector-curvature="0" />
      <path
         d="m 34.9961,9.2836 c 0.0451,0.0041 0.1016,0.002 0.1437,-0.0072 0.1899,-0.0452 -0.038,-0.1817 -0.1293,-0.1981 0.0102,0.0606 0.0215,0.0934 10e-4,0.1622 -0.0041,0.0143 -0.0123,0.0308 -0.0154,0.0431 z M 34.7836,9.2733 34.9571,9.2805 C 34.9899,9.2169 34.9992,9.1563 34.9735,9.0804 34.9653,9.0578 34.9396,9.0578 34.8924,9.0383 34.8688,9.028 34.8277,9.0054 34.8062,9.0003 c 0.0205,0.0688 0.0462,0.1283 0.0082,0.2166 -0.0103,0.0215 -0.0236,0.039 -0.0308,0.0564 z m -2.0005,0.4014 c 0.079,0.0041 0.1765,-0.0031 0.2566,-0.0093 0.04,-0.0031 0.2104,-0.0144 0.2361,-0.0246 0.0759,-0.0052 0.2843,-0.0462 0.3654,-0.0637 0.2114,-0.0462 0.6292,-0.1621 0.8252,-0.2463 0.2433,-0.1047 0.2505,0.0062 0.31,-0.117 0.0277,-0.0575 0.0288,-0.115 0.0072,-0.1755 C 34.7528,8.951 34.7487,8.9777 34.682,8.9233 34.643,8.8915 34.6009,8.8627 34.5568,8.833 34.4397,8.7509 34.2263,8.6205 34.0908,8.5497 34.0733,8.5404 34.0343,8.522 34.021,8.5117 33.9481,8.4778 33.8773,8.4368 33.8013,8.4009 33.2419,8.1401 32.8149,8.018 32.1898,8.1863 32.1005,8.211 32.0225,8.2407 31.9383,8.2695 31.8952,8.29 31.8141,8.3187 31.7567,8.3454 31.4405,8.4891 31.3635,8.5538 31.0936,8.7365 31.071,8.7519 30.9571,8.833 30.9612,8.8658 c 0.0102,0.076 0.1252,0.1704 0.1827,0.2125 0.2073,0.1509 0.4916,0.3243 0.7513,0.4321 0.31,0.1273 0.5533,0.154 0.8879,0.1643 z m 1.4555,-1.1394 c -0.0052,-0.0072 0,-0.0041 -0.0103,-0.0072 0.0051,0.0082 0,0.0052 0.0103,0.0072 z M 34.2283,8.5281 C 34.2221,8.5199 34.2263,8.5209 34.215,8.5179 c 0.0061,0.0092 10e-4,0.0072 0.0133,0.0102 z M 34.215,8.5179 C 34.2098,8.5107 34.2139,8.5138 34.2047,8.5117 c 0.0051,0.0072 0,0.0041 0.0103,0.0062 z m -0.0144,-0.0103 0.0041,0.0041 z m -0.0062,-0.0031 0.0062,0.0031 z m -0.0041,-0.0031 0.0041,0.0031 z m 0,0 z M 34.1801,8.4912 34.179,8.4922 c 0,0 0.0021,-0.001 0.0011,-0.001 z M 32.6507,7.9061 Z m 0,0 C 32.623,7.863 32.5634,7.8404 32.5357,7.7953 32.5203,7.7686 32.5214,7.7665 32.5244,7.7347 c 0.0185,10e-4 0.0257,0.0154 0.037,0.0246 l 0.1037,0.0914 c 0.0246,0.0174 0.0472,0.0359 0.0759,0.0503 0.0103,0.0051 0.0359,0.0174 0.0493,0.0133 0.04,-0.0092 0.0061,-0.0646 -0.0082,-0.0811 C 32.7615,7.8096 32.7338,7.7942 32.7112,7.7737 L 32.6507,7.708 C 32.6199,7.6752 32.586,7.6372 32.5655,7.5982 c 0.0123,0.0031 0.0061,0.002 0.0144,0.0092 0.1149,0.0924 0.3459,0.2494 0.4783,0.3192 C 33.051,7.8959 33.0099,7.8363 32.9915,7.8117 L 32.9319,7.7378 C 32.8981,7.6947 32.8601,7.6577 32.8272,7.6136 32.8129,7.5951 32.8026,7.5787 32.7903,7.5582 32.7769,7.5376 32.7697,7.5181 32.7636,7.4914 l 0.1211,0.1294 c 0.0082,0.0082 0.0092,0.0123 0.0164,0.0205 0.0236,0.0246 0.0483,0.0482 0.0719,0.0718 l 0.0759,0.0719 c 0.0288,0.0215 0.0493,0.0462 0.0729,0.0698 0.0575,0.0575 0.1796,0.1673 0.2515,0.1847 C 33.3158,7.9533 33.2604,7.8856 33.1988,7.8035 33.1752,7.7727 33.1341,7.7131 33.1259,7.669 c -0.0072,-0.0421 0.0216,-10e-4 0.039,0.0175 0.0524,0.0523 0.0924,0.1149 0.1396,0.1714 0.0041,0.0061 0.0062,0.0082 0.0103,0.0133 0.0421,0.0524 0.0903,0.0996 0.1375,0.1468 l 0.1057,0.0996 c 0.0113,0.0102 0.0175,0.0133 0.0278,0.0236 0.0082,0.0071 0.0215,0.0184 0.0297,0.0246 C 33.5981,8.0898 33.4318,7.9307 33.4,7.8096 33.3979,7.7994 33.3897,7.7604 33.4082,7.7881 33.441,7.8384 33.48,7.8825 33.517,7.9297 c 0.0318,0.0411 0.0729,0.078 0.1067,0.1191 0.0083,0.0102 0.0195,0.0195 0.0288,0.0287 0.0092,0.0093 0.0174,0.0185 0.0277,0.0277 L 33.711,8.133 c 0.0236,0.0236 0.0924,0.0923 0.117,0.1077 C 33.8249,8.2264 33.8177,8.2171 33.8105,8.2069 33.7746,8.1453 33.7346,8.0488 33.712,7.981 33.7079,7.9677 33.7038,7.9513 33.6976,7.94 c 0.0124,0.0041 0.0647,0.0842 0.077,0.0985 l 0.0801,0.0945 c 0.0102,0.0123 0.0154,0.0184 0.0277,0.0297 0.0113,0.0123 0.0175,0.0216 0.0287,0.0329 0.039,0.04 0.077,0.079 0.1181,0.118 0.0441,0.0431 0.1098,0.0975 0.1591,0.1345 0.0123,0.0092 0.0215,0.0164 0.0339,0.0246 0.0923,0.0636 0.275,0.1889 0.3582,0.2617 0.0072,0.0062 0.0092,0.0072 0.0164,0.0134 0.0287,0.0267 0.0688,0.0575 0.0903,0.0883 C 34.6748,8.833 34.6686,8.8258 34.6594,8.8196 34.6502,8.8125 34.6409,8.8073 34.6307,8.8001 L 34.3525,8.6102 C 34.3289,8.5938 34.2612,8.5415 34.2386,8.5353 c 0.0082,0.0113 0.0482,0.038 0.0636,0.0493 0.0862,0.0657 0.1796,0.1252 0.2587,0.2001 l 0.0646,0.0514 c 0.1119,0.0831 0.1509,0.117 0.2895,0.1724 0.0564,0.0226 0.1201,0.0328 0.1745,0.0585 0.0503,0.0236 0.1006,0.0493 0.1344,0.0944 0.0483,0.0627 0.0288,0.1119 -0.039,0.1386 -0.0441,0.0185 -0.0975,0.0216 -0.1488,0.0226 -0.0739,0 -0.2135,-0.0216 -0.2751,-0.0123 -0.0328,0.0051 -0.0739,0.002 -0.1078,0.0061 -0.0297,0.0041 -0.0697,0.0093 -0.0975,0.0185 -0.0595,0.0195 -0.1088,0.0452 -0.1683,0.0647 L 34.217,9.4581 C 34.1,9.4971 33.9789,9.532 33.8598,9.5628 33.7356,9.5946 33.6104,9.6223 33.4811,9.6459 33.4154,9.6572 33.3487,9.6675 33.283,9.6767 c -0.0945,0.0144 -0.1715,0.0154 -0.2618,0.0257 -0.0164,0.002 -0.0369,0.002 -0.0554,0.0031 -0.0318,0.0041 -0.079,0 -0.1119,0.0041 C 32.8252,9.7137 32.778,9.7157 32.7441,9.7116 32.6917,9.7044 32.6302,9.7096 32.5778,9.7034 32.5634,9.7013 32.5378,9.6993 32.5244,9.6983 32.4238,9.6931 32.3222,9.6736 32.2257,9.6521 32.0759,9.6192 31.8921,9.5576 31.7536,9.4878 31.7392,9.4807 31.7269,9.4755 31.7136,9.4694 31.5883,9.4078 31.4641,9.338 31.3481,9.26 L 31.108,9.0968 C 31.0967,9.0875 31.0854,9.0804 31.0751,9.0711 31.033,9.0352 30.992,8.9982 30.9612,8.952 30.9489,8.9325 30.9294,8.8987 30.9263,8.871 l -0.0657,0.0082 c -0.0134,0.002 -0.0236,10e-4 -0.0359,0.002 l -0.1171,0.0031 c -0.0174,0 -0.0184,-0.0031 -0.0338,-0.0031 C 30.6604,8.8802 30.6461,8.8823 30.6327,8.8802 30.5865,8.8751 30.5352,8.8761 30.487,8.8689 30.4521,8.8638 30.3638,8.8679 30.373,8.8279 30.3843,8.7827 30.5496,8.8063 30.6512,8.7899 30.6994,8.7827 30.7374,8.7724 30.7764,8.7581 30.8,8.7498 30.8678,8.718 30.8791,8.7026 c -0.1273,0 -0.1848,0.0236 -0.3121,0.0277 -0.0277,0.0011 -0.0749,0.0031 -0.078,-0.0338 0.0216,0 0.0544,-0.0072 0.075,-0.0103 0.079,-0.0133 0.2966,-0.0842 0.4095,-0.1108 0.0246,-0.0062 0.0452,-0.0134 0.0452,-0.0431 -0.0575,-0.0391 -0.1725,0.0102 -0.1745,-0.0514 0.0225,-10e-4 0.0975,-0.0164 0.1611,-0.0174 0.0175,0 0.0185,-0.0031 0.0339,-0.0031 0.0123,-10e-4 0.0257,0 0.038,0 0.0533,-0.0031 0.119,-0.0092 0.1683,-0.0164 0.0195,-0.0041 0.04,-0.0082 0.0585,-0.0134 0.0164,-0.0051 0.0441,-0.0092 0.0534,-0.0215 L 31.2958,8.3783 c -0.0657,-0.0246 -0.1858,0.002 -0.2053,-0.079 0.0216,0 0.0267,0.003 0.0483,0.003 0.081,0.0011 0.1642,0.0216 0.2463,0.0206 0.0349,0 0.0708,0 0.1057,0 -0.0318,-0.0442 -0.312,-0.1027 -0.3623,-0.1776 0.0318,0 0.193,0.0462 0.2402,0.0575 0.0349,0.0082 0.116,0.0318 0.1468,0.0349 -0.0267,-0.039 -0.1304,-0.0534 -0.1684,-0.1232 0.0164,0 0.0288,0.0082 0.0411,0.0133 C 31.422,8.1412 31.654,8.211 31.6858,8.2141 31.6787,8.1802 31.6458,8.1432 31.6253,8.1176 31.6037,8.0899 31.5699,8.0663 31.5411,8.0437 31.5052,8.016 31.4395,7.9708 31.42,7.9287 31.3964,7.8723 31.4662,7.9205 31.5001,7.938 l 0.1529,0.0831 c 0.0328,0.0185 0.1848,0.1016 0.232,0.0801 0.0205,-0.0432 -0.1119,-0.1653 -0.1386,-0.191 -0.04,-0.04 -0.1694,-0.1426 -0.0944,-0.1929 0.0267,0.0185 0.0349,0.0626 0.1868,0.1385 0.038,0.0185 0.0698,0.0349 0.1067,0.0544 0.0349,0.0195 0.0657,0.0462 0.117,0.0473 0.0237,0 0.0483,0.0071 0.0647,-0.0083 C 32.1426,7.9349 32.1252,7.9072 32.1159,7.8938 32.1026,7.8743 32.0954,7.8641 32.081,7.8466 32.0451,7.8045 31.9014,7.6557 31.8983,7.6187 31.9722,7.6352 32.1672,7.7902 32.235,7.8394 32.2617,7.86 32.3233,7.899 32.3674,7.8887 32.3674,7.8589 32.3582,7.8446 32.3417,7.822 32.3274,7.8014 32.315,7.786 32.2996,7.7676 32.2832,7.7491 32.2719,7.7378 32.2545,7.7204 L 32.2052,7.6742 C 32.197,7.667 32.1908,7.6598 32.1837,7.6516 32.159,7.6269 32.1303,7.6095 32.1057,7.5849 32.0882,7.5664 32.0769,7.5561 32.0605,7.5346 32.0482,7.5192 32.0307,7.4945 32.0287,7.4709 c 0.0667,0.0452 0.234,0.1766 0.2987,0.2279 0.0677,0.0534 0.1591,0.118 0.2371,0.1601 0.0256,0.0144 0.0574,0.0401 0.0862,0.0472 z"
         style="fill:#1f1a17;fill-rule:evenodd"
         id="path1919"
         inkscape:connector-curvature="0" />
      <path
         d="M 32.7831,9.6747 C 32.4485,9.6644 32.2052,9.6377 31.8952,9.5104 31.6355,9.4026 31.3512,9.2292 31.1439,9.0783 31.0864,9.0362 30.9714,8.9418 30.9612,8.8658 30.9571,8.833 31.071,8.7519 31.0936,8.7365 31.3635,8.5538 31.4405,8.4891 31.7567,8.3454 31.8141,8.3187 31.8952,8.29 31.9383,8.2695 c 0,0.0195 -0.0236,0.0893 -0.0297,0.118 -0.0934,0.4373 0.0872,0.8786 0.4537,1.1209 0.0595,0.039 0.12,0.0708 0.1929,0.1016 0.1109,0.0462 0.1704,0.0441 0.2279,0.0647 z"
         style="fill:#ffffff;fill-rule:evenodd"
         id="path1921"
         inkscape:connector-curvature="0" />
      <path
         d="m 33.2758,9.6408 c -0.0062,-0.0052 0.0185,-0.0093 0.0369,-0.0164 0.0462,-0.0165 0.078,-0.0288 0.1222,-0.0514 0.3192,-0.1611 0.5409,-0.4731 0.582,-0.8355 0.0133,-0.1149 -0.0011,-0.1704 0.0041,-0.2258 0.0133,0.0103 0.0523,0.0287 0.0698,0.038 0.1355,0.0708 0.349,0.2012 0.466,0.2833 0.0441,0.0297 0.0862,0.0585 0.1252,0.0903 0.0667,0.0544 0.0708,0.0277 0.1016,0.115 0.0216,0.0605 0.0205,0.118 -0.0072,0.1755 -0.0595,0.1232 -0.0667,0.0123 -0.31,0.117 -0.196,0.0842 -0.6138,0.2001 -0.8252,0.2463 -0.0811,0.0175 -0.2895,0.0585 -0.3654,0.0637 z"
         style="fill:#fefefe;fill-rule:evenodd"
         id="path1923"
         inkscape:connector-curvature="0" />
      <path
         d="m 32.9894,8.3526 c 0.2279,0.0185 0.4188,0.2176 0.3972,0.4701 C 33.3682,9.0506 33.168,9.2415 32.9145,9.2189 32.6887,9.1984 32.4988,9.0003 32.5203,8.7478 32.5409,8.5199 32.739,8.3331 32.9894,8.3526 Z"
         style="fill:#1f1a17;fill-rule:evenodd"
         id="path1925"
         inkscape:connector-curvature="0" />
      <path
         d="m 32.8118,9.8286 c 0.3254,0 0.6272,-0.0585 0.9248,-0.1324 0.0483,-0.0123 0.0924,-0.0205 0.1417,-0.0328 0.0246,-0.0062 0.0462,-0.0113 0.0718,-0.0175 0.0236,-0.0061 0.0493,-0.0154 0.0729,-0.0154 -0.001,0 -0.002,0 -0.002,0.001 -0.0011,0.0052 -0.0175,0.0103 -0.0216,0.0124 -0.1037,0.0503 -0.2433,0.0636 -0.3172,0.1006 -0.0246,0.0123 -0.0769,0.0513 -0.0975,0.0564 0.0062,-0.0236 0.0206,-0.0308 0.0308,-0.0472 -0.0369,0.0082 -0.0924,0.041 -0.1242,0.0595 -0.0205,0.0123 -0.0369,0.0236 -0.0564,0.037 C 33.4184,9.8615 33.4,9.881 33.3794,9.8871 33.3651,9.8553 33.3846,9.8368 33.3866,9.8081 33.3764,9.8132 33.3507,9.8184 33.3363,9.8235 33.2747,9.844 33.2255,9.884 33.1711,9.9169 33.1362,9.9384 33.0808,9.9795 33.0407,9.9826 33.053,9.9651 33.0992,9.9302 33.1177,9.9148 33.1444,9.8923 33.1721,9.8717 33.1916,9.842 c -0.077,0 -0.1468,0.0297 -0.195,0.0585 C 32.9504,9.9272 32.9042,9.9549 32.8611,9.9877 32.8508,9.9949 32.8539,9.9959 32.8395,10 32.856,9.9292 32.9329,9.9138 32.9689,9.8594 32.9175,9.8471 32.8549,9.8984 32.817,9.9261 32.7923,9.9446 32.7728,9.9528 32.7461,9.9682 32.7256,9.9795 32.6897,10 32.6609,10 c 0.0175,-0.0267 0.1242,-0.0975 0.1509,-0.1375 -0.0462,0 -0.1539,0.0564 -0.1817,0.078 -0.0441,0.0349 -0.1129,0.0842 -0.1673,0.0965 0.0062,-0.0093 0.0144,-0.0164 0.0236,-0.0236 C 32.4967,10.0062 32.5018,10 32.5131,9.9918 l 0.114,-0.0841 c 0.0123,-0.0083 0.0513,-0.0319 0.0585,-0.0411 -0.0216,0 -0.0657,0.0195 -0.0821,0.0267 C 32.5829,9.9025 32.5049,9.9518 32.5378,9.8902 32.4731,9.8953 32.4002,9.9528 32.3386,9.9774 32.3263,9.9826 32.3161,9.9846 32.3058,9.9898 32.3109,9.9672 32.3345,9.9477 32.3489,9.9302 32.3561,9.923 32.3622,9.92 32.3694,9.9138 32.3838,9.9005 32.393,9.8923 32.4095,9.881 32.4208,9.8728 32.4464,9.8615 32.4526,9.8522 32.3643,9.8728 32.2955,9.9046 32.2134,9.9313 32.1847,9.9415 32.16,9.9477 32.1272,9.9549 32.1344,9.9251 32.1878,9.8994 32.2144,9.884 32.235,9.8728 32.2986,9.8368 32.3089,9.8214 c -0.1437,0 -0.2823,0.1581 -0.3798,0.1581 0.0103,-0.0154 0.0246,-0.0257 0.038,-0.0369 0.0061,-0.0052 0.0092,-0.0093 0.0143,-0.0144 l 0.1807,-0.1273 c -0.1324,0 -0.2412,0.0431 -0.3469,0.0852 -0.0432,0.0164 -0.154,0.0626 -0.194,0.0657 0.0215,-0.0329 0.1036,-0.0801 0.1396,-0.1006 0.0882,-0.0493 0.1816,-0.0749 0.2781,-0.1047 0.0093,-0.0031 0.0072,-10e-4 0.0134,-0.0072 -0.1109,0 -0.192,0.0072 -0.2905,0.0318 -0.0821,0.0206 -0.1632,0.0493 -0.2433,0.0811 -0.0133,0.0062 -0.0236,0.0103 -0.039,0.0164 -0.0236,0.0093 -0.0965,0.0473 -0.1149,0.0493 0.0051,-0.0072 0.04,-0.0318 0.0503,-0.039 l 0.1334,-0.0893 c 0.0698,-0.0462 0.157,-0.0872 0.235,-0.1201 0.0113,-0.0051 0.0226,-0.0072 0.0298,-0.0154 -0.0985,0 -0.1632,0.0123 -0.2515,0.0462 C 31.4918,9.727 31.4005,9.764 31.3235,9.764 31.3307,9.7352 31.538,9.6387 31.5791,9.6192 31.5955,9.61 31.6068,9.6038 31.6253,9.5966 31.6407,9.5905 31.6591,9.5802 31.6756,9.5792 31.6622,9.5279 31.4497,9.5648 31.4056,9.572 31.3471,9.5823 31.2917,9.6008 31.2311,9.6059 31.2383,9.5741 31.3009,9.5433 31.3327,9.5299 31.3841,9.5084 31.4036,9.5227 31.4641,9.4827 31.421,9.4016 31.264,9.4304 31.1901,9.4447 31.1665,9.4499 31.1418,9.454 31.1203,9.4581 31.0977,9.4632 31.072,9.4714 31.0494,9.4724 31.0556,9.4006 31.2291,9.3647 31.2927,9.3636 31.2824,9.3503 31.2588,9.338 31.2404,9.3328 31.1767,9.3154 31.0956,9.3226 31.032,9.3318 30.9971,9.337 30.9622,9.3462 30.9263,9.3493 30.9386,9.3051 31.0433,9.2672 31.1049,9.2672 l 0.0513,0.0041 C 31.1059,9.1963 30.9406,9.224 30.8667,9.2415 30.8524,9.2446 30.8308,9.2497 30.8175,9.2507 30.8288,9.2004 30.9314,9.1553 30.9745,9.1512 30.9489,9.1132 30.8986,9.0927 30.8513,9.0927 c -0.0492,0 -0.0872,0.0379 -0.2289,0.0379 0.0021,-0.0338 0.0462,-0.0595 0.076,-0.0677 0.0164,-0.0041 0.0072,0.0051 0.0164,-0.0072 -0.0503,0 -0.0472,-0.0061 -0.1098,0 -0.0174,0.0021 -0.0359,0.0062 -0.0585,0.0062 0.0431,-0.0637 0.2535,-0.0996 0.3213,-0.0678 0.0174,0.0082 0.0338,0.0277 0.0492,0.0401 l 0.0986,0.08 c 0.0174,0.0134 0.0328,0.0247 0.0503,0.038 0.0687,0.0523 0.1426,0.0965 0.2145,0.1447 0.1078,0.0729 0.2217,0.1376 0.3336,0.2033 0.1139,0.0657 0.2443,0.1221 0.3664,0.1714 0.2648,0.1047 0.543,0.157 0.8314,0.157 z"
         style="fill:#1f1a17;fill-rule:evenodd"
         id="path1927"
         inkscape:connector-curvature="0" />
      <path
         d="m 34.7836,9.2733 c 0.0072,-0.0174 0.0205,-0.0349 0.0308,-0.0564 0.038,-0.0883 0.0123,-0.1478 -0.0082,-0.2166 0.0215,0.0051 0.0626,0.0277 0.0862,0.038 0.0472,0.0195 0.0729,0.0195 0.0811,0.0421 0.0257,0.0759 0.0164,0.1365 -0.0164,0.2001 z"
         style="fill:#fefefe;fill-rule:evenodd"
         id="path1929"
         inkscape:connector-curvature="0" />
      <path
         d="m 34.9961,9.2836 c 0.0031,-0.0123 0.0113,-0.0288 0.0154,-0.0431 0.0205,-0.0688 0.0092,-0.1016 -0.0011,-0.1622 0.0914,0.0164 0.3193,0.1529 0.1294,0.1981 -0.0421,0.0092 -0.0986,0.0113 -0.1437,0.0072 z"
         style="fill:#fefefe;fill-rule:evenodd"
         id="path1931"
         inkscape:connector-curvature="0" />
    </g>
  </g>
</svg>
