<?xml version="1.0" encoding="utf-8"?>
<!-- Generator: Adobe Illustrator 23.0.3, SVG Export Plug-In . SVG Version: 6.00 Build 0)  -->
<svg version="1.1" id="Layer_1" xmlns="http://www.w3.org/2000/svg" xmlns:xlink="http://www.w3.org/1999/xlink" x="0px" y="0px"
	 viewBox="0 0 300 500" style="enable-background:new 0 0 300 500;" xml:space="preserve">
<style type="text/css">
	.st0{fill:#84C1FE;}
</style>
<g id="Layer_3">
</g>
<path class="st0" d="M125.8,45.5c-0.7-9.3-8.6-18.2-6.6-27.6c0.2-1.1,0.9-2.1-1.7-2.5c-6.2-0.6-2.2-2.3-0.3-2.8
	c5.9-1.6,3.5-3.3-0.2-5.6c4.9-0.6,9.4-0.1,13-1.4c6.4-2.3,20.1-2.1,26.5-2.9c10.5-1.4,14.9,6.6,23.7,4.1c4.2,12.5-2.5,23.9-6.4,35.6
	c-2.9-3.9-6.2-7.7-7.6-11.9c-1.8-6.9-1.5-6.9-13.2-7.5c-16.5-1-16.5-0.2-20.8,9C130.5,36.3,129.5,41.2,125.8,45.5z"/>
</svg>
