<?xml version="1.0" encoding="UTF-8"?>
<!DOCTYPE svg PUBLIC "-//W3C//DTD SVG 1.1//EN" "http://www.w3.org/Graphics/SVG/1.1/DTD/svg11.dtd">
<!-- Creator: CorelDRAW Home & Student X7 -->
<svg xmlns="http://www.w3.org/2000/svg" xml:space="preserve" width="300px" height="500px" version="1.1" style="shape-rendering:geometricPrecision; text-rendering:geometricPrecision; image-rendering:optimizeQuality; fill-rule:evenodd; clip-rule:evenodd"
viewBox="0 0 300 500"
 xmlns:xlink="http://www.w3.org/1999/xlink">
 <defs>
  <style type="text/css">
   <![CDATA[
    .fil4 {fill:black}
    .fil20 {fill:#030303}
    .fil1 {fill:#1A93E3}
    .fil21 {fill:#1B95E5}
    .fil17 {fill:#1D97E5}
    .fil24 {fill:#209AE6}
    .fil25 {fill:#229CE8}
    .fil27 {fill:#249EE9}
    .fil26 {fill:#26A0EA}
    .fil19 {fill:#28A3EB}
    .fil28 {fill:#2BA5EC}
    .fil23 {fill:#2DA8ED}
    .fil29 {fill:#30AAEE}
    .fil30 {fill:#31ACEF}
    .fil2 {fill:#33AEF0}
    .fil3 {fill:#35B0F1}
    .fil22 {fill:#38B3F2}
    .fil12 {fill:#DDDDDD}
    .fil9 {fill:#E0E0E0}
    .fil10 {fill:#E3E3E3}
    .fil13 {fill:#E5E5E5}
    .fil5 {fill:#E7E7E7}
    .fil7 {fill:#EBEBEB}
    .fil16 {fill:#EDEDED}
    .fil15 {fill:#EFEFEF}
    .fil18 {fill:#F1F1F1}
    .fil6 {fill:#F2F2F2}
    .fil14 {fill:#F6F6F6}
    .fil8 {fill:#F8F8F8}
    .fil11 {fill:#FBFBFB}
    .fil0 {fill:white}
   ]]>
  </style>
 </defs>
 <g id="Layer_x0020_1">
  <metadata id="CorelCorpID_0Corel-Layer"/>
  <g id="_378187720">
   <path class="fil0" d="M146 37c0,-1 1,-1 1,-2 0,0 0,-1 0,-1 1,0 1,0 1,0 0,-1 1,-1 1,-1 1,-1 3,-1 4,0 0,0 1,0 1,0 0,1 0,1 0,1 1,0 1,1 1,1 0,1 1,1 1,2 0,1 -1,1 -1,2 0,1 0,1 -1,1 0,1 0,1 0,1 -2,1 -4,1 -6,0 0,-1 0,-1 -1,-1 0,-1 -1,-2 -1,-3zm-2 0c0,1 0,2 1,3 1,2 3,4 6,4 1,0 1,0 2,-1 2,0 3,-1 4,-3l0 -1c1,-1 1,-2 1,-4 -1,0 -1,-1 -1,-2 -1,-1 -2,-1 -3,-2 0,0 -1,0 -1,0 -2,-1 -3,-1 -5,0 0,0 0,0 0,0 -1,1 -1,1 -2,1 0,0 0,0 0,0 0,1 -1,2 -1,2 0,1 -1,2 -1,3z"/>
   <path class="fil1" d="M155 37c0,1 -1,1 -1,1 0,1 -1,2 -2,2 0,0 -1,0 -1,0 -1,0 -1,0 -1,0 -1,0 -1,0 -1,0 0,0 0,0 -1,-1 0,0 0,0 0,0 0,-1 -1,-1 -1,-2 0,-1 1,-2 1,-2 1,-1 2,-1 3,-1 0,0 1,0 1,0 1,0 1,0 1,0 1,1 2,2 2,3zm-4 -4c-2,0 -3,0 -3,1 0,0 0,0 0,0 -1,1 -2,2 -1,4 0,0 0,1 0,1 0,1 1,1 1,1l0 0c2,2 4,2 5,1 2,-1 3,-3 2,-5 0,0 0,-1 0,-1 0,-1 0,0 -1,-1l0 0c-1,-1 -2,-2 -3,-1z"/>
   <g>
    <path class="fil2" d="M153 36c0,0 0,0 0,0l0 0zm-4 1c0,1 0,1 1,1 0,1 1,1 1,1 1,0 1,0 1,-1 1,0 1,0 1,0 0,0 0,0 0,0 0,0 0,0 0,0 0,-1 0,-1 0,-2 0,-1 -1,-1 -2,-1 -1,0 -2,0 -2,1 0,0 0,1 0,1z"/>
   </g>
   <path class="fil3" d="M149 37c0,0 0,-1 0,-1 1,0 1,-1 2,-1 1,0 1,1 2,1 1,2 -2,4 -3,2 -1,0 -1,0 -1,-1zm4 -1c0,0 0,0 0,0z"/>
   <path class="fil4" d="M149 37c1,1 1,2 2,2 1,-1 2,-1 2,-2 -1,-1 -1,-2 -2,-2 -1,1 -2,1 -2,2z"/>
   <path class="fil5" d="M143 37c0,-1 1,-2 1,-3 0,-1 1,-1 1,-2 1,0 1,0 1,-1l1 -1c1,0 2,0 4,0 2,0 4,0 5,2 0,0 1,0 1,0 0,0 0,0 0,0 1,1 2,3 2,5l0 0c0,1 -1,3 -1,4 -1,1 -1,0 -1,1 0,0 -1,0 -1,0 -2,3 -5,3 -8,2 0,0 -1,-1 -1,-1 -1,-1 -2,-2 -3,-3 0,0 -1,-2 -1,-3l0 0zm0 0c0,1 0,2 1,3 0,0 0,0 0,0 0,0 0,1 0,1 1,0 1,1 1,1 1,1 2,1 2,2 0,0 0,0 0,0 2,1 5,1 7,0 1,-1 2,-1 3,-2 0,0 0,0 0,-1 1,0 1,-1 1,-1 0,0 0,0 0,-1 1,0 1,-1 1,-2 0,0 0,0 0,0 0,-1 -1,-2 -1,-3 0,-1 -1,-3 -2,-3 -1,0 -1,-1 -1,-1 -3,-1 -5,-1 -8,0 0,1 -1,1 -2,2 0,0 0,0 0,0 0,0 0,0 0,0 -1,1 -1,2 -1,3 0,0 -1,0 -1,0 0,1 0,1 0,2z"/>
   <path class="fil6" d="M151 30c0,0 0,0 0,0l0 0c1,0 2,0 3,1 0,0 1,0 1,0 0,0 1,1 1,1 0,0 0,0 0,1 1,0 1,1 2,1 0,1 0,1 0,2 0,1 0,2 0,4 -1,0 -1,1 -1,1l-1 1c0,0 0,0 -1,1 0,0 -1,0 -2,1 0,0 0,0 0,0 0,0 -1,0 -1,0 -1,0 -1,0 -2,0 -1,0 -2,-1 -3,-1l0 0c0,0 -1,-1 -1,-1 0,0 0,0 0,0 0,-1 -1,-1 -1,-1 0,0 -1,-1 -1,-2l0 -1c0,0 0,-1 0,-2 0,-1 1,-2 1,-3 0,0 0,0 0,0l1 -1c0,0 0,0 0,0l1 -1c0,0 0,0 0,0 0,0 0,0 0,0 0,0 0,0 0,0 0,0 1,0 1,0l1 -1c1,0 1,0 2,0l0 0zm-1 0l0 0c0,0 -1,0 -1,0 -1,0 -1,1 -1,1 -1,0 -3,1 -3,2 0,0 0,1 0,1 -1,0 -1,1 -1,2 0,1 0,1 0,2 0,1 0,1 0,1 0,0 0,0 0,0 0,1 1,3 2,3 0,0 0,0 0,0 0,1 1,1 1,1l1 0c0,1 0,1 0,1 2,0 4,0 5,0 1,-1 2,-1 2,-1 1,-1 1,-1 2,-2 0,0 0,-1 1,-1 0,0 0,0 0,0 0,-1 0,-1 0,-1 0,-1 0,-2 0,-3 0,0 0,-1 0,-1 0,-1 -1,-2 -1,-3 -1,0 -1,0 -1,0l-1 -1c0,0 0,0 -1,0l0 0c-1,-1 -1,-1 -2,-1 0,0 -1,0 -1,0 0,0 -1,0 -1,0z"/>
   <path class="fil7" d="M144 37c0,-2 0,-4 2,-5l1 -1c2,-2 5,-2 7,-1 0,0 0,0 0,0l1 1c0,0 0,0 0,0 1,0 1,1 1,1l1 1c0,0 1,1 1,1 1,2 1,3 0,5 0,1 0,2 -1,3l-1 1c0,0 0,0 0,0 -2,1 -5,2 -8,1l-1 -1c0,0 0,0 -1,0l0 -1c0,0 0,0 -1,0l0 0c0,-1 -1,-2 -1,-3 0,0 0,-1 0,-2zm-1 0l0 0c0,1 1,3 1,3 1,1 2,2 3,3 0,0 1,1 1,1 3,1 6,1 8,-2 0,0 1,0 1,0 0,-1 0,0 1,-1 0,-1 1,-3 1,-4l0 0c0,-2 -1,-4 -2,-5 0,0 0,0 0,0 0,0 -1,0 -1,0 -1,-2 -3,-2 -5,-2 -2,0 -3,0 -4,0l-1 1c0,1 0,1 -1,1 0,1 -1,1 -1,2 0,1 -1,2 -1,3z"/>
   <path class="fil8" d="M151 30c0,0 0,0 0,0 0,0 0,0 0,0 0,0 0,0 0,0 0,0 0,0 1,0 0,0 1,0 1,1 2,0 3,1 4,3 0,0 1,1 1,2 0,0 0,1 0,1 0,1 0,2 -1,2 0,1 0,1 0,2 0,0 0,0 0,0 -1,0 -1,1 -1,1l-1 0c-1,1 -1,1 -2,2 -1,0 -1,0 -1,0l-1 0c0,0 -1,0 -1,0 -1,0 -1,0 -1,-1 0,0 0,0 0,0 -1,0 -1,0 -2,0 0,-1 -1,-1 -1,-1 0,0 0,0 0,-1 0,0 -1,0 -1,-1 0,0 0,0 0,0 0,0 0,-1 -1,-1 0,-1 0,-1 0,-1 0,0 0,0 0,-1 0,0 0,-1 0,-1 0,-1 0,-1 1,-2 0,0 0,0 0,0 0,-1 0,-1 0,-1 0,0 0,0 0,0l1 0c0,0 0,-1 0,-1l1 0c0,-1 1,-1 1,-1 0,0 1,0 1,0 0,0 0,0 0,0 0,-1 1,-1 1,-1 1,0 1,0 1,0l0 0zm-7 7c0,1 0,2 0,2l1 1c0,0 0,1 0,1l1 1c3,3 7,3 10,0 1,-1 1,-1 1,-2l1 -1c0,-1 0,-3 0,-4 -1,-1 -1,-2 -2,-3 0,0 0,0 0,0 -1,-1 -3,-2 -5,-2 -2,0 -4,1 -5,3 0,0 0,0 -1,0 0,0 0,0 0,0 0,1 0,1 0,1 -1,1 -1,1 -1,1 0,0 0,1 0,2z"/>
   <path class="fil9" d="M143 37c0,-1 0,-2 0,-2 0,0 0,-1 1,-1 0,0 0,-1 1,-2l0 0c0,0 1,-1 1,-1 0,0 0,0 1,0 2,-2 5,-2 7,-1 1,0 2,1 2,1 0,0 0,0 0,0 1,0 1,1 1,1 0,0 1,1 1,1l0 1c0,0 1,1 1,1 0,1 0,1 0,2 0,1 0,2 -1,3 0,1 0,1 -1,2 0,0 0,0 0,0 0,0 0,1 0,1l-1 0c0,0 0,0 -1,1 -2,1 -6,1 -9,-1l-1 -1c-1,-1 -1,-2 -2,-3 0,-1 0,-1 0,-2zm16 2c0,0 0,-1 0,-1 0,-1 0,-1 0,-2 0,0 0,0 0,0 0,-1 0,-2 -1,-3 0,0 0,0 0,0 0,0 0,0 0,0 0,-1 0,-1 0,-1 -2,-1 -3,-2 -5,-3 -2,0 -4,0 -5,1l-1 0c0,0 0,0 -1,0 0,1 0,1 0,1 0,0 0,0 -1,0 0,0 0,0 0,1 0,0 0,0 0,0l-1 0c0,0 0,1 0,1 0,0 -1,2 -1,3 0,1 0,1 0,1l0 1c0,1 1,2 1,3 0,0 1,1 1,1 0,0 0,0 0,0 0,1 0,1 1,1 0,0 0,0 0,0 0,1 0,1 1,1 0,0 2,1 3,1 2,0 4,0 5,-1 1,-1 2,-1 2,-2 0,0 1,0 1,0l0 -1 1 -2z"/>
   <path class="fil10" d="M143 37c0,-1 0,-2 1,-3 0,-1 0,-1 1,-1 1,-2 3,-4 6,-4l0 0c1,0 3,1 3,1 0,0 1,0 1,0 0,0 0,0 0,0 1,1 2,2 3,3 0,1 1,2 1,2 0,3 0,4 -2,6 -1,2 -3,4 -6,4l0 0c-2,0 -4,-1 -6,-3 0,0 0,0 0,-1l-1 0c0,0 0,-1 0,-1 -1,-1 -1,-2 -1,-3zm0 0c0,1 0,1 0,2 1,1 1,2 2,3l1 1c3,2 7,2 9,1 1,-1 1,-1 1,-1l1 0c0,0 0,-1 0,-1 0,0 0,0 0,0 1,-1 1,-1 1,-2 1,-1 1,-2 1,-3 0,-1 0,-1 0,-2 0,0 -1,-1 -1,-1l0 -1c0,0 -1,-1 -1,-1 0,0 0,-1 -1,-1 0,0 0,0 0,0 0,0 -1,-1 -2,-1 -2,-1 -5,-1 -7,1 -1,0 -1,0 -1,0 0,0 -1,1 -1,1l0 0c-1,1 -1,2 -1,2 -1,0 -1,1 -1,1 0,0 0,1 0,2z"/>
   <path class="fil11" d="M144 37c0,-1 1,-2 1,-3 0,0 1,-1 1,-2 0,0 0,0 0,0 1,0 1,0 2,-1 0,0 0,0 0,0 2,-1 3,-1 5,0 0,0 1,0 1,0 1,1 2,1 3,2 0,1 0,2 1,2 0,2 0,3 -1,4l0 1c-1,2 -2,3 -4,3 -1,1 -1,1 -2,1 -3,0 -5,-2 -6,-4 -1,-1 -1,-2 -1,-3zm7 -7c0,0 0,0 -1,0 0,0 -1,0 -1,1 0,0 0,0 0,0 0,0 -1,0 -1,0 0,0 -1,0 -1,1l-1 0c0,0 0,1 0,1l-1 0c0,0 0,0 0,0 0,0 0,0 0,1 0,0 0,0 0,0 -1,1 -1,1 -1,2 0,0 0,1 0,1 0,1 0,1 0,1 0,0 0,0 0,1 1,0 1,1 1,1 0,0 0,0 0,0 0,1 1,1 1,1 0,1 0,1 0,1 0,0 1,0 1,1 1,0 1,0 2,0 0,0 0,0 0,0 0,1 0,1 1,1 0,0 1,0 1,0l1 0c0,0 0,0 1,0 1,-1 1,-1 2,-2l1 0c0,0 0,-1 1,-1 0,0 0,0 0,0 0,-1 0,-1 0,-2 1,0 1,-1 1,-2 0,0 0,-1 0,-1 0,-1 -1,-2 -1,-2 -1,-2 -2,-3 -4,-3 0,-1 -1,-1 -1,-1 -1,0 -1,0 -1,0 0,0 0,0 0,0 0,0 0,0 0,0 0,0 0,0 0,0l0 0z"/>
   <path class="fil12" d="M159 39l-1 2 0 1c0,0 -1,0 -1,0 0,1 -1,1 -2,2 -1,1 -3,1 -5,1 -1,0 -3,-1 -3,-1 -1,0 -1,0 -1,-1 0,0 0,0 0,0 -1,0 -1,0 -1,-1 0,0 0,0 0,0 0,0 -1,-1 -1,-1 0,-1 -1,-2 -1,-3l0 -1c0,0 0,0 0,-1 0,-1 1,-3 1,-3 0,0 0,-1 0,-1l1 0c0,0 0,0 0,0 0,-1 0,-1 0,-1 1,0 1,0 1,0 0,0 0,0 0,-1 1,0 1,0 1,0l1 0c1,-1 3,-1 5,-1 2,1 3,2 5,3 0,0 0,0 0,1 0,0 0,0 0,0 0,0 0,0 0,0 1,1 1,2 1,3 0,0 0,0 0,0 0,-4 -4,-7 -8,-7 -6,0 -9,5 -8,11 1,1 2,2 3,3 1,1 2,2 4,2 2,1 5,-1 7,-2 1,-1 2,-3 2,-4z"/>
   <path class="fil4" d="M151 33c1,-1 2,0 3,1l0 0c1,1 1,0 1,1 0,0 0,1 0,1 1,2 0,4 -2,5 -1,1 -3,1 -5,-1l0 0c0,0 -1,0 -1,-1 0,0 0,-1 0,-1 -1,-2 0,-3 1,-4 0,0 0,0 0,0 0,-1 1,-1 3,-1zm-5 4c0,1 1,2 1,3 1,0 1,0 1,1 2,1 4,1 6,0 0,0 0,0 0,-1 1,0 1,0 1,-1 0,-1 1,-1 1,-2 0,-1 -1,-1 -1,-2 0,0 0,-1 -1,-1 0,0 0,0 0,-1 0,0 -1,0 -1,0 -1,-1 -3,-1 -4,0 0,0 -1,0 -1,1 0,0 0,0 -1,0 0,0 0,1 0,1 0,1 -1,1 -1,2z"/>
   <path class="fil13" d="M143 37c0,-1 0,-1 0,-2 0,0 1,0 1,0 0,-1 0,-2 1,-3 0,0 0,0 0,0 0,0 0,0 0,0 1,-1 2,-1 2,-2 3,-1 5,-1 8,0 0,0 0,1 1,1 1,0 2,2 2,3 0,1 1,2 1,3 0,0 0,0 0,0 0,1 0,2 -1,2 0,1 0,1 0,1 0,0 0,1 -1,1 0,1 0,1 0,1 -1,1 -2,1 -3,2 -2,1 -5,1 -7,0 0,0 0,0 0,0 0,-1 -1,-1 -2,-2 0,0 0,-1 -1,-1 0,0 0,-1 0,-1 0,0 0,0 0,0 -1,-1 -1,-2 -1,-3zm0 0c0,1 0,2 1,3 0,0 0,1 0,1l1 0c0,1 0,1 0,1 2,2 4,3 6,3l0 0c3,0 5,-2 6,-4 2,-2 2,-3 2,-6 0,0 -1,-1 -1,-2 -1,-1 -2,-2 -3,-3 0,0 0,0 0,0 0,0 -1,0 -1,0 0,0 -2,-1 -3,-1l0 0c-3,0 -5,2 -6,4 -1,0 -1,0 -1,1 -1,1 -1,2 -1,3z"/>
   <path class="fil14" d="M144 37c0,-1 0,-2 0,-2 0,0 0,0 1,-1 0,0 0,0 0,-1 0,0 0,0 0,0 1,0 1,0 1,0 1,-2 3,-3 5,-3 2,0 4,1 5,2 0,0 0,0 0,0 1,1 1,2 2,3 0,1 0,3 0,4l-1 1c0,1 0,1 -1,2 -3,3 -7,3 -10,0l-1 -1c0,0 0,-1 0,-1l-1 -1c0,0 0,-1 0,-2zm7 -7c-1,0 -1,0 -2,0l-1 1c0,0 -1,0 -1,0 0,0 0,0 0,0 0,0 0,0 0,0 0,0 0,0 0,0l-1 1c0,0 0,0 0,0l-1 1c0,0 0,0 0,0 0,1 -1,2 -1,3 0,1 0,2 0,2l0 1c0,1 1,2 1,2 0,0 1,0 1,1 0,0 0,0 0,0 0,0 1,1 1,1l0 0c1,0 2,1 3,1 1,0 1,0 2,0 0,0 1,0 1,0 0,0 0,0 0,0 1,-1 2,-1 2,-1 1,-1 1,-1 1,-1l1 -1c0,0 0,-1 1,-1 0,-2 0,-3 0,-4 0,-1 0,-1 0,-2 -1,0 -1,-1 -2,-1 0,-1 0,-1 0,-1 0,0 -1,-1 -1,-1 0,0 -1,0 -1,0 -1,-1 -2,-1 -3,-1l0 0c0,0 0,0 0,0l0 0z"/>
   <path class="fil15" d="M151 44c-1,0 -3,0 -3,-1l-1 0c0,0 -1,-1 -1,-1l0 0c-1,-1 -2,-2 -2,-3 0,0 0,0 0,0 0,-1 0,-1 0,-1l0 -1c0,-1 0,-1 0,-2 0,0 0,-1 0,-1 1,0 1,-1 1,-1 0,0 0,0 0,-1l1 0c0,0 0,0 0,0l0 0c0,-1 1,-1 1,-1 0,0 0,0 0,0 1,-1 3,-1 4,-1l0 0c1,0 3,0 3,1 1,0 1,0 2,0l0 1c0,0 0,0 0,0 1,0 1,1 1,1 1,1 1,2 1,2 0,1 0,1 0,1l0 1 0 1c0,1 0,3 -1,4 -1,0 -1,0 -1,0 0,1 0,1 0,1 -1,0 -1,0 -1,0 -1,1 -2,1 -4,1l0 0zm-7 -7c0,1 0,2 0,3 1,1 1,1 1,2 1,0 1,1 2,1l0 0c1,1 2,1 3,1l1 0 1 0c1,0 2,0 3,-1 1,0 1,-1 2,-1 0,0 0,0 0,-1 0,0 0,0 0,0 0,0 0,0 0,0 2,-2 2,-5 0,-8 0,0 0,-1 0,-1l-1 0c-1,-1 -3,-2 -4,-2l-1 0c0,0 -1,0 -2,0 -1,0 -1,1 -2,1 -1,0 -1,1 -1,1 -1,1 -1,1 -2,2 0,1 0,2 0,3z"/>
   <path class="fil16" d="M144 37c0,-1 0,-2 0,-3 1,-1 1,-1 2,-2 0,0 0,-1 1,-1 1,0 1,-1 2,-1 1,0 2,0 2,0l1 0c1,0 3,1 4,2l1 0c0,0 0,1 0,1 2,3 2,6 0,8 0,0 0,0 0,0 0,0 0,0 0,0 0,1 0,1 0,1 -1,0 -1,1 -2,1 -1,1 -2,1 -3,1l-1 0 -1 0c-1,0 -2,0 -3,-1l0 0c-1,0 -1,-1 -2,-1 0,-1 0,-1 -1,-2 0,-1 0,-2 0,-3zm0 0c0,1 0,2 0,2 0,1 1,2 1,3l0 0c1,0 1,0 1,0l0 1c1,0 1,0 1,0l1 1c3,1 6,0 8,-1 0,0 0,0 0,0l1 -1c1,-1 1,-2 1,-3 1,-2 1,-3 0,-5 0,0 -1,-1 -1,-1l-1 -1c0,0 0,-1 -1,-1 0,0 0,0 0,0l-1 -1c0,0 0,0 0,0 -2,-1 -5,-1 -7,1l-1 1c-2,1 -2,3 -2,5z"/>
   <path class="fil17" d="M148 37c0,0 0,-1 0,-2 0,0 1,0 1,0 0,-1 1,-1 2,-1 0,0 1,0 1,0 1,0 1,0 1,1 1,0 1,1 1,2 0,0 0,1 0,1 0,0 0,0 0,1 0,0 0,0 0,0 0,0 0,0 0,0 -1,0 -1,1 -2,1 -1,0 -2,0 -3,-1 -1,0 -1,-1 -1,-2zm3 -3c-1,0 -1,0 -1,0 -3,1 -3,4 -1,6 2,1 6,0 5,-3 0,-2 -1,-3 -2,-3 0,0 -1,0 -1,0z"/>
   <path class="fil18" d="M150 30c0,0 1,0 1,0 0,0 1,0 1,0 1,0 1,0 2,1l0 0c1,0 1,0 1,0l1 1c0,0 0,0 1,0 0,1 1,2 1,3 0,0 0,1 0,1 0,1 0,2 0,3 0,0 0,0 0,1 0,0 0,0 0,0 -1,0 -1,1 -1,1 -1,1 -1,1 -2,2 0,0 -1,0 -2,1 -1,0 -3,0 -5,0 0,0 0,0 0,-1l-1 0c0,0 -1,0 -1,-1 0,0 0,0 0,0 -1,0 -2,-2 -2,-3 0,0 0,0 0,0 0,0 0,0 0,-1 0,-1 0,-1 0,-2 0,-1 0,-2 1,-2 0,0 0,-1 0,-1 0,-1 2,-2 3,-2 0,0 0,-1 1,-1 0,0 1,0 1,0l0 0zm1 14l0 0c2,0 3,0 4,-1 0,0 0,0 1,0 0,0 0,0 0,-1 0,0 0,0 1,0 1,-1 1,-3 1,-4l0 -1 0 -1c0,0 0,0 0,-1 0,0 0,-1 -1,-2 0,0 0,-1 -1,-1 0,0 0,0 0,0l0 -1c-1,0 -1,0 -2,0 0,-1 -2,-1 -3,-1l0 0c-1,0 -3,0 -4,1 0,0 0,0 0,0 0,0 -1,0 -1,1l0 0c0,0 0,0 0,0l-1 0c0,1 0,1 0,1 0,0 0,1 -1,1 0,0 0,1 0,1 0,1 0,1 0,2l0 1c0,0 0,0 0,1 0,0 0,0 0,0 0,1 1,2 2,3l0 0c0,0 1,1 1,1l1 0c0,1 2,1 3,1z"/>
   <path class="fil19" d="M148 37c0,0 0,-1 1,-1l0 0c0,0 0,0 0,0 0,0 0,0 0,-1 0,0 0,0 0,0 2,-1 4,0 5,2 0,1 -1,2 -3,2 0,0 0,0 0,0 -1,0 -2,0 -2,-1 0,0 0,0 0,0 0,0 -1,0 -1,-1zm0 0c0,1 1,2 3,3 0,0 0,0 0,0 1,0 1,0 1,-1l0 0c0,0 2,0 2,-2 0,-1 0,-1 -1,-2 0,0 0,0 -1,0l0 0c0,-1 0,0 0,0 0,-1 -1,-1 -1,-1 -1,1 -1,1 -2,1 0,0 -1,1 -1,2z"/>
   <path class="fil20" d="M159 36c0,1 0,1 0,2 0,0 0,1 0,1 0,1 -1,3 -2,4 -2,1 -5,3 -7,2 -2,0 -3,-1 -4,-2 -1,-1 -2,-2 -3,-3 -1,-6 2,-11 8,-11 4,0 8,3 8,7zm-16 1l0 0c0,2 1,4 2,5 0,0 0,1 1,1 0,1 0,1 1,1 0,0 0,0 1,0 0,1 2,1 3,1l0 0c2,0 3,0 4,-1 0,0 1,0 1,-1 0,0 1,0 1,-1 1,-1 1,-1 1,-2 1,0 1,-2 1,-3l0 0c0,-2 -1,-4 -2,-5 0,0 0,-1 -1,-1 0,0 0,0 0,0 -1,-1 -3,-2 -5,-2l0 0c-2,0 -3,0 -4,1 -1,0 -2,1 -2,2 0,0 -1,0 -1,0 0,1 0,1 0,1 -1,1 -1,2 -1,4z"/>
   <path class="fil21" d="M151 34c0,0 1,0 1,0 1,0 2,1 2,3 1,3 -3,4 -5,3 -2,-2 -2,-5 1,-6 0,0 0,0 1,0zm4 3c0,-1 -1,-2 -2,-3 0,0 0,0 -1,0 0,0 -1,0 -1,0 -1,0 -2,0 -3,1 0,0 -1,1 -1,2 0,1 1,1 1,2 0,0 0,0 0,0 1,1 1,1 1,1 0,0 0,0 1,0 0,0 0,0 1,0 0,0 1,0 1,0 1,0 2,-1 2,-2 0,0 1,0 1,-1z"/>
   <path class="fil22" d="M149 37c0,-1 1,-1 2,-2 1,0 1,1 2,2 0,1 -1,1 -2,2 -1,0 -1,-1 -2,-2zm0 0c0,1 0,1 1,1 1,2 4,0 3,-2 -1,0 -1,-1 -2,-1 -1,0 -1,1 -2,1 0,0 0,1 0,1z"/>
   <path class="fil23" d="M149 37c0,0 0,-1 0,-1l0 -1c1,0 1,0 2,0 1,0 1,0 2,1l0 0c0,0 0,0 0,1l0 0 0 1c0,0 0,0 0,0 -1,1 -1,1 -2,1 0,0 -1,0 -1,0 0,0 0,0 -1,0l0 -1c0,0 0,0 0,0 0,0 0,0 0,-1zm-1 0c0,0 1,1 1,1 0,0 0,0 0,0 0,0 0,0 0,0 0,1 1,1 2,1 1,0 0,0 1,0 0,0 0,0 0,0 0,0 0,0 0,0 0,0 1,0 1,0 0,0 0,0 0,0 0,0 0,0 0,0l0 0c0,0 0,0 0,0 0,0 0,0 0,-1 0,0 0,0 0,0l0 0c0,0 1,0 1,-1 0,0 -1,-1 -1,-1l0 0c0,0 0,0 0,0 0,0 0,-1 0,-1 0,0 0,0 0,0 0,0 0,0 0,0 0,0 0,0 0,0 0,0 0,0 0,0 -1,0 -1,0 -1,0 0,0 0,0 0,0 0,0 0,0 0,0 0,0 0,0 0,0l0 0c-1,0 -2,0 -2,0 -1,0 -1,1 -1,1 0,0 0,0 0,0 0,1 -1,1 -1,1z"/>
   <path class="fil24" d="M148 37c0,0 0,0 0,-1 0,0 0,0 0,0 1,-1 2,-2 3,-2 0,0 1,0 1,0 1,0 2,1 2,2 0,1 0,2 -1,3 -1,1 -3,1 -4,0 -1,0 -1,-1 -1,-2zm0 0c0,1 0,2 1,2 1,1 2,1 3,1 1,0 1,-1 2,-1 0,0 0,0 0,0 0,0 0,0 0,0 0,-1 0,-1 0,-1 0,0 0,-1 0,-1 0,-1 0,-2 -1,-2 0,-1 0,-1 -1,-1 0,0 -1,0 -1,0 -1,0 -2,0 -2,1 0,0 -1,0 -1,0 0,1 0,2 0,2z"/>
   <path class="fil25" d="M151 40c-1,0 -1,0 -2,-1 -1,-1 -1,-3 0,-4 1,-1 1,-1 2,-1 2,0 3,1 3,3 0,2 -1,3 -3,3zm-3 -3c0,1 0,2 1,2 1,1 3,1 4,0 1,-1 1,-2 1,-3 0,-1 -1,-2 -2,-2 0,0 -1,0 -1,0 -1,0 -2,1 -3,2 0,0 0,0 0,0 0,1 0,1 0,1z"/>
   <path class="fil26" d="M148 37c0,-1 1,-2 1,-2 1,0 1,0 2,-1 0,0 1,0 1,1 0,0 0,-1 0,0l0 0c1,0 1,0 1,0 1,1 1,1 1,2 0,2 -2,2 -2,2l0 0c0,1 0,1 -1,1 0,0 0,0 0,0 -2,-1 -3,-2 -3,-3zm3 3c0,0 1,0 1,0 0,0 0,0 0,-1l1 0c0,0 0,0 0,0l0 0c0,0 0,0 0,-1 1,0 1,0 1,0l0 0c0,0 0,0 0,0 0,0 0,0 0,-1 0,0 0,0 0,0 0,0 0,0 0,0l0 0c0,0 0,-1 0,-1 0,0 -1,-1 -1,-1l0 0c0,0 -1,0 -1,-1 0,0 -1,0 -1,0 -2,0 -3,2 -3,3 0,2 1,3 3,3z"/>
   <path class="fil27" d="M151 40c-2,0 -3,-1 -3,-3 0,-1 1,-3 3,-3 0,0 1,0 1,0 0,1 1,1 1,1l0 0c0,0 1,1 1,1 0,0 0,1 0,1l0 0c0,0 0,0 0,0 0,0 0,0 0,0 0,1 0,1 0,1 0,0 0,0 0,0l0 0c0,0 0,0 -1,0 0,1 0,1 0,1l0 0c0,0 0,0 0,0l-1 0c0,1 0,1 0,1 0,0 -1,0 -1,0zm0 0c2,0 3,-1 3,-3 0,-2 -1,-3 -3,-3 -1,0 -1,0 -2,1 -1,1 -1,3 0,4 1,1 1,1 2,1z"/>
   <path class="fil28" d="M148 37c0,0 1,0 1,-1 0,0 0,0 0,0 0,0 0,-1 1,-1 0,0 1,0 2,0l0 0c0,0 0,0 0,0 0,0 0,0 0,0 0,0 0,0 0,0 0,0 0,0 1,0 0,0 0,0 0,0 0,0 0,0 0,0 0,0 0,0 0,0 0,0 0,0 0,0 0,0 0,1 0,1 0,0 0,0 0,0l0 0c0,0 1,1 1,1 0,1 -1,1 -1,1l0 0c0,0 0,0 0,0 0,1 0,1 0,1 0,0 0,0 0,0l0 0c0,0 0,0 0,0 0,0 0,0 0,0 0,0 -1,0 -1,0 0,0 0,0 0,0 0,0 0,0 0,0 -1,0 0,0 -1,0 -1,0 -2,0 -2,-1 0,0 0,0 0,0 0,0 0,0 0,0 0,0 -1,-1 -1,-1zm0 0c0,1 1,1 1,1 0,0 0,0 0,0 0,1 1,1 2,1 0,0 0,0 0,0 2,0 3,-1 3,-2 -1,-2 -3,-3 -5,-2 0,0 0,0 0,0 0,1 0,1 0,1 0,0 0,0 0,0l0 0c-1,0 -1,1 -1,1z"/>
   <path class="fil29" d="M149 37c0,0 0,-1 0,-1 0,0 1,-1 1,-1 1,0 2,0 2,0 1,1 1,1 1,1 1,2 0,3 -2,3 -1,0 -1,0 -2,-1 0,0 0,0 0,-1 0,0 0,0 0,0 0,0 0,0 0,0zm0 0c0,1 0,1 0,1 0,0 0,0 0,0l0 1c1,0 1,0 1,0 0,0 1,0 1,0 1,0 1,0 2,-1 0,0 0,0 0,0l0 -1 0 0c0,-1 0,-1 0,-1l0 0c-1,-1 -1,-1 -2,-1 -1,0 -1,0 -2,0l0 1c0,0 0,1 0,1z"/>
   <path class="fil30" d="M149 37c0,0 0,-1 0,-1 0,-1 1,-1 2,-1 1,0 2,0 2,1 0,1 0,1 0,2 0,0 0,0 0,0 0,0 0,0 0,0 0,0 0,0 -1,0 0,1 0,1 -1,1 0,0 -1,0 -1,-1 -1,0 -1,0 -1,-1zm0 0c0,0 0,0 0,0 0,0 0,0 0,0 0,1 0,1 0,1 1,1 1,1 2,1 2,0 3,-1 2,-3 0,0 0,0 -1,-1 0,0 -1,0 -2,0 0,0 -1,1 -1,1 0,0 0,1 0,1z"/>
  </g>
 </g>
</svg>
