<?xml version="1.0" encoding="utf-8"?>
<!-- Generator: Adobe Illustrator 23.0.1, SVG Export Plug-In . SVG Version: 6.00 Build 0)  -->
<svg version="1.1"
	 id="Layer_1" xmlns:cc="http://creativecommons.org/ns#" xmlns:dc="http://purl.org/dc/elements/1.1/" xmlns:rdf="http://www.w3.org/1999/02/22-rdf-syntax-ns#" xmlns:svg="http://www.w3.org/2000/svg"
	 xmlns="http://www.w3.org/2000/svg" xmlns:xlink="http://www.w3.org/1999/xlink" x="0px" y="0px" viewBox="0 0 300 500"
	 style="enable-background:new 0 0 300 500;" xml:space="preserve">
<style type="text/css">
	.st0{fill:#0000F4;}
</style>
<path class="st0" d="M137.6,88.6c-6.2,3.1-13.3,0.5-19.7,2.9c-2,0.8-4.3,1-6.5,1.5c0.7-5-3.5-9.9-0.1-15.3c3.2,1.2,4.3,6.4,8.7,4.4
	c4.7-2.1,3.8-6.5,3.8-10.3c0.2-16.4-1.1-32.8,2.9-49c2.2-8.8,7.9-13.3,17.2-13.9c0.3,0,0.5,0,0.8,0c19.2-1.6,31.7,2.4,31.3,28.8
	c-0.2,12,0,24.1,0,36.1c0,3.6,0.6,7.1,4.5,8.6c4.2,1.6,5.6-2.3,8.5-5c1.3,5.3,1.6,9.8-0.8,14.3c-6.9,0.8-13.6-1.7-20.5-1.6
	c-4.1,0.1-5.1-2.8-5.4-5.9c-0.3-3.9-0.1-7.9-0.1-11.8c2.3-8.2,5.1-16.2,4.2-24.9c-0.4-4.6-1.5-8.1-5.9-10.3c-4.1-2.1-7-5.6-10.2-9.8
	c-3.9,5.2-8.2,9.3-13.4,12.4c-3,1.7-3.5,4.7-3.4,7.8c0.3,5.9,0.5,11.9,2.8,17.4C139.7,72.8,138.4,80.6,137.6,88.6z"/>
</svg>
