<?xml version="1.0" encoding="UTF-8" standalone="no"?>
<!-- Generator: Adobe Illustrator 23.0.1, SVG Export Plug-In . SVG Version: 6.00 Build 0)  -->

<svg
   xmlns:dc="http://purl.org/dc/elements/1.1/"
   xmlns:cc="http://creativecommons.org/ns#"
   xmlns:rdf="http://www.w3.org/1999/02/22-rdf-syntax-ns#"
   xmlns:svg="http://www.w3.org/2000/svg"
   xmlns="http://www.w3.org/2000/svg"
   xmlns:sodipodi="http://sodipodi.sourceforge.net/DTD/sodipodi-0.dtd"
   xmlns:inkscape="http://www.inkscape.org/namespaces/inkscape"
   version="1.1"
   id="Layer_1"
   x="0px"
   y="0px"
   viewBox="0 0 300 500"
   style="enable-background:new 0 0 300 500;"
   xml:space="preserve"
   sodipodi:docname="blue_long_hair.svg"
   inkscape:version="0.92.3 (2405546, 2018-03-11)"><metadata
   id="metadata3733"><rdf:RDF><cc:Work
       rdf:about=""><dc:format>image/svg+xml</dc:format><dc:type
         rdf:resource="http://purl.org/dc/dcmitype/StillImage" /><dc:title></dc:title></cc:Work></rdf:RDF></metadata><defs
   id="defs3731" /><sodipodi:namedview
   pagecolor="#ffffff"
   bordercolor="#666666"
   borderopacity="1"
   objecttolerance="10"
   gridtolerance="10"
   guidetolerance="10"
   inkscape:pageopacity="0"
   inkscape:pageshadow="2"
   inkscape:window-width="1920"
   inkscape:window-height="1017"
   id="namedview3729"
   showgrid="false"
   inkscape:zoom="1.696"
   inkscape:cx="150"
   inkscape:cy="250"
   inkscape:window-x="-8"
   inkscape:window-y="-8"
   inkscape:window-maximized="1"
   inkscape:current-layer="Layer_1" />
<style
   type="text/css"
   id="style3724">
	.st0{fill:#0000F4;}
</style>
<path
   class="st0"
   d="M137.6,88.6c-6.2,3.1-13.3,0.5-19.7,2.9c-2,0.8-4.3,1-6.5,1.5c0.7-5-3.5-9.9-0.1-15.3c3.2,1.2,4.3,6.4,8.7,4.4  c4.7-2.1,3.8-6.5,3.8-10.3c0.2-16.4-1.1-32.8,2.9-49c2.2-8.8,7.9-13.3,17.2-13.9c0.3,0,0.5,0,0.8,0c19.2-1.6,31.7,2.4,31.3,28.8  c-0.2,12,0,24.1,0,36.1c0,3.6,0.6,7.1,4.5,8.6c4.2,1.6,5.6-2.3,8.5-5c1.3,5.3,1.6,9.8-0.8,14.3c-6.9,0.8-13.6-1.7-20.5-1.6  c-4.1,0.1-5.1-2.8-5.4-5.9c-0.3-3.9-0.1-7.9-0.1-11.8c2.3-8.2,5.1-16.2,4.2-24.9c-0.4-4.6-1.5-8.1-5.9-10.3c-4.1-2.1-7-5.6-10.2-9.8  c-3.9,5.2-8.2,9.3-13.4,12.4c-3,1.7-3.5,4.7-3.4,7.8c0.3,5.9,0.5,11.9,2.8,17.4C139.7,72.8,138.4,80.6,137.6,88.6z"
   id="path3726" />
<path
   style="fill:#003380;stroke-width:0.58962262"
   d="m 111.21937,88.517854 c -0.85255,-4.494269 -0.92201,-8.518467 -0.16761,-9.710832 0.43432,-0.68645 1.05706,-0.37293 3.22072,1.621463 1.47527,1.359852 3.15256,2.471468 3.72732,2.470253 1.69641,-0.0035 4.86158,-2.237488 5.48188,-3.868997 0.32493,-0.854641 0.57514,-8.866457 0.57542,-18.425437 6.5e-4,-23.166403 1.41909,-36.098425 4.6551,-42.441523 1.83569,-3.598245 5.94776,-6.872199 10.0919,-8.034987 5.44772,-1.5285536 17.94072,-1.4249697 23.04933,0.19111 6.65939,2.106656 10.68537,6.753817 12.81012,14.786624 0.66791,2.52508 0.91318,8.74434 1.09339,27.724661 0.15011,15.8103 0.4611,25.050206 0.87883,26.110784 0.90376,2.294646 3.2404,3.95997 5.55629,3.95997 1.52371,0 2.47693,-0.535601 4.265,-2.396456 1.88345,-1.960112 2.37055,-2.219723 2.67519,-1.425831 0.68776,1.792252 0.38086,8.557063 -0.48188,10.621886 -1.01081,2.419204 -1.57618,2.481227 -10.64329,1.167542 -3.24293,-0.469853 -7.30127,-0.862689 -9.01855,-0.872972 -3.69462,-0.02211 -5.70334,-1.580566 -6.32783,-4.909381 -0.77148,-4.112352 0.0916,-14.054463 1.72528,-19.873467 2.64576,-9.424067 2.9424,-19.74035 0.69271,-24.090766 -0.54833,-1.060349 -2.68256,-2.983645 -5.01881,-4.522772 -2.23563,-1.472842 -5.21468,-4.115334 -6.62012,-5.872205 -2.2981,-2.872759 -4.02938,-4.064349 -4.02938,-2.773302 0,0.979086 -7.65976,8.319971 -11.16547,10.700652 -2.02797,1.377171 -3.91142,3.16814 -4.25735,4.048304 -0.37698,0.959183 -0.50302,4.354474 -0.32126,8.653957 0.2459,5.816403 0.63604,8.120339 2.19244,12.947213 2.2353,6.93238 2.64884,10.569945 2.07374,18.240776 -0.37277,4.971976 -0.58415,5.766221 -1.69251,6.359393 -0.69659,0.372807 -4.71781,0.88059 -8.93603,1.128402 -4.32635,0.254163 -8.79415,0.854305 -10.24953,1.376781 -4.59313,1.648897 -5.01335,1.440702 -5.83504,-2.890843 z"
   id="path3735"
   inkscape:connector-curvature="0" /></svg>