<?xml version="1.0" encoding="utf-8"?>
<!-- Generator: Adobe Illustrator 23.0.1, SVG Export Plug-In . SVG Version: 6.00 Build 0)  -->
<svg version="1.1"
	 id="Layer_1" xmlns:cc="http://creativecommons.org/ns#" xmlns:dc="http://purl.org/dc/elements/1.1/" xmlns:rdf="http://www.w3.org/1999/02/22-rdf-syntax-ns#" xmlns:svg="http://www.w3.org/2000/svg"
	 xmlns="http://www.w3.org/2000/svg" xmlns:xlink="http://www.w3.org/1999/xlink" x="0px" y="0px" viewBox="0 0 300 500"
	 style="enable-background:new 0 0 300 500;" xml:space="preserve">
<style type="text/css">
	.st0{fill:#2300B4;}
</style>
<path class="st0" d="M137.4,86.9c-1,3.6,0.3,7.6-1.9,11c-2.9,0.5-0.9-5.8-5.6-3.6c-3.9,1.8-3.3-0.7-2.8-3.8c1.4-8.3-3.2-4.1-6.2-2.7
	c-2.5-1.9,2.7-12-6.9-5.7c-0.6-4,1.8-6.7,2.9-10.2c-3.9-0.5-7.6-0.4-10.9-2.7c2.9-3.8,8.4-4.4,10.4-9.3c-2.7-2.9-8.2-2.3-9.9-7.1
	c2-1.9,5.5,0,7.3-2.7c0.4-2.4-1.8-1.7-2.9-2.1c-3.2-1.1-7.6-1.9-7-5.9c0.6-3.7,4.7-1.2,7.1-1.3c6.3-0.4,8.1-4.6,9.5-9.6
	c2.2-7.5,1.9-17.1,11.2-19.9c12.2-3.6,25-3.9,37.2,0.6c5.9,2.2,6.8,8.4,8.3,13.7c4.3,15.2,4.3,15.2,19.2,14.9
	c-0.9,6.8-7.1,6.5-11.4,8.6c1.1,4.3,5.7,1.3,7.5,3.9c-1.9,4.3-6.6,4.2-9.9,6.5c1.4,3.6,4.6,5.3,7.8,7c1.7,0.9,3.5,1.8,0.8,3.7
	c-1.9,2.6-7.6-2.5-7.8,3.7c0.2,0.5,0.3,1,0.3,1.6c1,2.1-0.2,3.2-1.9,4c-1.1,0.1-2.2,0.2-3.3,0.3c-2.7,1.1,0.7,4.8-2.5,5.6
	c-6.7-0.8-3.4,4-3.9,6.7c-4.3,0.2-0.6-4.8-3.2-5.4c1.4,2.2,1.2,4.5,0,6.9c-1.1-0.2-2.2-0.5-3.3-0.7c-2-2.1-1.4-5.3-3.1-7.5
	c-0.2-6.8,5-11.7,6.4-18c1.8-8.6,3.5-17.2-3.9-24c-4.2-3.8-9.7-5.8-13.6-10.2c-1.1-1.2-3.3-1-4.1,0.4c-3.3,5.7-9.4,7.5-14.1,11.2
	c-3.4,2.6-4.6,6.3-4.5,10.5c0.2,7.8,2.2,15.1,5.8,22C135.7,80.6,138.4,83.1,137.4,86.9z"/>
</svg>
