<?xml version="1.0" encoding="UTF-8" standalone="no"?>
<!-- Generator: Adobe Illustrator 23.0.1, SVG Export Plug-In . SVG Version: 6.00 Build 0)  -->

<svg
   xmlns:dc="http://purl.org/dc/elements/1.1/"
   xmlns:cc="http://creativecommons.org/ns#"
   xmlns:rdf="http://www.w3.org/1999/02/22-rdf-syntax-ns#"
   xmlns:svg="http://www.w3.org/2000/svg"
   xmlns="http://www.w3.org/2000/svg"
   xmlns:sodipodi="http://sodipodi.sourceforge.net/DTD/sodipodi-0.dtd"
   xmlns:inkscape="http://www.inkscape.org/namespaces/inkscape"
   version="1.1"
   id="Layer_1"
   x="0px"
   y="0px"
   viewBox="0 0 300 500"
   style="enable-background:new 0 0 300 500;"
   xml:space="preserve"
   sodipodi:docname="blue_Medium_hair.svg"
   inkscape:version="0.92.3 (2405546, 2018-03-11)"><metadata
   id="metadata30"><rdf:RDF><cc:Work
       rdf:about=""><dc:format>image/svg+xml</dc:format><dc:type
         rdf:resource="http://purl.org/dc/dcmitype/StillImage" /><dc:title></dc:title></cc:Work></rdf:RDF></metadata><defs
   id="defs28" /><sodipodi:namedview
   pagecolor="#ffffff"
   bordercolor="#666666"
   borderopacity="1"
   objecttolerance="10"
   gridtolerance="10"
   guidetolerance="10"
   inkscape:pageopacity="0"
   inkscape:pageshadow="2"
   inkscape:window-width="1920"
   inkscape:window-height="1017"
   id="namedview26"
   showgrid="false"
   inkscape:zoom="1.696"
   inkscape:cx="150"
   inkscape:cy="250"
   inkscape:window-x="-8"
   inkscape:window-y="-8"
   inkscape:window-maximized="1"
   inkscape:current-layer="Layer_1" />
<style
   type="text/css"
   id="style21">
	.st0{fill:#2300B4;}
</style>
<path
   class="st0"
   d="M137.4,86.9c-1,3.6,0.3,7.6-1.9,11c-2.9,0.5-0.9-5.8-5.6-3.6c-3.9,1.8-3.3-0.7-2.8-3.8c1.4-8.3-3.2-4.1-6.2-2.7  c-2.5-1.9,2.7-12-6.9-5.7c-0.6-4,1.8-6.7,2.9-10.2c-3.9-0.5-7.6-0.4-10.9-2.7c2.9-3.8,8.4-4.4,10.4-9.3c-2.7-2.9-8.2-2.3-9.9-7.1  c2-1.9,5.5,0,7.3-2.7c0.4-2.4-1.8-1.7-2.9-2.1c-3.2-1.1-7.6-1.9-7-5.9c0.6-3.7,4.7-1.2,7.1-1.3c6.3-0.4,8.1-4.6,9.5-9.6  c2.2-7.5,1.9-17.1,11.2-19.9c12.2-3.6,25-3.9,37.2,0.6c5.9,2.2,6.8,8.4,8.3,13.7c4.3,15.2,4.3,15.2,19.2,14.9  c-0.9,6.8-7.1,6.5-11.4,8.6c1.1,4.3,5.7,1.3,7.5,3.9c-1.9,4.3-6.6,4.2-9.9,6.5c1.4,3.6,4.6,5.3,7.8,7c1.7,0.9,3.5,1.8,0.8,3.7  c-1.9,2.6-7.6-2.5-7.8,3.7c0.2,0.5,0.3,1,0.3,1.6c1,2.1-0.2,3.2-1.9,4c-1.1,0.1-2.2,0.2-3.3,0.3c-2.7,1.1,0.7,4.8-2.5,5.6  c-6.7-0.8-3.4,4-3.9,6.7c-4.3,0.2-0.6-4.8-3.2-5.4c1.4,2.2,1.2,4.5,0,6.9c-1.1-0.2-2.2-0.5-3.3-0.7c-2-2.1-1.4-5.3-3.1-7.5  c-0.2-6.8,5-11.7,6.4-18c1.8-8.6,3.5-17.2-3.9-24c-4.2-3.8-9.7-5.8-13.6-10.2c-1.1-1.2-3.3-1-4.1,0.4c-3.3,5.7-9.4,7.5-14.1,11.2  c-3.4,2.6-4.6,6.3-4.5,10.5c0.2,7.8,2.2,15.1,5.8,22C135.7,80.6,138.4,83.1,137.4,86.9z"
   id="path23" />
<path
   style="fill:#003380;fill-opacity:1;stroke-width:0.58962262"
   d="m 133.57663,95.591279 c -1.3518,-2.291126 -1.18225,-2.255129 -5.27683,-1.120277 -1.35606,0.375844 -1.35757,0.369316 -0.95162,-4.110477 0.47273,-5.216769 -0.16553,-5.966692 -3.65998,-4.300307 -2.91593,1.390507 -3.16933,1.259623 -3.16933,-1.636993 0,-4.623543 -1.10414,-5.454233 -4.74626,-3.570819 -1.57748,0.815748 -1.73959,0.811379 -1.73959,-0.04684 0,-0.520531 0.68897,-2.668567 1.53104,-4.773414 0.84207,-2.104847 1.43235,-3.925684 1.31172,-4.046303 -0.12062,-0.120625 -1.85363,-0.482512 -3.85113,-0.804204 -1.99751,-0.321686 -4.34785,-0.960047 -5.22298,-1.418573 l -1.59115,-0.833685 4.5305,-3.131932 c 6.98765,-4.830554 7.15683,-5.70801 1.6366,-8.487956 -6.19199,-3.118237 -6.88948,-4.637488 -2.40521,-5.238955 2.68674,-0.360368 4.39866,-1.636299 3.90867,-2.913209 -0.17226,-0.448899 -1.86686,-1.248919 -3.76577,-1.777821 -5.00917,-1.395197 -7.14661,-3.786751 -5.58564,-6.2497 0.38219,-0.603024 1.41475,-0.694629 4.32127,-0.383366 3.26179,0.349307 4.18392,0.222869 6.31917,-0.866454 3.12576,-1.59464 4.68199,-4.755867 6.83574,-13.885688 1.65056,-6.996755 3.4515,-10.727312 6.08332,-12.601338 2.32801,-1.657686 9.14171,-3.4385787 16.07491,-4.2014909 11.01106,-1.2116287 24.52348,1.4634579 28.12778,5.5685219 1.54072,1.754783 4.24116,7.608645 4.24116,9.193748 0,1.199774 3.72151,12.099347 4.57689,13.404829 1.43915,2.196423 3.84602,3.072483 9.55452,3.477683 2.92938,0.207933 5.32614,0.458509 5.32614,0.556837 0,0.09833 -0.31089,0.861102 -0.69087,1.695057 -0.82989,1.821421 -3.23839,3.349384 -7.41645,4.705043 -3.38218,1.097419 -3.3631,1.076793 -2.49526,2.698367 0.41111,0.768179 1.52584,1.244368 3.53774,1.511255 1.67028,0.221572 2.93748,0.694099 2.93748,1.095364 0,1.153858 -2.4696,3.105016 -5.30661,4.192603 -3.64004,1.395436 -4.40568,2.172349 -3.60858,3.661735 0.79992,1.494665 3.24014,3.497827 6.8373,5.612699 2.72214,1.600418 2.77269,1.680895 1.75927,2.800707 -0.7859,0.868414 -1.81602,1.152942 -4.17419,1.152942 -3.75707,0 -4.58354,0.99474 -3.97715,4.786881 0.4507,2.818555 -0.57615,4.057459 -3.36299,4.057459 -1.9832,0 -2.75745,0.911562 -3.00685,3.5401 -0.17875,1.883921 -0.37318,2.076839 -2.25926,2.241721 -2.7047,0.236445 -3.61492,1.487742 -3.1585,4.342052 0.35888,2.244263 -0.14605,2.84516 -1.3658,1.625407 -0.45064,-0.450637 -0.73662,-0.219098 -0.99349,0.804369 -0.28926,1.152489 -0.65088,1.381687 -1.82562,1.157117 -1.92147,-0.367311 -2.35342,-0.980253 -3.49343,-4.957176 -1.39987,-4.883473 -1.24905,-5.84905 2.00859,-12.859251 3.20217,-6.890849 4.71782,-13.079486 4.67501,-19.088896 -0.0521,-7.313364 -2.5436,-11.192655 -10.81152,-16.833626 -3.28177,-2.239052 -6.61009,-4.761894 -7.39627,-5.606316 -2.09672,-2.252029 -3.73536,-1.971817 -6.22312,1.064174 -1.17155,1.429718 -4.83798,4.356385 -8.14762,6.503704 -8.89465,5.770909 -10.32639,8.623373 -9.19249,18.314262 0.72868,6.227678 2.56273,12.074982 5.81839,18.550177 1.29008,2.565837 2.37519,5.411633 2.41136,6.323998 0.13675,3.449286 -0.83481,11.441014 -1.50178,12.353148 -0.60588,0.828585 -0.86089,0.668892 -1.99123,-1.246893 z m 35.84943,-8.773012 c -0.56772,-0.523261 -0.64618,-0.432347 -0.3501,0.405666 0.20987,0.594033 0.41237,1.390023 0.44998,1.768868 0.0376,0.378838 0.19517,0.196291 0.35011,-0.405667 0.15494,-0.601957 -0.0475,-1.397948 -0.44999,-1.768867 z"
   id="path32"
   inkscape:connector-curvature="0" /><path
   style="fill:#003380;fill-opacity:1;stroke-width:0.58962262"
   d="m 133.49428,95.288237 c -1.20252,-1.688779 -1.52273,-1.820336 -3.58344,-1.472182 l -2.26293,0.382324 -0.17419,-4.32207 c -0.19325,-4.794876 -0.25946,-4.843962 -5.03858,-3.734917 l -1.91627,0.444693 -0.009,-2.579599 c -0.0136,-3.887659 -0.58067,-4.45464 -3.63889,-3.638349 -1.39302,0.371816 -2.61186,0.596928 -2.70854,0.500247 -0.0967,-0.09667 0.49799,-1.965796 1.32147,-4.153602 0.82349,-2.187801 1.49725,-4.192754 1.49725,-4.455442 0,-0.262695 -1.52565,-0.776781 -3.39033,-1.142412 -3.82338,-0.749711 -6.63325,-1.728803 -6.63325,-2.311332 0,-0.21503 0.7768,-0.849835 1.72622,-1.410672 3.63125,-2.145031 7.70774,-5.78011 7.70774,-6.87313 0,-0.78366 -1.3426,-1.889194 -4.42217,-3.641338 -2.43219,-1.383814 -4.42217,-2.851003 -4.42217,-3.26042 0,-0.409417 1.12765,-1.045894 2.5059,-1.414393 1.37824,-0.368499 2.83755,-0.941875 3.24292,-1.274168 0.94869,-0.777678 0.94869,-2.192124 0,-2.521697 -7.63087,-2.650951 -9.78922,-4.196818 -8.94204,-6.404527 0.29521,-0.769287 1.21592,-0.967515 4.49384,-0.967515 7.2229,0 9.67777,-2.222196 12.21303,-11.055425 0.6748,-2.35112 1.76497,-6.131258 2.42258,-8.400307 1.35302,-4.668479 3.75561,-7.84588 6.93814,-9.175628 1.13663,-0.474911 4.74644,-1.418033 8.02182,-2.095827 10.48775,-2.1702976 24.16431,-0.9251098 31.10091,2.831595 3.34936,1.813937 5.10109,4.79288 7.21556,12.270592 3.63057,12.839359 5.06473,14.665413 12.02873,15.315653 5.52883,0.516236 6.61238,0.801728 6.61238,1.742223 0,1.371065 -3.37615,3.762532 -6.86379,4.861917 -1.81275,0.571418 -3.42763,1.382207 -3.58862,1.801753 -0.44134,1.150089 0.87379,2.395437 2.97547,2.817592 3.79533,0.762355 3.98167,0.876492 3.35194,2.053164 -0.32251,0.602615 -2.3223,1.915847 -4.44398,2.918292 -2.12168,1.002446 -4.01535,2.233715 -4.20816,2.736154 -0.45685,1.190554 2.46303,4.196773 6.27371,6.459211 1.61826,0.960779 2.94756,2.085102 2.954,2.498493 0.0156,0.999628 -2.48001,1.90168 -5.26109,1.90168 -2.86398,0 -3.45844,0.762258 -3.68365,4.723432 -0.17053,2.999286 -0.30069,3.248478 -1.95158,3.736196 -3.01525,0.890785 -3.50545,1.31967 -4.0265,3.522901 -0.431,1.822465 -0.80186,2.19118 -2.53001,2.515384 -2.24363,0.420908 -3.30651,1.858042 -3.15034,4.259622 0.15747,2.421622 0.0466,2.670142 -0.85677,1.920413 -0.66676,-0.553361 -0.9122,-0.44918 -1.21898,0.517423 -0.47031,1.481811 -2.15896,1.570407 -3.40136,0.17845 -1.16256,-1.302524 -2.34845,-5.670106 -2.31236,-8.516315 0.0152,-1.19783 0.96471,-4.309216 2.11006,-6.914198 3.39483,-7.721238 4.53145,-11.798317 4.89514,-17.558907 0.43048,-6.818595 -0.37784,-9.909819 -3.52675,-13.487167 -2.82205,-3.206013 -16.05446,-13.222706 -17.46767,-13.222706 -0.54615,0 -2.17589,1.20827 -3.62165,2.685044 -1.44576,1.476773 -4.91345,4.252079 -7.70598,6.167345 -8.68113,5.953996 -10.41474,8.964645 -9.6446,16.749184 0.62289,6.296256 2.26659,12.013433 5.65355,19.664459 l 3.05988,6.912152 -0.68954,5.877099 c -0.37925,3.232406 -0.91836,6.105914 -1.19802,6.385584 -0.2849,0.284888 -1.08914,-0.306975 -1.82901,-1.346026 z m 36.01856,-8.440489 c -0.77001,-0.770012 -0.87711,0.08335 -0.22012,1.753791 0.40972,1.041722 0.43261,1.041215 0.64492,-0.01439 0.12106,-0.601957 -0.0701,-1.384681 -0.4248,-1.739387 z"
   id="path34"
   inkscape:connector-curvature="0" /><path
   style="fill:#003380;fill-opacity:1;stroke-width:0.58962262"
   d="m 133.52256,95.327954 c -1.17506,-1.650224 -1.50244,-1.781173 -3.61023,-1.444127 l -2.31799,0.370666 v -3.835714 c 0,-4.474316 -0.73475,-5.523331 -3.20959,-4.582399 -3.17833,1.208402 -3.86588,0.856468 -3.86588,-1.978809 0,-3.449652 -1.0905,-4.38694 -3.91551,-3.365401 -1.13795,0.411486 -2.18123,0.635931 -2.3184,0.498762 -0.13717,-0.13717 0.41278,-2.196298 1.22212,-4.575838 0.80933,-2.37954 1.40575,-4.372741 1.32538,-4.429333 -0.0804,-0.0566 -2.25099,-0.608786 -4.82358,-1.227111 -2.5726,-0.61832 -4.75691,-1.389546 -4.85404,-1.713839 -0.0971,-0.324292 1.69616,-1.904925 3.98507,-3.512518 6.5727,-4.616274 6.58555,-5.224208 0.18943,-8.965782 -2.0802,-1.216861 -3.78217,-2.545113 -3.78217,-2.951671 0,-0.406559 1.00319,-1.009328 2.2293,-1.339487 2.8788,-0.775179 4.53246,-2.003049 4.1256,-3.063316 -0.17741,-0.462312 -1.84991,-1.322022 -3.71668,-1.910469 -3.69965,-1.166212 -6.36894,-3.345846 -6.06319,-4.95096 0.15797,-0.829346 1.06719,-1.077958 4.90496,-1.341188 5.19624,-0.356405 6.54201,-0.887839 8.67868,-3.427129 1.37518,-1.634303 1.87659,-3.014331 5.44995,-14.999864 2.43945,-8.182206 4.42378,-9.870352 14.46213,-12.303474 4.9955,-1.210822 20.55149,-1.0438077 25.35378,0.272206 9.1059,2.495371 10.40125,3.963725 14.25498,16.158837 1.3117,4.150894 2.87299,8.505555 3.46952,9.677026 1.4096,2.768168 4.03068,3.971305 9.69474,4.450092 3.05165,0.257959 4.63025,0.651072 4.84323,1.206092 0.53273,1.388288 -2.15817,3.594141 -6.42809,5.269385 -2.88091,1.130288 -3.97302,1.837135 -3.74729,2.425371 0.17521,0.456601 0.31857,0.933736 0.31857,1.0603 0,0.126564 1.45867,0.654165 3.2415,1.172446 2.81026,0.816966 3.16664,1.082201 2.67882,1.993705 -0.30947,0.578257 -2.43148,2.0334 -4.71556,3.233651 -2.28408,1.200251 -4.15287,2.47422 -4.15287,2.831042 0,0.959674 4.28935,4.867365 7.03922,6.412877 1.31711,0.740256 2.39474,1.701625 2.39474,2.136372 0,0.980307 -2.4073,1.937541 -4.90277,1.94954 -2.93986,0.01415 -3.59732,0.769346 -3.93234,4.516946 l -0.30404,3.401161 -2.60486,0.902884 c -1.43267,0.496592 -2.66978,1.167293 -2.74913,1.490448 -0.0794,0.323154 -0.30282,1.3077 -0.4966,2.187883 -0.27644,1.255713 -0.85764,1.736409 -2.69894,2.232217 -2.46772,0.664487 -3.24541,1.975059 -2.84859,4.800501 0.14836,1.056415 -0.0545,1.348473 -0.84444,1.215472 -0.57185,-0.09629 -1.19724,0.235377 -1.38974,0.737028 -0.89888,2.342435 -3.69664,0.422589 -4.91541,-3.373001 -1.259,-3.920861 -0.87289,-6.960265 1.6357,-12.875991 3.29168,-7.762382 4.24628,-11.27433 4.63089,-17.037028 0.4009,-6.006631 -0.30715,-9.032239 -2.92633,-12.504687 -1.92419,-2.551055 -16.58528,-13.988855 -17.96395,-14.014518 -0.40818,-0.0076 -2.26549,1.383239 -4.12736,3.090749 -1.86186,1.70751 -5.57512,4.645081 -8.25169,6.527937 -7.95406,5.595363 -9.47254,8.725772 -8.38902,17.294372 0.77085,6.095924 1.84186,9.675404 5.43942,18.17926 l 2.99327,7.075472 -0.63913,5.821769 c -0.35153,3.201969 -0.89209,6.074717 -1.20124,6.383868 -0.35639,0.356391 -1.03503,-0.102058 -1.85435,-1.252683 z m 36.00132,-8.469169 c -0.48153,-0.481527 -0.65596,-0.415542 -0.65596,0.248131 0,1.172088 0.79287,1.964953 1.08589,1.085891 0.12431,-0.372937 -0.0692,-0.973249 -0.42993,-1.334022 z"
   id="path36"
   inkscape:connector-curvature="0" /></svg>