<?xml version="1.0" encoding="utf-8"?>
<!-- Generator: Adobe Illustrator 23.0.1, SVG Export Plug-In . SVG Version: 6.00 Build 0)  -->
<svg version="1.1" id="Layer_1" xmlns="http://www.w3.org/2000/svg" xmlns:xlink="http://www.w3.org/1999/xlink" x="0px" y="0px"
	 viewBox="0 0 958.73 764.49" style="enable-background:new 0 0 958.73 764.49;" xml:space="preserve">
<style type="text/css">
	.st0{fill:#FDFDFD;}
	.st1{fill:#111224;}
	.st2{fill:#FBC59F;}
	.st3{fill:#FBC5A0;}
	.st4{fill:#01A9C0;}
	.st5{fill:#00A9C0;}
	.st6{fill:#BFC7C5;}
	.st7{fill:#C2C6C5;}
	.st8{fill:#BCC2C0;}
	.st9{fill:#B8C0BD;}
	.st10{fill:#FDE8B9;}
	.st11{fill:#FBD2B4;}
	.st12{fill:#F3821F;}
	.st13{fill:#4B3527;}
	.st14{fill:#BC6D30;}
	.st15{fill:#FAD2B4;}
	.st16{fill:#FEE8B9;}
	.st17{fill:#EE537B;}
	.st18{fill:#445D58;}
	.st19{fill:#EE537A;}
	.st20{fill:#FBFDFB;}
	.st21{fill:#9B5936;}
	.st22{fill:#445D59;}
	.st23{fill:#CF822C;}
	.st24{fill:#455D59;}
	.st25{fill:#F9C29A;}
	.st26{fill:#FCC49B;}
	.st27{fill:#CF822B;}
	.st28{fill:#4F392B;}
	.st29{fill:#ED547A;}
	.st30{fill:#ED537A;}
	.st31{fill:#FEC09A;}
	.st32{fill:#EE547B;}
	.st33{fill:#FDFEF4;}
	.st34{fill:#FAC099;}
	.st35{fill:#CF832D;}
	.st36{fill:#C0C7C5;}
	.st37{fill:#C3CAC8;}
	.st38{fill:#C4CBC8;}
	.st39{fill:#C0C8C5;}
	.st40{fill:#BEC7C4;}
	.st41{fill:#C1C7C5;}
	.st42{fill:#4C3628;}
	.st43{fill:#C3C9C6;}
	.st44{fill:#BFC6C4;}
	.st45{fill:#C2C9C7;}
	.st46{fill:#C7CCCA;}
	.st47{fill:#C5CAC8;}
	.st48{fill:#C4CAC8;}
	.st49{fill:#03A1B5;}
	.st50{fill:#E2A988;}
	.st51{fill:#C6CCCA;}
	.st52{fill:#E2AC89;}
	.st53{fill:#C2CAC7;}
	.st54{fill:#C2CAC8;}
	.st55{fill:#C4C9C7;}
	.st56{fill:#C3C8C6;}
	.st57{fill:#029FB3;}
	.st58{fill:#01A0B5;}
	.st59{fill:#BCC3C1;}
	.st60{fill:#C6CDCA;}
	.st61{fill:#049FB2;}
	.st62{fill:#E6AE8C;}
	.st63{fill:#02A0B4;}
	.st64{fill:#BA6424;}
	.st65{fill:#BB6523;}
	.st66{fill:#415451;}
	.st67{fill:#F9F0E4;}
	.st68{fill:#FAD1B2;}
	.st69{fill:#D3D7D5;}
	.st70{fill:#FAE2CE;}
	.st71{fill:#D3D5D4;}
	.st72{fill:#3F2919;}
	.st73{fill:#3B271B;}
	.st74{fill:#D6D9D8;}
	.st75{fill:#CED2D1;}
	.st76{fill:#D0D3D2;}
	.st77{fill:#DBDBDB;}
	.st78{fill:#DFDFDF;}
	.st79{fill:#D3D5D5;}
	.st80{fill:#E8E9E8;}
	.st81{fill:#E5E7E7;}
	.st82{fill:#BEB3AB;}
	.st83{fill:#796D66;}
	.st84{fill:#DEE0DF;}
	.st85{fill:#F9EADA;}
	.st86{fill:#E7E8E8;}
	.st87{fill:#3D2819;}
	.st88{fill:#533D2E;}
	.st89{fill:#DEDEDE;}
	.st90{fill:#E0A788;}
	.st91{fill:#F9F9F9;}
	.st92{fill:#F5F6F6;}
	.st93{fill:#F9FAFA;}
	.st94{fill:#ECEDF0;}
	.st95{fill:#FBFBFB;}
	.st96{fill:#E8E9EB;}
	.st97{fill:#EDEDF0;}
	.st98{fill:#F5F5F6;}
	.st99{fill:#E7E8EB;}
	.st100{fill:#E3E4E8;}
	.st101{fill:#E6E7EA;}
	.st102{fill:#E4E5E8;}
	.st103{fill:#F2F3F4;}
	.st104{fill:#E7E9EB;}
	.st105{fill:#DEDFE4;}
	.st106{fill:#E3E4E7;}
	.st107{fill:#EFF1F1;}
	.st108{fill:#ECECEF;}
	.st109{fill:#D7D7DB;}
	.st110{fill:#E4E4E8;}
	.st111{fill:#E1E2E6;}
	.st112{fill:#E2E2E5;}
	.st113{fill:#E1E1E5;}
	.st114{fill:#E0E2E6;}
	.st115{fill:#E5E6E9;}
	.st116{fill:#F0F1F3;}
	.st117{fill:#F2F3F3;}
	.st118{fill:#EDEEEE;}
	.st119{fill:#E0E1E6;}
	.st120{fill:#E1E1E6;}
	.st121{fill:#E0E0E4;}
	.st122{fill:#D7D8DB;}
	.st123{fill:#DBDCDE;}
	.st124{fill:#E7E7EB;}
	.st125{fill:#DADADE;}
	.st126{fill:#E0E1E4;}
	.st127{fill:#D6D7DC;}
	.st128{fill:#D7D7DC;}
	.st129{fill:#ECEDEE;}
	.st130{fill:#E9E9EC;}
	.st131{fill:#EAEAEE;}
	.st132{fill:#DDDEE2;}
	.st133{fill:#E9EAEC;}
	.st134{fill:#CECFD6;}
	.st135{fill:#D1D1D7;}
	.st136{fill:#C2C2C7;}
	.st137{fill:#D6D7D9;}
	.st138{fill:#131421;}
	.st139{fill:#C2C3C8;}
	.st140{fill:#191A27;}
	.st141{fill:#ECEDEF;}
	.st142{fill:#CACACE;}
	.st143{fill:#CFCFD5;}
	.st144{fill:#FAFBFB;}
	.st145{fill:#444551;}
	.st146{fill:#D0D0D5;}
	.st147{fill:#E5E4E7;}
	.st148{fill:#E3E4E4;}
	.st149{fill:#D8D9DC;}
	.st150{fill:#CBCCD2;}
	.st151{fill:#D5D7DB;}
	.st152{fill:#30303E;}
	.st153{fill:#CCCDD3;}
	.st154{fill:#DDDFE3;}
	.st155{fill:#D8DADF;}
	.st156{fill:#D2D1D7;}
	.st157{fill:#575766;}
	.st158{fill:#FDFDFE;}
	.st159{fill:#9B9CAA;}
	.st160{fill:#6D6E7C;}
	.st161{fill:#F7F7FE;}
	.st162{fill:#9A9CA9;}
	.st163{fill:#DEA483;}
	.st164{fill:#DDA281;}
	.st165{fill:#DDA481;}
	.st166{fill:#E3AA88;}
	.st167{fill:#E3A987;}
	.st168{fill:#DFA583;}
	.st169{fill:#DDA582;}
	.st170{fill:#E7AF8C;}
	.st171{fill:#DDA382;}
	.st172{fill:#EAB08F;}
	.st173{fill:#E6AD8A;}
	.st174{fill:#E9B18D;}
	.st175{fill:#3A261A;}
	.st176{fill:#E3AB88;}
	.st177{fill:#E4AB88;}
	.st178{fill:#E4AB89;}
	.st179{fill:#E1A885;}
	.st180{fill:#E5AB89;}
	.st181{fill:#E1A785;}
	.st182{fill:#E7B08D;}
	.st183{fill:#E2A987;}
	.st184{fill:#E3AA87;}
	.st185{fill:#E5AC89;}
	.st186{fill:#D89F7D;}
	.st187{fill:#EFB792;}
	.st188{fill:#D04F6E;}
	.st189{fill:#E8AE8C;}
	.st190{fill:#E5AD89;}
	.st191{fill:#E0A784;}
	.st192{fill:#FAD2B3;}
	.st193{fill:#D1506F;}
	.st194{fill:#E4A987;}
	.st195{fill:#E6AD8B;}
	.st196{fill:#E4AA88;}
	.st197{fill:#E9B18E;}
	.st198{fill:#E0A584;}
	.st199{fill:#DCA481;}
	.st200{fill:#E7AD8B;}
	.st201{fill:#CD4D69;}
	.st202{fill:#EDB792;}
	.st203{fill:#D04B6D;}
	.st204{fill:#E5A98A;}
	.st205{fill:#E8AF8C;}
	.st206{fill:#E5AE8A;}
	.st207{fill:#F9D5BC;}
	.st208{fill:#FEBF9A;}
	.st209{fill:#EBB290;}
	.st210{fill:#E9B08C;}
	.st211{fill:#E6B08C;}
	.st212{fill:#CF486B;}
	.st213{fill:#FEC695;}
	.st214{fill:#FDC29C;}
	.st215{fill:#029EB3;}
	.st216{fill:#03A3B6;}
	.st217{fill:#FCFAF7;}
	.st218{fill:#6F3B19;}
	.st219{fill:#6B3B18;}
	.st220{fill:#FCF9F4;}
	.st221{fill:#F6D9C3;}
	.st222{fill:#68350D;}
	.st223{fill:#FBFBF8;}
	.st224{fill:#934E28;}
	.st225{fill:#652F0D;}
	.st226{fill:#643515;}
	.st227{fill:#EBBFA2;}
	.st228{fill:#FCFBF8;}
	.st229{fill:#82522D;}
	.st230{fill:#76431C;}
	.st231{fill:#141526;}
	.st232{fill:#121425;}
	.st233{fill:#151627;}
	.st234{fill:#1C1B2B;}
	.st235{fill:#2C2B39;}
	.st236{fill:#1F202E;}
	.st237{fill:#171727;}
	.st238{fill:#222233;}
	.st239{fill:#12111E;}
	.st240{fill:#1A1B2B;}
	.st241{fill:#212131;}
	.st242{fill:#212130;}
	.st243{fill:#1C1C29;}
	.st244{fill:#D7DAE3;}
	.st245{fill:#242531;}
	.st246{fill:#6C3E1A;}
	.st247{fill:#643312;}
	.st248{fill:#FDFBF8;}
	.st249{fill:#7C4D2A;}
	.st250{fill:#66320E;}
	.st251{fill:#FBF7F2;}
	.st252{fill:#683A16;}
	.st253{fill:#623413;}
	.st254{fill:#FBFBF7;}
	.st255{fill:#7C4925;}
	.st256{fill:#714322;}
	.st257{fill:#EBBDA1;}
	.st258{fill:#683713;}
	.st259{fill:#6A3814;}
	.st260{fill:#FBF6F1;}
	.st261{fill:#83522C;}
	.st262{fill:#6F3912;}
</style>
<g>
	<g>
		<path class="st0" d="M1.12,652.51c0-266.12,0.01-532.23-0.12-798.35c0-4.26,1.12-4.75,4.97-4.75c330.1,0.1,660.21,0.1,990.31,0
			c3.86,0,4.97,0.49,4.97,4.75c-0.14,266.12-0.12,532.23-0.12,798.35c-1.46,1.34-3.28,1.53-5.13,1.6c-2,0.08-4,0.05-6,0.05
			c-325.92,0-651.83,0-977.75-0.04C8.51,654.12,4.53,655.09,1.12,652.51z"/>
		<path class="st1" d="M1.12,652.51c333.33,0,666.67,0,1000,0c0,25.66-0.04,51.31,0.06,76.97c0.01,2.42-0.44,3.57-3.03,3.05
			c-0.48-0.1-1-0.01-1.5-0.01c-330.36,0-660.72-0.01-991.07,0.1c-3.83,0-4.58-0.97-4.56-4.63C1.21,702.82,1.12,677.66,1.12,652.51z"
			/>
		<path class="st2" d="M125.03,62.51c0.57,3.25,0.26,7.11,1.95,9.6c1.97,2.89,6.19,0.99,9.4,1.46c7.37,1.08,12.68,4.21,16.1,11.47
			c11.85,25.16,20.57,51.1,22.85,79.01c0.42,5.15,0.56,10.27,0.82,15.41c0.39,7.59-4.13,11.12-10.19,14.53
			c-1.47,0.83-3.41,1.25-4.46-0.5c-0.9-1.5-0.67-3.49,0.9-4.5c3.07-1.97,2.6-4.38,1.82-7.33c-0.85-3.22-1.68-5.1-5.06-2.24
			c-1.25,1.05-2.76,1.28-3.94-0.27c-1.21-1.59-0.34-3.22,0.83-3.92c5.8-3.5,3.9-7.96,2.36-12.89c-3.3-10.56-6.13-21.27-10.11-31.75
			c0.18,3.34,0.36,6.67,0.54,10.01c-1.38,1.43-3.27,1.52-5.04,1.83c-18.93,3.3-37.87,3.35-56.81,0.08c-1.92-0.33-4-0.38-5.48-2
			c-0.3-3.31,1.2-6.56,0.26-9.95c-2,0.98-1.55,3.08-2.03,4.68c-3.08,10.34-5.89,20.77-9.17,31.04c-1.03,3.23-0.49,5.19,2,7.28
			c1.61,1.35,4.35,2.95,2.28,5.67c-1.76,2.31-3.58,0.3-5.18-0.71c-1.16-0.73-2.33-1.19-2.68,0.48c-0.68,3.25-3.88,6.71,0.66,9.73
			c1.52,1.01,2.02,2.73,1.05,4.42c-1.1,1.93-2.69,1.25-4.35,0.65c-6.22-2.26-9.88-7.27-10.21-13.93
			c-0.46-9.35,0.89-18.58,2.16-27.77c3.27-23.59,11.57-45.59,21.49-67.11c3.55-7.7,9.35-10.74,17.12-11.43
			c8.12-0.72,8.12-0.68,9.92-8.59c0.18-0.81,0.26-1.64,0.38-2.46c1.43-2.66,3.36-1.52,4.94-0.4c3.39,2.41,6.55,2.41,9.95,0.01
			C121.66,61,123.6,59.82,125.03,62.51z"/>
		<path class="st2" d="M861.03,107.59c-4.58,11.41-6.81,23.51-10.19,35.27c-2.2,7.66-4.19,15.37-6.4,23.03
			c-0.92,3.18-1.41,6,1.83,8.31c1.72,1.22,2.81,3.19,1.2,5.17c-1.67,2.05-2.88-0.02-4.1-0.94c-1.26-0.94-2.47-1.3-3.26,0.4
			c-1.65,3.55-4.13,7.1-0.32,10.87c1.4,1.38,2.29,3.24,0.59,4.81c-1.8,1.66-3.49,0.04-4.8-1.1c-6.03-5.23-8.85-11.34-7.09-19.75
			c5.78-27.75,11.09-55.6,16.57-83.41c0.61-3.1,1.22-6.17,2.58-9.07c1.52-3.26,3.85-5.2,7.44-5.92c5.22-1.05,10.44-1.83,15.79-1.86
			c4.87-0.02,5.21-0.83,2.57-5.04c0.3-0.34,0.63-0.64,1-0.9c0.67-0.34,1.31-0.32,1.9,0.17c0.39,0.15,0.66,0.98,0.68,0.81
			c0.25-2.63,0.33-5.27,3.11-6.72c5.95,2.37,11.67,1.36,17.3-1.14c2.05,3.72,0.84,8.44,3.64,11.93c5.45,1.8,11.18,0.97,16.76,1.87
			c7.77,1.24,11.08,3.28,12.7,11.03c4.04,19.33,7.79,38.72,11.59,58.1c2.17,11.07,4.21,22.17,6.29,33.27
			c1.24,6.63-3.04,14.98-9.07,17.7c-1.21,0.55-2.48,1.31-3.6-0.11c-1.03-1.32-0.5-2.58,0.51-3.57c3.4-3.37,3.1-6.88,0.95-10.83
			c-1.16-2.13-2.04-2.91-4.02-1.04c-1.08,1.02-2.32,2.25-3.84,0.74c-1.3-1.3-0.95-3.36,0.01-4.12c5.99-4.75,2.71-10.27,1.37-15.43
			c-4.4-16.87-9.09-33.67-13.58-50.52c-0.37-1.4-0.85-1.58-1.99-1.09c-0.6-0.57-0.54-1.19-0.13-1.83c1.42-1.23,1.59-3.21,2.71-4.62
			c-1.21,1.5-1.47,3.58-2.95,4.93c-1.68,5.15-6.23,5.5-10.46,5.93c-3.62,0.36-7.32,0.09-10.98,0.01c-0.67-0.06-0.14,1.04-0.18,0.38
			c-0.01-0.09,0.06-0.14,0.21-0.14c7.05-0.01,14.13,0.12,20.84-2.63c-2.75,9.4-5.5,18.8-8.25,28.19c-1.14,2.28-3.49,2.35-5.51,2.9
			c-8.21,2.2-16.44,1.88-24.64-0.08c-1.92-0.46-3.94-0.9-4.86-3.03c-2.58-9.01-6.11-17.74-7.9-26.99c2.69-0.9,4.92,1.1,7.44,1.2
			c4.5,0.75,9.06-0.05,12.03,0.26c-2.58-0.03-6.71,0.05-10.84-0.02c-4.1-0.95-8.51-1.37-10.34-6.13c-0.91-1.7-1.41-3.57-2.49-5.83
			c0.85,2.2,1.55,3.83,2.26,5.46c0.25,0.27,0.33,0.52,0.22,0.77C861.22,107.47,861.13,107.59,861.03,107.59z"/>
		<path class="st2" d="M283.23,139.57c0-6.99,0-13.97,0-22.24c-2.64,3.61-2.8,6.85-3.71,9.71c-4.05,12.67-7.76,25.44-11.8,38.11
			c-0.84,2.63-0.52,4.45,1.55,6.16c1.83,1.51,3.7,3.22,2.38,5.92c-1.4,2.86-3.32,1.68-5.38,0.57c-1.43-0.77-1.85,0.53-2.34,1.7
			c-1.49,3.58-0.44,6.79,0.99,10.09c0.65,1.51,2.03,3.47-0.37,4.81c-2.38,1.33-4.2,0.15-5.62-1.69c-3.59-4.67-5.1-9.65-3.95-15.79
			c5.32-28.53,9.58-57.26,16.19-85.55c2.19-9.39,6.95-15.75,17.62-16.68c8.1-0.71,8.05-1.29,9.38-9.18
			c0.82-1.02,0.42-2.23,0.47-3.35c0.1-2.24,1.46-2.69,2.95-1.62c4.7,3.38,9.18,3.11,13.76-0.15c0.8-0.57,1.87-0.71,2.74,0.13
			c1.33,4.11-0.42,9.31,2.53,12.46c2.96,3.15,8.09,1.88,12.25,2.66c7.63,1.45,10.19,7.49,12.18,13.71
			c4.52,14.11,6.13,28.85,8.96,43.33c2.8,14.31,5.1,28.71,7.73,43.06c1.14,6.23,0.25,11.89-3.73,16.93
			c-1.41,1.79-3.03,3.34-5.47,2.01c-2.57-1.41-1.27-3.45-0.41-5.19c1.38-2.79,1.64-5.58,1.1-8.66c-0.41-2.36-0.65-3.99-3.61-2.66
			c-1.38,0.62-3.17,1.04-4.09-0.48c-1.02-1.68-0.78-3.82,0.91-4.96c4.13-2.77,3.14-5.92,1.87-9.89
			c-4.71-14.66-8.99-29.45-14.52-44.14c0,6.98,0,13.97,0,20.95c-1.25,1.52-3.04,1.94-4.83,2.28c-13.64,2.61-27.27,2.57-40.91-0.03
			C286.24,141.57,284.53,140.99,283.23,139.57z"/>
		<path class="st2" d="M492.1,71.47c0.02-1.32,0.04-2.64,0.05-3.97c0.24-0.25,0.41-0.54,0.44-0.86c0.44-6.09,0.5-6.23,5.85-3.61
			c2.95,1.44,5.51,1.04,7.9-0.78c3.22-2.44,4.2-0.67,4.75,2.25c0.05,1,0.09,2,0.15,3c0.21,3.67,1.51,6.22,5.82,5.93
			c1.32-0.09,2.66,0.09,3.98,0.25c8.94,1.1,13.72,6.07,16.49,14.82c9.04,28.55,15.49,57.74,22.25,86.86
			c1.42,6.09,1.25,12.33-4.69,16.75c-1.94,1.45-4.09,2.24-5.98,1.04c-2.01-1.27-0.57-3.33,0.22-4.91c0.86-1.74,1.19-3.55,0.67-5.33
			c-0.77-2.68-0.55-7.84-5.39-2.68c-0.62,0.66-1.76,1.13-2.72,0.34c-0.87-0.7-1.21-2.01-0.66-2.72c6.65-8.67,0.76-16.76-1.31-24.84
			c-3.88-15.15-9.68-29.72-14.69-44.52c-0.35-1.02-0.65-1.89-1.93-1.83c-0.44-0.28-0.58-0.66-0.44-1.15
			c0.89-1.93,1.53-3.93,1.91-6.02c-0.43,2.26-1.26,4.38-2.16,6.49c-0.07,1.57-0.83,2.78-1.91,3.84c-4.05,1.38-8.2,1.42-10.51,1.18
			c2.34,0.07,6.56,0.42,10.63-1.25c0.36-0.51,0.8-0.58,1.3-0.21c-2.38,10.1-4.76,20.21-7.14,30.31c-5.68,4.08-12.17,3.23-18.48,2.76
			c-2.78-0.21-6.07,0.08-8.09-2.77c-1.57-9.87-5.37-19.26-6.42-29.24c4.06-0.98,7.97,1.67,11.24,0.33
			c-0.14-0.02-1.08,0.12-2.02,0.07c-10.26-0.56-9.82-1.13-11.56-8.64c-0.21,1.44,1.78,2.68,0.39,4.22c-1.52,0.5-1.64,1.91-2.11,3.15
			c-7.13,18.99-13.12,38.34-18.7,57.83c-0.6,2.09-0.46,3.83,0.72,5.65c1.41,2.17,3.92,4.84,1.48,7.07c-2.5,2.3-3.84-2.14-6.54-2.5
			c-1.41,3.65-2.82,7.25-0.59,11.22c0.82,1.45,1.58,3.17-0.22,4.46c-1.59,1.14-3.26,0.3-4.69-0.5c-4.81-2.71-7.59-9.51-6.03-16.26
			c6.79-29.43,13.15-58.98,22.5-87.75c3.92-12.06,8.55-15.2,21.15-15.5C488.58,72.43,491.11,73.94,492.1,71.47z"/>
		<path class="st2" d="M705.02,62.51c0.04,0.5,0.06,1,0.11,1.5c0.76,8.57,0.69,9.42,8.81,10.07c9.95,0.79,13.13,6.35,15.44,15.01
			c7.35,27.6,15.18,55.09,23.44,82.44c2.63,8.7-0.24,15.18-4.98,21.66c-0.95,1.3-2.22,2.84-4.15,1.91
			c-2.21-1.05-1.74-2.97-0.97-4.74c1.17-2.71,1.18-5.3,0.34-8.19c-1.05-3.59-2.12-5.88-6.17-3.05c-0.94,0.65-2.33,0.84-3.2-0.24
			c-0.98-1.22-0.72-2.87,0.39-3.6c5.78-3.82,3.29-8.29,1.52-13.02c-6.92-18.51-13.66-37.09-21.61-55.56c0,8.95,0,17.9,0,26.85
			c-0.22,0.64-0.53,1.28-1.17,1.55c-11.75,4.86-23.49,5.55-35.2-0.13c-0.61-0.29-1.02-0.84-1.37-1.41c0-8.98,0-17.96,0-26.93
			c-0.32-0.09-0.64-0.17-0.96-0.26c-2.59,6.87-5.21,13.72-7.76,20.6c-4.83,13.09-9.5,26.25-14.52,39.27
			c-1.19,3.08-1.37,5.17,1.48,7.25c1.56,1.13,3.54,2.82,2.29,4.97c-1.45,2.49-3.54,0.62-5.2-0.2c-1.94-0.95-2.91-0.71-3.66,1.51
			c-1.25,3.68-2.62,7.19-0.29,10.98c0.8,1.29,0.98,2.87-0.71,3.92c-1.86,1.16-3.22,0.27-4.27-1.17c-4.49-6.14-8.06-12.22-5.52-20.62
			c6.39-21.13,12.21-42.44,18.23-63.69c2.26-7.98,4.7-15.92,6.61-23.99c1.42-6.02,4.33-9.93,10.83-10.38
			c0.49-0.03,0.98-0.15,1.48-0.24c10.26-1.8,10.26-1.8,10.96-12.05c0.55-1.41,1.19-3.14,3.04-1.76c4.4,3.29,8.62,3.31,13.17,0.27
			C702.75,60.12,704.28,60.85,705.02,62.51z"/>
		<path class="st2" d="M288.11,441.44c0.02-3.29,0.04-6.58,0.05-9.87c1.18-2.74,0.06-5.51,0.09-8.12c0.33-0.76-0.7-0.38-0.08-0.12
			c0.07,0.03-0.01,0.18-0.09,0.49c-0.17,0.67-0.49,1.21-1.06,1.61c-5.1,13.32-10.15,26.66-15.32,39.95c-1.33,3.43,2.1,4.94,2.7,7.58
			c0.22,0.99,0.78,1.9-0.18,2.71c-0.62,0.52-1.19,0.06-1.77-0.3c-0.98-0.6-1.78-2.71-3.16-1c-1.41,1.76-3.06,3.59-2.91,6.15
			c0.02,0.32,0.2,0.62,0.32,0.94c0.77,2.11,2.93,5.18,0.72,6.24c-2.58,1.23-3.66-2.52-5.05-4.41c-1.97-2.68-2.49-5.55-1.49-8.91
			c6.28-21.16,12.42-42.36,18.62-63.54c1.91-6.53,4.09-12.99,5.76-19.58c1.69-6.64,5.67-9.82,12.46-9.73
			c1.03,0.01,2.57,0.58,2.83-1.07c0.08-0.48-1-1.15-1.55-1.73c0.83-2.67,0.33-5.63,1.8-8.16c0.55-0.4,1.22-0.66,1.84-0.43
			c4.67,1.73,9.19,0.55,13.73-0.57c1.67,2.82,0.95,6.11,1.8,9.1c-0.79,1.01-3.91,2.99,0.13,2.75c10.54-0.62,12.26,6.73,14.45,14.28
			c7.5,25.83,15.11,51.62,22.81,77.39c1.56,5.22,0.14,9.46-3.13,13.39c-0.83,1-1.76,2.38-3.26,1.7c-1.81-0.81-0.6-2.25-0.28-3.44
			c0.63-2.36,2.14-4.67,0.64-7.19c-1.09-1.83-1.31-5.62-4.96-2.42c-0.36,0.31-1.41,0.31-1.8,0.01c-0.98-0.75-0.69-1.97-0.04-2.67
			c3.98-4.35,1.69-8.54,0.02-12.94c-4.75-12.55-9.3-25.19-14.35-38.91c-0.74,7.8,0.16,14.4,0.51,21.01
			C318.83,449.95,297.25,450.26,288.11,441.44z"/>
		<path class="st2" d="M913.06,382.55c7.15,3.12,8.19,10.21,9.83,16.39c6.63,25.03,13.12,50.11,17.47,75.67
			c0.77,4.53-3.2,11.74-7.4,13.27c-0.54,0.2-1.41,0.23-1.82-0.07c-1.24-0.89-0.66-2.06-0.13-3.12c1.19-2.37,2.64-4.63,2.17-7.51
			c-0.39-2.38-0.81-4.38-4.05-3.18c-2.78,1.02-3.99-0.75-2.25-2.57c4.21-4.4,1.8-8.37,0.29-12.68
			c-4.94-14.07-9.04-28.44-14.93-42.18c-1-2.49,0.84-4.65,0.82-7.03c1.02-1.86-0.44-3.11-1.19-4.49c-0.83-1.53-2.74-2.53-2.25-4.7
			c0.01-0.03-0.02-0.22-0.05-0.15c-1.29,3.22-3.25,0.12-4.31,0.69c5.78,1.82,7.77,3.98,7.09,8.09c-6.91-3.38-12.7-0.07-18.52,3.1
			c-3.74-0.35-7.47-0.28-11.2,0.16c-0.5-0.02-1.12,0.02-1.44-0.3c-4.78-4.77-10.3-5.3-16.36-2.95c-2.06-1.16-0.96-2.38-0.07-3.6
			c1.64-3.08,4.44-4.03,7.61-4.33c0.72,0.02-0.25-0.95,0.07-0.36c0.07,0.14-0.05,0.24-0.35,0.31c-4.87,1.11-4.87,1.11-5.32-2.43
			c-0.25,1.85,0.26,3.88-1.15,5.46c-1.45,1.8-2.76,3.64-1.58,6.12c0.16,2.08,1.49,4.13,0.11,6.23
			c-5.19,15.06-10.29,30.14-15.62,45.15c-1.21,3.41-1.69,6.31,1.05,9.15c0.73,0.75,1.58,1.89,0.58,3.1
			c-0.64,0.77-1.46,0.51-2.27,0.2c-4.45-1.7-3.96,2.06-4.57,4.34c-0.22,0.83,0.35,1.91,0.65,2.84c0.72,2.23,3.86,5,1.41,6.55
			c-2.37,1.5-4.34-2.15-6.23-3.88c-3.15-2.89-3.72-6.68-2.86-10.56c6.17-28.01,11.72-56.18,20.61-83.53
			c1.06-3.25,2.52-5.78,6.19-6.3c2.38-3.27,6.18-2.43,9.41-3.17c2.04-0.47,4.28,0.15,6.18-1.09c1.76-1.6,0.94-3.76,1.19-5.66
			c0.39-2.91,1.53-4.43,4.6-2.77c2.77,1.5,5.39,1.1,8.07-0.31c1.22-0.64,2.46-1.94,4.05-0.67c0.36,0.56,0.62,1.16,0.72,1.82
			c1.32,8.11,1.32,8.09,9.73,9.28C909.1,381.17,911.37,380.82,913.06,382.55z"/>
		<path class="st2" d="M509.14,376.39c-1.15,4.79,2.19,6.03,5.59,5.95c7.03-0.17,10.25,3.89,12.04,9.74
			c8.46,27.63,16.57,55.37,24.12,83.27c1.33,4.94-1.31,8.27-4.61,11.31c-0.74,0.68-1.71,1.28-2.64,0.4
			c-0.89-0.86-0.43-1.91,0.21-2.69c1.86-2.27,2.46-4.69,0.89-7.3c-1.07-1.78-2.28-3.48-4.74-1.8c-0.77,0.53-1.67,1.5-2.56,0.38
			c-0.83-1.04-0.57-2.52,0.27-3.23c5.62-4.74,2.15-9.53,0.25-14.32c-5.03-12.66-10-25.35-15.19-37.95c-0.81-1.96-0.71-4.73-3.45-5.6
			c-1.17-1.92,0.54-3.59,0.45-5.42c0.08-0.65,0.53-1.47,0.17-1.93c-3.85-4.96-0.87-9.52,0.6-14.09c-0.89,1.56-1.56,3.43-1.81,5.25
			c-0.55,3.89-2.44,4.92-5.43,3.67c2.58,0.89,6.71,0.75,5.72,5.95c-5.16,0.89-10.2,2.14-14.88,4.59c-1.64,0.32-3.27,0.33-4.91-0.03
			c-4.54-2.93-9.81-3.52-14.92-4.6c0.59-4.71,2.46-5.94,8.44-5.54c0.13-0.48-0.03-0.46-0.28-0.54c-2.24-0.67-4.97,2.32-6.62-0.29
			c-1.24-1.97-1.32-4.68-2.16-6.98c-0.02-0.61-0.13-1.2-0.57-1.67c-0.05-0.05-0.15-0.01-0.15-0.01c0.34,0.33,0.53,0.74,0.65,1.21
			c1.82,4.64,2.62,9.27,0.18,13.93c0.62,2.13,1.24,4.25,0.24,6.43c-3.12,2.02-3.3,5.67-4.51,8.63c-5.47,13.36-10.51,26.9-16,40.26
			c-1.26,3.07-1.36,5.15,1.23,7.42c1.25,1.09,3.09,2.79,1.62,4.64c-1.24,1.55-2.56-0.59-3.87-0.83c-4.31-0.8-3.57,3.04-4.36,5.27
			c-0.46,1.3,0.62,2.46,1.25,3.65c0.59,1.13,2.53,2.57,0.55,3.72c-1.41,0.82-2.71-0.68-3.77-1.76c-3.24-3.29-4.59-6.73-3.22-11.67
			c7.61-27.33,15.57-54.55,23.81-81.7c1.83-6.05,5.05-9.83,11.96-9.72c3.53,0.06,6.7-1.14,5.48-5.92c-0.07-2.1-0.79-4.29,0.88-6.15
			c4.46,1.07,9.01,0.1,13.5,0.62C510.56,372.57,509.59,374.51,509.14,376.39z"/>
		<path class="st2" d="M88.19,426.61c-4.07,10.36-8.02,20.77-12.3,31.04c-1.25,3-2.03,5.44,0.33,8.19c0.93,1.08,1.73,2.82,0.44,4.1
			c-1.31,1.3-2.43,0.05-3.27-1c-1.05-1.31-1.63-0.52-2.19,0.39c-1.39,2.23-2.16,4.54-0.56,6.98c0.84,1.28,2.04,2.53,0.13,3.76
			c-1.67,1.07-2.73-0.27-3.88-1.24c-4.61-3.87-5.72-8.49-3.92-14.29c7.49-24.15,17.07-47.52,25.89-71.18
			c2.28-6.12,4.95-12.36,13.34-11.87c2.3-1.55,3.76-3.52,3.77-6.47c0.01-1.67,0.64-3.22,2.33-4.06c4.53-0.12,9.06,0.17,13.59,0.15
			c1.58,0.89,2.22,2.44,2.29,4.06c0.12,2.9,1.6,4.82,3.87,6.33c5.42-0.12,9.05,2.27,11.28,7.32c6.7,15.23,12,30.99,17.88,46.53
			c3.7,9.79,7.28,19.63,10.18,29.71c1.78,6.18,0.19,10.93-4.79,14.49c-1.01,0.72-2.02,1.35-3.17,0.55
			c-1.32-0.92-0.71-2.16-0.07-3.09c1.62-2.33,1.67-4.53,0.13-6.93c-0.88-1.38-1.41-2.9-3.03-0.67c-0.62,0.85-1.64,1.41-2.61,0.78
			c-1.19-0.78-1.12-2.3-0.4-3.11c4.35-4.91,0.94-9.23-0.85-13.68c-3.47-8.63-6.96-17.26-10.45-25.89c-1.05-0.86-1.75-1.95-2.1-3.26
			c-0.54-1.87-1.31-3.65-2.18-5.39c-0.12-0.44-0.13-0.88-0.04-1.32c1.64-2.85,3.71-5.55,3.03-9.17c-0.59-5.45-5.46-10.35-9.43-9.39
			c1.66-0.14,3.1,0.55,4.49,1.26c1.51,0.77,2.57,2.11,3.66,3.36c0.99,1.14,0.85,2.11-0.71,2.63c-7.89-1.86-13.63,3.33-20.08,6.17
			c-2.07,0.53-4.15,0.51-6.23,0.07c-2.24-0.64-4.42-1.44-6.37-2.73c-4.45-2.93-9.2-4.5-14.58-3.46c-1.81-0.5-1.98-1.44-0.82-2.84
			c2.43-2.93,5.28-4.9,9.33-4.27c0.66,0.06-0.05-0.96,0.1-0.31c0.03,0.14-0.12,0.19-0.45,0.16c-5.12-0.58-9.76,3.3-10.34,8.64
			c-0.6,3.93,1.81,6.98,3.05,10.38c-0.18,1.16-0.94,2.09-1.22,3.21C90.51,423.2,90.35,425.48,88.19,426.61z"/>
		<path class="st2" d="M142.9,447.4c0.73,18.14-0.85,36.16-2.47,54.2c-1.33,14.88-2.94,29.7-5.23,44.46
			c-1.86,12.01-5.16,23.66-7.98,35.44c-0.78,3.26-2.28,6.43,1.61,8.83c0.55,0.34,0.96,1.51,0.84,2.19c-0.22,1.28-1.5,0.97-2.45,1.07
			c-9.85,0.99-9.99,0.86-10-8.97c-0.05-40.3-0.11-80.6-0.16-120.91c2.29-3.16,6.17-3.53,9.25-5.29c4.41-2.53,9.04-4.74,12.47-8.72
			C139.81,448.49,140.98,447.17,142.9,447.4z"/>
		<path class="st2" d="M680.08,416.39c-5.25,5.82-7.06,13.43-10.34,20.25c-4.02,8.38-7.16,17.18-11.17,25.56
			c-1.73,3.62-1.94,6.39,0.91,9.28c0.65,0.66,1.38,1.67,0.67,2.63c-0.55,0.75-1.52,0.38-2.32,0.13c-4.08-1.3-6.59,1.15-5.59,5.57
			c0.25,1.08,1.07,2.02,1.55,3.07c0.45,1,1.5,2.08,0.21,3.11c-1.33,1.05-2.54,0.33-3.52-0.67c-2.87-2.95-4.79-5.94-3.68-10.61
			c4.03-17.05,11.03-33.05,17.03-49.39c4.41-12,9.13-23.9,12.81-36.15c1.36-4.54,3.81-7.37,8.61-7.53c3.02-0.1,3.01-1.93,2.87-4.05
			c-1.41-1.89-1.17-3.62,0.49-5.22c4.31,0.04,8.61,0.71,12.93,0.04c1.76,1.55,1.97,3.27,0.57,5.16c-0.35,2.55,0.24,4,3.31,4.14
			c3.77,0.18,6.45,2.15,7.64,6.04c7.57,24.83,18.12,48.59,26.28,73.21c1.62,4.88,2.66,9.95,4.06,14.9c1.27,4.48-1.39,7.22-4.22,9.88
			c-0.91,0.85-2.18,1.15-3.22,0.4c-1.27-0.92-0.55-2.05,0.11-3.06c1.19-1.82,2.57-3.62,1.77-5.98c-0.88-2.59-1.26-6.18-5.47-3.16
			c-0.83,0.59-1.99,1.02-2.66-0.02c-0.65-0.99,0.26-1.97,0.94-2.59c3.23-2.98,2.17-6.08,0.67-9.45
			c-5.81-13.07-11.45-26.21-17.26-39.28c-0.99-2.22-1.59-4.8-3.92-6.23c-0.15-3.02,2.37-5.54,1.65-8.67
			c0.15-4.69-4.71-4.49-6.82-7.24c-0.02,1.42,1.04,1.31,1.7,1.66c1.74,0.91,4.36,1.48,4.36,3.61c0,2.63-3.13,1.65-4.67,2.69
			c-3.42,1.02-6.48,2.75-9.38,4.8c-1.21,0.43-2.42,0.43-3.63,0.05c-3.11-1.7-6-3.85-9.48-4.83c-1.53-1.03-4.64-0.1-4.7-2.66
			c-0.05-2.12,2.35-2.92,4.23-3.62c0.75-0.28,1.63-0.38,1.97-1.69c-2.41,2.6-7.16,2.46-6.94,7.24
			C677.73,410.82,680.31,413.34,680.08,416.39z"/>
		<path class="st2" d="M524.96,447.45c1.94,3.48,1.87,7.47,1.98,11.15c0.59,19.45-0.54,38.83-2.47,58.22
			c-2.01,20.16-4.82,40.17-8.35,60.1c-0.2,1.14-0.52,2.26-0.75,3.4c-0.92,4.71-2.65,9.55,2.86,13.31c-0.27,0.31-0.54,0.62-0.8,0.92
			c-3.68,0-7.37,0.01-11.05-0.01c-1.39-0.01-2.15-0.75-2.21-2.15c-0.04-1-0.05-2-0.05-3c0-41.97,0.01-83.94,0.02-125.92
			c0.44-1.47,1.79-1.83,2.96-2.43c5.36-2.76,10.1-6.3,14.04-10.91C522.16,448.95,522.88,447.2,524.96,447.45z"/>
		<path class="st2" d="M692.12,591.5c0,2.43-1.5,3.11-3.6,3.1c-1.83,0-3.67,0.07-5.49-0.02c-1.45-0.07-3.42,0.7-4.2-0.69
			c-1.05-1.85,0.86-2.89,2.09-3.95c1.35-1.16,1.21-2.54,0.86-4.1c-4.78-21.42-6.68-43.23-8.8-65.01
			c-1.97-20.33-4.14-40.64-3.84-61.11c0.07-4.79,0.61-9.52,1.85-14.15c7.59,9.13,16.49,16.11,28.78,17.53
			c1.33,1.25,0.77,2.66,0.37,4.07c-0.86,2.25-0.6,4.59-0.6,6.9c-0.01,36.02,0.01,72.04-0.04,108.06c0,2.57,0.73,5.38-1.47,7.56
			c-1.31-1.8-0.76-3.87-0.76-5.82c-0.03-38.15-0.04-76.3-0.01-114.45c0-3.71-0.23-6.79-5.14-3.92c-0.9,1.37-0.5,2.91-0.5,4.38
			c-0.02,39.08-0.02,78.16,0,117.24C691.63,588.59,691.24,590.13,692.12,591.5z"/>
		<path class="st2" d="M499.19,463.57c0.01,41.99-0.02,83.98,0.1,125.97c0.01,3.79-0.82,5.62-4.98,5.12
			c-2.74-0.33-5.56-0.06-9.21-0.06c7.7-8.82,1.96-17.35,0.74-25.6c-2.6-17.56-5.24-35.1-6.85-52.8
			c-1.51-16.56-2.93-33.11-2.75-49.75c0.07-6.74-0.19-13.59,2.6-20.01c4.58,4.36,8.34,9.61,14.14,12.66
			C495.21,460.3,498.06,460.79,499.19,463.57z"/>
		<path class="st2" d="M147,174.17c0.31,11.18-1.72,22.17-3.02,33.19c-2.01,17.12-3.64,34.34-7.92,51.11
			c-1.4,5.47-3.04,10.89-4.84,16.25c-1.36,4.02-1.36,7.37,2.52,10.04c0.98,0.67,2.5,1.71,1.72,3.21c-0.63,1.21-2.17,1.44-3.54,1.44
			c-2.83,0.02-5.7-0.29-8.49,0.06c-5.09,0.66-6.29-1.75-6.27-6.32c0.12-27.5,0.05-55,0.06-82.49c0-8,0.05-16,0.08-24
			c0.95-0.72,2.06-1.14,3.22-1.2c7.92-0.41,15.85-0.82,23.69-2.1C145.2,173.21,146.18,173.54,147,174.17z"/>
		<path class="st2" d="M110.13,593.5c-0.34,0-0.67,0-1.01,0c-1.56-0.67-1.37-2.22-1.7-3.51c-0.15-0.63-0.83,0.39-0.25,0.06
			c0.26-0.14,0.43-0.06,0.4,0.25c-0.08,1.07,0.45,2.24-0.45,3.2c-1,0.03-2.01,0.18-2.99,0.07c-1.22-0.13-2.89,0.7-3.53-0.93
			c-0.51-1.31,0.81-2.1,1.65-2.8c1.97-1.66,1.91-3.51,1.28-5.83c-5.69-21.02-10.03-42.32-12.12-64c-1.35-14.04-2.91-28.07-3.44-42.2
			c-0.38-10.14-1.25-20.25-0.62-30.4c1.29-0.23,2.25,0.47,3.06,1.28c5.67,5.69,12.32,9.81,19.83,12.62
			c1.21,0.45,2.44,1.05,2.98,2.41c-0.06,32.57-0.12,65.14-0.18,97.71c-0.01,8.64,0.03,17.28-0.03,25.92
			c-0.01,1.77,0.56,3.69-0.86,5.25c-1.24-1.2-1.03-2.76-0.99-4.23c1.1-38.27,0.17-76.56,0.49-114.83c0.01-1.75-0.21-3.52-0.04-4.23
			c0,36.48,0.02,73.98-0.03,111.48C111.57,585.04,111.73,589.39,110.13,593.5z"/>
		<path class="st2" d="M112.92,176.61c0.04,35.75,0.04,71.49,0.16,107.24c0.02,4.33-1.6,6.06-5.93,5.63
			c-2.8-0.28-5.65-0.03-8.47-0.08c-1.27-0.02-2.88,0.39-3.41-1.27c-0.54-1.69,0.36-2.86,1.9-3.58c0.37,0.4,0.89,0.4,1.36,0.53
			c-0.43-0.23-0.99-0.15-1.35-0.55c3.23-2.8,3.13-6.12,1.82-9.85c-7.89-22.55-10.33-46.12-12.97-69.65
			c-1.16-10.36-2.79-20.67-2.92-31.13c1.14-0.98,2.49-0.84,3.8-0.63c6.41,1.05,12.82,1.92,19.35,1.86c2.18-0.02,4.39,0.34,5.31,2.86
			c0.1,33.93,0.01,67.85,0.07,101.78c0.01-33.72,0-67.43,0.01-101.15C111.69,177.71,111.53,176.66,112.92,176.61z"/>
		<path class="st2" d="M699.12,465.51c1.07-0.75,0.94-1.43-0.11-2.06c-0.2-1.64,1.07-2.36,2.14-2.99
			c6.63-3.95,12.63-8.7,18.21-14.01c2.27,9.46,2.05,19.08,1.51,28.66c-0.69,12.24-1.76,24.46-2.78,36.67
			c-1.4,16.83-3.34,33.6-5.55,50.34c-1.06,8.06-2.4,16.04-4.21,23.95c-0.55,2.4,0.61,3.74,2.13,5.15c0.69,0.64,1.67,1.35,1.13,2.49
			c-0.52,1.1-1.79,1.06-2.64,0.82c-3.55-1.01-7.96,2.45-10.82-2.05c1.03-6.74,0.83-13.56,0.88-20.32
			c0.25-31.11,0.07-62.22,0.15-93.33C699.18,474.41,697.73,469.96,699.12,465.51z"/>
		<path class="st3" d="M907.28,449.53c5.14,15.49,4.37,31.46,3.46,47.35c-0.7,12.24-2.33,24.43-3.58,36.64
			c-1.74,17-3.33,34.01-5.43,50.96c-0.39,3.14-0.07,4.99,2.45,6.65c0.95,0.62,1.97,1.56,1.53,2.88c-0.43,1.31-1.74,1.36-2.93,1.39
			c-0.33,0.01-0.67,0.01-1,0.01c-12.14-0.07-10.61,1.29-10.62-10.11c-0.05-40.31-0.02-80.61-0.03-120.92
			c0.02-2.43,2.16-3.18,3.65-4.32C899.12,456.75,903.52,453.52,907.28,449.53z"/>
		<path class="st2" d="M885.19,464.45c0.27,27.63,1,55.26,0.62,82.88c-0.2,14.63-0.45,29.27-0.51,43.91
			c-0.01,3.3-1.16,4.49-4.39,4.21c-2.48-0.22-4.99-0.04-7.49-0.04c-1.03,0-2.15-0.08-2.55-1.15c-0.39-1.04,0.22-2.1,1.1-2.55
			c4.34-2.23,3.43-6.16,2.96-9.67c-2.82-20.88-4.64-41.87-6.87-62.81c-1.53-14.37-3-28.76-2.77-43.22
			c0.13-8.27,0.99-16.56,3.82-24.48C875.32,454.78,881.67,457.85,885.19,464.45z"/>
		<path class="st3" d="M311.09,462.55c-4.47-0.88-5.96,0.63-5.95,5.47c0.14,40.32-0.01,80.65-0.07,120.97
			c-0.01,5.62-5.54,8.86-10.49,6.09c-2.17-1.21-1.08-2.64,0.19-3.48c2.55-1.68,2.75-3.85,2.09-6.51
			c-4.09-16.47-5.78-33.32-7.94-50.11c-2.53-19.7-3.15-39.44-2.67-59.23c0.26-10.76,1.09-21.51,1.67-32.26
			c1.99,7.57,6.99,12.32,13.95,15.52c2.96,1.36,6.31,0.54,9.12,2.17C311.38,461.61,311.41,462.07,311.09,462.55z"/>
		<path class="st2" d="M311.09,462.55c0.02-0.25,0.03-0.51,0.03-0.76c6.16-3.45,11.27-8.57,17.88-11.33
			c1.45,13.73,1.92,27.55,1.84,41.31c-0.13,23.58-2.84,47-6.33,70.34c-1.13,7.57-2.6,15.04-4.47,22.43
			c-0.78,3.08-0.85,5.44,2.02,7.34c0.78,0.52,1.77,1.33,1.37,2.42c-0.39,1.04-1.58,0.99-2.58,1.11c-7.87,0.94-8.78,0.18-8.79-7.5
			c-0.03-17.66,0.37-35.33-0.17-52.97C311.15,510.82,311.37,486.68,311.09,462.55z"/>
		<path class="st4" d="M112.92,176.61c-0.29,0.26-0.57,0.52-0.86,0.77c-0.26,0.68-0.58,0.7-0.94,0.07
			c-9.3-1.51-18.88-0.77-28.02-3.55c-1.77-11.07-1.47-22.24-1.61-33.39c5.27,0.62,10.54,1.19,15.79,1.87
			c15.79,2.05,31.46,0.97,47.09-1.57c1.46-0.24,2.97-0.15,4.45-0.21c-0.28,9.41-0.52,18.83-0.88,28.24
			c-0.07,1.79-0.62,3.55-0.94,5.33c-9.82,1.8-19.69,3.07-29.71,2.49c0.01-3.64-0.04-7.29,0.05-10.93c0.04-1.8-0.37-2.73-2.46-2.68
			c-2.05,0.04-1.98,1.25-1.98,2.62C112.92,169.32,112.92,172.96,112.92,176.61z"/>
		<path class="st2" d="M693.15,281.52c-0.38,7.03-0.38,7.04-7.49,7.1c-3.14,0.02-6.28,0.04-9.42-0.01
			c-1.11-0.02-2.54,0.24-2.87-1.29c-0.32-1.44,1.09-1.88,1.93-2.61c0.25-0.22,0.52-0.52,0.81-0.56c6.64-0.97,5.38-5.63,4.71-10.02
			c-3.57-23.54-7.19-47.08-10.67-70.63c-1.43-9.64-2.56-19.33-3.83-28.99c1.78-1.49,3.81-0.69,5.76-0.64
			c5.49,0.14,10.98,0.27,16.46-0.14c1.8-0.14,3.68-0.57,5.14,1.05c1.17,1.97,1.07,4.16,1.07,6.31c0.03,31.28,0.04,62.56-0.01,93.83
			C694.73,277.21,695.01,279.64,693.15,281.52z"/>
		<path class="st2" d="M723.84,174.59c-3.72,32.43-9.58,64.55-13.83,96.9c-0.13,0.98-0.48,1.93-0.65,2.91
			c-0.72,4.22-2.11,8.64,4.45,9.7c1.34,0.22,3.38,1.65,2.74,3.57c-0.52,1.55-2.63,1.16-4.01,1.22c-2.64,0.12-5.3-0.23-7.96-0.25
			c-7.26-0.07-7.26-0.04-7.53-7.13c-1.68-1.95-1.54-4.33-1.55-6.65c-0.03-31.32-0.03-62.63,0-93.95c0-1.99-0.03-4.01,0.89-5.87
			c0.5-0.95,1.38-1.29,2.37-1.45c7.11,0.48,14.23,0.68,21.35,0.14C721.44,173.63,722.78,173.49,723.84,174.59z"/>
		<path class="st5" d="M723.84,174.59c-8.24,1.17-16.49,1.85-24.72-0.04c-2.83-6.61-1.76-11.18,3.7-13.76
			c-2.24,1.19-4.27,1.44-5.82,2.71c-2.59,0.91-2.29,3.17-2.5,5.23c-0.2,2,0.49,4.28-1.66,5.72c-8.83,1.75-17.67,1.61-26.5,0.06
			c-0.33-6.31-0.81-12.62-0.95-18.93c-0.21-9.17,4.05-16.26,10.85-22.04c12.58,5.3,25.16,5.2,37.74-0.01
			c9.31,7.43,11.7,17.47,10.85,28.74C724.49,166.38,724.16,170.48,723.84,174.59z"/>
		<path class="st2" d="M526.84,174.61c-1.41,20.84-3.82,41.57-6.47,62.29c-1.68,13.15-2.81,26.38-4.16,39.57
			c-0.32,3.18-0.57,6.29,3.12,8.07c0.77,0.37,1.42,2.05,1.29,3.02c-0.17,1.25-1.61,1.2-2.81,1.39c-3.5,0.56-6.9-0.55-10.36-0.38
			c-1.85,0.09-2.66-1.19-3.04-2.73c-0.24-0.95-0.28-1.97-0.28-2.96c0.03-35.79,0.07-71.59,0.11-107.38c0.39-0.3,0.79-0.77,1.25-0.73
			C512.61,175.4,519.72,174.61,526.84,174.61z"/>
		<path class="st2" d="M499.15,175.59c0.02,35.79-0.01,71.58,0.13,107.37c0.02,4.34-1.45,6.11-5.82,5.74
			c-2.45-0.21-4.97,0.37-7.43,0.19c-3.01-0.23-4.19-2.63-1.75-4.18c5.07-3.22,2.96-7.71,2.58-11.5c-2.4-24.07-5.19-48.11-7.82-72.16
			c-0.93-8.57-2.3-17.12-1.91-25.79c1.66-1.21,3.48-0.77,5.28-0.52c4.81,0.68,9.59,0.17,14.38-0.26
			C497.72,174.55,498.48,174.97,499.15,175.59z"/>
		<path class="st2" d="M305,173.49c0.04,36.83,0.06,73.65,0.15,110.48c0.01,3.91-1.32,5.88-5.59,5.56
			c-3.28-0.24-6.56-0.14-10.25-1.74c11.07-7.75,4.32-17.78,3.24-26.56c-2.08-16.8-4.05-33.6-5.44-50.46
			c-1.05-12.74-1.93-25.49-2.88-38.23C291.21,171.49,298.18,171.01,305,173.49z"/>
		<path class="st2" d="M332.82,172.42c-0.9,11.9-1.73,23.8-2.72,35.69c-1.38,16.51-2.9,33.01-5.41,49.4
			c-1.15,7.53-2.11,15.08-3.31,22.6c-0.39,2.48,1.54,2.99,2.81,4.19c1.03,0.97,3,1.69,2.43,3.37c-0.51,1.49-2.51,1.44-3.9,1.61
			c-2.3,0.28-4.65,0.1-6.98,0.18c-2.54,0.09-3.65-1.2-3.69-3.62c-0.01-0.67-0.05-1.33-0.05-2c0.02-36.77,0.05-73.55,0.07-110.32
			c1.32-1.18,2.95-1.63,4.61-1.47C322.07,172.57,327.49,170.6,332.82,172.42z"/>
		<path class="st2" d="M886.13,173.43c0.03,36.61,0.02,73.22,0.13,109.83c0.01,4.58-1.49,7.01-6.42,6.26
			c-0.81-0.12-1.68,0.11-2.49-0.03c-2.34-0.4-5.53,1.38-6.88-1.24c-1.5-2.89,2.09-3.58,3.51-5.18c2.08-2.33,1.17-5.12,0.98-7.65
			c-1.21-15.7-2.61-31.38-3.92-47.07c-1.54-18.33-3.06-36.67-4.58-55C873.01,172.66,879.57,172.15,886.13,173.43z"/>
		<path class="st2" d="M910.06,173.54c-1.21,15.87-2.38,31.73-3.63,47.6c-0.69,8.76-1.52,17.51-2.26,26.26
			c-0.88,10.4-1.58,20.83-2.68,31.21c-0.29,2.72,1.12,3.91,2.63,5.44c1.11,1.12,3.16,2.01,2.49,3.93c-0.79,2.27-3.08,1.42-4.81,1.5
			c-2.32,0.1-4.66-0.02-6.99,0.03c-2.12,0.04-3.59-0.62-3.71-3c0.03-34.92,0.01-69.83,0.01-104.75c0-3.18-0.35-6.48,3.38-8.09
			C899.69,173.11,904.86,171.83,910.06,173.54z"/>
		<path class="st5" d="M497.14,175.5c-6.69,1.7-13.35,0.89-20.01-0.24c-2.68-13.86,0.44-25.87,11.28-35.42
			c8.86,2.27,17.71,2.28,26.57,0.01c11.08,9.15,13.38,21.3,11.86,34.76c-7.44,2.86-15.02,1.82-22.61,0.89c0-3.66,0-7.32,0-10.98
			c1.1-1.74,2.98-1.91,4.72-2.38c-0.03-0.06-0.06-0.12-0.02-0.05c-5.05,1.28-10.01,1.66-14.82-0.37c1.66,1.16,4.67,0.7,5,3.8
			c0.01,0.99,0.01,1.99,0.02,2.98C497.59,170.58,500.01,173.8,497.14,175.5z"/>
		<path class="st5" d="M332.82,172.42c-6.85,1.5-13.81,1.03-20.73,1.11c0.01-2.67,0.01-5.34,0.02-8.01
			c0.88-3.16,3.78-3.55,6.14-4.79c-2.53,1.42-5.29,2.13-8.14,2.53c-1.34,0.02-2.67,0.03-4.01,0.05c-2.65-0.91-5.3-1.83-8.01-2.85
			c2.37,1.25,5.08,1.43,7.15,3.13c-0.08,3.3-0.16,6.6-0.23,9.9c-6.94,0.08-13.9,0.33-20.78-0.95c-0.73-10.97-1.2-21.96-0.99-32.96
			c16.85,3.69,33.7,3.49,50.56,0.09C333.47,150.58,333.15,161.5,332.82,172.42z"/>
		<path class="st2" d="M90.13,420.52c0.04-1.4,0.85-2,2.16-2.08c6.7,2.07,12.21-2.41,18.37-3.33c2.96-0.04,5.91-0.05,8.87-0.02
			c1.16,0.05,2.48-0.12,3.41,0.49c4.66,3.06,9.72,3.68,15.08,2.82l0.18,0.21c1.06,1.75,1.4,3.78,2.19,5.63
			c0.31,1.07,0.75,2.11,0.63,3.26c0.19,4.72,2.18,9.2,1.92,13.98c-1.91-0.26-3.41,0.46-5.05,1.47c-14.76,9.11-29.7,9.41-44.67,0.47
			c-1.86-1.11-3.54-2.51-5.91-1.92c-0.3-4.45,1.42-8.62,1.87-12.96C89.2,425.83,90.68,423.29,90.13,420.52z"/>
		<path class="st5" d="M910.06,173.54c-4.85,1.03-9.76,0.89-14.67,0.82c-1.71-0.42-3.9,0.79-5.05-1.51
			c-0.28-3.4,0.62-6.87-0.58-10.21c1.54-0.73,3.64,0.24,4.78-1.58c-1.94,1.88-4.36,0.7-6.59,0.95c-1.62,0.47-3.22,0.73-4.39-0.06
			c3.88,1.14,0.92,5.21,2.55,7.56c0,1.31,0,2.61,0,3.92c-6.56,0.88-13.13,1.75-19.68-0.08c-0.36-5.92-1-11.84-1.02-17.76
			c-0.02-6.2,1.62-12.05,5.51-17.08c11.64,4.63,23.32,4.08,35.01,0.22c6.96,9.12,5.34,19.61,4.76,29.93
			C910.63,170.29,910.29,171.92,910.06,173.54z"/>
		<ellipse class="st6" cx="404.08" cy="246.01" rx="0.71" ry="438.08"/>
		<ellipse class="st7" cx="211.07" cy="246.1" rx="0.56" ry="437.98"/>
		<path class="st8" d="M597.92-63.61c0,206.42,0,412.83,0,619.25c-0.33,0-0.66,0-0.99,0c0-206.4,0-412.8,0-619.2
			C597.26-63.57,597.59-63.59,597.92-63.61z"/>
		<ellipse class="st9" cx="790.35" cy="246.01" rx="0.67" ry="437.82"/>
		<path class="st10" d="M880.12,380.5c-4.04,2.09-8.67,0.31-12.81,1.96c-1.33,0.53-2.82,0.67-4.23,1c0.48-3.36-2.26-6.71-0.04-10.33
			c2.08,0.78,2.79,4.31,5.63,2.96c3.06-1.45,2.47-4.38,2.5-7c0.14-11.09-0.74-22.23,1.88-33.18c1.43-5.97,5.12-9.02,11.19-9.41
			c0.17-0.01,0.33,0,0.5-0.01c12.48-1.06,20.61,1.65,20.39,19.49c-0.1,8.14-0.02,16.29,0.01,24.44c0.01,2.41,0.42,4.79,2.95,5.81
			c2.72,1.11,3.63-1.53,5.5-3.36c0.83,3.58,1.06,6.64-0.54,9.68c-4.52,0.53-8.87-1.17-13.36-1.07c-2.67,0.06-3.35-1.89-3.49-3.98
			c-0.18-2.65-0.07-5.32-0.08-7.99c1.47-5.54,3.31-10.95,2.76-16.89c-0.29-3.09-0.99-5.45-3.85-6.94c-2.7-1.4-4.53-3.79-6.61-6.64
			c-2.55,3.5-5.31,6.29-8.73,8.37c-1.92,1.16-2.29,3.2-2.18,5.26c0.21,3.99,0.35,8.09,1.82,11.77
			C881.48,369.81,880.65,375.11,880.12,380.5z"/>
		<path class="st11" d="M125.03,62.51c-1.7-1.34-3.01-0.45-4.35,0.68c-3.69,3.12-7.43,3.11-11.11-0.01c-1.34-1.14-2.66-2-4.36-0.67
			c0.63-3.64-2.74-5.86-3.18-9.22c-0.99-7.62,0.3-15.14,0.58-22.69c0.02-0.65,0.38-1.29,0.41-1.94
			c0.52-12.21,4.22-12.92,17.04-11.95c3.19,0.24,5.22,2.15,6.27,5.47c0.92,2.92,1.1,5.92,1.3,8.81c0.52,7.37,1.54,14.76,0.59,22.2
			C127.78,56.58,124.82,58.99,125.03,62.51z"/>
		<path class="st12" d="M688.83,372.64c-0.24,1.65-0.47,3.29-0.71,4.94c-5.56,0.69-8.36-4.51-12.89-6.04
			c-0.13-0.04-0.21-0.25-0.31-0.39c-0.89-1.24-2.17-3.25-1.34-4.03c4.36-4.12-3.21-10.55,2.88-14.01c1.66-0.94,1.84-2.05,1.57-3.66
			c-0.17-0.99-0.11-2.49,0.81-2.66c5.03-0.98,3.75-4.88,4.01-8.1c0.52-6.66,2.95-9.2,9.5-9.91c10.84-1.18,14.73,2.16,14.98,12.97
			c0.05,2.19-0.4,4.4,2.98,4.51c1.14,0.04,6.48,11.68,5.83,12.64c-1.69,2.5-1.31,4.62,0.16,7.07c1.05,1.74,0.35,4.1-1.15,4.95
			c-4.23,2.4-7.37,7.08-13.04,6.63c-0.31-1.68-0.62-3.36-0.93-5.05c-1.46-2.01,0.48-2.99,1.35-4.21c4.92-6.91,4.49-14.66-1.21-20.86
			c-2.73-2.96-8.78-3.27-11.88-0.6c-5.36,4.62-6.72,13.7-3.06,20.04C687.44,368.69,689.4,370.14,688.83,372.64z"/>
		<path class="st13" d="M495.22,370.51c-0.55,1.95,0.17,4.12-1.03,5.95c-1.54,0.26-0.51-3.12-3.03-1.93
			c-2.08,0.98-1.78-0.4-1.5-2.03c0.77-4.49-1.71-2.23-3.36-1.48c-1.36-1.01,1.44-6.5-3.73-3.1c-0.34-2.17,0.96-3.65,1.56-5.51
			c-2.09-0.29-4.09-0.22-5.86-1.44c1.58-2.06,4.56-2.38,5.62-5.01c-1.48-1.58-4.45-1.25-5.36-3.83c1.09-1.05,2.96,0,3.93-1.47
			c0.2-1.3-0.97-0.9-1.59-1.12c-1.71-0.6-4.1-1.01-3.76-3.2c0.32-2.02,2.54-0.63,3.83-0.71c3.42-0.2,4.35-2.5,5.14-5.19
			c1.19-4.05,1.05-9.27,6.02-10.74c6.61-1.95,13.51-2.13,20.11,0.34c3.16,1.18,3.66,4.52,4.48,7.39c2.33,8.23,2.31,8.23,10.35,8.06
			c-0.49,3.67-3.85,3.53-6.16,4.64c0.57,2.3,3.07,0.68,4.03,2.13c-1.03,2.33-3.55,2.28-5.36,3.51c0.78,1.96,2.48,2.88,4.19,3.8
			c0.91,0.49,1.91,0.99,0.44,2.02c-1.05,1.41-4.1-1.35-4.2,2.02c0.11,0.27,0.16,0.56,0.17,0.85c0.52,1.13-0.13,1.71-1.04,2.15
			c-0.59,0.05-1.18,0.1-1.78,0.15c-1.44,0.57,0.37,2.59-1.36,3.03c-3.61-0.44-1.82,2.19-2.08,3.65c-2.33,0.12-0.31-2.6-1.72-2.9
			c0.75,1.18,0.67,2.44-0.02,3.73c-0.6-0.13-1.2-0.25-1.8-0.38c-1.09-1.13-0.76-2.84-1.66-4.04c-0.09-3.67,2.7-6.31,3.43-9.72
			c0.99-4.65,1.91-9.32-2.12-12.96c-2.25-2.03-5.26-3.13-7.33-5.51c-0.57-0.65-1.77-0.55-2.21,0.21c-1.76,3.06-5.07,4.05-7.63,6.03
			c-1.82,1.41-2.5,3.39-2.45,5.7c0.09,4.22,1.19,8.15,3.11,11.9C494.28,367.09,495.78,368.46,495.22,370.51z"/>
		<path class="st2" d="M873.01,441.34c-0.98-6.9-1.96-13.79-2.94-20.69c3.29-2.1,7.63-1.73,10.64-4.51
			c0.48-0.18,0.98-0.25,1.49-0.24c1.75,0.27,3.51,0.34,5.28,0.26c2.84,0.15,5.68-0.33,8.52-0.14c2.98,2.55,7.16,2.49,10.27,4.76
			c-0.77,6.93-1.54,13.87-2.31,20.8C894.96,450.85,881.92,451.18,873.01,441.34z"/>
		<path class="st2" d="M673.12,440.37c1.71-3.75,4.48-7.02,7.85-8.79c4.76-2.5,5.64-5.92,5.03-10.53c-0.11-0.82-0.02-1.66-0.02-2.49
			c1.04-2.41,3.22-3.3,5.48-4.09c2.1-0.37,4.2-0.35,6.3-0.06c2.49,0.82,5.15,1.39,6.43,4.1c0,1.83,0.18,3.68-0.04,5.49
			c-0.36,3.02,0.74,4.94,3.39,6.5c4.06,2.38,7.42,5.6,9.52,9.94C703.53,452.84,686.17,452.81,673.12,440.37z"/>
		<path class="st14" d="M108.09,371.52c-0.29,1.77-0.89,3.54-0.82,5.29c0.16,3.75-1.63,5.02-5.07,4.68
			c-1.97-4.12-0.81-9.26-4.2-12.92c-0.33-3.69,1.41-7.33,0.21-11.04c-0.11-6.5,0.56-12.94,1.85-19.28c0.91-4.44,3.53-7.44,8.38-7.93
			c1.48-0.15,2.95-0.48,4.44-0.57c13.65-0.88,17.28,2.24,18.38,15.88c0.35,4.29,0.56,8.6,0.83,12.9c-1.21,3.37,0.56,6.69,0.16,10.05
			c-0.64,0.47-1.88,1.02-1.82,1.38c0.65,4.18-2.07,7.61-2.39,11.55c-3.42,0.33-5.24-0.92-5.08-4.67c0.07-1.76-0.52-3.55-0.81-5.32
			c-0.66-1.97,0.93-3.04,1.8-4.37c3.09-4.78,3.14-10.08,2.67-15.44c-0.21-2.46-2.01-3.29-4.28-3.19c-4.83,0.21-9.65,0.28-14.48-0.08
			c-2.97-0.22-4.2,1.45-4.38,4.21c-0.33,5.09,0.21,9.96,3,14.42C107.32,368.4,108.8,369.59,108.09,371.52z"/>
		<path class="st15" d="M511.09,64.51c-1.05-1.31-1.33-3.74-4.03-1.17c-4.54,4.34-8.99,1.26-13.18-1.33
			c-1.62,1.69,0.19,4.18-1.72,5.5c1.66-5.72-3.2-9.99-3.42-15.36c-0.14-3.55-1.04-7.07-1.59-10.61c1.54-1.72,1.5-3.97,1.98-6.03
			c1.21-5.19,2.46-6.23,7.48-5.29c3.63,0.68,7.12,0.8,10.77-0.03c4.07-0.93,6.16,0.66,6.92,4.9c0.41,2.28,0.69,4.55,1.87,6.59
			C515.33,49.48,513.97,57.16,511.09,64.51z"/>
		<path class="st15" d="M318.09,60.52c-0.63,0.18-1.41,0.18-1.85,0.58c-5.48,4.92-10.93,4.42-16.14-0.23
			c-1.66,1.4-0.28,3.6-1.94,4.64c0.18-3.46-0.23-6.63-2.27-9.74c-2.22-3.39-1.99-7.5-1.61-11.46c1.3-2.88,2.02-5.95,2.35-9.05
			c0.4-3.71,2.31-5.44,5.9-4.95c3.79,0.52,7.51,0.35,11.31,0.04c4.54-0.38,5.46,1.03,6.91,8.73c0.28-2.97-0.22-5.91,0.31-8.82
			c0.21-0.74,0.55-1.39,1.27-1.77C323.67,39.53,324.54,50.51,318.09,60.52z"/>
		<path class="st2" d="M513.07,418.55c-3.1,6.38-2.42,11.97,3.2,16.74c1.22,1.03,1.98,2.6,2.95,3.92
			c-11.71,13.4-22.23,13.62-35.16,0.08c0.7-0.93,1.24-2.03,2.11-2.75c5.83-4.83,7.88-10.62,4.77-17.82c2.44-2.24,5.37-3.7,8.28-5.18
			c1.54-0.35,3.08-0.34,4.63-0.05C507.09,414.88,510.3,416.32,513.07,418.55z"/>
		<path class="st16" d="M682.1,53.54c-0.45-8.64-4.67-16.76-3.62-25.6c0.13-1.05,0.52-2.05-0.89-2.3c-3.44-0.62-1.24-2.1-0.21-2.58
			c3.16-1.45,1.9-3.11-0.08-5.16c2.71-0.63,5.13-0.15,7.11-1.33c3.48-2.07,10.92-1.91,14.4-2.68c5.7-1.25,8.07,6.15,12.88,3.77
			c2.28,11.49-1.4,22.12-3.48,32.96c-1.59-3.57-3.44-7.13-4.07-10.97c-1.04-6.35-0.82-6.39-7.22-7.02
			c-8.97-0.88-9.02-0.22-11.28,8.26C684.53,45.08,684.07,49.56,682.1,53.54z"/>
		<path class="st17" d="M87.31,441.5c0.86-3.66,2.54-1.96,4.28-0.71c13.39,9.61,27.54,10.07,42.19,3.28
			c2.07-0.96,4.09-2.3,5.71-3.89c2.47-2.42,2.69-0.13,3.45,1.31c-0.01,1.97-0.02,3.94-0.04,5.92c-6.92,8.13-16.13,12.62-25.85,16.31
			c-1.28,0-2.56,0-3.84,0c-9.89-3.43-18.85-8.33-25.86-16.32C87.34,445.43,87.32,443.46,87.31,441.5z"/>
		<path class="st11" d="M682.1,53.54c0.4-3.99-0.85-8.09,2.38-11.84c1.4-1.63-0.07-4.89,1.14-7.72c0.99-2.3,1.72-2.42,3.49-2.48
			c3.54-0.11,7.1-0.08,10.61-0.48c4.04-0.46,5.79,2.89,5.59,5.11c-0.34,3.81,1.23,6.48,2.59,9.56c0.62,1.42,0.24,3.27,0.31,4.93
			c1.15,4.56-2.65,7.79-3.19,11.9c-1.5-0.93-2.91-1.33-4.47,0.03c-3.99,3.49-8,2.98-11.82-0.27c-1.38-1.17-2.45-1.35-3.53,0.24
			C685.58,59.03,681.05,57.25,682.1,53.54z"/>
		<path class="st17" d="M484.07,439.29c4.1,2.13,7.64,5.13,11.73,7.34c4.33,2.33,8.2,2.27,12.17-0.13
			c3.82-2.31,7.51-4.85,11.25-7.28c2.16,2.57,4.49,5.03,5.73,8.24c-5.45,7.28-12.16,12.93-20.82,16.04
			c-1.65,0.03-3.3,0.05-4.94,0.08c-8.22-4-16.33-8.13-20.36-17.11C480.58,444.07,482.32,441.68,484.07,439.29z"/>
		<path class="st18" d="M115.43-76.67c2.17,0.78,5.44-1.23,6.68,1.6c1.79,4.08,5.82,7.42,4.42,12.71c-0.8,3.03-1.11,6.19-1.7,9.28
			c-1.2,6.24-3.83,8.03-11.07,7.62c-4.71-0.27-8.24-3.73-8.83-8.68c-0.31-2.63-0.19-5.42-1.03-7.87c-2-5.77,1.56-9.37,4.51-13.31
			C110.32-77.87,113.04-76.09,115.43-76.67z"/>
		<path class="st19" d="M673.12,440.37c4.2,1.51,7.7,4.31,11.81,6.09c10.4,4.51,19.36,0.98,28.25-4.03c1.27-0.71,2.19-2.11,3.88-2
			c0.76,2.01,1.53,4.02,2.29,6.03c-2.15,5.53-7.29,7.97-11.65,11.18c-2.8,2.07-5.79,3.89-8.69,5.82
			c-10.3,1.31-16.57-5.97-23.71-11.26c-2.12-1.57-4.9-3.12-4.3-6.63C671.7,443.84,672.41,442.1,673.12,440.37z"/>
		<path class="st14" d="M516.16,41.68c-2.81-0.85-3.14-3.25-3.11-5.56c0.06-4.54-2.16-6.06-6.14-4.58
			c-3.6,1.34-6.97,1.05-10.44-0.07c-3.88-1.25-5.75,0.02-5.98,4.24c-0.13,2.29,0,5.18-3.34,5.83c-0.88-5.83-1.66-11.74-0.84-17.56
			c0.71-5.01,4.97-8.09,9.15-9.55c4.64-1.62,9.54-1.16,14.61,1.26c7.59,3.62,7.2,10.06,7.55,16.34
			C517.79,35.2,516.69,38.46,516.16,41.68z"/>
		<path class="st17" d="M329,450.46c-5.51,4.48-10.61,9.61-17.88,11.33c-5.9,0.41-10.92-1.73-15.68-5.05
			c-4.7-3.27-8.42-6.9-7.51-13.26c0.06-0.68,0.13-1.36,0.19-2.05c7.52,2.88,14.91,6.02,23.35,5.22c6.21-0.59,11.57-3.63,17.46-5.05
			C328.95,444.56,328.98,447.51,329,450.46z"/>
		<path class="st17" d="M873.01,441.34c1,0.58,2.04,1.1,3,1.74c8.11,5.41,16.24,5.72,24.47,0.24c1.07-0.71,2.32-1.17,3.49-1.74
			c1.1,2.65,2.21,5.3,3.31,7.95c0.12,2.04-1.02,3.2-2.59,4.36c-4.59,3.39-9.05,6.98-13.55,10.49c-1.98,0.03-3.97,0.05-5.95,0.08
			c-4.76-5.05-11.12-8.11-16.08-12.92C869.69,447.86,871.11,444.51,873.01,441.34z"/>
		<path class="st20" d="M692.82,174.45c0.03-2.66,0.34-5.35,0.04-7.97c-0.41-3.53,1.31-4.28,4.25-3.97c1.77,3.98,1.23,8,0.28,12.04
			c-0.08,16.99-0.18,33.98-0.24,50.98c-0.06,18.66-0.07,37.32-0.1,55.99c-1.3-0.1-2.6,2.37-3.9,0.01
			c-0.03-33.54-0.06-67.08-0.11-100.61C693.05,178.75,692.9,176.6,692.82,174.45z"/>
		<path class="st13" d="M903.22,47.38c2.65,2.71,0.59,6.42,2.04,9.61c0.75,1.65,0.55,4.29,1.1,6.48c0.5,2,0.29,2.05-2.19,1.9
			c-1.41-0.94-2.74,1.08-4.22,0.06c-1.46-1.02-3.28-2.53-0.98-3.63c2.99-1.44,2.38-2.89,1.43-5.07c-0.74-1.69-0.47-3.59-0.54-5.41
			c-0.02-0.33-0.09-0.69-0.01-1c2.64-9.61-3.78-14.03-10.42-18.42c-1.71-1.13-2.41,0.06-3.35,0.9c-2.88,2.6-5.98,4.76-9.95,5.34
			c-0.25-0.06-0.49-0.13-0.73-0.2c-0.47-0.29-0.72-0.71-0.76-1.27c0.08-1.84-0.31-3.71,0.35-5.51c0.44-14.47,8.61-15.05,19.78-13.07
			c3.78,0.67,5.47,4.11,6.28,7.67c0.7,3.07,1.4,6.16,1.16,9.35c0.82,1.71-0.11,3.67,0.76,5.37c1.1,2.27-0.13,4.62,0.25,6.91
			c-1.17,1.3-0.32,2.87-0.48,3.4C902.81,50.25,902.2,48.71,903.22,47.38z"/>
		<path class="st21" d="M322.33,28.5c-0.11,0.69-0.22,1.38-0.33,2.07c-1.16,3.91,0.44,8.03-0.87,11.93
			c-1.4-1.55-2.14-3.46-2.15-5.44c-0.02-5.11-2.41-6.61-7.12-5.19c-3.31,1-6.62,0.17-9.87-0.37c-2.58-0.43-3.58,0.36-3.73,3.02
			c-0.2,3.65-0.76,7.3-3.97,9.8c-0.24-5.83-0.44-11.66,0.58-17.44c1.08-6.15,4.12-8.98,10.41-9.41c2.81-0.19,5.71-0.25,8.46,0.26
			C319.54,18.8,321.82,23.02,322.33,28.5z"/>
		<path class="st22" d="M690.12-69.78c0-1.33-0.2-2.7,0.05-3.98c0.36-1.85-1.69-5.07,2.68-4.86c3.41,0.16,6.4-0.14,6.35,5.02
			c-0.06,5.99-0.24,12.12,5.13,16.93c2.72,2.43,0.72,7.14-2.8,8.47c-0.62,0.23-1.25,0.46-1.87,0.68c-7.5,2.65-10.52,1.5-15.02-5.21
			c-1.1-1.64-0.25-2.31,0.57-3.36C690.13-62.4,690.12-62.41,690.12-69.78z"/>
		<path class="st23" d="M295.02,344.06c-0.25-9.53,1.39-12.39,8.15-14.24c7.57-2.08,14.7,0.22,17.79,5.74
			c-0.07,3.25,0,6.51,0.52,9.71c0.25,1.53,0.56,2.89-0.57,4.15c-2.76,1.8-4.64-0.16-6.59-1.63c-2.27-1.71-3.72-4.16-5.84-7.05
			c-2.69,3.73-5.1,7.49-9.16,9.44c-1.38,0.66-2.54,2.38-4.42,1.08C294.5,348.85,294.42,346.45,295.02,344.06z"/>
		<path class="st22" d="M511.02-47.26c-6.08,0.78-11.65,1.45-17.2,2.23c-1.77,0.25-2.06-0.48-1.7-1.94
			c0.08-0.32,0.12-0.67,0.27-0.96c4.95-9.7,6.16-19.13-3.71-28.25c7.57,0,13.41,0,19.39,0c-0.33,5.28-6.09,9.31-4.41,14.68
			C505.17-56.69,508.29-52.39,511.02-47.26z"/>
		<path class="st24" d="M313.93-62.69c0,2.16,0.16,4.34-0.04,6.48c-0.23,2.36,1.5,5.77-1.04,6.84c-2.92,1.23-6.52,0.97-9.84,1.07
			c-1.55,0.05-1.49-1.57-1.55-2.68c-0.44-7.31-0.77-14.62-1.27-21.92c-0.15-2.12,0.63-2.84,2.64-3.25
			c10.59-2.2,10.71-2.15,10.91,8.47c0.03,1.66,0,3.33,0,4.99C313.81-62.69,313.87-62.69,313.93-62.69z"/>
		<path class="st22" d="M899.99-73.52c-3.34,8-6.69,16-10.51,25.15c-3.98-9.64-7.48-18.13-11.18-27.08c3.35,0,6.1,0,8.84,0
			c2.83,0.96,5.75,0.25,8.61,0.47C897.29-74.86,899.08-75.47,899.99-73.52z"/>
		<path class="st25" d="M890.35,172.86c1.68,0.5,3.36,1.01,5.05,1.51c-2.66,1.17-3.32,3.29-3.31,6.07
			c0.06,33.41,0.03,66.83,0.08,100.24c0,1.62,0.59,3.23,0.8,4.85c0.25,1.87-0.94,1.2-1.85,0.97c-0.75-1.35-0.89-2.82-0.89-4.34
			C890.28,245.73,890.31,209.29,890.35,172.86z"/>
		<path class="st26" d="M699.12,465.51c2.12,33.99,0.45,68.01,1.04,102.01c0.13,7.63-1.7,15.15-1.1,22.8
			c0.05,0.7-0.6,1.45-0.93,2.18c-0.03-0.94-0.06-1.88-0.09-2.82c0.03-39.49,0.05-78.99,0.13-118.48
			C698.17,469.3,697.4,467.17,699.12,465.51z"/>
		<path class="st17" d="M906.27,420.78c-3.9-0.08-7.73-0.33-10.21-4.02c-2.02-1.26-2.93-2.92-1.93-5.28
			c5.39-4.69,11.02-7.84,17.97-2.92c0.52,0.54,1.61,0.14,1.84,1.14c0.47,2.55-0.8,4.67-1.72,6.87
			C910.73,418.66,908.56,419.81,906.27,420.78z"/>
		<path class="st17" d="M881.31,416.63c-3.01,3.41-6.87,4.44-11.24,4.02c-2.3-0.97-4.14-2.57-5.92-4.26
			c-0.62-2.25-1.53-4.46-0.91-6.87c0.32-0.82,1.37-0.43,1.8-1.09c6.7-4.65,12.11-2.03,17.09,3.02
			C884.25,413.56,881.34,414.87,881.31,416.63z"/>
		<path class="st27" d="M319.98,349.91c1.78-2.85-0.45-5.76,0.12-8.66c0.37-1.88-0.62-3.97,0.85-5.7c0.08,0.58,0.16,1.16,0.24,1.74
			c1.07,2.32-0.26,4.91,0.83,7.23l0.26-0.06c1.01,3.96-0.49,8.1,0.81,12.04c-1.31,5.21,0.54,9.79,4.17,13.06
			c2.73,2.46,1.76,3.74-0.06,5.45c-2.51,2.37-5.73,3.11-9.02,3.63c-4.22-2.29-1.56-6-1.88-9.1
			C319.32,363.34,319.85,356.66,319.98,349.91z"/>
		<path class="st28" d="M874.16,68.25c-0.25,0.02-0.49,0.06-0.73,0.12c-0.05-0.33,0-0.88-0.16-0.95c-5.04-2.17-2.7-6.14-2.21-9.51
			c0.98-6.81,1.21-13.73,3.08-20.4c0.32-0.44,0.64-0.47,0.97,0l0.01,0.01c2.76,4.13,0.45,8.96,1.84,13.27
			c0.63,2.99,1.18,6,2.89,8.65c0.6,0.93,1.23,1.96,0.2,3.05c-2.36,2.79-0.77,7.05-3.44,9.86c-1.49-1.4,0.52-3.49-1.35-4.54
			c-0.85-0.87-0.88-1.8-0.38-2.82C874.29,65.96,874.99,67.33,874.16,68.25z"/>
		<path class="st29" d="M499.16,414.24c-2.42,2.07-4.75,4.3-8.21,4.48c-2.67-0.82-5.35-1.61-6.92-4.23
			c-1.12-2.21-1.2-4.54-0.84-6.93c0.29-0.38,0.63-0.46,1.03-0.17c5.55-0.49,10.69,0.4,14.95,4.36
			C499.9,412.57,499.93,413.4,499.16,414.24z"/>
		<path class="st30" d="M513.07,418.55c-3.65,0.03-6.2-2.26-8.9-4.23c-0.54-0.88-0.57-1.76-0.04-2.65c4.4-3.44,9.39-4.85,14.94-4.32
			c1.95-0.37,1.22,1.56,1.94,2.25c-0.57,1.65-1.14,3.3-1.71,4.95C517.89,416.91,515.61,417.93,513.07,418.55z"/>
		<path class="st31" d="M110.13,593.5c2.3-42.23,0.17-84.5,2.02-126.74c0,41.94,0,83.88,0,125.83
			C111.73,593.47,110.96,593.55,110.13,593.5z"/>
		<path class="st32" d="M704.19,418.51c-2.02-1.05-4.04-2.1-6.06-3.15c-0.86-0.85-1.87-1.65-1.09-3.08
			c2.28-3.06,5.72-3.95,9.13-4.89c2.3-0.35,4.62-0.99,6.87,0.21c0.6,3.43-0.65,6.26-2.89,8.75
			C708.16,417.07,706.17,417.79,704.19,418.51z"/>
		<path class="st33" d="M114.98,466.85c0,41.78,0,83.55,0,125.33c-0.17,0-0.33,0-0.5,0c0-41.85,0-83.7,0-125.54
			C114.65,466.71,114.82,466.78,114.98,466.85z"/>
		<path class="st30" d="M691.19,415.37c-1.74,1.06-3.47,2.12-5.21,3.18c-2.34,0.3-4.02-1.2-5.9-2.16c-2.28-2.51-3.5-5.38-2.92-8.83
			c2.29-1.11,4.62-0.56,6.94-0.15c3.51,0.82,6.7,2.23,9.18,4.95C693.29,413.85,692.45,414.76,691.19,415.37z"/>
		<path class="st34" d="M692.12,591.5c-1.63-1.48-0.96-3.43-0.97-5.17c-0.04-38.55-0.04-77.11,0-115.66c0-1.75-0.66-3.7,0.98-5.17
			C692.12,507.5,692.12,549.5,692.12,591.5z"/>
		<path class="st35" d="M301.21,370.51c-0.97,2.67,1.89,6.36-2.19,8.2c-3.33-0.46-6.57-1.21-9.17-3.48
			c-1.99-1.74-3.7-3.51-0.15-5.72c1.42-0.89,2.19-2.82,3.25-4.28c2.12-0.2,3,3.04,5.44,1.95C300,367.73,301.36,368.48,301.21,370.51
			z"/>
		<path class="st33" d="M114.26,280.19c0-33.78,0-67.55,0-101.33c0.16,0,0.33,0,0.49,0c0,33.84,0,67.67,0,101.51
			C114.59,280.3,114.43,280.24,114.26,280.19z"/>
		<path class="st36" d="M700.2-23.53c-0.55-6.07-1.06-12.14-1.7-18.2c-0.15-1.41-0.37-2.77,1.13-3.4c1.17-0.49,2.81-1.17,3.71-0.71
			c1.34,0.67,0.35,2.31,0.23,3.59c-0.57,6.24-1.03,12.48-1.53,18.72C701.43-22.9,700.81-22.9,700.2-23.53z"/>
		<path class="st37" d="M305.19-20.57c-1.01-7.29-2.06-14.57-3.01-21.86c-0.17-1.28-0.27-2.93,1.76-2.79
			c2.1,0.14,3.37,1.29,3.15,3.58C306.42-34.66,305.94-27.66,305.19-20.57z"/>
		<path class="st38" d="M506.1-18.87c0-6.81-0.04-13.62,0.03-20.43c0.02-1.66-0.74-4.14,2.23-4c2.65,0.13,1.9,2.5,1.65,3.87
			C508.75-32.52,508.89-25.37,506.1-18.87z"/>
		<path class="st39" d="M120.21-21.58c-0.37-5.63-0.74-11.26-1.12-16.89c-0.14-2.13-0.14-4.23,2.88-3.99
			c3.11,0.25,1.85,2.37,1.67,4.08c-0.57,5.27-1.08,10.55-1.62,15.83C121.57-21.94,121.33-20.92,120.21-21.58z"/>
		<path class="st40" d="M313.12-21.67c-1-6.66-2.04-13.31-2.98-19.97c-0.26-1.82-0.44-3.96,2.29-4c3.01-0.05,1.55,2.41,1.58,3.65
			c0.15,6.79,0.07,13.58,0.07,20.38C313.75-21.63,313.43-21.65,313.12-21.67z"/>
		<path class="st41" d="M111.4-19.54c-0.77-6.85-1.6-13.68-2.24-20.54c-0.1-1.07-1.65-3.27,1.22-3.27c2,0,2.79,1.29,2.85,3.28
			C113.44-33.17,112.4-26.38,111.4-19.54z"/>
		<path class="st42" d="M900.95,51.16c0.66,2.42-0.68,5.15,1.85,7.41c1.23,1.1-1.36,2.48-1.79,3.95c-0.27,0.9-3.26-2.02-1.9,1.18
			c0.38,0.89,1.64,1.9,3.4-0.04c1.95-2.14,1.12,1.01,1.64,1.72c-0.77,2.49-4.07,3.89-3.09,7.14c-2.69,0.2-2.79-1.81-3-3.61
			c-0.33-2.78-1.36-5.49-0.81-8.35C899.07,57.65,897.61,53.46,900.95,51.16z"/>
		<path class="st43" d="M324.14-50.51c-1.99-3.61-3.67-7.45-6.06-10.78c-2.95-4.09-3.44-8.42-2.57-14.49
			c3.51,9.17,6.6,17.24,9.69,25.3C324.83-50.08,324.48-50.09,324.14-50.51z"/>
		<path class="st44" d="M893.06-50.61c1.12,9.36,1.02,18.7,1.57,28.02C893.51-31.93,889.95-41.16,893.06-50.61z"/>
		<path class="st45" d="M886.18-21.54c0.31-9.61-1.68-19.15-0.91-29.02c2.66,1.42,3.02,3.67,2.9,6.2
			c-0.38,7.61-0.74,15.22-1.1,22.82C886.77-21.05,886.48-21.03,886.18-21.54z"/>
		<path class="st45" d="M684.91-49.18c2.65,1.3,4.31,2.45,3.96,4.48c-1.22,7-0.5,14.19-2.45,22.27
			C685.89-31.86,685.42-40.16,684.91-49.18z"/>
		<path class="st38" d="M497.16-22.52c-1.34-5.29-2.75-10.55-3.97-15.87c-0.31-1.35-1.73-3.56,1.13-3.88
			c2.32-0.26,2.49,1.92,2.65,3.46c0.54,5.43,0.88,10.88,1.3,16.32C497.89-22.15,497.52-22.17,497.16-22.52z"/>
		<path class="st46" d="M902.55-52.52c-0.5-6.28-5.23-12.33-0.54-20.21C901.92-65.11,903.97-58.92,902.55-52.52z"/>
		<path class="st47" d="M701.37-76.57c3.97,4.73,7.34,8.73,11.09,13.2C705.53-66.09,701.19-70.99,701.37-76.57z"/>
		<path class="st48" d="M292.06-56.49c1.72-5.19,3.43-10.38,5.15-15.58c3.29,6.67-2.01,10.62-4.07,15.58
			C292.77-56.07,292.41-56.1,292.06-56.49z"/>
		<path class="st49" d="M499.11,165.52c-1.83-2.49-5.81-1.92-7.92-5.71c4.09,0.47,6.85,3.18,10.24,2.68
			c3.22-0.48,6.4-1.15,9.93-1.79c-1.84,2.7-4.57,3.12-7.13,3.83C502.24,163.4,500.37,162.92,499.11,165.52z"/>
		<path class="st50" d="M915.11,106.5c0.01,0.67,0.02,1.34,0.04,2c-0.31,0.68-0.63,1.35-0.94,2.03c-8.06,4.3-16.31,3.44-24.61,1.57
			c8.99,0.27,18.43,3.4,25.53-5.58L915.11,106.5z"/>
		<path class="st51" d="M875.03-58.61c0.3-4.45,0.98-8.82,2.42-13.31c3.88,5.75-0.54,10.39-1.38,15.39
			C874.13-56.43,874.66-57.56,875.03-58.61z"/>
		<path class="st52" d="M480.04,106.58c-0.6-2.33-1.21-4.67-1.81-7c1.48,10.89,9.34,11.67,18.08,11.2
			c-4.95,0.98-9.65,1.03-14.31-0.19C480.92,109.46,480.3,108.11,480.04,106.58z"/>
		<path class="st53" d="M116.13-81.79c0.02-0.33,0.08,0.84-0.16,1.95c-0.26,1.2-1.75,1.72-2.07,0.78c-0.93-2.68-1.99-5.5-1.02-8.42
			c0.13-0.4,1.08-0.69,1.68-0.74c0.96-0.08,1.51,0.57,1.56,1.5C116.18-85.57,116.13-84.42,116.13-81.79z"/>
		<path class="st45" d="M484.06-62.58c1.11-3.44,2.22-6.87,3.42-10.6c2.75,2.14,2.76,4.2,1.13,6.63c-1.3,1.93-2.39,3.99-3.57,5.99
			C483.15-60.48,483.63-61.54,484.06-62.58z"/>
		<path class="st54" d="M516.12-62.49c-1.9-2.09-3.78-4.19-5.71-6.26c-1.59-1.7-1.86-3.37,0.17-5.63c2.32,3.82,4.45,7.33,6.58,10.84
			C517.55-62.47,517.04-62.28,516.12-62.49z"/>
		<path class="st55" d="M680.11-66.5c1.47-2.21,2.88-4.47,4.45-6.6c0.66-0.89,1.29-2.81,2.89-1.31c1.18,1.11,0.57,2.48-0.49,3.51
			c-1.91,1.85-3.86,3.65-5.79,5.47C680.23-65.2,679.77-65.45,680.11-66.5z"/>
		<path class="st48" d="M498.54-78.96c-0.47-2.97-0.99-5.93-1.37-8.92c-0.12-0.91-0.18-2.18,1.18-2.31c1.7-0.17,1.69,1.22,1.71,2.36
			c0.05,2.91,0.02,5.82,0.02,8.74C499.57-79.05,499.06-79,498.54-78.96z"/>
		<path class="st56" d="M889.19-77.06c-1.47-3.32-2.14-5.84-2.06-8.58c0.04-1.43,0.93-2.23,2.1-2.26c1.93-0.05,1.25,1.43,1.07,2.47
			C889.89-82.97,890.59-80.35,889.19-77.06z"/>
		<path class="st48" d="M93.11-64.5c2.05-1.92,4.08-3.86,6.16-5.73c0.67-0.6,1.48-1.73,2.42-0.51c0.68,0.88,0.33,2.09-0.48,2.68
			c-2.27,1.65-4.68,3.11-7.03,4.64C93.14-63.1,92.87-63.54,93.11-64.5z"/>
		<path class="st23" d="M298.11,367.72c-0.59,2.09-1.54,2.37-2.89,0.56c-0.76-1.02-1.52-2.03-2.27-3.05
			c-0.01-2.31,0.12-4.59,1.16-6.73c1.13-0.53,1.81,0.13,2.47,0.9c0.47,0.86,0.57,1.79,0.52,2.74c-0.12,1.08-0.19,2.15,0.48,3.11
			C298.04,366.02,298.19,366.85,298.11,367.72z"/>
		<path class="st57" d="M310.11,163.25c2.9-2.58,7.16-2.12,10.17-4.52c0.43-0.34,1.34,0,1.39,0.87c0.06,1-0.7,1.56-1.48,1.7
			c-3.15,0.56-5.72,2.16-8.07,4.22C311.9,164.36,311.38,163.47,310.11,163.25z"/>
		<path class="st51" d="M137.11-66.44c-3.6-1.85-8.54-1.54-11-7.43c4.62,2.49,8.27,4.46,11.91,6.43
			C138.35-66.53,138.14-66.11,137.11-66.44z"/>
		<path class="st58" d="M305.24,163.58c-3.02-0.74-6.05-1.44-9.06-2.23c-0.77-0.2-1.7-0.59-1.3-1.67c0.33-0.9,1.19-1.1,2.04-0.73
			c3.11,1.35,6.67,1.76,9.19,4.36C305.84,163.48,305.55,163.57,305.24,163.58z"/>
		<path class="st59" d="M695.18-80.39c-1.66-2.3-2.05-4.38-2.09-6.54c-0.02-0.99-0.03-2.13,1.31-2.28c1.38-0.16,1.68,0.9,1.63,1.93
			C695.94-85.19,696.6-83.01,695.18-80.39z"/>
		<path class="st60" d="M304.86-84.48c0.47-1.44-1.65-3.9,0.9-3.64c2.64,0.27,1.04,3.63,2.03,5.44c0.56,1.01,0.59,3.26-1.2,2.94
			C303.76-80.26,305.91-83.16,304.86-84.48z"/>
		<path class="st61" d="M886.13,169.51c-0.89-3.95-1.96-7.78-6.82-9.21c3.25,0.22,5.86,1.83,8.81,1.22
			c0.33,0.23,0.44,0.45,0.33,0.68c-0.11,0.23-0.22,0.34-0.33,0.34C884.88,164.12,887.11,167.27,886.13,169.51z"/>
		<path class="st35" d="M295.98,359.51c-0.62-0.33-1.25-0.67-1.87-1c0.17-4.82-0.36-9.69,0.91-14.44c0.53,2.45-0.76,5.15,0.98,7.44
			C298.13,354.18,298.15,356.85,295.98,359.51z"/>
		<path class="st62" d="M861.13,106.5c2.47,3.44,6.31,4.61,10.01,5.99c-0.05,0.61-0.7,0.62-0.99,0.98c-2.37-0.65-4.74-1.3-7.1-1.95
			c-0.67-1.31-1.34-2.62-2.01-3.93c0.03-0.36,0.05-0.72,0.08-1.08L861.13,106.5z"/>
		<path class="st63" d="M888.12,162.53c0-0.34,0-0.68,0-1.02c1.78-0.14,3.65,0.38,5.28-0.83c1.03-0.76,2.48-2.01,3.31-0.29
			c1.15,2.37-1.57,1.24-2.34,1.98c-1.37,1.32-2.97,1.8-4.6,0.28C889.22,162.61,888.67,162.57,888.12,162.53z"/>
		<path class="st64" d="M98.21,357.53c1.38,3.71,1.71,7.39-0.21,11.04C96.45,364.86,98,361.21,98.21,357.53z"/>
		<path class="st65" d="M132.25,368.57c-1.83-3.32-1.61-6.67-0.16-10.05C132.32,361.87,133.72,365.2,132.25,368.57z"/>
		<path class="st66" d="M899.99-73.52c-2.42-1.54-5.12-0.76-7.71-0.99c-1.74-0.15-3.66,0.63-5.14-0.94
			c3.88-0.09,7.76-0.19,11.65-0.28C900.59-75.76,901.29-75.18,899.99-73.52z"/>
		<path class="st67" d="M287.04,425.42c0.09-1.44,0.13-2.89,1.95-4.24c-0.11,3.74,0.89,7.11-0.82,10.39
			C287.7,429.54,288.97,427.19,287.04,425.42z"/>
		<path class="st68" d="M323.1,356.51c-1.51-3.93-0.89-8.01-0.81-12.04C323.85,348.39,322.95,352.48,323.1,356.51z"/>
		<path class="st69" d="M875.03-58.61c0.11,0.81,0.22,1.63,1.04,2.08c-0.49,2.17-0.84,4.4-3.25,7.24
			C874.25-53.12,873.5-56.06,875.03-58.61z"/>
		<path class="st70" d="M90.13,420.52c1.79,2.92-0.24,5.39-0.94,8.02c-0.12-0.75-0.17-1.54-0.99-1.93
			C88.83,424.58,89.48,422.55,90.13,420.52z"/>
		<path class="st71" d="M680.11-66.5c0.35,0.35,0.71,0.71,1.07,1.06c-1.39,1.53-2.78,3.05-4.16,4.58c-0.31-0.24-0.61-0.48-0.92-0.72
			C677.43-63.22,678.77-64.86,680.11-66.5z"/>
		<path class="st72" d="M509.21,369.53c1.4,1.2,0.69,2.94,1.13,4.39c-0.01,1.01,0.41,2.24-1.21,2.47c-0.29-1.64-0.57-3.29-0.86-4.93
			C507.35,370.22,507.5,369.5,509.21,369.53z"/>
		<path class="st73" d="M515.97,369.82c0.7-0.9-0.98-2.86,1.36-3.03c0.7,1.17,0.81,2.58,0.21,3.62
			C516.6,372.02,516.26,370.69,515.97,369.82z"/>
		<path class="st74" d="M93.11-64.5c0.36,0.36,0.71,0.72,1.07,1.08c-1.3,0.95-2.6,1.89-5.04,3.67
			C90.39-62.62,91.64-63.65,93.11-64.5z"/>
		<path class="st75" d="M516.12-62.49c0.35-0.35,0.69-0.7,1.04-1.05c0.99,1.35,1.98,2.7,2.97,4.04c0.39,1.05-0.08,1.22-0.98,0.96
			C518.14-59.86,517.13-61.17,516.12-62.49z"/>
		<path class="st76" d="M484.06-62.58c0.08,0.79,0.17,1.58,0.97,2.02c-0.6,1.3-1.3,2.53-2.72,3.46
			C482.23-59.28,482.93-61,484.06-62.58z"/>
		<path class="st77" d="M497.16-22.52c0.37,0.01,0.74,0.02,1.11,0.04c1.34,1.59,0.96,3.32,0.36,5.82
			C498.02-19.07,497.59-20.79,497.16-22.52z"/>
		<path class="st49" d="M497.14,175.5c1.76-2.02-0.01-5.05,1.99-7.01c0.01,2.36,0.01,4.73,0.02,7.09
			C498.48,175.56,497.81,175.53,497.14,175.5z"/>
		<path class="st69" d="M700.2-23.53c0.62,0,1.23,0,1.85,0c0.01,1.33,0.02,2.66,0.03,4c-0.63,0.62-1.26,0.62-1.9,0
			C700.18-20.86,700.19-22.19,700.2-23.53z"/>
		<path class="st78" d="M120.21-21.58c0.6-0.32,1.21-0.64,1.81-0.97c0.01,1.45,0.52,3-1.2,4.48
			C119.82-19.15,120.17-20.41,120.21-21.58z"/>
		<path class="st23" d="M322.03,344.53c-1.73-2.24-0.6-4.81-0.83-7.23C322.36,339.6,322.11,342.07,322.03,344.53z"/>
		<path class="st79" d="M292.06-56.49c0.36,0,0.72,0,1.07,0c-0.95,1.32-0.68,3.28-2.72,4.67C290.73-53.79,290.79-55.31,292.06-56.49
			z"/>
		<path class="st80" d="M137.11-66.44c0.31-0.33,0.61-0.67,0.92-1c1.23,0.64,2.81,0.78,3.55,2.64
			C139.82-65.02,138.31-65.24,137.11-66.44z"/>
		<path class="st81" d="M700.17-19.53c0.63,0,1.27,0,1.9,0c-0.17,0.95,0.57,2.6-1.18,2.44C699.88-17.18,700.2-18.62,700.17-19.53z"
			/>
		<path class="st82" d="M519.97,363.64c-0.93-0.8-1.3-1.58,0.33-1.82c1.27-0.19,2.58-0.14,3.88-0.2
			C523.22,363.24,520.9,362,519.97,363.64z"/>
		<path class="st31" d="M107.13,593.49c0-1.28,0-2.55,0-5.26c0.99,2.62,1.49,3.94,1.99,5.26
			C108.45,593.5,107.79,593.49,107.13,593.49z"/>
		<path class="st15" d="M492.1,71.47c-0.65,3.34-3.26,1.63-5.08,1.96C488.71,72.78,490.41,72.13,492.1,71.47z"/>
		<path class="st83" d="M519.1,366.64c0.35-0.72,0.69-1.43,1.04-2.15c1,1.09,1.74,2.37,0.45,3.53
			C520.13,368.44,519.34,367.43,519.1,366.64z"/>
		<path class="st84" d="M324.14-50.51c0.35,0.01,0.7,0.02,1.05,0.03c0.96,0.87,1.77,1.81,1.45,3.35
			C324.92-47.7,324.84-49.34,324.14-50.51z"/>
		<path class="st85" d="M141.02,427.5c-1.05-0.74-0.89-1.9-1.02-2.96c-0.25-1.01,0.17-1.28,1.1-1c0.34,1.32,0.69,2.64,1.03,3.96
			C141.76,427.5,141.39,427.5,141.02,427.5z"/>
		<path class="st86" d="M519.15-58.54c0.33-0.32,0.65-0.64,0.98-0.96c0.99,0.82,1.7,1.78,1.62,3.24
			C520.16-56.28,519.73-57.5,519.15-58.54z"/>
		<path class="st87" d="M512.14,374.3c0-1.25,0-2.49,0-4.57c0.82,1.75,1.28,2.75,1.75,3.74
			C514.03,375.28,513.12,374.85,512.14,374.3z"/>
		<path class="st88" d="M875.12,37.51l-0.48,0l-0.48,0c-0.07-2.17-0.1-4.33,0.85-6.35C875.04,33.27,875.08,35.39,875.12,37.51z"/>
		<path class="st42" d="M902.99,40.49c-1.49-1.62-0.68-3.56-0.76-5.37C903.06,36.82,903.12,38.64,902.99,40.49z"/>
		<path class="st89" d="M886.18-21.54c0.29,0.02,0.59,0.03,0.88,0.01c0,1.3,0,2.6,0,3.9c-0.29,0.01-0.59,0.03-0.88,0.04
			C886.18-18.91,886.18-20.22,886.18-21.54z"/>
		<path class="st90" d="M523.13,105.51c0.05,0.38,0.11,0.77,0.16,1.15c-0.39,0.96-0.78,1.92-1.17,2.88c0,0-0.49,0-0.49,0l-0.49-0.02
			l-0.03-0.04c0.36-1.32,0.72-2.64,1.07-3.96C522.49,105.1,522.81,105.11,523.13,105.51z"/>
		<path class="st91" d="M133.47,706.57c-0.97-0.19-2.77-0.49-4.54-0.91c-1.16-0.27-2.99,0.04-2.44-2.15
			c0.49-1.92,1.81-1.41,3.11-0.99c2.24,0.72,4.53,1.29,6.86,0.73c2.11-0.51,4.35-1.13,4.67-3.8c0.36-2.89-1.87-3.55-3.97-4.24
			c-1.89-0.62-3.83-1.14-5.66-1.9c-2.81-1.17-4.73-3.04-4.51-6.42c0.23-3.57,2.52-5.28,5.62-6.12c3.24-0.87,6.2,0.15,9.12,1.57
			c1.42,0.69,2.21,1.37,1.43,3c-0.99,2.06-1.98,0.2-2.7-0.13c-1.98-0.92-3.89-1.89-6.16-1.59c-1.77,0.23-3.34,0.9-3.74,2.75
			c-0.45,2.07,1.15,2.95,2.77,3.54c1.71,0.63,3.48,1.08,5.21,1.66c3.77,1.26,6.73,3.42,6.23,7.83c-0.51,4.49-3.9,6.28-7.96,7.02
			C136.01,706.56,135.17,706.5,133.47,706.57z"/>
		<path class="st92" d="M198.77,692.68c4.51-1.46,5.74-7.56,11.18-5.9c-1.33,3.69-7.19,4.7-6.35,8.69c0.69,3.26,4.02,5.96,6.16,8.93
			c0.38,0.52,0.65,1.12,1,1.73c-5.06,1.84-5.61-2.77-7.77-5.05c-1.06-1.12-1.32-3.75-3.21-3.17c-1.78,0.55-0.73,2.89-1.06,4.42
			c-0.33,1.5,1.29,4.24-1.88,4.11c-3-0.12-1.58-2.77-1.62-4.24c-0.16-6.32-0.08-12.64-0.05-18.96c0.01-1.24-0.41-2.78,1.77-2.74
			c2.1,0.04,1.79,1.52,1.8,2.8C198.79,686.28,198.77,689.27,198.77,692.68z"/>
		<path class="st91" d="M175.52,696.31c0.07,6.22-3.47,10.24-8.98,10.2c-5.3-0.05-8.81-3.93-8.88-9.84
			c-0.07-6.17,3.52-10.23,9.03-10.19C172,686.51,175.45,690.35,175.52,696.31z"/>
		<path class="st93" d="M188.46,703.37c1.4-0.43,2.87-1.5,3.39,0.6c0.6,2.4-1.64,2.16-2.83,2.38c-3.89,0.69-7.39-0.33-9.48-3.86
			c-2.36-4-2.34-8.28,0.17-12.23c2.23-3.5,5.77-4.26,9.62-3.53c1.09,0.21,3.01,0.06,2.58,2.14c-0.41,1.95-1.72,1.33-3.09,0.97
			c-2.68-0.7-5.03,0.13-6.41,2.54c-1.59,2.79-1.45,5.77,0.21,8.52C183.99,703.17,186.19,703.68,188.46,703.37z"/>
		<path class="st94" d="M113.12,696.41c0.09,5.81-3.43,9.93-8.63,10.13c-5.49,0.21-9.31-3.82-9.36-9.88
			c-0.05-5.82,3.48-9.97,8.63-10.16C109.19,686.29,113.03,690.36,113.12,696.41z"/>
		<path class="st95" d="M147.89,691.25c0-2.66-0.03-5.32,0.01-7.98c0.02-1.23-0.42-2.82,1.77-2.76c1.87,0.05,1.55,1.42,1.5,2.48
			c-0.11,2.19-0.06,4.05,3.01,3.56c0.83-0.13,1.64,0.2,1.69,1.31c0.07,1.41-0.91,1.73-1.95,1.6c-2.78-0.37-3.03,1.28-2.72,3.29
			c0.6,4-2.32,9.41,4.4,11.05c0.81,0.2,0.06,1.13-0.15,1.68c-0.36,0.94-1.14,1.12-2.03,0.91c-3.26-0.77-5.35-2.65-5.47-6.16
			c-0.09-2.99-0.02-5.99-0.02-8.98C147.93,691.25,147.91,691.25,147.89,691.25z"/>
		<path class="st96" d="M65.36,691.06c2.16,6.39,2.09,6.49-4.06,6.5c-0.99,0-2.04-0.2-2.97,0.04c-1.71,0.45-4.69-1.43-4.96,1.22
			c-0.3,2.98,1.95,5.31,5.16,5.64c2.34,0.24,4.75-0.16,7.15,0.32c-3.59,2.04-7.32,2.55-10.98,0.13c-3.89-2.58-4.77-7.79-2.53-13.39
			c0.86-0.28,1.27,0.25,1.62,0.88c3.11,2.71,6.12,2.64,9.81-0.25C64.07,691.6,64.62,691.17,65.36,691.06z"/>
		<path class="st97" d="M46.35,696.89c-0.79,2.53-1.55,5.06-2.38,7.57c-0.37,1.12-0.82,2.09-2.36,2.09c-1.68,0-1.79-1.3-2.14-2.29
			c-2.78-7.75-5.5-15.52-7.51-23.59c4.69,6.88,6.16,15.18,9.66,22.81c2.2-2.25,2.06-5.5,3.58-7.96
			C46.27,695.4,46.71,695.81,46.35,696.89z"/>
		<path class="st98" d="M93.88,706.47c-3.83-0.38-5.44-1.8-5.87-4.25c-1.25-7.15-0.4-14.3-0.66-22.53c3.4,2.46,0.03,8.44,6.6,6.81
			C87.96,690.53,87.87,700.84,93.88,706.47z"/>
		<path class="st99" d="M936.98,697.49c-0.26,1.25,0.65,2.14,0.96,3.21c0.53,1.84-0.34,3.2-1.89,4.14
			c-1.72,1.04-3.46,0.96-5.12-0.13c-1.54-1.01-2.37-2.63-1.64-4.25c0.82-1.82,0.85-3.51,1-5.43c0.28-3.53,2.65-4.65,5.9-2.56
			c-0.1,0.67-0.49,1.16-1,1.57c-2.01,1.59-0.3,2.02,0.84,2.62C936.4,696.88,936.71,697.16,936.98,697.49z"/>
		<path class="st100" d="M803.5,693.37c-1.38,1.13-2.2,0-3.15,0.08c-1.18,0.09-2.46-0.07-2.97,1.26c-0.6,1.55,0.86,1.9,1.76,2.51
			c0.27,0.18,0.63,0.21,0.93,0.36c2.41,1.21,5.18,2.34,3.44,5.85c-1.38,2.78-4.7,2.75-8.24,0.11c0.17-0.27,0.36-0.76,0.52-0.75
			c1.99,0.12,4.69,2.24,5.76-0.36c1.24-3-2.46-2.72-3.99-3.81c-1.98-1.42-3.35-2.86-1.76-5.3
			C797.35,690.91,800.05,690.91,803.5,693.37z"/>
		<path class="st101" d="M898.17,699.31c-2.4-1.26-2.52-3.31-1.6-5.43c0.79-1.83,2.4-2.75,4.45-2.3c2.4,0.53,3.52,2.32,3.98,4.56
			c1.16,5.69-2.58,9.83-8.18,8.6c1.68-2.01,6.68-0.71,5.3-5.28c-0.34-0.31-0.55-0.69-0.63-1.14c-0.2-0.88,0.38-2.36-0.75-2.5
			c-1.28-0.16-0.84,1.4-1.15,2.23C899.39,698.79,898.87,699.16,898.17,699.31z"/>
		<path class="st102" d="M924.45,704.66c-2.32,1.64-4.63,1.22-6.02-0.97c-2.1-3.31-2.07-7.06,0.01-10.37
			c1.4-2.22,3.71-2.54,6.04-0.98c-0.14,0.74-0.58,1.27-1.15,1.72c-3.98,3.55-3.98,5.29-0.01,8.89
			C923.89,703.39,924.32,703.93,924.45,704.66z"/>
		<path class="st103" d="M119.12,690.5c-2.21,3.34-0.59,7.08-1.08,10.59c-0.25,1.78,0.55,3.78-1.26,5.31
			c-0.28-6.61-1.9-13.18,0.31-19.72C117.24,688.23,119.26,688.79,119.12,690.5z"/>
		<path class="st104" d="M943.91,704.62c-3.96-2.59-3.31-6.14-1.7-9.59c1.53-3.28,4.28-4.2,8.4-2.85c-2.34,2.14-7.46,0.36-6.44,5.31
			c0.1,0.79,0.12,1.59,0.14,2.39c0.01,1.48,1.13,2.67,1.09,4.16C945.09,704.68,944.67,705.07,943.91,704.62z"/>
		<path class="st105" d="M955.82,699.38c0.91-1.59,3.93-2.04,2.88-4.62c-0.69-1.7-2.39-1.53-3.88-0.9
			c-0.73,0.31-1.34,1.04-2.39,0.19c1.05-2.26,2.91-2.86,5.17-2.49c1.78,0.29,3.17,1.35,3.41,3.17c0.39,2.95-1.59,4.48-3.91,5.66
			C956.62,700.13,956,700.04,955.82,699.38z"/>
		<path class="st106" d="M810.54,704.85c-4.61-0.52-6.21-6.09-3.56-11.05c1.41,1.57,3.45,2.26,1.32,5.17
			C807.23,700.43,807.46,703.54,810.54,704.85z"/>
		<path class="st107" d="M837.07,700.53c-2.32,0.93,0.19,3.86-2.49,5.25c0-4.95,0-9.52,0-14.45c2.76,2.09,0.87,4.93,1.54,7.18
			c0.58,0.7,2.09,0.3,2.07,1.62C838.19,700.59,837.58,700.74,837.07,700.53z"/>
		<path class="st108" d="M770.67,694c3.03,1.32,2.53,2.93,1.52,5.2c-0.95,2.13,0.19,4.26,2.76,6.12
			C770.02,704.32,768.46,699.39,770.67,694z"/>
		<path class="st109" d="M754.12,695.73c2.02,0.55,3.3,2.05,2.8,3.93c-0.47,1.79-2.53,0.62-3.85,0.93
			c-1.09,0.25-2.86-0.77-2.78,1.56c0.55,1.13-0.08,1.36-1.03,1.34c-1.66-2.6-2.18-5.03,1.01-6.92c0.72-0.39,1.09,0.1,1.46,0.58
			c0.52,0.61,1.04,0.84,1.54-0.05C753.44,696.56,753.66,696.06,754.12,695.73z"/>
		<path class="st110" d="M969.56,696.35c3.64,2.25,3.41,5.26,0.85,7.85c-2.26,2.28-4.92,1.95-7.35-1.1c2.43-0.8,5,1.99,6.52-1.01
			c1.05-2.05,0.16-3.48-1.44-4.71C968.08,696.3,968.54,695.95,969.56,696.35z"/>
		<path class="st111" d="M742.19,703.69c-1.32,1.15-2.37,1.84-3.1-0.65c-1.1-3.75-2.46-7.42-3.74-11.21
			c2.64-0.67,2.21,1.44,2.94,2.51c1.46,2.15,0.19,5.76,3.65,6.8C742.78,701.92,742.7,702.79,742.19,703.69z"/>
		<path class="st112" d="M969.56,696.35c-0.47,0.34-0.94,0.69-1.41,1.03c-1.61-0.17-3.28,0.67-4.84-0.22
			c-0.22-5.85,2.97-6.68,7.73-5.25c-0.59,3-4.21-0.02-5.04,2.55C966.52,696.31,968.85,694.85,969.56,696.35z"/>
		<path class="st113" d="M955.82,699.38c0.43,0.34,0.85,0.67,1.28,1.01c-0.74,0.98-2.25,1.3-2.49,2.86c2.33,1.16,5.12-0.36,7.3,1.66
			c-3.26,0.26-7.09,2.21-9.49-0.46C951.01,702.88,953.66,700.48,955.82,699.38z"/>
		<path class="st114" d="M814.77,696.33c3.45-2.04,5.95-0.5,6.95,2.69c1.12,3.59-0.59,6.04-4.61,6.35
			c-0.87-0.48-1.62-1.01-0.97-2.18c2.73-1.84,3.09-3.58-0.22-5.17C815.33,697.6,814.9,697.07,814.77,696.33z"/>
		<path class="st115" d="M923.13,693.39c0.45-0.35,0.9-0.7,1.35-1.06c3.74,4.25,3.73,8.2-0.02,12.32c-0.44-0.34-0.88-0.69-1.32-1.03
			C923.77,700.22,923.77,696.81,923.13,693.39z"/>
		<path class="st116" d="M880.01,697.2c4.06-2.56,5.77-1.89,5.97,2.56c0.08,1.85,0.71,3.89-0.83,6c-1.84-1.71-0.92-3.77-1-5.48
			c-0.18-3.71-1.7-3.38-3.93-1.55C879.74,698.27,879.68,697.76,880.01,697.2z"/>
		<path class="st113" d="M861.8,696.35c3.68-2.14,6.08-0.26,7.03,3.01c0.74,2.52,0.18,5.35-3.69,5.21c-0.29-0.38-0.4-0.8-0.34-1.27
			c1.18-2.39,0.81-4.24-1.86-5.28C862.36,697.6,861.92,697.08,861.8,696.35z"/>
		<path class="st117" d="M880.01,697.2c0.07,0.51,0.13,1.02,0.2,1.52c-0.43,2.21,0.35,4.65-0.82,7.13c-3.16-2.55,1.58-8.1-4.27-8.7
			c-0.36-0.17-0.49-0.36-0.41-0.59c0.09-0.24,0.18-0.36,0.29-0.36C877.08,694.5,878.49,696.11,880.01,697.2z"/>
		<path class="st118" d="M875,696.2c0.08,0.31,0.13,0.63,0.13,0.95c-3.18,1.95-1.34,5.71-2.95,9.36c-1.76-4.03-1.35-7.3-0.8-10.26
			C871.74,694.3,873.74,697.46,875,696.2z"/>
		<path class="st119" d="M47.08,690.41c1-3.49,1.69-7.13,4.39-9.89c-0.19,4.29-1.97,8.08-3.44,11.96
			C46.17,692.51,46.6,691.47,47.08,690.41z"/>
		<path class="st120" d="M782.14,696.69c3.32-0.94,3.82,1.64,3.84,3.67c0.02,2.92-1.5,5.04-4.88,5.01
			c-0.86-0.47-1.61-0.98-0.99-2.13c2.1-1.26,3.05-2.9,1.75-5.29C781.75,697.48,781.84,697.06,782.14,696.69z"/>
		<path class="st121" d="M742.19,703.69c-0.08-0.85-0.16-1.7-0.24-2.55c0.88-3.43,1.63-6.91,4.29-9.54
			C745.31,695.81,744.75,700.1,742.19,703.69z"/>
		<path class="st122" d="M73.25,689.6c2.07-3.89,5.65-4.35,10.96-0.83c-4.18-0.19-7.73-0.61-11.07,0.72L73.25,689.6z"/>
		<path class="st123" d="M943.18,699.64c-0.01-0.88,0.05-1.72,1-2.16c2.1-1.1,4.11-0.88,5.68,0.86c1.39,1.54,1.92,3.36,0.26,5.17
			c-0.83,0.38-1.27-0.15-1.68-0.73C947.79,699.89,945.33,700.03,943.18,699.64z"/>
		<path class="st124" d="M816.11,703.74c0.33,0.55,0.66,1.09,0.99,1.64c-2.8,0.2-4.32-1.49-4.86-3.86
			c-0.49-2.17,0.06-4.25,2.53-5.18c0.45,0.31,0.9,0.63,1.35,0.94C815.65,699.43,815.65,701.58,816.11,703.74z"/>
		<path class="st125" d="M910.92,699.44c0.72-1.97,1.45-3.94,2.17-5.91c-1.79-1.42-4.12,0.3-5.93-1.02c1.96-2.15,4.48-0.8,6.72-0.98
			c1.76-0.14,1.63,1.57,1.1,2.48c-1.04,1.79-0.86,4.21-2.82,5.51C911.72,699.85,911.31,699.83,910.92,699.44z"/>
		<path class="st126" d="M53.28,692.81c-0.37-0.43-0.74-0.86-1.11-1.29c2.97-5.12,4.91-5.9,10.05-4.04
			c-0.44,0.89-1.24,1.33-2.09,1.71C57.31,689.39,55.77,692,53.28,692.81z"/>
		<path class="st127" d="M74.22,704.28c3.22,0,6.45,0,10.89,0c-4.26,3.07-7.57,2.75-10.98,1.23
			C73.67,705.06,73.71,704.65,74.22,704.28z"/>
		<path class="st128" d="M837.07,700.53c1.21-1.39-1.29-1.04-0.95-2.03c1.17,0.29,1.75-0.47,2.41-1.24
			c0.42-0.48,0.56-1.72,1.72-0.94c1.17,0.79,0.22,1.49-0.23,1.94c-2.37,2.39,1.85,3.81,0.83,6.15
			C838.26,704.33,838.47,701.61,837.07,700.53z"/>
		<path class="st129" d="M791.37,697.59c-2.11,2.24-0.66,5.36-2.25,8.94c-1.65-3.88-0.9-6.98-0.87-9.98
			C789.49,696.28,790.48,696.79,791.37,697.59z"/>
		<path class="st96" d="M828.08,697.39c-2.82,2.1-2.61,4.19,0.01,6.28c0.06,1-0.3,1.43-1.31,0.98c-3.75-3.36-3.75-4.86,0-8.38
			C827.83,695.93,828.21,696.36,828.08,697.39z"/>
		<path class="st130" d="M851.74,704.66c-3.93-2.81-3.73-5.61,0.04-8.39c1.05-0.34,1.43,0.09,1.3,1.12c-2.8,2.1-2.62,4.19,0.01,6.28
			C853.16,704.7,852.74,705.08,851.74,704.66z"/>
		<path class="st131" d="M761.78,704.65c-3.75-3.38-3.75-4.89,0.03-8.34c1.06-0.39,1.4,0.06,1.28,1.08c-2.83,2.1-2.62,4.2,0.01,6.3
			C763.15,704.68,762.78,705.09,761.78,704.65z"/>
		<path class="st132" d="M74.22,704.28c-0.03,0.41-0.07,0.82-0.1,1.23c-2.49-1.12-3.68-3.16-4.09-5.76c-0.63-2.16-0.63-4.32,0-6.48
			c-0.13-0.28-0.08-0.53,0.15-0.75c2.08,0.07,1.2,1.44,1.08,2.48C71.17,698.43,71.95,701.59,74.22,704.28z"/>
		<path class="st133" d="M780.11,703.76c0.33,0.54,0.66,1.07,0.99,1.61c-5.09-1.39-5.89-3-3.85-7.82c0.87-0.29,1.26,0.26,1.62,0.89
			C779.34,700.2,780.02,701.91,780.11,703.76z"/>
		<path class="st134" d="M119.12,690.5c-1.07-1.06-2.4-1.99-2.03-3.82c1.12,0.41,1.6,2.78,3.5,0.89c0.74-0.74,2.55-2,3.23-0.26
			c0.72,1.84-1.8,1.15-2.6,2.03C120.71,689.9,119.83,690.13,119.12,690.5z"/>
		<path class="st130" d="M861.8,696.35c0.44,0.3,0.88,0.6,1.31,0.9c-0.08,1.85-0.78,3.55-1.23,5.31c-0.35,0.64-0.76,1.18-1.62,0.91
			C858.3,700.56,858.56,698.13,861.8,696.35z"/>
		<path class="st135" d="M749.26,703.48c0.34-0.45,0.68-0.89,1.03-1.34c1.5,1.93,3.76,1.28,6.36,1.43
			C753.63,706.11,751.38,706.19,749.26,703.48z"/>
		<path class="st136" d="M828.08,697.39c-0.43-0.37-0.87-0.75-1.3-1.12c2.17-1.49,4.09-1.26,6.04,0.7
			C831.13,698.54,829.54,697.01,828.08,697.39z"/>
		<path class="st137" d="M949.01,702.26c0.37,0.41,0.74,0.83,1.12,1.24c-1.69,2.53-3.78,2.74-6.21,1.11c0.4-0.35,0.8-0.7,1.2-1.05
			C946.12,702.28,947.44,701.91,949.01,702.26z"/>
		<path class="st138" d="M215.1,688.5c-0.66-0.66-1.31-1.32-1.97-1.98c-0.89-1.34-1.11-2.69,0-4.03c0-0.32-0.01-0.64-0.02-0.96
			c2.63,0.03,2.18,2.74,3.47,3.96C216.94,686.91,216.45,687.92,215.1,688.5z"/>
		<path class="st139" d="M853.08,697.39c-0.43-0.37-0.87-0.75-1.3-1.12c2.16-1.46,4.09-1.27,6.13,0.78
			C856.12,698.37,854.55,697.1,853.08,697.39z"/>
		<path class="st140" d="M215.1,688.5c0.33-1.03,0.66-2.06,0.99-3.09c-0.57-0.63-0.54-1.3-0.12-2c0.46-0.23,0.94-0.27,1.43-0.11
			c0.92,0.57,1.42,1.42,1.62,2.46c0.14,1.08-0.14,2.02-0.95,2.77C217.07,689.16,216.08,689.1,215.1,688.5z"/>
		<path class="st141" d="M60.14,688.31c0.69-0.28,1.39-0.56,2.08-0.84c1.76,0.57,2.79,1.78,3.14,3.59
			c-0.36,0.48-0.72,0.96-1.08,1.44C62.19,691.8,61.14,690.08,60.14,688.31z"/>
		<path class="st142" d="M763.09,697.39c-0.43-0.36-0.85-0.72-1.28-1.08c2.14-1.58,4.02-1.2,5.92,0.7
			C766.09,698.41,764.53,697.01,763.09,697.39z"/>
		<path class="st143" d="M47.08,690.41c0.13,0.78,0.1,1.63,0.96,2.07c-0.32,1.56-0.61,3.14-1.69,4.41
			c-0.38-0.45-0.77-0.91-1.15-1.36C45.5,693.71,46.01,691.96,47.08,690.41z"/>
		<path class="st144" d="M935.14,693.38c0.35-0.3,0.7-0.6,1.06-0.91c2.31,1.35,2.29,3.07,0.78,5.01c-0.41-0.04-0.81-0.08-1.22-0.11
			C934.85,696.15,934.91,694.78,935.14,693.38z"/>
		<path class="st145" d="M216.13,683.53c-0.01,0.63-0.03,1.25-0.04,1.87c-2.86,0.14-1.09-3.27-2.98-3.87
			c0.4-0.73,0.79-1.46,1.19-2.2c0.4-0.19,0.78-0.16,1.13,0.11c0.24,0.34,0.41,0.71,0.52,1.1
			C216.19,681.53,216.24,682.53,216.13,683.53z"/>
		<path class="st146" d="M860.27,703.46c0.34-0.4,0.67-0.81,1.01-1.21c1.58-0.31,2.93-0.01,3.87,1.43c0.02,0.29,0.02,0.59-0.01,0.88
			C863.02,706.39,861.58,705.21,860.27,703.46z"/>
		<path class="st147" d="M761.78,704.65c0.44-0.32,0.88-0.65,1.31-0.97c1.27,0,2.55,0,4.3,0
			C765.48,706.12,763.71,705.96,761.78,704.65z"/>
		<path class="st148" d="M826.78,704.65c0.44-0.33,0.87-0.65,1.31-0.98c1.27,0,2.53,0,4.36,0
			C830.44,706.09,828.69,705.98,826.78,704.65z"/>
		<path class="st148" d="M851.74,704.66c0.45-0.33,0.9-0.66,1.35-0.99c1.27,0,2.55,0,4.39,0
			C855.45,706.08,853.68,705.96,851.74,704.66z"/>
		<path class="st149" d="M71.26,695c-0.13-0.93-0.16-1.89-1.08-2.48c0.32-1.71,0.8-3.25,3.06-2.92c0,0-0.11-0.11-0.11-0.11
			C72.51,691.33,71.89,693.16,71.26,695z"/>
		<path class="st150" d="M890.5,703.41c-1.92-2.84-0.14-4.26,0.22-7.26C892.55,699.47,891.06,700.94,890.5,703.41z"/>
		<path class="st151" d="M791.37,697.59c-1.04-0.35-2.08-0.7-3.12-1.05c0.99-2.25,3.1,0.63,4.3-0.92c0.11-0.14,0.88,0.23,0.71,0.9
			C793,697.55,792.18,697.56,791.37,697.59z"/>
		<path class="st152" d="M218.06,688.53c0-1.08,0.01-2.16,0.01-3.24c0.93-0.76,1.91-0.69,2.92-0.18c0.48,0.39,0.53,0.84,0.15,1.32
			C220.68,687.95,219.57,688.53,218.06,688.53z"/>
		<path class="st153" d="M892.45,697.4c-2.03-2.73-0.02-3.91-0.33-6.61C894.54,693.88,892.91,695.13,892.45,697.4z"/>
		<path class="st154" d="M910.92,699.44c0.41,0.03,0.83,0.06,1.24,0.08c-0.18,1.61-0.68,3.08-1.9,4.22
			c-0.68-0.11-0.75-0.71-0.96-1.19C909.56,701.37,909.87,700.21,910.92,699.44z"/>
		<path class="st149" d="M907.16,692.51c1.97,0.06,3.94,0.11,5.91,0.19c0.08,0,0.22,0.25,0.22,0.38c0,0.15-0.12,0.3-0.2,0.45
			C911.17,692.83,908.9,694.23,907.16,692.51z"/>
		<path class="st155" d="M751.09,697.39c-0.27-0.27-0.55-0.55-0.82-0.82c1.01-1.52,2.43-1.2,3.85-0.84c0,0.59,0,1.19,0,1.78
			C753.08,698.35,752.07,698.38,751.09,697.39z"/>
		<path class="st156" d="M778.27,698.76c-0.34-0.4-0.68-0.81-1.02-1.21c1.17-2.91,3.2-0.93,4.89-0.86c0,0.21,0,0.43,0,0.64
			C781.2,698.77,779.85,699.08,778.27,698.76z"/>
		<path class="st157" d="M213.13,682.49c0,1.34,0,2.69,0,4.03C211.23,685.18,209.56,683.84,213.13,682.49z"/>
		<path class="st149" d="M70.04,693.27c0,2.16,0,4.32,0,6.48C68.93,697.59,68.93,695.43,70.04,693.27z"/>
		<path class="st158" d="M898.17,699.31c0.37-0.29,0.74-0.59,1.12-0.88c0.93-0.8,1.87-0.83,2.82-0.03c0.01,0.36,0.01,0.71,0.02,1.07
			C900.77,700.14,899.44,700.43,898.17,699.31z"/>
		<path class="st159" d="M221.14,686.43c0.05-0.33,0.01-0.65-0.14-0.95c-0.87-1.14-1.03-2.35-0.37-3.64
			c0.35-0.52,0.77-0.59,1.28-0.23C221.93,683.26,222.95,685.07,221.14,686.43z"/>
		<path class="st160" d="M221.91,681.61c-0.28,0.02-0.55-0.02-0.82-0.11c-0.93,0.61-1.52-0.02-2.13-0.57
			c-0.23-0.35-0.37-0.73-0.42-1.15c0.04-0.42,0.21-0.79,0.5-1.09C220.54,679.14,221.51,680.09,221.91,681.61z"/>
		<path class="st161" d="M909.3,702.55c0.32,0.4,0.64,0.8,0.96,1.19c-0.08,1.04-0.64,2.23-1.63,1.54
			C907.32,704.38,909.06,703.49,909.3,702.55z"/>
		<path class="st162" d="M219.04,678.7c-0.01,0.27,0.02,0.53,0.08,0.78c-1.27,1.07-2.59,1.19-3.95,0.17
			c-0.27-0.17-0.56-0.27-0.87-0.31C215.7,677.82,217.42,678.62,219.04,678.7z"/>
		<path class="st163" d="M81.28,126.33c1.85-9.1,0.17-18.36,0.97-27.7c1.5,1.01,0.82,2.32,0.84,3.38c0.12,8.64,1.12,9.61,9.88,10.52
			c6.05,0.63,12.05,1.78,18.97-0.39c-2.71,2.32-2.71,2.36-4.09,2.38c-7.29,0.12-14.61,0.28-21.68-1.91
			c-2.51-0.78-3.17-0.02-3.09,2.48C83.22,118.87,83.44,122.71,81.28,126.33z"/>
		<path class="st164" d="M145.14,111.53c-8.51,4.24-17.37,3.06-26.23,1.91c8.88,1.59,17.46-1.46,26.2-1.95L145.14,111.53z"/>
		<path class="st165" d="M145.11,111.49c3.45-3.75,1.31-8.53,2.51-12.76c1.02,9.13-0.37,18.38,1.34,27.48
			c-2.18-3.19-1.73-6.81-1.88-10.34c-0.07-1.64,0.83-3.86-1.94-4.34C145.14,111.53,145.11,111.49,145.11,111.49z"/>
		<path class="st166" d="M113.53,88.2c-5.31-3.77-11.71-4.42-17.49-7.03C102.17,80.56,113.12,84.85,113.53,88.2z"/>
		<path class="st167" d="M135.11,80.49c-6.32,3.55-12.99,3.55-18.05,7.47C116.83,85.07,123.54,82.16,135.11,80.49z"/>
		<path class="st15" d="M900.95,51.16c-1.47,3.04,0.38,7.38-3.69,9.39c-5.19,5.54-11.07,4.92-17.21,1.93
			c-2.29-3.32-4.09-6.83-4.08-11c-0.35-4.64-0.93-9.29,0.32-13.9c4.31-2.31,9.02-4.04,11.9-9.26c3.16,4.16,6.66,7.01,10.94,8.75
			c1.78,0.72,1.75,2.18,1.75,3.69C900.9,44.23,900.93,47.69,900.95,51.16z"/>
		<path class="st168" d="M870.15,113.48c0.33-0.33,0.66-0.66,0.99-0.98c5.14-0.28,10.38,0.86,15.48-0.46
			C881.38,114.53,875.65,113.1,870.15,113.48z"/>
		<path class="st169" d="M880.15,82.48c5.8,0.18,5.8,0.18,6.96,4.78c-2.63-3.27-5.6-4.05-8.92-3.79
			C878.07,81.6,879.06,81.94,880.15,82.48z"/>
		<path class="st170" d="M861.12,106.51c-1.94-2.41-3.44-5.02-3.99-9.2c3.01,3.14,3.65,6.11,4.01,9.19
			C861.13,106.5,861.12,106.51,861.12,106.51z"/>
		<path class="st171" d="M898.09,83.47c-2.95-0.11-5.81,0.1-8.05,2.57c1.09-4.01,4.22-3.49,7.07-3.56
			C898.16,82.1,898.33,82.58,898.09,83.47z"/>
		<path class="st172" d="M880.15,82.48c-0.79,0.06-1.55,0.18-1.97,0.99c-1.86-1.27-4.57-0.42-6.47-2.78
			C874.88,80.8,877.6,81.18,880.15,82.48z"/>
		<path class="st173" d="M915.13,106.52c0.51-2.72,1.94-4.98,3.64-7.1c-0.67,2.64-0.61,5.66-3.65,7.09
			C915.11,106.5,915.13,106.52,915.13,106.52z"/>
		<path class="st174" d="M898.09,83.47c-0.33-0.33-0.65-0.66-0.98-0.99c2-1.68,4.67-0.69,6.93-1.62
			C902.43,82.6,900.26,83.02,898.09,83.47z"/>
		<path class="st175" d="M874.16,68.25c0.24-1.24-0.43-2.62,0.74-4c0.14,1.35,0.25,2.45,0.36,3.55
			C875.04,68.3,874.77,68.68,874.16,68.25z"/>
		<path class="st176" d="M284.65,109.21c-1.01,1.68-0.59,3.93-2.55,5.66c0.08-7.64,1.59-14.81,2.02-22.12c0,2.77,0,5.54,0,8.31
			c0.01,6.59,1.64,8.5,8.03,9.49c1.45,0.22,2.88,0.51,4.23,1.76C291.9,112.84,288,112.25,284.65,109.21z"/>
		<path class="st177" d="M333.18,108.63c-4.33,3.42-8.52,4.17-13.55,3.2c14.09,0.8,14.43-8.25,14.35-18.02c0,7.22,0,14.44,0,21.66
			c-0.27,0-0.54,0-0.8,0.01C333.18,113.54,333.18,111.6,333.18,108.63z"/>
		<path class="st178" d="M294.08,80.83c4.36,0.64,8.84,0.88,12.54,3.79C302.11,84.48,298.12,82.56,294.08,80.83z"/>
		<path class="st179" d="M310.51,83.9c3.62-1.74,7.51-2.55,11.7-2.51c-3.82,1.32-7.63,2.65-11.45,3.97
			C310.67,84.87,310.59,84.39,310.51,83.9z"/>
		<path class="st180" d="M504.09,84.7c3.37-3.35,7.65-4.11,11.74-5.41c0.14,0.41,0.28,0.82,0.43,1.22
			C512.2,81.9,508.15,83.3,504.09,84.7z"/>
		<path class="st181" d="M499.41,84.26c-3.33-0.2-6.32-1.61-9.08-3.87c3.12,0.87,6.24,1.73,9.36,2.6
			C499.59,83.41,499.5,83.84,499.41,84.26z"/>
		<path class="st179" d="M521.13,109.53c-4.22,3.73-9.18,1.27-13.82,1.51c4.62-0.33,9.22-0.81,13.79-1.54
			C521.1,109.49,521.13,109.53,521.13,109.53z"/>
		<path class="st182" d="M523.13,105.51c-0.32,0-0.64,0.01-0.95,0.02c0.79-2.31,1.57-4.63,2.55-7.51
			C525.51,101.18,524.62,103.41,523.13,105.51z"/>
		<path class="st183" d="M714.13,97.51c-0.27,2.26,0.47,4.53-0.78,6.79c-3.73,6.75-5.23,7.36-16.72,5.69
			c4.63-1.35,9.96,1.27,13.02-2.78c2.43-3.24,3.36-7.47,3.49-11.68C715.01,95.42,714.72,96.4,714.13,97.51z"/>
		<path class="st184" d="M684.14,110.48c-6.68-1.07-8.7-4.95-7.62-15.48c1.55,5.79,1.12,12.06,7.61,14.49
			c0.35,0.22,0.46,0.44,0.35,0.66C684.37,110.37,684.25,110.48,684.14,110.48z"/>
		<path class="st167" d="M696.31,84.14c3.09-3.82,7.86-3.04,11.88-4.31C704.91,83.1,700.2,82.5,696.31,84.14z"/>
		<path class="st185" d="M693.88,84.32c-3.77-1.76-8.32-1.33-11.62-4.38C686.08,81.55,690.94,80.27,693.88,84.32z"/>
		<path class="st186" d="M684.14,110.48c-0.01-0.33-0.01-0.66-0.01-1c2.94,0,5.87,0,8.81,0c0.01,0.33,0.01,0.66,0.02,1
			C690.01,110.48,687.07,110.48,684.14,110.48z"/>
		<path class="st187" d="M714.13,97.51c-0.05-0.8-0.19-1.56-0.99-1.98c0.27-0.75-0.4-2.64,0.89-2.05
			C715.75,94.26,715.5,96.11,714.13,97.51z"/>
		<path class="st68" d="M295.98,359.51c0.01-2.67,0.01-5.34,0.02-8.01c4.45-3.85,9.75-6.85,12.2-13.57
			c3.44,5.34,6.29,10.05,11.77,11.97c1.47,7.05,1.88,13.9-3.67,19.64c-4.75,4.76-9.9,3.19-15.1,0.96c-1.03-0.93-2.07-1.86-3.1-2.79
			c-0.34-0.74-0.69-1.47-1.03-2.21c-1.11-0.83-0.3-2.19-0.86-3.17C296.14,361.4,296.06,360.45,295.98,359.51z"/>
		<path class="st19" d="M289.11,405.66c4.45-0.94,8.03,0.76,11.25,3.66c1.04,0.93,1.76,2.54,3.63,2.02
			c-0.84,2.03,2.45,1.18,2.02,2.92c-1.41,0.29-2.85,0.08-4.04,1.47c-2.85,3.33-6.43,4.7-10.68,2.71c-4.17-1.96-5.59-5.44-5.14-9.85
			C286.98,407.44,287.29,405.78,289.11,405.66z"/>
		<path class="st29" d="M314.11,412.33c3.33-4.19,6.99-7.75,13.01-6.78c1.16,0.42,2.48,0.61,2.95,2.03
			c1.82,4.39,0.06,7.91-3.35,10.32c-3.43,2.42-7.27,1.94-10.51-0.84c-1.51-1.29-2.71-2.92-4.97-2.83
			C311.16,412.04,313.43,413.39,314.11,412.33z"/>
		<path class="st188" d="M314.11,412.33c-0.41,1.46-2.16,0.9-2.87,1.9c-1.74,0.01-3.48,0.01-5.22,0.02
			c-0.75-0.92-3.24-0.64-2.02-2.92C307.01,408.35,311.67,408.81,314.11,412.33z"/>
		<path class="st172" d="M289.11,405.66c-0.99,0.97-1.97,1.95-2.96,2.92c2.14-4.83,3.89-9.75,2.87-15.81
			c3.96,2.62-0.21,7.5,4.23,9.01C292.44,403.68,289.56,403.4,289.11,405.66z"/>
		<path class="st189" d="M330.07,407.58c-0.98-0.68-1.97-1.35-2.95-2.03c-0.64-4.52-4.86-2-7.05-3.53c5.75-2.42,5.75-2.42,6.72-7.54
			C326.6,399.18,329.32,403.12,330.07,407.58z"/>
		<path class="st190" d="M318.87,387.76c-3.02,1.4-5.39,2.55-8.18,1.98C312.98,388.23,315.37,387.16,318.87,387.76z"/>
		<path class="st191" d="M298.21,387.73c3.42-0.41,5.37,0.87,7.43,1.77C303.16,390.02,301.13,389.02,298.21,387.73z"/>
		<path class="st192" d="M880.12,380.5c1.62-7.99-2.45-15.13-3.51-22.73c-0.79-5.69-1.56-10.71,5.17-13.53
			c2.91-1.22,4.41-4.35,6.56-7.57c2.68,4.5,6.26,7.67,10.65,9.89c0.8,0.4,1.13,1.21,1.11,2.08c-0.23,7.16,1.65,14.72-3.97,20.86
			c-4.36,3.78-8.93,5.73-14.13,1.31C879.89,374.01,882.53,377.74,880.12,380.5z"/>
		<path class="st193" d="M881.31,416.63c-0.41-0.33-2.1-0.14-0.92-1.13c1.4-1.17,1.81-2.42,1.73-4.05c4-1.18,8-1.5,12.01,0.01
			c0.64,1.76,1.29,3.52,1.93,5.28c-3.01,0.84-6.05,0.74-9.11,0.38c-1.64-0.41-3.39,0.24-5-0.5l-0.32,0.05L881.31,416.63z"/>
		<path class="st194" d="M913.95,409.69c-0.61-0.38-1.23-0.76-1.84-1.14c-0.37-5.63-5.02-6.25-9.21-7.48
			c2.17-1.78,5.95,1.76,7.06-2.71C908.88,403.08,915.12,405.02,913.95,409.69z"/>
		<path class="st195" d="M890.38,391.15c4.03-3.02,8.75-2.61,14.13-2.62C899.78,391.7,894.66,389.35,890.38,391.15z"/>
		<path class="st196" d="M865.1,404.45c0.47-2.23,0.94-4.46,1.56-7.4c0.22,6.63,4.82,2.36,7.7,3.96c-3.74,0.75-7.01,1.69-9.23,4.53
			c-0.31-0.23-0.42-0.47-0.33-0.72C864.9,404.57,865,404.45,865.1,404.45z"/>
		<path class="st197" d="M881.16,390.47c-3.3,0.32-6.33-0.83-9.39-2.14c3.41,1.29,7.06-1.01,10.39,1.14
			C882.11,390.09,881.45,390.1,881.16,390.47z"/>
		<path class="st198" d="M865.1,404.45c0.01,0.36,0.02,0.73,0.03,1.09c-0.2,0.96-1.65,1.88-0.1,2.9c-0.32,0.83-1.01,1.03-1.8,1.09
			C862.46,407.32,863.17,405.66,865.1,404.45z"/>
		<path class="st199" d="M881.16,390.47c0.33-0.33,0.67-0.67,1-1.01c1.4,0.19,2.99-0.43,4.52,1.49
			C884.58,390.77,882.87,390.62,881.16,390.47z"/>
		<path class="st15" d="M509.21,369.53c-0.31,0.64-0.62,1.29-0.94,1.93c-4.41,0.45-8.96,2.81-13.06-0.95
			c-3.52-4.78-5.75-9.98-6-16.06c-0.22-5.17,1.93-8.28,6.88-9.56c0.14-0.04,0.36,0.01,0.43-0.07c1.83-2.1,4.23-6.96,5.45-5.73
			c3.7,3.75,9.14,5.86,11.59,10.26c2,3.6,0.87,8.49-0.66,12.6C511.93,364.59,510.46,367.02,509.21,369.53z"/>
		<path class="st200" d="M521.02,409.6c-0.65-0.75-1.29-1.5-1.94-2.25c-1.14-4.87-5.34-4.57-9.41-5.63
			c10.35,2.86,8.18-6.66,11.17-11.07c0.43,0.51,0.65,0.69,0.62,0.76C519.06,397.42,517.69,403.45,521.02,409.6z"/>
		<path class="st189" d="M484.21,407.38c-0.34,0.06-0.68,0.11-1.03,0.17c2.61-4.7,0.77-9.37-0.09-14.05c0.34-0.4,0.68-0.4,1.02,0.01
			c0.86,5.58,2.38,10.37,10.14,8.07C490.2,402.86,485.92,402.91,484.21,407.38z"/>
		<path class="st201" d="M504.13,411.66c0.56,0.88,0.73,1.76,0.04,2.65c-1.67-0.03-3.34-0.05-5.01-0.08c0-0.84,0-1.67,0-2.5
			C500.81,411.17,502.47,411.13,504.13,411.66z"/>
		<path class="st202" d="M484.11,393.52c-0.34,0-0.68-0.01-1.02-0.01c-0.97-1-2.08-1.96-1.21-3.73
			C483.59,390.63,483.23,392.44,484.11,393.52z"/>
		<path class="st192" d="M108.09,371.52c-5.91-5.86-6.23-13.22-5.84-20.89c0.17-3.27,2.61-3.51,4.4-3.41
			c5.69,0.32,11.34,0.22,17.02-0.01c1.77-0.07,4.24,0.11,4.33,3.44c0.22,7.62,0.28,15.07-5.86,20.86
			C117.46,373.37,112.78,372.65,108.09,371.52z"/>
		<path class="st17" d="M110.02,416.25c-1.42,0.26-2.94,0.01-4.17,1.14c-4.23,3.87-8.81,3.72-13.56,1.06
			c-3-2.99-4.68-6.47-4.05-10.82c0.41-1.53,1.73-1.69,2.97-1.99c5.35-2.38,10.09-0.43,14.55,2.31c2.12,1.3,4.26,2.47,6.53,3.44
			C111.27,412.88,108.92,413.76,110.02,416.25z"/>
		<path class="st17" d="M138.02,418.4c-4.76,2.66-9.37,2.89-13.63-1.01c-1.24-1.13-2.75-0.9-4.18-1.14
			c-0.03-1.75-0.43-3.41-1.27-4.95c2.71-1.61,5.36-3.34,8.15-4.79c3.82-1.98,7.83-2.74,11.98-0.89c1.67,0.25,2.23,1.68,3.04,2.85
			C142.7,412.59,140.67,415.63,138.02,418.4z"/>
		<path class="st203" d="M118.94,411.31c2.64,1.08,4.29,2.42,1.27,4.95c-3.39,0.46-6.79,0.49-10.18-0.02
			c-0.48-0.9-2.46-0.51-2.11-1.59c0.61-1.91,1.94-3.5,4.37-3.26C114.51,411.36,116.72,411.34,118.94,411.31z"/>
		<path class="st204" d="M142.11,408.48c-1.02-0.95-2.03-1.9-3.05-2.85c-1.37-4.71-4.62-6.39-11.85-5.78
			c2.21-2.04,5.32-0.9,6.82-3.06C136.22,401.04,142.54,402.43,142.11,408.48z"/>
		<path class="st173" d="M91.21,405.63c-0.99,0.66-1.98,1.33-2.97,1.99c-0.12-4.64,4.11-5.88,6.49-8.64
			c3.65-4.24,5.64,1.36,8.55,0.9c-2.54,0.08-5.19-0.78-7.51,0.44C93.65,401.44,90.89,402.3,91.21,405.63z"/>
		<path class="st205" d="M106.23,389.02c4-0.43,4-0.43,7.81,1.74C110.76,391.69,108.57,389.86,106.23,389.02z"/>
		<path class="st206" d="M124.64,388.76c-2.75,1.71-5.33,1.94-7.97,1.85C119.03,389.39,121.37,388.09,124.64,388.76z"/>
		<path class="st207" d="M141.1,423.54c-0.37,0.33-0.73,0.67-1.1,1c-1.22-1.79-1.87-3.75-1.81-5.93
			C140.51,419.46,140.01,421.97,141.1,423.54z"/>
		<path class="st208" d="M118.98,466.84c0,41.44,0,82.88,0,124.32c-0.16,0-0.33,0-0.49,0c0-41.5,0-83.01,0-124.51
			C118.66,466.71,118.82,466.78,118.98,466.84z"/>
		<path class="st15" d="M688.83,372.64c-3.93-4.88-6.45-10.04-6.05-16.72c0.32-5.27,7.24-13.25,11.99-12.66
			c2.73,0.34,6.36,1.18,9.09,5.09c3.4,4.87,3.33,9.2,3.03,14.07c-0.25,4.15-3.64,6.8-5.7,10.08
			C697.1,375.66,692.97,374.29,688.83,372.64z"/>
		<path class="st209" d="M684.1,407.41c-2.31,0.05-4.63,0.1-6.94,0.15c0.03-2.46,1.48-4.15,3.51-4.98c2.59-1.05,3.87-2.74,3.73-5.81
			c2.78,1.07,0.74,4.12,3.85,5.16c-3.71,0.81-6.8,0.86-8.45,3.79C680.88,407.32,683.14,405.75,684.1,407.41z"/>
		<path class="st210" d="M713.04,407.6c-2.29-0.07-4.58-0.14-6.87-0.21c1.04-1.46,2.86-0.41,4.33-1.4
			c-1.54-3.06-4.43-3.38-8.09-3.71c2.32-1.46,1.15-3.78,2.97-5.92c0.52,3.5,1.95,5.66,4.81,6.96
			C711.7,404,713.19,405.44,713.04,407.6z"/>
		<path class="st211" d="M688.13,386.82c4.65,1.21,9.25,2.4,13.83-0.41C697.59,390.55,693.95,390.66,688.13,386.82z"/>
		<path class="st212" d="M691.19,415.37c0.7-1,1.39-2.01,2.09-3.01c1.25-0.03,2.51-0.05,3.76-0.08c0.36,1.03,0.72,2.05,1.09,3.08
			C695.81,415.36,693.5,415.37,691.19,415.37z"/>
		<path class="st208" d="M118.99,179.84c0,33.44,0,66.88,0,100.33c-0.17,0-0.33,0-0.5,0c0-33.51,0-67.02,0-100.53
			C118.66,179.71,118.82,179.78,118.99,179.84z"/>
		<path class="st213" d="M106.99,466.84c0,36.44,0,72.89,0,109.33c-0.17,0-0.33,0-0.5,0c0-36.51,0-73.02,0-109.53
			C106.65,466.71,106.82,466.78,106.99,466.84z"/>
		<path class="st214" d="M111.12,177.45c0.3-0.16,0.62-0.18,0.94-0.07c0,35.81,0,71.62,0,107.42c-0.31,0-0.63,0-0.94-0.01
			C111.12,249.02,111.12,213.23,111.12,177.45z"/>
		<path class="st213" d="M106.98,186.84c0,31.11,0,62.22,0,93.33c-0.17,0-0.33,0-0.5,0c0-31.18,0-62.35,0-93.53
			C106.65,186.71,106.82,186.78,106.98,186.84z"/>
		<path class="st214" d="M96.73,287.96c4.33-2.33,7.79-1.01,11.18-1.54C105.66,288.58,104.22,288.81,96.73,287.96z"/>
		<path class="st214" d="M97.17,284.53c1.16,0.15,2.28-1.2,3.91-0.03c-1.56,1.24-2.72,1.35-3.92,0.05
			C97.16,284.55,97.17,284.53,97.17,284.53z"/>
		<path class="st215" d="M128.55,160.5c-2.98,1.98-6.12,3.41-9.82,3.51C120.38,161.13,120.38,161.13,128.55,160.5z"/>
		<path class="st216" d="M697.39,174.55c-0.09-4.01-0.19-8.03-0.28-12.04c2.01-1.58,4.29-2.17,8.23-1.79
			c-9.24,2.42-5.4,8.94-6.23,13.83C698.54,174.55,697.96,174.55,697.39,174.55z"/>
		<path class="st217" d="M110.27,51.29c2.61-1.4,4.95-0.61,7.18-0.79c0.94-0.07,2.25-0.09,2.12,1.31c-0.05,0.57-1.04,1.41-1.7,1.51
			C115.29,53.7,112.59,54.19,110.27,51.29z"/>
		<path class="st218" d="M110.59,41.11c-1.73-1.04-1.5-2.11-0.98-3.14c0.11-0.21,1.01-0.34,1.11-0.19
			C111.44,38.8,111.2,39.86,110.59,41.11z"/>
		<path class="st219" d="M119.84,41.29c-0.85-1.44-1.05-2.5-0.3-3.51c0.11-0.14,0.98-0.02,1.12,0.21
			C121.3,39.05,121.09,40.03,119.84,41.29z"/>
		<path class="st17" d="M881.96,416.64c1.68,0.01,3.43-0.59,5,0.5C885.24,417.45,883.53,417.71,881.96,416.64z"/>
		<path class="st220" d="M505.14,55.52c-2.65,1.48-5.22,1.23-7.67-0.45c-1.03-0.7-1.73-1.55-0.33-2.61c2.39-0.9,4.9-0.55,7.3-0.34
			C507.54,52.38,506.9,53.95,505.14,55.52z"/>
		<path class="st221" d="M505.14,55.52c1.02-1.89,0.88-3.06-1.68-3c-2.11,0.06-4.22-0.04-6.33-0.06c2.39-1.86,5.14-0.63,7.71-0.89
			c1.06-0.1,1.96,0.34,2.15,1.58C507.21,54.59,506.55,55.34,505.14,55.52z"/>
		<path class="st222" d="M496.48,43.23c-0.63-1.26-0.75-2.37,0-3.42c0.03-0.04,0.94,0.32,1.08,0.65
			C498.08,41.66,497.8,42.64,496.48,43.23z"/>
		<path class="st223" d="M307.35,52.23c2.2-0.65,5.09-0.53,5.37,0.73c0.46,2.07-2.14,2.33-3.9,2.55c-2.06,0.25-4.71-0.08-4.87-2.16
			C303.7,50.27,306.75,53.84,307.35,52.23z"/>
		<path class="st224" d="M321.13,42.5c0.44-3.96-0.96-8.06,0.87-11.93c0.45,4.04,0.57,8.09,0.18,12.14c-0.01,0.1-0.3,0.28-0.39,0.24
			C321.55,42.85,321.34,42.65,321.13,42.5z"/>
		<path class="st225" d="M314.29,40.69c-0.25,0.79,0.01,1.68-0.94,1.63c-0.81-0.04-0.93-0.77-0.95-1.43
			c-0.03-0.87,0.2-1.73,1.24-1.6C313.95,39.33,314.13,40.32,314.29,40.69z"/>
		<path class="st226" d="M303.62,39.13c1.1,0.88,0.9,1.94,0.41,2.93c-0.21,0.43-0.79,0.49-1.07-0.09
			C302.42,40.88,302.38,39.88,303.62,39.13z"/>
		<path class="st227" d="M307.21,49.46c0.57-0.39,0.91-0.78,1.27-0.8c0.29-0.02,0.6,0.43,0.9,0.66c-0.32,0.3-0.61,0.75-0.98,0.84
			C308.13,50.23,307.75,49.8,307.21,49.46z"/>
		<path class="st228" d="M695.33,54.47c1.45,0.52,4.01-0.93,4.16,1.28c0.13,1.93-2.36,2.59-4.15,2.65c-1.99,0.06-4.76-0.6-4.6-2.66
			C690.92,53.42,693.77,55.07,695.33,54.47z"/>
		<path class="st229" d="M691.18,43.56c-0.16,0.76,0.01,1.86-1.18,1.68c-1.03-0.15-0.87-1.19-0.86-1.95
			c0.01-0.63,0.14-1.4,0.94-1.43C691.3,41.8,691.01,42.87,691.18,43.56z"/>
		<path class="st230" d="M699.88,41.41c1.41,1.46,1.41,2.59,0.37,3.94C698.33,44.22,698.93,43.04,699.88,41.41z"/>
		<path class="st88" d="M876.29,37.58c-0.11,4.63-0.21,9.27-0.32,13.9c-1.77-4.56-0.44-9.32-0.85-13.96
			C875.51,37.54,875.9,37.56,876.29,37.58z"/>
		<path class="st42" d="M903.22,47.38c0,1.65,0,3.29,0,4.94c-1.17-1.71-1.59-3.39,0.02-4.92C903.24,47.4,903.22,47.38,903.22,47.38z
			"/>
		<path class="st35" d="M296.22,362.34c0.76,0.93,0.94,2.01,0.87,3.17C294.29,365.14,295.77,363.6,296.22,362.34z"/>
		<path class="st231" d="M172.16,696.19c-0.26,3.94-1.34,7.19-5.57,7.17c-4.21-0.02-5.45-3.21-5.44-6.88
			c0.01-3.66,1.24-6.87,5.45-6.87C170.85,689.62,171.85,692.94,172.16,696.19z"/>
		<path class="st232" d="M97.18,696.31c0.1-4.96,2.78-7.95,7.05-7.88c4.31,0.07,7.05,3.51,6.84,8.61c-0.2,4.88-2.99,7.78-7.33,7.61
			C99.55,704.49,97.07,701.34,97.18,696.31z"/>
		<path class="st233" d="M60.14,688.31c2.19,0.6,3.28,2.28,4.14,4.19c0.02,1.58,0.53,3.39-2.21,3.2c-2.45-0.17-4.94-0.2-7.38,0.01
			c-3.35,0.29-1.35-1.74-1.41-2.9C54.8,690.15,56.62,687.94,60.14,688.31z"/>
		<path class="st234" d="M933,698.87c1.35,0.71,3.07,0.96,3.02,2.84c-0.04,1.41-1.17,1.89-2.38,1.85c-1.48-0.05-2.44-0.86-2.44-2.43
			C931.2,699.92,931.73,699.03,933,698.87z"/>
		<path class="st235" d="M935.14,693.38c1.3,1.16,1.07,2.56,0.62,3.99c-1.9,0.31-3.46-0.24-3.55-2.31
			C932.12,693.14,933.85,693.43,935.14,693.38z"/>
		<path class="st236" d="M902.1,698.4c-0.94,0.01-1.88,0.02-2.82,0.03c-0.96-1.38-1.9-2.79-0.45-4.37c0.76-0.82,1.85-0.87,2.69-0.26
			C903.26,695.07,903.46,696.67,902.1,698.4z"/>
		<path class="st237" d="M923.13,693.39c2.82,3.41,2.81,6.82,0,10.23c-3.58,0.23-3.96-2.23-3.97-4.86
			C919.14,696.04,919.18,693.25,923.13,693.39z"/>
		<path class="st238" d="M949.01,702.26c-1.04,1.19-2.41,1.42-3.89,1.31c-1.25-1.01-2.22-2.16-1.93-3.93
			C946.29,697.93,948.7,697.76,949.01,702.26z"/>
		<path class="st239" d="M751.09,697.39c1.01,0.04,2.02,0.08,3.03,0.12c1,2.35-1.03,1.34-1.78,1.5
			C751.07,699.27,750.39,698.79,751.09,697.39z"/>
		<path class="st240" d="M816.11,703.74c-2.8-2.15-2.82-4.31,0-6.46c2.22-0.04,3.89,0.73,3.87,3.22
			C819.96,702.93,818.36,703.79,816.11,703.74z"/>
		<path class="st241" d="M865.14,703.68c-1.51,0.11-2.79-0.37-3.87-1.43c-0.38-2.04-0.23-3.87,1.84-5.01
			C867.78,698.54,868.14,699.68,865.14,703.68z"/>
		<path class="st242" d="M778.27,698.76c1.08-1.05,2.35-1.58,3.87-1.43c3.01,3.95,2.62,5.18-2.03,6.42
			C778.05,702.62,777.9,700.79,778.27,698.76z"/>
		<path class="st243" d="M219.09,680.67c0.67,0.28,1.34,0.56,2,0.84c-0.03,1.32-0.06,2.65-0.1,3.97c-0.98-0.06-1.95-0.13-2.93-0.19
			c-0.32-0.6-0.64-1.2-0.95-1.81c-0.46-0.58-0.09-1.02,0.25-1.46C217.88,681.5,218.39,680.96,219.09,680.67z"/>
		<path class="st244" d="M218.38,682.54c-0.42,0.31-0.84,0.63-1.26,0.94c-0.33,0.02-0.66,0.03-0.99,0.05
			c-1.16-0.7-0.76-1.93-0.99-2.95C217.19,679.64,218.7,679.57,218.38,682.54z"/>
		<path class="st245" d="M218.38,682.54c0.08-2.57-1.78-1.93-3.24-1.96c0.03-0.31,0.04-0.63,0.03-0.94
			c1.32-0.06,2.63-0.11,3.95-0.17c-0.01,0.4-0.02,0.79-0.04,1.19C218.85,681.29,218.62,681.92,218.38,682.54z"/>
		<path class="st217" d="M888.05,53.24c1.6,0.97,4.34-1.04,4.43,1.83c0.05,1.66-2,2.49-3.82,2.41c-2.03-0.1-4.81-0.56-4.81-2.57
			C883.84,52,886.87,54.55,888.05,53.24z"/>
		<path class="st246" d="M893.39,40.37c1.15,1.63,0.87,2.75,0.06,4.38C892.03,43.17,891.95,42.06,893.39,40.37z"/>
		<path class="st247" d="M883.4,40.64c1.29,1.28,1.1,2.38,0.19,3.82C882.31,43.15,882.22,42.07,883.4,40.64z"/>
		<path class="st248" d="M303.37,364.04c3.53-1.02,6.8-0.66,10.25-0.23C310.67,367.49,307.26,367.6,303.37,364.04z"/>
		<path class="st249" d="M304.89,354.56c-0.3,0.89-0.44,1.73-1.22,1.51c-0.34-0.1-0.59-1.01-0.6-1.55c-0.01-0.49-0.12-1.52,0.9-1.16
			C304.41,353.5,304.66,354.23,304.89,354.56z"/>
		<path class="st250" d="M313.7,354.97c-0.21,0.26-0.43,0.83-0.76,0.91c-1.06,0.24-0.74-0.73-0.78-1.2
			c-0.03-0.35,0.29-1.01,0.53-1.05C313.55,353.49,313.63,354.19,313.7,354.97z"/>
		<path class="st251" d="M892.63,366.15c-1.39,1.78-3.3,2.61-5.57,2.12c-1.45-0.31-3.69-1.46-3.02-2.63
			c1.43-2.47,4.38-0.77,6.66-1.1C891.61,364.42,892.8,364.48,892.63,366.15z"/>
		<path class="st252" d="M893.52,355.34c-1.54-1.06-1.42-2.12-0.86-3.17c0.12-0.22,1.01-0.33,1.1-0.2
			C894.45,353.01,894.33,354.09,893.52,355.34z"/>
		<path class="st253" d="M883.79,355.48c-1.52-1.36-1.58-2.44-0.61-3.68C885.23,352.68,884.19,353.88,883.79,355.48z"/>
		<path class="st254" d="M506.43,363.62c-0.42,1.91-1.42,2.61-2.53,2.74c-2.06,0.24-4.26,0.79-6.03-0.89
			c-0.26-0.25-0.38-1.14-0.19-1.3c1.52-1.33,3.4-0.56,5.13-0.7C503.93,363.37,505.06,363.55,506.43,363.62z"/>
		<path class="st255" d="M496.66,349.79c1.59,1.59,1.73,2.76-0.03,4.2C495.69,352.61,495.62,351.4,496.66,349.79z"/>
		<path class="st256" d="M506.85,354.22c-1.59-1.73-1.38-3.01-0.29-4.37C508.02,351.06,507.72,352.35,506.85,354.22z"/>
		<path class="st257" d="M501.89,359.43c0.33,0.44,0.57,0.77,0.81,1.1c-0.33,0.21-0.72,0.66-0.97,0.59c-0.36-0.1-0.6-0.58-0.9-0.89
			C501.14,360,501.45,359.76,501.89,359.43z"/>
		<path class="st223" d="M115.31,364.5c1.47,0.48,4.04-0.92,4.21,1.16c0.18,2.23-2.21,2.83-4.33,2.86
			c-2.14,0.03-4.65-0.62-4.45-2.74C110.96,363.45,113.76,365.09,115.31,364.5z"/>
		<path class="st258" d="M109.99,351.61c1.52,1.14,1.23,2.21,0.86,3.25c-0.24,0.68-0.86,0.45-1.12,0.14
			C108.9,354,109.19,352.96,109.99,351.61z"/>
		<path class="st259" d="M119.74,351.69c1.6,1.02,1.42,2.1,0.91,3.14c-0.1,0.21-1,0.33-1.1,0.19
			C118.82,354,118.99,352.92,119.74,351.69z"/>
		<path class="st260" d="M699.77,367.81c-1.14,1.92-2.92,2.79-4.99,2.58c-1.77-0.18-4.49-0.87-4.03-2.74
			c0.55-2.27,3.4-0.98,5.23-1.08C697.23,366.51,699.03,365.71,699.77,367.81z"/>
		<path class="st261" d="M691.17,355.6c-0.1,0.69-0.12,1.55-0.88,1.54c-1.46-0.03-1.14-1.28-1.11-2.15
			c0.02-0.59,0.17-1.42,1.08-1.24C691.3,353.95,691.11,354.9,691.17,355.6z"/>
		<path class="st262" d="M699.82,357.72c-0.82-1.74-1.22-2.9,0.19-4.22C701.24,354.79,701.24,355.91,699.82,357.72z"/>
	</g>
</g>
</svg>
