<?xml version="1.0" encoding="utf-8"?>
<!-- Generator: Adobe Illustrator 23.0.1, SVG Export Plug-In . SVG Version: 6.00 Build 0)  -->
<svg version="1.1"
	 id="Layer_1" xmlns:cc="http://creativecommons.org/ns#" xmlns:dc="http://purl.org/dc/elements/1.1/" xmlns:rdf="http://www.w3.org/1999/02/22-rdf-syntax-ns#" xmlns:svg="http://www.w3.org/2000/svg"
	 xmlns="http://www.w3.org/2000/svg" xmlns:xlink="http://www.w3.org/1999/xlink" x="0px" y="0px" viewBox="0 0 300 500"
	 style="enable-background:new 0 0 300 500;" xml:space="preserve">
<style type="text/css">
	.st0{fill:#4A2500;}
</style>
<path class="st0" d="M135.2,58.5c-0.7-11.7-8.2-22.9-6.3-34.8c0.2-1.4,0.9-2.7-1.6-3.1c-5.9-0.8-2.1-2.9-0.3-3.5
	c5.6-2,3.3-4.2-0.2-7.1c4.7-0.8,8.9-0.1,12.4-1.8c6.1-2.9,19.1-2.6,25.2-3.7c10-1.8,14.2,8.3,22.6,5.2c4,15.7-2.4,30.1-6.1,44.9
	c-2.8-4.9-5.9-9.7-7.2-15c-1.7-8.7-1.4-8.7-12.6-9.5c-15.7-1.2-15.7-0.3-19.8,11.3C139.6,46.9,138.7,53.1,135.2,58.5z"/>
</svg>
