<?xml version="1.0" encoding="UTF-8" standalone="no"?>
<!-- Generator: Adobe Illustrator 23.0.1, SVG Export Plug-In . SVG Version: 6.00 Build 0)  -->

<svg
   xmlns:dc="http://purl.org/dc/elements/1.1/"
   xmlns:cc="http://creativecommons.org/ns#"
   xmlns:rdf="http://www.w3.org/1999/02/22-rdf-syntax-ns#"
   xmlns:svg="http://www.w3.org/2000/svg"
   xmlns="http://www.w3.org/2000/svg"
   xmlns:sodipodi="http://sodipodi.sourceforge.net/DTD/sodipodi-0.dtd"
   xmlns:inkscape="http://www.inkscape.org/namespaces/inkscape"
   version="1.1"
   id="Layer_1"
   x="0px"
   y="0px"
   viewBox="0 0 300 500"
   style="enable-background:new 0 0 300 500;"
   xml:space="preserve"
   sodipodi:docname="brown_long_hair.svg"
   inkscape:version="0.92.3 (2405546, 2018-03-11)"><metadata
   id="metadata54"><rdf:RDF><cc:Work
       rdf:about=""><dc:format>image/svg+xml</dc:format><dc:type
         rdf:resource="http://purl.org/dc/dcmitype/StillImage" /><dc:title></dc:title></cc:Work></rdf:RDF></metadata><defs
   id="defs52" /><sodipodi:namedview
   pagecolor="#ffffff"
   bordercolor="#666666"
   borderopacity="1"
   objecttolerance="10"
   gridtolerance="10"
   guidetolerance="10"
   inkscape:pageopacity="0"
   inkscape:pageshadow="2"
   inkscape:window-width="1920"
   inkscape:window-height="1017"
   id="namedview50"
   showgrid="false"
   inkscape:zoom="1.6290957"
   inkscape:cx="150"
   inkscape:cy="250"
   inkscape:window-x="-8"
   inkscape:window-y="-8"
   inkscape:window-maximized="1"
   inkscape:current-layer="Layer_1" />
<style
   type="text/css"
   id="style45">
	.st0{fill:#744B00;}
</style>
<path
   class="st0"
   d="M137.6,88.6c-6.2,3.1-13.3,0.5-19.7,2.9c-2,0.8-4.3,1-6.5,1.5c0.7-5-3.5-9.9-0.1-15.3c3.2,1.2,4.3,6.4,8.7,4.4  c4.7-2.1,3.8-6.5,3.8-10.3c0.2-16.4-1.1-32.8,2.9-49c2.2-8.8,7.9-13.3,17.2-13.9c0.3,0,0.5,0,0.8,0c19.2-1.6,31.7,2.4,31.3,28.8  c-0.2,12,0,24.1,0,36.1c0,3.6,0.6,7.1,4.5,8.6c4.2,1.6,5.6-2.3,8.5-5c1.3,5.3,1.6,9.8-0.8,14.3c-6.9,0.8-13.6-1.7-20.5-1.6  c-4.1,0.1-5.1-2.8-5.4-5.9c-0.3-3.9-0.1-7.9-0.1-11.8c2.3-8.2,5.1-16.2,4.2-24.9c-0.4-4.6-1.5-8.1-5.9-10.3c-4.1-2.1-7-5.6-10.2-9.8  c-3.9,5.2-8.2,9.3-13.4,12.4c-3,1.7-3.5,4.7-3.4,7.8c0.3,5.9,0.5,11.9,2.8,17.4C139.7,72.8,138.4,80.6,137.6,88.6z"
   id="path47" />
<path
   style="fill:#502d16;fill-opacity:1;stroke-width:0.61383748"
   d="m 111.0219,86.93407 c -0.81829,-4.424185 -0.89804,-6.065826 -0.36116,-7.434309 l 0.68902,-1.756318 2.73779,2.523615 c 3.28555,3.028514 5.06294,3.195227 7.8197,0.733468 l 2.00466,-1.79014 0.37252,-22.609901 c 0.32326,-19.620163 0.54392,-23.451547 1.6687,-28.974865 1.59089,-7.812192 3.09298,-11.02516 6.59588,-14.108534 3.80808,-3.352006 7.95537,-4.3869188 17.58006,-4.3869188 6.08566,0 8.59701,0.2704173 11.85408,1.2764248 7.47208,2.30789 11.72626,8.201415 13.18129,18.260704 0.32583,2.252588 0.59789,13.979597 0.60457,26.060021 0.0131,23.557604 0.17866,24.978994 3.15309,27.062371 2.39941,1.680613 4.81992,1.268728 7.41062,-1.261025 1.27408,-1.244107 2.50032,-2.078196 2.72497,-1.853537 0.71126,0.711253 0.48988,9.257547 -0.28766,11.105394 l -0.74573,1.772241 -5.35427,-0.353036 c -6.15467,-0.405808 -15.89806,-1.532642 -17.4782,-2.021373 -1.80596,-0.558574 -2.48975,-2.739968 -2.78575,-8.886931 -0.25571,-5.310474 -0.0588,-6.772021 2.00913,-14.914888 2.101,-8.272966 2.27182,-9.577076 2.04379,-15.602939 -0.31057,-8.207112 -1.02013,-9.660127 -6.49782,-13.306027 -2.27135,-1.511789 -5.23463,-4.124013 -6.58507,-5.804943 -1.35045,-1.680929 -2.64296,-3.069982 -2.87227,-3.086783 -0.2293,-0.0168 -2.02477,1.667092 -3.98994,3.741986 -1.96517,2.074894 -5.56351,5.253379 -7.99632,7.063302 -5.22004,3.883518 -5.44852,4.535689 -4.91149,14.018924 0.2713,4.790903 0.81665,7.585773 2.34624,12.024317 1.83101,5.313231 1.99324,6.40547 1.99853,13.455597 0.003,4.220132 -0.18246,8.402041 -0.4125,9.293137 -0.52541,2.035203 -1.70774,2.352937 -11.1711,3.002071 -4.05133,0.277896 -8.72203,0.939883 -10.37934,1.47108 -1.65731,0.531196 -3.21636,0.965811 -3.46456,0.965811 -0.24821,0 -0.92387,-2.555098 -1.50146,-5.677996 z"
   id="path56"
   inkscape:connector-curvature="0" /></svg>