<?xml version="1.0" encoding="utf-8"?>
<!-- Generator: Adobe Illustrator 23.0.3, SVG Export Plug-In . SVG Version: 6.00 Build 0)  -->
<svg version="1.1" id="Layer_1" xmlns="http://www.w3.org/2000/svg" xmlns:xlink="http://www.w3.org/1999/xlink" x="0px" y="0px"
	 viewBox="0 0 300 500" style="enable-background:new 0 0 300 500;" xml:space="preserve">
<style type="text/css">
	.st0{fill:#4A2500;}
</style>
<g id="Layer_3">
</g>
<path class="st0" d="M126.3,47.1c-0.7-9.7-8.5-19-6.6-28.8c0.2-1.2,0.9-2.2-1.7-2.6c-6.2-0.7-2.2-2.4-0.3-2.9
	c5.8-1.7,3.4-3.5-0.2-5.9c4.9-0.7,9.3-0.1,12.9-1.5c6.4-2.4,19.9-2.2,26.3-3.1c10.4-1.5,14.8,6.9,23.6,4.3c4.2,13-2.5,24.9-6.4,37.2
	c-2.9-4.1-6.2-8-7.5-12.4c-1.8-7.2-1.5-7.2-13.1-7.9c-16.4-1-16.4-0.2-20.6,9.4C130.9,37.5,129.9,42.6,126.3,47.1z"/>
</svg>
