<?xml version="1.0" encoding="UTF-8" standalone="no"?>
<!-- Generator: Adobe Illustrator 23.0.1, SVG Export Plug-In . SVG Version: 6.00 Build 0)  -->

<svg
   xmlns:dc="http://purl.org/dc/elements/1.1/"
   xmlns:cc="http://creativecommons.org/ns#"
   xmlns:rdf="http://www.w3.org/1999/02/22-rdf-syntax-ns#"
   xmlns:svg="http://www.w3.org/2000/svg"
   xmlns="http://www.w3.org/2000/svg"
   xmlns:sodipodi="http://sodipodi.sourceforge.net/DTD/sodipodi-0.dtd"
   xmlns:inkscape="http://www.inkscape.org/namespaces/inkscape"
   version="1.1"
   id="Layer_1"
   x="0px"
   y="0px"
   viewBox="0 0 300 500"
   style="enable-background:new 0 0 300 500;"
   xml:space="preserve"
   sodipodi:docname="brown_Medium_hair.svg"
   inkscape:version="0.92.3 (2405546, 2018-03-11)"><metadata
   id="metadata54"><rdf:RDF><cc:Work
       rdf:about=""><dc:format>image/svg+xml</dc:format><dc:type
         rdf:resource="http://purl.org/dc/dcmitype/StillImage" /><dc:title></dc:title></cc:Work></rdf:RDF></metadata><defs
   id="defs52" /><sodipodi:namedview
   pagecolor="#ffffff"
   bordercolor="#666666"
   borderopacity="1"
   objecttolerance="10"
   gridtolerance="10"
   guidetolerance="10"
   inkscape:pageopacity="0"
   inkscape:pageshadow="2"
   inkscape:window-width="1920"
   inkscape:window-height="1017"
   id="namedview50"
   showgrid="false"
   inkscape:zoom="1.6290957"
   inkscape:cx="150"
   inkscape:cy="250"
   inkscape:window-x="-8"
   inkscape:window-y="-8"
   inkscape:window-maximized="1"
   inkscape:current-layer="Layer_1" />
<style
   type="text/css"
   id="style45">
	.st0{fill:#4B3527;}
</style>
<path
   class="st0"
   d="M137.4,86.9c-1,3.6,0.3,7.6-1.9,11c-2.9,0.5-0.9-5.8-5.6-3.6c-3.9,1.8-3.3-0.7-2.8-3.8c1.4-8.3-3.2-4.1-6.2-2.7  c-2.5-1.9,2.7-12-6.9-5.7c-0.6-4,1.8-6.7,2.9-10.2c-3.9-0.5-7.6-0.4-10.9-2.7c2.9-3.8,8.4-4.4,10.4-9.3c-2.7-2.9-8.2-2.3-9.9-7.1  c2-1.9,5.5,0,7.3-2.7c0.4-2.4-1.8-1.7-2.9-2.1c-3.2-1.1-7.6-1.9-7-5.9c0.6-3.7,4.7-1.2,7.1-1.3c6.3-0.4,8.1-4.6,9.5-9.6  c2.2-7.5,1.9-17.1,11.2-19.9c12.2-3.6,25-3.9,37.2,0.6c5.9,2.2,6.8,8.4,8.3,13.7c4.3,15.2,4.3,15.2,19.2,14.9  c-0.9,6.8-7.1,6.5-11.4,8.6c1.1,4.3,5.7,1.3,7.5,3.9c-1.9,4.3-6.6,4.2-9.9,6.5c1.4,3.6,4.6,5.3,7.8,7c1.7,0.9,3.5,1.8,0.8,3.7  c-1.9,2.6-7.6-2.5-7.8,3.7c0.2,0.5,0.3,1,0.3,1.6c1,2.1-0.2,3.2-1.9,4c-1.1,0.1-2.2,0.2-3.3,0.3c-2.7,1.1,0.7,4.8-2.5,5.6  c-6.7-0.8-3.4,4-3.9,6.7c-4.3,0.2-0.6-4.8-3.2-5.4c1.4,2.2,1.2,4.5,0,6.9c-1.1-0.2-2.2-0.5-3.3-0.7c-2-2.1-1.4-5.3-3.1-7.5  c-0.2-6.8,5-11.7,6.4-18c1.8-8.6,3.5-17.2-3.9-24c-4.2-3.8-9.7-5.8-13.6-10.2c-1.1-1.2-3.3-1-4.1,0.4c-3.3,5.7-9.4,7.5-14.1,11.2  c-3.4,2.6-4.6,6.3-4.5,10.5c0.2,7.8,2.2,15.1,5.8,22C135.7,80.6,138.4,83.1,137.4,86.9z"
   id="path47" />
<path
   style="fill:#502d16;fill-opacity:1;stroke-width:0.61383748"
   d="m 133.76144,95.735664 c -1.00798,-1.949216 -1.1428,-2.006241 -3.801,-1.607615 l -2.75597,0.413278 0.17367,-3.880355 c 0.24631,-5.503502 -0.48306,-6.32295 -3.99678,-4.490418 -2.58638,1.348896 -2.76392,1.214711 -2.96694,-2.242453 -0.22996,-3.915853 -1.29917,-4.812768 -4.08221,-3.424403 -1.8943,0.945003 -1.93478,0.935139 -1.93478,-0.471458 0,-0.790162 0.55245,-2.725475 1.22767,-4.300705 0.67522,-1.575229 1.22768,-3.095429 1.22768,-3.378224 0,-0.517274 -1.22251,-0.835672 -5.9283,-1.54401 -1.40371,-0.211289 -3.04255,-0.742718 -3.64188,-1.180958 -0.98496,-0.720223 -0.67849,-1.070215 3.18914,-3.642019 2.35335,-1.564873 4.77221,-3.680461 5.37524,-4.701306 l 1.09641,-1.856082 -3.88329,-1.760768 c -6.1002,-2.765964 -7.78523,-5.569376 -3.34755,-5.569376 4.81457,0 5.4928,-3.417478 0.90893,-4.579939 -3.54381,-0.898705 -5.82537,-2.353336 -6.36679,-4.059224 -0.66024,-2.080223 0.63423,-2.716831 5.52439,-2.716831 7.40047,0 9.41187,-2.405945 12.26363,-14.669164 1.99473,-8.577775 3.72811,-11.512139 8.00757,-13.555649 8.20197,-3.916573 25.70535,-4.5554978 35.72537,-1.304082 5.84239,1.895807 8.0491,4.008069 9.59056,9.180114 4.15448,13.939354 4.87295,15.905959 6.45983,17.681991 1.83947,2.058719 4.86583,2.867591 10.98913,2.937117 1.91234,0.02171 3.22264,0.311132 3.22264,0.711813 0,1.53292 -4.17096,4.746896 -7.53752,5.80811 -1.93135,0.608806 -3.51155,1.455152 -3.51155,1.880768 0,1.123681 2.47768,2.683456 4.27999,2.694375 0.8533,0.0052 1.89743,0.229064 2.32028,0.497542 1.14081,0.724337 -1.93433,3.375911 -5.83298,5.029546 -1.77245,0.751799 -3.22264,1.709979 -3.22264,2.12929 0,1.44964 2.61343,4.075857 5.90413,5.933012 1.81686,1.025375 3.48371,2.156087 3.70411,2.512693 0.69182,1.119392 -1.74475,2.303643 -4.7397,2.303643 -3.69321,0 -4.5277,0.950582 -3.98887,4.543778 0.45993,3.067015 0.18054,3.401243 -3.64194,4.356865 -2.27054,0.567634 -2.47845,0.798652 -2.76227,3.069188 -0.2923,2.338426 -0.42384,2.469965 -2.76227,2.762268 l -2.45535,0.306919 0.0262,3.222647 c 0.0267,3.284915 -0.44474,4.011078 -1.4444,2.224774 -0.46543,-0.831676 -0.62831,-0.719473 -0.97797,0.673675 -0.36494,1.454027 -0.63493,1.617492 -2.07472,1.256126 -1.99257,-0.5001 -2.30288,-0.94488 -3.49975,-5.016348 -1.32242,-4.498551 -1.19888,-5.522303 1.287,-10.664996 3.18174,-6.582284 4.40974,-10.432563 5.18473,-16.25629 1.36737,-10.275168 -1.08003,-15.326437 -10.54317,-21.760372 -3.24703,-2.20764 -6.77641,-4.761975 -7.84305,-5.6763 -2.38528,-2.044656 -3.22135,-1.786966 -6.70064,2.06523 -1.45536,1.611338 -4.35574,3.957429 -6.4453,5.213535 -6.04137,3.631683 -7.63857,5.041014 -9.07439,8.007023 -2.77619,5.734836 -0.48845,18.82092 5.29966,30.314569 l 2.21213,4.392695 -0.42935,6.05601 c -0.23615,3.330805 -0.77414,6.52753 -1.19554,7.103831 -0.69133,0.945445 -0.86829,0.850374 -1.81124,-0.97308 z m 35.93893,-8.836104 c -0.80164,-0.801635 -0.91314,0.08677 -0.22916,1.825816 0.42654,1.084504 0.45037,1.083976 0.6714,-0.01498 0.12603,-0.626679 -0.073,-1.441549 -0.44224,-1.810821 z"
   id="path56"
   inkscape:connector-curvature="0" /></svg>