<?xml version="1.0" encoding="utf-8"?>
<!-- Generator: Adobe Illustrator 23.0.3, SVG Export Plug-In . SVG Version: 6.00 Build 0)  -->
<svg version="1.1" id="Layer_1" xmlns="http://www.w3.org/2000/svg" xmlns:xlink="http://www.w3.org/1999/xlink" x="0px" y="0px"
	 viewBox="0 0 300 500" style="enable-background:new 0 0 300 500;" xml:space="preserve">
<style type="text/css">
	.st0{fill:#4B3527;}
</style>
<g id="Layer_3">
</g>
<path class="st0" d="M136.4,66.4c-1.1,3,0.3,6.4-2.2,9.3c-3.3,0.4-1-4.9-6.4-3c-4.5,1.5-3.8-0.6-3.2-3.2c1.6-7-3.7-3.5-7.1-2.3
	c-2.9-1.6,3.1-10.2-7.9-4.8c-0.7-3.4,2.1-5.7,3.3-8.6c-4.5-0.4-8.7-0.3-12.5-2.3c3.3-3.2,9.7-3.7,12-7.9c-3.1-2.5-9.4-1.9-11.4-6
	c2.3-1.6,6.3,0,8.4-2.3c0.5-2-2.1-1.4-3.3-1.8c-3.7-0.9-8.7-1.6-8-5c0.7-3.1,5.4-1,8.2-1.1c7.2-0.3,9.3-3.9,10.9-8.1
	c2.5-6.4,2.2-14.5,12.9-16.9c14-3,28.7-3.3,42.8,0.5c6.8,1.9,7.8,7.1,9.5,11.6c4.9,12.9,4.9,12.9,22.1,12.6c-1,5.8-8.2,5.5-13.1,7.3
	c1.3,3.6,6.6,1.1,8.6,3.3c-2.2,3.6-7.6,3.6-11.4,5.5c1.6,3,5.3,4.5,9,5.9c2,0.8,4,1.5,0.9,3.1c-2.2,2.2-8.7-2.1-9,3.1
	c0.2,0.4,0.3,0.8,0.3,1.4c1.1,1.8-0.2,2.7-2.2,3.4c-1.3,0.1-2.5,0.2-3.8,0.3c-3.1,0.9,0.8,4.1-2.9,4.7c-7.7-0.7-3.9,3.4-4.5,5.7
	c-4.9,0.2-0.7-4.1-3.7-4.6c1.6,1.9,1.4,3.8,0,5.8c-1.3-0.2-2.5-0.4-3.8-0.6c-2.3-1.8-1.6-4.5-3.6-6.4c-0.2-5.8,5.7-9.9,7.4-15.2
	c2.1-7.3,4-14.6-4.5-20.3c-4.8-3.2-11.1-4.9-15.6-8.6c-1.3-1-3.8-0.8-4.7,0.3c-3.8,4.8-10.8,6.4-16.2,9.5c-3.9,2.2-5.3,5.3-5.2,8.9
	c0.2,6.6,2.5,12.8,6.7,18.6C134.4,61,137.5,63.1,136.4,66.4z"/>
</svg>
