<?xml version="1.0" encoding="UTF-8"?>
<!DOCTYPE svg PUBLIC "-//W3C//DTD SVG 1.1//EN" "http://www.w3.org/Graphics/SVG/1.1/DTD/svg11.dtd">
<!-- Creator: CorelDRAW Home & Student X7 -->
<svg xmlns="http://www.w3.org/2000/svg" xml:space="preserve" width="300px" height="500px" version="1.1" style="shape-rendering:geometricPrecision; text-rendering:geometricPrecision; image-rendering:optimizeQuality; fill-rule:evenodd; clip-rule:evenodd"
viewBox="0 0 300 500"
 xmlns:xlink="http://www.w3.org/1999/xlink"
 xmlns:cc="http://creativecommons.org/ns#"
 xmlns:dc="http://purl.org/dc/elements/1.1/"
 xmlns:rdf="http://www.w3.org/1999/02/22-rdf-syntax-ns#"
 xmlns:svg="http://www.w3.org/2000/svg">
 <defs>
  <style type="text/css">
   <![CDATA[
    .fil1 {fill:#1F1A17}
    .fil0 {fill:#660C0C}
    .fil3 {fill:#FEFEFE}
    .fil2 {fill:white}
   ]]>
  </style>
 </defs>
 <g id="Layer_x0020_1">
  <metadata id="CorelCorpID_0Corel-Layer"/>
  <g id="_363112864">
   <path class="fil0" d="M164 35c1,0 1,0 2,1 0,2 -1,2 -2,2 -1,1 -2,0 -2,-1 0,-1 1,-2 2,-2zm-5 0c0,1 0,1 0,1 0,2 1,3 3,4 0,0 0,0 0,0 0,0 0,0 0,0 1,0 1,0 1,0 1,0 1,0 1,0 1,0 1,0 1,0 1,0 1,0 1,0 2,-1 2,-3 2,-5 0,0 0,0 0,-1 0,0 -1,0 -1,0 -3,-1 -4,0 -7,1 0,0 0,0 -1,0z"/>
   <path class="fil1" d="M155 39c0,0 0,0 0,0 -1,-1 0,-1 0,-1 0,0 0,0 0,1 0,0 0,0 0,0l0 0zm1 0l-1 0c0,-1 0,-1 0,-1 0,0 0,0 1,0 0,0 0,0 0,0 0,0 0,0 0,0 0,0 0,1 0,1zm8 1c0,0 0,0 -1,0 0,0 0,0 -1,0 0,0 -1,0 -1,0 -1,0 -3,-1 -4,-1 -1,-1 -1,0 -1,-1 0,0 0,0 0,0 0,-1 0,-1 1,-1 0,0 0,0 0,0 1,-1 1,-1 2,-1 0,0 0,0 0,-1 1,0 1,0 1,0 3,-1 4,-2 7,-1 0,0 1,0 1,0 0,1 0,1 1,1 1,0 1,1 2,1 1,0 1,1 1,1 0,0 0,1 -1,1 -1,0 -2,1 -3,2 -1,0 -2,0 -4,0l0 0zm-6 -4c0,0 0,0 0,0 0,0 0,0 0,0zm0 0c0,-1 0,0 0,-1 0,1 0,1 0,1zm0 -1c1,0 0,0 1,0 0,0 0,0 -1,0zm1 0l0 0 0 0zm0 0l0 0 0 0zm0 0l0 0 0 0zm0 0l0 0zm0 0l0 0c0,0 0,0 0,0zm6 -2l0 0zm0 0c0,0 0,0 0,-1 1,0 1,0 1,0 -1,0 -1,0 -1,0l0 1c0,0 0,0 0,0 0,0 -1,0 -1,0 0,0 0,0 0,0 1,0 1,-1 1,-1l0 0c0,0 0,0 0,0 0,0 0,0 0,0 0,0 -1,1 -2,1 0,0 1,0 1,0l0 -1c0,0 0,0 0,0 0,0 0,0 0,-1 0,0 1,0 1,0l-1 1c0,0 0,0 0,0 0,0 0,0 0,0l-1 0c0,1 0,1 0,1 0,0 -1,0 -1,0 0,0 0,0 1,0 0,-1 0,-1 0,-1 0,0 0,0 0,0 0,0 -1,1 -1,1 0,0 0,0 0,0 0,0 0,0 0,0l-1 1c0,0 0,0 0,0 0,0 0,0 0,0 0,0 1,-1 1,-1 0,-1 0,-1 0,-1 0,1 0,1 -1,1 0,0 0,0 0,1 0,0 0,0 0,0 0,0 0,0 0,0l0 0c-1,0 -1,0 -1,0 0,0 0,0 0,0 0,0 0,0 1,-1 0,0 0,0 0,0 0,0 -1,0 -1,0l0 1c0,0 0,0 0,0 0,0 0,0 0,0 0,0 -1,0 -1,1 0,0 0,0 0,0 0,0 0,0 -1,0 0,1 -1,1 -1,1 0,0 0,0 0,0 0,1 0,1 0,1 0,0 0,0 0,0 0,0 0,0 0,0l1 -1c0,0 0,0 0,0 0,0 0,0 0,0 0,0 -1,0 -1,1l0 0c-1,0 -1,0 -1,1 -1,0 -1,0 -1,0 0,0 -1,0 -1,0 0,0 0,1 0,1 1,0 1,0 1,0 0,0 1,0 1,0 0,0 1,0 1,0 0,0 0,0 0,0 0,0 1,0 1,0l0 0c1,1 1,1 2,1 0,0 1,0 2,0 0,0 0,0 0,0 1,0 1,0 1,0 1,0 1,0 1,0 0,0 0,0 0,0 0,0 0,0 1,0 0,0 0,0 0,0 0,0 0,0 1,0 0,0 0,0 1,0 0,0 1,0 2,0 0,0 0,-1 0,-1 0,0 1,0 1,0l1 -1c0,0 1,0 1,0 0,0 0,-1 0,-1 0,0 0,0 0,0l0 0c1,0 1,0 1,0l0 0c0,0 0,0 0,0 0,0 0,0 0,0 1,0 1,0 1,0 0,0 1,0 0,0 0,0 0,0 -1,0 0,0 0,0 0,-1 0,0 -1,0 -1,0 1,0 1,0 2,0 0,0 0,0 0,0 0,0 0,0 0,0 -1,0 -2,0 -2,0 0,0 0,0 0,0 0,-1 1,0 1,-1 -1,0 -1,0 -1,0 0,0 0,0 0,0 0,0 0,0 0,0 -1,0 -1,0 -1,0 0,0 0,0 0,0 0,0 -1,0 -1,0l1 0c0,0 0,0 1,0 -1,0 -1,0 -1,0 0,0 0,0 -1,0 0,0 0,0 0,0 0,-1 1,-1 1,-1 0,0 0,0 -1,0 0,0 0,0 0,0 0,0 0,0 0,0 0,0 0,0 0,0 0,0 -1,0 -1,0 0,0 0,0 0,0 0,0 1,0 1,0 0,-1 0,-1 0,-1 0,0 0,0 0,0l-1 0c0,0 -1,1 -1,1 0,0 1,-1 1,-1 0,0 0,-1 0,-1 0,0 0,0 -1,1 0,0 0,0 0,0 0,0 0,0 -1,0 0,0 0,0 0,0 0,0 0,0 0,0 0,0 0,0 0,0 1,0 1,-1 1,-1 0,0 -1,0 -1,1 0,0 -1,0 -1,0 0,0 0,0 0,0 0,0 0,-1 0,-1 1,0 1,0 1,0l0 0c0,0 0,0 0,0 0,0 0,0 0,0 0,0 0,-1 0,-1 1,0 1,0 1,0 -1,0 -1,1 -2,1 0,0 0,1 -1,1 0,0 0,0 0,0l0 0z"/>
   <path class="fil2" d="M164 40c2,0 3,0 4,0 1,-1 2,-2 3,-2 1,0 1,-1 1,-1 0,0 0,-1 -1,-1 -1,0 -1,-1 -2,-1 -1,0 -1,0 -1,-1 0,1 0,1 0,1 0,2 0,4 -2,5 0,0 0,0 -1,0 0,0 0,0 -1,0l0 0z"/>
   <path class="fil3" d="M162 40c0,0 0,0 0,0 0,0 0,0 0,0 -2,-1 -3,-2 -3,-4 0,0 0,0 0,-1 0,1 0,1 0,1 -1,0 -1,0 -2,1 0,0 0,0 0,0 -1,0 -1,0 -1,1 0,0 0,0 0,0 0,1 0,0 1,1 1,0 3,1 4,1 0,0 1,0 1,0z"/>
   <path class="fil1" d="M164 35c-1,0 -2,1 -2,2 0,1 1,2 2,1 1,0 2,0 2,-2 -1,-1 -1,-1 -2,-1z"/>
   <path class="fil1" d="M164 41c-1,0 -2,0 -4,-1 0,0 0,0 0,0 0,0 0,0 0,0 -1,0 -1,0 -1,0 0,0 0,0 0,0 0,0 0,0 0,0 1,0 1,0 2,1 0,0 0,0 0,0 0,0 0,0 0,0 0,0 0,0 1,0 0,0 0,0 0,0 0,0 0,0 0,0 0,0 0,0 0,0 0,0 0,0 0,0 0,0 1,0 1,0 0,0 0,1 0,1 0,0 0,-1 0,-1 0,0 0,0 0,0 0,0 0,0 1,0 0,0 0,0 0,1 0,0 0,0 0,0 0,-1 0,-1 0,-1 0,0 0,0 0,0 0,0 0,0 1,1 0,0 0,0 0,0 0,0 -1,-1 -1,-1 1,0 1,0 1,0 0,1 1,1 1,1 0,0 0,0 0,0 0,0 0,0 0,0l-1 -1c0,0 0,0 0,0 0,0 0,0 0,0 0,0 1,0 0,0 1,0 1,0 1,1 0,0 0,0 0,0 0,0 0,-1 0,-1 0,0 0,0 0,0 0,0 0,0 0,0 0,0 0,0 0,0 0,0 0,0 1,0 0,0 0,0 0,0 0,0 0,0 0,0 0,0 -1,0 -1,0 1,0 2,1 2,1 0,0 0,-1 0,-1 0,0 0,0 0,0l-1 0c1,0 1,0 1,0 1,0 1,0 1,0 0,0 0,0 0,0 -1,0 -1,0 -1,0 0,0 0,0 -1,0 1,0 1,0 2,0 0,0 0,0 1,0 0,0 0,0 0,0 0,0 0,0 0,0 0,0 0,0 0,0l0 0c-1,0 -1,-1 -1,-1 0,0 0,0 -1,0 1,0 1,0 2,0 0,1 0,1 1,1 0,0 -1,-1 -2,-1 0,0 0,0 0,0 0,0 0,0 0,0 0,0 1,0 1,0 0,0 1,0 1,0 0,0 0,0 -1,0 0,0 0,0 0,0 0,-1 1,-1 1,-1 0,0 0,0 0,0 0,0 1,0 1,0 0,0 -1,0 -1,0 0,0 0,0 0,0 0,0 0,0 1,0 0,0 0,0 0,0 0,0 0,0 -1,0l0 0c0,-1 1,-1 1,0 0,0 1,0 1,0 0,-1 -1,-1 -1,-1 0,0 0,0 1,0 0,0 0,0 0,0 0,0 0,0 0,0 0,0 0,0 0,0 0,0 0,0 1,0 0,0 0,0 0,0 0,-1 -1,-1 -2,-1 0,1 0,1 0,1l0 0c0,0 0,0 0,0 -1,0 -1,1 -1,1 -1,0 -1,0 -2,1 0,0 -1,0 -1,0 -1,1 -2,1 -4,1l0 0z"/>
   <path class="fil3" d="M156 39c0,0 0,-1 0,-1 0,0 0,0 0,0 0,0 0,0 0,0 -1,0 -1,0 -1,0 0,0 0,0 0,1l1 0z"/>
   <path class="fil3" d="M155 39c0,0 0,0 0,0 0,-1 0,-1 0,-1 0,0 -1,0 0,1 0,0 0,0 0,0l0 0z"/>
  </g>
  <path class="fil0" d="M137 35c-1,0 -1,0 -1,1 -1,2 0,2 1,2 1,1 2,0 2,-1 0,-1 -1,-2 -2,-2zm5 0c0,1 0,1 0,1 0,2 -1,3 -3,4 0,0 0,0 0,0 0,0 0,0 0,0 0,0 -1,0 -1,0 -1,0 -1,0 -1,0 -1,0 -1,0 -1,0 -1,0 -1,0 -1,0 -2,-1 -2,-3 -2,-5 0,0 0,0 0,-1 0,0 1,0 1,0 3,-1 5,0 7,1 0,0 0,0 1,0z"/>
  <path class="fil1" d="M146 39c0,0 0,0 0,0 1,-1 0,-1 0,-1 0,0 0,0 0,1 0,0 0,0 0,0l0 0zm-1 0l1 0c0,-1 0,-1 0,-1 0,0 0,0 -1,0 0,0 0,0 0,0 0,0 0,0 0,0 0,0 0,1 0,1zm-8 1c0,0 0,0 1,0 0,0 1,0 1,0 0,0 1,0 1,0 1,0 3,-1 4,-1 1,-1 1,0 1,-1 0,0 0,0 0,0 0,-1 0,-1 0,-1 -1,0 -1,0 -1,0 -1,-1 -1,-1 -2,-1 0,0 0,0 0,-1 -1,0 -1,0 -1,0 -2,-1 -4,-2 -7,-1 0,0 -1,0 -1,0 0,1 0,1 -1,1 -1,0 -1,1 -2,1 -1,0 -1,1 -1,1 0,0 1,1 1,1 1,0 2,1 3,2 1,0 2,0 4,0l0 0zm6 -4c0,0 0,0 0,0 0,0 0,0 0,0zm0 0c0,-1 0,0 0,-1 0,1 0,1 0,1zm0 -1c0,0 0,0 0,0 0,0 0,0 0,0zm0 0l0 0 0 0zm-1 0l1 0 -1 0zm0 0l0 0 0 0zm0 0l0 0zm0 0l0 0c0,0 0,0 0,0zm-6 -2l0 0zm0 0c0,0 0,0 0,-1 0,0 0,0 0,0 0,0 0,0 0,0l0 1c0,0 0,0 0,0 0,0 1,0 1,0 0,0 0,0 0,0 0,0 -1,-1 -1,-1l0 0c0,0 0,0 0,0 0,0 0,0 0,0 0,0 1,1 2,1 0,0 0,0 -1,0l0 -1c0,0 0,0 0,0 0,0 0,0 0,-1 0,0 0,0 0,0l0 1c0,0 0,0 0,0 0,0 0,0 0,0l1 0c0,1 0,1 0,1 0,0 1,0 1,0 0,0 0,0 -1,0 0,-1 0,-1 0,-1 0,0 0,0 0,0 0,0 1,1 1,1 0,0 0,0 0,0 0,0 0,0 0,0l1 1c0,0 0,0 0,0 0,0 0,0 0,0 0,0 -1,-1 -1,-1 0,-1 0,-1 0,-1 0,1 1,1 1,1 0,0 0,0 0,1 0,0 0,0 0,0 0,0 0,0 0,0l0 0c1,0 1,0 1,0 0,0 0,0 0,0 0,0 0,0 -1,-1 0,0 0,0 0,0 0,0 1,0 1,0l0 1c0,0 0,0 0,0 0,0 0,0 0,0 0,0 1,0 1,1 0,0 0,0 0,0 1,0 1,0 1,0 0,1 1,1 1,1 0,0 0,0 0,0 0,1 0,1 1,1 -1,0 -1,0 -1,0 0,0 0,0 0,0l-1 -1c0,0 0,0 0,0 0,0 0,0 0,0 0,0 1,0 1,1l0 0c1,0 1,0 1,1 1,0 1,0 1,0 0,0 1,0 1,0 0,0 0,1 0,1 -1,0 -1,0 -1,0 0,0 -1,0 -1,0 0,0 0,0 -1,0 0,0 0,0 0,0 0,0 0,0 -1,0l0 0c-1,1 -1,1 -2,1 0,0 -1,0 -1,0 -1,0 -1,0 -1,0 -1,0 -1,0 -1,0 0,0 -1,0 -1,0 0,0 0,0 0,0 0,0 0,0 -1,0 0,0 0,0 0,0 0,0 0,0 0,0 -1,0 -1,0 -2,0 0,0 -1,0 -2,0 0,0 0,-1 0,-1 0,0 -1,0 -1,0l-1 -1c0,0 0,0 -1,0 0,0 0,-1 0,-1 0,0 0,0 0,0l0 0c0,0 -1,0 -1,0l0 0c0,0 0,0 0,0 0,0 0,0 0,0 -1,0 -1,0 -1,0 0,0 0,0 0,0 0,0 0,0 1,0 0,0 0,0 0,-1 0,0 1,0 1,0 -1,0 -1,0 -2,0 0,0 0,0 0,0 0,0 0,0 0,0 1,0 2,0 2,0 0,0 0,0 0,0 0,-1 0,0 0,-1 0,0 0,0 0,0 0,0 0,0 0,0 0,0 0,0 0,0 1,0 1,0 1,0 0,0 0,0 0,0 1,0 1,0 1,0l-1 0c0,0 0,0 0,0 0,0 0,0 0,0 0,0 0,0 1,0 0,0 0,0 0,0 0,-1 -1,-1 -1,-1 0,0 1,0 1,0 0,0 0,0 0,0 0,0 0,0 0,0 0,0 0,0 0,0 0,0 1,0 1,0 0,0 0,0 0,0 0,0 0,0 -1,0 0,-1 0,-1 0,-1 0,0 0,0 0,0l1 0c0,0 1,1 1,1 0,0 -1,-1 -1,-1 0,0 0,-1 0,-1 0,0 0,0 1,1 0,0 0,0 0,0 0,0 0,0 1,0 0,0 0,0 0,0 0,0 0,0 0,0 0,0 0,0 0,0 0,0 -1,-1 -1,-1 0,0 1,0 1,1 0,0 1,0 1,0 0,0 0,0 0,0 0,0 0,-1 0,-1 0,0 -1,0 -1,0l0 0c0,0 0,0 0,0 0,0 0,0 0,0 0,0 0,-1 0,-1 0,0 -1,0 -1,0 1,0 1,1 2,1 0,0 0,1 1,1 0,0 0,0 0,0l0 0z"/>
  <path class="fil2" d="M137 40c-2,0 -3,0 -4,0 -1,-1 -2,-2 -3,-2 0,0 -1,-1 -1,-1 0,0 0,-1 1,-1 1,0 1,-1 2,-1 1,0 1,0 1,-1 0,1 0,1 0,1 0,2 0,4 2,5 0,0 0,0 1,0 0,0 0,0 1,0l0 0z"/>
  <path class="fil3" d="M139 40c0,0 0,0 0,0 0,0 0,0 0,0 2,-1 3,-2 3,-4 0,0 0,0 0,-1 0,1 0,1 0,1 1,0 1,0 2,1 0,0 0,0 1,0 0,0 0,0 0,1 0,0 0,0 0,0 0,1 0,0 -1,1 -1,0 -3,1 -4,1 0,0 -1,0 -1,0z"/>
  <path class="fil1" d="M137 35c1,0 2,1 2,2 0,1 -1,2 -2,1 -1,0 -2,0 -1,-2 0,-1 0,-1 1,-1z"/>
  <path class="fil1" d="M137 41c1,0 2,0 4,-1 0,0 0,0 0,0 0,0 0,0 0,0 1,0 1,0 1,0 0,0 0,0 0,0 0,0 0,0 0,0 -1,0 -1,0 -2,1 0,0 0,0 0,0 0,0 0,0 0,0 0,0 0,0 0,0 -1,0 -1,0 -1,0 0,0 0,0 0,0 0,0 0,0 0,0 0,0 0,0 0,0 0,0 -1,0 -1,0 0,0 0,1 0,1 0,0 0,-1 0,-1 0,0 0,0 0,0 0,0 0,0 -1,0 0,0 0,0 0,1 0,0 0,0 0,0 0,-1 0,-1 0,-1 0,0 0,0 0,0 0,0 0,0 -1,1 0,0 0,0 0,0 0,0 1,-1 1,-1 0,0 -1,0 -1,0 0,1 -1,1 -1,1 0,0 0,0 0,0 0,0 0,0 0,0l1 -1c0,0 0,0 0,0 0,0 0,0 0,0 0,0 -1,0 0,0 -1,0 -1,0 -1,1 0,0 0,0 0,0 0,0 0,-1 0,-1 0,0 0,0 0,0 0,0 0,0 0,0 0,0 0,0 0,0 0,0 0,0 -1,0 0,0 0,0 0,0 0,0 0,0 0,0 0,0 1,0 1,0 -1,0 -2,1 -2,1 0,0 0,-1 0,-1 0,0 0,0 0,0l1 0c-1,0 -1,0 -1,0 -1,0 -1,0 -1,0 0,0 0,0 0,0 1,0 1,0 1,0 1,0 1,0 1,0 -1,0 -1,0 -2,0 0,0 0,0 -1,0 0,0 0,0 0,0 0,0 0,0 0,0 0,0 0,0 0,0l0 0c1,0 1,-1 1,-1 0,0 1,0 1,0 -1,0 -1,0 -1,0 -1,1 -1,1 -1,1 0,0 0,-1 1,-1 0,0 0,0 0,0 0,0 0,0 0,0 0,0 -1,0 -1,0 0,0 -1,0 -1,0 0,0 0,0 1,0 0,0 0,0 0,0 0,-1 -1,-1 -1,-1 0,0 0,0 0,0 0,0 -1,0 -1,0 0,0 1,0 1,0 0,0 0,0 0,0 0,0 0,0 -1,0 0,0 0,0 0,0 0,0 0,0 1,0l0 0c0,-1 -1,-1 -1,0 0,0 -1,0 -1,0 0,-1 1,-1 1,-1 0,0 0,0 0,0 -1,0 -1,0 -1,0 0,0 0,0 0,0 0,0 0,0 0,0 0,0 0,0 0,0 -1,0 -1,0 -1,0 0,-1 1,-1 2,-1 0,1 0,1 0,1l0 0c0,0 0,0 0,0 1,0 1,1 1,1 1,0 1,0 2,1 0,0 1,0 1,0 1,1 3,1 4,1l0 0z"/>
  <path class="fil3" d="M145 39c0,0 0,-1 0,-1 0,0 0,0 0,0 0,0 0,0 0,0 1,0 1,0 1,0 0,0 0,0 0,1l-1 0z"/>
  <path class="fil3" d="M146 39c0,0 0,0 0,0 0,-1 0,-1 0,-1 0,0 1,0 0,1 0,0 0,0 0,0l0 0z"/>
 </g>
</svg>
