<?xml version="1.0" encoding="utf-8"?>
<!-- Generator: Adobe Illustrator 23.0.1, SVG Export Plug-In . SVG Version: 6.00 Build 0)  -->
<svg version="1.1" id="Layer_1" xmlns="http://www.w3.org/2000/svg" xmlns:xlink="http://www.w3.org/1999/xlink" x="0px" y="0px"
	 viewBox="0 0 300 500" style="enable-background:new 0 0 300 500;" xml:space="preserve">
<style type="text/css">
	.st0{fill:#C68642;}
	.st1{opacity:0.14;fill:#422200;enable-background:new    ;}
</style>
<g>
	<path class="st0" d="M173.7,46.4c-3.8,19.1-11.1,29.3-24.5,29.3s-20.9-11.9-23.6-31.3c-2.7-19.2,10.9-35.1,24.3-35.1
		S177.2,29.2,173.7,46.4z"/>
	<path class="st1" d="M137.59,73.1c-0.28,0.7,0,1.4,0.47,1.9c3.2,2.9,22.01,4.4,11.57,4.4c5.17,0,9.41-1.7,12.79-5
		c-0.09-0.3-0.19-0.7-0.28-0.9l0,0c-0.19-0.8-0.85-1.3-1.6-1.3L139.19,72C138.44,71.9,137.88,72.4,137.59,73.1L137.59,73.1z"/>
</g>
</svg>
