<?xml version="1.0" encoding="UTF-8" standalone="no"?>
<svg
   xmlns:dc="http://purl.org/dc/elements/1.1/"
   xmlns:cc="http://creativecommons.org/ns#"
   xmlns:rdf="http://www.w3.org/1999/02/22-rdf-syntax-ns#"
   xmlns:svg="http://www.w3.org/2000/svg"
   xmlns="http://www.w3.org/2000/svg"
   version="1.1"
   id="Layer_1"
   x="0px"
   y="0px"
   viewBox="0 0 288 560"
   style="enable-background:new 0 0 288 560;"
   xml:space="preserve"><metadata
   id="metadata2007"><rdf:RDF><cc:Work
       rdf:about=""><dc:format>image/svg+xml</dc:format><dc:type
         rdf:resource="http://purl.org/dc/dcmitype/StillImage" /><dc:title></dc:title></cc:Work></rdf:RDF></metadata><defs
   id="defs2005" />

<path
   style="fill:#e0ac69"
   d="M 144.18945 154.78906 C 137.56945 154.78906 132.18945 161.64937 132.18945 170.10938 L 132.18945 170.26953 C 132.17945 172.19953 132.29063 174.3993 132.64062 176.7793 C 133.30062 181.2993 134.59008 185.02961 135.83008 187.84961 C 135.81008 187.85961 136.09086 188.20953 136.13086 188.26953 C 136.20823 188.37856 136.34804 188.53801 136.48242 188.69141 A 3.4606285 5.4531116 0 0 0 136.52148 188.87305 C 136.29969 189.66799 136.07936 190.47943 135.86914 191.32031 C 135.37914 193.30031 134.98969 195.19047 134.67969 196.98047 C 132.77969 198.22047 130.54 197.60031 128.5 198.07031 C 125.27 198.81031 121.46984 197.97023 119.08984 201.24023 C 115.41984 201.76023 113.96039 204.28906 112.90039 207.53906 C 104.01039 234.88906 98.459063 263.06031 92.289062 291.07031 C 91.429063 294.95031 92.000391 298.74086 95.150391 301.63086 C 97.040391 303.36086 99.010859 307.00977 101.38086 305.50977 C 103.83086 303.95977 100.6907 301.19094 99.970703 298.96094 C 99.670703 298.03094 99.100313 296.94914 99.320312 296.11914 C 99.930312 293.83914 99.440625 290.0793 103.89062 291.7793 C 104.70063 292.0893 105.52016 292.35008 106.16016 291.58008 C 107.16016 290.37008 106.31008 289.23047 105.58008 288.48047 C 102.84008 285.64047 103.3193 282.74008 104.5293 279.33008 C 109.8593 264.32008 114.96039 249.23969 120.15039 234.17969 C 121.37776 232.31195 120.46504 230.48358 120.13477 228.63867 A 2.9887247 3.0411584 0 0 0 121.30078 226.60938 C 127.17525 224.46778 132.53406 225.08482 137.18945 229.73047 C 137.50945 230.05047 138.13086 230.0093 138.63086 230.0293 C 142.36086 229.5893 146.09008 229.51914 149.83008 229.86914 C 155.5509 226.75316 161.24494 223.51695 168 226.61719 C 167.98767 226.54399 167.97102 226.47556 167.95703 226.4043 A 2.7265558 3.8800986 0 0 0 168.03125 226.44922 A 4.2310276 2.0918667 0 0 0 168.05859 226.64258 C 168.03897 226.63347 168.01961 226.62619 168 226.61719 C 168.04979 226.9127 168.08779 227.22227 168.10938 227.55078 C 168.31658 227.67986 168.52565 227.80842 168.73438 227.9375 A 1.8351818 2.0973506 0 0 0 168.73242 227.99023 A 1.8351818 2.0973506 0 0 0 168.86719 228.77344 C 168.43332 230.6107 167.44584 232.38133 168.24023 234.35938 C 174.13023 248.09938 178.22992 262.46906 183.16992 276.53906 C 184.67992 280.84906 187.09086 284.8207 182.88086 289.2207 C 181.14086 291.0407 182.35086 292.80906 185.13086 291.78906 C 188.37086 290.58906 188.78969 292.5907 189.17969 294.9707 C 189.64969 297.8507 188.19977 300.11047 187.00977 302.48047 C 186.47977 303.54047 185.90062 304.70961 187.14062 305.59961 C 187.55062 305.89961 188.42094 305.86992 188.96094 305.66992 C 193.16094 304.13992 197.12938 296.93039 196.35938 292.40039 C 192.00938 266.84039 185.52063 241.76047 178.89062 216.73047 C 177.25063 210.55047 176.21055 203.45984 169.06055 200.33984 C 167.37055 198.60984 165.09906 198.95992 163.03906 198.66992 C 158.78906 198.06992 156.6807 197.78008 155.4707 196.58008 C 154.6607 195.78008 154.21055 193.62063 153.31055 189.39062 C 153.17471 188.75413 153.11322 188.39452 153.00391 187.8457 C 152.99884 187.85031 152.99534 187.85478 152.99023 187.85938 C 152.98587 187.8633 152.98287 187.86524 152.97852 187.86914 A 5.767714 9.7526808 0 0 0 152.96289 187.63867 C 152.97707 187.71045 152.98926 187.77216 153.00391 187.8457 C 153.29646 187.57998 153.52235 187.30616 153.68945 187.08008 C 153.83945 186.70008 153.99039 186.30992 154.15039 185.91992 C 154.26039 185.63992 154.38023 185.36961 154.49023 185.09961 C 156.62023 180.80961 156.28039 176.05008 156.15039 171.33008 C 156.15029 171.32682 156.1505 171.32357 156.15039 171.32031 C 156.18039 170.92031 156.18945 170.50961 156.18945 170.09961 C 156.18945 169.5729 156.16846 169.04614 156.11914 168.53906 C 156.08914 168.17906 156.05 167.83047 156 167.48047 C 155.95 167.25047 155.92039 167.00953 155.90039 166.76953 C 155.87039 166.62953 155.85031 166.47984 155.82031 166.33984 C 154.50031 159.69984 149.79945 154.78906 144.18945 154.78906 z M 155.82031 166.33008 C 155.85031 166.47008 155.87039 166.61977 155.90039 166.75977 C 155.92039 166.99977 155.95 167.2407 156 167.4707 C 156.05 167.8207 156.08914 168.1693 156.11914 168.5293 C 156.11914 168.2793 156.12086 168.0293 156.13086 167.7793 C 155.99086 167.3493 155.90062 166.90094 155.89062 166.46094 C 155.87062 166.41094 155.85031 166.37008 155.82031 166.33008 z M 159.01172 219.99805 A 6.4493532 6.0298829 0 0 0 159.02539 220.10547 C 158.98383 220.09341 158.94187 220.08249 158.90039 220.07031 C 158.93601 220.0411 158.97526 220.02445 159.01172 219.99805 z M 138.19922 234.90039 C 137.68922 234.89039 137.19094 234.96062 136.71094 235.14062 C 133.70094 237.92063 129.36031 237.55039 126.07031 239.65039 C 127.05031 246.55039 128.02977 253.43984 129.00977 260.33984 C 137.91977 270.17984 150.96094 269.85008 159.96094 260.58008 C 160.73094 253.65008 161.49953 246.7093 162.26953 239.7793 C 159.15953 237.5093 154.98 237.56953 152 235.01953 C 149.16 234.82953 146.32047 235.31016 143.48047 235.16016 C 141.71047 235.24016 139.94922 235.17039 138.19922 234.90039 z M 163.2793 268.5293 C 159.5193 272.5193 155.1193 275.75055 150.7793 279.06055 C 149.2893 280.20055 147.15086 280.95086 147.13086 283.38086 C 147.14086 323.69086 147.11016 363.99078 147.16016 404.30078 C 147.17016 415.70078 145.6393 414.34016 157.7793 414.41016 C 158.1093 414.41016 158.4493 414.41039 158.7793 414.40039 C 159.9693 414.37039 161.28094 414.31977 161.71094 413.00977 C 162.15094 411.68977 161.12969 410.75086 160.17969 410.13086 C 157.65969 408.47086 157.34047 406.62047 157.73047 403.48047 C 159.83047 386.53047 161.42016 369.51953 163.16016 352.51953 C 164.41016 340.30953 166.04023 328.12086 166.74023 315.88086 C 167.65023 299.99086 168.4193 284.0193 163.2793 268.5293 z M 125.10938 270.5293 C 122.27938 278.4493 121.41906 286.73977 121.28906 295.00977 C 121.05906 309.46977 122.53055 323.86047 124.06055 338.23047 C 126.29055 359.17047 128.10969 380.15906 130.92969 401.03906 C 131.39969 404.54906 132.3107 408.48094 127.9707 410.71094 C 127.0907 411.16094 126.47914 412.21977 126.86914 413.25977 C 127.26914 414.32977 128.38992 414.41016 129.41992 414.41016 C 131.91992 414.41016 134.43016 414.22922 136.91016 414.44922 C 140.14016 414.72922 141.29078 413.54023 141.30078 410.24023 C 141.36078 395.60023 141.61055 380.96008 141.81055 366.33008 C 142.19055 338.71008 141.45945 311.07922 141.18945 283.44922 C 137.66945 276.84922 131.31937 273.7793 125.10938 270.5293 z "
   id="path2000" />
<path
   style="fill:#ee537b"
   d="m 128.04101,224.28489 c -2.19504,-0.0457 -4.52657,0.67617 -7.03907,2.41992 -0.43,0.66 -1.48078,0.26985 -1.80078,1.08985 -0.62,2.41 0.29016,4.61914 0.91016,6.86914 1.78,1.69 3.61992,3.28976 5.91992,4.25976 4.37,0.42 8.23023,-0.60953 11.24023,-4.01953 l 0.32032,0.0391 0.32031,-0.0488 c 0.0161,0.007 0.0326,0.0104 0.0488,0.0176 -0.0129,-1e-5 -0.0261,0.002 -0.0391,0.002 1.57,1.07 3.28,0.81 5,0.5 -0.0153,-0.0106 -0.0316,-0.0151 -0.0469,-0.0254 0.0122,0.003 0.0249,0.003 0.0371,0.006 3.05268,0.35914 6.08494,0.45851 9.08789,-0.375 0.007,0.005 0.014,0.009 0.0215,0.0137 2.48,3.69 6.30898,3.94148 10.20898,4.02148 2.29,-0.97 4.46118,-2.12093 5.95118,-4.21093 0.92,-2.2 2.1907,-4.31914 1.7207,-6.86914 -0.23,-1 -1.3218,-0.60063 -1.8418,-1.14063 -6.94769,-4.91836 -12.57452,-1.7714 -17.96289,2.91602 -0.002,-0.005 -0.004,-0.0104 -0.006,-0.0156 -4.0074,-1.50902 -8.00455,-1.18984 -12.00195,-0.0117 -3.11192,-3.15518 -6.3912,-5.36134 -10.04883,-5.4375 z m 0.92968,35.32813 c -1.9,3.17 -3.31843,6.52117 -3.89843,10.20117 4.95999,4.81 11.32007,7.86992 16.08007,12.91992 1.98,-0.03 3.96922,-0.0501 5.94922,-0.0801 4.5,-3.51 8.96078,-7.10023 13.55078,-10.49023 1.57,-1.16 2.70985,-2.31938 2.58985,-4.35938 -1.1,-2.65 -2.21055,-5.30117 -3.31055,-7.95117 -1.17,0.57 -2.42023,1.03024 -3.49023,1.74024 -8.23,5.48 -16.36071,5.16976 -24.47071,-0.24024 -0.96,-0.64 -2,-1.16023 -3,-1.74023 z"
   id="path1970" /></svg>