<?xml version="1.0" encoding="utf-8"?>
<!-- Generator: Adobe Illustrator 23.0.1, SVG Export Plug-In . SVG Version: 6.00 Build 0)  -->
<svg version="1.1" id="Layer_1" xmlns="http://www.w3.org/2000/svg" xmlns:xlink="http://www.w3.org/1999/xlink" x="0px" y="0px"
	 viewBox="0 0 300 500" style="enable-background:new 0 0 300 500;" xml:space="preserve">
<style type="text/css">
	.st0{opacity:0.14;fill:#422200;enable-background:new    ;}
	.st1{fill:#C68642;}
	.st2{fill:none;stroke:#000000;}
	.st3{fill:#FF5555;}
	.st4{fill:#FF8080;}
</style>
<path class="st0" d="M132.9,121.2c4.4,5.3,9.9,8.1,16.6,8.1c6.9,0,12.5-2.6,17.1-7.8c-0.1-0.5-0.3-1-0.4-1.4
	c-0.1-0.6-0.2-1.4-0.3-2.1l-32-0.2C133.6,119,133.2,120.2,132.9,121.2z"/>
<path id="path3778" class="st1" d="M111.8,127.6c-3.2,0-6.5,0.6-9.9,2c-2.6,0.6-5.3,0.9-6.1,3.7c-1.2,7.9,2.2,14.4,8.3,19.9
	c9.7,4.8,19,5.2,27.5-2c2.6-2,5.5-1.5,8.3-2l0.2,0.2c6.9,0.9,13.8,0.9,20.7,0c2.8,0.4,6.1,0,8.5,2c8.5,7.2,17.8,6.8,27.5,1.8
	c5.5-5.2,9.5-10.7,8.3-18.2c-1.6-2.2-2.6-4.8-6.1-5.3c-8.5-3.3-16.6-2-24.3,1.7c-5.7,2.8-11.1,5.9-16.6,8.8c-4.5,0-8.9,0-13.4,0.2
	c-0.2,0-0.2,0-0.4,0l0.2-0.2c-4.5-1.7-8.9-3.9-13.2-6.3C125.2,130.4,118.7,127.6,111.8,127.6L111.8,127.6z M203.6,191.5
	c-0.8,0-2,0.6-3.6,1.8c-3.2,2.9-7.3,5.3-11.5,7.2c-29.8,12.5-58.3,11.6-85.5-6.1c-3.6-2.4-6.9-5.5-8.7,1.3c0,3.5,0,7.2,0.2,10.9
	c14.2,14.7,32.4,23.8,52.4,30h7.7c19.8-6.8,38.5-15.1,52.4-30v-10.9C205.9,193.9,205.4,191.5,203.6,191.5z"/>
<path id="path3770" class="st1" d="M135.1,66.6c-0.2,0.7-0.6,1.3-0.8,2c-0.2,0.4-0.6,1.5-1.8,4.4c-2,5.3-1.8,5.3-2.2,6.3
	c-0.8,1.8-2.6,4.2-6.5,6.6c-17-0.9-22.3,10.7-26.9,21.9c-17.8,43.6-37.3,86.7-52.4,131.1c-3.6,10.7-1.4,19.2,7.9,26.3
	c2.4,1.7,4.5,4.2,7.9,2.2c3.8-2.4,1.4-4.6-0.2-7c-3.2-4.6-1.6-8.8,1.2-12.9c1.2-1.7,2.2-3.1,4.5-0.7c1.8,1.8,4.1,4.2,6.7,1.8
	s1-5.5-0.8-7.6c-4.7-5.2-3.2-9.6-0.6-15.1c8.7-18.8,16.6-37.9,24.9-57.1c1.4-0.7,2.4-1.5,3-2.6c-0.4,2-1,4.1-0.8,6.3
	c-1,8.1-4.5,15.7-3.8,23.9c4.9-1.1,8.1,1.5,11.9,3.5c30.4,16.4,60.6,15.8,90.5-0.9c3.2-1.8,6.3-3.3,10.1-2.8
	c0.6-8.8-3.4-17.1-3.8-25.8c0-0.4,0-0.9,0-1.3c0.4,0.6,1,0.9,1.6,1.5c7.1,15.8,14.2,31.9,21.3,47.7c3.4,8.3,10.5,16.2,1.6,25.2
	c-1.4,1.5-1.6,4.2,0.8,5.7c2,1.1,4.1,0.2,5.3-1.5c3.2-4.1,4.3-1.3,6.1,1.3c3.2,4.4,3,8.5-0.2,12.7c-1.2,1.7-2.4,4.1,0.2,5.7
	c2.4,1.7,4.5,0.4,6.5-0.9c10.1-6.6,13.4-15.3,9.7-26.7c-5.9-18.6-13.2-36.7-20.7-54.7c-11.9-28.5-22.7-57.6-36.2-85.6
	c-4.5-9.2-11.9-13.6-22.9-13.4c-3.4-1.8-5.1-3.9-5.9-5.3c-0.6-1.5-0.6-2.2-2-6.8c-0.6-2.4-0.8-2.6-1.4-4.4c-0.2-0.9-0.6-2-1-3.3
	C177,55.8,145,23.2,133.5,22.6C132.9,22.7,125,56.7,135.1,66.6z M192.2,130.8c1.8,0,3.8,0.4,5.9,0.7c0.6-0.2,1.2-0.4,1.6-0.7
	c0.6,0.6,1,0.9,1.6,1.5c0.2,0.9,0.6,2,0.6,3.1c1.4,6.8-2.8,11.6-6.1,16.9c-0.2,0.6-0.2,1.1,0,1.7c-10.5,1.5-20.3,0.2-29.6-5.3
	c-1.8-1.1-4.5-0.9-6.9-0.9h-18c-12.6,1.7-23.7,9.9-37.3,6.1c0,0,0,0-0.2,0c0-0.2,0-0.2,0.2-0.4c-2.6-6.3-7.5-12-6.3-19.2
	c0-0.6,0.2-1.1,0.2-1.8c0.8-0.6,1.6-0.9,2.4-1.5c0.4,0.2,1,0.6,1.8,0.7c10.9-1.8,20.7,1.1,29.6,6.4c4.1,2.4,8.5,3.9,13,5
	c4.1,0.7,8.3,0.7,12.6-0.2C168.9,138.4,179.3,130.5,192.2,130.8L192.2,130.8z M205.2,207.3c-3,0.2-5.3,2.4-7.1,4.2
	c-7.1,7.4-16.4,11.4-25.3,16c-6.3,3.3-14.2,3.9-18.8,9.8c0.2,74.2,0.4,148.4,0.4,222.7c0,18.2,0.4,18.4,20.3,16.6
	c2-0.2,4.7,0.4,5.1-2c0.4-1.3-0.4-3.5-1.6-4.1c-7.9-4.4-4.9-10.1-3.2-16.2c5.7-21.5,12.4-43.1,16.2-65.2c4.7-27.3,7.9-54.5,10.5-82
	c3.2-33.2,6.5-66.5,5.1-99.8C206.2,207.3,205.6,207.3,205.2,207.3L205.2,207.3z M95,207.6c-0.4,0-0.6,0-1,0
	c-1.4,18.6,0.4,37.4,1.2,56c1,26,4.1,51.9,6.9,77.7c4.3,40,13,79.2,24.5,117.9c1.2,4.2,1.4,7.6-2.6,10.7c-1.6,1.3-4.3,2.8-3.2,5.2
	c1.2,2.9,4.7,1.5,7.1,1.7c2,0.2,4.1-0.2,6.1-0.2l0.2-0.2h4.1h2c1.8,0,3,0,3.8-1.5c0,0,0,0.2,0.2,0.2c3-2.9,1.8-6.4,1.8-9.8v-47.7
	c0.2-60,0.2-119.9,0.4-179.9c-1.2-2.6-3.6-3.5-6.1-4.4c-15.2-5.2-28.6-12.7-40.1-23.2C98.9,208.7,97.2,207.6,95,207.6z M134.1,469.7
	v0.4C133.5,470.5,133.7,469.9,134.1,469.7z"/>
<g>
	<path class="st1" d="M173.7,46.4c-3.8,19.1-11.1,29.3-24.5,29.3s-20.9-11.9-23.6-31.3c-2.7-19.2,10.9-35.1,24.3-35.1
		S177.2,29.2,173.7,46.4z"/>
	<path class="st0" d="M137.6,73.1c-0.3,0.7,0,1.4,0.5,1.9c3.2,2.9,22,4.4,11.6,4.4c5.2,0,9.4-1.7,12.8-5c-0.1-0.3-0.2-0.7-0.3-0.9
		l0,0c-0.2-0.8-0.9-1.3-1.6-1.3L139.2,72C138.4,71.9,137.9,72.4,137.6,73.1L137.6,73.1z"/>
</g>
<path id="path4642" d="M115.4,132c-0.1,0-0.2,0-0.3,0c-0.3,0.1-0.6,0.3-0.9,0.6c-0.7,4.5-0.5,9,1.6,13.2c3,5,8.1,6.5,13.2,8
	c6.6-0.3,11-4.6,15.6-8.5c3.2,0.1,6.3,0.1,9.5,0.2c5.1,3.7,10,8.1,16.9,8c4.8-1.2,9.2-3.1,11.9-7.6l3.3-9.4c-1.4-1.3,0-5-3.7-4.3
	c-10.6-1-20,1.7-28.4,8.2c-3.2-1-6.3-0.9-9.5,0.1c-8.1-7.5-17.9-9.2-28.4-8.3C115.9,132,115.7,132,115.4,132L115.4,132z
	 M115.9,192.8c-3.3,4.5-6.6,9.1-10,13.7c7.7,17.1,23.1,24.9,38.7,32.6c3.1-0.1,6.3-0.1,9.4-0.2c16.5-5.9,29.2-16.7,39.6-30.5
	c-2.3-6-6.7-10.7-10.8-15.6c-7.1,4.6-14.1,9.5-21.4,13.8c-7.6,4.6-14.9,4.7-23.2,0.2C130.4,202.6,123.7,196.9,115.9,192.8z"/>
<path id="path54" class="st2" d="M119.7,111.1l-4.3,22.5l0.4,12.2l2.5,3.8l6.2,3.4l4.5,0.8l2.3,7.7l0.3,7.3l-1.7,5.9
	c0,0-2.3,5.6-3.4,5.9s-6.8,7.3-6.8,7.3l-3.9,5l-9.8,13.6l-2.6,8.4l-1.4,9.6l-0.8,11l-0.3,10.7v20.3l0.8,16.1l2,22.5l4.2,47.3
	l3.1,27.6l3.9,28.5l4.2,26.8l3.9,22.5l53.5,2.5l11.8-81.4l5.6-53.5l3.4-40.8l0.6-51.3l-1.7-18.9l-5.1-11.3l-8.5-10.4l-8.2-9.9
	l-5.9-7.3l-2-9l4.2-13l5.6-1.6l6.4-5.6l1.2-11.8l-7.6-22.6L119.7,111.1z"/>
<path id="path62" class="st3" d="M146.3,142.5c-0.5-0.1-2.7-1.1-4.8-2.1c-5.5-2.7-8.8-3.7-19.3-5.8c-3.1-0.6-5.6-1.1-5.6-1.1
	c0,0,0-0.5,0.2-1.1c0.1-0.6,0.1-1.1,0-1.1c-0.1,0,0.6-4.4,1.7-9.7l1.9-9.7l5.5,0c9.5,0,50.4,0.7,50.5,0.8c0.1,0.1,1.6,4.5,3.4,9.9
	c2.8,8.3,3.2,9.9,2.9,10.4c-0.3,0.6-0.7,0.7-3.7,1.3c-8.4,1.6-16.2,4-21.8,6.7l-3.2,1.6l-3.2,0.1
	C148.7,142.7,146.8,142.6,146.3,142.5L146.3,142.5z M166.7,121.9c-0.1-0.2-0.5-0.3-0.9-0.3l-0.8,0l0.7,0.2
	C166.7,122.2,166.9,122.2,166.7,121.9L166.7,121.9z"/>
<path id="path64" class="st3" d="M145,211.6c-6.4-1.2-13-4.5-19.7-10c-3.8-3-8.9-7.9-8.8-8.4c0.5-1.3,8.4-10.5,10.5-12.4
	c1.3-1.1,2.9-4.5,4.2-8.6l1-3.5L132,165c-0.2-3.3-0.4-4.3-1.3-7.7l-1.1-3.9l0.8-0.7c2.7-2.3,9.3-6.2,13.5-8.2
	c1.6-0.7,1.9-0.8,5.4-0.8l3.7,0l3.9,1.8c4.5,2,8.7,4.3,11.6,6.3c1.9,1.3,2,1.4,1.8,2.1c-0.1,0.4-1.1,3.3-2.1,6.4
	c-1,3.1-1.8,5.9-1.8,6.2c0,1.1,1.9,9.1,2.3,9.7c0.2,0.4,3.4,4.3,7.1,8.8l6.7,8.1l-2,2.3c-3.3,3.7-8.3,8-12.3,10.7
	c-2.8,1.9-7.9,4.2-10.9,5C153.5,212,148.3,212.2,145,211.6L145,211.6z"/>
<path id="path66" class="st3" d="M126.5,152.7c-1.3-0.3-2.9-0.9-4.8-2c-2.7-1.5-3-1.7-4.1-3.4l-1.2-1.9l0.3-1.6
	c0.4-2.1,0.4-4-0.1-6.4c-0.2-1.1-0.4-2.7-0.4-3.5s0.1-1.3,0.2-1c0.1,0.5,0.7,0.7,5,1.5c10.5,2,16.1,3.8,21.3,6.5
	c2.2,1.2,3,1.5,4.9,1.7c3.1,0.4,6.2,0,8.4-1.1c5.6-2.8,13.7-5.4,22.4-7.1c1.7-0.3,3.4-0.7,3.7-0.7c0.4-0.1,0.6-0.3,0.6-0.6
	c0-0.4,0.1-0.4,0.4,0.1c0.4,0.5,0.4,1.1,0.3,3.5c-0.1,1.6-0.3,3.2-0.5,3.7c-0.5,1.3-0.8,3.2-0.5,4.1c0.1,0.5,0.2,1,0.1,1.2
	s-1.5,1.5-3.1,3c-3,2.6-3.1,2.7-5.7,3.4c-1.5,0.4-2.8,0.8-3,0.8c-0.2,0-1.1-0.5-2-1.1c-4.9-3.4-14-7.7-17.3-8.2
	c-3.7-0.5-5.9,0-10.4,2.3c-3.9,2.1-9.6,5.7-10.6,6.7C129.8,153.3,129.2,153.3,126.5,152.7L126.5,152.7z"/>
<path id="path68" class="st3" d="M182.5,193.4l-4.4,4.3c-8.3,8.2-14.9,12.2-22.7,13.9c-2.7,0.6-8.4,0.6-11.2,0
	c-8-1.7-16.7-7-25-15.2l-3-2.9l-4.9,6.8l-4.9,6.8l7.6,7.8c9.8,10.1,14.2,13.7,20,16.4c1.2,0.6,3.3,1.5,4.5,2.1
	c2.4,1.1,5.2,3.5,5.8,4.9l0.3,0.8l4.7-0.1c3.9-0.1,4.8-0.2,5-0.6c0.9-1.4,2.1-2.3,5.6-4.1c11.5-6,21.5-14.1,27.8-22.3
	c1.6-2.1,2.4-2.8,3.9-3.2c0.6-0.2,1.1-0.4,1.1-0.5s-0.5-1.2-1.1-2.5c-0.8-1.7-2.1-3.5-5.1-7.2L182.5,193.4z"/>
<path id="path70" class="st3" d="M106.5,207.5c-0.6,0.7-2.5,8.1-3.2,12.3c-1.3,8.6-1.6,14.1-1.8,30.7c-0.2,21.7-0.3,20.9,4.6,75.2
	c2.4,27.4,2.6,29.6,2.8,30.5l0.1,0.6h17.7h17.7l0-58.9c0-57.5,0-59-0.5-59.8c-1.2-2-2.9-3.2-8.3-5.9c-8.5-4.2-11.9-7-22.4-18
	C109.6,210.4,106.6,207.4,106.5,207.5L106.5,207.5z"/>
<path id="path72" class="st3" d="M154.4,297.5v-59.3l1.1-1c0.6-0.6,2.4-1.7,4-2.5c6.4-3.3,12.8-7.5,17.6-11.6
	c3.1-2.6,8.1-7.7,10.4-10.7c2.1-2.7,3.4-3.7,4.6-3.7c0.8,0,0.9,0.2,2.1,2.7l1.3,2.7l0.9,9.6l0.9,9.6l-0.2,24.9l-0.2,24.9l-1.7,20.6
	c-0.9,11.3-2.4,27.8-3.4,36.6c-0.9,8.8-1.7,16.2-1.7,16.3c0,0.1-8,0.2-17.9,0.2h-17.9V297.5z"/>
<path id="path74" class="st3" d="M163.4,459.1l-8.9-0.4v-50.9v-50.9h17.9h17.9l-0.1,0.9c-0.1,0.5-0.6,5.4-1.2,10.8
	c-0.7,6.8-2.8,21.9-6.6,48.6c-5,34.7-5.9,40.3-6.4,42C175.8,459.7,176.1,459.7,163.4,459.1L163.4,459.1z"/>
<path id="path76" class="st3" d="M133.4,457.7c-5.3-0.3-9.5-0.6-9.6-0.7c-0.7-0.7-7-39.8-10.2-62.7c-1.6-11.2-4.5-35.6-4.5-37.2
	c0-0.2,5.4-0.3,17.7-0.3h17.7l0,35.3c0,19.4,0.1,42.2,0.2,50.7l0.2,15.4l-1.1,0C143.2,458.2,138.5,458,133.4,457.7L133.4,457.7z"/>
<path id="path78" class="st3" d="M146.9,458.3l-1.7-0.1l-0.2-4.4c-0.1-2.4-0.2-51.7-0.2-109.6l0-105.1h4.6h4.6v109.7v109.7l-2.7-0.1
	C149.9,458.4,147.9,458.4,146.9,458.3L146.9,458.3z"/>
<path id="path80" class="st3" d="M122,111.9c-1.1,0-1.7,0-1.7,0.1c-0.2,0.3-3.4,17.1-3.5,18.8c-0.1,0.6-0.1,1.5-0.1,1.9
	c0,0.5-0.2,0.7-0.3,0.6c-0.4-0.3-0.4,1,0.2,4.4c0.4,2.6,0.4,3.4,0.1,5.4l-0.3,2.4l1.1,1.7c1.3,2,1.9,2.4,5.3,4.1
	c3,1.5,6.2,2.2,7.1,1.5c2.1-1.5,3.1-2.2,3.1-2.1c0,0.1-0.5,0.5-1.2,1c-2.5,1.8-2.3,1.2-1.2,5.1c1.1,3.8,1.5,6.7,1.5,10.3
	c0,1.9-0.2,2.9-1.1,5.6c-1.6,4.9-2.5,6.5-5.4,9.5c-2.9,3.1-8.4,9.5-8.8,10.5c-0.3,0.6-0.1,0.9,2.4,3.4l2.7,2.7l-2.8-2.7l-2.8-2.7
	l-4.9,6.8l-4.9,6.8l6.1,6.3c3.4,3.5,7.6,7.7,9.4,9.3c1.8,1.6,3.6,3.3,4.1,3.7c0.5,0.4,0,0.1-1-0.6c-1-0.7-5.6-5.2-10.2-9.8l-8.4-8.4
	l-0.4,1c-0.2,0.6-0.9,2.8-1.4,4.9c-2,8.2-2.6,14.7-3,32.4c-0.4,17.6-0.2,25.4,1.2,41.7c1.2,14.7,5.8,66.6,6.1,68.2l0.2,1.1h17.7
	h17.7l-0.1-58.8c-0.1-66.2,0.1-59.8-2.4-62c-0.8-0.6-2.7-1.9-4.4-2.7s-3-1.6-3-1.7s1.4,0.6,3.1,1.4c3.4,1.7,5.6,3.6,6.5,5.2
	c0.5,1.1,0.5,2.1,0.5,59.8v58.7h4.6h4.6V298c0-52.1,0-58.9-0.4-58.9c-0.6,0-0.5-0.5,0.1-0.6c0.6-0.1,0.6,0,0.6,59.2v59.3l17.7-0.1
	c9.7-0.1,17.8-0.2,17.9-0.2c0.4-0.4,3.7-35.1,5.7-59.2l1.3-15.4l0.2-24.8l0.2-24.8l-0.9-9.2l-0.9-9.2l-1.3-2.5
	c-0.8-1.6-1.5-2.6-1.8-2.7c-0.5-0.1-0.5-0.2-0.1-0.5c0.8-0.6-1.4-4.5-5.9-10l-3.9-4.9l-2.4,2.4l-2.4,2.4l2.2-2.3
	c1.2-1.3,2.2-2.4,2.2-2.6c0-0.2-1.5-2.1-3.3-4.3c-1.8-2.2-4.9-6-6.9-8.4l-3.5-4.4l-1-4.2c-0.6-2.3-1-4.6-1-5c0-0.4,0.9-3.6,2-7.1
	l2-6.3l-0.9-0.8c-0.5-0.4-2-1.4-3.4-2.3c-1.4-0.8-2.5-1.5-2.5-1.6c0-0.2,1.9,0.9,4.4,2.5l2.6,1.7l2.3-0.6c3.1-0.8,3.6-1.2,6.8-3.9
	l2.7-2.4l0-1.9c0-1,0.2-2.5,0.4-3.4c0.7-2.6,0.9-6.3,0.3-7.4c-0.2-0.5-0.9-2.4-1.4-4.2c-0.5-1.8-2-6.2-3.2-9.9l-2.2-6.6l-6.2-0.2
	C159.5,112.2,129.5,111.9,122,111.9L122,111.9z M165.7,121.6c0.4,0,0.8,0.1,0.9,0.3c0.2,0.3-0.3,0.3-1.1,0
	C165,121.7,165.1,121.7,165.7,121.6L165.7,121.6z M182.5,133.1c0.1,0,0,0.2-0.4,0.5c-0.3,0.2-0.8,0.4-1.1,0.4
	c-0.4,0-0.3-0.1,0.4-0.5C182,133.2,182.4,133.1,182.5,133.1z M118.6,133.8c0.1,0,0.2,0,0.2,0.1c0.1,0.1-0.1,0.2-0.4,0.1
	c-0.3,0-0.4-0.1-0.2-0.2C118.4,133.8,118.5,133.8,118.6,133.8z M119.8,134.1c0.1,0,0.3,0,0.4,0.1c0.2,0.1,0,0.1-0.4,0.1
	c-0.4,0-0.5-0.1-0.4-0.1C119.5,134.1,119.6,134.1,119.8,134.1z M179.8,134.1c0.1,0,0.3,0,0.4,0.1c0.2,0.1,0,0.1-0.4,0.1
	c-0.4,0-0.5-0.1-0.4-0.1C179.5,134.1,179.6,134.1,179.8,134.1z M121.2,134.3c0.1,0,0.3,0,0.4,0.1c0.2,0.1,0,0.1-0.4,0.1
	c-0.4,0-0.5-0.1-0.4-0.1C120.9,134.4,121.1,134.3,121.2,134.3z M178.4,134.3c0.1,0,0.3,0,0.4,0.1c0.2,0.1,0,0.1-0.4,0.1
	c-0.4,0-0.5-0.1-0.4-0.1C178.1,134.4,178.2,134.3,178.4,134.3z M122.6,134.6c0.1,0,0.3,0,0.4,0.1c0.2,0.1,0,0.1-0.4,0.1
	c-0.4,0-0.5-0.1-0.4-0.1C122.3,134.6,122.5,134.6,122.6,134.6z M177,134.6c0.1,0,0.3,0,0.4,0.1c0.2,0.1,0,0.1-0.4,0.1
	c-0.4,0-0.5-0.1-0.4-0.1C176.7,134.6,176.8,134.6,177,134.6z M124,134.9c0.1,0,0.3,0,0.4,0.1c0.2,0.1,0,0.1-0.4,0.1
	c-0.4,0-0.5-0.1-0.4-0.1C123.7,134.9,123.9,134.9,124,134.9z M175.5,134.9c0.1,0,0.3,0,0.4,0.1c0.2,0.1,0,0.1-0.4,0.1
	s-0.5-0.1-0.4-0.1C175.3,134.9,175.4,134.9,175.5,134.9z M174.4,135.2c0.1,0,0.2,0,0.2,0.1c0.1,0.1-0.1,0.2-0.4,0.1
	c-0.3,0-0.4-0.1-0.2-0.2C174.2,135.2,174.3,135.2,174.4,135.2L174.4,135.2z M125.3,135.2c0.3,0,0.9,0.1,1.3,0.2
	c0.6,0.2,0.6,0.2,0.1,0.2c-0.3,0-0.9-0.1-1.3-0.2C124.8,135.2,124.8,135.2,125.3,135.2z M173.2,135.5c0.5,0,0.4,0.1-0.1,0.2
	c-1,0.3-1.7,0.3-1,0C172.3,135.6,172.8,135.5,173.2,135.5L173.2,135.5z M127.6,135.7c0.9-0.1,9.3,2.4,9.3,2.7c0,0.2-0.3,0.1-1.6-0.3
	c-0.6-0.2-2.7-0.8-4.6-1.4S127.4,135.7,127.6,135.7z M171,136c0.1,0,0.2,0,0.2,0.1c0.1,0.1-0.1,0.2-0.4,0.1c-0.3,0-0.4-0.1-0.2-0.2
	C170.8,136,170.9,136,171,136L171,136z M169.9,136.3c0.1,0,0.2,0,0.2,0.1c0.1,0.1-0.1,0.2-0.4,0.1c-0.3,0-0.4-0.1-0.2-0.2
	C169.7,136.3,169.8,136.3,169.9,136.3L169.9,136.3z M167.1,137.2c0.1,0,0.2,0,0.2,0.1c0.1,0.1-0.1,0.2-0.4,0.1
	c-0.3,0-0.4-0.1-0.2-0.2C166.9,137.2,167,137.1,167.1,137.2L167.1,137.2z M137.4,138.5c0.2,0,0.5,0.1,0.7,0.3
	c0.2,0.2,0.3,0.3,0.1,0.3s-0.5-0.1-0.7-0.3C137.3,138.7,137.2,138.5,137.4,138.5z M161.9,138.8c0.2,0,0.1,0.1-0.1,0.3
	c-0.2,0.2-0.5,0.3-0.7,0.3s-0.1-0.1,0.1-0.3C161.4,138.9,161.7,138.8,161.9,138.8z M142.9,141.1c0.1,0,0.9,0.3,1.7,0.7
	c0.8,0.4,1.3,0.7,1.1,0.7C145.3,142.4,142.6,141.1,142.9,141.1z M151.8,142.5c0.6,0,0.9,0,0.9,0.1c-0.3,0.2-3.6,0.4-4.9,0.2
	c-1.1-0.2-0.7-0.2,1.8-0.2C150.5,142.5,151.3,142.5,151.8,142.5z M149.1,143.4c0.5,0,1,0,1.5,0.1c1.3,0.3,1.2,0.3-1.6,0.3
	c-3,0-3,0-1.5-0.3C148,143.4,148.6,143.4,149.1,143.4z M156.5,145.3c0.2,0,0.5,0.1,0.7,0.3c0.2,0.2,0.3,0.3,0.1,0.3
	s-0.5-0.1-0.7-0.3C156.4,145.4,156.4,145.3,156.5,145.3L156.5,145.3z M142,145.4C142,145.4,142,145.4,142,145.4
	c0.1,0.1-0.3,0.4-0.8,0.6c-0.5,0.2-0.8,0.4-0.8,0.3s0.4-0.3,0.8-0.6C141.5,145.5,141.8,145.4,142,145.4L142,145.4z M158.4,146.1
	c0.3,0,4.7,2.2,4.7,2.4c0,0.1,0,0.1-0.1,0.1C162.8,148.6,158.3,146.2,158.4,146.1L158.4,146.1z M139.5,146.8
	c0.1,0.1-0.6,0.5-1.8,1.2c-1,0.6-2.2,1.3-2.7,1.6s-0.9,0.5-0.9,0.5c0-0.2,3.1-2.1,4.4-2.8C139.2,146.8,139.5,146.7,139.5,146.8z
	 M177.7,198.1l-0.8,0.9c-0.5,0.5-0.9,0.9-0.9,0.9c-0.2,0,0-0.2,0.8-1L177.7,198.1z M121.9,198.7l1.1,1c0.6,0.5,1.1,1,1.1,1.1
	c0,0.2-0.2,0-1.1-1L121.9,198.7z M174.4,201.1c0.1,0-0.1,0.3-0.4,0.6c-0.3,0.3-0.6,0.6-0.7,0.6s0.1-0.3,0.4-0.6
	C174,201.3,174.3,201.1,174.4,201.1z M124.4,201.1c-0.1-0.1,1.2,0.7,2.8,1.9c1.6,1.2,3.5,2.5,4.2,2.9s1.3,0.8,1.3,0.9
	c0,0.2-0.1,0.2-1.9-1C128.8,204.6,124.7,201.5,124.4,201.1L124.4,201.1z M172.7,202.5c0.1,0-0.1,0.3-0.4,0.6
	c-0.3,0.3-0.6,0.6-0.7,0.6s0.1-0.3,0.4-0.6C172.3,202.7,172.6,202.5,172.7,202.5z M171.3,203.6c0,0-0.1,0.1-0.2,0.4
	c-0.4,0.5-0.6,0.6-0.6,0.4c0-0.1,0.2-0.3,0.5-0.5C171.2,203.7,171.3,203.6,171.3,203.6z M170.2,204.4c0,0-0.1,0.1-0.2,0.4
	c-0.4,0.5-0.6,0.6-0.6,0.4c0-0.1,0.2-0.3,0.5-0.5C170.1,204.5,170.2,204.4,170.2,204.4z M133,207.1c0-0.1,4.5,2,4.8,2.3
	c0.1,0.1,0,0.1-0.1,0.1C137.3,209.5,133,207.3,133,207.1L133,207.1z M166.5,207.1c0,0.3-5.2,2.8-7.2,3.4c-2.9,1-2.9,0.8,0-0.3
	c1.4-0.5,3.6-1.5,4.9-2.1C165.5,207.5,166.5,207,166.5,207.1L166.5,207.1z M191.3,208.7c0.1,0,0.2,0,0.2,0.1c0.1,0.1,0,0.2-0.2,0.2
	c-0.2,0-1.5,1.1-2.8,2.5l-2.4,2.5l1.6-2C189.1,210.1,190.7,208.8,191.3,208.7L191.3,208.7z M138.2,209.6c0.1-0.1,1,0.2,2.2,0.6
	c1.1,0.4,2.9,0.9,3.8,1.1c1,0.2,1.4,0.4,0.9,0.4C143.8,211.7,137.9,209.9,138.2,209.6z M156.8,211.2l-0.8,0.3
	c-0.5,0.2-2.9,0.3-5.5,0.4l-4.6,0.1l4.5-0.2c2.5-0.1,5-0.3,5.5-0.4L156.8,211.2z M179.3,221c0,0,0,0.1-0.1,0.2
	c-1,1.1-5.4,4.6-8.4,6.7c-3,2.1-4.5,3-4.1,2.6c0.2-0.2,1.3-1,2.5-1.8c2.8-1.8,6.1-4.3,8.7-6.6C178.7,221.4,179.3,221,179.3,221z
	 M127.1,227c0,0,0.1,0.1,0.4,0.2c0.3,0.2,0.5,0.4,0.5,0.5c0,0.2-0.2,0.1-0.6-0.4C127.2,227.1,127.1,227,127.1,227z M166.2,230.7
	C166.2,230.7,166.2,230.7,166.2,230.7c0,0.1-0.2,0.3-0.5,0.5c-0.3,0.2-0.6,0.2-0.6,0.2s0.3-0.3,0.6-0.4
	C165.9,230.8,166.1,230.7,166.2,230.7L166.2,230.7z M164.8,231.6C164.8,231.6,164.8,231.6,164.8,231.6c0,0.1-0.2,0.3-0.5,0.5
	c-0.3,0.2-0.6,0.2-0.6,0.2s0.3-0.3,0.6-0.4C164.5,231.6,164.7,231.6,164.8,231.6L164.8,231.6z M163.3,232.4
	C163.4,232.4,163.4,232.4,163.3,232.4c0.1,0.1-0.4,0.4-1,0.7c-0.6,0.3-1.1,0.5-1.1,0.4s0.5-0.4,1.1-0.7
	C162.8,232.7,163.2,232.5,163.3,232.4L163.3,232.4z M159.8,234.4c0.1,0-0.5,0.4-1.5,1c-0.8,0.5-2,1.3-2.5,1.8
	c-0.6,0.5-0.9,0.7-0.8,0.4c0.2-0.5,2.3-2,4-2.8C159.4,234.5,159.7,234.4,159.8,234.4L159.8,234.4z"/>
<path id="path82" class="st3" d="M122.2,111.9c-1.1,0-1.8,0-1.8,0.1c-0.1,0.1-0.4,1.4-0.7,2.8c-2.5,13.6-3,16.4-3,17.3
	c0,0.6-0.1,1.1-0.3,1.1c-0.4,0-0.4,1.4,0.2,4.8c0.4,2.4,0.4,3.3,0.1,5.2l-0.3,2.3l1.1,1.7c0.6,0.9,1.5,1.9,2,2.3
	c1.8,1.3,6,3.1,8.1,3.5c2,0.3,2.1,0.4,2.3,1.4c2.1,7.5,2.1,7.7,2.1,11.7c0,3.8,0,4.1-0.9,6.8c-1.6,5-2.6,6.5-5.9,10.1
	c-3.3,3.5-8.6,9.9-8.6,10.4c0,0.2,0.2,0.6,0.5,0.9c0.4,0.5,0.4,0.5-0.2,0l-0.7-0.6l-1.3,1.8c-0.7,1-2.9,4-4.9,6.8l-3.6,5l2.8,2.9
	l2.8,2.9l-2.7-2.7l-2.7-2.7l-0.4,1c-0.6,1.5-1.8,6-2.4,9.3c-1.4,7.2-1.9,15.3-2.2,33.1c-0.2,12.7,0.1,21.2,1,33.5
	c1,13.5,6.1,70.4,6.4,71.8c0.2,0.8,0.2,0.8,2.6,0.8l2.4,0.1l-2.5,0.1l-2.5,0.1l0.1,1.2c0.1,0.7,0.7,5.6,1.3,10.9
	c2,17.3,4.2,33,7.5,53.8c3.3,20.8,5.5,33.4,6,33.8c0.2,0.2,6.9,0.7,13.7,1c2,0.1,4.4,0.2,5.4,0.3l1.7,0.1l0-105.7l0-105.7l0.2,91.1
	c0.3,102.6,0.3,119.9,0.5,120.1c0.1,0.1,2.1,0.2,4.4,0.3l4.3,0.1l0.1-109.5l0.1-109.5l0.1,109.5l0.1,109.5l0.6,0.1
	c0.3,0.1,4.4,0.3,9.1,0.4c4.6,0.2,8.8,0.3,9.3,0.4c0.7,0.1,2.1-0.1,2.3-0.2c0.3-0.3,2.8-16.6,7.8-51.8c3.5-24.7,4.5-32.4,5.6-42.4
	c0.4-3.6,0.8-7,0.8-7.4c0.1-0.8,0.1-0.8-1.5-0.8l-1.6-0.1l1.6-0.1c0.9-0.1,1.6-0.2,1.6-0.3s0.4-4.4,1-9.6c1.3-12.7,3-30.6,4.5-48.9
	l1.3-15.2l0.2-25.4l0.2-25.4l-0.9-8.9l-0.9-8.9l-1.3-2.6c-0.7-1.4-1.5-2.6-1.7-2.7c-0.3-0.1-0.3-0.3-0.1-0.5c0.2-0.2,0-1-0.7-2.4
	c-1.1-2.3-2-3.6-6.3-8.8l-2.9-3.6l-1.2,1.1c-1.1,1.1-1.1,1.1-0.2,0.1c0.5-0.5,0.9-1.1,0.9-1.3s-1.5-2.1-3.3-4.4s-4.9-6-6.9-8.5
	l-3.6-4.4l-0.9-3.7c-1.5-6.2-1.7-4.4,2.6-17.9c0.2-0.8,0.2-1-0.2-1.5c-0.5-0.6-0.5-0.6,0.2-0.3c0.6,0.3,1.1,0.2,2.9-0.3
	c3-0.8,3.8-1.3,6.8-4l2.6-2.3v-1.7c0-0.9,0.2-2.5,0.4-3.4c0.2-1,0.5-3,0.5-4.5c0-3.1,0.5-1.4-5-17.6l-2.1-6.1l-5.2-0.2
	C162.3,112.3,130.2,111.8,122.2,111.9L122.2,111.9z M165.9,121.6c0.3,0,0.7,0.1,0.8,0.3c0.2,0.4-0.4,0.4-1,0
	C165.3,121.7,165.4,121.6,165.9,121.6z M182.4,133.3C182.5,133.3,182.5,133.3,182.4,133.3c-0.2,0.4-1.5,0.8-1.5,0.6
	c0-0.1,0.4-0.3,0.9-0.4C182.1,133.4,182.3,133.3,182.4,133.3L182.4,133.3z M143.6,141.4c0.2,0,0.6,0.2,1,0.4
	c0.4,0.2,0.6,0.4,0.4,0.4s-0.6-0.2-1-0.4C143.6,141.5,143.4,141.4,143.6,141.4z M149.9,142.5c0.4,0,0.9,0,1.2,0
	c0.7,0.1,0.1,0.1-1.2,0.1c-1.3,0-1.9,0-1.2-0.1C149,142.5,149.5,142.5,149.9,142.5z M149.1,143.5c0.4,0,0.8,0,1.1,0.1
	c0.9,0.2,0.6,0.2-1.2,0.2c-2,0-2.1,0-1-0.2C148.2,143.5,148.7,143.5,149.1,143.5L149.1,143.5z M161.4,147.5c0.2,0,0.4,0.1,0.5,0.3
	c0.2,0.3,0.1,0.3-0.4,0C161.2,147.7,161.2,147.5,161.4,147.5L161.4,147.5z M137.5,147.9C137.5,147.9,137.5,147.9,137.5,147.9
	c0,0.1-0.2,0.3-0.5,0.5c-0.3,0.2-0.6,0.2-0.6,0.2s0.3-0.3,0.6-0.4C137.2,148,137.4,147.9,137.5,147.9L137.5,147.9z M164,149
	c0,0,0.2,0.1,0.5,0.2c0.3,0.2,0.6,0.4,0.6,0.4c0,0.2-0.1,0.2-0.7-0.3C164.1,149.1,164,149,164,149z M165.9,207.3
	C166,207.4,166,207.4,165.9,207.3c0,0.1-0.2,0.3-0.5,0.5c-0.3,0.2-0.6,0.2-0.6,0.2s0.3-0.3,0.6-0.4
	C165.6,207.4,165.8,207.3,165.9,207.3L165.9,207.3z M134.1,207.7c0-0.1,2.8,1.2,3.1,1.5c0.1,0.1,0,0.1-0.1,0.1
	C136.7,209.2,134.1,207.8,134.1,207.7L134.1,207.7z M164.4,208.1c0.2,0-0.2,0.2-0.7,0.5s-1.1,0.5-1.3,0.5s0.2-0.2,0.7-0.5
	C163.7,208.4,164.3,208.1,164.4,208.1z M190.5,209.2c0.1,0-0.5,0.6-1.2,1.4c-0.8,0.8-1.4,1.4-1.5,1.4s0.5-0.6,1.2-1.4
	S190.4,209.2,190.5,209.2z M161.3,209.5c0.2,0,0.1,0.1-0.1,0.3c-0.2,0.2-0.6,0.3-0.7,0.3s-0.1-0.1,0.1-0.3
	C160.8,209.6,161.2,209.5,161.3,209.5z M159.9,210.1c0.2,0,0.1,0.1-0.1,0.3c-0.2,0.2-0.6,0.3-0.7,0.3s-0.1-0.1,0.1-0.3
	C159.4,210.2,159.8,210.1,159.9,210.1L159.9,210.1z M143.7,211.2c0.1,0,0.2,0,0.2,0.1c0.1,0.1-0.1,0.2-0.4,0.1
	c-0.3,0-0.4-0.1-0.2-0.2C143.5,211.3,143.6,211.2,143.7,211.2L143.7,211.2z M154.7,211.5c0.2,0,0.3,0,0.4,0.1c0.2,0.1,0,0.1-0.5,0.1
	c-0.5,0-0.6-0.1-0.3-0.1C154.3,211.5,154.5,211.5,154.7,211.5L154.7,211.5z M121.3,222l0.9,0.8c0.5,0.5,0.9,0.9,0.9,0.9
	c0,0.2-0.2,0-1-0.8L121.3,222z M177.2,222.8c0,0-0.1,0.1-0.2,0.4c-0.2,0.3-0.4,0.5-0.5,0.5c-0.2,0-0.1-0.2,0.4-0.6
	C177.1,222.8,177.2,222.7,177.2,222.8z M175.8,223.9c0,0-0.1,0.1-0.2,0.4c-0.2,0.3-0.4,0.5-0.5,0.5c-0.2,0-0.1-0.2,0.4-0.6
	C175.7,223.9,175.8,223.9,175.8,223.9z M124.1,224.6l0.6,0.5c0.3,0.3,0.6,0.6,0.6,0.6c0,0.2-0.2,0.1-0.7-0.5L124.1,224.6z
	 M136.4,232.4c0.1-0.1,3.1,1.5,3.7,2c0.3,0.2,0.5,0.4,0.4,0.4C140.4,234.8,136.7,232.7,136.4,232.4
	C136.4,232.5,136.4,232.5,136.4,232.4L136.4,232.4z M157.7,235.6C157.7,235.6,157.7,235.6,157.7,235.6c-0.8,0.7-2.5,1.9-2.1,1.4
	c0.3-0.3,0.9-0.8,1.4-1.1C157.4,235.7,157.7,235.5,157.7,235.6L157.7,235.6z M142,235.7c0,0,0.1,0.1,0.4,0.2
	c0.3,0.2,0.5,0.4,0.5,0.5c0,0.2-0.2,0.1-0.6-0.4C142.1,235.8,142,235.7,142,235.7z M144.2,238.3c0-0.1,0.2,0.4,0.4,1
	c0.2,0.8,0.2,2.1,0.1,4.2l-0.2,3l-0.1-4.1C144.2,240.2,144.2,238.3,144.2,238.3L144.2,238.3z M153.9,238.5c0.1,0,0.3,0.1,0.3,0.3
	s-0.2,0.3-0.4,0.3c-0.2,0-0.4-0.1-0.3-0.3C153.5,238.7,153.7,238.5,153.9,238.5L153.9,238.5z"/>
<path id="path84" class="st3" d="M122.3,111.9c-1.2,0-1.9,0-2,0.1c-0.3,0.3-3.3,16.4-3.6,19c-0.1,1-0.3,2-0.5,2.2
	c-0.3,0.4-0.2,2.3,0.3,6.1c0.1,1,0.1,2.7-0.1,4l-0.3,2.3l1,1.5c0.6,0.8,1.3,1.8,1.7,2.1c1.2,1.2,5.7,3.2,8.1,3.7
	c2.8,0.6,2.4,0.1,4,5.9c0.7,2.7,0.8,3.8,0.9,7.2c0.1,3.8,0,4.1-0.9,6.8c-1.5,4.4-2.9,6.8-5.7,9.8c-5.3,5.7-8.8,10.2-8.6,10.9
	c0.1,0.4,0.1,0.4-0.2,0.2c-0.3-0.2-1.4,1.1-5,6.1c-2.5,3.5-4.7,6.6-4.9,6.8c-0.2,0.3,0.2,0.8,1.1,1.8l1.4,1.4l-1.3-1.3
	c-0.7-0.7-1.4-1.2-1.4-1.1c-0.3,0.3-1.6,4.9-2.2,7.9c-1.5,6.9-2,12.7-2.5,27.6c-0.4,12.6-0.2,26.8,0.4,35.8
	c0.9,12.8,6.4,75.2,6.8,77.3c0.1,0.7,0.3,0.8,1.5,0.8l1.3,0.1l-1.4,0.1l-1.4,0.1l0.2,1.3c0.1,0.7,0.7,5.6,1.3,10.9
	c3,25.4,8.4,62.1,12.3,82.7c1,5.3,0.8,5,3.6,5.2c1.7,0.1,17,1,18.3,1c0.1,0,0.1-43.3,0-96.1s0-96.1,0.1-96
	c0.1,0.1,0.2,28.9,0.2,63.9c0.1,72.9,0.3,127.8,0.5,127.9c0.1,0.1,2.1,0.2,4.4,0.3l4.3,0.2l0.1-86.8l0.1-86.8l0.1,86.9l0.1,86.9
	l4.2,0.2c2.3,0.1,6.5,0.3,9.3,0.5h0c5.8,0.3,7.4,0.2,7.8-0.3c0.3-0.5,1.8-10.1,6.2-40.6c3.9-27,5.8-40.7,6.9-50.8
	c0.5-4.8,1-9.2,1.1-9.8c0.1-1,0.1-1.1-0.6-1.1l-0.8,0l0.7-0.1c0.9-0.1,0.7,0.9,2.2-13.6c1.4-14.1,2.5-25.8,4.1-44.9l1.3-15.2
	l0.2-25.9l0.2-25.9l-0.8-8.5l-0.8-8.5l-1.2-2.4c-0.7-1.3-1.3-2.6-1.5-2.8s-0.4-0.7-0.4-1.1c-0.1-1.7-2.6-5.5-8.2-12.3
	c-1.8-2.1-1.8-2.2-2.4-1.7c-0.6,0.5-0.6,0.5-0.2-0.1c0.5-0.8,1-0.1-7.2-10.1c-5.4-6.6-6.3-7.9-6.6-9.1c-0.2-0.7-0.6-2.7-1-4.5
	c-0.4-1.8-0.6-3.5-0.6-3.9c0.1-0.5,1-3.5,2-6.8c1.5-4.9,1.8-6,1.5-6.4c-0.3-0.5-0.3-0.5,0.2-0.3c0.7,0.2,4.4-0.7,5.9-1.5
	c0.6-0.3,2.2-1.6,3.6-2.8l2.6-2.3l0-1.6c0-0.9,0.2-2.4,0.4-3.4c0.2-1,0.5-2.9,0.6-4.4l0.2-2.6l-3.6-10.7l-3.6-10.7l-4.1-0.2
	C165.4,112.3,131,111.8,122.3,111.9L122.3,111.9z M165.7,121.6c0.3,0,0.6,0.1,0.7,0.3c0.2,0.3,0.2,0.3-0.6,0
	C165.4,121.7,165.4,121.7,165.7,121.6L165.7,121.6z M149,143.6c0.3,0,0.5,0,0.7,0.1v0c0.3,0.1,0,0.1-0.8,0.1c-0.8,0-1.1-0.1-0.6-0.1
	C148.5,143.6,148.8,143.6,149,143.6L149,143.6z M190.2,209.5c0.1,0-0.4,0.5-1,1.1s-1.2,1.1-1.2,1.1c-0.1,0,0.4-0.5,1-1.1
	C189.5,210,190.1,209.5,190.2,209.5z M138,233.2c0.2,0,0.4,0.1,0.5,0.3c0.2,0.3,0.1,0.3-0.4,0C137.8,233.3,137.8,233.2,138,233.2
	L138,233.2z M144.4,239.4c0,0,0.1,0.4,0.2,0.9c0.2,1,0.2,2.2,0,3.2c-0.2,1.5-0.3,1.3-0.3-1.6C144.3,240.1,144.4,239.3,144.4,239.4
	L144.4,239.4z"/>
<path id="path86" class="st3" d="M122.4,111.9c-1.3,0-2,0-2.1,0.1c-0.2,0.2-2.4,11.4-3.6,18.3c-0.3,1.5-0.5,3.7-0.4,4.8
	c0,1.1,0.1,4,0.1,6.5l0.1,4.5l0.9,1.3c0.5,0.7,1.2,1.5,1.5,1.9c1.2,1.1,5.6,3.2,7.9,3.7c1.6,0.4,2.4,0.7,2.6,1.1
	c0.2,0.3,0.8,2.3,1.4,4.4c0.9,3.5,1,4.2,1,7.8c0,3.4-0.1,4.2-0.7,6.3c-1.6,4.9-2.6,6.8-6.5,10.9c-3.4,3.7-7.2,8.3-7.8,9.4
	c-0.3,0.5-0.5,0.9-0.6,0.8c-0.1-0.1-8.7,11.6-9.6,13.1c-0.1,0.2,0,0.7,0.4,1.1c0.6,0.7,0.6,0.7,0,0.2c-0.3-0.3-0.7-0.5-0.7-0.4
	c-0.2,0.3-1.1,3.2-1.9,6.3c-0.9,3.9-1.8,9.6-2.2,14.4c-0.9,10.5-1,38.3-0.3,49.2c0.8,12.2,6.5,77.1,6.9,78.8
	c0.1,0.5,0.4,0.6,0.9,0.7l0.8,0l-0.8,0.1c-0.4,0.1-0.8,0.2-0.8,0.4c0,1.5,3.6,30.3,5.2,41.7c3.3,23.3,8.7,56.1,9.4,57.5
	c0.2,0.4,0.8,0.5,2.4,0.7c2,0.2,17.1,1,18.1,1c0.4,0,0.4-9.5,0.3-90.2c-0.1-49.6,0-90.1,0.1-90c0.1,0.1,0.2,28.2,0.2,62.4
	c0.1,68.9,0.3,117.5,0.5,117.7c0.1,0.1,2.1,0.2,4.4,0.3l4.3,0.2l0.1-59.8l0.1-59.8l0.1,59.9l0.1,59.9l1.9,0c1,0,5,0.2,8.8,0.4
	c9.7,0.5,10,0.5,10.5,0c0.6-0.6,2-10.1,7.8-50.2c3.1-21.6,4.5-32.3,5.6-42.3c0.5-4.2,0.9-8.1,1-8.8c0.1-1,0.1-1.2-0.3-1.2
	c-0.4,0-0.4-0.1,0-0.2c0.6-0.2,0.5,0,1.8-11.9c1.3-12.2,2.6-27.4,4.2-46.3l1.3-15.2l0.2-25.8l0.2-25.8l-0.8-8.5
	c-0.8-9.1-1-9.7-3-13.2c-0.4-0.7-0.8-1.6-0.8-1.8c0-0.9-2-4.5-3.6-6.6c-0.9-1.2-2.8-3.5-4.1-5.2c-2-2.4-2.5-2.9-2.8-2.7
	c-0.3,0.3-0.4,0.2-0.2-0.2c0.1-0.4-1.3-2.4-5.9-8c-8.2-10.1-7.6-9.2-8.7-13.5c-0.5-2-0.9-4.3-0.9-5c0-0.8,0.7-3.4,1.9-7.3
	c1-3.3,1.8-6.2,1.7-6.4c-0.1-0.3,0-0.4,0.5-0.4c1.2,0,5.4-1.5,6.5-2.3c0.6-0.4,2-1.6,3.2-2.7c2.1-1.9,2.1-1.9,2.1-3.3
	c0-0.8,0.2-2.3,0.4-3.3c0.2-1,0.5-3.1,0.6-4.6l0.1-2.8l-3.6-10.6l-3.6-10.6l-3.5-0.2C167,112.3,131.4,111.8,122.4,111.9L122.4,111.9
	z M165.9,121.6c0.2,0,0.4,0.1,0.5,0.3c0.2,0.3,0.1,0.3-0.4,0C165.7,121.7,165.7,121.6,165.9,121.6L165.9,121.6z M144.4,240.2
	c0,0,0,0.1,0,0.3c0.1,0.7,0.1,1.7,0,2.4c-0.1,0.7-0.1,0.1-0.1-1.2C144.4,240.6,144.4,240.1,144.4,240.2L144.4,240.2z M154.3,337.6
	c0,0,0,0.1,0.1,0.1c0.1,0.3,0.1,0.7,0,0.8c-0.1,0.2-0.1,0-0.1-0.5C154.2,337.8,154.2,337.6,154.3,337.6L154.3,337.6z"/>
<path id="path88" class="st3" d="M127.6,111.9c-4.3,0-7.2,0-7.2,0.1c-0.2,0.2-3,14.3-3.7,19c-0.4,2.3-0.4,3.4-0.2,10.3
	c0.1,4.4,0.1,4.5,0.9,5.8c0.5,0.7,1.3,1.7,1.8,2.2c1.4,1.2,5.2,3,7.8,3.7c1.2,0.3,2.3,0.7,2.5,0.8s0.7,1.8,1.3,3.7
	c0.9,3.1,1,4,1.1,7.8c0.1,4,0.1,4.4-0.6,6.9c-1.2,4.3-2.6,6.8-5.4,10c-3.5,3.9-7.6,8.8-8.5,10.1c-0.4,0.6-0.9,1.3-1.2,1.5
	c-0.4,0.4-8.8,12-9.4,12.9c-0.1,0.2-0.1,0.6,0.1,0.8c0.3,0.3,0.3,0.4-0.1,0.3c-0.3-0.1-0.5,0.2-0.9,1.2c-2.1,6.6-3.2,13.5-3.9,23.9
	c-0.5,7.5-0.5,38.3,0,44.5c1.3,17.5,6.7,78.1,7,79.1c0.1,0.3,0.4,0.5,0.6,0.5c0.4,0,0.4,0,0,0.2c-0.3,0.1-0.5,0.3-0.5,0.6
	c0,0.7,2.1,17.9,3.1,26c3.4,26.7,10.6,71.7,11.6,73.1c0.3,0.4,3.9,0.7,17.3,1.4l3.7,0.2l-0.1-85.2c-0.1-46.8-0.1-85.1,0-85
	c0.1,0.1,0.2,27.2,0.2,60.3c0.1,65,0.3,109.4,0.5,109.6c0.1,0.1,2.1,0.2,4.4,0.3l4.3,0.2l0.1-36.3l0.1-36.3l0.1,36.4l0.1,36.4l1.8,0
	c1,0,4.7,0.2,8.4,0.4c9.7,0.5,10.6,0.5,11.1,0c0.2-0.2,0.4-0.5,0.4-0.7c0-0.1,0.3-2.1,0.7-4.4c0.9-5.4,4.6-30.4,7.6-51.8
	c4.2-29.3,6.1-45.2,5.5-45.5c-0.2-0.2-0.3-0.2,0-0.2c0.4,0,0.5-0.5,1.6-11.7c1.4-13.9,2.8-28.9,4.2-46.2c1.4-17,1.6-23.6,1.6-53.9
	c0-14.2,0-15.1-0.8-22.7l-0.8-7.9l-1.4-2.9c-0.8-1.6-1.7-3.5-1.9-4.3c-0.3-0.8-1.2-2.5-2.1-3.8c-2.1-3.1-7.3-9.4-7.7-9.3
	c-0.2,0-0.3-0.2-0.4-0.5c-0.1-0.3-2.8-3.8-5.9-7.7c-8.2-10.1-7.7-9.4-8.7-13.8c-0.6-2.8-0.8-4.2-0.7-5.3c0.1-0.9,0.9-4,1.9-7
	c0.9-3,1.7-5.7,1.7-6c0-0.3,0.2-0.5,0.5-0.5c1.1,0,5.3-1.5,6.3-2.3c0.6-0.4,2-1.6,3.1-2.6l2-1.8l0.2-2.2c0.1-1.2,0.3-2.6,0.5-3.1
	c0.1-0.5,0.4-2.2,0.5-3.7l0.2-2.8l-3.6-10.8l-3.6-10.8l-3.7-0.2C167.1,112.3,140.6,111.9,127.6,111.9L127.6,111.9z M154.3,384.9
	C154.3,384.9,154.3,384.9,154.3,384.9c0.1,0.3,0.1,0.6,0.1,0.8c-0.1,0.2-0.1,0-0.1-0.4C154.2,385,154.2,384.8,154.3,384.9
	L154.3,384.9z"/>
<path id="path90" class="st3" d="M127.9,111.9c-4.5,0-7.5,0-7.6,0.1c-0.1,0.1-0.9,3.6-1.7,7.6c-2.4,12.5-2.4,12.8-2.3,19.8l0.1,6.3
	l0.8,1.3c0.5,0.7,1.3,1.7,1.8,2.2c1.4,1.2,5.3,3,7.8,3.7c1.2,0.3,2.3,0.6,2.4,0.8c0.3,0.3,1.9,5.9,2.2,8c0.5,3.4,0.4,7.8-0.4,10.3
	c-1.6,5.4-2.3,6.6-7.4,12.3c-4.3,4.8-5.9,6.9-12.5,16c-2.6,3.6-4.7,6.7-4.6,6.9s0,0.4-0.1,0.4c-0.1,0-0.6,1-1,2.3
	c-2.4,8.1-3.4,15.2-3.8,29.5c-0.5,16.4-0.3,31.7,0.7,44.5c0.9,12,5.5,63.2,6.2,70.6c0.1,1,0.4,2,0.6,2.2c0.3,0.3,0.3,0.4,0,0.5
	c-0.4,0.1,1,12.5,3.6,31.9c3.5,26,9.8,65.6,10.8,67.5c0.2,0.3,0.8,0.5,2.2,0.7c2.3,0.2,16.4,1,17.9,1h1.1l0.1-21.9l0.1-21.9
	l0.1,21.7c0.1,12,0.2,21.8,0.3,21.9s2.1,0.2,4.4,0.3l4.3,0.2l0.1-20.8l0.1-20.8l0.1,20.9l0.1,20.9l1.6,0c0.9,0,4.5,0.2,8.1,0.4
	c9.4,0.5,11,0.5,11.5,0c0.2-0.2,0.6-1.2,0.7-2.2c1.1-6.1,8.9-60.2,11-76c1.2-9,2.9-23.8,2.8-24.1c0-0.1,0-0.7,0.1-1.2
	c0.6-2.9,3.6-34.6,5.4-57c1.4-17.2,1.6-22.3,1.6-51.3c0-15.9,0-17-0.7-24.8l-0.8-8.1l-1.7-3.7c-0.9-2-2.1-4.6-2.7-5.6
	c-1-2-7.8-10.8-8.8-11.5c-0.3-0.2-0.6-0.5-0.6-0.6c0-0.1-2.3-3.1-5.1-6.6c-7.1-8.7-8.3-10.4-8.8-11.9c-0.6-1.9-1.6-6.6-1.6-7.8
	c0-0.5,0.7-3.1,1.5-5.7s1.7-5.5,1.9-6.4l0.5-1.7l2.4-0.7c3.2-0.9,3.9-1.3,6.9-3.9c2.4-2.1,2.6-2.3,2.6-3.4c0-0.6,0.2-2.1,0.4-3.4
	c0.2-1.2,0.5-3.5,0.6-5l0.2-2.7l-3.6-10.7l-3.6-10.7l-3-0.2C168.9,112.3,141.5,111.9,127.9,111.9L127.9,111.9z M144.7,316.1
	c0,0.5,0,2.4,0,6c0,14.3,0,37.7,0,52c0,14.3-0.1,2.6-0.1-26C144.7,326.7,144.7,314.7,144.7,316.1z"/>
<path id="path92" class="st3" d="M123.2,111.8l-3,0.1l-0.3,1.6c-0.4,1.8-3,15.9-3.4,18.6c-0.2,1.1-0.2,4.2-0.1,7.7l0.2,5.9l0.8,1.3
	c0.5,0.7,1.3,1.7,1.8,2.2c1.4,1.2,5,2.9,7.8,3.6c2.8,0.7,2.6,0.5,3.9,5.3c0.8,3.1,0.9,3.6,0.9,7.8c0,4.2,0,4.7-0.8,6.9
	c-0.9,2.8-2.3,5.6-3.5,7.1c-0.4,0.6-2.2,2.7-4,4.6c-1.8,2-4.3,5-5.6,6.7c-4.5,5.8-11.3,15.4-11.2,15.8c0.1,0.2,0,0.4-0.1,0.4
	c-0.6,0-2.7,8.2-3.5,13.8c-1.1,7.4-1.6,18.8-1.6,35.2c0,15.7,0.2,18.8,3,50.8c2.6,30.4,4.3,48.6,4.6,49.1c0.1,0.3,0.2,0.6,0.1,0.8
	c-0.2,0.4,0.1,2.5,2.1,18.6c3.7,29.9,11.4,79,12.6,80.7c0.3,0.5,5.6,0.9,16.7,1.4l4.3,0.2l0.1-16l0.1-16l0.1,15.8
	c0.1,8.7,0.2,15.9,0.3,16c0.1,0.1,2.1,0.2,4.4,0.3l4.3,0.2l0.1-11.8l0.1-11.8l0.1,11.9l0.1,11.9l1.3,0c0.7,0,4.3,0.2,7.8,0.4
	c7.7,0.4,11.2,0.5,11.8,0.3c0.6-0.2,0.8-1.3,1.7-6.8c1.8-11.6,8.7-59.5,10.4-72.5c2.1-15.7,4.8-42,6.9-66.3
	c2.8-31.6,2.6-28,2.8-55.6c0.2-26,0.2-26.8-0.8-37.3l-0.6-6.5l-1.6-3.4c-0.9-1.9-2-4.3-2.5-5.4c-1-2.1-4-6.2-7.3-10.1
	c-1.1-1.2-3-3.6-4.3-5.2c-1.3-1.6-4.3-5.4-6.7-8.3c-2.3-2.9-4.5-5.8-4.8-6.5c-0.9-1.8-2.1-7.7-1.9-9.2c0.1-0.7,0.8-3.4,1.6-6.1
	s1.6-5.3,1.8-6l0.3-1.2l2.3-0.6c3.1-0.8,4-1.3,7-4c2-1.7,2.6-2.4,2.6-3c0-0.4,0.3-2.4,0.6-4.5c0.9-6.3,1-5.7-3-17.7l-3.5-10.6
	l-3-0.2C169.5,112.3,127,111.7,123.2,111.8L123.2,111.8z"/>
<path id="path94" class="st3" d="M122.9,111.8c-1.4,0-2.3,0-2.3,0c-0.3,0.1-0.8,1.8-1.8,6.9c-2.6,13.5-2.7,14.2-2.5,21
	c0.1,4,0.3,6.3,0.5,6.7c0.9,1.9,2.7,3.4,5.6,4.8c1.6,0.8,3.6,1.5,4.5,1.7s1.9,0.6,2.2,0.8c0.7,0.6,2.1,5.5,2.5,8.8
	c0.8,6.1-0.6,12.1-3.7,16.7c-0.4,0.6-2.3,2.9-4.2,5.1c-6.8,7.7-16.5,20.9-17.6,23.9c-3.4,8.9-4.6,22.3-4.7,48.1
	c0,12.7,0.3,19,1.4,33c2,24.1,5.6,63.8,5.9,65.9c0.2,0.9,0.3,1.9,0.3,2.3c0,2,2.9,25.6,5.2,42.1c3.6,25.6,8.6,55.4,9.4,57.1
	c0.2,0.3,0.8,0.5,1.9,0.7c2.2,0.2,15.6,1,17.6,1l1.6,0l0.1-12l0.1-12l0.1,11.9c0.1,6.5,0.2,11.9,0.3,12s2.1,0.2,4.4,0.3l4.3,0.2
	l0.1-6.7l0.1-6.7l0.1,6.8l0.1,6.8l1.2,0c0.7,0,4.1,0.2,7.7,0.4c3.6,0.2,7.8,0.4,9.4,0.4c3.5,0.1,3.3,0.2,4-4.3
	c1.3-7.5,8.7-58.8,10.7-74c2.4-18,5.2-45,7.6-73.7c2.2-25.3,2.3-27.8,2.3-58.5c0-18.3,0-19.3-0.7-26.8c-0.4-4.3-0.8-8.1-1-8.5
	c-1-2.7-4.8-10.2-6-11.9c-1.5-2-6.6-8.4-7-8.6c-0.7-0.5-13.4-16.7-13.9-17.7c-0.9-1.7-1.9-6.5-1.9-8.6c0-1.3,0.4-3,1.6-7
	c0.9-2.9,1.7-5.7,1.8-6.1c0.1-0.7,0.4-0.8,1.7-1.2c4.1-1.1,5.1-1.7,9-5.3c0.9-0.8,1.4-1.5,1.4-1.9c0-0.4,0.3-2.4,0.6-4.5
	c0.9-6.4,1-5.8-3-17.8l-3.5-10.6l-2.2-0.2C171.4,112.3,132.8,111.8,122.9,111.8L122.9,111.8z"/>
<path id="path96" class="st3" d="M131.6,168.7v0.8c0,1.2-1.1,4.7-2.1,6.9c-1.1,2.3-1.9,3.5-6,8.1c-4.5,5.1-7.3,8.8-13.2,17
	c-3.4,4.8-3.7,5.3-4.7,8.2c-1.8,5.4-2.9,12.4-3.6,21.3c-0.2,2.2-0.4,10.9-0.5,19.4c-0.2,15.7,0,22.8,0.9,34.1
	c1.2,14.8,5.9,68.6,6.2,69.6c0.1,0.3,0.3,2,0.4,3.8c2,22.1,12.9,95.3,14.6,98.5c0.2,0.4,0.7,0.6,1.6,0.7c1.7,0.2,15.7,1,17.9,1h1.7
	l0.1-5.3l0.1-5.3l0.2,5.1c0.1,2.8,0.2,5.2,0.3,5.3c0.1,0.1,2.1,0.2,4.4,0.3l4.3,0.2l0.1-3.9l0.1-3.9l0.1,4l0.1,4l0.9,0
	c0.5,0,3.8,0.2,7.4,0.4c9.2,0.5,12.7,0.5,13.1,0.1c0.2-0.2,0.6-1.9,0.9-3.7c1.5-9,9.5-64.3,11.1-77.3c3.5-27.4,8.7-82.8,9.2-98.5
	c0.1-4.3,0.3-17.3,0.3-28.7c0-20.4,0-21-0.7-28.7l-0.7-7.9l-2.1-4.6c-1.2-2.6-2.4-5.2-2.8-5.9c-0.8-1.3-5.4-7.2-8-10.2
	c-2-2.3-11.2-13.8-13.1-16.3c-1.3-1.8-2.1-3.7-2.7-7.1l-0.3-1.6h-17.6L131.6,168.7z M145,441c0,0,0,0.1,0.1,0.1
	c0.1,0.3,0.1,0.7,0,0.8c-0.1,0.2-0.1,0-0.1-0.5C144.9,441.1,144.9,441,145,441L145,441z"/>
<path id="path98" class="st3" d="M131.7,168.7l-0.2,1.3c-0.1,0.7-0.4,2.2-0.8,3.2c-1.3,3.9-2.4,5.6-7.2,11.2
	c-4.8,5.6-8.2,10-13.7,17.7c-3,4.1-3.3,4.8-4.3,7.6c-1.8,5.4-2.9,12.3-3.6,21.8c-0.5,6.6-0.5,40.9,0,47c2.7,33.8,6.5,75,8.5,92.3
	c3.5,29.7,12,84.4,13.3,86c0.1,0.2,0.9,0.4,1.6,0.5c1.8,0.2,15.2,1,17.6,1l1.9,0l0.1-4.6l0.1-4.6l0.2,4.4c0.1,2.4,0.2,4.5,0.3,4.6
	s2.1,0.2,4.4,0.3l4.3,0.2l0.1-2.2l0.1-2.2l0.1,2.3l0.1,2.3l0.8,0c0.4,0,3.7,0.2,7.3,0.4c9.3,0.5,13,0.5,13.3,0.1
	c0.2-0.2,0.6-1.8,0.9-3.6c1.5-8.6,9.8-66.5,11.4-79.6c3.4-27.2,8.4-80.7,8.9-96.1c0.1-4,0.3-17,0.3-28.7c0-20.8,0-21.6-0.7-29.2
	l-0.7-7.7l-2.4-5.3c-2.7-5.8-3.5-7-9.9-14.7c-5.1-6.2-13-16.1-14.2-17.9c-0.8-1.2-1.2-2.3-1.8-4.7l-0.8-3.2h-17.5L131.7,168.7z"/>
<path id="path117" class="st3" d="M130.5,111.8c-9.5,0-10.3,0-10.4,0.5c-0.2,0.7-2.2,11.2-3.1,16.2c-0.8,4.8-0.9,6.5-0.6,14.5
	c0.1,2.5,0.2,2.8,0.9,4c0.5,0.7,1.2,1.7,1.7,2.1c1.2,1.1,5.4,3.1,7.6,3.6c2.7,0.7,2.9,0.9,3.9,4.4c1.8,6.4,1.8,10.7,0.1,16
	c-1.4,4.2-1.8,4.9-10,14.6c-2.3,2.7-8.8,11.4-11.8,15.8c-2.5,3.6-3.4,5.8-4.6,11.3c-1.5,6.8-2.2,13.5-2.5,26.1
	c-0.4,15.5-0.3,29.5,0.5,40.3c0.9,12.5,5.6,65.7,6.6,74.9c1.5,14.3,5.3,43.6,6.3,49l0.2,0.9h34.5c27.8,0,34.5-0.1,34.5-0.3
	c0-0.2,0.7-5.5,1.6-11.7c3.8-27.4,7.2-59.7,10.2-96.7c1.2-15.3,1.2-16.2,1.3-43.1l0-26.3l-0.7-6.8l-0.7-6.8l-2.2-4.7
	c-2.6-5.5-4.1-7.8-8.3-13c-5.9-7.1-14.8-18.3-15.8-19.8c-1.2-1.8-1.6-3-2.4-6.7c-0.4-1.7-0.5-3.1-0.4-3.8c0.1-0.7,1-3.9,2-7.1
	l1.8-5.9l2.4-0.7c3-0.9,4.1-1.5,7.2-4.3c2.4-2.1,2.5-2.2,2.5-3.3c0-0.7,0.2-2.4,0.4-3.8c0.2-1.4,0.5-3.5,0.6-4.6l0.2-2.1l-3.6-10.9
	l-3.6-10.9l-1.9-0.2C171.8,112.3,142.6,111.8,130.5,111.8L130.5,111.8z"/>
<path id="path129" class="st3" d="M95.3,186.2c-0.4,7.1-0.9,14.3-1.3,21.4c-0.9,15.3,0,27.3,0.7,46.8c0.2,5.9,0.5,11.2,0.8,16.1
	c0.5,8.7,1,15.3,1.1,17.2c0.7,9.5,1.2,17.1,2.3,24.2c4.4,28.8,2.5,30.8,7.6,61.7c0.8,5,1.8,11.3,3.5,19.1
	c2.6,12.2,4.4,13.8,5.9,23.7c1.2,7.9,1.6,12.3,1.6,12.3c0.7,7.8,0.3,10.7,2.1,14.1c0.4,0.7,1.5,2.7,2.4,5.6c0.5,1.7,0.7,3.1,0.8,3.6
	c0.6,4.1-0.3,4.7,0.4,5.8c1.7,3,10.1,0.1,19.9,0.3c0.7,0,3,0.1,6.8,0.2c3.8,0.1,3.6,0.1,4.3,0.1c3.9,0.2,4.7,0.6,8.6,0.8
	c1.1,0.1,0.7,0,5.4,0.1c3.4,0.1,7.8,0.2,7.8,0.2c0,0-0.8,0-4.8,0l4.8,0l0.3-1c3.6-14.1,8.1-33.4,12.6-56.6c1.4-7.4,3-15.7,4.8-27
	c3.8-23.9,5.8-43.7,8.2-67.9c0.8-7.9,1.6-17,1.6-17c0.6-6.5,1.1-11.5,1.5-17.6c0.4-5.6,1-12,1.4-20.4c0.4-6.8,0.9-16.6,0.8-29.3
	c0-3.6-0.1-6.6-0.1-8.6c0-5.1-0.1-10.2-0.1-15.2c-0.7-6.1-1.5-12.3-2.2-18.4c-0.5-3.8-1.1-7.6-1.6-11.4c-3.2-37.2-32.8-61.5-59-58.7
	c-17.6,1.9-33.2,16-41.1,34.8C100.4,158.9,97.9,172.6,95.3,186.2z"/>
<path id="path4643" class="st4" d="M163.6,150.9c-27.1-1.5-40.8-2.3-46.7-0.7c-9.9,2.7-16.2,7.1-18.4,4.6c-1.2-1.3-0.2-3.3,2-9.9
	c4.8-14.2,7.1-24.6,7.5-29.8c0.1-0.6,0.5-6.3,0.5-6.3l0,0c2.3-6.9,4.6-13.7,6.9-20.6l0,0c0.6-0.6,1.2-1.2,1.9-1.9
	c0,0,1.8,0.1,1.9,0.1c2,0.1,4.7,4.6,5.8,5.6c2.6,2.3,6.8,5,13.7,6.2c3.8,0.3,7.6,0.6,11.4,1c1.9-0.8,3.7-1.5,5.6-2.3
	c1.3-0.7,3.1-1.8,5.1-3c5.7-3.3,5.5-3.2,5.9-3.4c2-1.3,3-2,8.8-7.4c1.6,1.2,3.2,2.4,4.7,3.6c0.1,3.3,0.3,6.8,0.8,10.6
	c0.9,7,2.5,13,4.1,18.1c2.1,6.5,4.3,13,6.4,19.5c3.5,6.4,7,12.8,10.6,19.2c-8.6-1-17.4-1.9-26.5-2.5
	C174.2,151.5,170.1,151.3,163.6,150.9z"/>
</svg>
