<?xml version="1.0" encoding="utf-8"?>
<!-- Generator: Adobe Illustrator 23.0.3, SVG Export Plug-In . SVG Version: 6.00 Build 0)  -->
<svg version="1.1" xmlns="http://www.w3.org/2000/svg" xmlns:xlink="http://www.w3.org/1999/xlink" x="0px" y="0px"
	 viewBox="0 0 300 500" style="enable-background:new 0 0 300 500;" xml:space="preserve">
<style type="text/css">
	.st0{fill:#CF2027;stroke:#A01D21;stroke-miterlimit:10;}
	.st1{fill:#4C7BBE;stroke:#374EA1;stroke-miterlimit:10;}
</style>
<g id="Layer_2">
</g>
<g id="Layer_3">
	<g>
		<path class="st0" d="M143.8,88.2l27.9-0.4l10.7,3l8.6,10.1l7.7,23.6l7.8,22l3.2,8.7l-16.9,10.1L176.8,154l-2.1,14
			c0,0-2.1,5.2,2.1,8.7c4.2,3.4,15.4,12.3,15.4,12.3l6.5,9.5l-21.9,13.8l-18.6,3.5h-8l-20.2-7.6l-12.9-9.7l19.8-20.2l-3.5-26.5
			l-14.4,20.1l-15.5-11.8l21-59.6l8.8-9.7L143.8,88.2z"/>
		<polygon class="st1" points="137,178.3 174.3,172.5 192.3,189 198.5,200.5 204.2,217.8 206.2,254 204.3,286.6 198.5,355.5 
			192.8,407.2 182.5,471.4 161.9,471.4 164,415 162,357 163,292 163,268 162,244 152.5,247.4 152.3,471.4 133.2,470.9 122.2,403.1 
			116,341.8 109.6,280 110.3,225.8 113,210.2 118.8,196.8 		"/>
	</g>
</g>
</svg>
