<?xml version="1.0" encoding="utf-8"?>
<!-- Generator: Adobe Illustrator 23.0.3, SVG Export Plug-In . SVG Version: 6.00 Build 0)  -->
<svg version="1.1" id="Layer_1" xmlns="http://www.w3.org/2000/svg" xmlns:xlink="http://www.w3.org/1999/xlink" x="0px" y="0px"
	 viewBox="0 0 300 500" style="enable-background:new 0 0 300 500;" xml:space="preserve">
<style type="text/css">
	.st0{opacity:0.14;fill:#422200;enable-background:new    ;}
	.st1{fill:#FFFFFF;stroke:#000000;stroke-miterlimit:10;}
	.st2{fill:#231F20;stroke:#231F20;stroke-miterlimit:10;}
	.st3{fill:#FFFFFF;stroke:#FFFFFF;stroke-miterlimit:10;}
</style>
<path class="st0" d="M130.7,123.2c4.4,5.3,9.9,8.1,16.6,8.1c6.9,0,12.5-2.6,17.1-7.8c-0.1-0.5-0.3-1-0.4-1.4
	c-0.1-0.6-0.2-1.4-0.3-2.1l-32-0.2C131.4,121,131,122.2,130.7,123.2z"/>
<path class="st1" d="M174.2,85.2c0.7,9.5-2.5,14.6-3.9,16.6c-9.4,13-34.1,11-42.6-0.3c-4.6-6.2-3.6-14-8.1-15.5
	c-3.6-1.2-8,2.6-11.1,6c-1.6,12.6-3.1,25.4-4.6,38.2c-2.7,23.1-5.1,45.9-7.3,68.4c35.6,0,71.1,0,106.7,0
	C198.6,139.9,193,97.1,188.9,92c-2-2.5-4.4-4.1-4.4-4.1C180.8,85.5,176.9,85.1,174.2,85.2z"/>
<path class="st2" d="M101.7,198.7v96h44.7v-3.7c0-0.9,0.3-1.5,0.8-1.9c0-0.3,0.1-0.6,0.2-0.9c0.7-2.1,3.7-1.8,3.9,0.8
	c0.6,1.9,0.9,3.8,1,5.8h45.5v-96H101.7z"/>
<path class="st3" d="M145.6,297.3c0.8-2.3,4.4-2,4.6,0.9c0.1,0.4,0.2,0.7,0.3,1.1c0.9-6.9,1.5-17.1,1.5-28.5c0-20.8-2-37.7-4.4-37.7
	s-4.4,16.9-4.4,37.7c0,11.2,0.6,21.3,1.5,28.2c0.2-0.3,0.4-0.4,0.6-0.6C145.4,298,145.5,297.6,145.6,297.3z"/>
</svg>
