<?xml version="1.0" encoding="UTF-8" standalone="no"?>
<!-- Generator: Adobe Illustrator 23.0.3, SVG Export Plug-In . SVG Version: 6.00 Build 0)  -->

<svg
   xmlns:dc="http://purl.org/dc/elements/1.1/"
   xmlns:cc="http://creativecommons.org/ns#"
   xmlns:rdf="http://www.w3.org/1999/02/22-rdf-syntax-ns#"
   xmlns:svg="http://www.w3.org/2000/svg"
   xmlns="http://www.w3.org/2000/svg"
   xmlns:sodipodi="http://sodipodi.sourceforge.net/DTD/sodipodi-0.dtd"
   xmlns:inkscape="http://www.inkscape.org/namespaces/inkscape"
   version="1.1"
   id="Layer_1"
   x="0px"
   y="0px"
   viewBox="0 0 300 500"
   style="enable-background:new 0 0 300 500;"
   xml:space="preserve"
   sodipodi:docname="female_pear_tshirtjeans.svg"
   enable-background="new"
   inkscape:version="0.92.3 (2405546, 2018-03-11)"><metadata
   id="metadata3753"><rdf:RDF><cc:Work
       rdf:about=""><dc:format>image/svg+xml</dc:format><dc:type
         rdf:resource="http://purl.org/dc/dcmitype/StillImage" /><dc:title></dc:title></cc:Work></rdf:RDF></metadata><defs
   id="defs3751" /><sodipodi:namedview
   pagecolor="#ffffff"
   bordercolor="#666666"
   borderopacity="1"
   objecttolerance="10"
   gridtolerance="10"
   guidetolerance="10"
   inkscape:pageopacity="0"
   inkscape:pageshadow="2"
   inkscape:window-width="1920"
   inkscape:window-height="1001"
   id="namedview3749"
   showgrid="false"
   inkscape:zoom="3.6668197"
   inkscape:cx="133.56303"
   inkscape:cy="358.14414"
   inkscape:window-x="-9"
   inkscape:window-y="-9"
   inkscape:window-maximized="1"
   inkscape:current-layer="Layer_1" />
<style
   type="text/css"
   id="style3734">
	.st0{fill:#C68642;}
	.st1{opacity:0.14;fill:#422200;enable-background:new    ;}
	.st2{fill:#EE537A;}
</style>




<path
   style="fill:none;stroke:#000000;stroke-width:1px;stroke-linecap:butt;stroke-linejoin:miter;stroke-opacity:1"
   d="m 118.27059,93.169333 c 2.01526,-2.64503 5.54196,-5.541966 5.54196,-5.541966 l 3.14885,-1.133584 6.29769,-0.755723 2.77098,0.881677 1.76335,1.889306 1.51145,0.503815 1.8893,0.755723 h 1.6374 l 4.66029,0.251907 h 2.77098 l 4.03052,-0.755722 5.79388,-0.881677 2.14121,-1.637399 2.64503,-1.763352 7.17937,1.00763 4.53433,1.889306 3.77861,3.400752 2.14122,4.156474 3.2748,10.32821 2.89693,10.32821 3.14885,8.06104 6.8015,18.01139 L 182.2551,156.02026 177.5,149.7 l -10.9,4 0.4147,9.62558 L 190.6,194.4 109,193.7 111.72099,188.76824 133.38504,161.94009 132.8,153.9 l -10.9,-4 -20.38126,-10.00182 10.20225,-28.84341 z"
   id="path3757"
   inkscape:connector-curvature="0"
   inkscape:label="path3757" /><path
   style="fill:none;stroke:#000000;stroke-width:1px;stroke-linecap:butt;stroke-linejoin:miter;stroke-opacity:1"
   d="m 109,194.4 h 81.6 l 4.6,10.7 2.42146,13.77119 1.00763,16.75185 -6.29769,92.95388 -2.77098,32.74798 -6.04578,50.38151 -8.94272,54.78989 -20.27856,-1.38549 -0.2519,-68.14099 0.2519,-150.64071 -1.00763,-6.04578 L 144.4,241.7 l 0.069,224.41844 -19.27093,-0.50382 -7.30531,-41.43879 -3.52671,-24.93884 -2.01526,-19.64879 -3.14884,-32.49607 -5.41602,-55.0418 -1.63739,-29.59913 0.37786,-41.56475 3.02289,-19.14497 z"
   id="path3761"
   inkscape:connector-curvature="0" /><path
   style="fill:#ff0000;stroke-width:0.2727159"
   d="m 154.37126,193.51939 c -15.29937,-0.12239 -31.51476,-0.29916 -36.03421,-0.39281 l -8.21718,-0.1703 1.12657,-1.99101 c 0.63522,-1.12263 5.76542,-7.72801 11.76249,-15.14478 5.84975,-7.23457 10.72341,-13.30102 10.83035,-13.48099 0.10694,-0.17997 0.0456,-2.26056 -0.13635,-4.62352 l -0.3308,-4.2963 -5.72703,-2.10313 c -4.30946,-1.58255 -8.1403,-3.29214 -15.47663,-6.90678 -5.36227,-2.64201 -9.74959,-4.88155 -9.74959,-4.97676 0,-0.59605 15.23432,-43.05273 16.3435,-45.547874 0.27861,-0.626735 1.51754,-2.082369 2.91192,-3.421247 2.17892,-2.092187 2.62203,-2.390197 4.33525,-2.91558 1.04955,-0.321858 3.07412,-0.719388 4.49907,-0.883398 3.16966,-0.364828 4.63509,-0.02094 6.02908,1.414814 1.60622,1.654339 3.98952,2.318209 8.97029,2.498675 3.93021,0.142401 4.6006,0.08962 9.54506,-0.75153 l 5.31796,-0.904688 2.31808,-1.670434 c 1.27495,-0.918738 2.50217,-1.619552 2.72716,-1.557364 0.22499,0.06219 1.6363,0.256098 3.13623,0.430911 5.87416,0.684614 10.26053,3.381547 12.39904,7.623483 1.06865,2.119768 3.34579,9.095582 5.74203,17.590172 0.76161,2.69989 2.28844,7.24061 3.39296,10.09049 1.10452,2.84988 3.23602,8.43374 4.73666,12.40857 1.50065,3.97484 2.80598,7.42322 2.90074,7.66306 0.12803,0.32405 -1.39014,1.75659 -5.90902,5.57573 -3.34472,2.8268 -6.83168,5.79104 -7.7488,6.58719 l -1.6675,1.44754 -2.26732,-3.00071 c -1.24703,-1.65039 -2.40273,-3.00072 -2.56822,-3.00072 -0.1655,0 -2.8008,0.92042 -5.85624,2.04537 -3.05543,1.12496 -5.5984,2.04537 -5.65104,2.04537 -0.23715,0 0.2857,9.75831 0.55647,10.38564 0.16717,0.38732 5.30487,7.28427 11.41712,15.32655 6.11224,8.04228 11.11317,14.68986 11.11317,14.7724 0,0.0825 -1.5647,0.12902 -3.47713,0.10328 -1.91242,-0.0257 -15.99478,-0.14693 -31.29414,-0.26932 z"
   id="path3788"
   inkscape:connector-curvature="0" /><path
   style="fill:#2a2aff;stroke-width:0.2727159"
   d="m 113.75625,386.85018 c -0.27902,-2.15427 -0.69637,-6.29414 -2.06885,-20.52187 -0.7524,-7.79967 -2.71189,-27.9261 -4.35442,-44.7254 -2.65914,-27.19687 -3.07448,-32.18795 -3.78998,-45.54356 l -0.80355,-14.99937 0.22797,-20.31734 0.22796,-20.31733 1.49121,-9.27234 1.49121,-9.27234 1.64802,-3.47713 1.64801,-3.47713 h 40.33668 40.33668 l 2.233,5.24979 2.23299,5.24978 1.20323,6.81789 c 1.0603,6.00805 1.2606,7.81334 1.68629,15.19818 l 0.48308,8.38028 -3.21764,47.39012 c -3.6647,53.97465 -5.15583,72.30788 -7.43147,91.36899 l -1.60309,13.42767 -15.47912,8e-5 -15.47912,8e-5 0.01,-71.24703 c 0.009,-65.41967 -0.0276,-71.48124 -0.44807,-74.11054 -0.25186,-1.57494 -0.49459,-2.90863 -0.53939,-2.96376 -0.0448,-0.0551 -2.2965,0.248 -5.00375,0.67362 l -4.92228,0.77386 v 73.43692 73.43693 h -14.98266 -14.98266 z"
   id="path3790"
   inkscape:connector-curvature="0" /><path
   style="fill:#2a2aff;stroke-width:0.2727159"
   d="m 163.09816,465.1348 c -4.19982,-0.29011 -7.78944,-0.57709 -7.97694,-0.63774 -0.27056,-0.0875 -0.34089,-7.98864 -0.34089,-38.29905 v -38.18878 h 15.40845 c 15.16819,0 15.40845,0.008 15.40845,0.53929 0,0.29661 -0.61545,5.65306 -1.36767,11.90322 -0.98688,8.20004 -2.58137,18.79895 -5.72703,38.06889 -2.39765,14.68774 -4.35937,26.8192 -4.35937,26.9588 0,0.34152 -2.02743,0.27826 -11.045,-0.34463 z"
   id="path3792"
   inkscape:connector-curvature="0" /><path
   style="fill:#2a2aff;stroke-width:0.2727159"
   d="m 132.09543,465.20334 c -3.40207,-0.088 -6.23796,-0.21947 -6.30199,-0.29226 -0.36077,-0.41012 -7.78548,-44.24957 -9.16755,-54.13008 -1.31941,-9.43251 -2.75294,-21.16177 -2.75294,-22.5247 0,-0.14462 6.21946,-0.24707 14.99937,-0.24707 h 14.99937 v 38.72565 38.72566 l -2.79533,-0.0486 c -1.53744,-0.0267 -5.57885,-0.1206 -8.98093,-0.20856 z"
   id="path3794"
   inkscape:connector-curvature="0" /></svg>