<?xml version="1.0" encoding="UTF-8" standalone="no"?>
<!-- Generator: Adobe Illustrator 23.0.3, SVG Export Plug-In . SVG Version: 6.00 Build 0)  -->

<svg
   xmlns:dc="http://purl.org/dc/elements/1.1/"
   xmlns:cc="http://creativecommons.org/ns#"
   xmlns:rdf="http://www.w3.org/1999/02/22-rdf-syntax-ns#"
   xmlns:svg="http://www.w3.org/2000/svg"
   xmlns="http://www.w3.org/2000/svg"
   xmlns:sodipodi="http://sodipodi.sourceforge.net/DTD/sodipodi-0.dtd"
   xmlns:inkscape="http://www.inkscape.org/namespaces/inkscape"
   version="1.1"
   id="Layer_1"
   x="0px"
   y="0px"
   viewBox="0 0 300 500"
   style="enable-background:new 0 0 300 500;"
   xml:space="preserve"
   sodipodi:docname="female_pear_dress.svg"
   inkscape:version="0.92.3 (2405546, 2018-03-11)"><metadata
   id="metadata50"><rdf:RDF><cc:Work
       rdf:about=""><dc:format>image/svg+xml</dc:format><dc:type
         rdf:resource="http://purl.org/dc/dcmitype/StillImage" /><dc:title></dc:title></cc:Work></rdf:RDF></metadata><defs
   id="defs48" /><sodipodi:namedview
   pagecolor="#ffffff"
   bordercolor="#666666"
   borderopacity="1"
   objecttolerance="10"
   gridtolerance="10"
   guidetolerance="10"
   inkscape:pageopacity="0"
   inkscape:pageshadow="2"
   inkscape:window-width="1920"
   inkscape:window-height="1001"
   id="namedview46"
   showgrid="false"
   inkscape:zoom="5.92"
   inkscape:cx="115.54911"
   inkscape:cy="231.87669"
   inkscape:window-x="-9"
   inkscape:window-y="-9"
   inkscape:window-maximized="1"
   inkscape:current-layer="Layer_1" />
<style
   type="text/css"
   id="style31">
	.st0{fill:#C68642;}
	.st1{opacity:0.14;fill:#422200;enable-background:new    ;}
	.st2{fill:#EE537A;}
</style>




<path
   style="fill:none;stroke:#000000;stroke-width:1px;stroke-linecap:butt;stroke-linejoin:miter;stroke-opacity:1"
   d="m 120.88451,89.869741 4.86208,-3.241383 7.24544,-1.239352 14.77689,13.060866 16.58826,-14.014214 1.90669,0.953348 3.71806,0.190669 7.72212,3.050713 3.14604,3.813392 L 183.3,132.8 l 0.21947,5.21381 -1.81136,6.38743 L 177.5,149.7 l -10.6,3.4 -0.25479,10.6542 19.7343,23.8337 4.52049,6.3121 4.3,11.2 1.47567,7.94229 1.43002,14.96756 0.38134,15.6349 -0.57201,14.20489 -1.23935,17.16026 -1.33469,20.87832 -2.00203,22.68968 -3.33672,37.84791 -4.29006,38.80126 -5.24342,38.80126 -6.00609,32.31849 -49.09741,-0.76268 -6.0061,-31.93715 -5.43408,-38.61059 -2.09736,-19.63897 -2.28804,-22.78501 -2.38337,-24.31037 -3.33672,-37.94325 -1.71602,-29.74445 -0.47668,-23.07102 1.33469,-23.64303 L 105.1,203.4 l 3.9,-9.7 4.7344,-7.06545 19.25763,-21.54566 L 133.1,153.2 121.9,149.9 116.78512,140.30184 116.7,132.7 Z"
   id="path52"
   inkscape:connector-curvature="0" /><path
   style="fill:none;stroke:#000000;stroke-width:1px;stroke-linecap:butt;stroke-linejoin:miter;stroke-opacity:1"
   d="m 118.02447,119.99553 64.54165,-0.19067 z"
   id="path54"
   inkscape:connector-curvature="0" /><path
   style="fill:#ff80b2;stroke-width:0.16891892"
   d="m 118.63127,118.70973 c 0.0784,-0.56581 2.79622,-28.241376 2.79622,-28.473407 0,-0.0723 4.3341,-2.912416 4.59679,-3.012259 0.11957,-0.04545 1.69407,-0.339298 3.49888,-0.653004 l 3.28149,-0.570376 7.42752,6.56807 c 4.08515,3.612438 7.47429,6.56807 7.53144,6.56807 0.0572,0 3.82744,-3.146302 8.37843,-6.991781 l 8.27453,-6.991782 0.76895,0.389659 c 0.6089,0.308552 1.18166,0.415073 2.75169,0.511757 1.98117,0.122002 1.9857,0.123265 5.70306,1.591089 l 3.72032,1.46899 1.42829,1.741665 c 0.78555,0.957916 1.46012,1.901648 1.49903,2.097183 0.0834,0.418875 1.62134,26.165506 1.56588,26.213646 -0.0208,0.018 -14.27736,0.0886 -31.68128,0.15686 l -31.6435,0.12407 z"
   id="path56"
   inkscape:connector-curvature="0" /><path
   style="fill:#ff5555;stroke-width:0.16891892;fill-opacity:1"
   d="m 103.42724,215.90203 c 0.0846,-1.3999 0.43742,-3.52795 1.19713,-7.22129 l 1.07714,-5.23648 1.8992,-4.72437 1.89919,-4.72437 2.39766,-3.55266 c 2.34814,-3.47928 2.59691,-3.77557 12.04488,-14.34558 l 9.64721,-10.79293 0.0317,-5.80336 c 0.0174,-3.19184 0.0364,-6.01206 0.0422,-6.26714 l 0.0106,-0.46379 -5.68417,-1.68076 -5.68417,-1.68077 -2.45222,-4.59284 -2.45222,-4.59284 -0.0426,-4.03119 c -0.0372,-3.52674 0.0285,-4.75259 0.52548,-9.79611 l 0.56804,-5.76491 23.15145,-0.11621 c 12.7333,-0.0639 27.02814,-0.0922 31.76632,-0.0628 l 8.61486,0.0534 0.28166,4.64527 c 0.15492,2.5549 0.37378,6.47088 0.48637,8.70217 l 0.20471,4.05691 -0.88236,3.09851 -0.88236,3.0985 -2.01962,2.54828 -2.01962,2.54829 -5.35466,1.71671 -5.35466,1.7167 -0.10731,1.58636 c -0.059,0.87249 -0.14668,3.42032 -0.19479,5.66185 l -0.0875,4.07549 9.99209,12.07334 c 6.24755,7.54885 10.82082,13.23803 12.20353,15.18126 l 2.21144,3.10792 2.11937,5.57433 2.11937,5.57432 0.6933,3.80068 c 0.38131,2.09037 0.76895,4.59882 0.86142,5.57432 0.0925,0.97551 0.20793,2.0587 0.2566,2.4071 l 0.0885,0.63344 h -46.64658 -46.64658 z"
   id="path58"
   inkscape:connector-curvature="0" /><path
   style="fill:#ff8080;stroke-width:0.16891892;fill-opacity:1"
   d="m 118.69539,118.61218 c 0.0581,-0.4454 0.71051,-6.99978 1.44971,-14.56528 0.73919,-7.565504 1.40235,-13.807642 1.47366,-13.871416 0.28437,-0.254284 3.7093,-2.490742 4.18373,-2.731949 0.27872,-0.141704 1.97064,-0.508831 3.75982,-0.815838 l 3.25307,-0.558196 0.46315,0.427765 c 0.5228,0.482858 7.94665,7.024766 11.75572,10.359152 1.37971,1.207771 2.57779,2.221591 2.66241,2.252935 0.0846,0.03134 1.27412,-0.877277 2.64335,-2.019158 3.22583,-2.690211 13.18933,-11.08158 13.67407,-11.51645 0.37301,-0.334631 0.3754,-0.334599 1.19009,0.01587 0.46274,0.199064 1.39836,0.397461 2.16003,0.45803 2.23228,0.177514 3.05876,0.402038 6.59546,1.791734 l 3.39366,1.33349 1.18525,1.476909 c 0.65189,0.8123 1.30374,1.666942 1.44855,1.899206 0.20633,0.330928 0.35785,1.957302 0.70031,7.516896 0.69247,11.24172 1.12231,18.88014 1.06562,18.93682 -0.0951,0.0951 -17.11034,0.23306 -40.30021,0.32684 l -22.86316,0.0925 z"
   id="path4574"
   inkscape:connector-curvature="0" /><path
   style="fill:#ff5555;fill-opacity:1;stroke-width:0.16891892"
   d="m 106.8911,318.52027 c -0.0537,-0.39485 -0.63208,-6.83699 -1.28528,-14.31588 -1.7349,-19.8639 -2.77297,-37.9025 -3.13496,-54.47635 l -0.26932,-12.33108 0.5252,-9.12162 c 0.28886,-5.01689 0.52517,-9.40681 0.52514,-9.75537 l -7e-5,-0.63375 46.66128,0.0425 46.66128,0.0425 0.45681,4.72973 c 0.72095,7.46466 0.96212,19.20708 0.58284,28.37838 -0.15753,3.80912 -0.5491,10.53632 -0.87016,14.94933 -0.32107,4.413 -0.88686,12.77449 -1.25732,18.58108 -0.37046,5.80658 -1.14809,15.97339 -1.72805,22.5929 l -1.05448,12.03548 h -42.85764 -42.85764 z"
   id="path4576"
   inkscape:connector-curvature="0" /><path
   style="fill:#ff5555;fill-opacity:1;stroke-width:0.16891892"
   d="m 121.19296,440.22635 c -1.81579,-9.737 -6.18394,-40.58332 -7.56491,-53.42061 -1.98936,-18.49283 -6.66002,-65.7059 -6.66002,-67.32239 0,-0.21364 5.50724,-0.24517 42.82095,-0.24517 h 42.82094 v 0.51327 c 0,0.28229 -0.71871,8.66278 -1.59712,18.62331 -2.30306,26.11465 -4.98347,50.16648 -8.46576,75.96477 -2.14287,15.87531 -2.83736,20.56715 -3.8756,26.18243 -0.69569,3.76267 -1.26474,6.89823 -1.26456,6.9679 1.7e-4,0.0697 -12.33779,0.12669 -27.41772,0.12669 h -27.41805 z"
   id="path4578"
   inkscape:connector-curvature="0" /><path
   style="fill:#ff5555;fill-opacity:1;stroke-width:0.16891892"
   d="m 150.38019,465.42041 c -7.57179,-0.12188 -16.19328,-0.28192 -19.15887,-0.35563 l -5.39198,-0.13404 -1.62569,-8.65709 -1.62569,-8.6571 h 27.39882 c 26.00837,0 27.39523,0.015 27.32827,0.29561 -0.10163,0.42587 -3.27621,17.55382 -3.27621,17.67628 0,0.14401 -7.63179,0.0898 -23.64865,-0.16803 z"
   id="path4580"
   inkscape:connector-curvature="0" /></svg>