<?xml version="1.0" encoding="UTF-8" standalone="no"?>
<svg
   xmlns:dc="http://purl.org/dc/elements/1.1/"
   xmlns:cc="http://creativecommons.org/ns#"
   xmlns:rdf="http://www.w3.org/1999/02/22-rdf-syntax-ns#"
   xmlns:svg="http://www.w3.org/2000/svg"
   xmlns="http://www.w3.org/2000/svg"
   version="1.1"
   id="Layer_1"
   x="0px"
   y="0px"
   viewBox="0 0 288 560"
   style="enable-background:new 0 0 288 560;"
   xml:space="preserve"><metadata
   id="metadata83"><rdf:RDF><cc:Work
       rdf:about=""><dc:format>image/svg+xml</dc:format><dc:type
         rdf:resource="http://purl.org/dc/dcmitype/StillImage" /><dc:title></dc:title></cc:Work></rdf:RDF></metadata><defs
   id="defs81">
	</defs>
<path
   d="M 144.59961 156.90039 C 144.59961 156.90039 141.3 156.79922 138.5 158.19922 C 131.9 161.49922 131.50039 171.69961 131.40039 173.09961 C 131.40039 174.39592 131.10335 185.13726 137.44727 188.37109 C 137.43254 188.3815 137.41463 188.38971 137.40039 188.40039 C 137.90039 189.20039 138.20078 190.09961 138.30078 191.09961 C 138.50078 191.69961 138.59961 192.30039 138.59961 192.90039 C 138.59961 193.30039 138.6 193.69961 138.5 194.09961 C 138.5 194.69961 138.50078 195.30039 138.30078 195.90039 C 138.20078 196.30039 138.00078 196.6 137.80078 197 C 137.67724 197.30886 137.46927 197.60924 137.24023 197.89453 C 137.22617 197.89789 137.21342 197.89665 137.19922 197.90039 C 135.29922 198.40039 133.59922 199.2 131.69922 199.5 C 130.86433 199.63182 130.0908 199.88458 129.36328 200.22266 C 125.34446 201.40718 122.81397 204.39087 121.5 209.40039 C 119.8 216.00039 117.59922 222.4 115.69922 229 C 109.49922 250.2 103.39961 271.4 97.099609 292.5 C 96.099609 295.9 96.599609 298.70039 98.599609 301.40039 C 99.999609 303.30039 101.09961 307.00078 103.59961 305.80078 C 105.79961 304.70078 103.60039 301.69961 102.90039 299.59961 C 102.80039 299.29961 102.59961 298.99922 102.59961 298.69922 C 102.49961 296.09922 104.1 294.3 105.5 292.5 C 106.9 290.8 107.69922 292.9 108.69922 293.5 C 109.29922 293.9 109.9 294.30078 110.5 293.80078 C 111.5 293.00078 110.89922 292.09961 110.69922 291.09961 C 110.09922 288.49961 106.7 286.9 108 283.5 C 113.2 270.2 118.20078 256.9 123.30078 243.5 C 123.90078 243.1 124.20039 242.60039 124.40039 241.90039 C 124.50039 241.60039 124.6 241.40039 124.5 241.40039 C 123.9 241.10039 124.89961 240.8 124.59961 241.5 C 124.59961 244.1 125.7 246.89961 124.5 249.59961 L 124.5 259.5 C 133.6 268.3 155.20078 267.99922 165.30078 259.69922 C 165.00078 253.09922 164.00078 246.49922 164.80078 238.69922 C 169.90078 252.39922 174.39922 265.09961 179.19922 277.59961 C 180.89922 281.99961 183.19922 286.2 179.19922 290.5 C 178.59922 291.2 178.29922 292.39922 179.19922 293.19922 C 179.59922 293.49922 180.6 293.49922 181 293.19922 C 184.6 289.99922 184.9 293.79961 186 295.59961 C 187.5 298.09961 186.00039 300.40078 185.40039 302.80078 C 185.10039 304.00078 183.89922 305.39922 185.69922 306.19922 C 187.19922 306.89922 188.1 305.5 189 304.5 C 191.9 300.4 193.30078 296.2 191.80078 291 C 184.10078 265.2 176.5 239.39961 169 213.59961 C 167.21267 207.39098 165.68706 201.27278 159.26953 199.73633 C 157.29744 198.628 154.69666 198.06521 152.54492 198.44727 C 152.39133 198.3722 152.23926 198.28487 152.08594 198.19922 C 151.12262 197.14239 150.62924 195.77269 150.80078 194.40039 L 150.80078 194.30078 L 150.80078 194.19922 C 150.80078 193.79922 150.9 193.40039 151 192.90039 C 151 192.60039 151.09961 192.20039 151.09961 191.90039 C 151.19961 191.50039 151.3 190.99961 151.5 190.59961 C 151.5 190.39961 151.59961 190.20039 151.59961 189.90039 C 151.59961 189.10039 151.79922 188.29961 152.19922 187.59961 C 152.09511 187.62564 151.99083 187.64599 151.88672 187.67188 C 157.78813 184.06829 157.5969 174.36663 157.5 173.30078 C 157.3 167.70078 154.8 160.4 149.5 158 C 147.2 157 144.59961 156.90039 144.59961 156.90039 z M 123.5 261.5 C 122.9 272.3 122.10078 283.00078 121.80078 293.80078 C 121.40078 313.60078 122 333.3 124.5 353 C 126.6 369.8 128.30039 386.59961 132.40039 403.09961 C 133.10039 405.79961 132.80078 407.89961 130.30078 409.59961 C 129.00078 410.49961 127.89961 411.89961 130.09961 413.09961 C 135.09961 415.89961 140.59961 412.6 140.59961 407 C 140.69961 366.6 140.79922 326.3 140.69922 286 C 140.69922 281.1 142.19922 279.6 146.69922 280.5 C 146.99922 304.7 146.80039 328.79922 147.40039 352.69922 C 148.00039 370.39922 147.59961 387.99922 147.59961 405.69922 C 147.59961 413.39922 148.50039 414.09922 156.40039 413.19922 C 157.40039 413.09922 158.6 413.09961 159 412.09961 C 159.4 410.99961 158.39961 410.19922 157.59961 409.69922 C 154.69961 407.79922 154.79961 405.50039 155.59961 402.40039 C 157.49961 395.00039 158.99961 387.6 160.09961 380 C 163.59961 356.7 166.30039 333.29922 166.40039 309.69922 C 166.50039 295.89922 166.09961 282.10039 164.59961 268.40039 C 158.05417 271.07807 152.98049 276.11039 146.84961 279.60742 C 146.80015 279.46611 146.72708 279.32669 146.59961 279.19922 C 143.79961 277.49922 140.5 278.4 137.5 277 C 130.5 273.8 125.5 269.1 123.5 261.5 z "
   id="path4"
   style="fill:#7c533e" />
<path
   style="fill:#ee537b"
   d="m 160.55469,223.23242 c -4.77285,0.0766 -7.96797,3.29375 -10.85547,6.96875 -2.4,-3.5 -7.09961,-3.9 -10.09961,-1 -0.0898,0.17206 -0.15342,0.32421 -0.20508,0.46875 0.019,-0.11186 0.051,-0.233 0.10547,-0.36914 -1.8,0.5 -2.59961,-1.1 -3.59961,-2 -3.2,-2.9 -6.70117,-4.60117 -11.20117,-3.70117 -1.8,0.1 -2.1,1.70039 -3,2.90039 -0.5,4.5 0.90156,7.90039 5.10156,9.90039 4.3,2 7.79922,0.60078 10.69922,-2.69922 1.1,-1.4 2.6,-1.2 4,-1.5 0.017,-0.0577 0.0188,-0.10602 0.0273,-0.1582 0.0216,0.0208 0.0525,0.0344 0.0723,0.0566 h 5.20117 c 2.3,-0.1 3.5,1.50078 5,2.80078 3.2,2.7 7.1,3.20078 10.5,0.80078 3.5,-2.4 5.19844,-5.90078 3.39844,-10.30078 -0.5,-1.4 -1.8,-1.6 -3,-2 -0.75,-0.125 -1.46269,-0.1789 -2.14453,-0.16797 z m -36.85547,36.16797 c -0.1,0.6 -0.0992,1.3 -0.19922,2 -0.9,6.4 2.8,10.00078 7.5,13.30078 4.8,3.3 9.79922,5.4 15.69922,5 7.3,-1.7 12.40039,-6.80078 17.90039,-11.30078 0,-3 3.9e-4,-5.90078 -0.0996,-8.80078 -5.9,1.4 -11.3,4.4 -17.5,5 -8.4,0.8 -15.80078,-2.29922 -23.30078,-5.19922 z"
   id="path10" />
</svg>