<?xml version="1.0" encoding="utf-8"?>
<!-- Generator: Adobe Illustrator 23.0.1, SVG Export Plug-In . SVG Version: 6.00 Build 0)  -->
<svg version="1.1" id="Layer_1" xmlns="http://www.w3.org/2000/svg" xmlns:xlink="http://www.w3.org/1999/xlink" x="0px" y="0px"
	 viewBox="0 0 185.5 310.3" style="enable-background:new 0 0 185.5 310.3;" xml:space="preserve">
<style type="text/css">
	.st0{fill:#FCC49B;}
	.st1{fill:#FAC099;}
	.st2{fill:#FBC59F;}
	.st3{fill:#FAD2B4;}
	.st4{fill:#EBB290;}
	.st5{fill:#E9B08C;}
	.st6{fill:#E6B08C;}
	.st7{fill:#EE537A;}
	.st8{fill:#EE547B;}
	.st9{fill:#ED537A;}
	.st10{fill:#CF486B;}
</style>
<g>
	<path class="st0" d="M95.3,154c2.1,34,0.5,68,1,102c0.1,7.6-1.7,15.2-1.1,22.8c0,0.7-0.6,1.5-0.9,2.2c0-0.9-0.1-1.9-0.1-2.8
		c0-39.5,0-79,0.1-118.5C94.4,157.8,93.6,155.7,95.3,154z"/>
	<path class="st1" d="M89.7,280.6c-1.6-1.5-1-3.4-1-5.2c0-38.5,0-77.1,0-115.7c0-1.8-0.7-3.7,1-5.2
		C89.7,196.6,89.7,238.6,89.7,280.6z"/>
	<g>
		<path class="st2" d="M77.3,105.3c-5.2,5.8-7.1,13.4-10.3,20.3c-4,8.4-7.2,17.2-11.2,25.6c-1.7,3.6-1.9,6.4,0.9,9.3
			c0.7,0.7,1.4,1.7,0.7,2.6c-0.5,0.8-1.5,0.4-2.3,0.1c-4.1-1.3-6.6,1.1-5.6,5.6c0.3,1.1,1.1,2,1.5,3.1c0.5,1,1.5,2.1,0.2,3.1
			s-2.5,0.3-3.5-0.7c-2.9-3-4.8-5.9-3.7-10.6c4-17,11-33,17-49.4c4.4-12,9.1-23.9,12.8-36.1c1.4-4.5,3.8-7.4,8.6-7.5
			c0.9,0,1.7-0.2,2.3-0.8c0.6-0.7,0.7-1.7,0.6-2.4c0.1-1.3,0.3-2.6,0.3-3.9c0-0.7,0.1-1.4,0.1-2.2c4.3,0,8.6,0.7,12.9,0
			c0,0.7,0,1.5,0.1,2.3c0.1,1.3,0.2,2.6,0.4,3.8c-0.1,0.7,0,1.5,0.6,2.2s1.5,1,2.8,1c3.8,0.2,6.5,2.1,7.6,6
			c7.6,24.8,18.1,48.6,26.3,73.2c1.6,4.9,2.7,10,4.1,14.9c1.3,4.5-1.4,7.2-4.2,9.9c-0.9,0.9-2.2,1.1-3.2,0.4c-1.3-0.9-0.5-2,0.1-3.1
			c1.2-1.8,2.6-3.6,1.8-6c-0.9-2.6-1.3-6.2-5.5-3.2c-0.8,0.6-2,1-2.7,0s0.3-2,0.9-2.6c3.2-3,2.2-6.1,0.7-9.5
			c-5.8-13.1-11.5-26.2-17.3-39.3c-1-2.2-1.6-4.8-3.9-6.2c-0.2-3,2.4-5.5,1.7-8.7c0.2-4.7-4.7-4.5-6.8-7.2c0,1.4,1,1.3,1.7,1.7
			c1.7,0.9,4.4,1.5,4.4,3.6c0,2.6-3.1,1.6-4.7,2.7c-3.4,1-6.5,2.8-9.4,4.8c-1.2,0.4-2.4,0.4-3.6,0c-3.1-1.7-6-3.9-9.5-4.8
			c-1.5-1-4.6-0.1-4.7-2.7c0-2.1,2.3-2.9,4.2-3.6c0.8-0.3,1.6-0.4,2-1.7c-2.4,2.6-7.2,2.5-6.9,7.2C75,99.7,77.5,102.2,77.3,105.3z"
			/>
		<path class="st2" d="M89.3,280.4c0,2.4-1.5,3.1-3.6,3.1c-1.8,0-3.7,0.1-5.5,0c-1.5-0.1-3.4,0.7-4.2-0.7c-1-1.8,0.9-2.9,2.1-4
			c1.3-1.2,1.2-2.5,0.9-4.1c-4.8-21.4-6.7-43.2-8.8-65c-2-20.3-4.1-40.6-3.8-61.1c0.1-4.8,0.6-9.5,1.8-14.1
			c7.6,9.1,16.5,16.1,28.8,17.5c1.3,1.3,0.8,2.7,0.4,4.1c-0.9,2.3-0.6,4.6-0.6,6.9c0,36,0,72,0,108.1c0,2.6,0.7,5.4-1.5,7.6
			c-1.3-1.8-0.8-3.9-0.8-5.8c0-38.2,0-76.3,0-114.5c0-3.7-0.2-6.8-5.1-3.9c-0.9,1.4-0.5,2.9-0.5,4.4c0,39.1,0,78.2,0,117.2
			C88.9,277.5,88.5,279,89.3,280.4z"/>
		<path class="st2" d="M96.3,154.4c1.1-0.8,0.9-1.4-0.1-2.1c-0.2-1.6,1.1-2.4,2.1-3c6.6-4,12.6-8.7,18.2-14c2.3,9.5,2,19.1,1.5,28.7
			c-0.7,12.2-1.8,24.5-2.8,36.7c-1.4,16.8-3.3,33.6-5.5,50.3c-1.1,8.1-2.4,16-4.2,24c-0.5,2.4,0.6,3.7,2.1,5.2
			c0.7,0.6,1.7,1.3,1.1,2.5c-0.5,1.1-1.8,1.1-2.6,0.8c-3.5-1-8,2.5-10.8-2c1-6.7,0.8-13.6,0.9-20.3c0.3-31.1,0.1-62.2,0.2-93.3
			C96.4,163.3,95,158.9,96.3,154.4z"/>
		<path class="st2" d="M70.3,129.3c1.7-3.8,4.5-7,7.8-8.8c4.8-2.5,5.6-5.9,5-10.5c-0.1-0.8,0-1.7,0-2.5c1-2.4,3.2-3.3,5.5-4.1
			c2.1-0.4,4.2-0.4,6.3-0.1c2.5,0.8,5.2,1.4,6.4,4.1c0,1.8,0.2,3.7,0,5.5c-0.4,3,0.7,4.9,3.4,6.5c4.1,2.4,7.4,5.6,9.5,9.9
			C100.8,141.7,83.4,141.7,70.3,129.3z"/>
		<path class="st3" d="M85.8,61.3c-1.5-1.7-3.8-5-5-9.6c-1.5-5.7-0.5-10.3,0-12.6c0.8-3.7,1.5-7.1,4.6-9.3c2.9-2.1,6.1-1.9,6.5-1.9
			c2.5,0.2,4.2,1.2,4.9,1.7c1.4,0.9,2.8,2.2,4.1,4.3c3.4,5.7,3.3,10.9,3,16.6c-0.2,4.9-3.6,8-5.7,11.9c-0.7,0.7-1.9,1.6-3.6,2
			C89.9,65.5,86,61.5,85.8,61.3z"/>
		<path class="st4" d="M81.3,96.3c-2.3,0-4.6,0.1-6.9,0.1c0-2.5,1.5-4.1,3.5-5c2.6-1,3.9-2.7,3.7-5.8c2.8,1.1,0.7,4.1,3.8,5.2
			c-3.7,0.8-6.8,0.9-8.5,3.8C78.1,96.2,80.4,94.7,81.3,96.3z"/>
		<path class="st5" d="M110.3,96.5c-2.3-0.1-4.6-0.1-6.9-0.2c1-1.5,2.9-0.4,4.3-1.4c-1.5-3.1-4.4-3.4-8.1-3.7c2.3-1.5,1.2-3.8,3-5.9
			c0.5,3.5,2,5.7,4.8,7C108.9,92.9,110.4,94.3,110.3,96.5z"/>
		<path class="st6" d="M85.4,75.7c4.7,1.2,9.3,2.4,13.8-0.4C94.8,79.4,91.2,79.6,85.4,75.7z"/>
	</g>
</g>
<g>
	<path class="st7" d="M70.2,128.9c4.2,1.5,7.7,4.3,11.8,6.1c10.4,4.5,19.4,1,28.3-4c1.3-0.7,2.2-2.1,3.9-2c0.8,2,1.5,4,2.3,6
		c-2.2,5.5-7.3,8-11.7,11.2c-2.8,2.1-5.8,3.9-8.7,5.8c-10.3,1.3-16.6-6-23.7-11.3c-2.1-1.6-4.9-3.1-4.3-6.6
		C68.8,132.3,69.5,130.6,70.2,128.9z"/>
	<path class="st8" d="M101.8,108c-2-1-4-2.1-6.1-3.1c-0.9-0.9-1.9-1.6-1.1-3.1c2.3-3.1,5.7-4,9.1-4.9c2.3-0.4,4.6-1,6.9,0.2
		c0.6,3.4-0.7,6.3-2.9,8.8C105.8,106.6,103.8,107.3,101.8,108z"/>
	<path class="st9" d="M88.8,104.4c-1.7,1.1-3.5,2.1-5.2,3.2c-2.3,0.3-4-1.2-5.9-2.2c-2.3-2.5-3.5-5.4-2.9-8.8
		c2.3-1.1,4.6-0.6,6.9-0.1c3.5,0.8,6.7,2.2,9.2,5C90.9,102.9,90.1,103.8,88.8,104.4z"/>
	<path class="st10" d="M87.7,104.6c-0.1-1.9,0-1-0.1-2.9c3.1-0.1,5.2,0,7.6-0.2c0.4,1,0.7,2,1.1,3.1L87.7,104.6z"/>
</g>
</svg>
