<?xml version="1.0" encoding="UTF-8" standalone="no"?>
<!-- Generator: Adobe Illustrator 23.0.3, SVG Export Plug-In . SVG Version: 6.00 Build 0)  -->

<svg
   xmlns:dc="http://purl.org/dc/elements/1.1/"
   xmlns:cc="http://creativecommons.org/ns#"
   xmlns:rdf="http://www.w3.org/1999/02/22-rdf-syntax-ns#"
   xmlns:svg="http://www.w3.org/2000/svg"
   xmlns="http://www.w3.org/2000/svg"
   xmlns:sodipodi="http://sodipodi.sourceforge.net/DTD/sodipodi-0.dtd"
   xmlns:inkscape="http://www.inkscape.org/namespaces/inkscape"
   version="1.1"
   id="Layer_1"
   x="0px"
   y="0px"
   viewBox="0 0 300 500"
   style="enable-background:new 0 0 300 500;"
   xml:space="preserve"
   sodipodi:docname="female_pear_athletic.svg"
   inkscape:version="0.92.3 (2405546, 2018-03-11)"><metadata
   id="metadata855"><rdf:RDF><cc:Work
       rdf:about=""><dc:format>image/svg+xml</dc:format><dc:type
         rdf:resource="http://purl.org/dc/dcmitype/StillImage" /><dc:title></dc:title></cc:Work></rdf:RDF></metadata><defs
   id="defs853" /><sodipodi:namedview
   pagecolor="#ffffff"
   bordercolor="#666666"
   borderopacity="1"
   objecttolerance="10"
   gridtolerance="10"
   guidetolerance="10"
   inkscape:pageopacity="0"
   inkscape:pageshadow="2"
   inkscape:window-width="1920"
   inkscape:window-height="1001"
   id="namedview851"
   showgrid="false"
   inkscape:zoom="3.9922205"
   inkscape:cx="157.91344"
   inkscape:cy="320.78436"
   inkscape:window-x="-9"
   inkscape:window-y="-9"
   inkscape:window-maximized="1"
   inkscape:current-layer="Layer_1" />
<style
   type="text/css"
   id="style836">
	.st0{fill:#C68642;}
	.st1{opacity:0.14;fill:#422200;enable-background:new    ;}
	.st2{fill:#EE537A;}
</style>




<path
   style="fill:none;stroke:#000000;stroke-width:1px;stroke-linecap:butt;stroke-linejoin:miter;stroke-opacity:1"
   d="m 118.02291,92.943774 5.02972,-5.263658 4.79578,-1.988493 6.43336,-0.467881 2.57334,3.392136 4.3279,5.380628 8.30488,0.701821 7.48609,-0.935762 4.3279,-2.690314 3.86001,-6.082449 5.96548,1.052732 4.44487,1.169701 L 183.3,132.8 l 0.46015,5.99608 -3.04122,7.4861 L 177.9,149.2 l 13,44.7 -81.9,-0.2 13.1,-44.6 -3.96012,-6.32693 -1.75455,-4.91275 L 116.7,132.7 118.8417,93.060744 Z"
   id="path857"
   inkscape:connector-curvature="0" /><path
   style="fill:none;stroke:#000000;stroke-width:1px;stroke-linecap:butt;stroke-linejoin:miter;stroke-opacity:1"
   d="M 101.64709,208.04243 Z"
   id="path859"
   inkscape:connector-curvature="0" /><path
   style="fill:none;stroke:#000000;stroke-width:1px;stroke-linecap:butt;stroke-linejoin:miter;stroke-opacity:1"
   d="m 109,194.4 -4.19472,10.83515 -2.45637,12.74975 -0.35091,35.09105 42.3432,1.75455 0.0588,-13.1305 8.83094,-0.43804 0.58485,14.03642 44.33169,0.70182 0.11697,-28.07284 L 195.2,205.1 190.9,193.9 Z"
   id="path861"
   inkscape:connector-curvature="0" /><path
   style="fill:#000000;fill-opacity:1;stroke-width:0.1438849"
   d="m 175.36668,255.10518 c -9.49641,-0.14771 -18.1125,-0.30606 -19.14689,-0.35189 l -1.8807,-0.0833 -0.26847,-6.90795 c -0.22073,-5.67933 -0.30507,-6.92198 -0.47422,-6.98689 -0.19631,-0.0753 -6.12467,0.16417 -8.62541,0.34847 l -1.18705,0.0875 v 6.53566 6.53565 l -1.33093,-0.0866 c -0.73202,-0.0477 -9.97052,-0.44115 -20.53002,-0.87443 -10.55949,-0.43328 -19.23163,-0.82034 -19.27142,-0.86013 -0.0398,-0.0398 0.004,-7.80765 0.097,-17.26193 l 0.16931,-17.18958 1.21792,-6.30215 1.21791,-6.30214 2.00134,-5.1745 2.00133,-5.17449 5.81092,-0.0909 c 3.196,-0.05 20.63826,-0.16402 38.76056,-0.25337 18.1223,-0.0894 33.76391,-0.19148 34.75913,-0.22694 l 1.80949,-0.0645 2.09525,5.49771 2.09526,5.4977 1.51996,11.43885 1.51997,11.43885 -0.0869,13.56115 -0.0869,13.56115 -2.4601,-0.0212 c -1.35305,-0.0117 -10.22988,-0.14203 -19.72628,-0.28973 z"
   id="path867"
   inkscape:connector-curvature="0" /><path
   style="fill:#ffffff;fill-opacity:1;stroke-width:0.1438849"
   d="m 149.85063,193.24497 c -21.94749,-0.0594 -39.93695,-0.14039 -39.97657,-0.18001 -0.0396,-0.0396 2.82134,-9.92316 6.3577,-21.9634 3.53636,-12.04024 6.40096,-22.00141 6.36578,-22.13594 -0.0352,-0.13452 -0.93471,-1.63567 -1.99896,-3.3359 -1.79514,-2.86788 -1.9959,-3.26123 -2.77756,-5.44193 l -0.84255,-2.3506 0.0918,-1.67818 c 0.8387,-15.34014 2.24967,-41.681337 2.28233,-42.608374 l 0.0429,-1.21797 2.008,-2.090781 2.008,-2.090781 2.30855,-0.953965 2.30855,-0.953965 2.51798,-0.16669 c 1.3849,-0.09168 2.7244,-0.199019 2.97669,-0.238532 0.43863,-0.0687 0.50756,-0.0071 1.5757,1.407824 1.8152,2.404559 5.67063,7.175073 5.85382,7.243212 0.0931,0.03464 2.04703,0.225427 4.34199,0.423965 l 4.17267,0.360979 3.59712,-0.43516 c 1.97842,-0.239337 3.76975,-0.491046 3.98075,-0.559353 0.21099,-0.06831 1.34652,-0.721088 2.5234,-1.450625 l 2.13977,-1.326431 1.79315,-2.815735 c 0.98623,-1.548654 1.83181,-2.873496 1.87906,-2.944095 0.12194,-0.182176 4.81331,0.666032 7.46804,1.350236 l 2.23022,0.574793 3.85561,22.831098 c 3.16598,18.74744 3.89265,23.30721 4.06269,25.49297 l 0.20709,2.66187 -1.46322,3.59712 -1.46321,3.59712 -1.4484,1.55709 c -0.79662,0.8564 -1.46622,1.60588 -1.48799,1.66551 -0.0218,0.0596 2.84334,10.02032 6.36691,22.13487 3.52357,12.11455 6.40649,22.06472 6.40649,22.11147 0,0.0468 -0.0809,0.074 -0.17986,0.0606 -0.0989,-0.0134 -18.13689,-0.073 -40.08439,-0.13235 z"
   id="path871"
   inkscape:connector-curvature="0" /><path
   style="fill:#ffffff;fill-opacity:1;stroke-width:0.1438849"
   d="m 147.11484,193.24317 c -20.44498,-0.0606 -37.20469,-0.14212 -37.24379,-0.18122 -0.0391,-0.0391 2.48909,-8.8006 5.61821,-19.46999 3.12912,-10.66939 6.02808,-20.57107 6.44213,-22.00372 l 0.75281,-2.60483 -2.01285,-3.23015 c -1.86261,-2.98906 -2.07558,-3.40419 -2.85332,-5.56191 l -0.84048,-2.33176 0.0891,-1.68937 c 0.11686,-2.21699 2.22849,-41.357933 2.30937,-42.806206 l 0.0624,-1.116823 1.97969,-2.048644 1.97968,-2.048645 2.30075,-0.953296 2.30074,-0.953297 2.53267,-0.168451 c 1.39296,-0.09265 2.7372,-0.199667 2.9872,-0.23782 0.43645,-0.06661 0.51054,0.0038 1.86129,1.76923 2.46106,3.216574 5.53696,6.946512 5.72845,6.946512 0.10178,0 2.02706,0.160414 4.2784,0.356476 l 4.09337,0.356476 3.8406,-0.483908 3.84061,-0.483908 2.26914,-1.399683 2.26915,-1.399682 1.85909,-2.933317 c 1.02251,-1.613325 1.90227,-2.933318 1.95504,-2.933318 0.83115,0 9.46093,1.855908 9.57257,2.058664 0.008,0.01522 1.74131,10.257883 3.85095,22.76148 3.21284,19.04202 3.87028,23.18053 4.04849,25.4847 l 0.21276,2.75088 -1.45224,3.58005 -1.45224,3.58005 -1.49863,1.60934 -1.49862,1.60934 0.59245,2.05973 c 0.32585,1.13285 3.20982,11.06741 6.40882,22.0768 3.199,11.00939 5.81637,20.05795 5.81637,20.10791 0,0.05 -1.31115,0.0799 -2.91367,0.0666 -1.60252,-0.0133 -19.64138,-0.0738 -40.08637,-0.13433 z"
   id="path873"
   inkscape:connector-curvature="0" /></svg>