<?xml version="1.0" encoding="utf-8"?>
<!-- Generator: Adobe Illustrator 23.0.1, SVG Export Plug-In . SVG Version: 6.00 Build 0)  -->
<svg version="1.1" id="Layer_1" xmlns="http://www.w3.org/2000/svg" xmlns:xlink="http://www.w3.org/1999/xlink" x="0px" y="0px"
	 viewBox="0 0 288 560" style="enable-background:new 0 0 288 560;" xml:space="preserve">
<style type="text/css">
	.st0{fill:#4B3527;}
</style>
<path class="st0" d="M137.22,298.51c-0.55,1.95,0.17,4.12-1.03,5.95c-1.54,0.26-0.51-3.12-3.03-1.93c-2.08,0.98-1.78-0.4-1.5-2.03
	c0.77-4.49-1.71-2.23-3.36-1.48c-1.36-1.01,1.44-6.5-3.73-3.1c-0.34-2.17,0.96-3.65,1.56-5.51c-2.09-0.29-4.09-0.22-5.86-1.44
	c1.58-2.06,4.56-2.38,5.62-5.01c-1.48-1.58-4.45-1.25-5.36-3.83c1.09-1.05,2.96,0,3.93-1.47c0.2-1.3-0.97-0.9-1.59-1.12
	c-1.71-0.6-4.1-1.01-3.76-3.2c0.32-2.02,2.54-0.63,3.83-0.71c3.42-0.2,4.35-2.5,5.14-5.19c1.19-4.05,1.05-9.27,6.02-10.74
	c6.61-1.95,13.51-2.13,20.11,0.34c3.16,1.18,3.66,4.52,4.48,7.39c2.33,8.23,2.31,8.23,10.35,8.06c-0.49,3.67-3.85,3.53-6.16,4.64
	c0.57,2.3,3.07,0.68,4.03,2.13c-1.03,2.33-3.55,2.28-5.36,3.51c0.78,1.96,2.48,2.88,4.19,3.8c0.91,0.49,1.91,0.99,0.44,2.02
	c-1.05,1.41-4.1-1.35-4.2,2.02c0.11,0.27,0.16,0.56,0.17,0.85c0.52,1.13-0.13,1.71-1.04,2.15c-0.59,0.05-1.18,0.1-1.78,0.15
	c-1.44,0.57,0.37,2.59-1.36,3.03c-3.61-0.44-1.82,2.19-2.08,3.65c-2.33,0.12-0.31-2.6-1.72-2.9c0.75,1.18,0.67,2.44-0.02,3.73
	c-0.6-0.13-1.2-0.25-1.8-0.38c-1.09-1.13-0.76-2.84-1.66-4.04c-0.09-3.67,2.7-6.31,3.43-9.72c0.99-4.65,1.91-9.32-2.12-12.96
	c-2.25-2.03-5.26-3.13-7.33-5.51c-0.57-0.65-1.77-0.55-2.21,0.21c-1.76,3.06-5.07,4.05-7.63,6.03c-1.82,1.41-2.5,3.39-2.45,5.7
	c0.09,4.22,1.19,8.15,3.11,11.9C136.28,295.09,137.78,296.46,137.22,298.51z"/>
</svg>
