<?xml version="1.0" encoding="UTF-8" standalone="no"?>
<!-- Generator: Adobe Illustrator 23.0.1, SVG Export Plug-In . SVG Version: 6.00 Build 0)  -->

<svg
   xmlns:dc="http://purl.org/dc/elements/1.1/"
   xmlns:cc="http://creativecommons.org/ns#"
   xmlns:rdf="http://www.w3.org/1999/02/22-rdf-syntax-ns#"
   xmlns:svg="http://www.w3.org/2000/svg"
   xmlns="http://www.w3.org/2000/svg"
   xmlns:sodipodi="http://sodipodi.sourceforge.net/DTD/sodipodi-0.dtd"
   xmlns:inkscape="http://www.inkscape.org/namespaces/inkscape"
   version="1.1"
   id="Layer_1"
   x="0px"
   y="0px"
   viewBox="0 0 300 500"
   style="enable-background:new 0 0 300 500;"
   xml:space="preserve"
   sodipodi:docname="female_hourglass_suit.svg"
   inkscape:version="0.92.3 (2405546, 2018-03-11)"><metadata
   id="metadata851"><rdf:RDF><cc:Work
       rdf:about=""><dc:format>image/svg+xml</dc:format><dc:type
         rdf:resource="http://purl.org/dc/dcmitype/StillImage" /><dc:title></dc:title></cc:Work></rdf:RDF></metadata><defs
   id="defs849" /><sodipodi:namedview
   pagecolor="#ffffff"
   bordercolor="#666666"
   borderopacity="1"
   objecttolerance="10"
   gridtolerance="10"
   guidetolerance="10"
   inkscape:pageopacity="0"
   inkscape:pageshadow="2"
   inkscape:window-width="1920"
   inkscape:window-height="1001"
   id="namedview847"
   showgrid="false"
   inkscape:zoom="1.7148375"
   inkscape:cx="114.51125"
   inkscape:cy="288.48056"
   inkscape:window-x="-9"
   inkscape:window-y="-9"
   inkscape:window-maximized="1"
   inkscape:current-layer="Layer_1" />
<style
   type="text/css"
   id="style834">
	.st0{fill:#EE537B;}
	.st1{fill:#C68642;}
	.st2{opacity:0.14;fill:#422200;enable-background:new    ;}
</style>


<path
   style="fill:#000000;stroke:#000000;stroke-width:1px;stroke-linecap:butt;stroke-linejoin:miter;stroke-opacity:1"
   d="m 126.32787,86.305068 -1.59796,0.443878 h -3.72858 l -2.75205,0.266327 c 0,0 -1.68674,0.355103 -3.6398,1.065309 -1.95307,0.710206 -3.01838,1.242861 -3.01838,1.242861 l -3.6398,2.929599 -2.9296,3.906132 -3.55103,7.190836 -4.261238,14.47044 -11.096968,37.81847 17.577596,14.82555 2.66327,-6.21431 0.97654,-3.19592 1.68673,-5.68165 1.86429,-3.72858 1.77552,-2.30817 L 114.9,147.8 l 1.66254,2.51237 3.63981,2.5745 2.57449,1.42041 3.63981,1.06531 L 128,155.8 l 1.43502,4.2777 1.24286,6.21431 v 3.9949 l -1.0653,4.35002 -1.95307,5.41532 -3.2847,4.26123 -3.72858,3.81736 -2.13062,2.13062 -2.48572,3.19592 L 114.8,195 l -4.09666,5.64822 14.82555,24.5021 z"
   id="path853"
   inkscape:connector-curvature="0" /><path
   style="fill:#000000;stroke:#000000;stroke-width:1px;stroke-linecap:butt;stroke-linejoin:miter;stroke-opacity:1"
   d="m 172.69227,86.821761 1.85524,0.695717 2.16446,0.773018 2.55096,0.386509 h 2.39635 l 1.70064,0.309207 1.70064,0.463811 1.77794,1.23683 3.01477,2.473658 2.24176,2.937469 1.23683,2.164451 1.62334,3.401279 1.39143,4.48351 1.54603,4.63811 3.78779,12.8321 4.097,13.99163 5.10192,16.9291 0.69572,1.70064 -17.70212,16.07878 -0.61842,-2.00985 -0.69571,-1.70064 -0.69572,-2.08715 -0.69571,-1.54604 -1.08223,-2.16445 -1.46873,-3.86509 -0.85032,-3.09207 -0.92763,-3.40128 -1.39143,-2.00985 -2.62826,-1.77794 L 182,148.3 l -1.11374,1.21354 -1.23683,1.46873 -1.62333,1.15953 -1.54604,0.92762 -1.54604,0.69572 -2.70556,0.85032 -1.15953,0.61841 L 170,155.6 l -1.40473,3.03515 -1.23683,3.9424 -0.77301,3.24667 -0.15461,4.40621 0.85032,4.71541 1.46874,3.40128 1.85524,3.16937 2.24175,2.78287 1.77795,1.77794 1.54603,1.39143 1.15953,1.15953 1.00492,1.31413 1.31413,2.47366 1.54604,1.85524 0.50453,0.62871 -9.31694,36.08966 z"
   id="path857"
   inkscape:connector-curvature="0" /><path
   style="fill:#ffffff;stroke:#000000;stroke-width:1px;stroke-linecap:butt;stroke-linejoin:miter;stroke-opacity:1"
   d="m 126.32787,86.305068 11.72317,11.606765 21.46172,0.116009 13.17951,-11.206081 -0.46381,67.793699 L 170,155.5 l -1.32251,0.99652 -0.81206,3.13225 -1.39211,3.94432 0.11211,2.25113 -0.15461,4.40621 0.0425,3.20344 2.27656,4.91325 1.85524,3.16937 2.24175,2.78287 -0.92112,20.45702 -45.82366,0.23202 -0.23202,-22.96984 1.78944,-1.96631 1.95307,-5.41532 1.0653,-4.35002 -0.0514,-7.52589 -1.19143,-2.68332 L 128,155.8 l -1.31787,-1.04362 z"
   id="path863"
   inkscape:connector-curvature="0" /><path
   style="fill:none;stroke:#000000;stroke-width:1px;stroke-linecap:butt;stroke-linejoin:miter;stroke-opacity:1"
   d="m 126.60274,97.811967 8.43297,8.324863 3.01533,-8.224997 21.46172,0.116009 4.06533,7.244068 8.54109,-4.75707 -8.32486,4.86518 -11.89266,7.45994 h -4.64894 l -12.21701,-6.91936 z"
   id="path867"
   inkscape:connector-curvature="0" /><path
   style="fill:#008033;stroke:#000000;stroke-width:1px;stroke-linecap:butt;stroke-linejoin:miter;stroke-opacity:1"
   d="m 147.25272,112.83996 -0.54058,38.27273 1.94607,3.67591 2.27042,-3.56779 0.97303,-38.38085 z"
   id="path871"
   inkscape:connector-curvature="0" /><path
   style="fill:#008033;fill-opacity:1;stroke-width:0.10811506"
   d="m 141.66742,109.04002 c -3.1508,-1.78581 -5.75984,-3.28159 -5.79787,-3.32397 -0.0691,-0.077 2.44,-7.031622 2.59272,-7.186384 0.0444,-0.04502 4.72829,-0.04922 10.40859,-0.0093 l 10.32783,0.07251 1.85293,3.306034 c 1.44639,2.58068 1.82395,3.3339 1.72084,3.43306 -0.0726,0.0699 -2.58545,1.66357 -5.584,3.54157 l -5.45191,3.41456 -2.1702,-5.6e-4 -2.17021,-5.7e-4 z"
   id="path873"
   inkscape:connector-curvature="0" /><path
   style="fill:#000000;stroke:#000000;stroke-width:1px;stroke-linecap:butt;stroke-linejoin:miter;stroke-opacity:1"
   d="M 110.70334,200.64822 181.8,194.8 l 2.81817,3.41736 2.37082,2.82969 2.52378,3.36504 1.91195,3.28856 1.17528,2.69935 1.3485,2.27173 1.30013,4.89459 0.91773,3.97687 0.45887,10.17159 0.30591,26.76734 -0.53534,18.04883 -1.52957,30.13238 -1.30012,18.35475 -0.84126,7.57133 -1.91196,18.89009 -2.82969,26.30847 -1.83547,12.61889 -3.67095,26.46143 -3.82391,23.86117 -5.50642,29.74999 -0.61182,4.58868 -19.27249,-0.61182 -0.0765,-23.47878 v -12.2365 -18.35475 -24.47299 -24.473 -24.473 -36.70949 -36.7095 L 153,240.9 l -9.4,0.2 0.33181,233.50927 -19.80783,-0.45887 0.38239,-3.59447 -0.53535,-4.74165 -0.6883,-4.05334 -1.98843,-7.41837 -2.14139,-7.72429 -1.14717,-6.34769 -1.22365,-9.02441 -2.52378,-17.51349 -2.52378,-18.12532 -2.4473,-17.97235 -2.98264,-24.39652 -2.4473,-29.97942 -2.06491,-23.24935 -1.68252,-35.48584 0.0765,-24.24357 0.91774,-17.36053 2.4473,-10.63046 L 105,208.6 l 1.99288,-2.88778 z"
   id="path875"
   inkscape:connector-curvature="0" /><path
   style="fill:none;stroke:#000000;stroke-width:1px;stroke-linecap:butt;stroke-linejoin:miter;stroke-opacity:1"
   d="m 127.64228,192.9878 0.91463,2.54066 1.62602,-0.91464 0.10162,2.94716 1.52439,-0.50813 3.35366,1.32113 -3.65853,2.84553 -9.14635,-0.60975 -0.60975,-5.48781 z"
   id="path877"
   inkscape:connector-curvature="0" /><path
   style="fill:none;stroke:#000000;stroke-width:1px;stroke-linecap:butt;stroke-linejoin:miter;stroke-opacity:1"
   d="M 120.52846,200.91463 Z"
   id="path879"
   inkscape:connector-curvature="0" /></svg>