<?xml version="1.0" encoding="UTF-8" standalone="no"?>
<!-- Generator: Adobe Illustrator 23.0.1, SVG Export Plug-In . SVG Version: 6.00 Build 0)  -->

<svg
   xmlns:dc="http://purl.org/dc/elements/1.1/"
   xmlns:cc="http://creativecommons.org/ns#"
   xmlns:rdf="http://www.w3.org/1999/02/22-rdf-syntax-ns#"
   xmlns:svg="http://www.w3.org/2000/svg"
   xmlns="http://www.w3.org/2000/svg"
   xmlns:sodipodi="http://sodipodi.sourceforge.net/DTD/sodipodi-0.dtd"
   xmlns:inkscape="http://www.inkscape.org/namespaces/inkscape"
   version="1.1"
   id="Layer_1"
   x="0px"
   y="0px"
   viewBox="0 0 300 500"
   style="enable-background:new 0 0 300 500;"
   xml:space="preserve"
   sodipodi:docname="female_triangle_dress.svg"
   inkscape:version="0.92.3 (2405546, 2018-03-11)"><metadata
   id="metadata46"><rdf:RDF><cc:Work
       rdf:about=""><dc:format>image/svg+xml</dc:format><dc:type
         rdf:resource="http://purl.org/dc/dcmitype/StillImage" /><dc:title></dc:title></cc:Work></rdf:RDF></metadata><defs
   id="defs44" /><sodipodi:namedview
   pagecolor="#ffffff"
   bordercolor="#666666"
   borderopacity="1"
   objecttolerance="10"
   gridtolerance="10"
   guidetolerance="10"
   inkscape:pageopacity="0"
   inkscape:pageshadow="2"
   inkscape:window-width="1920"
   inkscape:window-height="1001"
   id="namedview42"
   showgrid="false"
   inkscape:zoom="6.0367235"
   inkscape:cx="156.42988"
   inkscape:cy="421.148"
   inkscape:window-x="-9"
   inkscape:window-y="-9"
   inkscape:window-maximized="1"
   inkscape:current-layer="Layer_1" />
<style
   type="text/css"
   id="style29">
	.st0{fill:#C68642;}
	.st1{fill:#EE537B;}
	.st2{opacity:0.14;fill:#422200;enable-background:new    ;}
</style>


<path
   style="fill:none;stroke:#000000;stroke-width:1px;stroke-linecap:butt;stroke-linejoin:miter;stroke-opacity:1"
   d="m 104.83317,90.600733 23.5919,-3.725037 23.05975,26.430024 21.10855,-27.139554 20.57639,2.838123 4.78933,54.811251 -0.17738,5.1441 L 194.5,156.9 191.7507,160.31213 183.3,164.9 l -4.3,39.3 7.25183,18.37346 3.37027,13.83585 2.83813,18.4478 0.38117,10.62674 0.32815,10.17258 -0.54691,22.97033 -0.32815,11.48517 -2.62518,30.51772 -4.04715,35.54932 -4.26592,43.53425 -4.15654,38.39327 -2.29703,19.90762 -49.76905,-2.07827 -4.70345,-35.98685 -2.5158,-21.87651 -5.35975,-53.15991 -5.14097,-52.06608 -1.42198,-28.54884 0.21877,-21.54836 1.31259,-15.31355 3.39086,-14.4385 3.39086,-16.18861 L 120.7,205.2 115,164.7 l -11.2,-8 -2.18363,-9.67743 L 102.1,143.7 Z"
   id="path48"
   inkscape:connector-curvature="0" /><path
   style="fill:none;stroke:#000000;stroke-width:1px;stroke-linecap:butt;stroke-linejoin:miter;stroke-opacity:1"
   d="m 103.14773,122.19274 92.42824,-1.42198 z"
   id="path50"
   inkscape:connector-curvature="0" /><path
   style="fill:#ff8080;fill-opacity:1;stroke-width:0.10938253"
   d="m 103.82594,120.92729 c 1.02271,-20.05244 1.53775,-29.776385 1.57934,-29.817974 0.0288,-0.02878 5.16628,-0.860647 11.41667,-1.848601 l 11.36436,-1.796281 0.23162,0.239893 c 0.12739,0.131942 5.29044,6.048106 11.47343,13.147033 6.183,7.09893 11.32758,12.99856 11.4324,13.11029 0.18326,0.19536 0.59456,-0.31666 10.71932,-13.34467 5.79081,-7.451299 10.59166,-13.615925 10.66855,-13.699164 0.17874,-0.193503 1.48536,-0.04161 4.1504,0.48247 2.4519,0.48217 8.24446,1.319423 10.17208,1.470269 0.84225,0.06591 2.02358,0.170127 2.62518,0.231594 1.14943,0.11744 3.00401,0.504301 3.01371,0.628651 0.003,0.04011 0.60726,6.927107 1.34252,15.30444 l 1.33683,15.23152 -1.69801,5e-5 c -0.93391,4e-5 -4.5529,0.0491 -8.0422,0.10903 -3.4893,0.0599 -11.24179,0.18314 -17.22775,0.2738 -5.98596,0.0907 -17.23322,0.26227 -24.99391,0.38135 -7.76069,0.11908 -19.10639,0.29063 -25.21267,0.38121 -6.10628,0.0906 -11.84168,0.17947 -12.74534,0.19751 l -1.643,0.0328 z"
   id="path52"
   inkscape:connector-curvature="0" /><path
   style="fill:#ff5555;fill-opacity:1;stroke-width:0.16565278"
   d="m 107.69484,307.3298 c 0,-0.30455 -0.25636,-5.69034 -0.56968,-11.96841 l -0.56968,-11.41469 0.13223,-11.01591 c 0.12926,-10.76751 0.14609,-11.17466 0.74641,-18.05615 l 0.61418,-7.04024 1.72853,-7.41825 c 0.95069,-4.08003 2.48088,-11.01094 3.4004,-15.40201 l 1.67187,-7.98377 3.2263,-5.85259 3.22629,-5.85258 -2.82951,-20.1586 c -1.55623,-11.08722 -2.86381,-20.31195 -2.90573,-20.49939 -0.0491,-0.21935 -2.07034,-1.76462 -5.67186,-4.33613 l -5.59563,-3.99533 -1.05244,-4.69195 -1.05244,-4.69194 0.27075,-1.90501 c 0.20788,-1.4627 1.25434,-19.76772 1.25434,-21.9414 v -0.42173 h 3.19529 c 1.75741,0 10.12494,-0.11138 18.59452,-0.24752 36.76018,-0.59088 69.8641,-1.08402 69.89505,-1.04121 0.0184,0.0255 0.46377,4.99872 0.98964,11.05162 0.83015,9.55509 0.94596,11.36686 0.87892,13.74918 l -0.0772,2.7439 -1.49159,3.57028 c -1.82309,4.36379 -1.66025,4.05981 -3.1456,5.87193 l -1.22203,1.49087 -4.17607,2.27363 c -2.29684,1.25049 -4.22591,2.29411 -4.28683,2.31914 -0.0609,0.025 -1.09033,8.9934 -2.28758,19.92971 l -2.17681,19.8842 3.63249,9.19986 3.63249,9.19985 1.69244,6.91884 c 1.62593,6.64694 1.74739,7.27467 3.09072,15.9735 l 1.39828,9.05466 0.24666,6.54329 c 0.53985,14.32127 0.53827,14.69686 -0.17623,41.95156 l -0.12485,4.76252 h -42.05302 -42.05301 z"
   id="path864"
   inkscape:connector-curvature="0" /><path
   style="fill:#ff5555;fill-opacity:1;stroke-width:0.16565278"
   d="m 121.01332,440.18055 c 0,-0.12386 -0.56136,-5.09966 -1.24747,-11.05732 -1.91506,-16.62902 -11.66187,-113.94971 -11.9225,-119.0448 l -0.11228,-2.1949 h 42.00799 42.008 l -9e-5,0.9525 c -5e-5,0.52388 -0.59763,7.88507 -1.32796,16.35821 -1.05901,12.28635 -1.73094,18.94434 -3.31854,32.88208 -1.09486,9.612 -2.95552,27.31614 -4.13479,39.34253 -1.92426,19.62396 -4.1963,41.62817 -4.40012,42.61418 l -0.077,0.37272 h -28.7376 c -24.11384,0 -28.7376,-0.0362 -28.7376,-0.2252 z"
   id="path866"
   inkscape:connector-curvature="0" /><path
   style="fill:#ff5555;fill-opacity:1;stroke-width:0.16565278"
   d="m 148.37316,476.34512 c -12.42146,-0.52799 -22.62155,-0.99706 -22.66687,-1.04238 -0.0453,-0.0453 -1.07794,-7.71069 -2.29471,-17.03415 -1.21676,-9.32346 -2.24644,-17.17538 -2.28815,-17.44871 l -0.0759,-0.49696 28.67026,0.0433 c 15.76865,0.0238 28.70046,0.0735 28.73736,0.11036 0.11107,0.11107 -3.77573,35.33463 -4.02733,36.49705 -0.0776,0.35869 -0.14447,0.37194 -1.77545,0.35211 -0.93213,-0.0113 -11.8578,-0.4526 -24.27926,-0.98059 z"
   id="path868"
   inkscape:connector-curvature="0" /></svg>