<?xml version="1.0" encoding="utf-8"?>
<!-- Generator: Adobe Illustrator 23.0.1, SVG Export Plug-In . SVG Version: 6.00 Build 0)  -->
<svg version="1.1" id="Layer_1" xmlns="http://www.w3.org/2000/svg" xmlns:xlink="http://www.w3.org/1999/xlink" x="0px" y="0px"
	 viewBox="0 0 300 500" style="enable-background:new 0 0 300 500;" xml:space="preserve">
<style type="text/css">
	.st0{fill:#C68642;}
	.st1{fill:#EE537B;}
	.st2{opacity:0.14;fill:#422200;enable-background:new    ;}
</style>
<g>
	<path id="path2000" class="st0" d="M126.6,34.7V35c0,3.6,0.2,7.8,0.9,12.3c1.2,8.5,3.7,15.6,6,20.9c0,0,0.5,0.7,0.6,0.8
		c0.1,0.2,0.4,0.5,0.7,0.8c0,0.1,0,0.2,0.1,0.3c-0.4,1.5-0.8,3-1.2,4.6c-0.9,3.7-1.7,7.3-2.2,10.7c-3.6,2.3-7.8,1.2-11.7,2.1
		c-6.1,1.4-13.3-0.2-17.8,6c-6.9,1-9.7,5.8-11.7,11.9C73.4,157,63,210.2,51.3,263.1c-1.6,7.3-0.5,14.5,5.4,19.9
		c3.6,3.3,7.3,10.2,11.8,7.3c4.6-2.9-1.3-8.2-2.7-12.4c-0.6-1.8-1.6-3.8-1.2-5.4c1.2-4.3,0.2-11.4,8.6-8.2c1.5,0.6,3.1,1.1,4.3-0.4
		c1.9-2.3,0.3-4.4-1.1-5.9c-5.2-5.4-4.3-10.8-2-17.3c10.1-28.3,19.7-56.8,29.5-85.3c2.3-3.5,0.6-7,0-10.5c1.2-0.9,2-2.3,2.2-3.8
		c11.1-4,21.2-2.9,30,5.9c0.6,0.6,1.8,0.5,2.7,0.6c7-0.8,14.1-1,21.2-0.3c10.8-5.9,21.6-12,34.3-6.1c0-0.1-0.1-0.3-0.1-0.4l0.1,0.1
		c0,0.1,0,0.2,0.1,0.4h-0.1c0.1,0.6,0.2,1.1,0.2,1.8c0.4,0.2,0.8,0.5,1.2,0.7v0.1c0,0.5,0.1,1,0.3,1.5c-0.8,3.5-2.7,6.8-1.2,10.6
		c11.1,26,18.9,53.1,28.2,79.7c2.9,8.1,7.4,15.6-0.5,24c-3.3,3.4-1,6.8,4.2,4.9c6.1-2.3,6.9,1.5,7.6,6c0.9,5.4-1.9,9.7-4.1,14.2
		c-1,2-2.1,4.2,0.2,5.9c0.8,0.6,2.4,0.5,3.4,0.1c7.9-2.9,15.4-16.5,14-25.1c-8.2-48.3-20.5-95.6-33-142.9
		c-3.1-11.7-5.1-25.1-18.6-31c-3.2-3.3-7.5-2.6-11.4-3.2c-8-1.1-12-1.7-14.3-3.9c-1.5-1.5-2.4-5.6-4.1-13.6
		c-0.3-1.2-0.4-1.9-0.6-2.9l0,0l0,0c0-0.1,0-0.3,0-0.4c0,0.1,0,0.3,0.1,0.4c0.6-0.5,1-1,1.3-1.4c0.3-0.7,0.6-1.5,0.9-2.2
		c0.2-0.5,0.4-1,0.6-1.5c4-8.1,3.4-17.1,3.1-26l0,0c0.1-0.8,0.1-1.5,0.1-2.3c0-1,0-2-0.1-2.9c-0.1-0.7-0.1-1.3-0.2-2
		c-0.1-0.4-0.2-0.9-0.2-1.3c-0.1-0.3-0.1-0.5-0.2-0.8c-1.03-5.47-9.32-7.91-18.48-7.67C140.44,20.46,126.6,25.59,126.6,34.7z
		 M171.3,27.6c0.1,0.3,0.1,0.5,0.2,0.8c0,0.5,0.1,0.9,0.2,1.3c0.1,0.7,0.2,1.3,0.2,2c0-0.5,0-0.9,0-1.4c-0.3-0.8-0.4-1.7-0.5-2.5
		C171.4,27.7,171.4,27.6,171.3,27.6z M177.3,128.9c0,0.1,0,0.1,0,0.2c-0.1,0-0.2,0-0.2-0.1C177.2,129,177.3,129,177.3,128.9z
		 M138,157.1c-1,0-1.9,0.1-2.8,0.5c-5.7,5.3-13.9,4.6-20.1,8.5c1.9,13,3.7,26,5.6,39.1c16.8,18.6,41.5,18,58.5,0.5
		c1.5-13.1,2.9-26.2,4.4-39.3c-5.9-4.3-13.8-4.2-19.4-9c-5.4-0.4-10.7,0.5-16.1,0.3C144.6,157.7,141.3,157.6,138,157.1z
		 M185.4,220.6c-7.1,7.5-15.4,13.6-23.6,19.9c-2.8,2.2-6.9,3.6-6.9,8.2c0,76.1,0,152.2,0.1,228.4c0,21.5-2.9,19,20.1,19.1
		c0.6,0,1.3,0,1.9,0c2.2-0.1,4.7-0.2,5.5-2.6c0.8-2.5-1.1-4.3-2.9-5.4c-4.8-3.1-5.4-6.6-4.6-12.6c4-32,7-64.1,10.3-96.2
		c2.4-23.1,5.4-46.1,6.8-69.2C193.6,280,195.1,249.8,185.4,220.6z M113.3,224.4c-5.3,15-7,30.6-7.2,46.2
		c-0.4,27.3,2.3,54.5,5.2,81.6c4.2,39.5,7.6,79.2,13,118.6c0.9,6.6,2.6,14.1-5.6,18.3c-1.7,0.8-2.8,2.8-2.1,4.8
		c0.8,2,2.9,2.2,4.8,2.2c4.7,0,9.5-0.3,14.1,0.1c6.1,0.5,8.3-1.7,8.3-7.9c0.1-27.7,0.6-55.3,1-82.9c0.7-52.2-0.7-104.4-1.2-156.5
		C137,236.3,125,230.5,113.3,224.4z"/>
	<path id="path1970" class="st1" d="M118.8,137c-4.1-0.1-8.5,1.3-13.3,4.6c-0.8,1.2-2.8,0.5-3.4,2.1c-1.2,4.6,0.5,8.7,1.7,13
		c3.4,3.2,6.8,6.2,11.2,8c8.3,0.8,15.5-1.2,21.2-7.6l0.6,0.1l0.6-0.1h0.1c0,0,0,0-0.1,0c3,2,6.2,1.5,9.4,0.9h-0.1c0,0,0,0,0.1,0
		c5.8,0.7,11.5,0.9,17.2-0.7l0,0c4.7,7,11.9,7.4,19.3,7.6c4.3-1.8,8.4-4,11.2-8c1.7-4.2,4.1-8.2,3.2-13c-0.4-1.9-2.5-1.1-3.5-2.2
		c-13.1-9.3-23.7-3.3-33.9,5.5l0,0c-7.6-2.9-15.1-2.2-22.7,0C131.9,141.3,125.7,137.2,118.8,137L118.8,137z M120.6,203.7
		c-3.6,6-6.3,12.3-7.4,19.3c9.4,9.1,21.4,14.9,30.4,24.4c3.7-0.1,7.5-0.1,11.2-0.2c8.5-6.6,16.9-13.4,25.6-19.8
		c3-2.2,5.1-4.4,4.9-8.2c-2.1-5-4.2-10-6.3-15c-2.2,1.1-4.6,1.9-6.6,3.3c-15.5,10.3-30.9,9.8-46.2-0.5
		C124.4,205.8,122.5,204.8,120.6,203.7L120.6,203.7z"/>
</g>
<g>
	<path class="st0" d="M173.7,46.4c-3.8,19.1-11.1,29.3-24.5,29.3s-20.9-11.9-23.6-31.3c-2.7-19.2,10.9-35.1,24.3-35.1
		S177.2,29.2,173.7,46.4z"/>
	<path class="st2" d="M137.59,73.1c-0.28,0.7,0,1.4,0.47,1.9c3.2,2.9,22.01,4.4,11.57,4.4c5.17,0,9.41-1.7,12.79-5
		c-0.09-0.3-0.19-0.7-0.28-0.9l0,0c-0.19-0.8-0.85-1.3-1.6-1.3L139.19,72C138.44,71.9,137.88,72.4,137.59,73.1L137.59,73.1z"/>
</g>
</svg>
