<?xml version="1.0" encoding="utf-8"?>
<!-- Generator: Adobe Illustrator 23.0.3, SVG Export Plug-In . SVG Version: 6.00 Build 0)  -->
<svg version="1.1"
	 id="Layer_1" xmlns:cc="http://creativecommons.org/ns#" xmlns:dc="http://purl.org/dc/elements/1.1/" xmlns:rdf="http://www.w3.org/1999/02/22-rdf-syntax-ns#" xmlns:svg="http://www.w3.org/2000/svg"
	 xmlns="http://www.w3.org/2000/svg" xmlns:xlink="http://www.w3.org/1999/xlink" x="0px" y="0px" viewBox="0 0 300 500"
	 style="enable-background:new 0 0 300 500;" xml:space="preserve">
<style type="text/css">
	.st0{fill:#EE537A;}
	.st1{fill:#C68642;}
	.st2{opacity:0.14;fill:#422200;enable-background:new    ;}
</style>
<path id="path832" class="st0" d="M184.5,138.1c-2.1,0.1-4.3,0.6-6.4,0.9c-6.3,1.7-12.6,3.3-16.9,9.1l0,0c-2.3,0.2-4.5,0.2-6.9,0.2
	l-0.1,0.1c-4.6-5.2-10.6-7.7-17-9.2c-4.3-0.9-8.6-1.9-12.8,0.2c-1.1,6.3,1.1,11.7,5.4,16.4c3.5,1.9,6.7,4.6,11,4.1
	c3.2-2,6.5-3.9,9.7-5.9h12.8c3.9,1.9,7.6,3.9,11.3,5.8c3.7-1.3,7.4-2.6,11-3.9c4.1-4.6,6.5-10,5.4-16.4
	C188.8,138.3,186.6,138,184.5,138.1L184.5,138.1z M116.7,200.4c-1.3,3.2-2.6,6.3-3.9,9.7c-1.1,6.5,4.1,9.3,8,12.3
	c13.2,9.9,24.9,23.4,44.1,21c5.4-3.5,11-6.9,16.2-10.8c8.2-6,17.7-10.6,21.8-20.8c-1.5-3.7-2.8-7.4-4.3-11.2
	c-3.2-0.2-4.8,2.4-7.3,3.7c-16.5,9.3-33.3,15.8-52.6,7.4C131,208.4,124.5,203.2,116.7,200.4z"/>
<g>
	<g>
		<path id="path824" class="st1" d="M145.7,74.1l0.2,0.2c-0.1,0-0.3,0-0.4,0c0,1.5-0.2,2.8-0.2,4.1c0,2.4-0.4,4.8-0.6,7.3
			c0.2,1.3,0,3.2-1.1,4.5c-1.1,1.1-2.6,1.5-4.3,1.5c-8.9,0.2-13.4,5.6-16,13.9c-6.9,22.7-15.6,44.8-23.8,67.1
			c-11.2,30.5-24.2,60.2-31.6,91.9c-2,8.7,1.5,14.1,6.9,19.7c1.9,1.9,4.1,3.2,6.5,1.3c2.4-1.9,0.6-3.9-0.4-5.8
			c-0.7-2-2.2-3.7-2.8-5.8c-1.9-8.4,2.8-12.8,10.4-10.4c1.5,0.6,3.3,1.3,4.3-0.2c1.3-1.7,0-3.5-1.3-4.8c-5.2-5.4-4.8-10.6-1.7-17.3
			c7.4-15.6,13.4-32,20.8-47.6c6-12.8,9.5-27,19.2-37.7c0.4-5.8-4.3-10.4-3.2-16.4c0-0.1,0-0.1,0-0.2c1.2,0,2.4,0,3.5-0.1
			c2,0.8,4.8,0.6,6.5,1.8c6.5,1.7,11.9,5.8,17.7,8.9c2.2,0.7,4.5,0.7,6.7,0c5.4-3.7,11.2-7.1,17.5-8.9c1.7-1.2,4.3-1.1,6.2-1.7
			c1.3,0,2.6,0.1,3.9,0.1c0,0,0,0,0,0.1c1.3,6-3.5,10.6-3.2,16.2c4.3,2.6,5.4,7.4,7.3,11.5c10.8,24.4,21.4,48.7,32.2,73.1
			c2.8,6.3,4.6,12.1-1.3,17.7c-1.1,1.1-3,3-1.7,4.8s3.5,1.1,5,0c7.8-5.6,8.6,1.1,10.2,5.9c1.5,4.5-1.1,7.8-3.3,11.2
			c-1.1,2-2.6,4.1-0.2,5.8c1.9,1.3,4.3,0.9,5.9-0.7c5.2-5,10.2-10,7.8-18.4c-2.6-9.1-4.6-18.6-7.6-27.7
			c-15.2-45.7-34.8-90-48.9-136.1c-2-7.3-7.1-10.8-14.1-11.2c-2.4,0-4.1-0.6-5.2-1.9s-1.3-2.8-1.1-4.1c-0.4-2.2-0.6-4.6-0.7-7.1
			c-0.2-1.3-0.2-2.5-0.2-3.7 M156.8,151.8c-2,0-3.9,0.2-5.9,0.6c-4.3,1.5-8.4,3.2-10.2,7.6c0,1.5-0.2,3.2,0,4.6
			c1.1,8.6-0.4,14.9-9.3,19.5c-6.1,3.3-11.3,9.3-14.5,16.4c24.4,23.1,56.7,23.1,81.6,0c-3.9-8-10-13.9-17.7-18.4
			c-5-3-7.1-6.5-6.3-12.1c0.4-3.3,0-6.9,0-10.2c-2.2-5-7.2-6.1-11.9-7.6C160.7,152,158.7,151.8,156.8,151.8z M113,210.2
			c-2.2,8.6-3.2,17.3-3.3,26.2c-0.6,38.1,3.3,75.9,7.1,113.6c3.9,40.5,7.4,81.1,16.4,120.9c0.6,3,0.7,5.4-1.7,7.6
			c-2.2,2-5.8,4.1-3.9,7.4c1.5,2.6,5,1.1,7.8,1.3c3.3,0.2,6.9,0,10.2,0c3.9,0,6.7-1.3,6.7-5.8V247.8c0.1-0.1,0.1-0.2,0.2-0.4
			c9.1-5.4,9.5,0.4,9.5,7.3v212.9c0,3.4-0.8,7.2,1.3,10.5v0.1c0,1.7,0.2,3.5,0.2,5.2c0,0,0,0,0-0.1c0,0.1,0,0.2,0,0.2
			c5.2,8.4,13.6,1.9,20.1,3.7c1.5,0.6,3.9,0.6,4.8-1.5c1.1-2.2-0.7-3.5-2-4.6c-2.8-2.8-4.8-5.2-3.9-9.7c3.3-14.9,5.8-29.6,7.8-44.6
			c4.1-31.1,7.6-62.3,10.2-93.5c1.9-22.7,3.9-45.6,5.2-68.2c0.9-17.9,1.5-35.7-2.8-53.4c-10.4,9.9-21.6,18.6-33.8,26
			c-1.7,1-3.8,2.3-3.9,4.8C143,239.6,126.8,226.8,113,210.2z"/>
	</g>
	<path class="st2" d="M143.6,75.1c-0.3,0.7,0,1.4,0.5,1.9c3.4,2.9,7.4,4.4,12.3,4.4c5.5,0,10-1.7,13.6-5c-0.1-0.3-0.2-0.7-0.3-0.9
		l0,0c-0.2-0.8-0.9-1.3-1.7-1.3L145.3,74C144.5,73.9,143.9,74.4,143.6,75.1L143.6,75.1z"/>
</g>
<path class="st1" d="M181.7,48.4c-3.8,19.1-11.1,29.3-24.5,29.3s-20.9-11.9-23.6-31.3c-2.7-19.2,10.9-35.1,24.3-35.1
	S185.2,31.2,181.7,48.4z"/>
</svg>
