<?xml version="1.0" encoding="UTF-8" standalone="no"?>
<!-- Generator: Adobe Illustrator 23.0.1, SVG Export Plug-In . SVG Version: 6.00 Build 0)  -->

<svg
   xmlns:dc="http://purl.org/dc/elements/1.1/"
   xmlns:cc="http://creativecommons.org/ns#"
   xmlns:rdf="http://www.w3.org/1999/02/22-rdf-syntax-ns#"
   xmlns:svg="http://www.w3.org/2000/svg"
   xmlns="http://www.w3.org/2000/svg"
   xmlns:sodipodi="http://sodipodi.sourceforge.net/DTD/sodipodi-0.dtd"
   xmlns:inkscape="http://www.inkscape.org/namespaces/inkscape"
   version="1.1"
   id="Layer_1"
   x="0px"
   y="0px"
   viewBox="0 0 300 500"
   style="enable-background:new 0 0 300 500;"
   xml:space="preserve"
   sodipodi:docname="female_rectangle_suit.svg"
   inkscape:version="0.92.3 (2405546, 2018-03-11)"><metadata
   id="metadata861"><rdf:RDF><cc:Work
       rdf:about=""><dc:format>image/svg+xml</dc:format><dc:type
         rdf:resource="http://purl.org/dc/dcmitype/StillImage" /><dc:title></dc:title></cc:Work></rdf:RDF></metadata><defs
   id="defs859" /><sodipodi:namedview
   pagecolor="#ffffff"
   bordercolor="#666666"
   borderopacity="1"
   objecttolerance="10"
   gridtolerance="10"
   guidetolerance="10"
   inkscape:pageopacity="0"
   inkscape:pageshadow="2"
   inkscape:window-width="1920"
   inkscape:window-height="1001"
   id="namedview857"
   showgrid="false"
   inkscape:zoom="6.49"
   inkscape:cx="129.50449"
   inkscape:cy="-120.75273"
   inkscape:window-x="-9"
   inkscape:window-y="-9"
   inkscape:window-maximized="1"
   inkscape:current-layer="Layer_1" />
<style
   type="text/css"
   id="style839">
	.st0{fill:#C68642;}
	.st1{fill:#EE537B;}
	.st2{opacity:0.14;fill:#422200;enable-background:new    ;}
</style>



<path
   style="fill:#000000;stroke:#000000;stroke-width:1px;stroke-linecap:butt;stroke-linejoin:miter;stroke-opacity:1"
   d="m 135.92,88.11 -2.6193,1.053345 -4.60401,1.510693 -3.88464,0.575503 L 121.12,92.51 l -3.42979,1.473176 -4.24433,2.58976 -3.88464,5.611144 -2.01426,4.31627 -2.58976,8.84835 -2.94945,9.78353 -5.323395,16.90538 -7.76928,27.4083 -5.107583,17.84057 14.675307,15.97018 7.769281,-20.28645 3.5679,-9.46021 2.76262,-2.40952 -2.73363,39.49384 26.25729,32.73169 z"
   id="path863"
   inkscape:connector-curvature="0" /><path
   style="fill:#000000;stroke:#000000;stroke-width:1px;stroke-linecap:butt;stroke-linejoin:miter;stroke-opacity:1"
   d="m 164.62,89.31 2.76819,-0.139514 3.41297,0.356579 4.83928,1.426314 5.55244,2.241351 2.85263,1.426315 4.02424,4.075184 3.15827,5.959961 4.9921,16.35167 4.48271,15.18006 6.62217,22.05694 8.76165,30.25824 -14.87443,13.90657 -7.59003,-20.7325 -3.4639,-10.08608 L 187.42,164.61 187.15284,168.22906 188.32,205.21 164.73932,244.23125 Z"
   id="path865"
   inkscape:connector-curvature="0" /><path
   style="fill:#ffffff;stroke:#000000;stroke-width:1px;stroke-linecap:butt;stroke-linejoin:miter;stroke-opacity:1"
   d="m 136.26459,88.919715 9.96262,12.412435 9.69041,0.21776 7.85682,-11.324457 0.36369,124.016307 -27.65577,2.93979 z"
   id="path869"
   inkscape:connector-curvature="0" /><path
   style="fill:#225500;stroke:#000000;stroke-width:1px;stroke-linecap:butt;stroke-linejoin:miter;stroke-opacity:1"
   d="m 146.22721,101.33215 -2.06874,3.21199 3.48419,4.89965 5.60737,0.10888 3.64752,-4.35524 -0.97993,-3.64752 z"
   id="path871"
   inkscape:connector-curvature="0" /><path
   style="fill:#225500;stroke:#000000;stroke-width:1px;stroke-linecap:butt;stroke-linejoin:miter;stroke-opacity:1"
   d="m 147.64266,109.44379 -0.16332,23.73606 2.5587,3.32087 2.2865,-3.37531 0.92549,-23.57274 z"
   id="path873"
   inkscape:connector-curvature="0" /><path
   style="fill:none;stroke:#000000;stroke-width:1px;stroke-linecap:butt;stroke-linejoin:miter;stroke-opacity:1"
   d="m 163.32153,98.936769 -6.42398,6.260661 -0.97993,-3.64752 -9.69041,-0.21776 -2.06874,3.21199 -8.00276,-6.696181 0.10888,-8.928244 9.96262,12.412435 9.69041,0.21776 7.85682,-11.324457 z"
   id="path875"
   inkscape:connector-curvature="0" /><path
   style="fill:#000000;stroke:#000000;stroke-width:1px;stroke-linecap:butt;stroke-linejoin:miter;stroke-opacity:1"
   d="m 110.13315,211.57418 26.34921,5.60737 27.65577,-2.93979 24.28047,-8.22051 0.1014,15.68875 0.27969,18.06437 1.08881,18.18313 0.59884,26.89361 -0.5444,34.6786 -1.95986,29.67008 -0.70773,9.52709 -3.53863,32.88207 -2.17762,15.56998 -1.90542,13.77345 -2.44982,15.95107 -3.59308,19.2175 -1.63321,7.67611 -2.34094,9.14601 -0.38109,2.77646 -14.04565,0.21776 -1.08881,-141.49088 -0.76217,-88.24806 -10.72478,0.8166 -0.59884,227.28913 -14.53562,0.5444 -3.26643,-13.50124 -3.21199,-15.95107 -1.85098,-12.03135 -1.95985,-12.6302 -1.68766,-13.12016 -2.77647,-23.46386 -3.37531,-29.18012 -1.79653,-33.64423 -0.97993,-31.8477 0.32664,-19.92523 0.70773,-21.12291 0.87104,-16.3866 z"
   id="path877"
   inkscape:connector-curvature="0" /></svg>