<?xml version="1.0" encoding="utf-8"?>
<!-- Generator: Adobe Illustrator 23.0.1, SVG Export Plug-In . SVG Version: 6.00 Build 0)  -->
<svg version="1.1" id="Layer_1" xmlns="http://www.w3.org/2000/svg" xmlns:xlink="http://www.w3.org/1999/xlink" x="0px" y="0px"
	 viewBox="0 0 300 500" style="enable-background:new 0 0 300 500;" xml:space="preserve">
<style type="text/css">
	.st0{fill:#FF5555;}
	.st1{fill:#FF8080;}
</style>
<path id="path129" class="st0" d="M93.7,189.6c-0.4,1.9-0.5,6.4-0.8,15.2c-0.3,6.6-0.5,12.2-0.4,19.2c0.1,6.1,0.4,10.5,0.6,12.7
	c1,15.2,0.8,20.9,1.9,41.1c0,0,1.4,25.9,5.5,65.7c0,0,1.1,10.6,2.4,16.9c0.7,3.4,0.9,4.4,1.3,6.4c0.5,2.5,0.8,4.4,0.9,5.2
	c1.3,7.1,3.3,17.4,3.3,17.4c0.9,4.6,1.6,8.3,2.7,13.2c1.3,6,1.1,4.7,1.6,7.3c1.7,8.7,1.8,7.4,2,8.6c0.2,1.8,0.6,5.8,1.7,7.1
	c0.1,0.1,0.6,0.6,0.7,1.4c0.1,0.6-0.1,1-0.1,1.2c0.6,3.3,19.3,2.4,32.4,2.8c0.8,0,6.6,0.2,9.5,0.5c0.5,0,1.9,0.2,4.7,0.4
	c1.2,0.1,0.8,0,5.9,0.1c3.7,0.1,8.6,0.2,8.6,0.2s-0.9,0-5.3,0c2.4,0.1,4.8,0.1,7.2,0.2c1.2-4.4,3.1-11.3,5.2-19.7
	c2.4-9.9,3.7-16.1,7.1-32.3c4.7-22,4.2-18.5,5.3-24.3c4.2-21.5,6.4-39.4,9-61.2c0.9-7.1,1.8-15.3,1.8-15.3
	c0.7-5.9,1.2-10.4,1.7-15.9c0.4-5,1.1-10.8,1.5-18.4c0.4-6.1,1-15,0.9-26.4c0-3.9,0-5.9-0.1-7.7c-0.2-3.1-0.6-7.6-1.7-13.1
	c-0.3-1.4-0.8-3.7-1.2-6.5c-0.6-4.9-0.1-5.4-0.6-9.4c-0.7-5.1-1.7-5.8-2.2-10.8c-0.3-3.3-0.1-5.7,0-6.2c0.5-8.5-25-52.5-63.5-47.5
	c-27.6,3.6-41.8,29.7-43.3,32.6c-2,7.2-2.6,13-2.9,17.1c-0.2,3.3,0,4.2-0.4,7.6C95.9,181.7,94.6,184.4,93.7,189.6z"/>
<path class="st1" d="M202.4,153.6c-2.5-9.2-5.1-18.4-7.5-27.7c-1.9-7.2-3.8-15.7-4.8-25.7c-0.4-3.6-0.6-6.9-0.8-10.2
	c-3.8-1.3-7.6-2.7-11.6-3.5c-2,2.1-3.1,3-4.5,4.1c-0.5,0.3-0.2,0.1-6.9,4.8c-2.4,1.7-4.5,3.3-6,4.3c-2.2,1.1-4.4,2.1-6.6,3.3
	c-4.5-0.6-8.9-1-13.4-1.4c-8.1-1.7-13.1-5.5-16.1-8.8c-1-1-2.9-4.8-4.8-6.7c-0.2,0-0.4,0-0.6,0c-0.8,0-1.6,0-2.4,0.1
	c-0.9,0.3-1.9,0.5-2.8,0.7c-0.1,0-0.2,0-0.3,0c-0.1,0.1-0.2,0.3-0.4,0.4c-2.7,9.8-5.4,19.4-8.1,29.2c0,0-0.5,8.1-0.6,8.9
	c-0.5,7.1-3,21.2-8.3,40.3c9.1,1.9,18.3,1.2,27.5,0.7c11.1-0.7,22.1,0,33.2,0.7c7-0.3,13.9-0.6,20.9-0.6c1,0,1.9,0.3,2.6,0.7
	c0.4-0.1,0.7-0.1,1.1-0.1c8.9-0.1,17.7-1,26.4-2.1C205.9,161.2,204.1,157.4,202.4,153.6z"/>
</svg>
