<?xml version="1.0" encoding="utf-8"?>
<!-- Generator: Adobe Illustrator 23.0.3, SVG Export Plug-In . SVG Version: 6.00 Build 0)  -->
<svg version="1.1" id="Layer_1" xmlns="http://www.w3.org/2000/svg" xmlns:xlink="http://www.w3.org/1999/xlink" x="0px" y="0px"
	 viewBox="0 0 300 500" style="enable-background:new 0 0 300 500;" xml:space="preserve">
<style type="text/css">
	.st0{fill:#EE537B;}
	.st1{fill:#C68642;}
	.st2{opacity:0.14;fill:#422200;enable-background:new    ;}
</style>
<g>
	<path id="path4642" class="st0" d="M114.1,134c-0.3,0.1-0.6,0.3-0.9,0.6c-0.7,4.5-0.5,9,1.6,13.2c3,5,8.1,6.5,13.2,8
		c6.6-0.3,11-4.6,15.6-8.5l0,0c3.2,0.1,6.3,0.1,9.5,0.2l0,0c5.1,3.7,10,8.1,16.9,8c4.8-1.2,9.2-3.1,11.9-7.6l3.3-9.4
		c-1.4-1.3,0-5-3.7-4.3c-10.6-1-20,1.7-28.4,8.2l0,0c-3.2-1-6.3-0.9-9.5,0.1l0,0c-8.1-7.5-17.9-9.2-28.4-8.3
		C114.8,134,114.5,133.9,114.1,134L114.1,134z M181.8,194.8c-7.1,4.6-14.1,9.5-21.4,13.8c-7.6,4.6-14.9,4.7-23.2,0.2
		c-7.8-4.2-14.5-9.9-22.3-14c-3.3,4.5-6.6,9.1-10,13.7c7.7,17.1,23.1,24.9,38.7,32.6c3.1-0.1,6.3-0.1,9.4-0.2
		c16.5-5.9,29.2-16.7,39.6-30.5C190.3,204.4,185.9,199.7,181.8,194.8L181.8,194.8z"/>
	<path id="path4660" class="st1" d="M136.1,71c-0.8,2.3-1.7,4.3-1.9,4.4c-0.3,0.3-3.7,11.4-10.4,11.3c-13.1-0.2-19.3,7-22.8,18.5
		c-15.7,51.7-30.8,103.4-45.3,155.4c-2.6,9.4,0,15.9,6.1,22.2c2,2.1,4.5,4.9,7.2,3.3c3.8-2.2,0.1-4.9-1-7.1
		c-1.2-2.3-3.3-4.5-2.4-6.9c1.5-4.2,0.1-11.5,8.3-10c2.5,0.5,5,4.5,7.4,1.6c2.8-3.5-0.7-6.8-3.1-8.8c-4.9-4.3-4.7-8.3-2.3-14.1
		c10.4-25.4,20-51.2,30.4-76.6c2.3-5.6,2.6-12.6,8.6-16.4c1.9-4.1,0.7-8.2-0.5-12.2c0.2-0.4,0.4-0.8,0.6-1.2c0.1,0,0.1,0,0.2,0
		c0.2-0.5,0.4-1,0.6-1.4c-0.2,0.8-0.3,1.6-0.4,2.5c9.7,2.1,19.7,3.2,28.4,8.8c3.1,0.7,6.2,0.7,9.3,0.1c8.9-4.7,18.5-7,28.3-8.7
		c0.1-0.4,0.1-0.8,0.2-1.1c0.5,0.6,1.1,1.2,1.6,1.9c-0.1,0.5-0.3,1-0.3,1.5c0.2,3.5-3.1,6.7-0.9,10.3c5.2,1.7,5,6.9,6.6,10.7
		c9.9,24,19.3,48.1,28.9,72.2c3.6,9.1,10.2,18.2-0.5,27.2c-1.6,1.4-2.1,4.2-0.5,6.1c1.7,2.1,3.4,0.3,4.9-0.7c4.7-3.2,7,0,9,3.4
		c3,5,1.8,9.6-1.7,13.9c-1.2,1.5-2.1,3.5-0.4,5.1c1.8,1.7,3.6,0.5,5-0.8c6.3-5.8,11.3-12.1,8.8-21.5
		c-14.4-53.1-29.8-105.9-45.9-158.4c-2.1-6.8-5.1-12.2-10.2-15.4c-4.5-2.8-7-0.2-12.7-3.1c-7.7-3.9-10.8-11.4-11.5-14
		c-0.1-0.4-0.2-0.9-0.2-1.4L136.1,71z M124.7,45.5L124.7,45.5z M163.6,123.5c0.9,0.2,1.9,0.4,2.8,0.6
		C165.5,124,164.6,123.8,163.6,123.5z M183.2,134c0.1,0.1,0.1,0.3,0.2,0.4C183.3,134.3,183.3,134.2,183.2,134z M148.1,145.5
		c-1.5,0-2.9,0.2-4.4,0.5c-5.5,2.8-11.1,5.6-15.8,9.9c5.9,13.7,2,24.7-9.1,33.9c-1.7,1.4-2.7,3.5-4,5.2
		c24.6,25.8,44.6,25.3,66.9-0.1c-1.8-2.5-3.3-5.5-5.6-7.5c-10.7-9.1-12-19.7-6.1-31.8c-5.3-4.2-11.4-7-17.5-9.6
		C151.1,145.6,149.6,145.5,148.1,145.5z M105,208.6c-5.3,12.2-4.8,25.2-4.9,38.1c-0.3,31.7,2.4,63.1,5.2,94.7
		c3.1,33.7,8.1,67,13,100.5c2.3,15.7,13.2,31.9-1.4,48.7c6.9,0,12.3-0.5,17.5,0.1c7.9,1,9.5-2.5,9.5-9.7
		c-0.2-79.9-0.2-159.8-0.2-239.7c-2.1-5.3-7.6-6.2-11.8-8.5C120.8,226.9,113.7,216.9,105,208.6z M191.4,210.5
		c-2.9,0.3-4.2,3.1-5.9,5.1c-7.5,8.8-16.5,15.5-26.7,20.8c-2.2,1.1-4.8,1.8-5.6,4.6c0,79.9,0,159.7,0,239.6c0,1.9,0,3.8,0.1,5.7
		c0.1,2.7,1.6,4.1,4.2,4.1c7,0,14,0,21,0c0.5-0.6,1-1.2,1.5-1.8c-10.5-7.2-7.2-16.4-5.4-25.3c0.4-2.2,1-4.3,1.4-6.5
		c6.7-37.9,12.1-76,15.9-114.3c3.7-36.9,5.8-73.8,4.7-110.8c-0.2-7-0.1-14.6-3.8-21.2C192.2,210.4,191.8,210.4,191.4,210.5z"/>
</g>
<g>
	<path class="st1" d="M173.7,46.4c-3.8,19.1-11.1,29.3-24.5,29.3s-20.9-11.9-23.6-31.3c-2.7-19.2,10.9-35.1,24.3-35.1
		S177.2,29.2,173.7,46.4z"/>
	<path class="st2" d="M137.6,73.1c-0.3,0.7,0,1.4,0.5,1.9c3.2,2.9,22,4.4,11.6,4.4c5.2,0,9.4-1.7,12.8-5c-0.1-0.3-0.2-0.7-0.3-0.9
		l0,0c-0.2-0.8-0.9-1.3-1.6-1.3L139.2,72C138.4,71.9,137.9,72.4,137.6,73.1L137.6,73.1z"/>
</g>
</svg>
