<?xml version="1.0" encoding="utf-8"?>
<!-- Generator: Adobe Illustrator 23.0.1, SVG Export Plug-In . SVG Version: 6.00 Build 0)  -->
<svg version="1.1" id="Layer_1" xmlns="http://www.w3.org/2000/svg" xmlns:xlink="http://www.w3.org/1999/xlink" x="0px" y="0px"
	 viewBox="0 0 792 612" style="enable-background:new 0 0 792 612;" xml:space="preserve">
<style type="text/css">
	.st0{fill:#FCC6A0;}
	.st1{fill:#EE537C;}
	.st2{fill:#FBC09B;}
	.st3{fill:#FEFDF4;}
	.st4{fill:#F9E2CE;}
	.st5{fill:#F7E9DA;}
	.st6{fill:#F9D2B3;}
	.st7{fill:#D04D6E;}
	.st8{fill:#E5AA8B;}
	.st9{fill:#E6AE8A;}
	.st10{fill:#E8B08D;}
	.st11{fill:#E6AF8A;}
	.st12{fill:#F9D4BC;}
	.st13{fill:#FBBF9A;}
	.st14{fill:#FDC796;}
</style>
<path class="st0" d="M369.7,270.4c-4.1,10.4-8,20.8-12.3,31c-1.3,3-2,5.4,0.3,8.2c0.9,1.1,1.7,2.8,0.4,4.1c-1.3,1.3-2.4,0-3.3-1
	c-1.1-1.3-1.6-0.5-2.2,0.4c-1.4,2.2-2.2,4.5-0.6,7c0.8,1.3,2,2.5,0.1,3.8c-1.7,1.1-2.7-0.3-3.9-1.2c-4.6-3.9-5.7-8.5-3.9-14.3
	c7.5-24.1,17.1-47.5,25.9-71.2c2.3-6.1,4.9-12.4,13.3-11.9c1.9-1.3,2.8-2.6,3.2-3.6c0.2-0.5,0.1-0.5,1.1-3.4
	c0.6-1.6,0.8-2.2,0.9-2.4c0.5-1.3,0.9-2.3,1.3-2.9c1,0.6,3.1,1.6,5.9,1.7c4.1,0.1,7-2.1,7.8-2.7c0.3,1.9,0.7,3.4,1,4.5
	c0.3,1,0.4,1.1,0.7,2.4c0.7,2.5,0.7,2.9,1,3.7c0.4,0.8,1.2,1.9,2.9,2.9c5.4-0.1,9.1,2.3,11.3,7.3c6.7,15.2,12,31,17.9,46.5
	c3.7,9.8,7.3,19.6,10.2,29.7c1.8,6.2,0.2,10.9-4.8,14.5c-1,0.7-2,1.4-3.2,0.5c-1.3-0.9-0.7-2.2-0.1-3.1c1.6-2.3,1.7-4.5,0.1-6.9
	c-0.9-1.4-1.4-2.9-3-0.7c-0.6,0.9-1.6,1.4-2.6,0.8c-1.2-0.8-1.1-2.3-0.4-3.1c4.4-4.9,0.9-9.2-0.8-13.7c-3.5-8.6-7-17.3-10.5-25.9
	c-1-0.9-1.8-2-2.1-3.3c-0.5-1.9-1.3-3.6-2.2-5.4c-0.1-0.4-0.1-0.9,0-1.3c1.6-2.9,3.7-5.5,3-9.2c-0.6-5.5-5.5-10.4-9.4-9.4
	c1.7-0.1,3.1,0.5,4.5,1.3c1.5,0.8,2.6,2.1,3.7,3.4c1,1.1,0.9,2.1-0.7,2.6c-7.9-1.9-13.6,3.3-20.1,6.2c-2.1,0.5-4.2,0.5-6.2,0.1
	c-2.2-0.6-4.4-1.4-6.4-2.7c-4.4-2.9-9.2-4.5-14.6-3.5c-1.8-0.5-2-1.4-0.8-2.8c2.4-2.9,5.3-4.9,9.3-4.3c0.7,0.1-0.1-1,0.1-0.3
	c0,0.1-0.1,0.2-0.5,0.2c-5.1-0.6-9.8,3.3-10.3,8.6c-0.6,3.9,1.8,7,3.1,10.4c-0.2,1.2-0.9,2.1-1.2,3.2
	C372,267,371.9,269.3,369.7,270.4z"/>
<path class="st0" d="M424.4,291.2c0.7,18.1-0.9,36.2-2.5,54.2c-1.3,14.9-2.9,29.7-5.2,44.5c-1.9,12-5.2,23.7-8,35.4
	c-0.8,3.3-2.3,6.4,1.6,8.8c0.6,0.3,1,1.5,0.8,2.2c-0.2,1.3-1.5,1-2.5,1.1c-9.8,1-10,0.9-10-9c0-40.3-0.1-80.6-0.2-120.9
	c2.3-3.2,6.2-3.5,9.3-5.3c4.4-2.5,9-4.7,12.5-8.7C421.3,292.3,422.5,291,424.4,291.2z"/>
<path class="st0" d="M391.6,437.3c-0.3,0-0.7,0-1,0c-1.6-0.7-1.4-2.2-1.7-3.5c-0.1-0.6-0.8,0.4-0.3,0.1c0.3-0.1,0.4-0.1,0.4,0.3
	c-0.1,1.1,0.4,2.2-0.5,3.2c-1,0-2,0.2-3,0.1c-1.2-0.1-2.9,0.7-3.5-0.9c-0.5-1.3,0.8-2.1,1.6-2.8c2-1.7,1.9-3.5,1.3-5.8
	c-5.7-21-10-42.3-12.1-64c-1.4-14-2.9-28.1-3.4-42.2c-0.4-10.1-1.3-20.3-0.6-30.4c1.3-0.2,2.3,0.5,3.1,1.3
	c5.7,5.7,12.3,9.8,19.8,12.6c1.2,0.5,2.4,1,3,2.4c-0.1,32.6-0.1,65.1-0.2,97.7c0,8.6,0,17.3,0,25.9c0,1.8,0.6,3.7-0.9,5.3
	c-1.2-1.2-1-2.8-1-4.2c1.1-38.3,0.2-76.6,0.5-114.8c0-1.8-0.2-3.5,0-4.2c0,36.5,0,74,0,111.5C393.1,428.8,393.2,433.2,391.6,437.3z"
	/>
<path class="st0" d="M371.6,264.3c0-1.4,0.8-2,2.2-2.1c6.7,2.1,12.2-2.4,18.4-3.3c3,0,5.9,0,8.9,0c1.2,0,2.5-0.1,3.4,0.5
	c4.7,3.1,9.7,3.7,15.1,2.8l0.2,0.2c1.1,1.8,1.4,3.8,2.2,5.6c0.3,1.1,0.8,2.1,0.6,3.3c0.2,4.7,2.2,9.2,1.9,14c-1.9-0.3-3.4,0.5-5,1.5
	c-14.8,9.1-29.7,9.4-44.7,0.5c-1.9-1.1-3.5-2.5-5.9-1.9c-0.3-4.5,1.4-8.6,1.9-13C370.7,269.6,372.2,267.1,371.6,264.3z"/>
<path class="st1" d="M368.8,285.3c0.9-3.7,2.5-2,4.3-0.7c13.4,9.6,27.5,10.1,42.2,3.3c2.1-1,4.1-2.3,5.7-3.9
	c2.5-2.4,2.7-0.1,3.5,1.3c0,2,0,3.9,0,5.9c-6.9,8.1-16.1,12.6-25.9,16.3c-1.3,0-2.6,0-3.8,0c-9.9-3.4-18.9-8.3-25.9-16.3
	C368.8,289.2,368.8,287.2,368.8,285.3z"/>
<path class="st2" d="M391.6,437.3c2.3-42.2,0.2-84.5,2-126.7c0,41.9,0,83.9,0,125.8C393.2,437.3,392.5,437.3,391.6,437.3z"/>
<path class="st3" d="M396.5,310.6c0,41.8,0,83.6,0,125.3c-0.2,0-0.3,0-0.5,0c0-41.8,0-83.7,0-125.5
	C396.2,310.5,396.3,310.6,396.5,310.6z"/>
<path class="st4" d="M371.6,264.3c1.8,2.9-0.2,5.4-0.9,8c-0.1-0.8-0.2-1.5-1-1.9C370.3,268.4,371,266.3,371.6,264.3z"/>
<path class="st2" d="M388.6,437.3c0-1.3,0-2.5,0-5.3c1,2.6,1.5,3.9,2,5.3C390,437.3,389.3,437.3,388.6,437.3z"/>
<path class="st5" d="M422.5,271.3c-1.1-0.7-0.9-1.9-1-3c-0.3-1,0.2-1.3,1.1-1c0.3,1.3,0.7,2.6,1,4
	C423.3,271.3,422.9,271.3,422.5,271.3z"/>
<path class="st6" d="M389.6,215.3c-5.9-5.9-6.2-13.2-5.8-20.9c0.2-3.3,2.6-3.5,4.4-3.4c5.7,0.3,11.3,0.2,17,0
	c1.8-0.1,4.2,0.1,4.3,3.4c0.2,7.6,0.3,15.1-5.9,20.9C399,217.2,394.3,216.4,389.6,215.3z"/>
<path class="st1" d="M391.5,260c-1.4,0.3-2.9,0-4.2,1.1c-4.2,3.9-8.8,3.7-13.6,1.1c-3-3-4.7-6.5-4.1-10.8c0.4-1.5,1.7-1.7,3-2
	c5.4-2.4,10.1-0.4,14.6,2.3c2.1,1.3,4.3,2.5,6.5,3.4C392.8,256.7,390.4,257.5,391.5,260z"/>
<path class="st1" d="M419.5,262.2c-4.8,2.7-9.4,2.9-13.6-1c-1.2-1.1-2.8-0.9-4.2-1.1c0-1.8-0.4-3.4-1.3-5c2.7-1.6,5.4-3.3,8.2-4.8
	c3.8-2,7.8-2.7,12-0.9c1.7,0.3,2.2,1.7,3,2.9C424.2,256.4,422.2,259.4,419.5,262.2z"/>
<path class="st7" d="M400.4,255.1c2.6,1.1,4.3,2.4,1.3,5c-3.4,0.5-6.8,0.5-10.2,0c-0.5-0.9-2.5-0.5-2.1-1.6c0.6-1.9,1.9-3.5,4.4-3.3
	C396,255.1,398.2,255.1,400.4,255.1z"/>
<path class="st8" d="M423.6,252.3c-1-1-2-1.9-3-2.9c-1.4-4.7-4.6-6.4-11.9-5.8c2.2-2,5.3-0.9,6.8-3.1
	C417.7,244.8,424,246.2,423.6,252.3z"/>
<path class="st9" d="M372.7,249.4c-1,0.7-2,1.3-3,2c-0.1-4.6,4.1-5.9,6.5-8.6c3.7-4.2,5.6,1.4,8.6,0.9c-2.5,0.1-5.2-0.8-7.5,0.4
	C375.2,245.2,372.4,246.1,372.7,249.4z"/>
<path class="st10" d="M387.7,232.8c4-0.4,4-0.4,7.8,1.7C392.3,235.5,390.1,233.6,387.7,232.8z"/>
<path class="st11" d="M406.1,232.5c-2.8,1.7-5.3,1.9-8,1.9C400.5,233.2,402.9,231.9,406.1,232.5z"/>
<path class="st12" d="M422.6,267.3c-0.4,0.3-0.7,0.7-1.1,1c-1.2-1.8-1.9-3.8-1.8-5.9C422,263.2,421.5,265.8,422.6,267.3z"/>
<path class="st13" d="M400.5,310.6c0,41.4,0,82.9,0,124.3c-0.2,0-0.3,0-0.5,0c0-41.5,0-83,0-124.5
	C400.2,310.5,400.3,310.6,400.5,310.6z"/>
<path class="st14" d="M388.5,310.6c0,36.4,0,72.9,0,109.3c-0.2,0-0.3,0-0.5,0c0-36.5,0-73,0-109.5
	C388.2,310.5,388.3,310.6,388.5,310.6z"/>
<path class="st0" d="M357.8,205.1"/>
<path class="st0" d="M580.5,266.7"/>
</svg>
