<?xml version="1.0" encoding="UTF-8" standalone="no"?>
<!-- Generator: Adobe Illustrator 23.0.1, SVG Export Plug-In . SVG Version: 6.00 Build 0)  -->

<svg
   xmlns:dc="http://purl.org/dc/elements/1.1/"
   xmlns:cc="http://creativecommons.org/ns#"
   xmlns:rdf="http://www.w3.org/1999/02/22-rdf-syntax-ns#"
   xmlns:svg="http://www.w3.org/2000/svg"
   xmlns="http://www.w3.org/2000/svg"
   xmlns:sodipodi="http://sodipodi.sourceforge.net/DTD/sodipodi-0.dtd"
   xmlns:inkscape="http://www.inkscape.org/namespaces/inkscape"
   version="1.1"
   id="Layer_1"
   x="0px"
   y="0px"
   viewBox="0 0 300 500"
   style="enable-background:new 0 0 300 500;"
   xml:space="preserve"
   sodipodi:docname="female_hourglass_tshirtjeans.svg"
   inkscape:version="0.92.3 (2405546, 2018-03-11)"><metadata
   id="metadata860"><rdf:RDF><cc:Work
       rdf:about=""><dc:format>image/svg+xml</dc:format><dc:type
         rdf:resource="http://purl.org/dc/dcmitype/StillImage" /><dc:title></dc:title></cc:Work></rdf:RDF></metadata><defs
   id="defs858" /><sodipodi:namedview
   pagecolor="#ffffff"
   bordercolor="#666666"
   borderopacity="1"
   objecttolerance="10"
   gridtolerance="10"
   guidetolerance="10"
   inkscape:pageopacity="0"
   inkscape:pageshadow="2"
   inkscape:window-width="1920"
   inkscape:window-height="1001"
   id="namedview856"
   showgrid="false"
   inkscape:zoom="3.776"
   inkscape:cx="129.06032"
   inkscape:cy="338.0044"
   inkscape:window-x="-9"
   inkscape:window-y="-9"
   inkscape:window-maximized="1"
   inkscape:current-layer="Layer_1" />
<style
   type="text/css"
   id="style843">
	.st0{fill:#EE537B;}
	.st1{fill:#C68642;}
	.st2{opacity:0.14;fill:#422200;enable-background:new    ;}
</style>


<path
   style="fill:#ff0000;stroke:#000000;stroke-width:1px;stroke-linecap:butt;stroke-linejoin:miter;stroke-opacity:1"
   d="m 127.38347,86.334745 -7.15042,0.794492 -5.29661,0.26483 -5.29661,3.707627 -5.56144,5.03178 -5.29661,14.300846 -5.826271,20.65678 -6.355933,21.7161 -2.913135,9.00424 19.332629,11.12288 6.62076,-19.0678 L 114.8,147.8 l 1.99025,2.88856 5.03178,2.91313 6.07797,2.29831 1.86695,5.38178 1.58898,6.0911 -2.11864,10.32839 -5.82627,8.20975 -3.97246,5.03178 -4.53856,3.8572 66.8,0.1 -4.26356,-6.60551 -3.97246,-3.97246 -4.50212,-6.35593 -1.85381,-5.03178 -0.52966,-6.35593 v -5.82627 L 170,155.6 176.90678,152.8072 182,148.3 v 0 l 3.64619,2.65339 5.82627,15.36017 18.2733,-17.47881 -13.24152,-41.31356 -3.70763,-10.593225 -3.4428,-5.56144 -9.79872,-2.913136 -7.15043,-1.853813 -4.50212,5.29661 -3.17796,3.707627 -2.64831,2.383474 c 0,0 -0.79449,0 -2.38347,0.264831 -1.58899,0.264831 0,0.529661 -3.4428,0.529661 -3.4428,0 -4.23729,-0.529661 -6.88559,-0.529661 -2.64831,0 -4.23729,-0.264831 -4.23729,-0.264831 l -3.70763,-1.324152 -7.68008,-2.648305 -3.97246,-2.913136 -1.85381,-2.118644 z"
   id="path1405"
   inkscape:connector-curvature="0" /><path
   style="fill:#0000ff;stroke:#000000;stroke-width:1px;stroke-linecap:butt;stroke-linejoin:miter;stroke-opacity:1"
   d="m 114.8,195 -5.68983,7.06568 L 104.9,208.5 l -2.94025,9.98517 -1.85382,10.59322 0.26483,19.0678 -0.529658,24.09957 2.118648,28.86653 10.06356,96.66313 7.15042,48.72882 4.76695,19.33262 20.12712,0.26483 v -221.3983 h 9.26906 l 0.52967,222.72246 h 20.12711 l 3.97246,-21.18644 6.62076,-41.04873 5.03178,-40.51907 4.50212,-46.08051 2.64831,-43.16737 V 221.3983 L 192.6,210.4 181.8,194.8 Z"
   id="path1407"
   inkscape:connector-curvature="0" /></svg>