<?xml version="1.0" encoding="UTF-8" standalone="no"?>
<!-- Generator: Adobe Illustrator 23.0.1, SVG Export Plug-In . SVG Version: 6.00 Build 0)  -->

<svg
   xmlns:dc="http://purl.org/dc/elements/1.1/"
   xmlns:cc="http://creativecommons.org/ns#"
   xmlns:rdf="http://www.w3.org/1999/02/22-rdf-syntax-ns#"
   xmlns:svg="http://www.w3.org/2000/svg"
   xmlns="http://www.w3.org/2000/svg"
   xmlns:sodipodi="http://sodipodi.sourceforge.net/DTD/sodipodi-0.dtd"
   xmlns:inkscape="http://www.inkscape.org/namespaces/inkscape"
   version="1.1"
   id="Layer_1"
   x="0px"
   y="0px"
   viewBox="0 0 300 500"
   style="enable-background:new 0 0 300 500;"
   xml:space="preserve"
   sodipodi:docname="female_rectangle_tshirtjeans.svg"
   inkscape:version="0.92.3 (2405546, 2018-03-11)"><metadata
   id="metadata837"><rdf:RDF><cc:Work
       rdf:about=""><dc:format>image/svg+xml</dc:format><dc:type
         rdf:resource="http://purl.org/dc/dcmitype/StillImage" /><dc:title></dc:title></cc:Work></rdf:RDF></metadata><defs
   id="defs835" /><sodipodi:namedview
   pagecolor="#ffffff"
   bordercolor="#666666"
   borderopacity="1"
   objecttolerance="10"
   gridtolerance="10"
   guidetolerance="10"
   inkscape:pageopacity="0"
   inkscape:pageshadow="2"
   inkscape:window-width="1920"
   inkscape:window-height="1001"
   id="namedview833"
   showgrid="false"
   inkscape:zoom="4.2763761"
   inkscape:cx="150"
   inkscape:cy="390.30571"
   inkscape:window-x="-9"
   inkscape:window-y="-9"
   inkscape:window-maximized="1"
   inkscape:current-layer="Layer_1" />
<style
   type="text/css"
   id="style815">
	.st0{fill:#C68642;}
	.st1{fill:#EE537B;}
	.st2{opacity:0.14;fill:#422200;enable-background:new    ;}
</style>
<g
   id="g826">
	<path
   id="path4"
   class="st0"
   d="M136.22,70.21c0,0-0.1,0-0.1,0.1c0.9,1.5,1.5,3.2,1.7,5c0.4,1.1,0.6,2.2,0.6,3.4   c0,0.7,0,1.5-0.2,2.2c0,1.1,0,2.2-0.4,3.4c-0.2,0.7-0.6,1.3-0.9,2.1c-0.2,0.6-0.6,1.1-1,1.7h-0.1c-3.6,0.9-6.7,2.4-10.3,3   c-1.6,0.2-3,0.7-4.4,1.4c-7.5,2.2-12.3,7.8-14.7,17.2c-3.2,12.3-7.3,24.3-10.9,36.7c-11.6,39.7-23,79.3-34.8,118.8   c-1.9,6.4-0.9,11.6,2.8,16.6c2.6,3.6,4.7,10.5,9.4,8.2c4.1-2.1,0-7.7-1.3-11.6c-0.2-0.6-0.6-1.1-0.6-1.7c-0.2-4.9,2.8-8.2,5.4-11.6   c2.6-3.2,4.1,0.7,6,1.9c1.1,0.7,2.2,1.5,3.4,0.6c1.9-1.5,0.7-3.2,0.4-5.1c-1.1-4.9-7.5-7.9-5-14.2c9.7-24.9,19.1-49.8,28.6-74.8   c1.1-0.7,1.7-1.7,2.1-3c0.2-0.6,0.4-0.9,0.2-0.9c-1.1-0.6,0.7-1.1,0.2,0.2c0,4.9,2.1,10.1-0.2,15.2l-0.4,20.4   c17,16.5,56.9,15.7,75.8,0.2c-0.6-12.3-1.6-26.4-0.1-41c9.5,25.6,18,49.4,26.9,72.8c3.2,8.2,7.5,16.1,0,24.1c-1.1,1.3-1.7,3.6,0,5   c0.7,0.6,2.6,0.6,3.4,0c6.7-6,7.3,1.1,9.4,4.5c2.8,4.7,0,9-1.1,13.5c-0.6,2.2-2.8,4.9,0.6,6.4c2.8,1.3,4.5-1.3,6.2-3.2   c5.4-7.7,8-15.5,5.2-25.3c-14.4-48.3-28.6-96.5-42.6-144.8c-3.3-11.6-6.2-23.1-18.2-25.9c-3.7-2.1-8.6-3.1-12.6-2.4   c-0.3-0.1-0.6-0.3-0.9-0.5c-1.8-2-2.7-4.5-2.4-7.1v-0.5v-0.2c0-0.7,0.2-1.5,0.4-2.4c0-0.6,0.2-1.3,0.2-1.9c0.2-0.7,0.4-1.7,0.7-2.4   c0-0.4,0.2-0.7,0.2-1.3c0-1.5,0.4-3,1.1-4.3c-0.2,0-0.4,0.1-0.6,0.1C174.32,62.11,124.32,64.11,136.22,70.21z M110.12,206.91   c-1.1,20.2-2.6,40.2-3.2,60.4c-0.7,37,0.4,73.9,5,110.7c3.9,31.4,7.1,62.8,14.8,93.7c1.3,5.1,0.7,9-3.9,12.2   c-2.4,1.7-4.5,4.3-0.4,6.5c9.4,5.2,19.6-0.9,19.6-11.4c0.2-75.6,0.4-150.9,0.2-226.3c0-9.2,2.8-12,11.2-10.3   c0.6,45.3,0.2,90.3,1.3,135c1.1,33.1,0.4,66,0.4,99.1c0,14.4,1.7,15.7,16.5,14c1.9-0.2,4.1-0.2,4.9-2.1c0.7-2.1-1.1-3.6-2.6-4.5   c-5.4-3.6-5.2-7.9-3.7-13.7c3.6-13.8,6.4-27.7,8.4-41.9c6.5-43.6,11.6-87.4,11.8-131.5c0.2-25.8-0.6-51.6-3.4-77.2   c-12.2,5-21.7,14.4-33.2,21c-0.1-0.3-0.2-0.5-0.5-0.8c-5.2-3.2-11.4-1.5-17-4.1C123.22,229.91,113.92,221.11,110.12,206.91z" />
	<path
   class="st1"
   d="M180.42,135.31c-8.9,0.1-14.9,6.2-20.3,13c-4.5-6.5-13.3-7.3-18.9-1.9c-0.2,0.3-0.3,0.6-0.4,0.9   c0-0.2,0.1-0.4,0.2-0.7c-3.4,0.9-4.9-2.1-6.7-3.7c-6-5.4-12.5-8.6-21-6.9c-3.4,0.2-3.9,3.2-5.6,5.4c-0.9,8.4,1.7,14.8,9.5,18.5   c8,3.7,14.6,1.1,20-5c2.1-2.6,4.9-2.2,7.5-2.8c0-0.1,0-0.2,0.1-0.3l0.1,0.1h9.7c4.3-0.2,6.5,2.8,9.4,5.2c6,5.1,13.3,6,19.6,1.5   c6.5-4.5,9.7-11,6.4-19.3c-0.9-2.6-3.4-3-5.6-3.7C183.02,135.41,181.72,135.31,180.42,135.31L180.42,135.31z"
   id="path818" />
	<path
   class="st1"
   d="M112.62,205.01c-0.2,1.1-1.7,2.4-1.9,3.7c-1.7,12,4.8,18.5,13.8,24.7c9.2,6.2,18.7,10.1,29.9,9.4   c13.9-3.2,23.7-12.7,34.1-21.1c0-5.6,0-11-0.2-16.5c-11.3,2.6-21.6,8.2-33.4,9.4C139.02,216.11,126.92,210.51,112.62,205.01   L112.62,205.01z"
   id="path820" />
	<ellipse
   class="st1"
   cx="131.46"
   cy="499.36"
   rx="11.04"
   ry="0.94"
   id="ellipse822" />
	<path
   class="st0"
   d="M606.98-83.48"
   id="path824" />
</g>
<path
   class="st0"
   d="M173.7,46.4c-3.8,19.1-11.1,29.3-24.5,29.3s-20.9-11.9-23.6-31.3c-2.7-19.2,10.9-35.1,24.3-35.1  S177.2,29.2,173.7,46.4z"
   id="path828" />
<path
   class="st2"
   d="M137.59,73.1c-0.28,0.7,0,1.4,0.47,1.9c3.2,2.9,22.01,4.4,11.57,4.4c5.17,0,9.41-1.7,12.79-5  c-0.09-0.3-0.19-0.7-0.28-0.9l0,0c-0.19-0.8-0.85-1.3-1.6-1.3L139.19,72C138.44,71.9,137.88,72.4,137.59,73.1L137.59,73.1z"
   id="path830" />
<path
   style="fill:#ff0000;stroke:#000000;stroke-width:1px;stroke-linecap:butt;stroke-linejoin:miter;stroke-opacity:1"
   d="M 135.82,88.11 128.61357,90.541161 121.12,92.51 l -6.537,2.708018 -5.14454,6.313762 -4.9107,13.79672 -14.498261,50.97775 -3.039957,9.35371 18.005898,9.58756 4.82456,-11.73752 2.42457,0.51306 -0.52457,31.38694 75.8,0.2 -0.1,-41 9.47568,23.91132 14.03058,-18.23975 -15.66748,-52.14695 -5.84607,-17.07053 -8.65218,-8.886029 L 164.62,89.31 l -5.13917,4.738804 -7.01529,2.572271 -6.78144,-0.467686 -6.07992,-3.2738 z"
   id="path839"
   inkscape:connector-curvature="0" /><path
   style="fill:#0000ff;stroke:#000000;stroke-width:1px;stroke-linecap:butt;stroke-linejoin:miter;stroke-opacity:1"
   d="m 110.12,206.91 -2.31844,37.49976 -1.6369,61.96836 1.40305,24.08581 1.87075,25.72271 4.20917,35.31028 6.07991,50.97774 6.07992,23.61813 16.60284,1.6369 -0.23384,-219.11076 11.4583,-0.23384 1.6369,220.27997 14.96594,1.40305 5.14454,-23.15044 4.9107,-26.1904 3.97533,-33.90721 3.50764,-32.738 2.33843,-33.20569 V 281.82462 L 188.71118,243.24055 188.32,205.21 Z"
   id="path841"
   inkscape:connector-curvature="0" /></svg>