<?xml version="1.0" encoding="utf-8"?>
<!-- Generator: Adobe Illustrator 23.0.1, SVG Export Plug-In . SVG Version: 6.00 Build 0)  -->
<svg version="1.1"
	 id="Layer_1" xmlns:cc="http://creativecommons.org/ns#" xmlns:dc="http://purl.org/dc/elements/1.1/" xmlns:rdf="http://www.w3.org/1999/02/22-rdf-syntax-ns#" xmlns:svg="http://www.w3.org/2000/svg"
	 xmlns="http://www.w3.org/2000/svg" xmlns:xlink="http://www.w3.org/1999/xlink" x="0px" y="0px" viewBox="0 0 197.6 287.6"
	 style="enable-background:new 0 0 197.6 287.6;" xml:space="preserve">
<style type="text/css">
	.st0{fill:#F5BE99;}
	.st1{fill:#EE537B;}
</style>
<path id="path3770" class="st0" d="M87.1,40.8c-1.7,0-3.5,0.5-3.7,3.4c-0.4,7.5-0.1,14.6,5.3,20.4c-0.1,0.4-0.3,0.7-0.4,1.1
	c-0.1,0.2-0.3,0.8-0.9,2.4c-1,2.9-0.9,2.9-1.1,3.4c-0.4,1-1.3,2.3-3.2,3.6c-8.4-0.5-11,5.8-13.3,11.9c-8.8,23.7-18.4,47.1-25.9,71.2
	c-1.8,5.8-0.7,10.4,3.9,14.3c1.2,0.9,2.2,2.3,3.9,1.2c1.9-1.3,0.7-2.5-0.1-3.8c-1.6-2.5-0.8-4.8,0.6-7c0.6-0.9,1.1-1.7,2.2-0.4
	c0.9,1,2,2.3,3.3,1s0.5-3-0.4-4.1c-2.3-2.8-1.6-5.2-0.3-8.2c4.3-10.2,8.2-20.6,12.3-31c0.7-0.4,1.2-0.8,1.5-1.4
	c-0.2,1.1-0.5,2.2-0.4,3.4c-0.5,4.4-2.2,8.5-1.9,13c2.4-0.6,4,0.8,5.9,1.9c15,8.9,29.9,8.6,44.7-0.5c1.6-1,3.1-1.8,5-1.5
	c0.3-4.8-1.7-9.3-1.9-14c0-0.2,0-0.5,0-0.7c0.2,0.3,0.5,0.5,0.8,0.8c3.5,8.6,7,17.3,10.5,25.9c1.7,4.5,5.2,8.8,0.8,13.7
	c-0.7,0.8-0.8,2.3,0.4,3.1c1,0.6,2,0.1,2.6-0.8c1.6-2.2,2.1-0.7,3,0.7c1.6,2.4,1.5,4.6-0.1,6.9c-0.6,0.9-1.2,2.2,0.1,3.1
	c1.2,0.9,2.2,0.2,3.2-0.5c5-3.6,6.6-8.3,4.8-14.5c-2.9-10.1-6.5-19.9-10.2-29.7c-5.9-15.5-11.2-31.3-17.9-46.5
	c-2.2-5-5.9-7.4-11.3-7.3c-1.7-1-2.5-2.1-2.9-2.9c-0.3-0.8-0.3-1.2-1-3.7c-0.3-1.3-0.4-1.4-0.7-2.4c-0.1-0.5-0.3-1.1-0.5-1.8
	c5.5-5.7,5.5-12.9,5.3-20.3c-0.1-3.3-2.5-3.5-4.3-3.4c-5.7,0.2-11.3,0.3-17,0C87.6,40.8,87.3,40.8,87.1,40.8L87.1,40.8z M116.9,99.5
	c0.9,0,1.9,0.2,2.9,0.4c0.3-0.1,0.6-0.2,0.8-0.4c0.3,0.3,0.5,0.5,0.8,0.8c0.1,0.5,0.3,1.1,0.3,1.7c0.7,3.7-1.4,6.3-3,9.2
	c-0.1,0.3-0.1,0.6,0,0.9c-5.2,0.8-10,0.1-14.6-2.9c-0.9-0.6-2.2-0.5-3.4-0.5h-8.9c-6.2,0.9-11.7,5.4-18.4,3.3c0,0,0,0-0.1,0
	c0-0.1,0-0.1,0.1-0.2c-1.3-3.4-3.7-6.5-3.1-10.4c0-0.3,0.1-0.6,0.1-1c0.4-0.3,0.8-0.5,1.2-0.8c0.2,0.1,0.5,0.3,0.9,0.4
	c5.4-1,10.2,0.6,14.6,3.5c2,1.3,4.2,2.1,6.4,2.7c2,0.4,4.1,0.4,6.2-0.1C105.4,103.6,110.5,99.3,116.9,99.5L116.9,99.5z M123.3,141
	c-1.5,0.1-2.6,1.3-3.5,2.3c-3.5,4-8.1,6.2-12.5,8.7c-3.1,1.8-7,2.1-9.3,5.3c0.1,40.3,0.2,80.6,0.2,120.9c0,9.9,0.2,10,10,9
	c1-0.1,2.3,0.2,2.5-1.1c0.2-0.7-0.2-1.9-0.8-2.2c-3.9-2.4-2.4-5.5-1.6-8.8c2.8-11.7,6.1-23.4,8-35.4c2.3-14.8,3.9-29.6,5.2-44.5
	c1.6-18,3.2-36.1,2.5-54.2C123.8,141,123.5,141,123.3,141L123.3,141z M68.9,141.2c-0.2,0-0.3,0-0.5,0c-0.7,10.1,0.2,20.3,0.6,30.4
	c0.5,14.1,2,28.2,3.4,42.2c2.1,21.7,6.4,43,12.1,64c0.6,2.3,0.7,4.1-1.3,5.8c-0.8,0.7-2.1,1.5-1.6,2.8c0.6,1.6,2.3,0.8,3.5,0.9
	c1,0.1,2-0.1,3-0.1c0,0,0.1-0.1,0.1-0.1v0h2h1c0.9,0,1.5,0,1.9-0.8c0,0,0,0.1,0.1,0.1c1.5-1.6,0.9-3.5,0.9-5.3v-25.9
	c0.1-32.6,0.1-65.1,0.2-97.7c-0.6-1.4-1.8-1.9-3-2.4c-7.5-2.8-14.1-6.9-19.8-12.6C70.8,141.8,70,141.2,68.9,141.2L68.9,141.2z
	 M88.2,283.5v0.2C87.9,283.9,88,283.6,88.2,283.5z"/>
<path id="path3778" class="st1" d="M77,98.3c-1.6,0-3.2,0.3-4.9,1.1c-1.3,0.3-2.6,0.5-3,2c-0.6,4.3,1.1,7.8,4.1,10.8
	c4.8,2.6,9.4,2.8,13.6-1.1c1.3-1.1,2.7-0.8,4.1-1.1c0,0,0.1,0.1,0.1,0.1c3.4,0.5,6.8,0.5,10.2,0c1.4,0.2,3,0,4.2,1.1
	c4.2,3.9,8.8,3.7,13.6,1c2.7-2.8,4.7-5.8,4.1-9.9c-0.8-1.2-1.3-2.6-3-2.9c-4.2-1.8-8.2-1.1-12,0.9c-2.8,1.5-5.5,3.2-8.2,4.8
	c-2.2,0-4.4,0-6.6,0.1c-0.1,0-0.1,0-0.2,0c0,0,0.1-0.1,0.1-0.1c-2.2-0.9-4.4-2.1-6.5-3.4C83.6,99.8,80.4,98.3,77,98.3L77,98.3z
		M122.3,133c-0.4,0-1,0.3-1.8,1c-1.6,1.6-3.6,2.9-5.7,3.9c-14.7,6.8-28.8,6.3-42.2-3.3c-1.8-1.3-3.4-3-4.3,0.7c0,1.9,0,3.9,0.1,5.9
	c7,8,16,12.9,25.9,16.3h3.8c9.8-3.7,19-8.2,25.9-16.3v-5.9C123.5,134.3,123.2,133,122.3,133z"/>
<ellipse class="st0" cx="96" cy="45.2" rx="12.9" ry="17"/>
</svg>
