<?xml version="1.0" encoding="utf-8"?>
<!-- Generator: Adobe Illustrator 23.0.1, SVG Export Plug-In . SVG Version: 6.00 Build 0)  -->
<svg version="1.1" id="Layer_1" xmlns="http://www.w3.org/2000/svg" xmlns:xlink="http://www.w3.org/1999/xlink" x="0px" y="0px"
	 viewBox="0 0 288 560" style="enable-background:new 0 0 288 560;" xml:space="preserve">
<style type="text/css">
	.st0{fill:#FBC59F;}
	.st1{fill:#EE537B;}
	.st2{fill:#ED547A;}
	.st3{fill:#ED537A;}
	.st4{fill:#E7AD8B;}
	.st5{fill:#E8AE8C;}
	.st6{fill:#CD4D69;}
	.st7{fill:#EDB792;}
	.st8{display:none;fill:#FAD2B4;}
	.st9{fill:#FAD2B4;}
</style>
<path class="st0" d="M150.7,193.96c0.36,1.4,1.97,5.35,6.03,7.38c3.03,1.51,4.33,0.13,6.69,1.62c2.66,1.69,4.27,4.57,5.35,8.12
	c8.46,27.63,16.57,55.37,24.12,83.27c1.33,4.94-1.31,8.27-4.61,11.31c-0.74,0.68-1.71,1.28-2.64,0.4c-0.89-0.86-0.43-1.91,0.21-2.69
	c1.86-2.27,2.46-4.69,0.89-7.3c-1.07-1.78-2.28-3.48-4.74-1.8c-0.77,0.53-1.67,1.5-2.56,0.38c-0.83-1.04-0.57-2.52,0.27-3.23
	c5.62-4.74,2.15-9.53,0.25-14.32c-5.03-12.66-10-25.35-15.19-37.95c-0.81-1.96-0.71-4.73-3.45-5.6c-1.17-1.92,0.54-3.59,0.45-5.42
	c0.08-0.65,0.53-1.47,0.17-1.93c-3.85-4.96-0.87-9.52,0.6-14.09c-0.89,1.56-1.56,3.43-1.81,5.25c-0.55,3.89-2.44,4.92-5.43,3.67
	c2.58,0.89,6.71,0.75,5.72,5.95c-5.16,0.89-10.2,2.14-14.88,4.59c-1.64,0.32-3.27,0.33-4.91-0.03c-4.54-2.93-9.81-3.52-14.92-4.6
	c0.59-4.71,2.46-5.94,8.44-5.54c0.13-0.48-0.03-0.46-0.28-0.54c-2.24-0.67-4.97,2.32-6.62-0.29c-1.24-1.97-1.32-4.68-2.16-6.98
	c-0.02-0.61-0.13-1.2-0.57-1.67c-0.05-0.05-0.15-0.01-0.15-0.01c0.34,0.33,0.53,0.74,0.65,1.21c1.82,4.64,2.62,9.27,0.18,13.93
	c0.62,2.13,1.24,4.25,0.24,6.43c-3.12,2.02-3.3,5.67-4.51,8.63c-5.47,13.36-10.51,26.9-16,40.26c-1.26,3.07-1.36,5.15,1.23,7.42
	c1.25,1.09,3.09,2.79,1.62,4.64c-1.24,1.55-2.56-0.59-3.87-0.83c-4.31-0.8-3.57,3.04-4.36,5.27c-0.46,1.3,0.62,2.46,1.25,3.65
	c0.59,1.13,2.53,2.57,0.55,3.72c-1.41,0.82-2.71-0.68-3.77-1.76c-3.24-3.29-4.59-6.73-3.22-11.67c7.61-27.33,15.57-54.55,23.81-81.7
	c1.83-6.05,5.05-9.83,11.96-9.72c3.53,0.06,5.31-5.78,5.48-5.92s2.58-5.25,0.88-6.15c4.37,1.05,13.45,0.14,13.51,0.59
	c0,0.01,0,0.02-0.01,0.03C150.3,190.46,150.36,192.67,150.7,193.96z"/>
<path class="st0" d="M166.96,266.45c1.94,3.48,1.87,7.47,1.98,11.15c0.59,19.45-0.54,38.83-2.47,58.22
	c-2.01,20.16-4.82,40.17-8.35,60.1c-0.2,1.14-0.52,2.26-0.75,3.4c-0.92,4.71-2.65,9.55,2.86,13.31c-0.27,0.31-0.54,0.62-0.8,0.92
	c-3.68,0-7.37,0.01-11.05-0.01c-1.39-0.01-2.15-0.75-2.21-2.15c-0.04-1-0.05-2-0.05-3c0-41.97,0.01-83.94,0.02-125.92
	c0.44-1.47,1.79-1.83,2.96-2.43c5.36-2.76,10.1-6.3,14.04-10.91C164.16,267.95,164.88,266.2,166.96,266.45z"/>
<path class="st0" d="M141.19,282.57c0.01,41.99-0.02,83.98,0.1,125.97c0.01,3.79-0.82,5.62-4.98,5.12
	c-2.74-0.33-5.56-0.06-9.21-0.06c7.7-8.82,1.96-17.35,0.74-25.6c-2.6-17.56-5.24-35.1-6.85-52.8c-1.51-16.56-2.93-33.11-2.75-49.75
	c0.07-6.74-0.19-13.59,2.6-20.01c4.58,4.36,8.34,9.61,14.14,12.66C137.21,279.3,140.06,279.79,141.19,282.57z"/>
<path class="st0" d="M155.07,237.55c-3.1,6.38-2.42,11.97,3.2,16.74c1.22,1.03,1.98,2.6,2.95,3.92
	c-11.71,13.4-22.23,13.62-35.16,0.08c0.7-0.93,1.24-2.03,2.11-2.75c5.83-4.83,7.88-10.62,4.77-17.82c2.44-2.24,5.37-3.7,8.28-5.18
	c1.54-0.35,3.08-0.34,4.63-0.05C149.09,233.88,152.3,235.32,155.07,237.55z"/>
<path class="st1" d="M126.07,258.29c4.1,2.13,7.64,5.13,11.73,7.34c4.33,2.33,8.2,2.27,12.17-0.13c3.82-2.31,7.51-4.85,11.25-7.28
	c2.16,2.57,4.49,5.03,5.73,8.24c-5.45,7.28-12.16,12.93-20.82,16.04c-1.65,0.03-3.3,0.05-4.94,0.08c-8.22-4-16.33-8.13-20.36-17.11
	C122.58,263.07,124.32,260.68,126.07,258.29z"/>
<path class="st2" d="M141.16,233.24c-2.42,2.07-4.75,4.3-8.21,4.48c-2.67-0.82-5.35-1.61-6.92-4.23c-1.12-2.21-1.2-4.54-0.84-6.93
	c0.29-0.38,0.63-0.46,1.03-0.17c5.55-0.49,10.69,0.4,14.95,4.36C141.9,231.57,141.93,232.4,141.16,233.24z"/>
<path class="st3" d="M155.07,237.55c-3.65,0.03-6.2-2.26-8.9-4.23c-0.54-0.88-0.57-1.76-0.04-2.65c4.4-3.44,9.39-4.85,14.94-4.32
	c1.95-0.37,1.22,1.56,1.94,2.25c-0.57,1.65-1.14,3.3-1.71,4.95C159.89,235.91,157.61,236.93,155.07,237.55z"/>
<path class="st4" d="M163.02,228.6c-0.65-0.75-1.29-1.5-1.94-2.25c-1.14-4.87-5.34-4.57-9.41-5.63c10.35,2.86,8.18-6.66,11.17-11.07
	c0.43,0.51,0.65,0.69,0.62,0.76C161.06,216.42,159.69,222.45,163.02,228.6z"/>
<path class="st5" d="M126.21,226.38c-0.34,0.06-0.68,0.11-1.03,0.17c2.61-4.7,0.77-9.37-0.09-14.05c0.34-0.4,0.68-0.4,1.02,0.01
	c0.86,5.58,2.38,10.37,10.14,8.07C132.2,221.86,127.92,221.91,126.21,226.38z"/>
<path class="st6" d="M146.13,230.66c0.56,0.88,0.73,1.76,0.04,2.65c-1.67-0.03-3.34-0.05-5.01-0.08c0-0.84,0-1.67,0-2.5
	C142.81,230.17,144.47,230.13,146.13,230.66z"/>
<path class="st7" d="M126.11,212.52c-0.34,0-0.68-0.01-1.02-0.01c-0.97-1-2.08-1.96-1.21-3.73
	C125.59,209.63,125.23,211.44,126.11,212.52z"/>
<g>
	<path class="st8" d="M151.09,193.56c-0.31,0.65-0.62,1.31-0.94,1.95c-4.41,0.46-8.96,2.85-13.06-0.96
		c-3.52-4.84-5.75-10.11-6-16.27c-0.22-5.24,1.93-8.39,6.88-9.68c0.14-0.04,0.36,0.01,0.43-0.07c1.83-2.13,4.23-7.05,5.45-5.8
		c3.7,3.8,9.14,5.94,11.59,10.39c2,3.65,0.87,8.6-0.66,12.76C153.81,188.55,152.34,191.01,151.09,193.56z"/>
	<path class="st9" d="M136.39,167.04c0.13-0.1,0.3-0.15,0.4-0.27c2.05-2.46,4.77-5.77,7.06-5.15c3.61,1.9,7.93,3.91,10.31,7.67
		c1.94,2.96,2.48,6.9,1.99,10.96c-0.13,1.1-0.34,2.18-0.6,3.22c-0.8,3.24-2.34,6.13-4.07,8.59c-0.47,0.66-0.96,1.29-1.48,1.87
		c-1.73,0.72-3.6,1.3-5.53,1.44c-3.14,0.23-6.09-0.7-8.51-3.41c-2.91-3.95-4.74-8.7-4.87-14.11
		C130.97,172.91,132.76,169.22,136.39,167.04z"/>
	<path class="st9" d="M156.6,177.45c0,9.34-5.71,16.91-12.76,16.91c-3.52,0-6.71-1.89-9.02-4.95c-2.31-3.06-3.74-7.29-3.74-11.96
		s1.43-8.9,3.74-11.96c2.31-3.06,5.5-4.95,9.02-4.95c3.52,0,6.71,1.89,9.02,4.95S156.6,172.78,156.6,177.45z"/>
</g>
</svg>
