<?xml version="1.0" encoding="utf-8"?>
<!-- Generator: Adobe Illustrator 23.0.1, SVG Export Plug-In . SVG Version: 6.00 Build 0)  -->
<svg version="1.1" id="Layer_1" xmlns="http://www.w3.org/2000/svg" xmlns:xlink="http://www.w3.org/1999/xlink" x="0px" y="0px"
	 viewBox="0 0 300 500" style="enable-background:new 0 0 300 500;" xml:space="preserve">
<style type="text/css">
	.st0{fill:#C68642;}
	.st1{fill:#EE537B;}
	.st2{opacity:0.14;fill:#422200;enable-background:new    ;}
	.st3{fill:#FF5555;}
	.st4{fill:#FF8080;}
</style>
<g>
	<path id="path4" class="st0" d="M136.2,70.2c0,0-0.1,0-0.1,0.1c0.9,1.5,1.5,3.2,1.7,5c0.4,1.1,0.6,2.2,0.6,3.4c0,0.7,0,1.5-0.2,2.2
		c0,1.1,0,2.2-0.4,3.4c-0.2,0.7-0.6,1.3-0.9,2.1c-0.2,0.6-0.6,1.1-1,1.7h-0.1c-3.6,0.9-6.7,2.4-10.3,3c-1.6,0.2-3,0.7-4.4,1.4
		c-7.5,2.2-12.3,7.8-14.7,17.2c-3.2,12.3-7.3,24.3-10.9,36.7c-11.6,39.7-23,79.3-34.8,118.8c-1.9,6.4-0.9,11.6,2.8,16.6
		c2.6,3.6,4.7,10.5,9.4,8.2c4.1-2.1,0-7.7-1.3-11.6c-0.2-0.6-0.6-1.1-0.6-1.7c-0.2-4.9,2.8-8.2,5.4-11.6c2.6-3.2,4.1,0.7,6,1.9
		c1.1,0.7,2.2,1.5,3.4,0.6c1.9-1.5,0.7-3.2,0.4-5.1c-1.1-4.9-7.5-7.9-5-14.2c10.2-25.6,17.5-45.5,17.5-45.5
		c3.1-6.7,7.2-16.6,11.1-29.3c0.4-0.2,0.6-0.5,0.8-0.6c0.6-0.6,1-1.4,1.3-2.4c0.2-0.6,0.4-0.9,0.2-0.9c-1.1-0.6,0.7-1.1,0.2,0.2
		c0,4.9,2.1,10.1-0.2,15.2l-0.4,20.4c17,16.5,56.9,15.7,75.8,0.2c-0.6-12.3-1.6-26.4-0.1-41c9.5,25.6,18,49.4,26.9,72.8
		c3.2,8.2,7.5,16.1,0,24.1c-1.1,1.3-1.7,3.6,0,5c0.7,0.6,2.6,0.6,3.4,0c6.7-6,7.3,1.1,9.4,4.5c2.8,4.7,0,9-1.1,13.5
		c-0.6,2.2-2.8,4.9,0.6,6.4c2.8,1.3,4.5-1.3,6.2-3.2c5.4-7.7,8-15.5,5.2-25.3c-14.4-48.3-28.6-96.5-42.6-144.8
		c-3.3-11.6-6.2-23.1-18.2-25.9c-3.7-2.1-8.6-3.1-12.6-2.4c-0.3-0.1-0.6-0.3-0.9-0.5c-1.8-2-2.7-4.5-2.4-7.1v-0.5V81
		c0-0.7,0.2-1.5,0.4-2.4c0-0.6,0.2-1.3,0.2-1.9c0.2-0.7,0.4-1.7,0.7-2.4c0-0.4,0.2-0.7,0.2-1.3c0-1.5,0.4-3,1.1-4.3
		c-0.2,0-0.4,0.1-0.6,0.1C174.3,62.1,124.3,64.1,136.2,70.2z M110.1,206.9c-1.1,20.2-2.6,40.2-3.2,60.4c-0.7,37,0.4,73.9,5,110.7
		c3.9,31.4,7.1,62.8,14.8,93.7c1.3,5.1,0.7,9-3.9,12.2c-2.4,1.7-4.5,4.3-0.4,6.5c9.4,5.2,19.6-0.9,19.6-11.4
		c0.2-75.6,0.4-150.9,0.2-226.3c0-9.2,2.8-12,11.2-10.3c0.6,45.3,0.2,90.3,1.3,135c1.1,33.1,0.4,66,0.4,99.1
		c0,14.4,1.7,15.7,16.5,14c1.9-0.2,4.1-0.2,4.9-2.1c0.7-2.1-1.1-3.6-2.6-4.5c-5.4-3.6-5.2-7.9-3.7-13.7c3.6-13.8,6.4-27.7,8.4-41.9
		c6.5-43.6,11.6-87.4,11.8-131.5c0.2-25.8-0.6-51.6-3.4-77.2c-12.2,5-21.7,14.4-33.2,21c-0.1-0.3-0.2-0.5-0.5-0.8
		c-5.2-3.2-11.4-1.5-17-4.1C123.2,229.9,113.9,221.1,110.1,206.9z"/>
	<path class="st1" d="M180.4,135.3c-8.9,0.1-14.9,6.2-20.3,13c-4.5-6.5-13.3-7.3-18.9-1.9c-0.2,0.3-0.3,0.6-0.4,0.9
		c0-0.2,0.1-0.4,0.2-0.7c-3.4,0.9-4.9-2.1-6.7-3.7c-6-5.4-12.5-8.6-21-6.9c-3.4,0.2-3.9,3.2-5.6,5.4c-0.9,8.4,1.7,14.8,9.5,18.5
		c8,3.7,14.6,1.1,20-5c2.1-2.6,4.9-2.2,7.5-2.8c0-0.1,0-0.2,0.1-0.3l0.1,0.1h9.7c4.3-0.2,6.5,2.8,9.4,5.2c6,5.1,13.3,6,19.6,1.5
		c6.5-4.5,9.7-11,6.4-19.3c-0.9-2.6-3.4-3-5.6-3.7C183,135.4,181.7,135.3,180.4,135.3L180.4,135.3z"/>
	<path class="st1" d="M112.6,205c-0.2,1.1-1.7,2.4-1.9,3.7c-1.7,12,4.8,18.5,13.8,24.7c9.2,6.2,18.7,10.1,29.9,9.4
		c13.9-3.2,23.7-12.7,34.1-21.1c0-5.6,0-11-0.2-16.5C163.1,205.1,137.9,205.1,112.6,205z"/>
	<path class="st0" d="M607-83.5"/>
</g>
<path class="st0" d="M173.7,46.4c-3.8,19.1-11.1,29.3-24.5,29.3s-20.9-11.9-23.6-31.3c-2.7-19.2,10.9-35.1,24.3-35.1
	S177.2,29.2,173.7,46.4z"/>
<path class="st2" d="M137.6,73.1c-0.3,0.7,0,1.4,0.5,1.9c3.2,2.9,22,4.4,11.6,4.4c5.2,0,9.4-1.7,12.8-5c-0.1-0.3-0.2-0.7-0.3-0.9
	l0,0c-0.2-0.8-0.9-1.3-1.6-1.3L139.2,72C138.4,71.9,137.9,72.4,137.6,73.1L137.6,73.1z"/>
<path class="st3" d="M472.2,108.1"/>
<path class="st3" d="M96,225.3"/>
<path class="st3" d="M232.7,211.6"/>
<g>
	<path id="path129" class="st3" d="M111.6,216.1l-0.7,2.6c-2.6,9.4-3.5,21.7-3.5,46.5c0,4.8,0.1,5.8,0.2,13.4
		c0.1,21.5-0.7,37.2-0.9,41.7c-0.8,19.5,2.2,26.4,5,45.8c0.5,3.2,1.1,6.9,3.1,33c3.5,47,4,66.6,11.9,68.7c3.7,1,11.1-1.4,17.6-1
		c2,0.1,4,0.1,6,0.2c2.2,0.1,3.4,0.1,3.4-0.1c0-0.1,0.1-0.1,0.2,0.1c0.2,0.3,1.3,0.5,5.3,0.7c2.8,0.2,7,0.3,9.3,0.3l4.2,0l0.2-1
		c6.1-33.3,10.5-62.1,13.6-85.3c3.9-28.3,6.2-50.5,5.3-69.4c-0.1-2.5-0.6-10-0.7-20.4c-0.2-12,0.3-22.8,0.3-29.7
		c0-26,0-26.6-0.5-32.9l-0.6-6.4l-1.4-3.5l-1.4-3.5h-38L111.6,216.1z"/>
	<path id="path131" class="st3" d="M133.7,118.8c-4.1,1.1-9,3.2-9.8,1.9c-0.4-0.7,0.5-1.7,0.3-1.9c-0.7-0.5-13.2,7.9-15.5,21
		c-0.8,4.9-0.1,9.9,0.2,12c0.6,4.4,1.5,5.4,2.5,11.1c0.1,0.6,0.9,5.5,1.3,11.3c0.3,5.7-0.3,7.2-0.7,15.3c-0.6,12,0.5,13.3-0.4,22.4
		c-0.5,5.6-1.1,6.6-2.1,13.1c-1.6,10-1.9,18-2,34c-0.1,14.7,0,23.1,0.7,33.2c0.7,10.4,2.7,36.8,2.8,37.1c0.1,0.5,77.6,0.5,77.6,0
		c0-0.2,0.1-1.4,0.2-2.7c0.3-3.7,2.1-27.6,2.4-32.9c0.2-3.1,0.3-14.1,0.3-32l0-27.2l-0.6-6l-0.6-6c0-1.2,0-2.4,0-3.5
		c0-1.3,0.1-3.3,0-5.7c-0.2-5.6-0.8-9.5-1.2-12c-0.7-5.3-0.7-10.7-0.7-21.4c0-6.8,0.1-10.3,0.6-13.8c0.9-5.5,2.5-9.9,3.7-12.8
		c0.5-2,1.7-7.7-1-14c-1.6-3.8-4-6.3-5.5-7.7c-1.5-4-3-8.1-4.4-12.1c-3.5,0.1-7,0.2-10.4,0.4c-1.7,0.1-6.5,0-15.3-0.4
		C138.6,118.6,138.3,117.6,133.7,118.8z"/>
	<path id="path4641" class="st4" d="M153.1,121.9c-6.7-0.1-16.5-0.3-21.8-0.5l-9.6-0.2l0-1.6c0-1.6,1.4-19.6,2-25.1
		c0.2-1.5,0.3-2.9,0.3-3c0-0.5,4-0.2,7.2,0.5c1.8,0.4,7.9,2.2,13.5,3.9c5.6,1.7,10.5,3,10.9,2.9c0.4-0.1,4.9-2,10-4.3
		c5.1-2.3,9.5-4.2,9.8-4.2c0.3,0,1.6,0.7,2.8,1.5l2.3,1.5l0.2,2.9c0.1,1.6,0.3,8.1,0.4,14.5l0.2,11.6l-8-0.1
		C168.9,122.2,159.8,122,153.1,121.9L153.1,121.9z"/>
</g>
<path d="M128.7,146.5"/>
<path class="st3" d="M229.3,166.6"/>
</svg>
