<?xml version="1.0" encoding="UTF-8" standalone="no"?>
<svg
   xmlns:dc="http://purl.org/dc/elements/1.1/"
   xmlns:cc="http://creativecommons.org/ns#"
   xmlns:rdf="http://www.w3.org/1999/02/22-rdf-syntax-ns#"
   xmlns:svg="http://www.w3.org/2000/svg"
   xmlns="http://www.w3.org/2000/svg"
   height="246.82861"
   width="105.93449"
   xml:space="preserve"
   viewBox="0 0 105.93449 246.82861"
   y="0px"
   x="0px"
   id="Layer_1"
   version="1.1"><metadata
   id="metadata3821"><rdf:RDF><cc:Work
       rdf:about=""><dc:format>image/svg+xml</dc:format><dc:type
         rdf:resource="http://purl.org/dc/dcmitype/StillImage" /><dc:title></dc:title></cc:Work></rdf:RDF></metadata><defs
   id="defs3819" />
<path
   style="fill:#f5be99"
   id="path3770"
   d="M 44.022318,7.9008353e-4 C 42.354348,0.01719008 40.496148,0.53126008 40.321148,3.4187601 39.932208,10.90594 40.219468,18.01162 45.659038,23.82306 c -0.14272,0.35111 -0.27955,0.67995 -0.43945,1.0957 -0.1,0.2 -0.29844,0.80039 -0.89844,2.40039 -1,2.9 -0.90156,2.89844 -1.10156,3.39844 -0.4,1 -1.29922,2.30156 -3.19922,3.60156 -8.4,-0.5 -11.00078,5.79844 -13.30078,11.89844 -8.8,23.7 -18.3984403,47.10117 -25.89844025,71.20117 -1.8,5.8 -0.70156,10.39883 3.89843995,14.29883 1.2,0.9 2.20039,2.30117 3.90039,1.20117 1.9000003,-1.3 0.70039,-2.50078 -0.0996,-3.80078 -1.6,-2.5 -0.80039,-4.8 0.59961,-7 0.6,-0.9 1.1011703,-1.70039 2.2011703,-0.40039 0.9,1 1.99883,2.3 3.29883,1 1.3,-1.3 0.49961,-2.99961 -0.40039,-4.09961 -2.3,-2.8 -1.59883,-5.19922 -0.29883,-8.19922 4.3,-10.2 8.19883,-20.6 12.29883,-31 0.7116,-0.3558 1.18866,-0.84516 1.54883,-1.39453 -0.24701,1.10905 -0.48906,2.2245 -0.44727,3.39453 -0.5,4.4 -2.20039,8.5 -1.90039,13 2.4,-0.6 4.00039,0.80039 5.90039,1.90039 15,8.9 29.89922,8.6 44.69922,-0.5 1.6,-1 3.1,-1.8 5,-1.5 0.3,-4.8 -1.70039,-9.3 -1.90039,-14 0.0392,-0.23531 0.0469,-0.4614 0.0391,-0.68359 0.23648,0.27456 0.48957,0.53826 0.76172,0.7832 3.5,8.6 7,17.30039 10.5,25.90039 1.7,4.5 5.19883,8.79922 0.79883,13.69922 -0.7,0.8 -0.79961,2.29961 0.40039,3.09961 1,0.6 1.99961,0.10117 2.59961,-0.79883 1.6,-2.2 2.1,-0.70078 3,0.69922 1.6,2.4 1.50039,4.60039 -0.0996,6.90039 -0.6,0.9 -1.20039,2.19961 0.0996,3.09961 1.2,0.9 2.20117,0.2 3.201172,-0.5 5,-3.6 6.59883,-8.3 4.79883,-14.5 -2.9,-10.1 -6.499222,-19.89922 -10.199222,-29.69922 -5.9,-15.5 -11.20039,-31.3 -17.90039,-46.5 -2.2,-5 -5.89883,-7.40078 -11.29883,-7.30078 -1.7,-1 -2.50039,-2.10039 -2.90039,-2.90039 -0.3,-0.8 -0.3,-1.19922 -1,-3.69922 -0.3,-1.3 -0.40117,-1.40039 -0.70117,-2.40039 -0.14142,-0.51854 -0.30579,-1.14158 -0.4707,-1.83789 5.5463,-5.70704 5.46427,-12.93574 5.27148,-20.2617199 -0.1,-3.30000002 -2.50078,-3.50039002 -4.30078,-3.40039002 -5.7,0.2 -11.3,0.3 -17,0 -0.225,-0.0125 -0.45899,-0.0199 -0.69727,-0.0175999965 z M 73.854348,58.71954 c 0.92461,0.034 1.87774,0.16094 2.86524,0.39844 0.31456,-0.0983 0.55617,-0.21961 0.75781,-0.35352 0.27276,0.26704 0.5456,0.53126 0.81836,0.79102 0.14605,0.54522 0.26274,1.09859 0.32422,1.66211 0.7,3.7 -1.4,6.30117 -3,9.20117 -0.067,0.26808 -0.0716,0.57339 -0.0488,0.87109 -5.18902,0.76901 -10.01151,0.1229 -14.55078,-2.87109 -0.9,-0.6 -2.20039,-0.5 -3.40039,-0.5 h -8.90039 c -6.2,0.9 -11.69844,5.39883 -18.39844,3.29883 -0.0199,0.001 -0.0369,0.006 -0.0566,0.008 0.0157,-0.0709 0.0445,-0.13404 0.0566,-0.20703 -1.3,-3.4 -3.70156,-6.50039 -3.10156,-10.40039 0.0307,-0.32532 0.0792,-0.64493 0.14062,-0.95899 0.39649,-0.25885 0.79297,-0.52918 1.18946,-0.79296 0.23339,0.13247 0.51179,0.25175 0.87109,0.35156 5.4,-1 10.19961,0.6 14.59961,3.5 2,1.3 4.20039,2.10117 6.40039,2.70117 2,0.4 4.09922,0.40039 6.19922,-0.0996 5.6875,-2.5375 10.76211,-6.8375 17.23437,-6.59961 z m 6.38477,41.49024 c -1.51758,0.13125 -2.55703,1.25859 -3.51953,2.30859 -3.5,4 -8.1,6.19922 -12.5,8.69922 -3.1,1.8 -6.99883,2.10078 -9.29883,5.30078 0.1,40.3 0.19922,80.60039 0.19922,120.90039 0,9.9 0.2,10 10,9 1,-0.1 2.3,0.20039 2.5,-1.09961 0.2,-0.7 -0.19883,-1.90117 -0.79883,-2.20117 -3.9,-2.4 -2.40156,-5.49883 -1.60156,-8.79883 2.8,-11.7 6.1,-23.40039 8,-35.40039 2.3,-14.8 3.90117,-29.6 5.20117,-44.5 1.6,-18 3.2,-36.10117 2.5,-54.20117 -0.2375,-0.025 -0.46484,-0.0266 -0.68164,-0.008 z m -54.44531,0.17382 c -0.15332,-0.002 -0.31016,0.0102 -0.47266,0.0352 -0.7,10.1 0.19961,20.30039 0.59961,30.40039 0.5,14.1 2.00039,28.19922 3.40039,42.19922 2.1,21.7 6.39961,43 12.09961,64 0.6,2.3 0.69922,4.10078 -1.30078,5.80078 -0.8,0.7 -2.09961,1.49883 -1.59961,2.79883 0.6,1.6 2.3,0.80039 3.5,0.90039 1,0.1 2,-0.0996 3,-0.0996 0.0406,-0.0451 0.0645,-0.0912 0.0996,-0.13672 v 0.0371 h 2 1 c 0.85476,0 1.5253,-0.0103 1.93359,-0.78125 0.0245,0.0261 0.0407,0.0543 0.0664,0.0801 1.5,-1.6 0.90039,-3.49883 0.90039,-5.29883 v -25.90039 c 0.1,-32.6 0.0992,-65.10117 0.19922,-97.70117 -0.6,-1.4 -1.8,-1.89844 -3,-2.39844 -7.5,-2.8 -14.09883,-6.90156 -19.79883,-12.60156 -0.7,-0.7 -1.55371,-1.32305 -2.62695,-1.33399 z m 19.32617,142.30665 v 0.22851 c -0.29499,0.17699 -0.17075,-0.096 0,-0.22851 z" />
<path
   style="fill:#ee537b"
   id="path3778"
   d="m 33.891478,57.54376 c -1.56604,0.004 -3.18555,0.32422 -4.87305,1.07422 -1.3,0.3 -2.6,0.5 -3,2 -0.6,4.3 1.09961,7.79883 4.09961,10.79883 4.8,2.6 9.40156,2.80039 13.60156,-1.09961 1.27618,-1.07985 2.74325,-0.81627 4.1211,-1.08984 0.0242,0.0317 0.0584,0.0542 0.0781,0.0898 3.4,0.5 6.79922,0.5 10.19922,0 1.4,0.2 3.00117,-3.9e-4 4.20117,1.09961 4.2,3.9 8.79961,3.7 13.59961,1 2.7,-2.8 4.69961,-5.79844 4.09961,-9.89844 -0.8,-1.2 -1.3,-2.60039 -3,-2.90039 -4.2,-1.8 -8.2,-1.09961 -12,0.90039 -2.8,1.5 -5.49922,3.19883 -8.19922,4.79883 -2.2,0 -4.39961,-3.9e-4 -6.59961,0.0996 -0.0608,-0.005 -0.11245,0.005 -0.17187,0.002 0.0215,-0.0349 0.0503,-0.0659 0.0703,-0.10156 -2.2,-0.9 -4.4,-2.10039 -6.5,-3.40039 -3.09375,-1.85625 -6.28128,-3.38084 -9.72656,-3.37305 z m 45.28515,34.63086 c -0.42053,0.003 -0.97656,0.29297 -1.75781,1.04297 -1.6,1.6 -3.59922,2.90039 -5.69922,3.90039 -14.7,6.8 -28.80117,6.29922 -42.20117,-3.30078 -1.8,-1.3 -3.39883,-2.99883 -4.29883,0.70117 0,1.9 -3.9e-4,3.89844 0.0996,5.89844 7,8 16.00039,12.90078 25.90039,16.30078 h 3.79883 c 9.8,-3.7 19.00039,-8.20078 25.90039,-16.30078 v -5.89844 c -0.55,-0.9625 -0.81702,-2.35019 -1.74219,-2.34375 z" />
</svg>