<?xml version="1.0" encoding="utf-8"?>
<!-- Generator: Adobe Illustrator 23.0.3, SVG Export Plug-In . SVG Version: 6.00 Build 0)  -->
<svg version="1.1" id="Layer_1" xmlns="http://www.w3.org/2000/svg" xmlns:xlink="http://www.w3.org/1999/xlink" x="0px" y="0px"
	 viewBox="0 0 300 500" style="enable-background:new 0 0 300 500;" xml:space="preserve">
<style type="text/css">
	.st0{opacity:0.14;fill:#422200;enable-background:new    ;}
	.st1{fill:#FFFFFF;stroke:#000000;stroke-miterlimit:10;}
	.st2{fill:#231F20;stroke:#231F20;stroke-miterlimit:10;}
	.st3{fill:#FFFFFF;stroke:#FFFFFF;stroke-miterlimit:10;}
</style>
<path class="st0" d="M132.9,121.2c4.4,5.3,9.9,8.1,16.6,8.1c6.9,0,12.5-2.6,17.1-7.8c-0.1-0.5-0.3-1-0.4-1.4
	c-0.1-0.6-0.2-1.4-0.3-2.1l-32-0.2C133.6,119,133.2,120.2,132.9,121.2z"/>
<path class="st1" d="M176.7,85.3c0.7,9.6-2.7,14.8-4.2,16.8c-10.1,13.1-36.8,11.1-45.9-0.3c-5-6.2-3.8-14.2-8.8-15.7
	c-3.9-1.2-8.6,2.6-12,6.1c-1.7,12.8-3.4,25.7-5,38.6c-2.9,23.4-5.5,46.5-7.9,69.3c38.4,0,76.7,0,115.1,0
	c-5-59.5-11.1-102.8-15.5-107.9c-2.1-2.5-4.7-4.1-4.7-4.1C183.8,85.7,179.6,85.3,176.7,85.3z"/>
<path class="st2" d="M93.9,200.2v93.9h52.7v-3.7c0-0.9,0.4-1.5,1-1.9c0-0.3,0.1-0.6,0.3-0.9c0.9-2,4.4-1.8,4.6,0.8
	c0.7,1.8,1,3.7,1.1,5.7h53.6v-93.9H93.9z"/>
<path class="st3" d="M147.8,295.3c0.8-2.3,4.4-2,4.6,0.9c0.1,0.4,0.2,0.7,0.3,1.1c0.9-6.9,1.5-17.1,1.5-28.5c0-20.8-2-37.7-4.4-37.7
	s-4.4,16.9-4.4,37.7c0,11.2,0.6,21.3,1.5,28.2c0.2-0.3,0.4-0.4,0.6-0.6C147.6,296,147.7,295.6,147.8,295.3z"/>
</svg>
