<?xml version="1.0" encoding="UTF-8" standalone="no"?>
<svg
   xmlns:dc="http://purl.org/dc/elements/1.1/"
   xmlns:cc="http://creativecommons.org/ns#"
   xmlns:rdf="http://www.w3.org/1999/02/22-rdf-syntax-ns#"
   xmlns:svg="http://www.w3.org/2000/svg"
   xmlns="http://www.w3.org/2000/svg"
   xml:space="preserve"
   style="enable-background:new 0 0 288 560;"
   viewBox="0 0 288 560"
   y="0px"
   x="0px"
   id="Layer_1"
   version="1.1"><metadata
   id="metadata857"><rdf:RDF><cc:Work
       rdf:about=""><dc:format>image/svg+xml</dc:format><dc:type
         rdf:resource="http://purl.org/dc/dcmitype/StillImage" /><dc:title></dc:title></cc:Work></rdf:RDF></metadata><defs
   id="defs855" />
<path
   style="fill:#c68642"
   id="path824"
   d="M 143.30078 157 C 142.90078 157 139.70078 156.80039 136.80078 158.90039 C 133.70078 161.10039 132.99922 164.49922 132.19922 168.19922 C 131.69922 170.49922 130.69922 175.10078 132.19922 180.80078 C 133.39922 185.40078 135.69922 188.70039 137.19922 190.40039 C 137.20654 190.40771 137.29932 190.4888 137.31641 190.50586 C 137.24414 190.50547 137.17188 190.5 137.09961 190.5 C 137.09961 191.3 137 191.99922 137 192.69922 C 137 193.99922 136.79922 195.29961 136.69922 196.59961 C 136.79922 197.29961 136.69961 198.3 136.09961 199 C 135.49961 199.6 134.70078 199.80078 133.80078 199.80078 C 129.00078 199.90078 126.59922 202.80078 125.19922 207.30078 C 121.49922 219.50078 116.80039 231.40039 112.40039 243.40039 C 106.40039 259.80039 99.400391 275.80078 95.400391 292.80078 C 94.300391 297.50078 96.199609 300.40039 99.099609 303.40039 C 100.09961 304.40039 101.29961 305.09961 102.59961 304.09961 C 103.89961 303.09961 102.90039 302 102.40039 301 C 102.00039 299.9 101.20039 299.00039 100.90039 297.90039 C 99.900391 293.40039 102.4 291.00078 106.5 292.30078 C 107.3 292.60078 108.30078 292.99922 108.80078 292.19922 C 109.50078 291.29922 108.79961 290.29961 108.09961 289.59961 C 105.29961 286.69961 105.49922 283.90078 107.19922 280.30078 C 111.19922 271.90078 114.40039 263.09922 118.40039 254.69922 C 121.60039 247.79922 123.49922 240.20039 128.69922 234.40039 C 128.89922 231.30039 126.4 228.79961 127 225.59961 C 126.99734 225.55794 127.00186 225.52334 127 225.48242 C 127.63491 225.47449 128.26939 225.46874 128.9043 225.45508 C 129.96657 225.88307 131.48148 225.78778 132.40039 226.40039 C 135.90039 227.30039 138.80039 229.49922 141.90039 231.19922 C 143.10039 231.59922 144.3 231.59922 145.5 231.19922 C 148.4 229.19922 151.50039 227.40039 154.90039 226.40039 C 155.81032 225.77482 157.19245 225.81561 158.22656 225.5 C 158.91746 225.51502 159.60793 225.53827 160.29883 225.55859 C 160.29831 225.57309 160.3014 225.58502 160.30078 225.59961 C 161.00078 228.79961 158.39961 231.30078 158.59961 234.30078 C 160.89961 235.70078 161.5 238.3 162.5 240.5 C 168.3 253.6 174.00078 266.70078 179.80078 279.80078 C 181.30078 283.20078 182.29961 286.30078 179.09961 289.30078 C 178.49961 289.90078 177.49922 290.90039 178.19922 291.90039 C 178.89922 292.90039 180.10039 292.50039 180.90039 291.90039 C 185.10039 288.90039 185.50039 292.49961 186.40039 295.09961 C 187.20039 297.49961 185.79961 299.29961 184.59961 301.09961 C 183.99961 302.19961 183.2 303.29922 184.5 304.19922 C 185.5 304.89922 186.79922 304.70078 187.69922 303.80078 C 190.49922 301.10078 193.20039 298.40039 191.90039 293.90039 C 190.50039 289.00039 189.40078 283.9 187.80078 279 C 179.60078 254.4 169.1 230.60078 161.5 205.80078 C 160.4 201.90078 157.70039 200.00078 153.90039 199.80078 C 152.60039 199.80078 151.69961 199.50078 151.09961 198.80078 C 150.49961 198.10078 150.4 197.29961 150.5 196.59961 C 150.3 195.39961 150.19961 194.10078 150.09961 192.80078 C 150.01364 192.11306 150.0056 191.43669 150.00391 190.8125 C 152.10928 187.22857 155.11281 184.20499 155.30078 179.59961 C 155.60078 173.89961 155.70078 168.7 152.30078 163 C 151.00078 160.9 149.59922 159.59922 148.19922 158.69922 C 147.49922 158.19922 145.80078 157.2 143.30078 157 z M 143.15039 232.1875 C 142.10039 232.2 141.05 232.3 140 232.5 C 137.7 233.3 135.5 234.19961 134.5 236.59961 C 134.5 237.39961 134.4 238.29961 134.5 239.09961 C 135.1 243.69961 134.3 247.09961 129.5 249.59961 C 126.2 251.39961 123.39922 254.60039 121.69922 258.40039 C 134.79922 270.80039 152.19961 270.80039 165.59961 258.40039 C 163.49961 254.10039 160.19961 250.9 156.09961 248.5 C 153.39961 246.9 152.29922 245 152.69922 242 C 152.89922 240.2 152.69922 238.3 152.69922 236.5 C 151.49922 233.8 148.80078 233.20039 146.30078 232.40039 C 145.25078 232.25039 144.20039 232.175 143.15039 232.1875 z M 119.59961 263.59961 C 118.39961 268.19961 117.90078 272.89922 117.80078 277.69922 C 117.50078 298.19922 119.59961 318.50078 121.59961 338.80078 C 123.69961 360.60078 125.60039 382.40078 130.40039 403.80078 C 130.70039 405.40078 130.8 406.70039 129.5 407.90039 C 128.3 409.00039 126.40039 410.10039 127.40039 411.90039 C 128.20039 413.30039 130.09961 412.49961 131.59961 412.59961 C 133.39961 412.69961 135.29961 412.59961 137.09961 412.59961 C 139.19961 412.59961 140.69922 411.9 140.69922 409.5 L 140.69922 283.79102 C 140.73474 283.72735 140.76011 283.66287 140.80078 283.59961 C 145.70078 280.69961 145.90039 283.8 145.90039 287.5 L 145.90039 402 C 145.90039 403.84154 145.44485 405.86881 146.59961 407.63086 C 146.59961 407.65365 146.59961 407.67643 146.59961 407.69922 C 146.59961 408.59922 146.69922 409.6 146.69922 410.5 C 146.70378 410.48936 146.7121 410.47749 146.7168 410.4668 C 146.71031 410.51095 146.70581 410.55547 146.69922 410.59961 C 149.49922 415.09961 154 411.59961 157.5 412.59961 C 158.3 412.89961 159.59961 412.90078 160.09961 411.80078 C 160.69961 410.60078 159.7 409.90078 159 409.30078 C 157.5 407.80078 156.40039 406.49961 156.90039 404.09961 C 158.70039 396.09961 159.99961 388.19961 161.09961 380.09961 C 163.29961 363.39961 165.19961 346.60078 166.59961 329.80078 C 167.59961 317.60078 168.70039 305.29961 169.40039 293.09961 C 169.90039 283.49961 170.20039 273.90039 167.90039 264.40039 C 162.30039 269.70039 156.29922 274.40039 149.69922 278.40039 C 148.79135 278.94511 147.64923 279.66098 147.59375 280.98438 C 135.71397 279.37375 127.03066 272.49732 119.59961 263.59961 z " />
<path
   id="path832"
   d="m 158.05078,224.80078 c -1.15,0.05 -2.30117,0.3 -3.45117,0.5 -3.4,0.9 -6.79961,1.80039 -9.09961,4.90039 -7.6e-4,0.001 -0.001,0.002 -0.002,0.004 -1.26022,0.0922 -2.43199,0.0957 -3.69727,0.0957 l -0.041,0.0586 c -2.49418,-2.77076 -5.67849,-4.16317 -9.16015,-4.95898 -2.3,-0.5 -4.60039,-1.00039 -6.90039,0.0996 -0.6,3.4 0.60039,6.30078 2.90039,8.80078 1.9,1 3.60039,2.49922 5.90039,2.19922 1.7,-1.1 3.49922,-2.09922 5.19922,-3.19922 h 6.90039 c 2.1,1 4.09961,2.09961 6.09961,3.09961 2,-0.7 4.00039,-1.39961 5.90039,-2.09961 2.2,-2.5 3.50039,-5.40078 2.90039,-8.80078 -1.15,-0.6 -2.29922,-0.74922 -3.44922,-0.69922 z m -36.45117,33.5 c -0.7,1.7 -1.39961,3.39922 -2.09961,5.19922 -0.6,3.5 2.20078,5.00156 4.30078,6.60156 7.1,5.3 13.39922,12.59883 23.69922,11.29883 2.9,-1.9 5.89922,-3.69883 8.69922,-5.79883 4.4,-3.2 9.50117,-5.70117 11.70117,-11.20117 -0.8,-2 -1.50078,-4 -2.30078,-6 -1.7,-0.1 -2.60039,1.3 -3.90039,2 -8.9,5 -17.89883,8.5 -28.29883,4 -4.1,-1.8 -7.60078,-4.59961 -11.80078,-6.09961 z"
   style="fill:#ee537a" />
</svg>