<?xml version="1.0" encoding="UTF-8" standalone="no"?>
<svg
   xmlns:dc="http://purl.org/dc/elements/1.1/"
   xmlns:cc="http://creativecommons.org/ns#"
   xmlns:rdf="http://www.w3.org/1999/02/22-rdf-syntax-ns#"
   xmlns:svg="http://www.w3.org/2000/svg"
   xmlns="http://www.w3.org/2000/svg"
   xml:space="preserve"
   style="enable-background:new 0 0 288 560;"
   viewBox="0 0 288 560"
   y="0px"
   x="0px"
   id="Layer_1"
   version="1.1"><metadata
   id="metadata4669"><rdf:RDF><cc:Work
       rdf:about=""><dc:format>image/svg+xml</dc:format><dc:type
         rdf:resource="http://purl.org/dc/dcmitype/StillImage" /><dc:title></dc:title></cc:Work></rdf:RDF></metadata><defs
   id="defs4667">
</defs>
<path
   id="path4660"
   d="M 143.83984 160.53906 C 140.31984 160.53906 137.13031 162.43023 134.82031 165.49023 C 132.51031 168.55023 131.08008 172.77922 131.08008 177.44922 C 131.08008 177.55463 131.09035 177.65676 131.0918 177.76172 C 131.09239 177.79189 131.08911 177.81934 131.08984 177.84961 C 131.09165 177.92496 131.10105 177.99717 131.10352 178.07227 C 131.11886 178.62894 131.15395 179.17898 131.20898 179.7207 C 131.22066 179.83874 131.23669 179.95491 131.25 180.07227 C 131.29986 180.49537 131.3566 180.91405 131.42969 181.32617 C 131.49387 181.71229 131.57059 182.09253 131.65234 182.4707 C 131.65371 182.47655 131.65488 182.48244 131.65625 182.48828 C 132.41938 186.00554 133.91602 189.1852 135.96094 191.96094 C 136.35832 192.40594 136.77476 192.78496 137.19922 193.13672 C 136.79639 194.35478 136.28641 195.40855 136.21094 195.4707 C 136.04094 195.6107 134.26047 201.45063 130.73047 201.39062 C 123.82047 201.28062 120.59953 205.05937 118.76953 211.10938 C 110.52953 238.25938 102.57094 265.48055 94.960938 292.81055 C 93.590937 297.75055 94.939688 301.19047 98.179688 304.48047 C 99.239687 305.56047 100.53922 307.06023 101.94922 306.24023 C 103.92922 305.09023 101.99039 303.64953 101.40039 302.51953 C 100.77039 301.32953 99.690391 300.16914 100.15039 298.86914 C 100.94039 296.63914 100.19977 292.79961 104.50977 293.59961 C 105.81977 293.83961 107.14086 295.97969 108.38086 294.42969 C 109.85086 292.57969 108.00977 290.87906 106.75977 289.78906 C 104.16977 287.51906 104.2693 285.43914 105.5293 282.36914 C 111.0193 269.00914 116.0593 255.46937 121.5293 242.10938 C 122.7393 239.14937 122.91906 235.50047 126.03906 233.48047 C 127.03906 231.30047 126.42078 229.18078 125.80078 227.05078 C 125.91485 226.83294 126.0151 226.6142 126.11523 226.39648 C 126.14679 226.39107 126.17939 226.38643 126.21094 226.38086 C 126.31327 226.11336 126.42478 225.86205 126.54492 225.625 C 126.4547 226.03608 126.37092 226.45747 126.31055 226.93945 C 131.42055 228.01945 136.69047 228.60906 141.23047 231.53906 C 142.87047 231.89906 144.50063 231.89031 146.14062 231.57031 C 150.82063 229.12031 155.85953 227.87047 161.01953 226.98047 C 161.06039 226.76588 161.07963 226.5738 161.10352 226.37695 C 161.38706 226.70424 161.66773 227.03209 161.94922 227.35938 C 161.87758 227.62202 161.79942 227.88803 161.76953 228.13086 C 161.85953 229.96086 160.15031 231.63078 161.32031 233.55078 C 164.06031 234.42078 163.95953 237.19039 164.76953 239.15039 C 169.95953 251.75039 174.93094 264.43961 179.96094 277.09961 C 181.86094 281.88961 185.33094 286.67992 179.71094 291.41992 C 178.87094 292.12992 178.60945 293.61039 179.43945 294.65039 C 180.32945 295.77039 181.23 294.79953 182 294.26953 C 184.46 292.58953 185.67023 294.29031 186.74023 296.07031 C 188.31023 298.68031 187.70961 301.09914 185.84961 303.36914 C 185.20961 304.14914 184.75063 305.20055 185.64062 306.06055 C 186.57062 306.94055 187.5393 306.34016 188.2793 305.66016 C 191.5793 302.62016 194.22063 299.28961 192.89062 294.34961 C 185.34062 266.44961 177.22953 238.71008 168.76953 211.08008 C 167.68953 207.53008 166.07992 204.65094 163.41992 202.96094 C 161.05992 201.47094 159.76047 202.84984 156.73047 201.33984 C 152.67047 199.30984 151.05922 195.36094 150.69922 193.96094 C 150.64425 193.75239 150.60839 193.49561 150.56836 193.25 C 150.87992 192.86609 151.18694 192.47273 151.48047 192.06055 C 152.51998 190.5824 153.48654 188.94512 154.26953 187.17383 C 155.73307 184.42186 156.59961 181.07257 156.59961 177.44922 C 156.59961 172.77922 155.16938 168.55023 152.85938 165.49023 C 150.54937 162.43023 147.35984 160.53906 143.83984 160.53906 z M 151.66992 220.7207 C 152.15848 220.84794 152.64798 220.95339 153.13477 221.05273 C 152.67417 220.96923 152.19195 220.86496 151.66992 220.7207 z M 161.97266 226.26367 C 162.01059 226.32694 162.03764 226.39535 162.05273 226.46875 C 162.02719 226.40047 161.99714 226.33193 161.97266 226.26367 z M 143.53125 232.27539 C 142.76 232.28039 141.9907 232.36406 141.2207 232.53906 C 138.3107 234.01906 135.37945 235.4807 132.93945 237.7207 C 136.04945 244.9207 133.99992 250.70906 128.16992 255.53906 C 127.29992 256.25906 126.76055 257.35906 126.06055 258.28906 C 138.99055 271.82906 149.5107 271.61094 161.2207 258.21094 C 160.2507 256.89094 159.48953 255.31906 158.26953 254.28906 C 152.64953 249.51906 151.97031 243.93078 155.07031 237.55078 C 152.30031 235.32078 149.08961 233.88023 145.84961 232.49023 C 145.07461 232.34523 144.3025 232.27039 143.53125 232.27539 z M 120.83984 265.43945 C 118.04984 271.85945 118.31023 278.70922 118.24023 285.44922 C 118.06023 302.08922 119.48023 318.63922 120.99023 335.19922 C 122.60023 352.89922 125.23984 370.44 127.83984 388 C 129.05984 396.25 134.79961 404.77961 127.09961 413.59961 C 130.74961 413.59961 133.57055 413.33016 136.31055 413.66016 C 140.47055 414.16016 141.29906 412.32906 141.28906 408.53906 C 141.16906 366.54906 141.19945 324.56031 141.18945 282.57031 C 140.05945 279.79031 137.21047 279.29961 134.98047 278.09961 C 129.18047 275.04961 125.41984 269.79945 120.83984 265.43945 z M 166.24023 266.44531 C 164.69504 266.62893 164.03313 268.09836 163.14062 269.13086 C 159.20062 273.74086 154.45961 277.27906 149.09961 280.03906 C 147.92961 280.63906 146.58062 281.0007 146.14062 282.4707 C 146.13062 324.4507 146.11914 366.42062 146.11914 408.39062 C 146.11914 409.39062 146.12992 410.39062 146.16992 411.39062 C 146.22992 412.79062 146.99086 413.52906 148.38086 413.53906 C 152.06086 413.55906 155.74969 413.55078 159.42969 413.55078 C 159.68969 413.25078 159.96047 412.94086 160.23047 412.63086 C 154.72047 408.87086 156.44914 404.03031 157.36914 399.32031 C 157.59914 398.18031 157.91914 397.05992 158.11914 395.91992 C 161.64914 375.98992 164.4607 355.98031 166.4707 335.82031 C 168.4007 316.43031 169.52945 297.04961 168.93945 277.59961 C 168.82945 273.91961 168.90094 269.92922 166.96094 266.44922 C 166.70094 266.41797 166.46098 266.41908 166.24023 266.44531 z "
   style="fill:#8d5524" />
<path
   id="path4642"
   d="m 125.65234,226.2246 c -0.17125,0.0312 -0.32765,0.14594 -0.47265,0.33594 -0.36,2.39 -0.28016,4.71969 0.83984,6.92969 1.57,2.62 4.24992,3.41047 6.91992,4.23047 3.46,-0.18 5.78899,-2.41047 8.20899,-4.48047 0.003,-0.003 0.005,-0.007 0.008,-0.01 1.66609,0.0299 3.33195,0.0502 4.99805,0.0801 0.002,0.003 0.002,0.007 0.004,0.01 2.7,1.97001 5.25039,4.26047 8.90039,4.23047 2.54,-0.62 4.82047,-1.64 6.23047,-4 l 1.70899,-4.94921 c -0.72,-0.69 0.0105,-2.62001 -1.93946,-2.25 -5.54854,-0.52987 -10.53639,0.87837 -14.93554,4.3164 -0.002,-0.003 -0.002,-0.005 -0.004,-0.008 -1.66,-0.53 -3.3207,-0.48969 -4.9707,0.0703 v 0.0117 c -4.25819,-3.95266 -9.39349,-4.84121 -14.93946,-4.35156 -0.2,-0.145 -0.38539,-0.19727 -0.55664,-0.16602 z m 35.55664,31.9961 c -3.74,2.43 -7.43,4.96929 -11.25,7.27929 -3.97,2.4 -7.83992,2.46086 -12.16992,0.13086 -4.09,-2.21 -7.63047,-5.20984 -11.73047,-7.33984 -1.75,2.39 -3.49023,4.77969 -5.24023,7.17969 4.03,8.98 12.14133,13.10937 20.36133,17.10937 1.64,-0.03 3.28945,-0.0501 4.93945,-0.0801 8.66,-3.11 15.37031,-8.75906 20.82031,-16.03906 -1.24,-3.21 -3.57047,-5.67023 -5.73047,-8.24023 z"
   style="fill:#ee537b" /></svg>