<?xml version="1.0" encoding="utf-8"?>
<!-- Generator: Adobe Illustrator 23.0.1, SVG Export Plug-In . SVG Version: 6.00 Build 0)  -->
<svg version="1.1"
	 id="Layer_1" xmlns:cc="http://creativecommons.org/ns#" xmlns:dc="http://purl.org/dc/elements/1.1/" xmlns:rdf="http://www.w3.org/1999/02/22-rdf-syntax-ns#" xmlns:svg="http://www.w3.org/2000/svg"
	 xmlns="http://www.w3.org/2000/svg" xmlns:xlink="http://www.w3.org/1999/xlink" x="0px" y="0px" viewBox="0 0 300 500"
	 style="enable-background:new 0 0 300 500;" xml:space="preserve">
<style type="text/css">
	.st0{fill:#C68642;}
	.st1{fill:#EE537B;}
	.st2{opacity:0.14;fill:#422200;}
</style>
<path id="path4" class="st0" d="M150.2,14.1c0,0-6.2-0.2-11.4,2.4c-12.3,6.2-13.1,25.3-13.3,27.9c0,2.4-0.6,22.5,11.3,28.6
	c0,0-0.1,0-0.1,0.1c0.9,1.5,1.5,3.2,1.7,5c0.4,1.1,0.6,2.2,0.6,3.4c0,0.7,0,1.5-0.2,2.2c0,1.1,0,2.2-0.4,3.4
	c-0.2,0.7-0.6,1.3-0.9,2.1c-0.2,0.6-0.6,1.1-1,1.7c0,0-0.1,0-0.1,0c-3.6,0.9-6.7,2.4-10.3,3c-1.6,0.2-3,0.7-4.4,1.4
	c-7.5,2.2-12.3,7.8-14.7,17.2c-3.2,12.3-7.3,24.3-10.9,36.7c-11.6,39.7-23,79.3-34.8,118.8c-1.9,6.4-0.9,11.6,2.8,16.6
	c2.6,3.6,4.7,10.5,9.4,8.2c4.1-2.1,0-7.7-1.3-11.6c-0.2-0.6-0.6-1.1-0.6-1.7c-0.2-4.9,2.8-8.2,5.4-11.6c2.6-3.2,4.1,0.7,6,1.9
	c1.1,0.7,2.2,1.5,3.4,0.6c1.9-1.5,0.7-3.2,0.4-5.1c-1.1-4.9-7.5-7.9-5-14.2c9.7-24.9,19.1-49.8,28.6-74.8c1.1-0.7,1.7-1.7,2.1-3
	c0.2-0.6,0.4-0.9,0.2-0.9c-1.1-0.6,0.7-1.1,0.2,0.2c0,4.9,2.1,10.1-0.2,15.2l-0.4,20.4c17,16.5,56.9,15.7,75.8,0.2
	c-0.6-12.3-1.6-26.4-0.1-41c9.5,25.6,18,49.4,26.9,72.8c3.2,8.2,7.5,16.1,0,24.1c-1.1,1.3-1.7,3.6,0,5c0.7,0.6,2.6,0.6,3.4,0
	c6.7-6,7.3,1.1,9.4,4.5c2.8,4.7,0,9-1.1,13.5c-0.6,2.2-2.8,4.9,0.6,6.4c2.8,1.3,4.5-1.3,6.2-3.2c5.4-7.7,8-15.5,5.2-25.3
	c-14.4-48.3-28.6-96.5-42.6-144.8c-3.3-11.6-6.2-23.1-18.2-25.9c-3.7-2.1-8.6-3.1-12.6-2.4c-0.3-0.1-0.6-0.3-0.9-0.5
	c-1.8-2-2.7-4.5-2.4-7.1V84v-0.2c0-0.7,0.2-1.5,0.4-2.4c0-0.6,0.2-1.3,0.2-1.9c0.2-0.7,0.4-1.7,0.7-2.4c0-0.4,0.2-0.7,0.2-1.3
	c0-1.5,0.4-3,1.1-4.3c-0.2,0-0.4,0.1-0.6,0.1c11-6.7,10.7-24.9,10.5-26.9c-0.4-10.5-5.1-24.1-15-28.6
	C155,14.2,150.2,14.1,150.2,14.1z M110.7,209.7c-1.1,20.2-2.6,40.2-3.2,60.4c-0.7,37,0.4,73.9,5,110.7c3.9,31.4,7.1,62.8,14.8,93.7
	c1.3,5.1,0.7,9-3.9,12.2c-2.4,1.7-4.5,4.3-0.4,6.5c9.4,5.2,19.6-0.9,19.6-11.4c0.2-75.6,0.4-150.9,0.2-226.3c0-9.2,2.8-12,11.2-10.3
	c0.6,45.3,0.2,90.3,1.3,135c1.1,33.1,0.4,66,0.4,99.1c0,14.4,1.7,15.7,16.5,14c1.9-0.2,4.1-0.2,4.9-2.1c0.7-2.1-1.1-3.6-2.6-4.5
	c-5.4-3.6-5.2-7.9-3.7-13.7c3.6-13.8,6.4-27.7,8.4-41.9c6.5-43.6,11.6-87.4,11.8-131.5c0.2-25.8-0.6-51.6-3.4-77.2
	c-12.2,5-21.7,14.4-33.2,21c-0.1-0.3-0.2-0.5-0.5-0.8c-5.2-3.2-11.4-1.5-17-4.1C123.8,232.7,114.5,223.9,110.7,209.7z"/>
<path class="st1" d="M180,138.1c-8.9,0.1-14.9,6.2-20.3,13c-4.5-6.5-13.3-7.3-18.9-1.9c-0.2,0.3-0.3,0.6-0.4,0.9
	c0-0.2,0.1-0.4,0.2-0.7c-3.4,0.9-4.9-2.1-6.7-3.7c-6-5.4-12.5-8.6-21-6.9c-3.4,0.2-3.9,3.2-5.6,5.4c-0.9,8.4,1.7,14.8,9.5,18.5
	c8,3.7,14.6,1.1,20-5c2.1-2.6,4.9-2.2,7.5-2.8c0-0.1,0-0.2,0.1-0.3c0,0,0.1,0.1,0.1,0.1h9.7c4.3-0.2,6.5,2.8,9.4,5.2
	c6,5.1,13.3,6,19.6,1.5c6.5-4.5,9.7-11,6.4-19.3c-0.9-2.6-3.4-3-5.6-3.7C182.6,138.2,181.3,138.1,180,138.1L180,138.1z"/>
<path class="st1" d="M112.2,207.8c-0.2,1.1-1.7,2.4-1.9,3.7c-1.7,12,4.8,18.5,13.8,24.7c9.2,6.2,18.7,10.1,29.9,9.4
	c13.9-3.2,23.7-12.7,34.1-21.1c0-5.6,0-11-0.2-16.5c-11.3,2.6-21.6,8.2-33.4,9.4C138.6,218.9,126.5,213.3,112.2,207.8L112.2,207.8z"
	/>
<g>
	<path class="st2" d="M137.4,73.9c3.5,3.4,7.9,5.3,13.2,5.3c5.5,0,10-1.7,13.6-5c-0.1-0.3-0.2-0.7-0.3-0.9c-0.1-0.4-0.2-0.9-0.2-1.4
		l-25.4-0.2C137.9,72.5,137.6,73.2,137.4,73.9z"/>
	<g>
		<path class="st0" d="M175.9,48.1c-4.1,19.1-11.7,29.3-25.9,29.3c-14.2,0-22.1-11.9-25-31.3C122.2,26.9,136.5,11,150.7,11
			C164.9,11,179.6,30.9,175.9,48.1z"/>
	</g>
</g>
</svg>
