<?xml version="1.0" encoding="UTF-8" standalone="no"?>
<!-- Generator: Adobe Illustrator 23.0.1, SVG Export Plug-In . SVG Version: 6.00 Build 0)  -->

<svg
   xmlns:dc="http://purl.org/dc/elements/1.1/"
   xmlns:cc="http://creativecommons.org/ns#"
   xmlns:rdf="http://www.w3.org/1999/02/22-rdf-syntax-ns#"
   xmlns:svg="http://www.w3.org/2000/svg"
   xmlns="http://www.w3.org/2000/svg"
   xmlns:sodipodi="http://sodipodi.sourceforge.net/DTD/sodipodi-0.dtd"
   xmlns:inkscape="http://www.inkscape.org/namespaces/inkscape"
   version="1.1"
   id="Layer_1"
   x="0px"
   y="0px"
   viewBox="0 0 300 500"
   style="enable-background:new 0 0 300 500;"
   xml:space="preserve"
   sodipodi:docname="female_apple_tshirtjeans.svg"
   inkscape:version="0.92.3 (2405546, 2018-03-11)"><metadata
   id="metadata855"><rdf:RDF><cc:Work
       rdf:about=""><dc:format>image/svg+xml</dc:format><dc:type
         rdf:resource="http://purl.org/dc/dcmitype/StillImage" /><dc:title></dc:title></cc:Work></rdf:RDF></metadata><defs
   id="defs853" /><sodipodi:namedview
   pagecolor="#ffffff"
   bordercolor="#666666"
   borderopacity="1"
   objecttolerance="10"
   gridtolerance="10"
   guidetolerance="10"
   inkscape:pageopacity="0"
   inkscape:pageshadow="2"
   inkscape:window-width="1920"
   inkscape:window-height="1001"
   id="namedview851"
   showgrid="false"
   inkscape:zoom="5.24"
   inkscape:cx="141.7994"
   inkscape:cy="277.35892"
   inkscape:window-x="-9"
   inkscape:window-y="-9"
   inkscape:window-maximized="1"
   inkscape:current-layer="Layer_1" />
<style
   type="text/css"
   id="style836">
	.st0{opacity:0.14;fill:#422200;enable-background:new    ;}
	.st1{fill:#EE537B;}
	.st2{fill:#C68642;}
</style>
<path
   class="st0"
   d="M132.93,121.21c4.4,5.3,9.9,8.1,16.6,8.1c6.9,0,12.5-2.6,17.1-7.8c-0.1-0.5-0.3-1-0.4-1.4  c-0.1-0.6-0.2-1.4-0.3-2.1l-32-0.2C133.63,119.01,133.23,120.21,132.93,121.21z"
   id="path838" />


<path
   style="fill:#ff0000;stroke:#000000;stroke-width:1px;stroke-linecap:butt;stroke-linejoin:miter;stroke-opacity:1"
   d="m 123.83,85.93 -5.38603,-0.05056 -7.07775,2.166658 -4.06232,3.279315 -3.16802,3.065826 -2.96363,3.270214 -2.146076,5.416287 -4.087768,9.91284 -8.686506,20.13225 -8.788701,21.56299 -4.803127,11.54794 20.336645,10.21942 L 96.03,168.83 l 2.2,3.7 -2.985011,13.32505 -0.71536,5.00751 -0.09963,5.56744 112.500001,-0.2 -0.089,-5.06085 -0.81755,-3.5768 -0.81756,-4.49655 -1.12413,-5.62068 -0.81756,-6.43823 1.46575,-0.40689 5.17687,11.75044 16.55546,-18.70153 -11.95672,-29.12535 -11.24136,-26.3661 -8.37992,-15.022546 -6.13165,-4.803128 -5.82507,-1.635107 -5.3141,-0.715359 -1.38351,0.11868 -2.80645,3.866894 -1.22633,0.817553 c 0,0 -3.37241,1.635107 -3.98558,1.94169 -0.61316,0.306582 -6.02945,1.737301 -6.9492,2.043884 -0.91975,0.306582 -0.81756,0.306582 -3.4746,0.613165 -2.65705,0.306582 -0.71536,0.204388 -5.21191,0.306582 -4.49654,0.102195 -15.12474,-2.45266 -15.12474,-2.45266 l -6.74482,-2.350467 z"
   id="path857"
   inkscape:connector-curvature="0" /><path
   style="fill:#0000ff;stroke:#000000;stroke-width:1px;stroke-linecap:butt;stroke-linejoin:miter;stroke-opacity:1"
   d="m 94.25,195.73 -0.35687,18.01046 -0.38168,20.61069 1.335878,20.229 2.480916,46.37405 7.061066,59.92366 9.35115,50 12.40458,45.61069 19.84733,-0.38168 0.57252,-213.16794 7.2519,-0.38168 0.38168,213.54962 20.22901,0.38168 5.91603,-20.80153 7.82443,-30.34351 5.15267,-28.24427 5.53435,-40.45802 2.48092,-30.15267 3.62595,-42.93893 L 206.93,196.23 Z"
   id="path859"
   inkscape:connector-curvature="0" /></svg>