<?xml version="1.0" encoding="UTF-8" standalone="no"?>
<!-- Generator: Adobe Illustrator 23.0.1, SVG Export Plug-In . SVG Version: 6.00 Build 0)  -->

<svg
   xmlns:dc="http://purl.org/dc/elements/1.1/"
   xmlns:cc="http://creativecommons.org/ns#"
   xmlns:rdf="http://www.w3.org/1999/02/22-rdf-syntax-ns#"
   xmlns:svg="http://www.w3.org/2000/svg"
   xmlns="http://www.w3.org/2000/svg"
   xmlns:sodipodi="http://sodipodi.sourceforge.net/DTD/sodipodi-0.dtd"
   xmlns:inkscape="http://www.inkscape.org/namespaces/inkscape"
   version="1.1"
   id="Layer_1"
   x="0px"
   y="0px"
   viewBox="0 0 300 500"
   style="enable-background:new 0 0 300 500;"
   xml:space="preserve"
   sodipodi:docname="female_triangle_tshirtjeans.svg"
   inkscape:version="0.92.3 (2405546, 2018-03-11)"><metadata
   id="metadata851"><rdf:RDF><cc:Work
       rdf:about=""><dc:format>image/svg+xml</dc:format><dc:type
         rdf:resource="http://purl.org/dc/dcmitype/StillImage" /><dc:title></dc:title></cc:Work></rdf:RDF></metadata><defs
   id="defs849" /><sodipodi:namedview
   pagecolor="#ffffff"
   bordercolor="#666666"
   borderopacity="1"
   objecttolerance="10"
   gridtolerance="10"
   guidetolerance="10"
   inkscape:pageopacity="0"
   inkscape:pageshadow="2"
   inkscape:window-width="1920"
   inkscape:window-height="1001"
   id="namedview847"
   showgrid="false"
   inkscape:zoom="5.2516415"
   inkscape:cx="150"
   inkscape:cy="409.94999"
   inkscape:window-x="-9"
   inkscape:window-y="-9"
   inkscape:window-maximized="1"
   inkscape:current-layer="Layer_1" />
<style
   type="text/css"
   id="style834">
	.st0{fill:#C68642;}
	.st1{fill:#EE537B;}
	.st2{opacity:0.14;fill:#422200;enable-background:new    ;}
</style>


<path
   style="fill:#ff0000;stroke:#000000;stroke-width:1px;stroke-linecap:butt;stroke-linejoin:miter;stroke-opacity:1"
   d="m 131.5,85.4 2.17249,5.204194 5.52208,2.285 7.04542,3.046666 8.18792,0.57125 7.42625,-1.332917 4.18916,-2.284999 3.61792,-2.665834 1.90417,-3.808333 7.80708,0.761667 11.04416,1.523333 10.47292,5.14125 8.18792,9.711253 6.66458,23.23083 5.14125,20.565 L 198.9854,164.86669 194.5,156.9 188.89332,162.77211 183.3,164.9 182.79999,173.43544 180.7054,189.24002 179,204.2 120.6,203.7 117.86791,184.67002 115.1,166.1 113.29791,163.53377 103.8,156.7 l -5.545006,14.64086 -20.945832,-20.75542 4.189166,-15.995 5.522083,-18.08958 7.426249,-19.803333 4.57,-5.522083 8.37833,-2.094584 z"
   id="path853"
   inkscape:connector-curvature="0" /><path
   style="fill:#0000ff;stroke:#000000;stroke-width:1px;stroke-linecap:butt;stroke-linejoin:miter;stroke-opacity:1"
   d="M 120.6,203.7 114.82124,214.1846 113.2,223 l -3.13917,10.6071 -3.23709,20.565 -1.33291,29.89541 1.71375,31.03792 8.94958,90.44791 7.23583,59.79083 2.09459,11.425 18.85124,-0.38084 0.76167,-122.24749 -1.90417,-91.59041 -0.19041,-11.61541 h 11.99625 l 0.38083,138.4329 -0.57125,87.9725 20.565,-1.33292 5.14125,-46.46166 7.80708,-78.26125 4.57,-53.88791 V 264.07377 L 189.8454,235.8921 185.3,219.2 179,204.2 Z"
   id="path855"
   inkscape:connector-curvature="0" /></svg>