<?xml version="1.0" encoding="utf-8"?>
<!-- Generator: Adobe Illustrator 23.0.1, SVG Export Plug-In . SVG Version: 6.00 Build 0)  -->
<svg version="1.1" id="Layer_1" xmlns="http://www.w3.org/2000/svg" xmlns:xlink="http://www.w3.org/1999/xlink" x="0px" y="0px"
	 viewBox="0 0 288 560" style="enable-background:new 0 0 288 560;" xml:space="preserve">
<style type="text/css">
	.st0{fill:#FDE8B9;}
</style>
<path class="st0" d="M137.12,306.5c-4.04,2.09-8.67,0.31-12.81,1.96c-1.33,0.53-2.82,0.67-4.23,1c0.48-3.36-2.26-6.71-0.04-10.33
	c2.08,0.78,2.79,4.31,5.63,2.96c3.06-1.45,2.47-4.38,2.5-7c0.14-11.09-0.74-22.23,1.88-33.18c1.43-5.97,5.12-9.02,11.19-9.41
	c0.17-0.01,0.33,0,0.5-0.01c12.48-1.06,20.61,1.65,20.39,19.49c-0.1,8.14-0.02,16.29,0.01,24.44c0.01,2.41,0.42,4.79,2.95,5.81
	c2.72,1.11,3.63-1.53,5.5-3.36c0.83,3.58,1.06,6.64-0.54,9.68c-4.52,0.53-8.87-1.17-13.36-1.07c-2.67,0.06-3.35-1.89-3.49-3.98
	c-0.18-2.65-0.07-5.32-0.08-7.99c1.47-5.54,3.31-10.95,2.76-16.89c-0.29-3.09-0.99-5.45-3.85-6.94c-2.7-1.4-4.53-3.79-6.61-6.64
	c-2.55,3.5-5.31,6.29-8.73,8.37c-1.92,1.16-2.29,3.2-2.18,5.26c0.21,3.99,0.35,8.09,1.82,11.77
	C138.48,295.81,137.65,301.11,137.12,306.5z"/>
</svg>
