<?xml version="1.0" encoding="UTF-8" standalone="no"?>
<!-- Generator: Adobe Illustrator 23.0.1, SVG Export Plug-In . SVG Version: 6.00 Build 0)  -->

<svg
   xmlns:dc="http://purl.org/dc/elements/1.1/"
   xmlns:cc="http://creativecommons.org/ns#"
   xmlns:rdf="http://www.w3.org/1999/02/22-rdf-syntax-ns#"
   xmlns:svg="http://www.w3.org/2000/svg"
   xmlns="http://www.w3.org/2000/svg"
   xmlns:sodipodi="http://sodipodi.sourceforge.net/DTD/sodipodi-0.dtd"
   xmlns:inkscape="http://www.inkscape.org/namespaces/inkscape"
   version="1.1"
   id="Layer_1"
   x="0px"
   y="0px"
   viewBox="0 0 300 500"
   style="enable-background:new 0 0 300 500;"
   xml:space="preserve"
   sodipodi:docname="female_hourglass_athletic.svg"
   inkscape:version="0.92.3 (2405546, 2018-03-11)"><metadata
   id="metadata851"><rdf:RDF><cc:Work
       rdf:about=""><dc:format>image/svg+xml</dc:format><dc:type
         rdf:resource="http://purl.org/dc/dcmitype/StillImage" /><dc:title></dc:title></cc:Work></rdf:RDF></metadata><defs
   id="defs849" /><sodipodi:namedview
   pagecolor="#ffffff"
   bordercolor="#666666"
   borderopacity="1"
   objecttolerance="10"
   gridtolerance="10"
   guidetolerance="10"
   inkscape:pageopacity="0"
   inkscape:pageshadow="2"
   inkscape:window-width="1920"
   inkscape:window-height="1001"
   id="namedview847"
   showgrid="false"
   inkscape:zoom="9.12"
   inkscape:cx="127.76397"
   inkscape:cy="422.44524"
   inkscape:window-x="-9"
   inkscape:window-y="-9"
   inkscape:window-maximized="1"
   inkscape:current-layer="Layer_1" />
<style
   type="text/css"
   id="style834">
	.st0{fill:#EE537B;}
	.st1{fill:#C68642;}
	.st2{opacity:0.14;fill:#422200;enable-background:new    ;}
</style>


<path
   style="fill:#000000;stroke:#000000;stroke-width:1px;stroke-linecap:butt;stroke-linejoin:miter;stroke-opacity:1"
   d="m 105,208.6 76.8,-13.8 10.8,15.6 3.38712,6.64553 1.55299,36.65053 -43.79427,4.65896 L 153,240.9 l -9.3,0.4 0.10672,19.22921 -43.48368,2.48478 0.3106,-27.64319 z"
   id="path855"
   inkscape:connector-curvature="0" /><path
   style="fill:#ffffff;stroke:#000000;stroke-width:1px;stroke-linecap:butt;stroke-linejoin:miter;stroke-opacity:1"
   d="m 126.97368,86.732456 11.29386,11.29386 27.63158,-0.109649 6.25,-11.074562 5.48246,1.644737 8.11403,1.096491 0.10965,50.767547 L 182,148.3 l -2.61404,3.01579 -5.5921,3.39912 L 170,155.6 l -2.34649,5.91316 -1.20614,7.34649 1.75438,8.44298 5.26316,7.56579 4.93421,4.82456 3.40088,5.10702 -76.9,13.7 10,-13.7 2.97281,-4.22982 5.15351,-5.15351 5.92105,-7.78509 1.75438,-9.10088 -1.09649,-7.78509 L 128,155.8 120.06579,153.07018 115.35088,149.67105 114.8,147.8 l -2.40965,-9.09386 2.63158,-50.657894 9.21053,-1.206141 z"
   id="path859"
   inkscape:connector-curvature="0" /><path
   style="fill:#000000;stroke:#000000;stroke-width:1px;stroke-linecap:butt;stroke-linejoin:miter;stroke-opacity:1"
   d="m 104.9,208.5 -3.14561,9.15351 -1.864039,6.4693 0.743289,11.24799 L 105,208.6 Z"
   id="path861"
   inkscape:connector-curvature="0" /></svg>