<?xml version="1.0" encoding="utf-8"?>
<!-- Generator: Adobe Illustrator 23.0.1, SVG Export Plug-In . SVG Version: 6.00 Build 0)  -->
<svg version="1.1" id="Layer_1" xmlns="http://www.w3.org/2000/svg" xmlns:xlink="http://www.w3.org/1999/xlink" x="0px" y="0px"
	 viewBox="0 0 300 500" style="enable-background:new 0 0 300 500;" xml:space="preserve">
<style type="text/css">
	.st0{fill:#FF5555;}
	.st1{fill:#FF8080;}
</style>
<path class="st0" d="M472.2,108.1"/>
<path class="st0" d="M96,225.3"/>
<path class="st0" d="M232.7,211.6"/>
<g>
	<path id="path129" class="st0" d="M111.6,216.1l-0.7,2.6c-2.6,9.4-3.5,21.7-3.5,46.5c0,4.8,0.1,5.8,0.2,13.4
		c0.1,21.5-0.7,37.2-0.9,41.7c-0.8,19.5,2.2,26.4,5,45.8c0.5,3.2,1.1,6.9,3.1,33c3.5,47,4,66.6,11.9,68.7c3.7,1,11.1-1.4,17.6-1
		c2,0.1,4,0.1,6,0.2c2.2,0.1,3.4,0.1,3.4-0.1c0-0.1,0.1-0.1,0.2,0.1c0.2,0.3,1.3,0.5,5.3,0.7c2.8,0.2,7,0.3,9.3,0.3l4.2,0l0.2-1
		c6.1-33.3,10.5-62.1,13.6-85.3c3.9-28.3,6.2-50.5,5.3-69.4c-0.1-2.5-0.6-10-0.7-20.4c-0.2-12,0.3-22.8,0.3-29.7
		c0-26,0-26.6-0.5-32.9l-0.6-6.4l-1.4-3.5l-1.4-3.5h-38L111.6,216.1z"/>
	<path id="path131" class="st0" d="M133.7,118.8c-4.1,1.1-9,3.2-9.8,1.9c-0.4-0.7,0.5-1.7,0.3-1.9c-0.7-0.5-13.2,7.9-15.5,21
		c-0.8,4.9-0.1,9.9,0.2,12c0.6,4.4,1.5,5.4,2.5,11.1c0.1,0.6,0.9,5.5,1.3,11.3c0.3,5.7-0.3,7.2-0.7,15.3c-0.6,12,0.5,13.3-0.4,22.4
		c-0.5,5.6-1.1,6.6-2.1,13.1c-1.6,10-1.9,18-2,34c-0.1,14.7,0,23.1,0.7,33.2c0.7,10.4,2.7,36.8,2.8,37.1c0.1,0.5,77.6,0.5,77.6,0
		c0-0.2,0.1-1.4,0.2-2.7c0.3-3.7,2.1-27.6,2.4-32.9c0.2-3.1,0.3-14.1,0.3-32l0-27.2l-0.6-6l-0.6-6c0-1.2,0-2.4,0-3.5
		c0-1.3,0.1-3.3,0-5.7c-0.2-5.6-0.8-9.5-1.2-12c-0.7-5.3-0.7-10.7-0.7-21.4c0-6.8,0.1-10.3,0.6-13.8c0.9-5.5,2.5-9.9,3.7-12.8
		c0.5-2,1.7-7.7-1-14c-1.6-3.8-4-6.3-5.5-7.7c-1.5-4-3-8.1-4.4-12.1c-3.5,0.1-7,0.2-10.4,0.4c-1.7,0.1-6.5,0-15.3-0.4
		C138.6,118.6,138.3,117.6,133.7,118.8z"/>
	<path id="path4641" class="st1" d="M153.1,121.9c-6.7-0.1-16.5-0.3-21.8-0.5l-9.6-0.2l0-1.6c0-1.6,1.4-19.6,2-25.1
		c0.2-1.5,0.3-2.9,0.3-3c0-0.5,4-0.2,7.2,0.5c1.8,0.4,7.9,2.2,13.5,3.9c5.6,1.7,10.5,3,10.9,2.9c0.4-0.1,4.9-2,10-4.3
		c5.1-2.3,9.5-4.2,9.8-4.2c0.3,0,1.6,0.7,2.8,1.5l2.3,1.5l0.2,2.9c0.1,1.6,0.3,8.1,0.4,14.5l0.2,11.6l-8-0.1
		C168.9,122.2,159.8,122,153.1,121.9L153.1,121.9z"/>
</g>
<path d="M128.7,146.5"/>
<path class="st0" d="M229.3,166.6"/>
</svg>
