<?xml version="1.0" encoding="utf-8"?>
<!-- Generator: Adobe Illustrator 23.0.1, SVG Export Plug-In . SVG Version: 6.00 Build 0)  -->
<svg version="1.1" id="Layer_1" xmlns="http://www.w3.org/2000/svg" xmlns:xlink="http://www.w3.org/1999/xlink" x="0px" y="0px"
	 viewBox="0 0 300 500" style="enable-background:new 0 0 300 500;" xml:space="preserve">
<style type="text/css">
	.st0{opacity:0.14;fill:#422200;enable-background:new    ;}
	.st1{fill:#EE537B;}
	.st2{fill:#C68642;}
</style>
<path class="st0" d="M132.93,121.21c4.4,5.3,9.9,8.1,16.6,8.1c6.9,0,12.5-2.6,17.1-7.8c-0.1-0.5-0.3-1-0.4-1.4
	c-0.1-0.6-0.2-1.4-0.3-2.1l-32-0.2C133.63,119.01,133.23,120.21,132.93,121.21z"/>
<g>
	<path id="path3778" class="st1" d="M111.85,127.63c-3.2,0-6.5,0.6-9.9,2c-2.6,0.6-5.3,0.9-6.1,3.7c-1.2,7.9,2.2,14.4,8.3,19.9
		c9.7,4.8,19,5.2,27.5-2c2.6-2,5.5-1.5,8.3-2l0.2,0.2c6.9,0.9,13.8,0.9,20.7,0c2.8,0.4,6.1,0,8.5,2c8.5,7.2,17.8,6.8,27.5,1.8
		c5.5-5.2,9.5-10.7,8.3-18.2c-1.6-2.2-2.6-4.8-6.1-5.3c-8.5-3.3-16.6-2-24.3,1.7c-5.7,2.8-11.1,5.9-16.6,8.8c-4.5,0-8.9,0-13.4,0.2
		c-0.2,0-0.2,0-0.4,0l0.2-0.2c-4.5-1.7-8.9-3.9-13.2-6.3C125.15,130.43,118.65,127.63,111.85,127.63L111.85,127.63z M203.55,191.53
		c-0.8,0-2,0.6-3.6,1.8c-3.2,2.9-7.3,5.3-11.5,7.2c-29.8,12.5-58.3,11.6-85.5-6.1c-3.6-2.4-6.9-5.5-8.7,1.3c0,3.5,0,7.2,0.2,10.9
		c14.2,14.7,32.4,23.8,52.4,30h7.7c19.8-6.8,38.5-15.1,52.4-30v-10.9C205.95,193.93,205.35,191.53,203.55,191.53z"/>
	<path id="path3770" class="st2" d="M135.13,66.63c-0.2,0.7-0.6,1.3-0.8,2c-0.2,0.4-0.6,1.5-1.8,4.4c-2,5.3-1.8,5.3-2.2,6.3
		c-0.8,1.8-2.6,4.2-6.5,6.6c-17-0.9-22.3,10.7-26.9,21.9c-17.8,43.6-37.3,86.7-52.4,131.1c-3.6,10.7-1.4,19.2,7.9,26.3
		c2.4,1.7,4.5,4.2,7.9,2.2c3.8-2.4,1.4-4.6-0.2-7c-3.2-4.6-1.6-8.8,1.2-12.9c1.2-1.7,2.2-3.1,4.5-0.7c1.8,1.8,4.1,4.2,6.7,1.8
		c2.6-2.4,1-5.5-0.8-7.6c-4.7-5.2-3.2-9.6-0.6-15.1c8.7-18.8,16.6-37.9,24.9-57.1c1.4-0.7,2.4-1.5,3-2.6c-0.4,2-1,4.1-0.8,6.3
		c-1,8.1-4.5,15.7-3.8,23.9c4.9-1.1,8.1,1.5,11.9,3.5c30.4,16.4,60.6,15.8,90.5-0.9c3.2-1.8,6.3-3.3,10.1-2.8
		c0.6-8.8-3.4-17.1-3.8-25.8c0-0.4,0-0.9,0-1.3c0.4,0.6,1,0.9,1.6,1.5c7.1,15.8,14.2,31.9,21.3,47.7c3.4,8.3,10.5,16.2,1.6,25.2
		c-1.4,1.5-1.6,4.2,0.8,5.7c2,1.1,4.1,0.2,5.3-1.5c3.2-4.1,4.3-1.3,6.1,1.3c3.2,4.4,3,8.5-0.2,12.7c-1.2,1.7-2.4,4.1,0.2,5.7
		c2.4,1.7,4.5,0.4,6.5-0.9c10.1-6.6,13.4-15.3,9.7-26.7c-5.9-18.6-13.2-36.7-20.7-54.7c-11.9-28.5-22.7-57.6-36.2-85.6
		c-4.5-9.2-11.9-13.6-22.9-13.4c-3.4-1.8-5.1-3.9-5.9-5.3c-0.6-1.5-0.6-2.2-2-6.8c-0.6-2.4-0.8-2.6-1.4-4.4c-0.2-0.9-0.6-2-1-3.3
		c11.1-10.5-20.9-43.1-32.4-43.7C132.93,22.73,124.96,56.66,135.13,66.63z M192.23,130.83c1.8,0,3.8,0.4,5.9,0.7
		c0.6-0.2,1.2-0.4,1.6-0.7c0.6,0.6,1,0.9,1.6,1.5c0.2,0.9,0.6,2,0.6,3.1c1.4,6.8-2.8,11.6-6.1,16.9c-0.2,0.6-0.2,1.1,0,1.7
		c-10.5,1.5-20.3,0.2-29.6-5.3c-1.8-1.1-4.5-0.9-6.9-0.9h-18c-12.6,1.7-23.7,9.9-37.3,6.1c0,0,0,0-0.2,0c0-0.2,0-0.2,0.2-0.4
		c-2.6-6.3-7.5-12-6.3-19.2c0-0.6,0.2-1.1,0.2-1.8c0.8-0.6,1.6-0.9,2.4-1.5c0.4,0.2,1,0.6,1.8,0.7c10.9-1.8,20.7,1.1,29.6,6.4
		c4.1,2.4,8.5,3.9,13,5c4.1,0.7,8.3,0.7,12.6-0.2C168.93,138.43,179.33,130.53,192.23,130.83L192.23,130.83z M205.23,207.33
		c-3,0.2-5.3,2.4-7.1,4.2c-7.1,7.4-16.4,11.4-25.3,16c-6.3,3.3-14.2,3.9-18.8,9.8c0.2,74.2,0.4,148.4,0.4,222.7
		c0,18.2,0.4,18.4,20.3,16.6c2-0.2,4.7,0.4,5.1-2c0.4-1.3-0.4-3.5-1.6-4.1c-7.9-4.4-4.9-10.1-3.2-16.2c5.7-21.5,12.4-43.1,16.2-65.2
		c4.7-27.3,7.9-54.5,10.5-82c3.2-33.2,6.5-66.5,5.1-99.8C206.23,207.33,205.63,207.33,205.23,207.33L205.23,207.33z M95.03,207.63
		c-0.4,0-0.6,0-1,0c-1.4,18.6,0.4,37.4,1.2,56c1,26,4.1,51.9,6.9,77.7c4.3,40,13,79.2,24.5,117.9c1.2,4.2,1.4,7.6-2.6,10.7
		c-1.6,1.3-4.3,2.8-3.2,5.2c1.2,2.9,4.7,1.5,7.1,1.7c2,0.2,4.1-0.2,6.1-0.2l0.2-0.2h4.1h2c1.8,0,3,0,3.8-1.5c0,0,0,0.2,0.2,0.2
		c3-2.9,1.8-6.4,1.8-9.8v-47.7c0.2-60,0.2-119.9,0.4-179.9c-1.2-2.6-3.6-3.5-6.1-4.4c-15.2-5.2-28.6-12.7-40.1-23.2
		C98.93,208.73,97.23,207.63,95.03,207.63z M134.13,469.73v0.4C133.53,470.54,133.73,469.93,134.13,469.73z"/>
</g>
<g>
	<path class="st2" d="M173.7,46.4c-3.8,19.1-11.1,29.3-24.5,29.3s-20.9-11.9-23.6-31.3c-2.7-19.2,10.9-35.1,24.3-35.1
		S177.2,29.2,173.7,46.4z"/>
	<path class="st0" d="M137.59,73.1c-0.28,0.7,0,1.4,0.47,1.9c3.2,2.9,22.01,4.4,11.57,4.4c5.17,0,9.41-1.7,12.79-5
		c-0.09-0.3-0.19-0.7-0.28-0.9l0,0c-0.19-0.8-0.85-1.3-1.6-1.3L139.19,72C138.44,71.9,137.88,72.4,137.59,73.1L137.59,73.1z"/>
</g>
</svg>
