<?xml version="1.0" encoding="utf-8"?>
<!-- Generator: Adobe Illustrator 23.0.1, SVG Export Plug-In . SVG Version: 6.00 Build 0)  -->
<svg version="1.1"
	 id="Layer_1" xmlns:cc="http://creativecommons.org/ns#" xmlns:dc="http://purl.org/dc/elements/1.1/" xmlns:rdf="http://www.w3.org/1999/02/22-rdf-syntax-ns#" xmlns:svg="http://www.w3.org/2000/svg"
	 xmlns="http://www.w3.org/2000/svg" xmlns:xlink="http://www.w3.org/1999/xlink" x="0px" y="0px" viewBox="0 0 300 500"
	 style="enable-background:new 0 0 300 500;" xml:space="preserve">
<style type="text/css">
	.st0{fill:#EE537A;}
	.st1{fill:none;stroke:#000000;}
	.st2{fill:#FF5555;}
	.st3{fill:#FF8080;}
</style>
<path id="path832" class="st0" d="M184.5,138.1c-2.1,0.1-4.3,0.6-6.4,0.9c-6.3,1.7-12.6,3.3-16.9,9.1l0,0c-2.3,0.2-4.5,0.2-6.9,0.2
	l-0.1,0.1c-4.6-5.2-10.6-7.7-17-9.2c-4.3-0.9-8.6-1.9-12.8,0.2c-1.1,6.3,1.1,11.7,5.4,16.4c3.5,1.9,6.7,4.6,11,4.1
	c3.2-2,6.5-3.9,9.7-5.9h12.8c3.9,1.9,7.6,3.9,11.3,5.8c3.7-1.3,7.4-2.6,11-3.9c4.1-4.6,6.5-10,5.4-16.4
	C188.8,138.3,186.6,138,184.5,138.1L184.5,138.1z M116.7,200.4c-1.3,3.2-2.6,6.3-3.9,9.7c-1.1,6.5,4.1,9.3,8,12.3
	c13.2,9.9,24.9,23.4,44.1,21c5.4-3.5,11-6.9,16.2-10.8c8.2-6,17.7-10.6,21.8-20.8c-1.5-3.7-2.8-7.4-4.3-11.2
	c-3.2-0.2-4.8,2.4-7.3,3.7c-16.5,9.3-33.3,15.8-52.6,7.4C131,208.4,124.5,203.2,116.7,200.4z"/>
<path id="path4642" d="M124.9,139.1c-0.1,0-0.2,0-0.3,0c-0.3,0.1-0.6,0.3-0.9,0.6c-0.7,4.5-0.5,9,1.6,13.2c3,5,8.1,6.5,13.2,8
	c6.6-0.3,11-4.6,15.6-8.5c3.2,0.1,6.3,0.1,9.5,0.2c5.1,3.7,10,8.1,16.9,8c4.8-1.2,9.2-3.1,11.9-7.6l3.3-9.4c-1.4-1.3,0-5-3.7-4.3
	c-10.6-1-20,1.7-28.4,8.2c-3.2-1-6.3-0.9-9.5,0.1c-8.1-7.5-17.9-9.2-28.4-8.3C125.4,139.2,125.2,139.1,124.9,139.1L124.9,139.1z
	 M125.5,199.9c-3.3,4.5-6.6,9.1-10,13.7c7.7,17.1,23.1,24.9,38.7,32.6c3.1-0.1,6.3-0.1,9.4-0.2c16.5-5.9,29.2-16.7,39.6-30.5
	c-2.3-6-6.7-10.7-10.8-15.6c-7.1,4.6-14.1,9.5-21.4,13.8c-7.6,4.6-14.9,4.7-23.2,0.2C139.9,209.7,133.3,204,125.5,199.9z"/>
<path id="path54" class="st1" d="M129.3,118.2l-4.3,22.5l0.4,12.2l2.5,3.8l6.2,3.4l4.5,0.8l2.3,7.7l0.3,7.3l-1.7,5.9
	c0,0-2.3,5.6-3.4,5.9c-1.1,0.3-6.8,7.3-6.8,7.3l-3.9,5l-9.8,13.6l-2.6,8.4l-1.4,9.6l-0.8,11l-0.3,10.7v20.3l0.8,16.1l2,22.5
	l4.2,47.3l3.1,27.6l3.9,28.5l4.2,26.8l3.9,22.5l53.5,2.5l11.8-81.4l5.6-53.5l3.4-40.8l0.6-51.3l-1.7-18.9l-5.1-11.3l-8.5-10.4
	l-8.2-9.9l-5.9-7.3l-2-9l4.2-13l5.6-1.6l6.4-5.6l1.2-11.8l-7.6-22.6L129.3,118.2z"/>
<path id="path56" class="st1" d="M129.3,118.2l2.5-26.5h5.9l23.7,6.5l18.6-7.6l5.6,3.4l0.6,25.1"/>
<path id="path60" class="st2" d="M166.4,118.1c-2.6,0-11.9-0.2-20.5-0.3s-15.8-0.3-15.8-0.4c-0.1-0.1,2.2-24.5,2.3-25
	c0,0,1.3-0.1,2.8-0.1c2.7,0,3.2,0.1,14.5,3.2l11.7,3.2l9.3-3.8l9.3-3.8l2.5,1.5l2.5,1.5l0.2,7.4c0.1,4.1,0.2,9.5,0.3,12l0.1,4.6
	l-7.2-0.1C174.4,118.2,169,118.2,166.4,118.1L166.4,118.1z"/>
<path id="path62" class="st2" d="M155.8,149.6c-0.5-0.1-2.7-1.1-4.8-2.1c-5.5-2.7-8.8-3.7-19.3-5.8c-3.1-0.6-5.6-1.1-5.6-1.1
	c0,0,0-0.5,0.2-1.1c0.1-0.6,0.1-1.1,0-1.1c-0.1,0,0.6-4.4,1.7-9.7l1.9-9.7l5.5,0c9.5,0,50.4,0.7,50.5,0.8c0.1,0.1,1.6,4.5,3.4,9.9
	c2.8,8.3,3.2,9.9,2.9,10.4c-0.3,0.6-0.7,0.7-3.7,1.3c-8.4,1.6-16.2,4-21.8,6.7l-3.2,1.6l-3.2,0.1
	C158.2,149.8,156.3,149.7,155.8,149.6L155.8,149.6z M176.2,129c-0.1-0.2-0.5-0.3-0.9-0.3l-0.8,0l0.7,0.2
	C176.2,129.3,176.4,129.3,176.2,129L176.2,129z"/>
<path id="path64" class="st2" d="M154.6,218.7c-6.4-1.2-13-4.5-19.7-10c-3.8-3-8.9-7.9-8.8-8.4c0.5-1.3,8.4-10.5,10.5-12.4
	c1.3-1.1,2.9-4.5,4.2-8.6l1-3.5l-0.2-3.8c-0.2-3.3-0.4-4.3-1.3-7.7l-1.1-3.9l0.8-0.7c2.7-2.3,9.3-6.2,13.5-8.2
	c1.6-0.7,1.9-0.8,5.4-0.8l3.7,0l3.9,1.8c4.5,2,8.7,4.3,11.6,6.3c1.9,1.3,2,1.4,1.8,2.1c-0.1,0.4-1.1,3.3-2.1,6.4
	c-1,3.1-1.8,5.9-1.8,6.2c0,1.1,1.9,9.1,2.3,9.7c0.2,0.4,3.4,4.3,7.1,8.8l6.7,8.1l-2,2.3c-3.3,3.7-8.3,8-12.3,10.7
	c-2.8,1.9-7.9,4.2-10.9,5C163.1,219.1,157.9,219.4,154.6,218.7L154.6,218.7z"/>
<path id="path66" class="st2" d="M136,159.9c-1.3-0.3-2.9-0.9-4.8-2c-2.7-1.5-3-1.7-4.1-3.4l-1.2-1.9l0.3-1.6c0.4-2.1,0.4-4-0.1-6.4
	c-0.2-1.1-0.4-2.7-0.4-3.5s0.1-1.3,0.2-1c0.1,0.5,0.7,0.7,5,1.5c10.5,2,16.1,3.8,21.3,6.5c2.2,1.2,3,1.5,4.9,1.7
	c3.1,0.4,6.2,0,8.4-1.1c5.6-2.8,13.7-5.4,22.4-7.1c1.7-0.3,3.4-0.7,3.7-0.7c0.4-0.1,0.6-0.3,0.6-0.6c0-0.4,0.1-0.4,0.4,0.1
	c0.4,0.5,0.4,1.1,0.3,3.5c-0.1,1.6-0.3,3.2-0.5,3.7c-0.5,1.3-0.8,3.2-0.5,4.1c0.1,0.5,0.2,1,0.1,1.2s-1.5,1.5-3.1,3
	c-3,2.6-3.1,2.7-5.7,3.4c-1.5,0.4-2.8,0.8-3,0.8c-0.2,0-1.1-0.5-2-1.1c-4.9-3.4-14-7.7-17.3-8.2c-3.7-0.5-5.9,0-10.4,2.3
	c-3.9,2.1-9.6,5.7-10.6,6.7C139.3,160.4,138.7,160.4,136,159.9L136,159.9z"/>
<path id="path68" class="st2" d="M192.1,200.6l-4.4,4.3c-8.3,8.2-14.9,12.2-22.7,13.9c-2.7,0.6-8.4,0.6-11.2,0
	c-8-1.7-16.7-7-25-15.2l-3-2.9l-4.9,6.8l-4.9,6.8l7.6,7.8c9.8,10.1,14.2,13.7,20,16.4c1.2,0.6,3.3,1.5,4.5,2.1
	c2.4,1.1,5.2,3.5,5.8,4.9l0.3,0.8l4.7-0.1c3.9-0.1,4.8-0.2,5-0.6c0.9-1.4,2.1-2.3,5.6-4.1c11.5-6,21.5-14.1,27.8-22.3
	c1.6-2.1,2.4-2.8,3.9-3.2c0.6-0.2,1.1-0.4,1.1-0.5s-0.5-1.2-1.1-2.5c-0.8-1.7-2.1-3.5-5.1-7.2L192.1,200.6z"/>
<path id="path70" class="st2" d="M116,214.6c-0.6,0.7-2.5,8.1-3.2,12.3c-1.3,8.6-1.6,14.1-1.8,30.7c-0.2,21.7-0.3,20.9,4.6,75.2
	c2.4,27.4,2.6,29.6,2.8,30.5l0.1,0.6h17.7h17.7l0-58.9c0-57.5,0-59-0.5-59.8c-1.2-2-2.9-3.2-8.3-5.9c-8.5-4.2-11.9-7-22.4-18
	C119.2,217.5,116.1,214.5,116,214.6L116,214.6z"/>
<path id="path72" class="st2" d="M164,304.6v-59.3l1.1-1c0.6-0.6,2.4-1.7,4-2.5c6.4-3.3,12.8-7.5,17.6-11.6
	c3.1-2.6,8.1-7.7,10.4-10.7c2.1-2.7,3.4-3.7,4.6-3.7c0.8,0,0.9,0.2,2.1,2.7l1.3,2.7l0.9,9.6l0.9,9.6l-0.2,24.9l-0.2,24.9l-1.7,20.6
	c-0.9,11.3-2.4,27.8-3.4,36.6c-0.9,8.8-1.7,16.2-1.7,16.3c0,0.1-8,0.2-17.9,0.2H164V304.6z"/>
<path id="path74" class="st2" d="M172.9,466.3l-8.9-0.4v-50.9V364h17.9h17.9l-0.1,0.9c-0.1,0.5-0.6,5.4-1.2,10.8
	c-0.7,6.8-2.8,21.9-6.6,48.6c-5,34.7-5.9,40.3-6.4,42C185.3,466.9,185.6,466.9,172.9,466.3L172.9,466.3z"/>
<path id="path76" class="st2" d="M142.9,464.8c-5.3-0.3-9.5-0.6-9.6-0.7c-0.7-0.7-7-39.8-10.2-62.7c-1.6-11.2-4.5-35.6-4.5-37.2
	c0-0.2,5.4-0.3,17.7-0.3h17.7l0,35.3c0,19.4,0.1,42.2,0.2,50.7l0.2,15.4l-1.1,0C152.8,465.3,148.1,465.1,142.9,464.8L142.9,464.8z"
	/>
<path id="path78" class="st2" d="M156.5,465.4l-1.7-0.1l-0.2-4.4c-0.1-2.4-0.2-51.7-0.2-109.6l0-105.1h4.6h4.6v109.7v109.7l-2.7-0.1
	C159.4,465.6,157.4,465.5,156.5,465.4L156.5,465.4z"/>
<path id="path80" class="st2" d="M131.6,119c-1.1,0-1.7,0-1.7,0.1c-0.2,0.3-3.4,17.1-3.5,18.8c-0.1,0.6-0.1,1.5-0.1,1.9
	c0,0.5-0.2,0.7-0.3,0.6c-0.4-0.3-0.4,1,0.2,4.4c0.4,2.6,0.4,3.4,0.1,5.4l-0.3,2.4l1.1,1.7c1.3,2,1.9,2.4,5.3,4.1
	c3,1.5,6.2,2.2,7.1,1.5c2.1-1.5,3.1-2.2,3.1-2.1c0,0.1-0.5,0.5-1.2,1c-2.5,1.8-2.3,1.2-1.2,5.1c1.1,3.8,1.5,6.7,1.5,10.3
	c0,1.9-0.2,2.9-1.1,5.6c-1.6,4.9-2.5,6.5-5.4,9.5c-2.9,3.1-8.4,9.5-8.8,10.5c-0.3,0.6-0.1,0.9,2.4,3.4l2.7,2.7l-2.8-2.7l-2.8-2.7
	l-4.9,6.8l-4.9,6.8l6.1,6.3c3.4,3.5,7.6,7.7,9.4,9.3c1.8,1.6,3.6,3.3,4.1,3.7c0.5,0.4,0,0.1-1-0.6c-1-0.7-5.6-5.2-10.2-9.8l-8.4-8.4
	l-0.4,1c-0.2,0.6-0.9,2.8-1.4,4.9c-2,8.2-2.6,14.7-3,32.4c-0.4,17.6-0.2,25.4,1.2,41.7c1.2,14.7,5.8,66.6,6.1,68.2l0.2,1.1h17.7
	h17.7l-0.1-58.8c-0.1-66.2,0.1-59.8-2.4-62c-0.8-0.6-2.7-1.9-4.4-2.7s-3-1.6-3-1.7s1.4,0.6,3.1,1.4c3.4,1.7,5.6,3.6,6.5,5.2
	c0.5,1.1,0.5,2.1,0.5,59.8V364h4.6h4.6v-58.9c0-52.1,0-58.9-0.4-58.9c-0.6,0-0.5-0.5,0.1-0.6c0.6-0.1,0.6,0,0.6,59.2V364l17.7-0.1
	c9.7-0.1,17.8-0.2,17.9-0.2c0.4-0.4,3.7-35.1,5.7-59.2l1.3-15.4l0.2-24.8l0.2-24.8l-0.9-9.2l-0.9-9.2l-1.3-2.5
	c-0.8-1.6-1.5-2.6-1.8-2.7c-0.5-0.1-0.5-0.2-0.1-0.5c0.8-0.6-1.4-4.5-5.9-10l-3.9-4.9l-2.4,2.4l-2.4,2.4l2.2-2.3
	c1.2-1.3,2.2-2.4,2.2-2.6c0-0.2-1.5-2.1-3.3-4.3c-1.8-2.2-4.9-6-6.9-8.4l-3.5-4.4l-1-4.2c-0.6-2.3-1-4.6-1-5c0-0.4,0.9-3.6,2-7.1
	l2-6.3l-0.9-0.8c-0.5-0.4-2-1.4-3.4-2.3c-1.4-0.8-2.5-1.5-2.5-1.6c0-0.2,1.9,0.9,4.4,2.5l2.6,1.7l2.3-0.6c3.1-0.8,3.6-1.2,6.8-3.9
	l2.7-2.4l0-1.9c0-1,0.2-2.5,0.4-3.4c0.7-2.6,0.9-6.3,0.3-7.4c-0.2-0.5-0.9-2.4-1.4-4.2c-0.5-1.8-2-6.2-3.2-9.9l-2.2-6.6l-6.2-0.2
	C169.1,119.4,139,119,131.6,119L131.6,119z M175.3,128.8c0.4,0,0.8,0.1,0.9,0.3c0.2,0.3-0.3,0.3-1.1,0
	C174.6,128.8,174.6,128.8,175.3,128.8L175.3,128.8z M192.1,140.2c0.1,0,0,0.2-0.4,0.5c-0.3,0.2-0.8,0.4-1.1,0.4
	c-0.4,0-0.3-0.1,0.4-0.5C191.6,140.3,192,140.2,192.1,140.2z M128.2,140.9c0.1,0,0.2,0,0.2,0.1c0.1,0.1-0.1,0.2-0.4,0.1
	c-0.3,0-0.4-0.1-0.2-0.2C128,140.9,128.1,140.9,128.2,140.9z M129.3,141.2c0.1,0,0.3,0,0.4,0.1c0.2,0.1,0,0.1-0.4,0.1
	c-0.4,0-0.5-0.1-0.4-0.1C129.1,141.2,129.2,141.2,129.3,141.2z M189.3,141.2c0.1,0,0.3,0,0.4,0.1c0.2,0.1,0,0.1-0.4,0.1
	c-0.4,0-0.5-0.1-0.4-0.1C189.1,141.2,189.2,141.2,189.3,141.2z M130.7,141.5c0.1,0,0.3,0,0.4,0.1c0.2,0.1,0,0.1-0.4,0.1
	c-0.4,0-0.5-0.1-0.4-0.1C130.5,141.5,130.6,141.5,130.7,141.5z M187.9,141.5c0.1,0,0.3,0,0.4,0.1c0.2,0.1,0,0.1-0.4,0.1
	c-0.4,0-0.5-0.1-0.4-0.1C187.7,141.5,187.8,141.5,187.9,141.5z M132.1,141.7c0.1,0,0.3,0,0.4,0.1c0.2,0.1,0,0.1-0.4,0.1
	c-0.4,0-0.5-0.1-0.4-0.1C131.9,141.8,132,141.7,132.1,141.7z M186.5,141.7c0.1,0,0.3,0,0.4,0.1c0.2,0.1,0,0.1-0.4,0.1
	c-0.4,0-0.5-0.1-0.4-0.1C186.2,141.8,186.4,141.7,186.5,141.7z M133.5,142c0.1,0,0.3,0,0.4,0.1c0.2,0.1,0,0.1-0.4,0.1
	c-0.4,0-0.5-0.1-0.4-0.1C133.3,142,133.4,142,133.5,142z M185.1,142c0.1,0,0.3,0,0.4,0.1c0.2,0.1,0,0.1-0.4,0.1s-0.5-0.1-0.4-0.1
	C184.8,142,185,142,185.1,142z M183.9,142.3c0.1,0,0.2,0,0.2,0.1c0.1,0.1-0.1,0.2-0.4,0.1c-0.3,0-0.4-0.1-0.2-0.2
	C183.7,142.3,183.8,142.3,183.9,142.3L183.9,142.3z M134.8,142.3c0.3,0,0.9,0.1,1.3,0.2c0.6,0.2,0.6,0.2,0.1,0.2
	c-0.3,0-0.9-0.1-1.3-0.2C134.4,142.4,134.4,142.3,134.8,142.3z M182.7,142.6c0.5,0,0.4,0.1-0.1,0.2c-1,0.3-1.7,0.3-1,0
	C181.9,142.7,182.4,142.6,182.7,142.6L182.7,142.6z M137.2,142.9c0.9-0.1,9.3,2.4,9.3,2.7c0,0.2-0.3,0.1-1.6-0.3
	c-0.6-0.2-2.7-0.8-4.6-1.4S137,142.9,137.2,142.9z M180.6,143.1c0.1,0,0.2,0,0.2,0.1c0.1,0.1-0.1,0.2-0.4,0.1
	c-0.3,0-0.4-0.1-0.2-0.2C180.4,143.2,180.5,143.1,180.6,143.1L180.6,143.1z M179.4,143.4c0.1,0,0.2,0,0.2,0.1
	c0.1,0.1-0.1,0.2-0.4,0.1c-0.3,0-0.4-0.1-0.2-0.2C179.2,143.4,179.3,143.4,179.4,143.4L179.4,143.4z M176.6,144.3
	c0.1,0,0.2,0,0.2,0.1c0.1,0.1-0.1,0.2-0.4,0.1c-0.3,0-0.4-0.1-0.2-0.2C176.4,144.3,176.5,144.3,176.6,144.3L176.6,144.3z
	 M146.9,145.7c0.2,0,0.5,0.1,0.7,0.3c0.2,0.2,0.3,0.3,0.1,0.3s-0.5-0.1-0.7-0.3C146.8,145.8,146.8,145.7,146.9,145.7z M171.4,145.9
	c0.2,0,0.1,0.1-0.1,0.3c-0.2,0.2-0.5,0.3-0.7,0.3s-0.1-0.1,0.1-0.3C171,146.1,171.3,145.9,171.4,145.9z M152.5,148.2
	c0.1,0,0.9,0.3,1.7,0.7c0.8,0.4,1.3,0.7,1.1,0.7C154.8,149.6,152.1,148.2,152.5,148.2z M161.4,149.6c0.6,0,0.9,0,0.9,0.1
	c-0.3,0.2-3.6,0.4-4.9,0.2c-1.1-0.2-0.7-0.2,1.8-0.2C160,149.6,160.8,149.6,161.4,149.6z M158.6,150.5c0.5,0,1,0,1.5,0.1
	c1.3,0.3,1.2,0.3-1.6,0.3c-3,0-3,0-1.5-0.3C157.6,150.5,158.1,150.5,158.6,150.5z M166.1,152.4c0.2,0,0.5,0.1,0.7,0.3
	c0.2,0.2,0.3,0.3,0.1,0.3s-0.5-0.1-0.7-0.3C166,152.5,165.9,152.4,166.1,152.4L166.1,152.4z M151.5,152.5
	C151.6,152.5,151.6,152.5,151.5,152.5c0.1,0.1-0.3,0.4-0.8,0.6c-0.5,0.2-0.8,0.4-0.8,0.3s0.4-0.3,0.8-0.6
	C151.1,152.6,151.4,152.5,151.5,152.5L151.5,152.5z M168,153.3c0.3,0,4.7,2.2,4.7,2.4c0,0.1,0,0.1-0.1,0.1
	C172.3,155.7,167.8,153.3,168,153.3L168,153.3z M149,153.9c0.1,0.1-0.6,0.5-1.8,1.2c-1,0.6-2.2,1.3-2.7,1.6s-0.9,0.5-0.9,0.5
	c0-0.2,3.1-2.1,4.4-2.8C148.7,154,149,153.8,149,153.9z M187.2,205.2l-0.8,0.9c-0.5,0.5-0.9,0.9-0.9,0.9c-0.2,0,0-0.2,0.8-1
	L187.2,205.2z M131.4,205.8l1.1,1c0.6,0.5,1.1,1,1.1,1.1c0,0.2-0.2,0-1.1-1L131.4,205.8z M183.9,208.2c0.1,0-0.1,0.3-0.4,0.6
	c-0.3,0.3-0.6,0.6-0.7,0.6s0.1-0.3,0.4-0.6C183.5,208.4,183.8,208.2,183.9,208.2z M134,208.2c-0.1-0.1,1.2,0.7,2.8,1.9
	c1.6,1.2,3.5,2.5,4.2,2.9s1.3,0.8,1.3,0.9c0,0.2-0.1,0.2-1.9-1C138.4,211.7,134.2,208.6,134,208.2L134,208.2z M182.2,209.6
	c0.1,0-0.1,0.3-0.4,0.6c-0.3,0.3-0.6,0.6-0.7,0.6s0.1-0.3,0.4-0.6C181.9,209.8,182.1,209.6,182.2,209.6z M180.9,210.7
	c0,0-0.1,0.1-0.2,0.4c-0.4,0.5-0.6,0.6-0.6,0.4c0-0.1,0.2-0.3,0.5-0.5C180.7,210.8,180.9,210.7,180.9,210.7z M179.7,211.6
	c0,0-0.1,0.1-0.2,0.4c-0.4,0.5-0.6,0.6-0.6,0.4c0-0.1,0.2-0.3,0.5-0.5C179.6,211.6,179.7,211.5,179.7,211.6z M142.6,214.2
	c0-0.1,4.5,2,4.8,2.3c0.1,0.1,0,0.1-0.1,0.1C146.8,216.6,142.6,214.4,142.6,214.2L142.6,214.2z M176.1,214.2c0,0.3-5.2,2.8-7.2,3.4
	c-2.9,1-2.9,0.8,0-0.3c1.4-0.5,3.6-1.5,4.9-2.1C175,214.6,176.1,214.2,176.1,214.2L176.1,214.2z M200.9,215.8c0.1,0,0.2,0,0.2,0.1
	c0.1,0.1,0,0.2-0.2,0.2c-0.2,0-1.5,1.1-2.8,2.5l-2.4,2.5l1.6-2C198.7,217.3,200.2,215.9,200.9,215.8L200.9,215.8z M147.7,216.7
	c0.1-0.1,1,0.2,2.2,0.6c1.1,0.4,2.9,0.9,3.8,1.1c1,0.2,1.4,0.4,0.9,0.4C153.4,218.8,147.4,217,147.7,216.7z M166.4,218.3l-0.8,0.3
	c-0.5,0.2-2.9,0.3-5.5,0.4l-4.6,0.1l4.5-0.2c2.5-0.1,5-0.3,5.5-0.4L166.4,218.3z M188.9,228.1c0,0,0,0.1-0.1,0.2
	c-1,1.1-5.4,4.6-8.4,6.7c-3,2.1-4.5,3-4.1,2.6c0.2-0.2,1.3-1,2.5-1.8c2.8-1.8,6.1-4.3,8.7-6.6C188.3,228.5,188.8,228.1,188.9,228.1z
	 M136.6,234.1c0,0,0.1,0.1,0.4,0.2c0.3,0.2,0.5,0.4,0.5,0.5c0,0.2-0.2,0.1-0.6-0.4C136.7,234.2,136.6,234.1,136.6,234.1z
	 M175.8,237.8C175.8,237.9,175.8,237.9,175.8,237.8c0,0.1-0.2,0.3-0.5,0.5c-0.3,0.2-0.6,0.2-0.6,0.2s0.3-0.3,0.6-0.4
	C175.5,237.9,175.7,237.8,175.8,237.8L175.8,237.8z M174.3,238.7C174.4,238.7,174.4,238.7,174.3,238.7c0,0.1-0.2,0.3-0.5,0.5
	c-0.3,0.2-0.6,0.2-0.6,0.2s0.3-0.3,0.6-0.4C174.1,238.8,174.3,238.7,174.3,238.7L174.3,238.7z M172.9,239.6
	C173,239.6,173,239.6,172.9,239.6c0.1,0.1-0.4,0.4-1,0.7c-0.6,0.3-1.1,0.5-1.1,0.4s0.5-0.4,1.1-0.7
	C172.3,239.8,172.7,239.6,172.9,239.6L172.9,239.6z M169.3,241.5c0.1,0-0.5,0.4-1.5,1c-0.8,0.5-2,1.3-2.5,1.8
	c-0.6,0.5-0.9,0.7-0.8,0.4c0.2-0.5,2.3-2,4-2.8C169,241.6,169.3,241.5,169.3,241.5L169.3,241.5z"/>
<path id="path82" class="st2" d="M131.7,119c-1.1,0-1.8,0-1.8,0.1c-0.1,0.1-0.4,1.4-0.7,2.8c-2.5,13.6-3,16.4-3,17.3
	c0,0.6-0.1,1.1-0.3,1.1c-0.4,0-0.4,1.4,0.2,4.8c0.4,2.4,0.4,3.3,0.1,5.2l-0.3,2.3l1.1,1.7c0.6,0.9,1.5,1.9,2,2.3
	c1.8,1.3,6,3.1,8.1,3.5c2,0.3,2.1,0.4,2.3,1.4c2.1,7.5,2.1,7.7,2.1,11.7c0,3.8,0,4.1-0.9,6.8c-1.6,5-2.6,6.5-5.9,10.1
	c-3.3,3.5-8.6,9.9-8.6,10.4c0,0.2,0.2,0.6,0.5,0.9c0.4,0.5,0.4,0.5-0.2,0l-0.7-0.6l-1.3,1.8c-0.7,1-2.9,4-4.9,6.8l-3.6,5l2.8,2.9
	l2.8,2.9l-2.7-2.7l-2.7-2.7l-0.4,1c-0.6,1.5-1.8,6-2.4,9.3c-1.4,7.2-1.9,15.3-2.2,33.1c-0.2,12.7,0.1,21.2,1,33.5
	c1,13.5,6.1,70.4,6.4,71.8c0.2,0.8,0.2,0.8,2.6,0.8l2.4,0.1l-2.5,0.1l-2.5,0.1l0.1,1.2c0.1,0.7,0.7,5.6,1.3,10.9
	c2,17.3,4.2,33,7.5,53.8c3.3,20.8,5.5,33.4,6,33.8c0.2,0.2,6.9,0.7,13.7,1c2,0.1,4.4,0.2,5.4,0.3l1.7,0.1l0-105.7l0-105.7l0.2,91.1
	c0.3,102.6,0.3,119.9,0.5,120.1c0.1,0.1,2.1,0.2,4.4,0.3l4.3,0.1l0.1-109.5l0.1-109.5l0.1,109.5l0.1,109.5l0.6,0.1
	c0.3,0.1,4.4,0.3,9.1,0.4c4.6,0.2,8.8,0.3,9.3,0.4c0.7,0.1,2.1-0.1,2.3-0.2c0.3-0.3,2.8-16.6,7.8-51.8c3.5-24.7,4.5-32.4,5.6-42.4
	c0.4-3.6,0.8-7,0.8-7.4c0.1-0.8,0.1-0.8-1.5-0.8l-1.6-0.1l1.6-0.1c0.9-0.1,1.6-0.2,1.6-0.3s0.4-4.4,1-9.6c1.3-12.7,3-30.6,4.5-48.9
	l1.3-15.2l0.2-25.4l0.2-25.4l-0.9-8.9l-0.9-8.9l-1.3-2.6c-0.7-1.4-1.5-2.6-1.7-2.7c-0.3-0.1-0.3-0.3-0.1-0.5c0.2-0.2,0-1-0.7-2.4
	c-1.1-2.3-2-3.6-6.3-8.8l-2.9-3.6l-1.2,1.1c-1.1,1.1-1.1,1.1-0.2,0.1c0.5-0.5,0.9-1.1,0.9-1.3s-1.5-2.1-3.3-4.4s-4.9-6-6.9-8.5
	l-3.6-4.4l-0.9-3.7c-1.5-6.2-1.7-4.4,2.6-17.9c0.2-0.8,0.2-1-0.2-1.5c-0.5-0.6-0.5-0.6,0.2-0.3c0.6,0.3,1.1,0.2,2.9-0.3
	c3-0.8,3.8-1.3,6.8-4l2.6-2.3v-1.7c0-0.9,0.2-2.5,0.4-3.4c0.2-1,0.5-3,0.5-4.5c0-3.1,0.5-1.4-5-17.6l-2.1-6.1l-5.2-0.2
	C171.9,119.4,139.8,119,131.7,119L131.7,119z M175.4,128.7c0.3,0,0.7,0.1,0.8,0.3c0.2,0.4-0.4,0.4-1,0
	C174.9,128.8,174.9,128.8,175.4,128.7z M191.9,140.4C192,140.4,192.1,140.5,191.9,140.4c-0.2,0.4-1.5,0.8-1.5,0.6
	c0-0.1,0.4-0.3,0.9-0.4C191.6,140.5,191.8,140.5,191.9,140.4L191.9,140.4z M153.1,148.5c0.2,0,0.6,0.2,1,0.4
	c0.4,0.2,0.6,0.4,0.4,0.4s-0.6-0.2-1-0.4C153.2,148.7,153,148.5,153.1,148.5z M159.5,149.6c0.4,0,0.9,0,1.2,0
	c0.7,0.1,0.1,0.1-1.2,0.1c-1.3,0-1.9,0-1.2-0.1C158.6,149.6,159,149.6,159.5,149.6z M158.6,150.6c0.4,0,0.8,0,1.1,0.1
	c0.9,0.2,0.6,0.2-1.2,0.2c-2,0-2.1,0-1-0.2C157.8,150.6,158.2,150.6,158.6,150.6L158.6,150.6z M170.9,154.7c0.2,0,0.4,0.1,0.5,0.3
	c0.2,0.3,0.1,0.3-0.4,0C170.8,154.8,170.7,154.7,170.9,154.7L170.9,154.7z M147,155C147.1,155,147.1,155,147,155
	c0,0.1-0.2,0.3-0.5,0.5c-0.3,0.2-0.6,0.2-0.6,0.2s0.3-0.3,0.6-0.4C146.7,155.1,146.9,155,147,155L147,155z M173.6,156.1
	c0,0,0.2,0.1,0.5,0.2c0.3,0.2,0.6,0.4,0.6,0.4c0,0.2-0.1,0.2-0.7-0.3C173.7,156.3,173.6,156.2,173.6,156.1z M175.5,214.5
	C175.5,214.5,175.5,214.5,175.5,214.5c0,0.1-0.2,0.3-0.5,0.5c-0.3,0.2-0.6,0.2-0.6,0.2s0.3-0.3,0.6-0.4
	C175.2,214.5,175.4,214.5,175.5,214.5L175.5,214.5z M143.7,214.8c0-0.1,2.8,1.2,3.1,1.5c0.1,0.1,0,0.1-0.1,0.1
	C146.3,216.3,143.7,215,143.7,214.8L143.7,214.8z M174,215.2c0.2,0-0.2,0.2-0.7,0.5s-1.1,0.5-1.3,0.5s0.2-0.2,0.7-0.5
	C173.2,215.5,173.8,215.2,174,215.2z M200,216.3c0.1,0-0.5,0.6-1.2,1.4c-0.8,0.8-1.4,1.4-1.5,1.4s0.5-0.6,1.2-1.4
	S199.9,216.3,200,216.3z M170.9,216.6c0.2,0,0.1,0.1-0.1,0.3c-0.2,0.2-0.6,0.3-0.7,0.3s-0.1-0.1,0.1-0.3
	C170.4,216.8,170.7,216.6,170.9,216.6z M169.5,217.2c0.2,0,0.1,0.1-0.1,0.3c-0.2,0.2-0.6,0.3-0.7,0.3s-0.1-0.1,0.1-0.3
	C169,217.3,169.3,217.2,169.5,217.2L169.5,217.2z M153.2,218.4c0.1,0,0.2,0,0.2,0.1c0.1,0.1-0.1,0.2-0.4,0.1c-0.3,0-0.4-0.1-0.2-0.2
	C153,218.4,153.1,218.4,153.2,218.4L153.2,218.4z M164.2,218.6c0.2,0,0.3,0,0.4,0.1c0.2,0.1,0,0.1-0.5,0.1c-0.5,0-0.6-0.1-0.3-0.1
	C163.9,218.7,164.1,218.6,164.2,218.6L164.2,218.6z M130.9,229.2l0.9,0.8c0.5,0.5,0.9,0.9,0.9,0.9c0,0.2-0.2,0-1-0.8L130.9,229.2z
	 M186.8,229.9c0,0-0.1,0.1-0.2,0.4c-0.2,0.3-0.4,0.5-0.5,0.5c-0.2,0-0.1-0.2,0.4-0.6C186.7,229.9,186.8,229.9,186.8,229.9z
	 M185.4,231c0,0-0.1,0.1-0.2,0.4c-0.2,0.3-0.4,0.5-0.5,0.5c-0.2,0-0.1-0.2,0.4-0.6C185.2,231.1,185.4,231,185.4,231z M133.7,231.7
	l0.6,0.5c0.3,0.3,0.6,0.6,0.6,0.6c0,0.2-0.2,0.1-0.7-0.5L133.7,231.7z M146,239.6c0.1-0.1,3.1,1.5,3.7,2c0.3,0.2,0.5,0.4,0.4,0.4
	C149.9,241.9,146.2,239.8,146,239.6C146,239.6,146,239.6,146,239.6L146,239.6z M167.2,242.7C167.3,242.7,167.2,242.7,167.2,242.7
	c-0.8,0.7-2.5,1.9-2.1,1.4c0.3-0.3,0.9-0.8,1.4-1.1C166.9,242.8,167.2,242.7,167.2,242.7L167.2,242.7z M151.6,242.8
	c0,0,0.1,0.1,0.4,0.2c0.3,0.2,0.5,0.4,0.5,0.5c0,0.2-0.2,0.1-0.6-0.4C151.6,243,151.6,242.8,151.6,242.8z M153.7,245.4
	c0-0.1,0.2,0.4,0.4,1c0.2,0.8,0.2,2.1,0.1,4.2l-0.2,3l-0.1-4.1C153.7,247.3,153.7,245.5,153.7,245.4L153.7,245.4z M163.4,245.6
	c0.1,0,0.3,0.1,0.3,0.3s-0.2,0.3-0.4,0.3c-0.2,0-0.4-0.1-0.3-0.3C163.1,245.8,163.3,245.6,163.4,245.6L163.4,245.6z"/>
<path id="path84" class="st2" d="M131.9,119c-1.2,0-1.9,0-2,0.1c-0.3,0.3-3.3,16.4-3.6,19c-0.1,1-0.3,2-0.5,2.2
	c-0.3,0.4-0.2,2.3,0.3,6.1c0.1,1,0.1,2.7-0.1,4l-0.3,2.3l1,1.5c0.6,0.8,1.3,1.8,1.7,2.1c1.2,1.2,5.7,3.2,8.1,3.7
	c2.8,0.6,2.4,0.1,4,5.9c0.7,2.7,0.8,3.8,0.9,7.2c0.1,3.8,0,4.1-0.9,6.8c-1.5,4.4-2.9,6.8-5.7,9.8c-5.3,5.7-8.8,10.2-8.6,10.9
	c0.1,0.4,0.1,0.4-0.2,0.2c-0.3-0.2-1.4,1.1-5,6.1c-2.5,3.5-4.7,6.6-4.9,6.8c-0.2,0.3,0.2,0.8,1.1,1.8l1.4,1.4l-1.3-1.3
	c-0.7-0.7-1.4-1.2-1.4-1.1c-0.3,0.3-1.6,4.9-2.2,7.9c-1.5,6.9-2,12.7-2.5,27.6c-0.4,12.6-0.2,26.8,0.4,35.8
	c0.9,12.8,6.4,75.2,6.8,77.3c0.1,0.7,0.3,0.8,1.5,0.8l1.3,0.1l-1.4,0.1l-1.4,0.1l0.2,1.3c0.1,0.7,0.7,5.6,1.3,10.9
	c3,25.4,8.4,62.1,12.3,82.7c1,5.3,0.8,5,3.6,5.2c1.7,0.1,17,1,18.3,1c0.1,0,0.1-43.3,0-96.1s0-96.1,0.1-96
	c0.1,0.1,0.2,28.9,0.2,63.9c0.1,72.9,0.3,127.8,0.5,127.9c0.1,0.1,2.1,0.2,4.4,0.3l4.3,0.2l0.1-86.8l0.1-86.8l0.1,86.9l0.1,86.9
	l4.2,0.2c2.3,0.1,6.5,0.3,9.3,0.5h0c5.8,0.3,7.4,0.2,7.8-0.3c0.3-0.5,1.8-10.1,6.2-40.6c3.9-27,5.8-40.7,6.9-50.8
	c0.5-4.8,1-9.2,1.1-9.8c0.1-1,0.1-1.1-0.6-1.1l-0.8,0l0.7-0.1c0.9-0.1,0.7,0.9,2.2-13.6c1.4-14.1,2.5-25.8,4.1-44.9l1.3-15.2
	l0.2-25.9l0.2-25.9l-0.8-8.5l-0.8-8.5l-1.2-2.4c-0.7-1.3-1.3-2.6-1.5-2.8s-0.4-0.7-0.4-1.1c-0.1-1.7-2.6-5.5-8.2-12.3
	c-1.8-2.1-1.8-2.2-2.4-1.7c-0.6,0.5-0.6,0.5-0.2-0.1c0.5-0.8,1-0.1-7.2-10.1c-5.4-6.6-6.3-7.9-6.6-9.1c-0.2-0.7-0.6-2.7-1-4.5
	c-0.4-1.8-0.6-3.5-0.6-3.9c0.1-0.5,1-3.5,2-6.8c1.5-4.9,1.8-6,1.5-6.4c-0.3-0.5-0.3-0.5,0.2-0.3c0.7,0.2,4.4-0.7,5.9-1.5
	c0.6-0.3,2.2-1.6,3.6-2.8l2.6-2.3l0-1.6c0-0.9,0.2-2.4,0.4-3.4c0.2-1,0.5-2.9,0.6-4.4l0.2-2.6l-3.6-10.7l-3.6-10.7l-4.1-0.2
	C175,119.4,140.5,118.9,131.9,119L131.9,119z M175.3,128.8c0.3,0,0.6,0.1,0.7,0.3c0.2,0.3,0.2,0.3-0.6,0
	C174.9,128.8,174.9,128.8,175.3,128.8L175.3,128.8z M158.6,150.7c0.3,0,0.5,0,0.7,0.1v0c0.3,0.1,0,0.1-0.8,0.1
	c-0.8,0-1.1-0.1-0.6-0.1C158.1,150.8,158.3,150.7,158.6,150.7L158.6,150.7z M199.7,216.6c0.1,0-0.4,0.5-1,1.1s-1.2,1.1-1.2,1.1
	c-0.1,0,0.4-0.5,1-1.1C199.1,217.1,199.6,216.6,199.7,216.6z M147.5,240.3c0.2,0,0.4,0.1,0.5,0.3c0.2,0.3,0.1,0.3-0.4,0
	C147.4,240.4,147.3,240.3,147.5,240.3L147.5,240.3z M154,246.5c0,0,0.1,0.4,0.2,0.9c0.2,1,0.2,2.2,0,3.2c-0.2,1.5-0.3,1.3-0.3-1.6
	C153.9,247.2,153.9,246.4,154,246.5L154,246.5z"/>
<path id="path86" class="st2" d="M131.9,119c-1.3,0-2,0-2.1,0.1c-0.2,0.2-2.4,11.4-3.6,18.3c-0.3,1.5-0.5,3.7-0.4,4.8
	c0,1.1,0.1,4,0.1,6.5l0.1,4.5l0.9,1.3c0.5,0.7,1.2,1.5,1.5,1.9c1.2,1.1,5.6,3.2,7.9,3.7c1.6,0.4,2.4,0.7,2.6,1.1
	c0.2,0.3,0.8,2.3,1.4,4.4c0.9,3.5,1,4.2,1,7.8c0,3.4-0.1,4.2-0.7,6.3c-1.6,4.9-2.6,6.8-6.5,10.9c-3.4,3.7-7.2,8.3-7.8,9.4
	c-0.3,0.5-0.5,0.9-0.6,0.8c-0.1-0.1-8.7,11.6-9.6,13.1c-0.1,0.2,0,0.7,0.4,1.1c0.6,0.7,0.6,0.7,0,0.2c-0.3-0.3-0.7-0.5-0.7-0.4
	c-0.2,0.3-1.1,3.2-1.9,6.3c-0.9,3.9-1.8,9.6-2.2,14.4c-0.9,10.5-1,38.3-0.3,49.2c0.8,12.2,6.5,77.1,6.9,78.8
	c0.1,0.5,0.4,0.6,0.9,0.7l0.8,0l-0.8,0.1c-0.4,0.1-0.8,0.2-0.8,0.4c0,1.5,3.6,30.3,5.2,41.7c3.3,23.3,8.7,56.1,9.4,57.5
	c0.2,0.4,0.8,0.5,2.4,0.7c2,0.2,17.1,1,18.1,1c0.4,0,0.4-9.5,0.3-90.2c-0.1-49.6,0-90.1,0.1-90c0.1,0.1,0.2,28.2,0.2,62.4
	c0.1,68.9,0.3,117.5,0.5,117.7c0.1,0.1,2.1,0.2,4.4,0.3l4.3,0.2l0.1-59.8l0.1-59.8l0.1,59.9l0.1,59.9l1.9,0c1,0,5,0.2,8.8,0.4
	c9.7,0.5,10,0.5,10.5,0c0.6-0.6,2-10.1,7.8-50.2c3.1-21.6,4.5-32.3,5.6-42.3c0.5-4.2,0.9-8.1,1-8.8c0.1-1,0.1-1.2-0.3-1.2
	c-0.4,0-0.4-0.1,0-0.2c0.6-0.2,0.5,0,1.8-11.9c1.3-12.2,2.6-27.4,4.2-46.3l1.3-15.2l0.2-25.8l0.2-25.8l-0.8-8.5
	c-0.8-9.1-1-9.7-3-13.2c-0.4-0.7-0.8-1.6-0.8-1.8c0-0.9-2-4.5-3.6-6.6c-0.9-1.2-2.8-3.5-4.1-5.2c-2-2.4-2.5-2.9-2.8-2.7
	c-0.3,0.3-0.4,0.2-0.2-0.2c0.1-0.4-1.3-2.4-5.9-8c-8.2-10.1-7.6-9.2-8.7-13.5c-0.5-2-0.9-4.3-0.9-5c0-0.8,0.7-3.4,1.9-7.3
	c1-3.3,1.8-6.2,1.7-6.4c-0.1-0.3,0-0.4,0.5-0.4c1.2,0,5.4-1.5,6.5-2.3c0.6-0.4,2-1.6,3.2-2.7c2.1-1.9,2.1-1.9,2.1-3.3
	c0-0.8,0.2-2.3,0.4-3.3c0.2-1,0.5-3.1,0.6-4.6l0.1-2.8l-3.6-10.6l-3.6-10.6l-3.5-0.2C176.6,119.4,140.9,118.9,131.9,119L131.9,119z
	 M175.4,128.7c0.2,0,0.4,0.1,0.5,0.3c0.2,0.3,0.1,0.3-0.4,0C175.3,128.9,175.2,128.7,175.4,128.7L175.4,128.7z M154,247.3
	c0,0,0,0.1,0,0.3c0.1,0.7,0.1,1.7,0,2.4c-0.1,0.7-0.1,0.1-0.1-1.2C153.9,247.8,154,247.2,154,247.3L154,247.3z M163.8,344.7
	c0,0,0,0.1,0.1,0.1c0.1,0.3,0.1,0.7,0,0.8c-0.1,0.2-0.1,0-0.1-0.5C163.7,344.9,163.8,344.7,163.8,344.7L163.8,344.7z"/>
<path id="path88" class="st2" d="M137.1,119c-4.3,0-7.2,0-7.2,0.1c-0.2,0.2-3,14.3-3.7,19c-0.4,2.3-0.4,3.4-0.2,10.3
	c0.1,4.4,0.1,4.5,0.9,5.8c0.5,0.7,1.3,1.7,1.8,2.2c1.4,1.2,5.2,3,7.8,3.7c1.2,0.3,2.3,0.7,2.5,0.8s0.7,1.8,1.3,3.7
	c0.9,3.1,1,4,1.1,7.8c0.1,4,0.1,4.4-0.6,6.9c-1.2,4.3-2.6,6.8-5.4,10c-3.5,3.9-7.6,8.8-8.5,10.1c-0.4,0.6-0.9,1.3-1.2,1.5
	c-0.4,0.4-8.8,12-9.4,12.9c-0.1,0.2-0.1,0.6,0.1,0.8c0.3,0.3,0.3,0.4-0.1,0.3c-0.3-0.1-0.5,0.2-0.9,1.2c-2.1,6.6-3.2,13.5-3.9,23.9
	c-0.5,7.5-0.5,38.3,0,44.5c1.3,17.5,6.7,78.1,7,79.1c0.1,0.3,0.4,0.5,0.6,0.5c0.4,0,0.4,0,0,0.2c-0.3,0.1-0.5,0.3-0.5,0.6
	c0,0.7,2.1,17.9,3.1,26c3.4,26.7,10.6,71.7,11.6,73.1c0.3,0.4,3.9,0.7,17.3,1.4l3.7,0.2l-0.1-85.2c-0.1-46.8-0.1-85.1,0-85
	c0.1,0.1,0.2,27.2,0.2,60.3c0.1,65,0.3,109.4,0.5,109.6c0.1,0.1,2.1,0.2,4.4,0.3l4.3,0.2l0.1-36.3l0.1-36.3l0.1,36.4l0.1,36.4l1.8,0
	c1,0,4.7,0.2,8.4,0.4c9.7,0.5,10.6,0.5,11.1,0c0.2-0.2,0.4-0.5,0.4-0.7c0-0.1,0.3-2.1,0.7-4.4c0.9-5.4,4.6-30.4,7.6-51.8
	c4.2-29.3,6.1-45.2,5.5-45.5c-0.2-0.2-0.3-0.2,0-0.2c0.4,0,0.5-0.5,1.6-11.7c1.4-13.9,2.8-28.9,4.2-46.2c1.4-17,1.6-23.6,1.6-53.9
	c0-14.2,0-15.1-0.8-22.7l-0.8-7.9l-1.4-2.9c-0.8-1.6-1.7-3.5-1.9-4.3c-0.3-0.8-1.2-2.5-2.1-3.8c-2.1-3.1-7.3-9.4-7.7-9.3
	c-0.2,0-0.3-0.2-0.4-0.5c-0.1-0.3-2.8-3.8-5.9-7.7c-8.2-10.1-7.7-9.4-8.7-13.8c-0.6-2.8-0.8-4.2-0.7-5.3c0.1-0.9,0.9-4,1.9-7
	c0.9-3,1.7-5.7,1.7-6c0-0.3,0.2-0.5,0.5-0.5c1.1,0,5.3-1.5,6.3-2.3c0.6-0.4,2-1.6,3.1-2.6l2-1.8l0.2-2.2c0.1-1.2,0.3-2.6,0.5-3.1
	c0.1-0.5,0.4-2.2,0.5-3.7l0.2-2.8l-3.6-10.8l-3.6-10.8l-3.7-0.2C176.6,119.4,150.1,119,137.1,119L137.1,119z M163.8,392
	C163.8,392,163.9,392,163.8,392c0.1,0.3,0.1,0.6,0.1,0.8c-0.1,0.2-0.1,0-0.1-0.4C163.7,392.1,163.8,392,163.8,392L163.8,392z"/>
<path id="path90" class="st2" d="M137.5,119c-4.5,0-7.5,0-7.6,0.1c-0.1,0.1-0.9,3.6-1.7,7.6c-2.4,12.5-2.4,12.8-2.3,19.8l0.1,6.3
	l0.8,1.3c0.5,0.7,1.3,1.7,1.8,2.2c1.4,1.2,5.3,3,7.8,3.7c1.2,0.3,2.3,0.6,2.4,0.8c0.3,0.3,1.9,5.9,2.2,8c0.5,3.4,0.4,7.8-0.4,10.3
	c-1.6,5.4-2.3,6.6-7.4,12.3c-4.3,4.8-5.9,6.9-12.5,16c-2.6,3.6-4.7,6.7-4.6,6.9s0,0.4-0.1,0.4c-0.1,0-0.6,1-1,2.3
	c-2.4,8.1-3.4,15.2-3.8,29.5c-0.5,16.4-0.3,31.7,0.7,44.5c0.9,12,5.5,63.2,6.2,70.6c0.1,1,0.4,2,0.6,2.2c0.3,0.3,0.3,0.4,0,0.5
	c-0.4,0.1,1,12.5,3.6,31.9c3.5,26,9.8,65.6,10.8,67.5c0.2,0.3,0.8,0.5,2.2,0.7c2.3,0.2,16.4,1,17.9,1h1.1l0.1-21.9l0.1-21.9
	l0.1,21.7c0.1,12,0.2,21.8,0.3,21.9s2.1,0.2,4.4,0.3l4.3,0.2l0.1-20.8l0.1-20.8l0.1,20.9l0.1,20.9l1.6,0c0.9,0,4.5,0.2,8.1,0.4
	c9.4,0.5,11,0.5,11.5,0c0.2-0.2,0.6-1.2,0.7-2.2c1.1-6.1,8.9-60.2,11-76c1.2-9,2.9-23.8,2.8-24.1c0-0.1,0-0.7,0.1-1.2
	c0.6-2.9,3.6-34.6,5.4-57c1.4-17.2,1.6-22.3,1.6-51.3c0-15.9,0-17-0.7-24.8l-0.8-8.1l-1.7-3.7c-0.9-2-2.1-4.6-2.7-5.6
	c-1-2-7.8-10.8-8.8-11.5c-0.3-0.2-0.6-0.5-0.6-0.6c0-0.1-2.3-3.1-5.1-6.6c-7.1-8.7-8.3-10.4-8.8-11.9c-0.6-1.9-1.6-6.6-1.6-7.8
	c0-0.5,0.7-3.1,1.5-5.7s1.7-5.5,1.9-6.4l0.5-1.7l2.4-0.7c3.2-0.9,3.9-1.3,6.9-3.9c2.4-2.1,2.6-2.3,2.6-3.4c0-0.6,0.2-2.1,0.4-3.4
	c0.2-1.2,0.5-3.5,0.6-5l0.2-2.7l-3.6-10.7l-3.6-10.7l-3-0.2C178.4,119.4,151,119,137.5,119L137.5,119z M154.3,323.2c0,0.5,0,2.4,0,6
	c0,14.3,0,37.7,0,52c0,14.3-0.1,2.6-0.1-26C154.2,333.8,154.3,321.8,154.3,323.2z"/>
<path id="path92" class="st2" d="M132.7,118.9l-3,0.1l-0.3,1.6c-0.4,1.8-3,15.9-3.4,18.6c-0.2,1.1-0.2,4.2-0.1,7.7l0.2,5.9l0.8,1.3
	c0.5,0.7,1.3,1.7,1.8,2.2c1.4,1.2,5,2.9,7.8,3.6c2.8,0.7,2.6,0.5,3.9,5.3c0.8,3.1,0.9,3.6,0.9,7.8c0,4.2,0,4.7-0.8,6.9
	c-0.9,2.8-2.3,5.6-3.5,7.1c-0.4,0.6-2.2,2.7-4,4.6c-1.8,2-4.3,5-5.6,6.7c-4.5,5.8-11.3,15.4-11.2,15.8c0.1,0.2,0,0.4-0.1,0.4
	c-0.6,0-2.7,8.2-3.5,13.8c-1.1,7.4-1.6,18.8-1.6,35.2c0,15.7,0.2,18.8,3,50.8c2.6,30.4,4.3,48.6,4.6,49.1c0.1,0.3,0.2,0.6,0.1,0.8
	c-0.2,0.4,0.1,2.5,2.1,18.6c3.7,29.9,11.4,79,12.6,80.7c0.3,0.5,5.6,0.9,16.7,1.4l4.3,0.2l0.1-16l0.1-16l0.1,15.8
	c0.1,8.7,0.2,15.9,0.3,16c0.1,0.1,2.1,0.2,4.4,0.3l4.3,0.2l0.1-11.8l0.1-11.8l0.1,11.9l0.1,11.9l1.3,0c0.7,0,4.3,0.2,7.8,0.4
	c7.7,0.4,11.2,0.5,11.8,0.3c0.6-0.2,0.8-1.3,1.7-6.8c1.8-11.6,8.7-59.5,10.4-72.5c2.1-15.7,4.8-42,6.9-66.3
	c2.8-31.6,2.6-28,2.8-55.6c0.2-26,0.2-26.8-0.8-37.3l-0.6-6.5l-1.6-3.4c-0.9-1.9-2-4.3-2.5-5.4c-1-2.1-4-6.2-7.3-10.1
	c-1.1-1.2-3-3.6-4.3-5.2c-1.3-1.6-4.3-5.4-6.7-8.3c-2.3-2.9-4.5-5.8-4.8-6.5c-0.9-1.8-2.1-7.7-1.9-9.2c0.1-0.7,0.8-3.4,1.6-6.1
	s1.6-5.3,1.8-6l0.3-1.2l2.3-0.6c3.1-0.8,4-1.3,7-4c2-1.7,2.6-2.4,2.6-3c0-0.4,0.3-2.4,0.6-4.5c0.9-6.3,1-5.7-3-17.7l-3.5-10.6
	l-3-0.2C179,119.4,136.6,118.8,132.7,118.9L132.7,118.9z"/>
<path id="path94" class="st2" d="M132.5,118.9c-1.4,0-2.3,0-2.3,0c-0.3,0.1-0.8,1.8-1.8,6.9c-2.6,13.5-2.7,14.2-2.5,21
	c0.1,4,0.3,6.3,0.5,6.7c0.9,1.9,2.7,3.4,5.6,4.8c1.6,0.8,3.6,1.5,4.5,1.7c0.9,0.2,1.9,0.6,2.2,0.8c0.7,0.6,2.1,5.5,2.5,8.8
	c0.8,6.1-0.6,12.1-3.7,16.7c-0.4,0.6-2.3,2.9-4.2,5.1c-6.8,7.7-16.5,20.9-17.6,23.9c-3.4,8.9-4.6,22.3-4.7,48.1
	c0,12.7,0.3,19,1.4,33c2,24.1,5.6,63.8,5.9,65.9c0.2,0.9,0.3,1.9,0.3,2.3c0,2,2.9,25.6,5.2,42.1c3.6,25.6,8.6,55.4,9.4,57.1
	c0.2,0.3,0.8,0.5,1.9,0.7c2.2,0.2,15.6,1,17.6,1l1.6,0l0.1-12l0.1-12l0.1,11.9c0.1,6.5,0.2,11.9,0.3,12s2.1,0.2,4.4,0.3l4.3,0.2
	l0.1-6.7l0.1-6.7l0.1,6.8l0.1,6.8l1.2,0c0.7,0,4.1,0.2,7.7,0.4c3.6,0.2,7.8,0.4,9.4,0.4c3.5,0.1,3.3,0.2,4-4.3
	c1.3-7.5,8.7-58.8,10.7-74c2.4-18,5.2-45,7.6-73.7c2.2-25.3,2.3-27.8,2.3-58.5c0-18.3,0-19.3-0.7-26.8c-0.4-4.3-0.8-8.1-1-8.5
	c-1-2.7-4.8-10.2-6-11.9c-1.5-2-6.6-8.4-7-8.6c-0.7-0.5-13.4-16.7-13.9-17.7c-0.9-1.7-1.9-6.5-1.9-8.6c0-1.3,0.4-3,1.6-7
	c0.9-2.9,1.7-5.7,1.8-6.1c0.1-0.7,0.4-0.8,1.7-1.2c4.1-1.1,5.1-1.7,9-5.3c0.9-0.8,1.4-1.5,1.4-1.9c0-0.4,0.3-2.4,0.6-4.5
	c0.9-6.4,1-5.8-3-17.8l-3.5-10.6l-2.2-0.2C180.9,119.4,142.4,118.9,132.5,118.9L132.5,118.9z"/>
<path id="path96" class="st2" d="M141.2,175.8v0.8c0,1.2-1.1,4.7-2.1,6.9c-1.1,2.3-1.9,3.5-6,8.1c-4.5,5.1-7.3,8.8-13.2,17
	c-3.4,4.8-3.7,5.3-4.7,8.2c-1.8,5.4-2.9,12.4-3.6,21.3c-0.2,2.2-0.4,10.9-0.5,19.4c-0.2,15.7,0,22.8,0.9,34.1
	c1.2,14.8,5.9,68.6,6.2,69.6c0.1,0.3,0.3,2,0.4,3.8c2,22.1,12.9,95.3,14.6,98.5c0.2,0.4,0.7,0.6,1.6,0.7c1.7,0.2,15.7,1,17.9,1h1.7
	l0.1-5.3l0.1-5.3l0.2,5.1c0.1,2.8,0.2,5.2,0.3,5.3c0.1,0.1,2.1,0.2,4.4,0.3l4.3,0.2l0.1-3.9l0.1-3.9l0.1,4l0.1,4l0.9,0
	c0.5,0,3.8,0.2,7.4,0.4c9.2,0.5,12.7,0.5,13.1,0.1c0.2-0.2,0.6-1.9,0.9-3.7c1.5-9,9.5-64.3,11.1-77.3c3.5-27.4,8.7-82.8,9.2-98.5
	c0.1-4.3,0.3-17.3,0.3-28.7c0-20.4,0-21-0.7-28.7l-0.7-7.9l-2.1-4.6c-1.2-2.6-2.4-5.2-2.8-5.9c-0.8-1.3-5.4-7.2-8-10.2
	c-2-2.3-11.2-13.8-13.1-16.3c-1.3-1.8-2.1-3.7-2.7-7.1l-0.3-1.6h-17.6L141.2,175.8z M154.5,448.1c0,0,0,0.1,0.1,0.1
	c0.1,0.3,0.1,0.7,0,0.8c-0.1,0.2-0.1,0-0.1-0.5C154.5,448.3,154.5,448.1,154.5,448.1L154.5,448.1z"/>
<path id="path98" class="st2" d="M141.2,175.8l-0.2,1.3c-0.1,0.7-0.4,2.2-0.8,3.2c-1.3,3.9-2.4,5.6-7.2,11.2
	c-4.8,5.6-8.2,10-13.7,17.7c-3,4.1-3.3,4.8-4.3,7.6c-1.8,5.4-2.9,12.3-3.6,21.8c-0.5,6.6-0.5,40.9,0,47c2.7,33.8,6.5,75,8.5,92.3
	c3.5,29.7,12,84.4,13.3,86c0.1,0.2,0.9,0.4,1.6,0.5c1.8,0.2,15.2,1,17.6,1l1.9,0l0.1-4.6l0.1-4.6l0.2,4.4c0.1,2.4,0.2,4.5,0.3,4.6
	s2.1,0.2,4.4,0.3l4.3,0.2l0.1-2.2l0.1-2.2l0.1,2.3l0.1,2.3l0.8,0c0.4,0,3.7,0.2,7.3,0.4c9.3,0.5,13,0.5,13.3,0.1
	c0.2-0.2,0.6-1.8,0.9-3.6c1.5-8.6,9.8-66.5,11.4-79.6c3.4-27.2,8.4-80.7,8.9-96.1c0.1-4,0.3-17,0.3-28.7c0-20.8,0-21.6-0.7-29.2
	l-0.7-7.7l-2.4-5.3c-2.7-5.8-3.5-7-9.9-14.7c-5.1-6.2-13-16.1-14.2-17.9c-0.8-1.2-1.2-2.3-1.8-4.7l-0.8-3.2h-17.5L141.2,175.8z"/>
<path id="path100" class="st2" d="M141.2,175.8v0.6c0,0.9-0.7,3.7-1.6,5.8c-1,2.6-2.2,4.3-5.2,7.8c-6,7-9.2,11.1-15.3,19.6
	c-3.1,4.3-4.1,6.6-5.3,12.3c-1.9,8.7-2.4,15.5-2.6,35.4c-0.2,17.9,0,23.9,1.3,39.7c1.8,21.8,5.4,61.6,5.9,65.9
	c0.2,1.2,0.5,4.7,0.8,7.6c2.9,26.7,12.7,91.5,14.1,93.3c0.2,0.2,0.7,0.4,1.3,0.5c1.4,0.2,15.4,1,17.8,1h1.9l0.1-3.6l0.1-3.6l0.2,3.4
	c0.1,1.9,0.2,3.5,0.3,3.6s2.1,0.3,4.4,0.3l4.2,0.2l0.1-1.4l0.1-1.4l0.1,1.5c0,1.3,0.1,1.5,0.7,1.5c0.3,0,3.5,0.2,7.1,0.4
	c9.1,0.5,13.2,0.5,13.6,0.1c0.5-0.6,1-3.3,5.4-33.9c3.4-23.3,6.2-43.7,7.2-51.4c3.4-27.8,8.1-78.8,8.6-93.7
	c0.1-3.9,0.3-16.9,0.3-28.9c0-21.3,0-22-0.7-29.5l-0.7-7.7l-2.4-5.1c-2.6-5.5-3.5-6.9-7.9-12.3c-11.7-14.2-16-19.8-16.9-21.6
	c-0.4-0.8-0.9-2.6-1.2-4l-0.6-2.6h-17.6L141.2,175.8z"/>
<path id="path102" class="st2" d="M171.3,466.3c-3.5-0.2-6.6-0.4-6.8-0.4c-0.4,0-0.5-0.3-0.5-0.9c0-0.9,0-0.9-0.2-0.1l-0.1,0.8
	l-4.3-0.2c-3-0.1-4.3-0.3-4.5-0.5c-0.2-0.3-0.3-0.3-0.4,0c-0.2,0.5-2.6,0.5-11.6-0.1c-8-0.5-10.2,0-6.6-3.2c6.7,3.1-13.8-61.8-17-91
	c-0.3-2.9-0.8-6.9-1-9c-0.7-6.5-4.3-47.1-5.9-66.2c-1-12.7-1.3-18.8-1.3-32.4c0-23.2,0.7-33.2,3.1-42.8c1.4-5.8,1.7-6.2,8.1-15.1
	c3.7-5,7.2-9.5,10.9-13.8c4.1-4.8,4.7-5.6,5.7-7.7c0.9-1.9,2.3-6.2,2.3-7.3v-0.7h17.6h17.6l0.1,0.6c0.1,0.3,0.3,1.5,0.6,2.6
	c0.8,3.6,1.3,4.3,8.4,13.3c1.9,2.3,5.1,6.3,7.3,8.9c6.6,8,7.5,9.3,10.2,15.1l2.4,5.2l0.6,6c0.9,10,1,12.5,0.8,38.4
	c-0.2,23.7-0.2,25.6-0.9,34.2c-2.6,32.1-5.8,64.2-8.3,84.5c-1.8,14.2-10,71-11.3,78.3c-0.3,1.8-0.7,3.4-0.9,3.6
	C185,466.9,180.3,466.8,171.3,466.3L171.3,466.3z"/>
<path id="path112" class="st3" d="M173.3,118.1c-16.7-0.2-43-0.7-43-0.8c-0.1-0.1,1.4-16.5,2-22l0.3-2.9l2,0c2.7,0,5.4,0.6,17,3.8
	l9.9,2.7l9.1-3.7c5-2,9.2-3.7,9.4-3.7c0.2,0,1.3,0.6,2.6,1.4l2.3,1.4l0.2,2.8c0.1,1.6,0.2,7,0.3,12.1l0.2,9.2l-3.6-0.1
	C179.8,118.2,176,118.2,173.3,118.1L173.3,118.1z"/>
<path id="path117" class="st2" d="M140,119c-9.5,0-10.3,0-10.4,0.5c-0.2,0.7-2.2,11.2-3.1,16.2c-0.8,4.8-0.9,6.5-0.6,14.5
	c0.1,2.5,0.2,2.8,0.9,4c0.5,0.7,1.2,1.7,1.7,2.1c1.2,1.1,5.4,3.1,7.6,3.6c2.7,0.7,2.9,0.9,3.9,4.4c1.8,6.4,1.8,10.7,0.1,16
	c-1.4,4.2-1.8,4.9-10,14.6c-2.3,2.7-8.8,11.4-11.8,15.8c-2.5,3.6-3.4,5.8-4.6,11.3c-1.5,6.8-2.2,13.5-2.5,26.1
	c-0.4,15.5-0.3,29.5,0.5,40.3c0.9,12.5,5.6,65.7,6.6,74.9c1.5,14.3,5.3,43.6,6.3,49l0.2,0.9h34.5c27.8,0,34.5-0.1,34.5-0.3
	c0-0.2,0.7-5.5,1.6-11.7c3.8-27.4,7.2-59.7,10.2-96.7c1.2-15.3,1.2-16.2,1.3-43.1l0-26.3l-0.7-6.8l-0.7-6.8l-2.2-4.7
	c-2.6-5.5-4.1-7.8-8.3-13c-5.9-7.1-14.8-18.3-15.8-19.8c-1.2-1.8-1.6-3-2.4-6.7c-0.4-1.7-0.5-3.1-0.4-3.8c0.1-0.7,1-3.9,2-7.1
	l1.8-5.9l2.4-0.7c3-0.9,4.1-1.5,7.2-4.3c2.4-2.1,2.5-2.2,2.5-3.3c0-0.7,0.2-2.4,0.4-3.8c0.2-1.4,0.5-3.5,0.6-4.6l0.2-2.1l-3.6-10.9
	l-3.6-10.9l-1.9-0.2C181.3,119.4,152.2,119,140,119L140,119z"/>
<path id="path123" class="st2" d="M115.7,214.7l-0.7,2.2c-1.5,4.7-2.6,10.5-3.2,17.7c-0.9,10-1.1,38.3-0.4,50
	c0.8,12.1,5.6,66.8,7.2,81.2c2.7,25.1,8.7,66.6,12.9,89.8c1.3,7.3,1.6,8.4,2.2,8.6c0.7,0.3,5.8,0.6,13.3,1c6.3,0.3,7.3,0.3,7.5,0
	c0.2-0.3,0.3-0.3,0.5,0c0.2,0.2,1.5,0.4,4.5,0.5l4.3,0.2l0.1-0.6c0.1-0.6,0.1-0.6,0.2,0.1c0,0.4,0.2,0.7,0.4,0.8
	c0.2,0,3,0.2,6.2,0.4c3.2,0.2,7.8,0.3,10.3,0.4l4.5,0l0.4-0.9c0.4-1.1,1.6-8.2,5.8-37.8c3.7-25.5,5.6-39.4,6.6-47.6
	c2.4-19.7,5.1-46.9,7-70.8c1.7-20.2,1.7-19.7,1.7-48.4l0-26.7l-0.7-6.5l-0.7-6.5l-1.5-3.4l-1.5-3.4H159L115.7,214.7z"/>
<path id="path125" class="st2" d="M115.7,214.7l-0.7,2.2c-2.9,9.4-3.8,17.8-4.1,40.5c-0.2,19.4,0,24,3,58.2
	c3.3,37.7,4.5,50.1,6.6,67.1c3.9,31.6,11.5,79.9,12.7,81.2c0.5,0.5,1.9,0.6,9.9,1.1c8.5,0.5,11.1,0.5,11.2,0.1
	c0.1-0.3,0.2-0.3,0.4,0c0.2,0.2,1.6,0.4,4.5,0.5c4.2,0.2,4.3,0.2,4.3-0.3c0-0.5,0.1-0.5,0.2,0.1c0.1,0.3,0.2,0.6,0.3,0.6
	c0.1,0,2.8,0.2,6,0.4c3.2,0.2,7.9,0.3,10.4,0.4l4.6,0l0.4-0.9c0.2-0.5,0.7-3.2,1.2-6c2-12.6,9.2-62.8,10.6-74
	c2.3-17.7,5.7-51.3,7.7-76.5c0.4-5.5,0.9-11.3,1.1-12.9c0.4-4.8,0.8-32,0.7-47.7c-0.1-13.5-0.2-15.6-0.8-21.1l-0.6-6.1l-1.5-3.4
	l-1.5-3.4H159L115.7,214.7z"/>
<path id="path127" class="st2" d="M115.7,214.7l-0.5,1.7c-1.5,4.6-2.7,10.7-3.3,17.8c-1,10-1.2,39.7-0.4,50.9
	c1.3,17.9,5.9,69.9,7.7,85.7c3.6,32.1,12.7,91.7,14.2,93.2c0.5,0.5,1.7,0.6,9.7,1.1c8.3,0.5,11.4,0.5,11.4,0.1c0-0.2,0.1-0.2,0.4,0
	c0.2,0.2,2,0.4,4.6,0.5c3.7,0.2,4.3,0.1,4.3-0.2c0-0.3,0.1-0.3,0.2,0.1c0.1,0.3,0.1,0.5,0.2,0.5s2.7,0.2,5.9,0.4
	c3.2,0.2,8,0.3,10.7,0.4l4.8,0l0.3-1c0.9-3.4,9.9-65.5,12.1-83.2c2.6-21,5.5-50.4,8-80.9c0.9-10.5,1.3-30.1,1.1-52.4
	c-0.1-14.5-0.2-16.3-0.8-21.9l-0.7-6.1l-1.5-3.3l-1.5-3.2H159L115.7,214.7z"/>
<path id="path129" class="st2" d="M115.7,214.7l-0.8,2.6c-2.9,9.4-4,21.7-4,46.5c0,15.4,0.3,19.8,2.9,50.7c3.8,44,5.3,58,8.6,82.8
	c3.5,25.7,8.9,59.9,10.5,65.8c0.3,1,0.4,1.1,2,1.4c1.3,0.2,14.8,1,18,1c1.6,0,4.7,0.1,6.9,0.2c2.6,0.1,3.9,0.1,3.9-0.1
	c0-0.1,0.1-0.1,0.3,0.1c0.2,0.3,1.5,0.5,6,0.7c3.2,0.2,8,0.3,10.6,0.3l4.8,0l0.3-1c1-3.8,10.4-68.6,12.5-86.3
	c2.3-19.4,4.9-45.2,6.9-69.6c1.7-20.5,1.7-20.1,1.7-48.8c0-26,0-26.6-0.6-32.9l-0.6-6.4l-1.6-3.5l-1.6-3.5H159L115.7,214.7z"/>
<path id="path131" class="st2" d="M139.3,119c-10,0-10.8,0-10.9,0.5c-0.2,0.8-2.5,12.4-3.2,16.8c-0.6,3.5-0.7,4.7-0.7,8.5
	c0.1,7.9,0.1,8.1,1.1,9.5c0.5,0.7,1.3,1.7,1.8,2.1c1.2,1.1,5.4,3.1,7.5,3.6c2.9,0.7,3,0.8,4.1,5c1.5,5.5,1,10.9,1,10.9
	c0,0-3,4-5.5,6.4c-3.3,3.3-4.6,2.7-8.2,5.5c-4.7,3.6-7.1,8.1-9.5,12.6c-2.4,4.5-3.5,8.3-3.9,9.7c-1,3.7-1.4,6.7-1.5,8.2
	c-1.3,13.4-1.5,35.3-1.5,39.4c-0.1,10.3-0.1,16.1,0.3,24.9c0.1,2.7,0.3,5.4,0.5,8.3c0.8,10.4,3.1,36.8,3.2,37.1
	c0.2,0.5,88.4,0.5,88.5,0c0-0.2,0.1-1.4,0.3-2.7c0.4-3.7,2.3-27.6,2.7-32.9c0.2-3.1,0.3-14.1,0.3-32l0-27.2l-0.7-6l-0.7-6
	c-0.4-3.1-0.9-6.3-1.3-9.4c-0.5-1.4-1.2-3.5-2.3-5.9c-2.6-6-4.8-11.1-9.2-15.5c-2.9-2.9-6-6.2-10.7-8.3c-1.3-0.6-4.1-1.8-5.2-4.5
	c-0.2-0.3-0.5-1.3-0.5-3.3c0-1.6,0.5-3.4,2.1-8.5l1.7-5.5l2.3-0.7c1.2-0.4,2.8-1,3.5-1.3c1.2-0.6,6.1-4.7,6.2-5.3
	c0-0.2,0.2-1.6,0.4-3.2s0.4-4.1,0.6-5.6l0.3-2.7l-3.6-10.9l-3.6-10.9l-1.6-0.2c-6-0.2-12-0.3-18.1-0.4
	C156.3,119.1,147.8,119,139.3,119z"/>
<path id="path4641" class="st3" d="M159.3,117.9c-6.2-0.1-15.2-0.3-20.1-0.4l-8.8-0.2l0-1.4c0-1.3,1.3-16.3,1.9-20.8
	c0.1-1.3,0.3-2.4,0.3-2.5c0-0.4,3.7-0.2,6.6,0.4c1.7,0.3,7.3,1.8,12.5,3.2c5.2,1.4,9.7,2.5,10.1,2.4c0.4-0.1,4.5-1.7,9.2-3.6
	c4.7-1.9,8.8-3.5,9-3.5c0.3,0,1.4,0.6,2.6,1.3l2.1,1.3l0.2,2.4c0.1,1.3,0.3,6.7,0.4,12l0.2,9.6l-7.4,0
	C173.9,118.1,165.5,118,159.3,117.9L159.3,117.9z"/>
<path id="path4643" class="st3" d="M171.8,118.1c-19.1-0.3-41.4-0.7-41.5-0.8c-0.1-0.1,1.2-15.6,1.9-21.9l0.3-3l2,0.1
	c2.9,0.1,4.9,0.5,13.1,2.7c10,2.7,11.8,3.2,12.9,3.4l1.2,0.3l3.7-1.5c2.1-0.8,6.1-2.5,9-3.6s5.4-2.1,5.5-2.1c0.2,0,2.7,1.4,4.3,2.4
	l0.5,0.3l0.1,1.2c0.1,2.3,0.3,7.2,0.4,12.9c0.1,3.1,0.1,6.6,0.2,7.8l0.1,2.2l-2,0C182.4,118.3,177.1,118.2,171.8,118.1L171.8,118.1z
	"/>
<path class="st2" d="M245.7,154.8"/>
</svg>
