<?xml version="1.0" encoding="UTF-8" standalone="no"?>
<!-- Generator: Adobe Illustrator 23.0.1, SVG Export Plug-In . SVG Version: 6.00 Build 0)  -->

<svg
   xmlns:dc="http://purl.org/dc/elements/1.1/"
   xmlns:cc="http://creativecommons.org/ns#"
   xmlns:rdf="http://www.w3.org/1999/02/22-rdf-syntax-ns#"
   xmlns:svg="http://www.w3.org/2000/svg"
   xmlns="http://www.w3.org/2000/svg"
   xmlns:sodipodi="http://sodipodi.sourceforge.net/DTD/sodipodi-0.dtd"
   xmlns:inkscape="http://www.inkscape.org/namespaces/inkscape"
   version="1.1"
   id="Layer_1"
   x="0px"
   y="0px"
   viewBox="0 0 300 500"
   style="enable-background:new 0 0 300 500;"
   xml:space="preserve"
   sodipodi:docname="female_triangle_suit.svg"
   inkscape:version="0.92.3 (2405546, 2018-03-11)"><metadata
   id="metadata851"><rdf:RDF><cc:Work
       rdf:about=""><dc:format>image/svg+xml</dc:format><dc:type
         rdf:resource="http://purl.org/dc/dcmitype/StillImage" /><dc:title></dc:title></cc:Work></rdf:RDF></metadata><defs
   id="defs849" /><sodipodi:namedview
   pagecolor="#ffffff"
   bordercolor="#666666"
   borderopacity="1"
   objecttolerance="10"
   gridtolerance="10"
   guidetolerance="10"
   inkscape:pageopacity="0"
   inkscape:pageshadow="2"
   inkscape:window-width="1920"
   inkscape:window-height="1001"
   id="namedview847"
   showgrid="false"
   inkscape:zoom="1.619696"
   inkscape:cx="140.60459"
   inkscape:cy="399.63832"
   inkscape:window-x="-9"
   inkscape:window-y="-9"
   inkscape:window-maximized="1"
   inkscape:current-layer="Layer_1" />
<style
   type="text/css"
   id="style834">
	.st0{fill:#C68642;}
	.st1{fill:#EE537B;}
	.st2{opacity:0.14;fill:#422200;enable-background:new    ;}
</style>


<path
   id="path865"
   style="fill:none;stroke:#000000;stroke-width:1px;stroke-linecap:butt;stroke-linejoin:miter;stroke-opacity:1"
   d="m 170.95666,85.07034 0.97188,0.721072 1.06593,0.470264 2.03781,0.721072 2.91564,0.658369 3.41725,0.470264 3.79347,0.564317 4.48318,0.438913 2.22592,0.344861 1.47349,0.282158 1.22269,0.721072 L 196.2,91.8 l 3.09791,1.60969 1.787,1.159984 2.91564,2.570777 1.50485,1.6616 1.69295,2.257269 1.19133,2.10051 1.5362,3.16645 1.97511,5.54911 1.53619,5.42371 2.00646,7.86909 3.04104,11.50579 2.69619,10.53392 1.9751,7.33612 1.09729,4.29508 2.86064,11.3018 -19.20597,20.81765 -7.65552,-21.7578 L 194.5,156.9 l -10.9,9.5 -4.4,39.3 0.50337,33.20631 -8.59568,6.17815 z M 131.5,85.4 l -2.60266,1.292015 -3.327,0.475285 -4.27756,-0.09506 -3.13689,0.950571 -4.37262,0.09506 -4.94297,0.855513 -3.80228,1.425856 -1.90114,1.711026 L 102,93.5 l -2,0.226236 -3.612167,1.806083 -2.661597,2.471483 -2.946768,6.463878 -8.935362,29.56274 -9.220532,33.93536 19.86692,20.53232 L 103.8,156.7 105.13308,157.98479 115,164.7 l 5.6,39 -0.44791,32.1365 10.55133,8.65019 z" /><path
   style="display:inline;fill:#000000;fill-opacity:1;stroke-width:0.13430744"
   d="m 125.4486,239.45287 c -4.16904,-3.42578 -4.63819,-3.85116 -4.67934,-4.24274 -0.0251,-0.23935 0.0533,-7.44604 0.17443,-16.01486 l 0.22016,-15.57966 -2.75689,-19.20597 c -1.51629,-10.56328 -2.79071,-19.39988 -2.83204,-19.6369 -0.0687,-0.39406 -0.50281,-0.7204 -5.07307,-3.81383 -3.4848,-2.35874 -5.29109,-3.66912 -5.96629,-4.32831 -0.68288,-0.66667 -0.98992,-0.88857 -1.04139,-0.75262 -0.0402,0.10603 -2.57625,7.23386 -5.635766,15.83961 -3.059519,8.60575 -5.586774,15.64682 -5.616125,15.64682 -0.02935,0 -4.31834,-4.40754 -9.531086,-9.79453 -8.865638,-9.16199 -9.470386,-9.81686 -9.364131,-10.14022 0.06248,-0.19012 2.114005,-7.71916 4.558954,-16.73119 3.803136,-14.01827 5.093402,-18.5296 8.930962,-31.22648 4.247972,-14.05476 4.540326,-14.96015 5.518643,-17.09062 l 1.033044,-2.24965 h 18.716115 18.71612 l 1e-5,4.9358 c 2e-5,6.93784 -0.67363,138.15075 -0.70938,138.17389 -0.0161,0.0105 -2.11445,-1.6944 -4.66293,-3.78854 z"
   id="path868"
   inkscape:connector-curvature="0" /><path
   style="fill:#000000;fill-opacity:1;stroke-width:0.13430744"
   d="m 171.65034,212.05484 c -2e-5,-17.56867 -0.0403,-49.93855 -0.0895,-71.93308 l -0.0894,-39.99004 17.18009,0.005 17.18009,0.005 0.4144,0.56557 c 2.52696,3.44872 4.97956,10.02395 7.52519,20.17446 0.40756,1.62512 1.57779,6.12778 2.60052,10.0059 1.02272,3.87813 2.35233,8.98517 2.95468,11.34898 0.60235,2.36381 1.63088,6.29231 2.28561,8.72999 0.65474,2.43768 2.01997,7.70915 3.03385,11.71437 l 1.84343,7.28224 -0.58794,0.6419 c -0.32336,0.35305 -4.45417,4.83477 -9.17957,9.95936 l -8.59163,9.31745 -0.15877,-0.45315 c -0.0873,-0.24924 -1.73997,-4.94666 -3.67255,-10.43872 l -3.51378,-9.98555 -2.89623,-6.1985 c -1.59293,-3.40917 -2.96825,-6.3362 -3.05625,-6.50452 -0.15403,-0.29459 -0.36564,-0.12715 -5.66085,4.4793 -3.02546,2.63193 -5.63772,4.91747 -5.80502,5.07898 -0.29091,0.28085 -0.40082,1.15693 -2.52018,20.08812 l -2.216,19.79446 0.25874,16.39636 c 0.19656,12.45607 0.22123,16.43345 0.10265,16.55072 -0.0859,0.0849 -1.48574,1.10579 -3.11086,2.26868 -1.62512,1.16287 -3.24185,2.32244 -3.59273,2.57681 l -0.63796,0.46247 z"
   id="path870"
   inkscape:connector-curvature="0" /><path
   style="fill:#000000;fill-opacity:1;stroke-width:0.13430744"
   d="m 171.51605,93.214884 c 0,-3.804259 0.0322,-6.916834 0.0715,-6.916834 0.0393,0 0.29617,0.09537 0.57081,0.21194 1.28422,0.545075 2.65304,0.987019 4.06375,1.312038 1.74189,0.40132 8.01147,1.317592 11.14225,1.628391 2.95332,0.293182 5.47551,0.722043 6.10686,1.03838 0.29775,0.149187 0.97554,0.624651 1.5062,1.056587 0.53066,0.431935 1.6472,1.127557 2.48121,1.545825 0.834,0.418268 1.941,1.047642 2.46,1.39861 1.67646,1.133691 4.64015,3.910581 5.55555,5.205398 l 0.3086,0.436501 H 188.6494 171.51605 Z"
   id="path872"
   inkscape:connector-curvature="0" /><path
   style="fill:#000000;fill-opacity:1;stroke-width:0.13430744"
   d="m 93.751613,99.292296 c 0.299922,-0.64374 0.680963,-1.116504 1.634566,-2.028032 1.101812,-1.053197 1.452629,-1.293387 3.079366,-2.108306 1.605145,-0.804105 1.960865,-0.931021 2.830205,-1.009799 l 0.99432,-0.0901 0.67445,-0.823508 c 0.37096,-0.45293 1.06386,-1.165054 1.53979,-1.582498 1.86668,-1.63729 6.40122,-2.834068 11.41436,-3.012532 2.15251,-0.07663 2.47644,-0.12214 3.95607,-0.555836 1.59277,-0.466858 1.63434,-0.471587 3.55915,-0.404879 2.72283,0.09436 5.30479,-0.265906 6.60758,-0.921983 l 0.91373,-0.460147 v 3.270401 c 0,1.79872 -0.0399,4.912055 -0.0887,6.918522 l -0.0887,3.648121 H 112.06913 93.360523 Z"
   id="path874"
   inkscape:connector-curvature="0" /><path
   style="fill:#ffffff;stroke:#000000;stroke-width:1px;stroke-linecap:butt;stroke-linejoin:miter;stroke-opacity:1"
   d="m 131.5,85.4 10.59728,12.214875 17.86289,0.402923 10.99649,-12.947458 -0.92343,123.48249 -38.68054,-1.34307 z"
   id="path876"
   inkscape:connector-curvature="0" /><path
   style="fill:none;stroke:#000000;stroke-width:1px;stroke-linecap:butt;stroke-linejoin:miter;stroke-opacity:1"
   d="m 142.09728,97.614875 -2.41753,4.566455 6.71537,7.78983 8.72999,0.13431 7.11829,-7.65553 -2.28323,-4.432142 z"
   id="path892"
   inkscape:connector-curvature="0" /><path
   style="fill:none;stroke:#000000;stroke-width:1px;stroke-linecap:butt;stroke-linejoin:miter;stroke-opacity:1"
   d="m 139.67975,102.18133 -8.32706,-5.237992 z"
   id="path894"
   inkscape:connector-curvature="0" /><path
   style="fill:none;stroke:#000000;stroke-width:1px;stroke-linecap:butt;stroke-linejoin:miter;stroke-opacity:1"
   d="m 162.2434,102.44994 8.72999,-4.835065 z"
   id="path896"
   inkscape:connector-curvature="0" /><path
   style="fill:none;stroke:#000000;stroke-width:1px;stroke-linecap:butt;stroke-linejoin:miter;stroke-opacity:1"
   d="m 146.39512,109.97116 -1.34307,45.66453 3.22338,6.84968 4.83506,-7.2526 2.01462,-45.1273 z"
   id="path898"
   inkscape:connector-curvature="0" /><path
   style="fill:#225500;fill-opacity:1;stroke-width:0.13430744"
   d="m 148.41517,109.42435 -1.81315,-0.05 -3.11722,-3.63377 -3.11723,-3.63377 0.99768,-1.89414 0.99768,-1.894133 5.14146,0.04315 c 2.82781,0.02373 6.70799,0.08417 8.62263,0.134307 l 3.48117,0.09116 0.97793,1.880306 0.97794,1.8803 -3.31749,3.58418 -3.31749,3.58417 -2.35038,-0.0209 c -1.29271,-0.0115 -3.1663,-0.0434 -4.16353,-0.0709 z"
   id="path900"
   inkscape:connector-curvature="0" /><path
   style="fill:#225500;fill-opacity:1;stroke-width:0.13430744"
   d="m 146.9814,158.41868 -1.36662,-2.91635 0.65875,-22.21228 c 0.36231,-12.21675 0.65999,-22.31804 0.6615,-22.44731 0.003,-0.21825 0.27443,-0.23504 3.80552,-0.23504 h 3.80275 l -0.0453,0.77227 c -0.0249,0.42474 -0.47005,10.41218 -0.98915,22.1943 l -0.94382,21.42204 -2.10849,3.16936 -2.10849,3.16937 z"
   id="path902"
   inkscape:connector-curvature="0" /><path
   style="fill:#000000;stroke:#000000;stroke-width:1px;stroke-linecap:butt;stroke-linejoin:miter;stroke-opacity:1"
   d="m 120.6,203.7 -1.93369,3.04651 -3.66694,8.0469 L 113.2,223 l -1.76571,7.27605 -2.24091,9.98223 -1.32417,6.51901 -1.22232,10.89897 -0.50929,11.61198 -0.20372,13.54731 0.61115,17.21426 1.12046,14.76962 2.44463,26.38161 3.15764,29.02996 6.51901,64.3752 5.09297,42.98471 18.94587,0.20372 0.81488,-230.71176 L 154.8,247.2 l 0.23015,231.9188 h 19.76075 l 0.30558,-4.99111 2.44462,-19.14959 3.15765,-31.88202 4.07438,-39.41963 4.78739,-42.27169 1.93533,-23.6314 1.42604,-30.86343 -0.20372,-28.31694 -0.91674,-9.37107 -4.37996,-20.16818 L 185.3,219.2 179.2,205.7 Z"
   id="path904"
   inkscape:connector-curvature="0" /></svg>