<?xml version="1.0" encoding="UTF-8" standalone="no"?>
<!-- Generator: Adobe Illustrator 23.0.1, SVG Export Plug-In . SVG Version: 6.00 Build 0)  -->

<svg
   xmlns:dc="http://purl.org/dc/elements/1.1/"
   xmlns:cc="http://creativecommons.org/ns#"
   xmlns:rdf="http://www.w3.org/1999/02/22-rdf-syntax-ns#"
   xmlns:svg="http://www.w3.org/2000/svg"
   xmlns="http://www.w3.org/2000/svg"
   xmlns:sodipodi="http://sodipodi.sourceforge.net/DTD/sodipodi-0.dtd"
   xmlns:inkscape="http://www.inkscape.org/namespaces/inkscape"
   version="1.1"
   id="Layer_1"
   x="0px"
   y="0px"
   viewBox="0 0 300 500"
   style="enable-background:new 0 0 300 500;"
   xml:space="preserve"
   sodipodi:docname="female_apple_suit.svg"
   inkscape:version="0.92.3 (2405546, 2018-03-11)"><metadata
   id="metadata855"><rdf:RDF><cc:Work
       rdf:about=""><dc:format>image/svg+xml</dc:format><dc:type
         rdf:resource="http://purl.org/dc/dcmitype/StillImage" /><dc:title></dc:title></cc:Work></rdf:RDF></metadata><defs
   id="defs853" /><sodipodi:namedview
   pagecolor="#ffffff"
   bordercolor="#666666"
   borderopacity="1"
   objecttolerance="10"
   gridtolerance="10"
   guidetolerance="10"
   inkscape:pageopacity="0"
   inkscape:pageshadow="2"
   inkscape:window-width="1920"
   inkscape:window-height="1001"
   id="namedview851"
   showgrid="false"
   inkscape:zoom="3.0136966"
   inkscape:cx="120.90107"
   inkscape:cy="390.30329"
   inkscape:window-x="-9"
   inkscape:window-y="-9"
   inkscape:window-maximized="1"
   inkscape:current-layer="Layer_1" />
<style
   type="text/css"
   id="style836">
	.st0{opacity:0.14;fill:#422200;enable-background:new    ;}
	.st1{fill:#EE537B;}
	.st2{fill:#C68642;}
</style>
<path
   class="st0"
   d="M132.93,121.21c4.4,5.3,9.9,8.1,16.6,8.1c6.9,0,12.5-2.6,17.1-7.8c-0.1-0.5-0.3-1-0.4-1.4  c-0.1-0.6-0.2-1.4-0.3-2.1l-32-0.2C133.63,119.01,133.23,120.21,132.93,121.21z"
   id="path838" />


<path
   style="fill:#000000;stroke:#000000;stroke-width:1px;stroke-linecap:butt;stroke-linejoin:miter;stroke-opacity:1"
   d="m 123.83,85.93 -2.5197,-0.01597 -4.69076,0.577325 -5.41242,1.659808 -2.59796,1.515476 -2.74229,2.453629 -4.69076,6.855728 -2.814455,5.701084 -3.319616,8.01037 -17.247568,41.42303 -11.762986,28.14457 17.247569,16.67024 5.19592,-12.84547 4.329933,-10.17534 L 96.03,168.83 l 3,-2.6 -0.524014,7.72601 -3.103119,11.32999 -0.865986,5.70108 L 94.43,196.43 l 0.02,10.2 -0.490444,3.48095 30.210334,25.13697 z"
   id="path857"
   inkscape:connector-curvature="0" /><path
   style="fill:#000000;stroke:#000000;stroke-width:1px;stroke-linecap:butt;stroke-linejoin:miter;stroke-opacity:1"
   d="m 176.23,86.13 3.64227,0.246676 3.14983,0.414452 2.98406,0.663124 3.80264,1.659618 3.01383,2.44874 3.70451,3.516141 3.2022,5.713729 3.89287,8.35083 8.16247,18.33416 6.65555,16.07379 11.65803,28.7942 3.90225,10.02475 -16.75277,16.07997 -6.52618,-14.80164 L 204.73,170.63 l -1.6,-1.5 0.45986,6.17579 3.29673,15.20533 -0.20184,8.1409 0.14525,8.67798 -30.55716,26.02488 z"
   id="path859"
   inkscape:connector-curvature="0" /><path
   style="fill:#ffffff;stroke:#000000;stroke-width:1px;stroke-linecap:butt;stroke-linejoin:miter;stroke-opacity:1"
   d="m 123.83,85.93 17.88318,19.40642 14.88633,-0.11721 L 176.23,86.13 l -0.52442,122.00415 -51.10582,-1.28937 z"
   id="path865"
   inkscape:connector-curvature="0" /><path
   style="fill:#447821;stroke:#000000;stroke-width:1px;stroke-linecap:butt;stroke-linejoin:miter;stroke-opacity:1"
   d="m 141.71318,105.33642 -3.51646,5.86076 6.9157,6.9157 8.32228,-0.23443 6.32962,-6.21241 -3.16481,-6.44683 z"
   id="path867"
   inkscape:connector-curvature="0" /><path
   style="fill:none;stroke:#000000;stroke-width:1px;stroke-linecap:butt;stroke-linejoin:miter;stroke-opacity:1"
   d="m 123.31039,100.17895 14.88633,11.01823 3.51646,-5.86076 14.88633,-0.11721 3.16481,6.44683 16.05848,-7.61899 L 176.23,86.13 156.59951,105.21921 141.71318,105.33642 123.83,85.93 Z"
   id="path869"
   inkscape:connector-curvature="0" /><path
   style="fill:#447821;stroke:#000000;stroke-width:1px;stroke-linecap:butt;stroke-linejoin:miter;stroke-opacity:1"
   d="m 145.11242,118.11288 -1.40658,42.19747 3.75088,8.08785 3.98532,-7.61899 1.99266,-42.90076 z"
   id="path871"
   inkscape:connector-curvature="0" /><path
   style="fill:#000000;stroke:#000000;stroke-width:1px;stroke-linecap:butt;stroke-linejoin:miter;stroke-opacity:1"
   d="M 94.00659,205.4382 206.83,207.33 l 0.40647,7.48542 v 18.63722 l -1.17215,19.45772 -1.33022,21.38452 -2.48809,27.99099 -3.02125,27.81327 -4.53188,35.36639 -2.84352,20.349 -5.06504,25.32519 -5.5982,20.70444 -7.46426,26.74695 -19.54927,-0.71089 L 154.03,237.33 l -7.5,0.4 -0.44369,220.41681 h -19.99357 l -3.82099,-14.66195 -5.95364,-21.50419 -6.9311,-32.96717 -4.62073,-28.07985 -2.57695,-19.10496 -4.798458,-45.67418 -1.599485,-21.68191 -1.066323,-20.43787 -1.332905,-27.54669 z"
   id="path873"
   inkscape:connector-curvature="0" /></svg>