<?xml version="1.0" encoding="UTF-8" standalone="no"?>
<!-- Generator: Adobe Illustrator 23.0.1, SVG Export Plug-In . SVG Version: 6.00 Build 0)  -->

<svg
   xmlns:dc="http://purl.org/dc/elements/1.1/"
   xmlns:cc="http://creativecommons.org/ns#"
   xmlns:rdf="http://www.w3.org/1999/02/22-rdf-syntax-ns#"
   xmlns:svg="http://www.w3.org/2000/svg"
   xmlns="http://www.w3.org/2000/svg"
   xmlns:sodipodi="http://sodipodi.sourceforge.net/DTD/sodipodi-0.dtd"
   xmlns:inkscape="http://www.inkscape.org/namespaces/inkscape"
   version="1.1"
   id="Layer_1"
   x="0px"
   y="0px"
   viewBox="0 0 300 500"
   style="enable-background:new 0 0 300 500;"
   xml:space="preserve"
   sodipodi:docname="female_hourglass_dress.svg"
   inkscape:version="0.92.3 (2405546, 2018-03-11)"><metadata
   id="metadata19"><rdf:RDF><cc:Work
       rdf:about=""><dc:format>image/svg+xml</dc:format><dc:type
         rdf:resource="http://purl.org/dc/dcmitype/StillImage" /><dc:title></dc:title></cc:Work></rdf:RDF></metadata><defs
   id="defs17" /><sodipodi:namedview
   pagecolor="#ffffff"
   bordercolor="#666666"
   borderopacity="1"
   objecttolerance="10"
   gridtolerance="10"
   guidetolerance="10"
   inkscape:pageopacity="0"
   inkscape:pageshadow="2"
   inkscape:window-width="1920"
   inkscape:window-height="1017"
   id="namedview15"
   showgrid="false"
   inkscape:zoom="2.67"
   inkscape:cx="94.790771"
   inkscape:cy="391.81345"
   inkscape:window-x="-8"
   inkscape:window-y="-8"
   inkscape:window-maximized="1"
   inkscape:current-layer="Layer_1"
   inkscape:measure-start="0,0"
   inkscape:measure-end="0,0" />
<style
   type="text/css"
   id="style2">
	.st0{fill:#EE537B;}
	.st1{fill:#C68642;}
	.st2{opacity:0.14;fill:#422200;}
</style>


<g
   id="g4958"><path
     d="m 115.38477,136.96094 c -0.0906,0.002 -0.18516,0.0141 -0.28516,0.0391 -0.3,0.1 -0.60039,0.29961 -0.90039,0.59961 -0.7,4.5 -0.49844,9.00117 1.60156,13.20117 3,5 8.09922,6.5 13.19922,8 6.6,-0.3 10.99961,-4.6 15.59961,-8.5 3.2,0.1 6.3,0.0992 9.5,0.19922 5.1,3.7 10.00039,8.1 16.90039,8 4.8,-1.2 9.20039,-3.09961 11.90039,-7.59961 L 186.19922,141.5 c -1.4,-1.3 7.8e-4,-5.00078 -3.69922,-4.30078 -10.6,-1 -20.00039,1.70117 -28.40039,8.20117 -3.2,-1 -6.3,-0.90039 -9.5,0.0996 -8.1,-7.5 -17.90039,-9.20078 -28.40039,-8.30078 -0.3,-0.15 -0.54258,-0.24297 -0.81445,-0.23828 z m 0.51562,60.83984 c -3.3,4.5 -6.6,9.09922 -10,13.69922 7.7,17.1 23.09922,24.89961 38.69922,32.59961 3.1,-0.1 6.30039,-0.0992 9.40039,-0.19922 16.5,-5.9 29.19961,-16.7 39.59961,-30.5 -2.3,-6 -6.69883,-10.69961 -10.79883,-15.59961 -7.1,4.6 -14.10039,9.49883 -21.40039,13.79883 -7.6,4.6 -14.90117,4.70117 -23.20117,0.20117 -7.8,-4.2 -14.49883,-9.9 -22.29883,-14 z"
     id="path4642"
     inkscape:connector-curvature="0" /><path
     d="m 119.71875,116.05664 -4.31836,22.54297 0.40039,12.20117 2.50977,3.84766 6.19726,3.3789 4.49219,0.77344 2.26758,7.67774 0.28125,7.32421 -1.68945,5.91602 c 0,0 -2.2541,5.63433 -3.38086,5.91602 -1.12676,0.28169 -6.75977,7.32226 -6.75977,7.32226 L 115.80078,198 106,211.59961 103.38086,220 l -1.4082,9.57812 -0.84571,10.98438 -0.28125,10.70508 v 20.28125 l 0.84375,16.05664 1.97266,22.53515 4.22461,47.32422 3.09961,27.60547 3.94336,28.45117 4.22461,26.75977 3.94336,22.53516 53.52148,2.53515 11.83203,-81.4082 5.63281,-53.52148 3.38086,-40.84376 0.5625,-51.26757 -1.68945,-18.87305 -5.07031,-11.26758 -8.4668,-10.36914 -8.15234,-9.91406 -5.91602,-7.32422 -1.97265,-9.01367 L 171,158.5 176.61914,156.90234 183,151.30078 184.19922,139.5 176.61914,116.90234 Z"
     style="fill:none;stroke:#000000;stroke-width:1px;stroke-linecap:butt;stroke-linejoin:miter;stroke-opacity:1"
     id="path54"
     inkscape:connector-curvature="0" /><path
     inkscape:connector-curvature="0"
     id="path56"
     d="m 119.71831,116.05634 2.53521,-26.478875 h 5.91549 l 23.66198,6.478873 18.59155,-7.605634 5.6338,3.380282 0.56338,25.070424"
     style="fill:none;stroke:#000000;stroke-width:1px;stroke-linecap:butt;stroke-linejoin:miter;stroke-opacity:1" /><path
     inkscape:connector-curvature="0"
     id="path60"
     d="m 156.81339,115.99857 c -2.6338,-0.0429 -11.8555,-0.18342 -20.49267,-0.31217 -8.63717,-0.12876 -15.75138,-0.28704 -15.80936,-0.35175 -0.0762,-0.0851 2.20891,-24.47746 2.3399,-24.976809 0.0102,-0.03873 1.2653,-0.07042 2.7892,-0.07042 2.65826,0 3.24711,0.130366 14.50724,3.211767 l 11.73652,3.211767 9.26234,-3.78886 9.26235,-3.788861 2.49801,1.512864 2.49802,1.512864 0.19392,7.444511 c 0.10665,4.094477 0.23341,9.504537 0.28169,12.022357 l 0.0878,4.57785 -7.18309,-0.0635 c -3.95071,-0.0349 -9.33803,-0.0986 -11.97184,-0.14159 z"
     style="fill:#ff5555;stroke-width:0.28169015" /><path
     inkscape:connector-curvature="0"
     id="path62"
     d="m 146.25001,147.51238 c -0.54225,-0.1175 -2.69718,-1.05918 -4.78873,-2.09262 -5.51908,-2.727 -8.83713,-3.72995 -19.33568,-5.8446 -3.05474,-0.6153 -5.57771,-1.11873 -5.60659,-1.11873 -0.0289,0 0.0402,-0.50704 0.15354,-1.12676 0.11332,-0.61972 0.11921,-1.12676 0.0131,-1.12676 -0.10613,0 0.63976,-4.37276 1.65754,-9.71724 l 1.85052,-9.71724 5.49295,0.0174 c 9.54893,0.0302 50.40211,0.71055 50.51673,0.84125 0.0603,0.0688 1.5741,4.52783 3.3639,9.90889 2.77454,8.34172 3.20796,9.88168 2.94059,10.44822 -0.27427,0.58118 -0.73908,0.74515 -3.70824,1.30813 -8.41341,1.59527 -16.18793,3.97051 -21.84056,6.67265 l -3.24425,1.55085 -3.23943,0.10511 c -1.78169,0.0578 -3.6831,0.009 -4.22536,-0.10853 z m 20.42254,-20.60524 c -0.0958,-0.15493 -0.51521,-0.26906 -0.93212,-0.25361 l -0.75802,0.0281 0.70422,0.22554 c 0.99986,0.32021 1.18382,0.32021 0.98592,0 z"
     style="fill:#ff5555;stroke-width:0.28169015" /><path
     inkscape:connector-curvature="0"
     id="path64"
     d="m 145.00976,216.61445 c -6.41895,-1.21407 -12.98203,-4.52272 -19.74566,-9.9544 -3.78332,-3.03827 -8.92626,-7.94084 -8.76661,-8.35687 0.51241,-1.33532 8.35297,-10.5427 10.54355,-12.38157 1.2872,-1.08054 2.94073,-4.50923 4.16016,-8.62637 l 1.02594,-3.46384 -0.19724,-3.81425 c -0.17028,-3.29283 -0.35444,-4.34658 -1.34717,-7.70845 l -1.14992,-3.89422 0.82339,-0.67981 c 2.7347,-2.25783 9.25793,-6.22314 13.49945,-8.20598 1.58419,-0.74059 1.9197,-0.78956 5.35211,-0.78121 l 3.66197,0.009 3.94366,1.77012 c 4.53826,2.037 8.69916,4.29536 11.59803,6.2949 1.89576,1.30763 2.00546,1.44032 1.77606,2.14818 -0.13448,0.41495 -1.07542,3.29751 -2.09098,6.40568 -1.01557,3.10817 -1.84649,5.90027 -1.84649,6.20466 0,1.14107 1.89856,9.11647 2.31959,9.74404 0.24117,0.35948 3.43267,4.30516 7.09223,8.76818 l 6.65374,8.11458 -2.04686,2.25591 c -3.34205,3.68337 -8.30405,7.98702 -12.2892,10.65869 -2.79568,1.87424 -7.85688,4.17844 -10.91596,4.9697 -3.55502,0.91952 -8.76371,1.14571 -12.05379,0.52343 z"
     style="fill:#ff5555;stroke-width:0.28169015" /><path
     inkscape:connector-curvature="0"
     id="path66"
     d="m 126.46893,157.74492 c -1.26572,-0.2519 -2.85385,-0.9017 -4.78873,-1.95934 -2.66509,-1.4568 -2.99244,-1.73014 -4.12244,-3.44234 l -1.22746,-1.85988 0.31197,-1.5534 c 0.42038,-2.09323 0.38549,-4.0239 -0.11546,-6.38892 -0.2297,-1.08444 -0.40038,-2.66895 -0.37928,-3.52112 0.0211,-0.85217 0.0899,-1.29008 0.1529,-0.97314 0.10079,0.50714 0.69594,0.68942 4.96164,1.51962 10.52314,2.04803 16.10504,3.75838 21.28394,6.52163 2.15903,1.15198 3.03528,1.45573 4.85915,1.68442 3.08265,0.38653 6.21992,-0.0352 8.38257,-1.12694 5.58633,-2.81997 13.68123,-5.36635 22.43412,-7.05701 1.70422,-0.32918 3.3838,-0.6576 3.73239,-0.72981 0.35729,-0.074 0.63771,-0.34402 0.64276,-0.61889 0.008,-0.43136 0.0598,-0.42261 0.44966,0.0758 0.36368,0.46491 0.40972,1.06907 0.26345,3.45678 -0.0975,1.59137 -0.30919,3.23926 -0.47044,3.66197 -0.51188,1.34186 -0.75512,3.1653 -0.54622,4.09468 0.11118,0.49459 0.15269,1.0466 0.0923,1.2267 -0.0604,0.1801 -1.46568,1.52017 -3.12278,2.97792 -2.95494,2.59946 -3.06463,2.66497 -5.70036,3.40493 -1.4781,0.41497 -2.83515,0.75448 -3.01566,0.75448 -0.18052,0 -1.06272,-0.51627 -1.96044,-1.14726 -4.88807,-3.43573 -13.97812,-7.73967 -17.28691,-8.18496 -3.74253,-0.50367 -5.89677,-0.0229 -10.38707,2.31838 -3.94079,2.05472 -9.60768,5.65326 -10.5512,6.70014 -0.61003,0.67684 -1.19773,0.70184 -3.89236,0.16557 z"
     style="fill:#ff5555;stroke-width:0.28169015" /><path
     d="m 182.51367,198.43945 -4.40039,4.32032 c -8.32975,8.17971 -14.85147,12.17879 -22.69336,13.91406 -2.71529,0.60088 -8.37854,0.5851 -11.24609,-0.0312 -7.97995,-1.7152 -16.65768,-7.00738 -24.97656,-15.23438 l -2.9668,-2.93554 -4.87305,6.76562 -4.87109,6.76367 7.55859,7.77539 c 9.78236,10.06266 14.16265,13.66783 19.95117,16.41797 1.23944,0.58886 3.26574,1.54823 4.50196,2.13086 2.39715,1.12978 5.19037,3.49599 5.76562,4.88477 l 0.32227,0.77734 4.70508,-0.11523 c 3.88854,-0.0954 4.75352,-0.19199 4.98632,-0.5586 0.8688,-1.36815 2.08188,-2.2512 5.64258,-4.11133 11.46893,-5.99142 21.53426,-14.07527 27.82617,-22.34765 1.58656,-2.08594 2.44515,-2.79817 3.89453,-3.23242 0.59874,-0.17939 1.0879,-0.4195 1.0879,-0.53321 0,-0.11371 -0.47565,-1.23047 -1.05664,-2.48242 -0.79666,-1.71666 -2.05203,-3.49282 -5.10743,-7.22265 z"
     style="fill:#ff5555;stroke-width:0.28169015"
     id="path68"
     inkscape:connector-curvature="0" /><path
     d="m 106.48828,212.48438 c -0.64801,0.69371 -2.54973,8.05607 -3.17969,12.31054 -1.27421,8.60543 -1.58989,14.12379 -1.75586,30.70313 -0.21718,21.69601 -0.26533,20.9029 4.56055,75.21093 2.4371,27.42596 2.64402,29.64206 2.82813,30.49414 l 0.13671,0.63282 h 17.74024 17.74219 l -0.002,-58.94336 c -0.001,-57.48418 -0.0133,-58.96527 -0.53711,-59.82422 -1.23211,-2.02061 -2.91137,-3.2082 -8.33398,-5.89453 -8.46454,-4.19329 -11.91352,-6.95744 -22.40234,-17.95508 -3.63652,-3.81293 -6.69539,-6.84303 -6.79688,-6.73437 z"
     style="fill:#ff5555;stroke-width:0.28169015"
     id="path70"
     inkscape:connector-curvature="0" /><path
     inkscape:connector-curvature="0"
     id="path72"
     d="m 154.41903,302.49732 v -59.33939 l 1.09285,-1.0396 c 0.60106,-0.57178 2.4074,-1.71383 4.01408,-2.53789 6.36252,-3.2633 12.7739,-7.48105 17.61913,-11.5908 3.0689,-2.60306 8.06642,-7.70112 10.44973,-10.65997 2.14303,-2.66054 3.40688,-3.66197 4.62157,-3.66197 0.75144,0 0.91035,0.20683 2.11015,2.74648 l 1.29752,2.74648 0.89,9.57746 0.89001,9.57747 -0.24134,24.92957 -0.24133,24.92958 -1.67961,20.56338 c -0.92378,11.30986 -2.43782,27.78873 -3.36452,36.61972 -0.92671,8.83099 -1.68462,16.15141 -1.68426,16.26761 3.7e-4,0.11619 -8.04863,0.21126 -17.88666,0.21126 h -17.88732 z"
     style="fill:#ff5555;stroke-width:0.28169015" /><path
     inkscape:connector-curvature="0"
     id="path74"
     d="m 163.36269,464.13971 -8.94366,-0.42662 V 412.7749 361.83671 h 17.90009 17.90009 l -0.14976,0.9155 c -0.0824,0.50352 -0.60573,5.35211 -1.16303,10.77464 -0.69752,6.78686 -2.76192,21.9289 -6.62475,48.59155 -5.03193,34.73224 -5.86742,40.25789 -6.35692,42.04226 -0.16061,0.58546 0.16199,0.586 -12.56206,-0.021 z"
     style="fill:#ff5555;stroke-width:0.28169015" /><path
     inkscape:connector-curvature="0"
     id="path76"
     d="m 133.37621,462.71142 c -5.25274,-0.25395 -9.46614,-0.57566 -9.6115,-0.73386 -0.65595,-0.71394 -7.00152,-39.78249 -10.17993,-62.67606 -1.55595,-11.20726 -4.51786,-35.57284 -4.51786,-37.16531 0,-0.20834 5.40065,-0.29948 17.74647,-0.29948 h 17.74648 l 2.9e-4,35.28169 c 1.5e-4,19.40493 0.0843,42.22184 0.18694,50.70423 l 0.18667,15.42253 -1.10244,-0.0408 c -0.60634,-0.0224 -5.31115,-0.24427 -10.45512,-0.49296 z"
     style="fill:#ff5555;stroke-width:0.28169015" /><path
     inkscape:connector-curvature="0"
     id="path78"
     d="m 146.92741,463.31942 -1.71697,-0.0989 -0.1835,-4.4243 c -0.10092,-2.43338 -0.18392,-51.7377 -0.18444,-109.56516 l -9.4e-4,-105.14084 h 4.64789 4.64789 v 109.7183 109.71831 l -2.74648,-0.0543 c -1.51056,-0.0299 -3.51912,-0.0988 -4.46345,-0.15316 z"
     style="fill:#ff5555;stroke-width:0.28169015" /><path
     d="m 122.02734,116.91602 c -1.06651,0.008 -1.67169,0.0235 -1.69531,0.0508 -0.22079,0.25468 -3.36497,17.11854 -3.50781,18.81445 -0.0522,0.61971 -0.10735,1.48277 -0.12305,1.91797 -0.0163,0.45023 -0.15025,0.71629 -0.31055,0.61719 -0.40855,-0.2525 -0.35494,0.98203 0.19336,4.4414 0.41284,2.60475 0.43158,3.37294 0.13477,5.42578 l -0.3457,2.39063 1.13086,1.66601 c 1.33615,1.96757 1.91397,2.40946 5.31836,4.06641 3.02301,1.47131 6.21183,2.16709 7.0664,1.54297 2.06178,-1.5058 3.1211,-2.21653 3.1211,-2.0957 0,0.0775 -0.53881,0.52362 -1.19727,0.99218 -2.46281,1.75252 -2.3351,1.2101 -1.19141,5.13086 1.10292,3.78097 1.53997,6.69663 1.54297,10.30274 0.002,1.93401 -0.17803,2.86571 -1.09179,5.64843 -1.60583,4.89031 -2.52734,6.51743 -5.39844,9.53126 -2.93794,3.08395 -8.36968,9.54776 -8.80274,10.47656 -0.27469,0.58914 -0.0626,0.89363 2.35547,3.38086 l 2.65625,2.73242 -2.8164,-2.74219 -2.81836,-2.74414 -4.87305,6.76758 -4.87109,6.76562 6.14062,6.34375 c 3.37737,3.48894 7.59917,7.6523 9.38086,9.25391 1.78169,1.6016 3.6192,3.25662 4.08399,3.67578 0.46478,0.41917 0.0207,0.14952 -0.98633,-0.59765 -1.00704,-0.74719 -5.59884,-5.15258 -10.20508,-9.79102 l -8.375,-8.43359 -0.43164,1.0332 c -0.23757,0.56859 -0.86435,2.79404 -1.39258,4.94531 -2.00756,8.17596 -2.61288,14.72696 -2.99414,32.42578 -0.37866,17.57807 -0.16207,25.35597 1.16016,41.68946 1.19123,14.71513 5.79981,66.57307 6.06445,68.24023 l 0.16797,1.05469 h 17.74219 17.74414 l -0.0957,-58.80274 c -0.10768,-66.17496 0.1348,-59.83849 -2.37109,-61.98047 -0.75382,-0.64434 -2.73658,-1.87959 -4.4043,-2.74609 -1.66772,-0.8665 -3.03125,-1.63684 -3.03125,-1.71094 0,-0.0741 1.3903,0.57793 3.08985,1.44727 3.37323,1.72545 5.64664,3.55392 6.50195,5.23047 0.53935,1.05747 0.54883,2.13251 0.54883,59.82031 v 58.74219 h 4.64843 4.64844 v -58.87305 c 0,-52.14397 -0.0496,-58.87305 -0.42383,-58.87305 -0.61901,0 -0.51588,-0.47285 0.14063,-0.64453 0.56238,-0.14699 0.56445,-0.009 0.56445,59.15235 v 59.30078 l 17.72266,-0.10156 c 9.74765,-0.0555 17.78377,-0.16469 17.85937,-0.24219 0.3807,-0.39021 3.70095,-35.06466 5.66407,-59.1543 l 1.25195,-15.35156 0.18164,-24.78906 0.17969,-24.78907 -0.875,-9.24804 -0.875,-9.24805 -1.27735,-2.54297 c -0.81416,-1.6211 -1.47869,-2.59755 -1.83007,-2.68945 -0.48994,-0.12812 -0.50221,-0.18008 -0.10743,-0.46875 0.82387,-0.60243 -1.44536,-4.46042 -5.86133,-9.96485 l -3.9375,-4.9082 -2.41992,2.35156 -2.42187,2.35157 2.17578,-2.29102 c 1.19646,-1.26038 2.17578,-2.42687 2.17578,-2.5918 0,-0.16492 -1.49481,-2.11257 -3.32031,-4.32812 -1.82551,-2.21555 -4.91553,-6.00531 -6.86719,-8.42188 l -3.54883,-4.39258 -1.01953,-4.24804 c -0.56087,-2.33567 -1.02048,-4.60508 -1.02148,-5.04297 -0.001,-0.43789 0.90947,-3.63598 2.02539,-7.10742 l 2.02929,-6.31055 -0.91406,-0.76562 c -0.50341,-0.42027 -2.04977,-1.43558 -3.43555,-2.25586 -1.38575,-0.82027 -2.51953,-1.5357 -2.51953,-1.5918 0,-0.20111 1.87728,0.86231 4.43946,2.51562 l 2.60742,1.68164 2.32031,-0.625 c 3.09607,-0.8333 3.64915,-1.15021 6.80469,-3.91406 l 2.70117,-2.36718 0.004,-1.85743 c 0.002,-1.02249 0.1824,-2.53505 0.40234,-3.36133 0.68749,-2.58284 0.85761,-6.28979 0.33984,-7.40039 -0.24547,-0.52652 -0.88839,-2.41557 -1.42968,-4.19726 -0.5413,-1.78169 -1.98334,-6.21854 -3.20313,-9.85938 l -2.2168,-6.61914 -6.17382,-0.1875 c -10.5219,-0.31921 -40.53638,-0.70326 -48.00196,-0.64843 z m 43.71289,9.72851 c 0.41691,-0.0109 0.83585,0.10679 0.93165,0.26172 0.20783,0.33629 -0.34436,0.33629 -1.12696,0 -0.50305,-0.2162 -0.48154,-0.24402 0.19531,-0.26172 z m 16.8086,11.48047 c 0.14583,0.0218 0.0498,0.19116 -0.36719,0.49609 -0.3005,0.21973 -0.80797,0.39869 -1.12695,0.39844 -0.43523,-3.2e-4 -0.33361,-0.12598 0.40625,-0.50586 0.55405,-0.28447 0.94205,-0.41045 1.08789,-0.38867 z m -63.92774,0.64844 c 0.0979,0.004 0.18172,0.0294 0.22852,0.0762 0.0936,0.0936 -0.0722,0.16064 -0.36914,0.14844 -0.32815,-0.0135 -0.39463,-0.08 -0.16992,-0.16993 0.10167,-0.0407 0.21268,-0.0587 0.31054,-0.0547 z m 1.15039,0.2832 c 0.12764,0 0.25474,0.0195 0.35157,0.0586 0.19367,0.0782 0.0357,0.14258 -0.35157,0.14258 -0.38731,0 -0.54522,-0.0644 -0.35156,-0.14258 0.0968,-0.0391 0.22392,-0.0586 0.35156,-0.0586 z m 60,0 c 0.12764,0 0.25474,0.0195 0.35157,0.0586 0.19367,0.0782 0.0358,0.14258 -0.35157,0.14258 -0.38731,0 -0.54522,-0.0644 -0.35156,-0.14258 0.0968,-0.0391 0.22392,-0.0586 0.35156,-0.0586 z m -58.59179,0.28125 c 0.12764,0 0.25473,0.0195 0.35156,0.0586 0.19367,0.0782 0.0358,0.14258 -0.35156,0.14258 -0.38731,0 -0.54521,-0.0644 -0.35157,-0.14258 0.0968,-0.0391 0.22393,-0.0586 0.35157,-0.0586 z m 57.18359,0 c 0.12764,0 0.25473,0.0195 0.35156,0.0586 0.19366,0.0782 0.0358,0.14258 -0.35156,0.14258 -0.38731,0 -0.54717,-0.0644 -0.35351,-0.14258 0.0968,-0.0391 0.22587,-0.0586 0.35351,-0.0586 z m -55.77539,0.28125 c 0.12764,0 0.25473,0.0195 0.35156,0.0586 0.19366,0.0782 0.0358,0.14258 -0.35156,0.14258 -0.38731,0 -0.54522,-0.0645 -0.35156,-0.14258 0.0968,-0.0391 0.22392,-0.0586 0.35156,-0.0586 z m 54.36719,0 c 0.12764,0 0.25473,0.0195 0.35156,0.0586 0.19366,0.0782 0.0358,0.14258 -0.35156,0.14258 -0.38731,0 -0.54719,-0.0645 -0.35352,-0.14258 0.0968,-0.0391 0.22588,-0.0586 0.35352,-0.0586 z m -52.95899,0.2832 c 0.12765,0 0.25473,0.0195 0.35157,0.0586 0.19366,0.0782 0.0358,0.14062 -0.35157,0.14062 -0.38731,0 -0.54522,-0.0625 -0.35156,-0.14062 0.0968,-0.0391 0.22392,-0.0586 0.35156,-0.0586 z m 51.54883,0 c 0.12764,0 0.25669,0.0195 0.35352,0.0586 0.19366,0.0782 0.0338,0.14062 -0.35352,0.14062 -0.38731,0 -0.54523,-0.0625 -0.35156,-0.14062 0.0968,-0.0391 0.22392,-0.0586 0.35156,-0.0586 z m -1.14844,0.2793 c 0.0979,0.004 0.18172,0.0294 0.22852,0.0762 0.0936,0.0936 -0.0741,0.16064 -0.37109,0.14844 -0.32815,-0.0135 -0.39464,-0.08 -0.16993,-0.16992 0.10167,-0.0407 0.21464,-0.0587 0.3125,-0.0547 z m -49.13281,0.0215 c 0.30986,0 0.88026,0.10057 1.26758,0.22461 0.55763,0.17864 0.58672,0.22657 0.14063,0.22657 -0.30987,0 -0.88025,-0.10252 -1.26758,-0.22657 -0.55763,-0.17853 -0.58673,-0.22461 -0.14063,-0.22461 z m 47.88867,0.27344 c 0.4529,0.007 0.42355,0.0511 -0.14257,0.23242 -0.96312,0.30846 -1.70219,0.30846 -0.98438,0 0.30986,-0.13315 0.81709,-0.23742 1.12695,-0.23242 z m -45.54101,0.25586 c 0.9087,-0.0525 9.34375,2.36291 9.34375,2.67578 0,0.18531 -0.33985,0.11018 -1.55078,-0.3457 -0.61971,-0.23331 -2.70987,-0.84869 -4.64649,-1.36719 -1.93662,-0.5185 -3.35306,-0.95099 -3.14648,-0.96289 z m 43.40429,0.29492 c 0.0979,0.004 0.18172,0.0294 0.22852,0.0762 0.0936,0.0936 -0.0722,0.16063 -0.36914,0.14843 -0.32816,-0.0135 -0.39463,-0.082 -0.16992,-0.17187 0.10167,-0.0407 0.21269,-0.0568 0.31054,-0.0527 z m -1.12695,0.28125 c 0.0979,0.004 0.18172,0.0294 0.22852,0.0762 0.0936,0.0936 -0.0722,0.16063 -0.36914,0.14843 -0.32816,-0.0135 -0.39462,-0.08 -0.16993,-0.16992 0.10168,-0.0407 0.21269,-0.0587 0.31055,-0.0547 z m -2.8164,0.84375 c 0.0978,0.004 0.18171,0.0313 0.22851,0.0781 0.0936,0.0936 -0.0722,0.15868 -0.36914,0.14648 -0.32816,-0.0135 -0.39659,-0.08 -0.17187,-0.16992 0.10167,-0.0407 0.21464,-0.0587 0.3125,-0.0547 z m -29.69532,1.38282 c 0.15493,0 0.47074,0.12325 0.70313,0.27343 0.23235,0.15019 0.2975,0.27344 0.14258,0.27344 -0.15493,0 -0.47269,-0.12325 -0.70508,-0.27344 -0.23235,-0.15018 -0.29555,-0.27343 -0.14063,-0.27343 z m 24.50782,0.28125 c 0.15493,0 0.0898,0.12324 -0.14258,0.27343 -0.23239,0.15018 -0.5482,0.27344 -0.70313,0.27344 -0.15493,0 -0.0918,-0.12326 0.14063,-0.27344 0.2324,-0.15019 0.55015,-0.27343 0.70508,-0.27343 z m -18.97266,2.25781 c 0.10082,-0.007 0.86069,0.30364 1.68945,0.68945 0.82877,0.38581 1.31834,0.69641 1.08594,0.69141 -0.41966,-0.01 -3.12617,-1.35646 -2.77539,-1.38086 z m 8.93164,1.43945 c 0.56162,0.0108 0.89363,0.032 0.86133,0.0606 -0.27088,0.2389 -3.60532,0.36258 -4.90625,0.18164 -1.09565,-0.15236 -0.69313,-0.20583 1.80859,-0.24024 0.88439,-0.0121 1.67471,-0.0127 2.23633,-0.002 z m -2.77539,0.8711 c 0.51745,-1.5e-4 1.01899,0.0476 1.50195,0.14062 1.33479,0.25711 1.19883,0.2804 -1.64453,0.28125 -2.97063,8.1e-4 -3.03117,-0.0117 -1.45508,-0.28125 0.54583,-0.0933 1.08021,-0.14048 1.59766,-0.14062 z m 7.46289,1.91211 c 0.15493,0 0.47269,0.12129 0.70508,0.27148 0.23244,0.15018 0.29555,0.27344 0.14062,0.27344 -0.15492,0 -0.47269,-0.12326 -0.70507,-0.27344 -0.23235,-0.15019 -0.29556,-0.27148 -0.14063,-0.27148 z m -14.57422,0.0977 c 0.0429,-0.005 0.0684,1.9e-4 0.0684,0.0195 0,0.0775 -0.38091,0.33778 -0.8457,0.57813 -0.46479,0.24036 -0.84571,0.37242 -0.84571,0.29492 0,-0.0775 0.38092,-0.33777 0.84571,-0.57813 0.34859,-0.18026 0.6486,-0.29839 0.77734,-0.31445 z m 16.48242,0.75195 c 0.29942,-0.0195 4.71289,2.21189 4.71289,2.38282 0,0.0757 -0.0336,0.133 -0.0723,0.125 -0.30069,-0.0604 -4.80918,-2.49682 -4.64063,-2.50782 z m -18.94922,0.61719 c 0.0512,0.0537 -0.6145,0.51475 -1.76171,1.16797 -0.96831,0.55135 -2.17227,1.27225 -2.67579,1.60156 -0.50352,0.32931 -0.91601,0.53388 -0.91601,0.45508 0,-0.16631 3.09341,-2.14335 4.4375,-2.83594 0.59654,-0.30739 0.88531,-0.42091 0.91601,-0.38867 z m 38.16797,51.33985 -0.82617,0.91601 c -0.45505,0.50352 -0.86751,0.91602 -0.91601,0.91602 -0.21762,0 -0.0272,-0.23271 0.82617,-1.00391 z m -55.77343,0.56445 1.05468,0.9707 c 0.58098,0.53391 1.05664,1.00954 1.05664,1.05664 0,0.2151 -0.23707,0.0125 -1.14062,-0.9707 z m 52.48046,2.39453 c 0.0775,0 -0.0887,0.25264 -0.36914,0.5625 -0.28042,0.30986 -0.57289,0.56445 -0.65039,0.56445 -0.0775,0 0.0887,-0.25459 0.36914,-0.56445 0.28042,-0.30986 0.57289,-0.5625 0.65039,-0.5625 z m -49.93359,0.0215 c -0.0885,-0.14326 1.16461,0.72648 2.7832,1.9336 1.61859,1.20713 3.52123,2.53472 4.22852,2.94922 0.70729,0.4145 1.28516,0.80996 1.28516,0.88086 0,0.20708 -0.053,0.17962 -1.94336,-1.01954 -1.97802,-1.25477 -6.0979,-4.33054 -6.35352,-4.74414 z m 48.24414,1.38672 c 0.0775,0 -0.0887,0.25264 -0.36914,0.5625 -0.28042,0.30986 -0.57289,0.56446 -0.65039,0.56446 -0.0775,0 0.0887,-0.2546 0.36914,-0.56446 0.28042,-0.30986 0.57289,-0.5625 0.65039,-0.5625 z m -1.35547,1.12696 c 0.0145,0.0145 -0.0709,0.12817 -0.24609,0.35156 -0.36799,0.4692 -0.59961,0.61857 -0.59961,0.38672 0,-0.0585 0.22302,-0.27956 0.49414,-0.49219 0.22339,-0.1752 0.33702,-0.26063 0.35156,-0.24609 z m -1.12695,0.84375 c 0.0145,0.0145 -0.0709,0.13012 -0.24609,0.35351 -0.36799,0.4692 -0.59961,0.61857 -0.59961,0.38672 0,-0.0585 0.22302,-0.28151 0.49414,-0.49414 0.22339,-0.1752 0.33702,-0.26063 0.35156,-0.24609 z m -37.18359,2.66992 c 0,-0.12592 4.47934,2.0293 4.76562,2.29297 0.0646,0.0594 0.001,0.1018 -0.14062,0.0937 -0.36718,-0.02 -4.625,-2.21723 -4.625,-2.38672 z m 33.52148,0.002 c 0,0.26775 -5.21617,2.76273 -7.16211,3.42578 -2.91757,0.99412 -2.93389,0.77375 -0.0215,-0.29101 1.39436,-0.50977 3.5812,-1.45538 4.85937,-2.10157 1.27817,-0.6462 2.32422,-1.1108 2.32422,-1.0332 z m 24.78711,1.60938 c 0.0885,-0.009 0.1587,0.008 0.20508,0.0547 0.0951,0.0952 -0.007,0.17093 -0.22656,0.16993 -0.21949,-0.001 -1.4639,1.10793 -2.76563,2.46484 l -2.36719,2.4668 1.61914,-2.03516 c 1.34985,-1.69773 2.91589,-3.05643 3.53516,-3.12109 z m -53.16211,0.90234 c 0.0518,-0.0518 1.03212,0.23051 2.17773,0.62891 1.14561,0.39841 2.85118,0.89156 3.78907,1.0957 1.0324,0.22471 1.371,0.373 0.85937,0.375 -1.16625,0.004 -7.10345,-1.82233 -6.82617,-2.09961 z m 18.65625,1.57812 -0.84375,0.31055 c -0.46478,0.17167 -2.93781,0.34993 -5.49414,0.39453 l -4.64649,0.0801 4.50586,-0.21875 c 2.47887,-0.12082 4.9519,-0.29913 5.49414,-0.39453 z m 22.51172,9.80665 c 0.0162,0.008 -0.0204,0.0641 -0.11719,0.17187 -1.02666,1.14247 -5.36431,4.58098 -8.44922,6.69727 -3.0327,2.08048 -4.4992,3.00108 -4.08593,2.56836 0.15492,-0.16223 1.29571,-0.96644 2.53515,-1.78907 2.76034,-1.83208 6.09658,-4.34902 8.72656,-6.58203 0.81574,-0.69262 1.34189,-1.09163 1.39063,-1.0664 z m -52.22852,5.96875 c 0.0145,-0.0145 0.12818,0.0689 0.35157,0.24414 0.27112,0.21263 0.49218,0.43564 0.49218,0.49414 0,0.23185 -0.22965,0.0825 -0.59765,-0.38672 -0.17519,-0.22339 -0.26064,-0.33703 -0.2461,-0.35156 z m 39.10938,3.75195 c 0.0286,0.002 0.0449,0.01 0.0449,0.0293 0,0.0775 -0.25264,0.27754 -0.5625,0.44335 -0.30986,0.16568 -0.56445,0.23766 -0.56445,0.16016 0,-0.0775 0.25459,-0.27559 0.56445,-0.4414 0.23239,-0.12426 0.43175,-0.19595 0.51758,-0.19141 z m -1.4082,0.84375 c 0.0286,0.002 0.0449,0.012 0.0449,0.0312 0,0.0775 -0.2546,0.27753 -0.56446,0.44336 -0.30986,0.16567 -0.5625,0.23765 -0.5625,0.16015 0,-0.0775 0.25264,-0.27752 0.5625,-0.44336 0.2324,-0.12424 0.4337,-0.19594 0.51954,-0.1914 z m -1.45313,0.875 c 0.0572,-0.0123 0.0898,-0.0102 0.0898,0.01 0,0.0775 -0.50723,0.39869 -1.12695,0.71485 -0.61972,0.31616 -1.12695,0.51304 -1.12695,0.43555 0,-0.0775 0.50723,-0.40064 1.12695,-0.7168 0.46479,-0.23712 0.86546,-0.4063 1.03711,-0.44336 z m -3.58984,1.92578 c 0.0873,0.0322 -0.47582,0.43295 -1.51172,1.01758 -0.84125,0.47477 -1.98397,1.26264 -2.53907,1.75 -0.55508,0.48739 -0.93179,0.68611 -0.83789,0.4414 0.17345,-0.45199 2.32493,-1.97909 3.99024,-2.83007 0.55868,-0.28549 0.84608,-0.39823 0.89844,-0.37891 z"
     style="fill:#ff5555;stroke-width:0.28169015"
     id="path80"
     inkscape:connector-curvature="0" /><path
     d="m 122.16406,116.90234 c -1.14801,0.008 -1.8056,0.0258 -1.83203,0.0547 -0.11714,0.12788 -0.42287,1.37321 -0.67969,2.76758 -2.50773,13.61533 -2.98047,16.36518 -2.98046,17.33398 -2e-5,0.6141 -0.12632,1.11524 -0.28126,1.11524 -0.39732,0 -0.35124,1.41304 0.15821,4.81055 0.36236,2.41658 0.383,3.34472 0.11523,5.23828 l -0.32422,2.30078 1.14649,1.6914 c 0.63126,0.92956 1.51155,1.94786 1.95508,2.26368 1.84588,1.31438 6.04845,3.11078 8.07421,3.45117 2.03873,0.34257 2.07701,0.36505 2.34766,1.35351 2.05567,7.50779 2.08335,7.65964 2.12305,11.70899 0.0369,3.75901 -0.005,4.07475 -0.89258,6.75976 -1.63688,4.95275 -2.56523,6.54549 -5.86914,10.0625 -3.30144,3.51438 -8.55274,9.90771 -8.55273,10.41407 -2e-5,0.17817 0.22216,0.58809 0.49218,0.91015 0.42231,0.50369 0.38979,0.4969 -0.23047,-0.0488 l -0.7207,-0.63476 -1.26953,1.76172 c -0.69757,0.96866 -2.89467,4.02087 -4.88281,6.7832 l -3.61524,5.02148 2.78907,2.86524 2.79101,2.86523 -2.73828,-2.66211 -2.73828,-2.66015 -0.4043,0.9707 c -0.60889,1.46174 -1.76945,5.95281 -2.39844,9.28125 -1.36415,7.21871 -1.88954,15.27409 -2.16211,33.09961 -0.1945,12.72039 0.0613,21.20048 1.01368,33.51953 1.04306,13.49182 6.087,70.44514 6.35546,71.76172 0.15655,0.76767 0.1813,0.77463 2.60157,0.83203 l 2.4414,0.0586 -2.45703,0.0938 -2.45898,0.0937 0.14258,1.18555 c 0.0778,0.65248 0.65143,5.55923 1.27539,10.9043 2.02315,17.33116 4.20116,33.03487 7.46484,53.80273 3.26242,20.75983 5.48438,33.38101 5.95313,33.82422 0.22196,0.20986 6.87093,0.67833 13.74218,0.96875 2.01409,0.0852 4.42199,0.21988 5.35157,0.30078 l 1.6914,0.14844 -0.0312,-105.71875 -0.0312,-105.7207 0.22852,91.12695 c 0.25856,102.57051 0.33583,119.89774 0.53711,120.08594 0.0775,0.0724 2.07483,0.1853 4.4375,0.25 l 4.29492,0.11719 0.0703,-109.45118 0.0703,-109.45117 0.0723,109.5 0.0703,109.50195 0.63281,0.13282 c 0.34839,0.0725 4.4361,0.27243 9.08399,0.44531 4.64789,0.1729 8.83208,0.34627 9.29687,0.38477 0.74902,0.0621 2.12123,-0.0831 2.32813,-0.2461 0.32901,-0.25915 2.78961,-16.56755 7.8164,-51.83203 3.51563,-24.66304 4.53907,-32.39067 5.61915,-42.39453 0.39309,-3.64085 0.77415,-6.96847 0.84765,-7.39453 0.13216,-0.76571 0.11564,-0.77553 -1.47851,-0.82813 l -1.61329,-0.0527 1.6211,-0.10156 c 0.89084,-0.0559 1.62009,-0.19037 1.62109,-0.29883 10e-4,-0.10847 0.44638,-4.43836 0.98828,-9.6211 1.32983,-12.71858 2.9708,-30.62768 4.48438,-48.93359 l 1.25391,-15.16406 0.18359,-25.35156 0.18164,-25.35352 -0.85742,-8.92383 -0.85938,-8.92383 -1.28906,-2.5664 c -0.70917,-1.41205 -1.47758,-2.63972 -1.70898,-2.72852 -0.29316,-0.11249 -0.33554,-0.26474 -0.13868,-0.50195 0.19729,-0.23772 -0.0199,-0.97114 -0.71875,-2.43164 -1.11661,-2.33347 -1.99353,-3.56968 -6.25586,-8.80469 l -2.94336,-3.61328 -1.16015,1.07812 c -1.13891,1.05797 -1.14387,1.06043 -0.24609,0.0801 0.50332,-0.54963 0.91601,-1.14442 0.91601,-1.32226 0,-0.17784 -1.48271,-2.13733 -3.29492,-4.35352 -1.81221,-2.21619 -4.90779,-6.02158 -6.87695,-8.45508 l -3.58008,-4.42383 -0.88086,-3.70507 c -1.4711,-6.18811 -1.72801,-4.41342 2.60156,-17.93555 0.24447,-0.76352 0.20451,-1.00835 -0.24219,-1.50195 -0.53222,-0.58809 -0.53114,-0.58971 0.19727,-0.25782 0.59929,0.27305 1.12105,0.22698 2.90234,-0.26171 2.97304,-0.81564 3.83962,-1.31773 6.84961,-3.9668 l 2.60547,-2.29297 v -1.70117 c 0,-0.93514 0.20085,-2.47873 0.44727,-3.42969 0.24829,-0.9582 0.46201,-2.9848 0.47851,-4.54687 0.0331,-3.1275 0.53275,-1.36065 -4.97851,-17.60743 l -2.05469,-6.05664 -5.18555,-0.18359 c -8.69235,-0.30911 -40.81354,-0.72223 -48.84961,-0.66602 z m 43.7168,9.72657 c 0.33944,-0.002 0.69522,0.12241 0.79102,0.27734 0.22164,0.35864 -0.42941,0.35864 -0.98438,0 -0.34351,-0.22198 -0.3084,-0.27334 0.19336,-0.27734 z m 16.48633,11.69921 c 0.11488,-0.0107 0.14993,0.019 0.0742,0.0898 -0.32077,0.30028 -1.54297,0.70239 -1.54297,0.50781 0,-0.0728 0.40822,-0.27492 0.9082,-0.44922 0.25,-0.0871 0.44567,-0.13769 0.56055,-0.14844 z m -38.79297,8.03516 c 0.15493,0 0.59901,0.18095 0.98633,0.40234 0.38734,0.22142 0.5768,0.40235 0.42187,0.40235 -0.15493,0 -0.599,-0.18092 -0.98633,-0.40235 -0.38733,-0.2214 -0.5768,-0.40234 -0.42187,-0.40234 z m 6.33789,1.13867 c 0.43398,0 0.86804,0.0153 1.19727,0.0449 0.65844,0.0593 0.11963,0.10742 -1.19727,0.10742 -1.31691,0 -1.85572,-0.0481 -1.19727,-0.10742 0.32923,-0.0297 0.76329,-0.0449 1.19727,-0.0449 z m -0.84766,0.97461 c 0.40648,5.2e-4 0.79932,0.0338 1.08594,0.10156 0.85335,0.20179 0.64394,0.24419 -1.22461,0.24219 -2.01793,-0.002 -2.12566,-0.0285 -1.0293,-0.24414 0.34099,-0.0668 0.76149,-0.10014 1.16797,-0.0996 z m 12.31055,4.06836 c 0.18407,-0.002 0.41159,0.12294 0.50781,0.27735 0.21614,0.34973 0.11929,0.34973 -0.42187,0 -0.25383,-0.16407 -0.28756,-0.27435 -0.0859,-0.27735 z m -23.90234,0.36719 c 0.0286,0.002 0.0449,0.0119 0.0449,0.0312 0,0.0775 -0.25264,0.27753 -0.5625,0.44336 -0.30986,0.16567 -0.56445,0.23765 -0.56446,0.16016 0,-0.0775 0.2546,-0.27753 0.56446,-0.44336 0.23239,-0.12426 0.43175,-0.19595 0.51758,-0.19141 z m 26.54882,1.11133 c 0.0113,-0.017 0.16444,0.0537 0.46875,0.20117 0.34859,0.16893 0.63282,0.36745 0.63282,0.43945 0,0.21555 -0.14599,0.15186 -0.72071,-0.30859 -0.26254,-0.21034 -0.39216,-0.31502 -0.38086,-0.33203 z m 1.90235,58.32617 c 0.0286,0.002 0.0449,0.0119 0.0449,0.0312 0,0.0775 -0.25459,0.27558 -0.56445,0.44141 -0.30986,0.16567 -0.5625,0.23765 -0.5625,0.16015 0,-0.0775 0.25264,-0.27557 0.5625,-0.4414 0.23239,-0.12426 0.4337,-0.19595 0.51953,-0.19141 z m -31.78711,0.32227 c 0,-0.12575 2.7897,1.19208 3.07617,1.45312 0.0646,0.0588 0.001,0.1008 -0.14062,0.0937 -0.36009,-0.0183 -2.93555,-1.37541 -2.93555,-1.54687 z m 30.2832,0.45703 c 0.15493,0 -0.16282,0.24219 -0.70508,0.53906 -0.54225,0.29687 -1.11264,0.53906 -1.26757,0.53906 -0.15493,0 0.16282,-0.24219 0.70507,-0.53906 0.54226,-0.29687 1.11265,-0.53906 1.26758,-0.53906 z m 26.03516,1.10156 c 0.0775,0 -0.48505,0.63355 -1.24805,1.4082 -0.763,0.77465 -1.44984,1.41016 -1.52734,1.41016 -0.0775,0 0.48309,-0.63551 1.24609,-1.41016 0.763,-0.77465 1.4518,-1.4082 1.5293,-1.4082 z m -29.13477,0.29101 c 0.15493,0 0.0918,0.12325 -0.14062,0.27344 -0.23239,0.15019 -0.55015,0.27344 -0.70508,0.27344 -0.15493,0 -0.0918,-0.12325 0.14062,-0.27344 0.2324,-0.15019 0.55015,-0.27344 0.70508,-0.27344 z m -1.4082,0.5625 c 0.15493,0 0.0918,0.12325 -0.14063,0.27344 -0.23239,0.15019 -0.55014,0.27344 -0.70507,0.27344 -0.15493,0 -0.0918,-0.12325 0.14062,-0.27344 0.2324,-0.15019 0.55015,-0.27344 0.70508,-0.27344 z m -16.2207,1.1543 c 0.0979,0.004 0.18171,0.0294 0.22851,0.0762 0.0936,0.0936 -0.0722,0.16064 -0.36914,0.14844 -0.32815,-0.0135 -0.39464,-0.08 -0.16992,-0.16992 0.10167,-0.0407 0.21269,-0.0587 0.31055,-0.0547 z m 10.97461,0.2832 c 0.15316,0.002 0.29722,0.022 0.39257,0.0606 0.19071,0.0771 -0.0333,0.13491 -0.49804,0.12891 -0.46479,-0.006 -0.62173,-0.0692 -0.34766,-0.14063 0.13704,-0.0357 0.29996,-0.0507 0.45313,-0.0488 z m -33.34571,10.52735 0.91602,0.82617 c 0.50352,0.45504 0.91601,0.86752 0.91601,0.91602 0,0.21763 -0.2327,0.0252 -1.0039,-0.82813 z m 55.91602,0.70312 c 0.0145,0.0145 -0.0709,0.12818 -0.2461,0.35157 -0.21263,0.27113 -0.43368,0.49414 -0.49218,0.49414 -0.23184,0 -0.0825,-0.23161 0.38672,-0.59961 0.22338,-0.17519 0.33702,-0.26064 0.35156,-0.2461 z m -1.40821,1.12696 c 0.0145,0.0145 -0.0709,0.12817 -0.24609,0.35156 -0.21263,0.27113 -0.43564,0.49414 -0.49414,0.49414 -0.23184,0 -0.0825,-0.23162 0.38672,-0.59961 0.22338,-0.1752 0.33898,-0.26063 0.35351,-0.24609 z m -51.6914,0.70507 0.63476,0.53516 c 0.34859,0.29514 0.63282,0.58137 0.63282,0.63477 0,0.22543 -0.22618,0.0585 -0.73047,-0.53711 z m 12.30859,7.86329 c 0.11272,-0.0806 3.13522,1.48823 3.74805,1.96289 0.30986,0.23999 0.49937,0.43082 0.42187,0.42382 -0.23303,-0.0209 -3.92183,-2.10645 -4.15234,-2.34765 -0.0199,-0.0208 -0.0251,-0.0337 -0.0176,-0.0391 z m 21.24805,3.10546 c 0.0138,0.005 0.004,0.0258 -0.0352,0.0625 -0.71974,0.6818 -2.4875,1.83461 -2.06054,1.34375 0.26074,-0.29975 0.89429,-0.78497 1.4082,-1.07812 0.38544,-0.21986 0.64616,-0.34261 0.6875,-0.32813 z m -15.66797,0.15625 c 0.0145,-0.0145 0.12818,0.0709 0.35156,0.2461 0.27113,0.21263 0.49219,0.43564 0.49219,0.49414 0,0.23184 -0.23162,0.0825 -0.59961,-0.38672 -0.17519,-0.22339 -0.25868,-0.33898 -0.24414,-0.35352 z m 2.16406,2.57813 c 0.0285,-0.0544 0.18932,0.41288 0.35743,1.03711 0.20485,0.76102 0.22724,2.13765 0.0664,4.18164 l -0.24023,3.04883 -0.11719,-4.08399 c -0.0648,-2.24648 -0.0949,-4.12919 -0.0664,-4.18359 z m 9.6836,0.24023 c 0.14579,0 0.26367,0.12633 0.26367,0.28125 0,0.15493 -0.19791,0.28125 -0.43945,0.28125 -0.24157,0 -0.35948,-0.12632 -0.26368,-0.28125 0.0957,-0.15492 0.29368,-0.28125 0.43946,-0.28125 z"
     style="fill:#ff5555;stroke-width:0.28169015"
     id="path82"
     inkscape:connector-curvature="0" /><path
     d="m 122.31641,116.88672 c -1.23762,0.008 -1.94765,0.0279 -1.97657,0.0586 -0.2819,0.29972 -3.31402,16.4414 -3.56445,18.97657 -0.0995,1.00703 -0.30685,1.99167 -0.46289,2.18945 -0.2777,0.35197 -0.16562,2.34616 0.3457,6.11914 0.13321,0.98308 0.10843,2.66707 -0.0586,4.02539 l -0.28711,2.33594 1.02734,1.49023 c 0.56446,0.81958 1.31037,1.75472 1.65821,2.07813 1.2396,1.15253 5.65124,3.15957 8.09765,3.68359 2.76809,0.59292 2.44844,0.11527 3.95508,5.91797 0.71388,2.74943 0.84904,3.8332 0.89844,7.20508 0.056,3.81973 0.0247,4.07383 -0.87695,6.78515 -1.46226,4.39723 -2.8558,6.81574 -5.66602,9.8418 -5.31842,5.72689 -8.83,10.1799 -8.63086,10.94141 0.10376,0.39678 0.0503,0.44622 -0.22851,0.21484 -0.28124,-0.23341 -1.40773,1.14507 -4.97852,6.09375 -2.53792,3.51725 -4.72244,6.57543 -4.85547,6.79492 -0.1718,0.28346 0.15482,0.81843 1.12695,1.84766 l 1.36719,1.44922 -1.33203,-1.25 c -0.73267,-0.68742 -1.38337,-1.19476 -1.44727,-1.12696 -0.27309,0.28982 -1.58484,4.88112 -2.24804,7.86914 -1.52357,6.86434 -2.04829,12.73833 -2.46875,27.60547 -0.35606,12.59024 -0.17852,26.82477 0.44726,35.77539 0.89408,12.78814 6.38904,75.24395 6.79688,77.25391 0.14248,0.70222 0.28,0.77822 1.47265,0.82422 l 1.31446,0.0508 -1.36133,0.10742 -1.36133,0.10547 0.16406,1.32227 c 0.0909,0.72689 0.67574,5.63082 1.29883,10.89843 3.00628,25.4149 8.44171,62.07743 12.25781,82.67774 0.97824,5.28085 0.75374,4.95233 3.55665,5.17383 1.71235,0.13532 17.03559,0.99073 18.26367,1.01953 0.0775,0.002 0.0961,-43.25334 0.043,-96.12305 -0.0531,-52.86972 -0.0205,-96.05424 0.0703,-95.96484 0.0908,0.0894 0.19462,28.86372 0.23242,63.94336 0.0786,72.87858 0.29209,127.76091 0.49805,127.94531 0.0775,0.0693 2.07483,0.1964 4.4375,0.2832 l 4.29492,0.15821 0.0703,-86.81055 0.0703,-86.8086 0.14063,86.90039 0.14258,86.90235 4.22461,0.21094 c 2.32394,0.11606 6.50619,0.32529 9.29492,0.46484 h 0.002 c 5.80401,0.29045 7.44453,0.23373 7.75195,-0.26367 0.33037,-0.53457 1.79177,-10.10505 6.19336,-40.55274 3.90479,-27.01115 5.76383,-40.71672 6.89454,-50.8457 0.53614,-4.80281 1.04315,-9.20807 1.12695,-9.78906 0.14363,-0.9955 0.10622,-1.05786 -0.62695,-1.09766 l -0.77735,-0.043 0.74609,-0.11328 c 0.90753,-0.13946 0.73933,0.89334 2.20313,-13.60547 1.42635,-14.12784 2.48747,-25.79796 4.08398,-44.92968 l 1.26954,-15.21094 0.16601,-25.91602 0.16602,-25.91406 -0.83789,-8.4707 -0.83789,-8.47071 -1.18555,-2.375 c -0.65262,-1.30624 -1.34101,-2.56448 -1.5293,-2.79687 -0.1883,-0.23239 -0.3576,-0.70786 -0.375,-1.05664 -0.0862,-1.72529 -2.62133,-5.53812 -8.1875,-12.3125 -1.76054,-2.14269 -1.79,-2.16389 -2.36328,-1.6543 -0.57181,0.50827 -0.57597,0.50799 -0.19922,-0.10547 0.4708,-0.76661 0.96883,-0.0713 -7.20508,-10.09375 -5.40253,-6.62432 -6.32514,-7.89265 -6.58203,-9.05664 -0.16431,-0.74451 -0.62058,-2.7489 -1.01367,-4.45312 -0.40891,-1.77279 -0.64408,-3.45987 -0.55078,-3.94336 0.0896,-0.46479 0.9899,-3.50231 2.00195,-6.75 1.51323,-4.85631 1.78301,-5.99921 1.51172,-6.4336 -0.28977,-0.46399 -0.25964,-0.50488 0.24805,-0.34375 0.67488,0.2142 4.38612,-0.74923 5.88672,-1.52734 0.56965,-0.29538 2.20752,-1.56447 3.64062,-2.82031 l 2.60547,-2.28321 0.004,-1.61132 c 0.002,-0.88628 0.18961,-2.39727 0.41601,-3.35743 0.22641,-0.96016 0.48216,-2.92398 0.56836,-4.36523 l 0.15625,-2.62109 -3.59961,-10.70313 -3.60156,-10.70508 -4.08398,-0.18164 c -6.73092,-0.29891 -41.18631,-0.74219 -49.84961,-0.68359 z m 43.42382,9.75781 c 0.26198,-0.0109 0.55461,0.10679 0.65039,0.26172 0.20019,0.32391 0.19129,0.32391 -0.5625,0 -0.4593,-0.1974 -0.47619,-0.24562 -0.0879,-0.26172 z m -16.70898,21.98438 c 0.25528,7.1e-4 0.5006,0.0193 0.67383,0.0527 v -0.002 c 0.34646,0.0668 -0.005,0.12114 -0.7793,0.11914 -0.77465,-0.002 -1.05709,-0.0584 -0.6289,-0.12305 0.21408,-0.0323 0.47909,-0.0476 0.73437,-0.0469 z m 41.13672,65.88476 c 0.0775,0 -0.3558,0.50528 -0.96094,1.125 -0.60514,0.61972 -1.16273,1.12696 -1.24023,1.12695 -0.0775,2e-5 0.35384,-0.50723 0.95898,-1.12695 0.60514,-0.61972 1.16469,-1.125 1.24219,-1.125 z m -52.17383,23.66602 c 0.18452,-0.002 0.41397,0.12241 0.50977,0.27734 0.21614,0.34973 0.11733,0.34973 -0.42383,0 -0.25383,-0.16407 -0.28756,-0.27434 -0.0859,-0.27734 z m 6.42578,6.1875 c 0.0389,0.0367 0.0979,0.36388 0.1875,0.91992 0.16005,0.99368 0.16005,2.24656 0,3.24023 -0.23888,1.48276 -0.26172,1.34442 -0.26172,-1.62109 0,-1.85344 0.009,-2.6003 0.0742,-2.53906 z"
     style="fill:#ff5555;stroke-width:0.28169015"
     id="path84"
     inkscape:connector-curvature="0" /><path
     d="m 122.39258,116.87891 c -1.28429,0.009 -2.02509,0.0284 -2.05664,0.0605 -0.22358,0.22757 -2.40295,11.37876 -3.57227,18.27735 -0.2626,1.54929 -0.45859,3.70455 -0.43359,4.78906 0.025,1.08451 0.0848,3.99963 0.13086,6.47852 l 0.082,4.50781 0.88086,1.26758 c 0.48373,0.69718 1.17778,1.54542 1.54297,1.88476 1.20452,1.11926 5.59645,3.15338 7.92187,3.66992 1.58291,0.35161 2.36586,0.67173 2.63086,1.07422 0.20752,0.31518 0.82476,2.31759 1.37109,4.44922 0.90324,3.52406 0.99415,4.23134 0.99415,7.79297 0,3.43911 -0.09,4.20073 -0.73633,6.25391 -1.55184,4.92956 -2.64425,6.78061 -6.45117,10.93164 -3.3627,3.66666 -7.16541,8.30258 -7.75,9.44921 -0.26628,0.52229 -0.5482,0.88735 -0.625,0.81055 -0.11071,-0.11071 -8.72561,11.59053 -9.62305,13.07031 -0.14266,0.23523 0.0191,0.65086 0.4375,1.125 0.63618,0.72102 0.6369,0.72907 0.0273,0.21485 -0.34954,-0.29489 -0.68464,-0.48352 -0.74414,-0.41992 -0.24903,0.26618 -1.11134,3.15347 -1.875,6.27929 -0.94684,3.87563 -1.82935,9.5695 -2.23242,14.40039 -0.87602,10.49924 -1.03901,38.28234 -0.28906,49.1543 0.84189,12.20487 6.53805,77.14455 6.91211,78.80273 0.10208,0.4525 0.3629,0.64569 0.91211,0.67579 l 0.76953,0.043 -0.77539,0.11718 c -0.42605,0.0645 -0.77539,0.23616 -0.77539,0.38282 0,1.47577 3.62006,30.25994 5.24023,41.66796 3.30798,23.29228 8.68872,56.12252 9.42383,57.4961 0.18899,0.35312 0.81033,0.51888 2.44336,0.65429 1.96243,0.16276 17.05025,0.99891 18.11133,1.00391 0.3841,0.002 0.41846,-9.52007 0.32226,-90.21094 -0.0592,-49.6162 -0.0322,-90.13793 0.0606,-90.04882 0.0928,0.089 0.19988,28.16669 0.23828,62.39453 0.0773,68.94209 0.28254,117.47215 0.49805,117.66406 0.0775,0.069 2.07518,0.20819 4.4375,0.31055 l 4.29492,0.18554 0.0703,-59.79492 0.0723,-59.79492 0.0703,59.92969 0.0703,59.92968 1.90039,0.0234 c 1.04577,0.0134 5.00697,0.1865 8.80274,0.38281 9.69942,0.50171 10.03732,0.50174 10.50195,0.0371 0.57392,-0.57391 2.04463,-10.05124 7.78711,-50.16211 3.09648,-21.62877 4.51654,-32.27719 5.63477,-42.2539 0.46886,-4.18309 0.92727,-8.14429 1.01757,-8.80274 0.14001,-1.02125 0.0895,-1.20061 -0.3457,-1.22851 -0.431,-0.0276 -0.43816,-0.0523 -0.0469,-0.15625 0.5665,-0.15055 0.54598,-0.0141 1.77539,-11.92383 1.26026,-12.20849 2.64565,-27.3634 4.23632,-46.33789 l 1.27539,-15.21289 0.17969,-25.77344 0.18164,-25.77539 -0.7832,-8.45117 c -0.83986,-9.05912 -0.97939,-9.66337 -3.02344,-13.17969 -0.43176,-0.74273 -0.78515,-1.55468 -0.78515,-1.80273 0,-0.86297 -1.95799,-4.46713 -3.59571,-6.61719 -0.90653,-1.19014 -2.7601,-3.51088 -4.11719,-5.1582 -1.95593,-2.37421 -2.54585,-2.93015 -2.84765,-2.67969 -0.30291,0.25138 -0.35141,0.20145 -0.23438,-0.2461 0.11076,-0.42353 -1.34259,-2.39475 -5.88476,-7.97461 -8.20759,-10.08268 -7.63261,-9.18345 -8.66992,-13.54687 -0.48524,-2.04111 -0.88849,-4.28375 -0.89649,-4.98437 -0.01,-0.82273 0.65288,-3.39799 1.87305,-7.27149 1.03911,-3.29871 1.81912,-6.18226 1.73242,-6.4082 -0.10823,-0.28205 0.034,-0.41211 0.45313,-0.41211 1.19521,0 5.44603,-1.47951 6.52539,-2.27149 0.60356,-0.44287 2.02857,-1.64222 3.16797,-2.66601 2.06261,-1.85335 2.07203,-1.86764 2.08203,-3.32031 0.005,-0.80246 0.19255,-2.28398 0.41601,-3.29102 0.22346,-1.00705 0.47234,-3.09915 0.55274,-4.64844 l 0.14648,-2.8164 -3.5918,-10.5625 -3.58984,-10.56446 -3.52148,-0.18164 c -5.70691,-0.29617 -41.34594,-0.75378 -50.33594,-0.6914 z m 43.48828,9.75 c 0.18451,-0.002 0.41398,0.12241 0.50976,0.27734 0.21614,0.34972 0.11929,0.34972 -0.42187,0 -0.25384,-0.16408 -0.28946,-0.27434 -0.0879,-0.27734 z m -21.4375,118.52343 c 0.0129,0.0215 0.0262,0.11078 0.041,0.27539 0.0593,0.65845 0.0593,1.73609 0,2.39454 -0.0593,0.65845 -0.10743,0.11963 -0.10743,-1.19727 0,-0.98768 0.0277,-1.53719 0.0664,-1.47266 z m 9.83789,97.47852 c 0.0161,0.0167 0.0329,0.0584 0.0508,0.12695 0.0715,0.27407 0.0676,0.655 -0.01,0.84571 -0.0772,0.19071 -0.13686,-0.0352 -0.13086,-0.5 0.004,-0.3486 0.0417,-0.52261 0.0898,-0.47266 z"
     style="fill:#ff5555;stroke-width:0.28169015"
     id="path86"
     inkscape:connector-curvature="0" /><path
     d="m 127.57617,116.86523 c -4.3341,-0.0164 -7.17208,-1.4e-4 -7.23633,0.0645 -0.23944,0.24058 -2.97985,14.25972 -3.71289,18.99219 -0.35457,2.28908 -0.38238,3.43674 -0.24609,10.28124 0.0882,4.42912 0.10488,4.53066 0.91992,5.8379 0.45616,0.73163 1.26139,1.71076 1.79102,2.17578 1.36713,1.20036 5.23489,3.00187 7.83789,3.65234 1.21958,0.30477 2.33185,0.66975 2.47265,0.81055 0.1408,0.1408 0.70883,1.8269 1.26172,3.74804 0.89779,3.1196 1.02052,3.95083 1.14649,7.76563 0.13249,4.01216 0.0944,4.42998 -0.61133,6.90039 -1.21588,4.25629 -2.615,6.82158 -5.43164,9.95508 -3.49512,3.8883 -7.62021,8.8131 -8.49414,10.14062 -0.40797,0.61971 -0.94739,1.31644 -1.19922,1.54883 -0.40445,0.37324 -8.83464,11.96861 -9.37891,12.90039 -0.11708,0.20046 -0.0574,0.55015 0.13281,0.7793 0.28277,0.34063 0.26842,0.38794 -0.0859,0.25195 -0.32423,-0.12442 -0.5428,0.17427 -0.86719,1.18946 -2.09344,6.5514 -3.23218,13.5478 -3.88867,23.89257 -0.4749,7.48414 -0.49162,38.30543 -0.0234,44.50782 1.32035,17.49336 6.67369,78.09131 6.98633,79.08398 0.0854,0.27112 0.36822,0.50739 0.6289,0.52539 0.42378,0.0292 0.42322,0.0469 -0.0176,0.16211 -0.27112,0.0709 -0.49286,0.34179 -0.49219,0.60156 0.002,0.65233 2.06726,17.91104 3.10742,25.96485 3.44775,26.69541 10.613,71.68644 11.64063,73.09179 0.3252,0.44476 3.92138,0.74285 17.25195,1.42578 l 3.68945,0.1875 -0.13281,-85.16992 c -0.0737,-46.84347 -0.0568,-85.09556 0.0391,-85.00586 0.0959,0.0897 0.20539,27.21599 0.24219,60.28125 0.0724,65.00378 0.27363,109.43291 0.49805,109.63672 0.0775,0.0703 2.07345,0.21727 4.43554,0.32617 l 4.29493,0.19727 0.0723,-36.28906 0.0742,-36.28711 0.0684,36.4082 0.0703,36.4082 1.75977,0.0274 c 0.96831,0.0156 4.74002,0.18765 8.38086,0.38086 9.70472,0.5155 10.58541,0.51433 11.10547,-0.006 0.24346,-0.24347 0.44336,-0.54775 0.44336,-0.67578 -2e-5,-0.12803 0.31159,-2.11497 0.69335,-4.41602 0.90015,-5.42557 4.55409,-30.36393 7.58789,-51.78906 4.15589,-29.34929 6.05055,-45.16239 5.45704,-45.53906 -0.24507,-0.15551 -0.25479,-0.22943 -0.0312,-0.23243 0.43017,-0.006 0.49706,-0.4771 1.63867,-11.69336 1.41506,-13.90273 2.77767,-28.89173 4.20117,-46.19726 1.39471,-16.95553 1.58898,-23.57255 1.58398,-53.94336 -0.002,-14.19067 -0.0341,-15.1107 -0.80273,-22.73633 l -0.80078,-7.94726 -1.42969,-2.89844 c -0.7863,-1.59393 -1.65935,-3.53199 -1.93945,-4.30664 -0.2801,-0.77464 -1.23628,-2.48584 -2.125,-3.80274 -2.06363,-3.0579 -7.32585,-9.44602 -7.69531,-9.34179 -0.15493,0.0437 -0.34438,-0.16893 -0.42188,-0.47266 -0.0775,-0.30374 -2.75068,-3.76417 -5.93945,-7.69141 -8.16029,-10.05011 -7.71728,-9.35118 -8.74414,-13.80273 -0.63669,-2.76013 -0.82926,-4.17337 -0.72266,-5.31055 0.0799,-0.85211 0.91645,-4.02027 1.85938,-7.04101 0.94294,-3.02074 1.71484,-5.71482 1.71484,-5.98633 0,-0.30152 0.21361,-0.49414 0.54883,-0.49414 1.10364,0 5.25691,-1.49255 6.32422,-2.27344 0.60356,-0.4416 2.01066,-1.62391 3.12695,-2.62695 l 2.0293,-1.82422 0.18359,-2.20703 c 0.10123,-1.21392 0.30479,-2.62928 0.45313,-3.14649 0.14832,-0.51722 0.35702,-2.19922 0.46289,-3.73633 l 0.19335,-2.79492 -3.62109,-10.79492 -3.61914,-10.79492 -3.67383,-0.17188 c -5.54259,-0.25856 -32.02309,-0.60706 -45.02539,-0.65625 z m 26.69336,272.98829 c 0.017,0.006 0.0351,0.0336 0.0547,0.082 0.0781,0.19366 0.0781,0.50946 0,0.70312 -0.0782,0.19366 -0.14258,0.0358 -0.14258,-0.35156 0,-0.29048 0.0369,-0.45257 0.0879,-0.43359 z"
     style="fill:#ff5555;stroke-width:0.28169015"
     id="path88"
     inkscape:connector-curvature="0" /><path
     d="m 127.90039,116.86133 c -4.51728,-0.0174 -7.49071,3e-4 -7.55664,0.0664 -0.1435,0.14387 -0.89247,3.56123 -1.66406,7.59571 -2.39371,12.51598 -2.42167,12.75071 -2.32227,19.84765 l 0.0898,6.33789 0.84179,1.33204 c 0.46288,0.73163 1.26747,1.70413 1.78906,2.1621 1.38675,1.21757 5.29179,3.04611 7.84571,3.67383 1.22257,0.30049 2.32358,0.64812 2.44726,0.77344 0.34063,0.34511 1.88241,5.8969 2.21485,7.97461 0.54046,3.3778 0.37869,7.80046 -0.37696,10.30273 -1.6458,5.44996 -2.33729,6.59989 -7.4375,12.34961 -4.27683,4.82149 -5.88335,6.87296 -12.53515,16.00977 -2.60223,3.57439 -4.66574,6.66715 -4.58594,6.875 0.0798,0.20786 0.0259,0.37891 -0.11914,0.37891 -0.14509,0 -0.57707,1.04604 -0.96094,2.32421 -2.42004,8.05791 -3.35267,15.24749 -3.82617,29.50391 -0.54606,16.44142 -0.30057,31.69541 0.71484,44.50977 0.94981,11.98659 5.45785,63.15867 6.2168,70.5664 0.10536,1.02839 0.36187,2.03961 0.57031,2.24805 0.28041,0.28036 0.29266,0.40959 0.0449,0.49219 -0.38208,0.12736 1.0174,12.51893 3.60351,31.88867 3.47467,26.02496 9.83274,65.63691 10.83594,67.51172 0.18294,0.34183 0.79035,0.52403 2.16211,0.65234 2.26934,0.21228 16.37958,1.00781 17.89258,1.00781 h 1.05664 l 0.0644,-21.90234 0.0664,-21.90234 0.14453,21.73828 c 0.0803,11.95546 0.20961,21.79604 0.28711,21.86914 0.0775,0.0731 2.07386,0.22569 4.43554,0.33789 l 4.29297,0.20312 0.0742,-20.80664 0.0742,-20.80468 0.0684,20.91406 0.0703,20.91601 1.61914,0.0293 c 0.89084,0.0156 4.53428,0.18516 8.09766,0.37891 9.39211,0.51067 11.00938,0.51606 11.49805,0.0273 0.22573,-0.22574 0.55246,-1.20863 0.72656,-2.18359 1.08246,-6.06194 8.91322,-60.15481 11.00195,-75.99805 1.19097,-9.03374 2.88573,-23.75099 2.7793,-24.13867 -0.0344,-0.12521 0.0245,-0.67259 0.13086,-1.21485 0.56795,-2.89499 3.57202,-34.64873 5.39648,-57.04101 1.39859,-17.16547 1.55829,-22.31385 1.58789,-51.3125 0.0162,-15.90634 -0.0175,-17.03366 -0.73437,-24.78906 l -0.75196,-8.125 -1.67578,-3.66016 c -0.92191,-2.01409 -2.12089,-4.55084 -2.66406,-5.63672 -1.0014,-2.00193 -7.7938,-10.81671 -8.83789,-11.46875 -0.31292,-0.19543 -0.56836,-0.45751 -0.56836,-0.58398 0,-0.12647 -2.31512,-3.08755 -5.14258,-6.57813 -7.05733,-8.71245 -8.29029,-10.3845 -8.77343,-11.89258 -0.62096,-1.93822 -1.57813,-6.64606 -1.57813,-7.76562 0,-0.53787 0.65311,-3.10879 1.45117,-5.71094 0.79807,-2.60215 1.66338,-5.47558 1.92188,-6.38672 l 0.46875,-1.65625 2.375,-0.68164 c 3.19845,-0.9176 3.92156,-1.3266 6.9375,-3.91992 2.43915,-2.09737 2.59143,-2.29247 2.61523,-3.35352 0.0139,-0.61972 0.213,-2.1414 0.44141,-3.38086 0.22842,-1.23942 0.49475,-3.48297 0.59375,-4.98632 l 0.17968,-2.73242 -3.61132,-10.67774 -3.61328,-10.67773 -2.97852,-0.16797 c -4.42569,-0.25034 -31.86028,-0.60989 -45.41211,-0.66211 z m 16.8418,204.26758 c 0.009,0.46693 0.0192,2.41717 0.0293,5.99023 0.0404,14.29226 0.0404,37.67844 0,51.9707 -0.0404,14.29225 -0.0742,2.59819 -0.0742,-25.98632 0,-21.43839 0.0186,-33.37542 0.0449,-31.97461 z"
     style="fill:#ff5555;stroke-width:0.28169015"
     id="path90"
     inkscape:connector-curvature="0" /><path
     d="m 123.1582,116.81445 -2.95312,0.0918 -0.3457,1.55078 c -0.39822,1.78437 -2.99205,15.86269 -3.42579,18.5918 -0.17351,1.09199 -0.22816,4.21812 -0.13476,7.74609 l 0.15625,5.91406 0.83789,1.33204 c 0.46042,0.73163 1.29072,1.72756 1.8457,2.21484 1.4006,1.22974 4.97192,2.90279 7.78711,3.64648 2.75102,0.72675 2.5737,0.48454 3.88867,5.28516 0.83909,3.06334 0.90316,3.61817 0.91016,7.80469 0.007,4.21748 -0.0438,4.65986 -0.79492,6.90039 -0.93167,2.77922 -2.31789,5.62075 -3.45703,7.08203 -0.43948,0.56376 -2.24365,2.65587 -4.00782,4.64844 -1.76417,1.99258 -4.29226,5.01647 -5.61914,6.7207 -4.53641,5.82648 -11.34063,15.43966 -11.19531,15.81836 0.0798,0.20802 0.0281,0.37891 -0.11523,0.37891 -0.61154,0 -2.69817,8.23838 -3.4961,13.80273 -1.057,7.37085 -1.5644,18.76816 -1.5664,35.21094 -0.002,15.68192 0.17809,18.75907 2.96289,50.8457 2.63814,30.39684 4.34141,48.61398 4.59375,49.10547 0.13343,0.25982 0.18528,0.63657 0.11328,0.83789 -0.15826,0.44257 0.069,2.51149 2.05859,18.64844 3.685,29.88817 11.36352,78.98525 12.6211,80.70508 0.34123,0.46668 5.63089,0.91678 16.72265,1.42382 l 4.29688,0.19532 0.0625,-16.02149 0.0644,-16.02148 0.14844,15.82226 c 0.0812,8.702 0.20961,15.88394 0.28711,15.96094 0.0775,0.0771 2.07263,0.23153 4.43359,0.34375 l 4.29297,0.20508 0.0762,-11.80078 0.0781,-11.79883 0.0664,11.90039 0.0684,11.90234 1.33789,0.0293 c 0.73591,0.0156 4.25303,0.18516 7.81641,0.37891 7.69734,0.41853 11.20182,0.4989 11.80469,0.26758 0.57384,-0.22022 0.83522,-1.25903 1.70898,-6.79883 1.83651,-11.6438 8.70588,-59.48067 10.40625,-72.46875 2.05795,-15.71935 4.80196,-42.0333 6.91797,-66.33789 2.75175,-31.60684 2.57298,-28.02362 2.7793,-55.63282 0.19407,-25.97003 0.17625,-26.75961 -0.8086,-37.32421 l -0.60351,-6.48047 -1.55469,-3.37891 c -0.85439,-1.85916 -1.98065,-4.27946 -2.50391,-5.37891 -0.98741,-2.07472 -4.01728,-6.239 -7.3457,-10.09375 -1.06007,-1.22769 -3.00759,-3.57243 -4.32812,-5.21093 -1.32055,-1.63851 -4.32459,-5.36214 -6.67383,-8.27539 -2.34923,-2.91325 -4.52354,-5.82838 -4.83203,-6.47852 -0.86424,-1.82133 -2.09103,-7.71946 -1.91602,-9.21094 0.0818,-0.69718 0.80772,-3.42284 1.61328,-6.05664 0.80556,-2.6338 1.6129,-5.34809 1.79297,-6.03125 l 0.32813,-1.24219 2.30859,-0.6289 c 3.09822,-0.84557 3.98116,-1.34415 7.01758,-3.95508 2.02933,-1.74498 2.59337,-2.38952 2.60547,-2.97656 0.008,-0.4121 0.26732,-2.43909 0.57617,-4.50586 0.94275,-6.30884 1.038,-5.74562 -2.97657,-17.73438 l -3.54687,-10.59375 -3.00586,-0.17773 c -3.88279,-0.22867 -46.30987,-0.8183 -50.17969,-0.69727 z"
     style="fill:#ff5555;stroke-width:0.28169015"
     id="path92"
     inkscape:connector-curvature="0" /><path
     d="m 122.90039,116.79102 c -1.42004,10e-4 -2.25668,0.0119 -2.32227,0.0371 -0.33956,0.13032 -0.7733,1.82824 -1.75781,6.88672 -2.62189,13.4715 -2.70415,14.16111 -2.51758,20.95118 0.10983,3.9972 0.28631,6.28223 0.52149,6.74804 0.9474,1.87649 2.72957,3.40191 5.58594,4.7793 1.56918,0.75668 3.59861,1.53527 4.50781,1.73047 0.9092,0.1952 1.89421,0.55451 2.18945,0.79687 0.70363,0.57761 2.11576,5.52801 2.52539,8.84961 0.75537,6.12511 -0.57109,12.10312 -3.70117,16.66992 -0.42813,0.62465 -2.33186,2.90623 -4.22852,5.07032 -6.76994,7.72454 -16.45523,20.87947 -17.58789,23.88867 -3.35386,8.91038 -4.64539,22.26954 -4.65039,48.07422 -0.003,12.72228 0.26457,18.98501 1.41211,32.95703 1.97674,24.06818 5.55659,63.8318 5.9336,65.91601 0.15414,0.85212 0.27267,1.89375 0.26367,2.31446 -0.04,1.95824 2.89968,25.59054 5.23047,42.05273 3.62359,25.59316 8.55035,55.43384 9.41992,57.0586 0.18143,0.33902 0.76043,0.54382 1.88672,0.66601 2.17988,0.23654 15.57502,0.99991 17.61133,1.00391 l 1.61914,0.004 0.0625,-12.04297 0.0625,-12.04296 0.14843,11.8789 c 0.0815,6.53305 0.21588,11.94459 0.29688,12.02539 0.081,0.0808 2.07337,0.23597 4.42969,0.34571 l 4.28515,0.19922 0.0801,-6.73047 0.082,-6.73243 0.0645,6.83204 0.0664,6.83007 1.19531,0.0293 c 0.65845,0.0156 4.11436,0.18516 7.67774,0.37891 3.56338,0.19374 7.77289,0.37143 9.35547,0.39453 3.455,0.0503 3.26764,0.24899 4.0332,-4.27149 1.26774,-7.48583 8.67444,-58.82145 10.67578,-73.99609 2.36739,-17.95009 5.16384,-45.0099 7.61328,-73.66211 2.16385,-25.31161 2.26295,-27.84112 2.28125,-58.45117 0.011,-18.27337 -0.0169,-19.31507 -0.71289,-26.75977 -0.39832,-4.26057 -0.83773,-8.06384 -0.97656,-8.45117 -0.98456,-2.74689 -4.75324,-10.24227 -5.99609,-11.92578 -1.47848,-2.00266 -6.61923,-8.36846 -6.97461,-8.63672 -0.70196,-0.52988 -13.43323,-16.73308 -13.94336,-17.74609 -0.8576,-1.70299 -1.94527,-6.50303 -1.94727,-8.5918 -0.001,-1.26679 0.41119,-3.03144 1.64649,-7.04297 0.90646,-2.94366 1.70624,-5.69532 1.77734,-6.11523 0.11097,-0.65533 0.35449,-0.82733 1.71875,-1.20703 4.08324,-1.13647 5.05369,-1.70276 9.04687,-5.29297 0.92765,-0.83404 1.41693,-1.50225 1.41993,-1.93555 0.003,-0.36366 0.25456,-2.37134 0.55859,-4.46289 0.92786,-6.38305 1.02711,-5.79547 -2.9668,-17.77734 l -3.53125,-10.59375 -2.17382,-0.16797 c -2.82558,-0.21866 -41.35662,-0.74031 -51.29688,-0.73242 z"
     style="fill:#ff5555;stroke-width:0.28169015"
     id="path94"
     inkscape:connector-curvature="0" /><path
     d="m 131.60156,173.66797 v 0.7793 c 0,1.21144 -1.05944,4.7481 -2.08203,6.94726 -1.07877,2.32 -1.92989,3.47017 -6.02539,8.13867 -4.50939,5.14029 -7.3171,8.75005 -13.22461,17.00586 -3.44521,4.81472 -3.72938,5.31355 -4.66601,8.19141 -1.76754,5.43087 -2.93313,12.36321 -3.58985,21.33203 -0.15882,2.16901 -0.36598,10.91442 -0.45898,19.43555 -0.1717,15.74164 0.0187,22.82506 0.91406,34.08593 1.1773,14.80588 5.94346,68.60846 6.16406,69.58008 0.0707,0.31129 0.26338,2.02249 0.42774,3.80274 2.03909,22.08638 12.90765,95.32379 14.62109,98.52539 0.21622,0.404 0.70015,0.62221 1.64844,0.74219 1.74195,0.22036 15.70703,1.01171 17.85742,1.01171 h 1.6543 l 0.0547,-5.2832 0.0547,-5.28125 0.15625,5.11914 c 0.0858,2.81498 0.2271,5.18659 0.3125,5.27149 0.0854,0.085 2.07753,0.24159 4.42774,0.34765 l 4.27343,0.19336 0.0879,-3.91601 0.0859,-3.91602 0.0625,4.01367 0.0625,4.01367 0.91406,0.0234 c 0.50352,0.0128 3.83116,0.18509 7.39454,0.38281 9.19729,0.51026 12.67542,0.52653 13.06054,0.0625 0.17164,-0.20682 0.56403,-1.88642 0.87305,-3.73242 1.49841,-8.9512 9.468,-64.34435 11.12109,-77.29883 3.49534,-27.39135 8.65627,-82.80192 9.16992,-98.45117 0.14241,-4.33803 0.27066,-17.26764 0.28516,-28.73242 0.0258,-20.35003 0.0102,-21.03241 -0.70508,-28.73242 l -0.73242,-7.88867 -2.11914,-4.64649 c -1.16547,-2.55634 -2.43582,-5.19278 -2.82226,-5.85742 -0.75757,-1.30288 -5.39292,-7.22264 -7.98633,-10.19922 -1.96475,-2.25503 -11.24741,-13.84932 -13.05274,-16.30273 -1.32454,-1.80004 -2.06298,-3.73146 -2.73047,-7.14844 l -0.3164,-1.61914 H 149.1875 Z m 13.38477,272.34375 c 0.016,0.0166 0.0329,0.0584 0.0508,0.12695 0.0715,0.27408 0.0655,0.65304 -0.0117,0.84375 -0.0772,0.19071 -0.13491,-0.0333 -0.12891,-0.49804 0.004,-0.3486 0.0417,-0.52262 0.0899,-0.47266 z"
     style="fill:#ff5555;stroke-width:0.28169015"
     id="path96"
     inkscape:connector-curvature="0" /><path
     d="m 131.67969,173.66797 -0.16407,1.33789 c -0.0908,0.73591 -0.43417,2.16288 -0.76367,3.16992 -1.27569,3.89879 -2.36997,5.60655 -7.18554,11.22461 -4.81517,5.6176 -8.1838,9.9617 -13.69532,17.66602 -2.96713,4.14761 -3.32289,4.78278 -4.25976,7.60547 -1.7772,5.35451 -2.93967,12.31715 -3.64258,21.8125 -0.48564,6.56435 -0.48721,40.86155 -0.002,47.04296 2.6523,33.78192 6.46312,75.03435 8.52148,92.25391 3.54729,29.6754 11.99592,84.43345 13.26367,85.96094 0.14959,0.18026 0.86759,0.40394 1.59571,0.49804 1.80341,0.23315 15.23407,0.99796 17.59179,1.00196 l 1.90235,0.004 0.0566,-4.57812 0.0566,-4.57813 0.1543,4.41407 c 0.0852,2.42778 0.22805,4.48832 0.31835,4.57812 0.0903,0.0898 2.08096,0.24626 4.42383,0.34766 l 4.25977,0.18359 0.0976,-2.22656 0.0957,-2.22656 0.0586,2.32422 0.0566,2.32421 0.77344,0.0293 c 0.42605,0.0156 3.69053,0.18516 7.25391,0.37891 9.31065,0.50629 12.95697,0.52227 13.34179,0.0586 0.1723,-0.20758 0.56145,-1.82206 0.86328,-3.58984 1.47084,-8.61441 9.77982,-66.54746 11.41016,-79.55274 3.40708,-27.17835 8.36567,-80.72693 8.89453,-96.05664 0.13897,-4.02817 0.26184,-16.95778 0.27344,-28.73242 0.0204,-20.7622 -3.3e-4,-21.64167 -0.69141,-29.1543 l -0.71289,-7.74609 -2.41992,-5.25586 c -2.65595,-5.76709 -3.5142,-7.04039 -9.92773,-14.74414 -5.13959,-6.17353 -13.03721,-16.10226 -14.2168,-17.87109 -0.76963,-1.15408 -1.20831,-2.31879 -1.77539,-4.71875 l -0.75195,-3.18555 h -17.52735 z"
     style="fill:#ff5555;stroke-width:0.28169015"
     id="path98"
     inkscape:connector-curvature="0" /><path
     d="m 131.60156,173.66797 v 0.64453 c 0,0.94433 -0.7497,3.66881 -1.59765,5.80273 -1.0206,2.56837 -2.17361,4.29691 -5.22657,7.83789 -5.99721,6.95594 -9.19524,11.06151 -15.25781,19.58204 -3.0925,4.3463 -4.06325,6.58668 -5.33789,12.33007 -1.92287,8.6643 -2.42851,15.45134 -2.63086,35.35157 -0.1824,17.93874 0.017,23.88829 1.33008,39.71875 1.80624,21.77552 5.38322,61.64977 5.91211,65.91601 0.15366,1.23944 0.53519,4.66181 0.84961,7.60547 2.85709,26.74873 12.65875,91.53368 14.11328,93.28711 0.1506,0.18155 0.74043,0.40269 1.3125,0.49219 1.3858,0.21693 15.38494,1.00976 17.83789,1.00976 h 1.93555 l 0.0527,-3.59179 0.0527,-3.5918 0.1582,3.42773 c 0.0869,1.88567 0.23633,3.50657 0.33203,3.60157 0.0957,0.095 2.08493,0.25175 4.41992,0.34765 l 4.2461,0.17383 0.10742,-1.38086 0.10742,-1.38086 0.0508,1.47852 c 0.0454,1.32141 0.11728,1.48241 0.68359,1.50781 0.34859,0.0156 3.54991,0.18516 7.11329,0.37891 9.12376,0.49609 13.2408,0.52144 13.60546,0.082 0.53583,-0.64563 0.96317,-3.32005 5.40821,-33.8711 3.3926,-23.31753 6.23022,-43.65983 7.17187,-51.4082 3.37558,-27.77595 8.06572,-78.82796 8.60547,-93.66211 0.14093,-3.87324 0.26499,-16.86601 0.27539,-28.87304 0.0184,-21.26819 0.001,-22.02766 -0.69726,-29.50391 l -0.7168,-7.67578 -2.37695,-5.08789 c -2.57668,-5.51773 -3.46561,-6.90021 -7.93164,-12.32422 -11.71049,-14.2224 -16.04827,-19.7672 -16.90039,-21.60156 -0.35879,-0.77235 -0.92106,-2.57827 -1.24805,-4.01368 l -0.59375,-2.60937 H 149.1855 Z"
     style="fill:#ff5555;stroke-width:0.28169015"
     id="path100"
     inkscape:connector-curvature="0" /><path
     sodipodi:nodetypes="cccccccccccsscscccscccccccccsscssccc"
     inkscape:connector-curvature="0"
     id="path102"
     d="m 161.74297,464.21576 c -3.48591,-0.19395 -6.55986,-0.36491 -6.83098,-0.37992 -0.35333,-0.0197 -0.50492,-0.28659 -0.53517,-0.94279 -0.042,-0.91191 -0.0427,-0.91231 -0.16369,-0.098 l -0.12148,0.81752 -4.25061,-0.17448 c -2.96911,-0.12188 -4.3275,-0.28343 -4.50564,-0.53583 -0.20217,-0.28642 -0.28465,-0.28833 -0.39791,-0.009 -0.18903,0.46586 -2.64491,0.45118 -11.64522,-0.0696 -7.98488,-0.46205 -10.19368,-0.007 -6.63139,-3.21548 6.71533,3.10324 -13.7905,-61.84014 -17.02301,-91.0106 -0.31761,-2.8662 -0.76657,-6.92254 -0.99768,-9.01409 -0.71864,-6.50365 -4.33916,-47.12133 -5.90059,-66.19718 -1.04075,-12.71481 -1.27871,-18.75693 -1.27467,-32.36524 0.007,-23.17919 0.73515,-33.1573 3.12722,-42.84603 1.42541,-5.77341 1.66376,-6.21626 8.11133,-15.07042 3.66458,-5.03242 7.1562,-9.46896 10.863,-13.80282 4.12333,-4.82084 4.70246,-5.59355 5.74322,-7.66293 0.93578,-1.86066 2.29243,-6.17967 2.29243,-7.29816 V 173.668 h 17.60026 17.60027 l 0.14133,0.6338 c 0.0777,0.34859 0.33636,1.50896 0.57475,2.57859 0.79649,3.57385 1.28765,4.3475 8.42243,13.26648 1.85905,2.32395 5.13615,6.34642 7.28244,8.93883 6.64599,8.02737 7.53102,9.33505 10.19688,15.06644 l 2.40852,5.1781 0.5604,5.9717 c 0.94243,10.04269 0.99333,12.45778 0.80874,38.36606 -0.16896,23.71368 -0.21894,25.56586 -0.92339,34.22535 -2.61111,32.09666 -5.78368,64.20631 -8.34965,84.50704 -1.78959,14.15838 -9.96285,70.95141 -11.26783,78.29606 -0.31522,1.77411 -0.70978,3.39031 -0.8768,3.59155 -0.37738,0.45473 -4.9971,0.43104 -14.03751,-0.0719 z"
     style="fill:#ff5555;stroke-width:0.28169015" /><path
     inkscape:connector-curvature="0"
     id="path112"
     d="m 163.7148,116.01146 c -16.73508,-0.22004 -42.95925,-0.70208 -43.04847,-0.79129 -0.10483,-0.10483 1.35625,-16.505767 1.96392,-22.045428 l 0.31673,-2.887324 2.00363,0.0037 c 2.72372,0.005 5.41524,0.602246 17.00429,3.77304 l 9.93024,2.716939 9.08385,-3.713484 c 4.99611,-2.042417 9.21864,-3.714762 9.38339,-3.716324 0.16476,-0.0016 1.32366,0.610886 2.57535,1.360993 l 2.27579,1.363833 0.16634,2.838045 c 0.0915,1.560925 0.24837,6.98946 0.34862,12.0634 l 0.18227,9.22535 -3.62818,-0.0633 c -1.99551,-0.0348 -5.8465,-0.0925 -8.55777,-0.12813 z"
     style="fill:#ff8080;stroke-width:0.28169015" /><path
     d="m 130.48242,116.8457 c -9.54311,-10e-4 -10.26972,0.0312 -10.39844,0.46289 -0.22284,0.74737 -2.2352,11.19912 -3.12695,16.2461 -0.84874,4.80353 -0.91721,6.45011 -0.61133,14.54883 0.0957,2.53359 0.1672,2.84278 0.9336,4.0371 0.45655,0.71148 1.24111,1.65379 1.74218,2.09376 1.23887,1.08771 5.4069,3.06922 7.60352,3.61328 2.66417,0.65985 2.91161,0.94132 3.87305,4.41601 1.77244,6.40568 1.80538,10.74436 0.11914,15.98633 -1.35393,4.20894 -1.84647,4.92798 -9.9961,14.56055 -2.26625,2.67863 -8.8387,11.42269 -11.84179,15.75586 -2.49685,3.6027 -3.40366,5.82214 -4.62696,11.3125 -1.52612,6.84952 -2.17591,13.53246 -2.53515,26.08007 -0.44454,15.52703 -0.25737,29.53434 0.53906,40.25 0.92987,12.51112 5.64159,65.67983 6.64063,74.9336 1.54322,14.29447 5.28274,43.59294 6.2539,49.0039 l 0.1543,0.86329 h 34.45312 c 27.83534,0 34.45313,-0.0652 34.45313,-0.33985 0,-0.18692 0.71666,-5.45433 1.59179,-11.70508 3.83276,-27.37475 7.24052,-59.70012 10.19727,-96.70898 1.21861,-15.25287 1.24692,-16.15606 1.29492,-43.09766 l 0.0469,-26.26562 -0.69922,-6.79492 -0.69727,-6.79297 -2.21679,-4.74414 c -2.5544,-5.46995 -4.05764,-7.81096 -8.33203,-12.96875 -5.89511,-7.11343 -14.81591,-18.3124 -15.80665,-19.84375 -1.15343,-1.78281 -1.59025,-3.01138 -2.37304,-6.66993 -0.3688,-1.72362 -0.51057,-3.06318 -0.40625,-3.8496 0.088,-0.66315 0.96677,-3.87426 1.95117,-7.13672 l 1.78906,-5.93164 2.41211,-0.71485 c 3.00442,-0.88936 4.11573,-1.5454 7.20313,-4.25 2.40918,-2.11049 2.45312,-2.16985 2.45312,-3.33593 0,-0.65317 0.16917,-2.35004 0.375,-3.77149 0.20584,-1.42145 0.45444,-3.51068 0.55274,-4.64062 l 0.17968,-2.05274 -3.61914,-10.85547 -3.61914,-10.85547 -1.9082,-0.16015 c -2.71783,-0.22758 -31.83083,-0.67574 -43.99805,-0.67774 z"
     style="fill:#ff5555;stroke-width:0.26525199"
     id="path117"
     inkscape:connector-curvature="0" /><path
     d="m 106.18945,212.60156 -0.69531,2.1875 c -1.49799,4.71442 -2.55927,10.53907 -3.22656,17.70508 -0.92758,9.96109 -1.14429,38.30536 -0.38281,50 0.79083,12.14554 5.62177,66.76328 7.17968,81.16797 2.70954,25.05283 8.66533,66.59987 12.86914,89.76758 1.31634,7.25452 1.60761,8.41492 2.16016,8.62695 0.6642,0.25488 5.77487,0.63152 13.28516,0.97852 6.29436,0.2908 7.2772,0.28541 7.49218,-0.0488 0.19559,-0.30414 0.29464,-0.31502 0.4668,-0.0488 0.15321,0.23688 1.48276,0.38574 4.48438,0.50391 l 4.26757,0.16797 0.1211,-0.63672 c 0.1127,-0.59712 0.12245,-0.59151 0.15625,0.0918 0.0199,0.4012 0.18483,0.74166 0.36719,0.75586 0.18235,0.0142 2.95841,0.17623 6.16796,0.35938 3.20955,0.18316 7.83994,0.34959 10.29102,0.37109 l 4.45703,0.0391 0.36523,-0.875 c 0.44308,-1.06046 1.55102,-8.23186 5.84376,-37.84179 3.69822,-25.50929 5.63039,-39.42903 6.60937,-47.62305 2.35024,-19.6716 5.05656,-46.94601 7.0293,-70.82227 1.67004,-20.21281 1.65172,-19.67992 1.69922,-48.4082 l 0.0449,-26.6582 -0.69141,-6.49805 -0.6914,-6.49805 -1.54493,-3.38281 -1.54687,-3.38086 H 149.4785 Z"
     style="fill:#ff5555;stroke-width:0.26525199"
     id="path123"
     inkscape:connector-curvature="0" /><path
     d="m 106.18945,212.60156 -0.68359,2.1875 c -2.94133,9.40928 -3.78273,17.81068 -4.06055,40.51758 -0.23784,19.43882 -0.004,24.02131 2.97461,58.22266 3.28292,37.69682 4.50313,50.06287 6.62696,67.10937 3.93284,31.56632 11.53129,79.94146 12.74804,81.15821 0.45682,0.45682 1.92736,0.61542 9.91797,1.07226 8.53115,0.4876 11.05455,0.50281 11.23242,0.0644 0.10734,-0.26505 0.18253,-0.26458 0.3711,0.002 0.16273,0.23004 1.57305,0.39403 4.52929,0.52929 4.17467,0.191 4.29303,0.18188 4.32813,-0.33398 0.0313,-0.46023 0.0526,-0.45134 0.15234,0.0664 0.0632,0.32825 0.19562,0.60884 0.29492,0.62304 0.0993,0.0142 2.80608,0.17623 6.01563,0.35938 3.20955,0.18316 7.8998,0.34959 10.42383,0.37109 l 4.58984,0.0391 0.36133,-0.86328 c 0.1986,-0.47533 0.7256,-3.19151 1.17187,-6.03515 1.97798,-12.60358 9.18752,-62.80539 10.62696,-74.00196 2.27403,-17.68831 5.66206,-51.32851 7.70703,-76.52539 0.44994,-5.54376 0.93141,-11.3334 1.07031,-12.86523 0.43231,-4.76784 0.83146,-32.04988 0.69922,-47.7461 -0.11354,-13.47762 -0.19051,-15.60205 -0.77149,-21.09765 l -0.64648,-6.11133 -1.54492,-3.37109 -1.54688,-3.3711 h -43.29296 z"
     style="fill:#ff5555;stroke-width:0.26525199"
     id="path125"
     inkscape:connector-curvature="0" /><path
     d="m 106.16992,212.60156 -0.54297,1.65625 c -1.52281,4.63456 -2.66681,10.71693 -3.33789,17.76563 -0.955,10.03081 -1.19373,39.65429 -0.41015,50.86914 1.25272,17.92964 5.93736,69.91056 7.7207,85.67578 3.63652,32.1479 12.70967,91.74092 14.19336,93.22461 0.48098,0.48097 1.72013,0.61912 9.65625,1.07617 8.28807,0.47728 11.4043,0.5041 11.4043,0.0977 0,-0.21401 0.10589,-0.21163 0.375,0.0117 0.22846,0.1896 2.03869,0.3846 4.64257,0.49804 3.69232,0.16085 4.27233,0.13135 4.29883,-0.21289 0.0219,-0.28476 0.0636,-0.2658 0.15039,0.0664 0.0667,0.25531 0.14217,0.47603 0.16797,0.49023 0.0258,0.0142 2.67326,0.17623 5.88281,0.35938 3.20955,0.18316 8.00917,0.34959 10.66602,0.37109 l 4.83203,0.0391 0.26172,-0.99414 c 0.89231,-3.39153 9.91139,-65.47907 12.08984,-83.22265 2.57563,-20.97865 5.47317,-50.3811 7.97266,-80.90235 0.85871,-10.48568 1.26996,-30.14294 1.09375,-52.38672 -0.11502,-14.51984 -0.17921,-16.27205 -0.78906,-21.88476 l -0.66211,-6.09961 -1.53125,-3.25 -1.53321,-3.24805 H 149.4707 Z"
     style="fill:#ff5555;stroke-width:0.26525199"
     id="path127"
     inkscape:connector-curvature="0" /><path
     d="m 106.14258,212.60156 -0.80078,2.58594 c -2.92812,9.44125 -3.97447,21.66231 -3.98047,46.48438 -0.003,15.35105 0.2547,19.82219 2.92773,50.66406 3.81298,43.99492 5.27032,57.98659 8.6211,82.75781 3.47903,25.71921 8.91855,59.89601 10.47851,65.83398 0.25573,0.97343 0.43016,1.09546 1.96875,1.38477 1.31165,0.24664 14.83616,0.96698 18.00781,0.95898 1.62119,-0.004 4.70932,0.082 6.86133,0.19141 2.56363,0.13028 3.91402,0.10738 3.91602,-0.0664 0.002,-0.14589 0.11497,-0.0904 0.25,0.12305 0.1929,0.30499 1.48391,0.45266 6.0293,0.69141 3.18169,0.16713 7.95838,0.32119 10.61523,0.34179 l 4.83203,0.0371 0.26172,-0.99414 c 0.99717,-3.7749 10.37552,-68.57147 12.48437,-86.25586 2.31148,-19.38358 4.85873,-45.16828 6.88086,-69.64648 1.6942,-20.50839 1.68105,-20.09276 1.71485,-48.80664 0.0306,-26.02596 0.0189,-26.6444 -0.59571,-32.89063 l -0.62695,-6.36718 -1.5957,-3.51368 -1.5957,-3.51367 h -43.32813 z"
     style="fill:#ff5555;stroke-width:0.26525199"
     id="path129"
     inkscape:connector-curvature="0" /><path
     d="m 131.01367,116.8457 c -10.04801,-4.8e-4 -10.8009,0.0307 -10.92969,0.46289 -0.23344,0.78349 -2.48091,12.44702 -3.23437,16.78907 -0.60634,3.49422 -0.70089,4.7459 -0.65039,8.47656 0.10741,7.92968 0.1239,8.07505 1.06836,9.54687 0.46368,0.72259 1.25283,1.67332 1.7539,2.11329 1.20568,1.05859 5.37195,3.05283 7.52344,3.5996 2.89901,0.73676 2.97245,0.82393 4.10547,4.99805 1.01727,3.74751 1.4026,8.03917 0.98242,10.94531 -0.43793,3.0289 -1.6476,6.72227 -2.88672,8.82032 -0.93791,1.58803 -1.85587,2.74419 -7.66601,9.64453 -2.63997,3.13533 -9.67922,12.48911 -12.6582,16.82031 -2.38703,3.47053 -3.41759,6.2333 -4.67969,12.53711 -1.62668,8.12484 -2.08666,14.90553 -2.29883,33.97266 -0.16383,14.72297 0.0507,23.11651 0.84375,33.15625 0.81786,10.35418 3.0875,36.75234 3.1875,37.06836 0.15428,0.48752 88.44808,0.48752 88.45508,0 0.003,-0.18237 0.11698,-1.40576 0.2539,-2.71876 0.3898,-3.73799 2.34001,-27.58741 2.68946,-32.89062 0.20656,-3.13483 0.32229,-14.11177 0.33789,-31.96289 l 0.0254,-27.18945 -0.67578,-5.97852 -0.67383,-5.97656 -2.82227,-5.69336 c -3.121,-6.29456 -1.92223,-4.63064 -14.25781,-19.77344 -6.6439,-8.15586 -9.25739,-11.59711 -10.05664,-13.24023 -0.42578,-0.87533 -1.09812,-3.05919 -1.49414,-4.85157 -0.86222,-3.90243 -0.88132,-3.75103 1.53125,-11.80273 l 1.65234,-5.51367 2.25977,-0.6875 c 1.2435,-0.37746 2.79858,-0.95971 3.45508,-1.29492 1.24337,-0.63487 6.07129,-4.71102 6.21875,-5.25 0.0465,-0.16991 0.22367,-1.6218 0.39453,-3.22657 0.17087,-1.60478 0.4405,-4.12325 0.59765,-5.59765 l 0.28516,-2.68164 -3.63086,-10.89258 -3.63086,-10.89453 -1.64258,-0.15625 c -2.41572,-0.23022 -31.25136,-0.67714 -43.73242,-0.67774 z"
     style="fill:#ff5555;stroke-width:0.26525199"
     id="path131"
     inkscape:connector-curvature="0" /><path
     inkscape:connector-curvature="0"
     id="path4641"
     d="m 149.76143,115.76528 c -6.20027,-0.10859 -15.24204,-0.28205 -20.09284,-0.38547 l -8.81963,-0.18804 0.002,-1.36187 c 0.002,-1.32877 1.33321,-16.284616 1.85417,-20.830765 0.14381,-1.25497 0.26245,-2.371286 0.26365,-2.480703 0.005,-0.415197 3.70386,-0.169582 6.63348,0.440428 1.67772,0.349338 7.28779,1.787744 12.46684,3.196458 5.17904,1.408714 9.71485,2.508626 10.07958,2.44425 0.36472,-0.06438 4.50251,-1.682774 9.19508,-3.596439 4.69258,-1.913665 8.75093,-3.479014 9.01857,-3.478552 0.26764,4.62e-4 1.44152,0.573853 2.60863,1.274203 l 2.12201,1.273362 0.17176,2.373012 c 0.0945,1.305157 0.26147,6.699936 0.37112,11.988396 l 0.19935,9.61539 -7.40029,-0.0431 c -4.07016,-0.0237 -12.47324,-0.13196 -18.6735,-0.24054 z"
     style="fill:#ff8080;stroke-width:0.26525199" /><path
     inkscape:connector-curvature="0"
     id="path4643"
     d="m 162.224,115.9902 c -19.11572,-0.28549 -41.41231,-0.72137 -41.50227,-0.81133 -0.11837,-0.11836 1.23232,-15.598678 1.91338,-21.929357 l 0.32044,-2.978556 2.02438,0.06492 c 2.91513,0.09348 4.94817,0.511816 13.05219,2.685729 9.9715,2.674867 11.80483,3.157386 12.8924,3.393179 l 1.17175,0.254045 3.73591,-1.503327 c 2.05475,-0.82683 6.12623,-2.466639 9.04773,-3.644021 2.9215,-1.177381 5.39417,-2.141134 5.49482,-2.141672 0.15875,-8.49e-4 2.68287,1.396639 4.27639,2.367636 l 0.53326,0.324936 0.0741,1.22253 c 0.13773,2.272797 0.2957,7.200038 0.41313,12.885438 0.0643,3.11203 0.14723,6.63256 0.18433,7.82339 l 0.0675,2.16514 -1.99977,-0.0169 c -1.09987,-0.009 -6.36469,-0.0821 -11.69961,-0.16178 z"
     style="fill:#ff8080;stroke-width:0.11547438" /></g></svg>