<?xml version="1.0" encoding="utf-8"?>
<!-- Generator: Adobe Illustrator 23.0.1, SVG Export Plug-In . SVG Version: 6.00 Build 0)  -->
<svg version="1.1" id="Layer_1" xmlns="http://www.w3.org/2000/svg" xmlns:xlink="http://www.w3.org/1999/xlink" x="0px" y="0px"
	 viewBox="0 0 288 560" style="enable-background:new 0 0 288 560;" xml:space="preserve">
<style type="text/css">
	.st0{fill:#FBC59F;}
	.st1{fill:#FBC5A0;}
	.st2{fill:#EE537B;}
	.st3{fill:#FAD2B3;}
	.st4{fill:#D1506F;}
	.st5{fill:#E4A987;}
	.st6{fill:#E6AD8B;}
	.st7{fill:#E4AA88;}
	.st8{fill:#E9B18E;}
	.st9{fill:#E0A584;}
	.st10{fill:#DCA481;}
</style>
<path class="st0" d="M119.66,226.51c0.07-0.34,0.18-0.67,0.32-1C119.79,225.84,119.66,226.18,119.66,226.51z"/>
<path class="st0" d="M125.85,220.5c0.41-0.08,0.87-0.18,1.41-0.3C126.77,220.27,126.31,220.38,125.85,220.5z"/>
<path class="st0" d="M196.36,292.4c-4.35-25.56-10.84-50.64-17.47-75.67c-1.64-6.18-2.68-13.27-9.83-16.39
	c-1.69-1.73-3.96-1.38-6.02-1.67c-4.25-0.6-6.36-0.89-7.57-2.09c-0.81-0.8-1.26-2.96-2.16-7.19c-0.35-1.64-0.61-3.02-0.79-3.98
	c-0.18,0.45-0.5,1.08-1.1,1.63c-0.76,0.7-1.63,0.54-2.88,1.2c-2.68,1.41-5.3,1.81-8.07,0.31c-1.36-0.73-2.34-0.84-3.04-0.49
	c2.24,1.96,3.43,2.87,3.57,2.73c0.16-0.16-1.06-1.72-3.67-4.66c-0.51,1.62-1,3.35-1.46,5.19c-0.49,1.98-0.88,3.87-1.19,5.66
	c-1.9,1.24-4.14,0.62-6.18,1.09c-3.23,0.74-7.03-0.1-9.41,3.17c-3.67,0.52-5.13,3.05-6.19,6.3c-8.89,27.35-14.44,55.52-20.61,83.53
	c-0.86,3.88-0.29,7.67,2.86,10.56c1.89,1.73,3.86,5.38,6.23,3.88c2.45-1.55-0.69-4.32-1.41-6.55c-0.3-0.93-0.87-2.01-0.65-2.84
	c0.61-2.28,0.12-6.04,4.57-4.34c0.81,0.31,1.63,0.57,2.27-0.2c1-1.21,0.15-2.35-0.58-3.1c-2.74-2.84-2.26-5.74-1.05-9.15
	c5.33-15.01,10.43-30.09,15.62-45.15c1.38-2.1,0.05-4.15-0.11-6.23c-0.46-0.97-0.54-1.84-0.38-2.65c0-0.33,0.13-0.66,0.32-1
	c0.38-0.87,1-1.67,1.64-2.47c1.41-1.58,0.9-3.61,1.15-5.46c0.37,2.88,0.44,3.42,3.08,2.92c0.46-0.12,0.93-0.22,1.41-0.3
	c0.26-0.06,0.54-0.12,0.83-0.19c0.3-0.07,0.42-0.17,0.35-0.31c-0.32-0.59,0.65,0.38-0.07,0.36c-0.38,0.04-0.75,0.08-1.11,0.14
	c-0.54,0.12-1.01,0.22-1.41,0.3c-2.1,0.56-3.9,1.66-5.09,3.89c-0.27,0.37-0.57,0.75-0.78,1.12c-0.14,0.32-0.25,0.65-0.32,1
	c0,0.5,0.31,1,1.17,1.48c6.06-2.35,11.58-1.82,16.36,2.95c0.32,0.32,0.94,0.28,1.44,0.3c3.73-0.44,7.46-0.51,11.2-0.16
	c5.82-3.17,11.61-6.48,18.52-3.1c0.24-1.43,0.14-2.62-0.32-3.65c-0.06-0.09-0.11-0.19-0.16-0.28c-0.25-0.46-0.59-0.86-0.94-1.27
	c-1.16-1.14-3.01-2.05-5.67-2.89c1.06-0.57,3.02,2.53,4.31-0.69c0.03-0.07,0.06,0.12,0.05,0.15c-0.34,1.52,0.5,2.47,1.31,3.43
	c0.48,0.47,0.85,0.99,1.1,1.55c0.78,1.27,1.98,2.48,1.03,4.21c0.02,2.38-1.82,4.54-0.82,7.03c5.89,13.74,9.99,28.11,14.93,42.18
	c1.51,4.31,3.92,8.28-0.29,12.68c-1.74,1.82-0.53,3.59,2.25,2.57c3.24-1.2,3.66,0.8,4.05,3.18c0.47,2.88-0.98,5.14-2.17,7.51
	c-0.53,1.06-1.11,2.23,0.13,3.12c0.41,0.3,1.28,0.27,1.82,0.07C193.16,304.14,197.13,296.93,196.36,292.4z"/>
<path class="st0" d="M167.87,224.05c0.05,0.09,0.11,0.19,0.16,0.28c-0.25-0.56-0.62-1.08-1.1-1.55
	C167.28,223.19,167.62,223.59,167.87,224.05z"/>
<path class="st1" d="M163.28,268.53c5.14,15.49,4.37,31.46,3.46,47.35c-0.7,12.24-2.33,24.43-3.58,36.64
	c-1.74,17-3.33,34.01-5.43,50.96c-0.39,3.14-0.07,4.99,2.45,6.65c0.95,0.62,1.97,1.56,1.53,2.88c-0.43,1.31-1.74,1.36-2.93,1.39
	c-0.33,0.01-0.67,0.01-1,0.01c-12.14-0.07-10.61,1.29-10.62-10.11c-0.05-40.31-0.02-80.61-0.03-120.92
	c0.02-2.43,2.16-3.18,3.65-4.32C155.12,275.75,159.52,272.52,163.28,268.53z"/>
<path class="st0" d="M141.19,283.45c0.27,27.63,1,55.26,0.62,82.88c-0.2,14.63-0.45,29.27-0.51,43.91c-0.01,3.3-1.16,4.49-4.39,4.21
	c-2.48-0.22-4.99-0.04-7.49-0.04c-1.03,0-2.15-0.08-2.55-1.15c-0.39-1.04,0.22-2.1,1.1-2.55c4.34-2.23,3.43-6.16,2.96-9.67
	c-2.82-20.88-4.64-41.87-6.87-62.81c-1.53-14.37-3-28.76-2.77-43.22c0.13-8.27,0.99-16.56,3.82-24.48
	C131.32,273.78,137.67,276.85,141.19,283.45z"/>
<path class="st0" d="M129.01,260.34c-0.98-6.9-1.96-13.79-2.94-20.69c3.29-2.1,7.63-1.73,10.64-4.51c0.48-0.18,0.98-0.25,1.49-0.24
	c1.75,0.27,3.51,0.34,5.28,0.26c2.84,0.15,5.68-0.33,8.52-0.14c2.98,2.55,7.16,2.49,10.27,4.76c-0.77,6.93-1.54,13.87-2.31,20.8
	C150.96,269.85,137.92,270.18,129.01,260.34z"/>
<path class="st2" d="M129.01,260.34c1,0.58,2.04,1.1,3,1.74c8.11,5.41,16.24,5.72,24.47,0.24c1.07-0.71,2.32-1.17,3.49-1.74
	c1.1,2.65,2.21,5.3,3.31,7.95c0.12,2.04-1.02,3.2-2.59,4.36c-4.59,3.39-9.05,6.98-13.55,10.49c-1.98,0.03-3.97,0.05-5.95,0.08
	c-4.76-5.05-11.12-8.11-16.08-12.92C125.69,266.86,127.11,263.51,129.01,260.34z"/>
<path class="st2" d="M162.27,239.78c-3.9-0.08-7.73-0.33-10.21-4.02c-2.02-1.26-2.93-2.92-1.93-5.28
	c5.39-4.69,11.02-7.84,17.97-2.92c0.52,0.54,1.61,0.14,1.84,1.14c0.47,2.55-0.8,4.67-1.72,6.87
	C166.73,237.66,164.56,238.81,162.27,239.78z"/>
<path class="st2" d="M137.31,235.63c-3.01,3.41-6.87,4.44-11.24,4.02c-2.3-0.97-4.14-2.57-5.92-4.26c-0.62-2.25-1.53-4.46-0.91-6.87
	c0.32-0.82,1.37-0.43,1.8-1.09c6.7-4.65,12.11-2.03,17.09,3.02C140.25,232.56,137.34,233.87,137.31,235.63z"/>
<path class="st3" d="M137.94,189.92c0.01-0.02,0.02-0.03,0.03-0.05c-0.12-0.13-0.24-0.25-0.35-0.38
	C137.71,189.64,137.82,189.79,137.94,189.92z"/>
<path class="st3" d="M156.13,167.78c-0.01,0.25-0.01,0.5-0.01,0.75c-0.03-0.36-0.07-0.71-0.12-1.06c-0.05-0.23-0.08-0.47-0.1-0.71
	c-0.03-0.14-0.05-0.29-0.08-0.43c0.03,0.04,0.05,0.08,0.07,0.13C155.9,166.9,155.99,167.35,156.13,167.78z"/>
<path class="st4" d="M137.31,235.63c-0.41-0.33-2.1-0.14-0.92-1.13c1.4-1.17,1.81-2.42,1.73-4.05c4-1.18,8-1.5,12.01,0.01
	c0.64,1.76,1.29,3.52,1.93,5.28c-3.01,0.84-6.05,0.74-9.11,0.38c-1.64-0.41-3.39,0.24-5-0.5l-0.32,0.05L137.31,235.63z"/>
<path class="st5" d="M169.95,228.69c-0.61-0.38-1.23-0.76-1.84-1.14c-0.37-5.63-5.02-6.25-9.21-7.48c2.17-1.78,5.95,1.76,7.06-2.71
	C164.88,222.08,171.12,224.02,169.95,228.69z"/>
<path class="st6" d="M146.38,210.15c4.03-3.02,8.75-2.61,14.13-2.62C155.78,210.7,150.66,208.35,146.38,210.15z"/>
<path class="st7" d="M121.1,223.45c0.47-2.23,0.94-4.46,1.56-7.4c0.22,6.63,4.82,2.36,7.7,3.96c-3.74,0.75-7.01,1.69-9.23,4.53
	c-0.31-0.23-0.42-0.47-0.33-0.72C120.9,223.57,121,223.45,121.1,223.45z"/>
<path class="st8" d="M137.16,209.47c-3.3,0.32-6.33-0.83-9.39-2.14c3.41,1.29,7.06-1.01,10.39,1.14
	C138.11,209.09,137.45,209.1,137.16,209.47z"/>
<path class="st9" d="M121.1,223.45c0.01,0.36,0.02,0.73,0.03,1.09c-0.2,0.96-1.65,1.88-0.1,2.9c-0.32,0.83-1.01,1.03-1.8,1.09
	C118.46,226.32,119.17,224.66,121.1,223.45z"/>
<path class="st10" d="M137.16,209.47c0.33-0.33,0.67-0.67,1-1.01c1.4,0.19,2.99-0.43,4.52,1.49
	C140.58,209.77,138.87,209.62,137.16,209.47z"/>
<path class="st2" d="M137.96,235.64c1.68,0.01,3.43-0.59,5,0.5C141.24,236.45,139.53,236.71,137.96,235.64z"/>
<path class="st3" d="M154.49,185.1c-0.11,0.27-0.23,0.54-0.34,0.82c-0.16,0.39-0.31,0.78-0.46,1.16c-0.17,0.23-0.4,0.51-0.7,0.78
	c-0.3,0.27-0.59,0.48-0.83,0.64c-4.36,3.78-8.93,5.73-14.13,1.31c-0.01,0.02-0.02,0.04-0.03,0.06c0.44,0.27,0.66,0.42,0.65,0.44
	c-0.01,0.02-0.37-0.15-1.06-0.52c-0.83-0.74-1.24-1.21-1.46-1.52c-0.04-0.06-0.32-0.41-0.3-0.42c0.04-0.03,1.52,1.72,1.52,1.73
	c0,0-0.67-0.76-1.52-1.73c-1.24-2.82-2.53-6.55-3.19-11.07c-0.35-2.38-0.46-4.58-0.45-6.51v-0.16c0-8.46,5.38-15.32,12-15.32
	c5.61,0,10.31,4.91,11.63,11.55c0.03,0.14,0.05,0.29,0.08,0.43c0.02,0.24,0.05,0.48,0.1,0.71c0.05,0.35,0.09,0.7,0.12,1.06
	c-0.01,0.92,0,1.86,0.03,2.79C156.28,176.05,156.62,180.81,154.49,185.1z"/>
<path class="st3" d="M156.19,170.1c0,0.41-0.01,0.82-0.04,1.22c-0.03-0.93-0.04-1.87-0.03-2.79
	C156.17,169.04,156.19,169.57,156.19,170.1z"/>
<path class="st3" d="M158.46,185.48"/>
</svg>
