<?xml version="1.0" encoding="UTF-8" standalone="no"?>
<!-- Generator: Adobe Illustrator 23.0.3, SVG Export Plug-In . SVG Version: 6.00 Build 0)  -->

<svg
   xmlns:dc="http://purl.org/dc/elements/1.1/"
   xmlns:cc="http://creativecommons.org/ns#"
   xmlns:rdf="http://www.w3.org/1999/02/22-rdf-syntax-ns#"
   xmlns:svg="http://www.w3.org/2000/svg"
   xmlns="http://www.w3.org/2000/svg"
   xmlns:sodipodi="http://sodipodi.sourceforge.net/DTD/sodipodi-0.dtd"
   xmlns:inkscape="http://www.inkscape.org/namespaces/inkscape"
   version="1.1"
   id="Layer_1"
   x="0px"
   y="0px"
   viewBox="0 0 300 500"
   style="enable-background:new 0 0 300 500;"
   xml:space="preserve"
   sodipodi:docname="female_pear_suit.svg"
   inkscape:version="0.92.3 (2405546, 2018-03-11)"><metadata
   id="metadata50"><rdf:RDF><cc:Work
       rdf:about=""><dc:format>image/svg+xml</dc:format><dc:type
         rdf:resource="http://purl.org/dc/dcmitype/StillImage" /><dc:title></dc:title></cc:Work></rdf:RDF></metadata><defs
   id="defs48" /><sodipodi:namedview
   pagecolor="#ffffff"
   bordercolor="#666666"
   borderopacity="1"
   objecttolerance="10"
   gridtolerance="10"
   guidetolerance="10"
   inkscape:pageopacity="0"
   inkscape:pageshadow="2"
   inkscape:window-width="1920"
   inkscape:window-height="1001"
   id="namedview46"
   showgrid="false"
   inkscape:zoom="5.17"
   inkscape:cx="84.646545"
   inkscape:cy="386.13597"
   inkscape:window-x="-9"
   inkscape:window-y="-9"
   inkscape:window-maximized="1"
   inkscape:current-layer="Layer_1" />
<style
   type="text/css"
   id="style31">
	.st0{fill:#C68642;}
	.st1{opacity:0.14;fill:#422200;enable-background:new    ;}
	.st2{fill:#EE537A;}
</style>




<path
   id="path54"
   style="fill:none;stroke:#000000;stroke-width:1px;stroke-linecap:butt;stroke-linejoin:miter;stroke-opacity:1"
   d="m 163.37496,83.588506 2.51152,1.75807 4.14403,0.502306 3.13941,0.502306 4.2696,2.260376 3.13941,2.762682 2.1348,4.144022 3.39056,11.678612 7.28344,21.09684 11.1763,30.13835 L 192.50869,178.5243 181.96027,154.41362 177.9,149.2 l 2.3022,32.21256 5.27421,5.39978 5.42359,7.08766 4.3,11.2 2.45733,18.12951 0.37672,2.76269 -43.95175,21.8503 z M 135.7,84.1 l -3.21685,1.497729 -4.64633,0.251153 -4.01844,1.506917 -3.64172,3.264988 -2.88826,4.144023 -5.65094,16.70167 -6.02767,17.45512 -9.920538,27.37567 13.562258,15.19475 3.76729,-7.91132 2.76268,-5.27421 L 121.9,149.9 119.04647,181.28698 109,193.7 l -4.77155,14.96265 -2.38595,16.82724 42.06811,21.72472 z" /><path
   style="fill:#000000;fill-opacity:1;stroke-width:0.20375921"
   d="m 122.96115,235.7265 c -11.09469,-5.72615 -20.23471,-10.46999 -20.31117,-10.54185 -0.0764,-0.0719 0.35881,-3.70664 0.96726,-8.07728 l 1.10627,-7.94661 2.38529,-7.53909 2.38528,-7.53909 5.06547,-6.27151 5.06548,-6.27151 1.51524,-16.63443 c 0.83338,-9.14893 1.48411,-16.66555 1.44607,-16.70359 -0.11355,-0.11355 -0.5378,0.43706 -4.02921,5.22926 -3.25278,4.46466 -3.41822,4.7419 -6.41946,10.75718 l -3.08064,6.1744 -5.76315,-6.47823 c -3.16973,-3.56303 -6.023673,-6.75715 -6.342099,-7.09805 l -0.578956,-0.61981 4.801645,-13.23581 c 4.86502,-13.41053 8.59926,-24.09049 13.78278,-39.41887 l 2.85953,-8.456008 1.45151,-2.056581 c 0.91033,-1.289804 2.09439,-2.632576 3.17578,-3.601468 1.51957,-1.36149 1.95497,-1.629079 3.66766,-2.254088 1.60556,-0.585913 2.3445,-0.733405 4.25071,-0.848441 1.83077,-0.110484 2.53836,-0.245022 3.42602,-0.651404 0.61529,-0.281689 1.17798,-0.452886 1.25043,-0.380438 0.14072,0.140723 8.2173,159.103718 8.14019,160.214978 l -0.0458,0.65953 z"
   id="path57"
   inkscape:connector-curvature="0"
   inkscape:label="path57" /><path
   style="fill:#000000;fill-opacity:1;stroke-width:0.20375921"
   d="m 154.77857,246.194 c 0.0343,-0.30819 2.09611,-36.73269 4.5819,-80.94335 2.48579,-44.21065 4.54521,-80.415635 4.57649,-80.455512 0.0313,-0.03988 0.45215,0.203401 0.93525,0.540617 0.74045,0.516843 1.19833,0.65004 2.91597,0.848245 4.32324,0.498874 5.16799,0.716321 7.36905,1.896844 1.20059,0.643926 2.68612,1.658194 3.53383,2.412773 2.17345,1.934658 3.02712,3.76147 5.10798,10.930853 2.22773,7.67541 7.88602,23.99457 14.56195,41.99839 l 5.54383,14.95074 -5.61183,9.35453 c -3.0865,5.145 -5.67849,9.28262 -5.75996,9.19473 -0.0815,-0.0879 -2.37091,-5.2487 -5.08762,-11.46845 l -4.93948,-11.30864 -2.57053,-3.31836 c -2.45325,-3.16696 -2.57285,-3.28782 -2.6212,-2.64887 -0.0279,0.36822 0.48356,8.07949 1.13649,17.13616 l 1.18715,16.46666 2.76052,2.78858 c 1.7079,1.72527 3.76529,4.10941 5.39559,6.25249 l 2.63507,3.46391 2.09329,5.49281 2.09328,5.49281 1.39168,10.19665 c 0.86132,6.31077 1.31409,10.22481 1.18809,10.27054 -0.11197,0.0406 -9.66221,4.78569 -21.22276,10.54454 -11.56054,5.75886 -21.07253,10.47065 -21.13774,10.47065 -0.0652,0 -0.0905,-0.25216 -0.0563,-0.56034 z"
   id="path59"
   inkscape:connector-curvature="0" /><path
   style="fill:#ffffff;stroke:#000000;stroke-width:1px;stroke-linecap:butt;stroke-linejoin:miter;stroke-opacity:1"
   d="m 135.7,84.1 10.23292,12.328067 8.32228,0.351645 9.11976,-13.191206 -7.24431,124.897294 -13.47975,0.11721 z"
   id="path61"
   inkscape:connector-curvature="0" /><path
   style="fill:none;stroke:#000000;stroke-width:1px;stroke-linecap:butt;stroke-linejoin:miter;stroke-opacity:1"
   d="m 136.43753,91.503192 7.13798,10.452048 2.35741,-5.527173 8.40056,0.887486 0.91774,4.588707 7.18897,-8.004743 0.93477,-10.311011 -9.11976,13.191206 -8.32228,-0.351645 -6.58921,-8.136969 -3.26308,-3.772936 0.50985,7.087002 z"
   id="path65"
   inkscape:connector-curvature="0" /><path
   style="fill:#16502d;stroke:#000000;stroke-width:1px;stroke-linecap:butt;stroke-linejoin:miter;stroke-opacity:1"
   d="m 146.27775,97.111611 7.39292,0.764784 1.22365,4.792645 -4.53772,3.51801 0.56084,32.01897 -1.32562,3.72195 -2.70224,-3.97688 0.30591,-31.917 3.11013,0.051 h -3.11013 l -3.41603,-3.26308 z"
   id="path67"
   inkscape:connector-curvature="0" /><path
   style="fill:#000000;stroke:#000000;stroke-width:1px;stroke-linecap:butt;stroke-linejoin:miter;stroke-opacity:1"
   d="m 104.22845,208.66265 51.9022,-0.17685 39.08523,-0.62609 h 0.75188 l 2.06629,18.13249 0.32606,6.81632 -0.0683,12.78199 -0.88859,19.82234 -1.57211,21.1894 -1.77718,22.62481 -2.80247,33.21951 -3.41764,33.15115 -3.96447,33.90304 -3.89612,28.02469 -3.55435,18.93375 -2.18729,10.32129 -19.95905,0.61518 h -0.34176 l 0.0683,-3.00753 -0.0683,-221.46339 L 144.4,241.7 l -0.0387,226.5159 -18.72869,-0.0683 -0.13671,-2.11894 -1.64047,-8.33905 -3.34929,-16.60976 -5.12647,-34.51821 -3.34929,-29.52846 -3.28094,-33.97139 -2.66576,-26.93104 -3.82776,-51.8115 -0.54683,-25.90575 0.13339,-12.92356 z"
   id="path75"
   inkscape:connector-curvature="0" /></svg>