<?xml version="1.0" encoding="utf-8"?>
<!-- Generator: Adobe Illustrator 23.0.1, SVG Export Plug-In . SVG Version: 6.00 Build 0)  -->
<svg version="1.1" id="Layer_1" xmlns="http://www.w3.org/2000/svg" xmlns:xlink="http://www.w3.org/1999/xlink" x="0px" y="0px"
	 viewBox="0 0 288 560" style="enable-background:new 0 0 288 560;" xml:space="preserve">
<style type="text/css">
	.st0{fill:#FBC59F;}
	.st1{fill:#FBC5A0;}
	.st2{fill:#EE537B;}
	.st3{fill:#F9F0E4;}
	.st4{fill:#EE537A;}
	.st5{fill:#ED547A;}
	.st6{fill:#D04F6E;}
	.st7{fill:#EAB08F;}
	.st8{fill:#E8AE8C;}
	.st9{fill:#E5AD89;}
	.st10{fill:#E0A784;}
	.st11{fill:#FAD1B2;}
</style>
<path class="st0" d="M191.8,291c-7.7-25.8-15.3-51.6-22.8-77.4c-1.9-6.6-3.5-13.1-11-14.1c0,0,0,0-0.1,0c-0.2,0-0.5,0.1-0.7,0.1
	c-1.1,0.3-2.3,0.3-3.4-0.2c-1.2,0-1.4-0.3-1.2-0.7c-1.3-1.1-2-2.7-1.8-4.3l0,0c0,0,0,0,0-0.1c0,0,0,0,0-0.1c0-0.4,0.1-0.8,0.2-1.3
	c0-0.3,0.1-0.7,0.1-1c0.1-0.4,0.2-0.9,0.4-1.3c0-0.2,0.1-0.4,0.1-0.7l0,0c0-0.8,0.2-1.6,0.6-2.3c-4.4,1.1-8.8,2.1-13.3,0.5
	c-0.5-0.2-1.1,0-1.5,0.3l0,0c0.5,0.8,0.8,1.7,0.9,2.7c0.2,0.6,0.3,1.2,0.3,1.8c0,0.4,0,0.8-0.1,1.2c0,0.6,0,1.2-0.2,1.8
	c-0.1,0.4-0.3,0.7-0.5,1.1c-0.2,0.5-0.6,1-1,1.4c0,0.1,0,0.1,0,0.2c-0.2,1.3-1.2,1.2-2.1,1.1c-0.8,0.2-1.7,0.2-2.5,0
	c-5.7,0.5-9.1,3.6-10.7,9.7c-1.7,6.6-3.9,13-5.8,19.6c-6.2,21.2-12.3,42.4-18.6,63.5c-1,3.4-0.5,6.2,1.5,8.9c1.4,1.9,2.5,5.6,5,4.4
	c2.2-1.1,0-4.1-0.7-6.2c-0.1-0.3-0.3-0.6-0.3-0.9c-0.1-2.6,1.5-4.4,2.9-6.2c1.4-1.7,2.2,0.4,3.2,1c0.6,0.4,1.2,0.8,1.8,0.3
	c1-0.8,0.4-1.7,0.2-2.7c-0.6-2.6-4-4.2-2.7-7.6c5.2-13.3,10.2-26.6,15.3-40c0.6-0.4,0.9-0.9,1.1-1.6c0.1-0.3,0.2-0.5,0.1-0.5
	c-0.6-0.3,0.4-0.6,0.1,0.1c0,2.6,1.1,5.4-0.1,8.1c0,3.3,0,6.6,0,9.9c9.1,8.8,30.7,8.5,40.8,0.2c-0.3-6.6-1.3-13.2-0.5-21
	c5.1,13.7,9.6,26.4,14.4,38.9c1.7,4.4,4,8.6,0,12.9c-0.6,0.7-0.9,1.9,0,2.7c0.4,0.3,1.4,0.3,1.8,0c3.6-3.2,3.9,0.6,5,2.4
	c1.5,2.5,0,4.8-0.6,7.2c-0.3,1.2-1.5,2.6,0.3,3.4c1.5,0.7,2.4-0.7,3.3-1.7C191.9,300.4,193.3,296.2,191.8,291z"/>
<path class="st1" d="M146.7,280.5c-4.5-0.9-6,0.6-6,5.5c0.1,40.3,0,80.6-0.1,121c0,5.6-5.5,8.9-10.5,6.1c-2.2-1.2-1.1-2.6,0.2-3.5
	c2.5-1.7,2.8-3.8,2.1-6.5c-4.1-16.5-5.8-33.3-7.9-50.1c-2.5-19.7-3.1-39.4-2.7-59.2c0.3-10.8,1.1-21.5,1.7-32.3
	c2,7.6,7,12.3,14,15.5c3,1.4,6.3,0.5,9.1,2.2C147,279.6,147,280.1,146.7,280.5z"/>
<path class="st0" d="M146.7,280.5c0-0.3,0-0.5,0-0.8c6.2-3.5,11.3-8.6,17.9-11.3c1.5,13.7,1.9,27.5,1.8,41.3
	c-0.1,23.6-2.8,47-6.3,70.3c-1.1,7.6-2.6,15-4.5,22.4c-0.8,3.1-0.9,5.4,2,7.3c0.8,0.5,1.8,1.3,1.4,2.4c-0.4,1-1.6,1-2.6,1.1
	c-7.9,0.9-8.8,0.2-8.8-7.5c0-17.7,0.4-35.3-0.2-53C146.8,328.8,147,304.7,146.7,280.5z"/>
<path class="st2" d="M164.6,268.5c-5.5,4.5-10.6,9.6-17.9,11.3c-5.9,0.4-10.9-1.7-15.7-5c-4.7-3.3-8.4-6.9-7.5-13.3
	c0.1-0.7,0.1-1.4,0.2-2c7.5,2.9,14.9,6,23.3,5.2c6.2-0.6,11.6-3.6,17.5-5C164.6,262.6,164.6,265.5,164.6,268.5z"/>
<path class="st3" d="M122.7,243.4c0.1-1.4,0.1-2.9,2-4.2c-0.1,3.7,0.9,7.1-0.8,10.4C123.3,247.5,124.6,245.2,122.7,243.4z"/>
<path class="st4" d="M124.7,223.7c4.5-0.9,8,0.8,11.2,3.7c1,0.9,1.8,2.5,3.6,2c-0.8,2,2.5,1.2,2,2.9c-1.4,0.3-2.9,0.1-4,1.5
	c-2.9,3.3-6.4,4.7-10.7,2.7c-4.2-2-5.6-5.4-5.1-9.9C122.6,225.4,122.9,223.8,124.7,223.7z"/>
<path class="st5" d="M149.7,230.3c3.3-4.2,7-7.8,13-6.8c1.2,0.4,2.5,0.6,3,2c1.8,4.4,0.1,7.9-3.4,10.3c-3.4,2.4-7.3,1.9-10.5-0.8
	c-1.5-1.3-2.7-2.9-5-2.8C146.8,230,149.1,231.4,149.7,230.3z"/>
<path class="st6" d="M149.7,230.3c-0.4,1.5-2.2,0.9-2.9,1.9c-1.7,0-3.5,0-5.2,0c-0.8-0.9-3.2-0.6-2-2.9
	C142.6,226.4,147.3,226.8,149.7,230.3z"/>
<path class="st7" d="M124.7,223.7c-1,1-2,2-3,2.9c2.1-4.8,3.9-9.8,2.9-15.8c4,2.6-0.2,7.5,4.2,9
	C128.1,221.7,125.2,221.4,124.7,223.7z"/>
<path class="st8" d="M165.7,225.6c-1-0.7-2-1.4-3-2c-0.6-4.5-4.9-2-7-3.5c5.8-2.4,5.8-2.4,6.7-7.5
	C162.2,217.2,164.9,221.1,165.7,225.6z"/>
<path class="st9" d="M154.5,205.8c-3,1.4-5.4,2.5-8.2,2C148.6,206.2,151,205.2,154.5,205.8z"/>
<path class="st10" d="M133.8,205.7c3.4-0.4,5.4,0.9,7.4,1.8C138.8,208,136.8,207,133.8,205.7z"/>
<g>
	<g>
		<path class="st0" d="M152.5,201.6c1.9,0,1.9-3,0-3S150.6,201.6,152.5,201.6L152.5,201.6z"/>
	</g>
</g>
<g>
	<g>
		<path class="st0" d="M152.6,201.8c1.7,0.5,3.4,0.9,5.1,1.2c1.9,0.4,2.7-2.5,0.8-2.9c-1.7-0.3-3.4-0.8-5.1-1.2
			C151.5,198.3,150.7,201.2,152.6,201.8L152.6,201.8z"/>
	</g>
</g>
<g>
	<g>
		<path class="st0" d="M153.2,201.6c0.6-0.1,1.5,0.6,2.1,0.8c0.8,0.3,1.7,0.4,2.5,0.4c1.9,0.1,1.9-2.9,0-3s-3.4-1.4-5.4-1.1
			C150.5,199.1,151.3,202,153.2,201.6L153.2,201.6z"/>
	</g>
</g>
<g>
	<g>
		<path class="st0" d="M154.3,201.8c0.7-0.1,1.4,0.2,2,0.4s1.4,0.2,2,0.5c1.7,0.9,3.2-1.7,1.5-2.6c-1-0.5-2-0.6-3-0.9
			c-1.1-0.4-2.2-0.5-3.3-0.3C151.6,199.3,152.4,202.2,154.3,201.8L154.3,201.8z"/>
	</g>
</g>
<g>
	<g>
		<path class="st0" d="M157.4,199.3c-1.9,0.4-3.7-0.5-5.6,0c-1.9,0.5-1.1,3.4,0.8,2.9c1.8-0.5,3.7,0.3,5.6,0
			C160.1,201.8,159.3,198.9,157.4,199.3L157.4,199.3z"/>
	</g>
</g>
<g>
	<g>
		<path class="st0" d="M137.2,197.9c-1.9,0.5-3.6,1.3-5.5,1.6s-3.5,1.2-4.9,2.4c-1.5,1.2,0.7,3.4,2.1,2.1c1.4-1.2,2.9-1.4,4.7-1.7
			c1.6-0.2,2.9-1.1,4.5-1.5C139.8,200.3,139.1,197.4,137.2,197.9L137.2,197.9z"/>
	</g>
</g>
<g>
	<g>
		<path class="st0" d="M150.3,200.7c1.2,0.7,2.5,1.3,3.8,1.6c1.4,0.3,3.2,0,4.5,0.5c-0.3-0.3-0.7-0.7-1-1c0,0,0,0.1,0.1,0.1
			c0.7,1.8,3.6,1,2.9-0.8c-0.6-1.5-2-1.4-3.4-1.5c-1.9-0.2-3.6-0.5-5.3-1.5C150.1,197.1,148.6,199.7,150.3,200.7L150.3,200.7z"/>
	</g>
</g>
<g>
	<g>
		<path class="st0" d="M153,201.4c1.8-0.4,4.4,0.6,5.8,1.6c1.5,1.2,3-1.4,1.5-2.6c-2.1-1.6-5.5-2.5-8.1-1.9
			C150.3,198.9,151.1,201.8,153,201.4L153,201.4z"/>
	</g>
</g>
<path class="st11" d="M157.5,173.3c-0.2-5.6-2.7-12.9-8-15.3c-2.3-1-4.9-1.1-4.9-1.1s-3.3-0.1-6.1,1.3c-6.6,3.3-7,13.5-7.1,14.9
	c0,1.3-0.3,12.1,6.1,15.3c2.5,1.3,5.6,1.2,7.1,1.1c1.2,0,4.3-0.2,6.7-1.5C157.8,184.7,157.6,174.4,157.5,173.3z"/>
</svg>
