<?xml version="1.0" encoding="utf-8"?>
<!-- Generator: Adobe Illustrator 23.0.1, SVG Export Plug-In . SVG Version: 6.00 Build 0)  -->
<svg version="1.1" id="Layer_1" xmlns="http://www.w3.org/2000/svg" xmlns:xlink="http://www.w3.org/1999/xlink" x="0px" y="0px"
	 viewBox="0 0 300 500" style="enable-background:new 0 0 300 500;" xml:space="preserve">
<style type="text/css">
	.st0{fill:#00A9C0;}
	.st1{fill:#FCC6A0;}
	.st2{opacity:0.14;fill:#422200;enable-background:new    ;}
</style>
<g>
	<path class="st0" d="M196.5,281.7c-13.1,2.8-26.3,1.9-39.4,2.1c0-5,0-9.9,0-15c1.7-6,7.2-6.5,11.6-9c-4.8,2.6-10.1,3.9-15.4,4.7
		c-2.5,0-5.1,0-7.6,0c-4.9-1.7-10.1-3.4-15.2-5.4c4.6,2.4,9.7,2.6,13.5,5.8c-0.2,6.2-0.4,12.3-0.4,18.5c-13.1,0.2-26.5,0.6-39.6-1.9
		c-1.3-20.6-2.3-41.1-1.9-61.7c32.2,6.9,64.2,6.5,96.4,0.2C197.8,240.9,197.1,261.3,196.5,281.7z"/>
	<g>
		<path class="st1" d="M101.8,218.5c0-13.1,0-26.2,0-41.5c-4.9,6.7-5.3,12.9-7.1,18.1c-7.6,23.7-14.9,47.5-22.5,71.2
			c-1.5,4.9-0.9,8.4,2.9,11.6c3.4,2.8,7.1,6,4.6,11c-2.7,5.4-6.3,3.2-10.3,1.1c-2.7-1.5-3.6,0.9-4.4,3.2c-2.9,6.7-0.8,12.7,1.9,18.9
			c1.1,2.8,3.8,6.5-0.8,9c-4.6,2.4-8,0.2-10.7-3.2c-6.9-8.8-9.7-17.9-7.4-29.5C58.2,235.2,66.4,181.3,79,128.6
			c4.2-17.6,13.3-29.5,33.5-31.2c6.5-0.6,9.5-0.9,13.5-3.4c4.8-3,7.2-8,8.4-12.1c0.9-3.2,0.4-6,0.2-7.3c-0.6-4.5-2.5-7.5-1.9-7.7
			c0.6-0.2,1.9,2.1,4.2,3.9c4.9,4.3,11.4,4.5,12.4,4.5c0.4,0,8.6,0.2,13.9-4.9c0.8-0.7,2.1-2.1,2.5-1.7c0.6,0.4-0.8,2.6-1.1,5.6
			c-0.4,2.6-0.2,4.7,0.2,6.4c2.1,7.8,5.7,11.6,8.6,13.3c5.7,3.6,10.3,2.6,23.4,5c14.5,2.8,19.4,14,23.2,25.6
			c8.6,26.4,11.6,54,17.1,80.9c5.3,26.7,9.7,53.6,14.7,80.6c2.1,11.6,0.6,22.2-7.1,31.6c-2.7,3.4-5.7,6.2-10.5,3.7
			c-4.9-2.6-2.5-6.5-0.8-9.7c2.7-5.2,3.1-10.5,2.1-16.3c-0.8-4.5-1.1-7.5-6.9-5c-2.7,1.1-6.1,1.9-7.8-0.9c-1.9-3.2-1.5-7.1,1.7-9.4
			c7.8-5.2,5.9-11,3.6-18.5c-8.9-27.5-17.1-55.1-27.6-82.4c0,13.1,0,26.2,0,39.3c-2.5,2.8-5.7,3.6-9.1,4.3c-25.9,4.9-52,4.9-77.9,0
			C107.6,222.3,104.3,221.2,101.8,218.5z"/>
		<g>
			<path class="st1" d="M143.4,281.9c0,68.8,0.2,137.6,0.2,206.6c0,7.3-2.5,11-10.7,10.5c-6.3-0.4-12.6-0.2-19.6-3.2
				c21.2-14.6,8.2-33.3,6.1-49.7c-4-31.4-7.6-62.8-10.3-94.4c-1.9-23.7-3.6-47.7-5.5-71.4C117.1,278.2,130.4,277.2,143.4,281.9z"/>
			<path class="st1" d="M197.1,278.6c-1.7,22.2-3.2,44.5-5.1,66.7c-2.7,30.8-5.5,61.7-10.3,92.3c-2.1,14-4,28.2-6.3,42.2
				c-0.8,4.7,2.9,5.6,5.3,7.8c1.9,1.9,5.7,3.2,4.6,6.4c-0.9,2.8-4.8,2.6-7.4,3c-4.4,0.6-8.8,0.2-13.3,0.4c-4.8,0.2-6.9-2.2-7.1-6.7
				c0-1.3,0-2.4,0-3.7c0-68.8,0-137.4,0.2-206.2c2.5-2.2,5.7-3,8.8-2.8C176.7,278.9,187,275.2,197.1,278.6z"/>
		</g>
	</g>
	<path class="st1" d="M120.3,85"/>
</g>
<path class="st1" d="M173.7,46.4c-3.8,19.1-11.1,29.3-24.5,29.3s-20.9-11.9-23.6-31.3c-2.7-19.2,10.9-35.1,24.3-35.1
	S177.2,29.2,173.7,46.4z"/>
<path class="st2" d="M134.6,71.7c-0.4,0.7,0,1.4,0.6,1.9c4.1,2.9,28,4.5,14.7,4.5c6.6,0,12-1.7,16.3-5.1c-0.1-0.3-0.2-0.7-0.4-0.9
	l0,0c-0.2-0.8-1.1-1.3-2-1.3l-27.1-0.2C135.7,70.4,134.9,71,134.6,71.7L134.6,71.7z"/>
</svg>
