<?xml version="1.0" encoding="utf-8"?>
<!-- Generator: Adobe Illustrator 23.0.1, SVG Export Plug-In . SVG Version: 6.00 Build 0)  -->
<svg version="1.1" id="Layer_1" xmlns="http://www.w3.org/2000/svg" xmlns:xlink="http://www.w3.org/1999/xlink" x="0px" y="0px"
	 viewBox="0 0 300 500" style="enable-background:new 0 0 300 500;" xml:space="preserve">
<style type="text/css">
	.st0{fill:#FCC6A0;}
	.st1{fill:#00A9C0;}
	.st2{fill:#FCC39D;}
	.st3{opacity:0.14;fill:#422200;enable-background:new    ;}
</style>
<path class="st0" d="M173.7,46.4c-3.8,19.1-11.1,29.3-24.5,29.3s-20.9-11.9-23.6-31.3c-2.7-19.2,10.9-35.1,24.3-35.1
	S177.2,29.2,173.7,46.4z"/>
<g>
	<g>
		<path class="st1" d="M145,288.7c-0.5,0.5-1.1,0.9-1.6,1.5c-0.5,1.3-1.1,1.3-1.6,0.2c-16.8-2.8-34.1-1.5-50.6-6.7
			c-3.3-20.9-2.7-41.6-2.9-62.6c9.6,1.1,19,2.3,28.5,3.5c28.5,3.9,56.9,1.9,85.1-3c2.7-0.4,5.4-0.2,8.1-0.4
			c-0.5,17.7-0.9,35.3-1.6,52.9c-0.2,3.4-1.1,6.7-1.6,10c-17.7,3.4-35.6,5.8-53.6,4.7c0-6.7,0-13.7,0-20.5c0-3.4-0.7-5.1-4.5-5.1
			c-3.6,0-3.6,2.4-3.6,4.9C145,275,145,282,145,288.7z"/>
	</g>
	<path class="st0" d="M207.1,283c0.5,21-3.1,41.6-5.4,62.3c-3.6,32.1-6.5,64.4-14.3,95.8c-2.5,10.3-5.4,20.5-8.7,30.5
		c-2.5,7.5-2.5,13.9,4.5,18.8c1.8,1.3,4.5,3.2,3.1,6c-1.1,2.3-4,2.6-6.3,2.6c-5.1,0-10.3-0.5-15.4,0.2c-9.2,1.3-11.4-3.4-11.4-11.8
		c0.2-51.6,0-103.1,0.2-154.7c0-15.1,0-30,0.2-45.1c1.8-1.3,3.8-2.1,5.8-2.3c14.3-0.7,28.7-1.5,42.8-3.9
		C203.8,281.1,205.6,281.7,207.1,283z"/>
	<path class="st0" d="M146.3,339.1c1.6,81.2,2.6,140.2,2.8,149.4c0,1.7,0.1,6.2-2.8,8.8c-1.8,1.6-4.6,2.1-8.6,1.7
		c-5.4-0.5-10.7,0-16.3-0.2c-2.4,0-5.5,0.7-6.5-2.4c-1-3.2,0.7-5.4,3.6-6.7c0.7,0.7,1.7,0.7,2.6,0.9c-0.7-0.4-1.9-0.2-2.6-0.9
		c6.1-5.3,5.9-11.4,3.5-18.6c-15.2-42.2-19.7-86.5-24.9-130.5c-2.3-19.5-5.4-38.8-5.5-58.4c2.1-1.9,4.8-1.5,7.3-1.1
		c12.3,2.1,24.5,3.5,37.1,3.5c4.2,0,8.4,0.5,10.2,5.4c0.1,93.1,0.2,190.9,0.2,190.9s-0.3-183.6-0.2-183.6c0,0,0,7.2,0.1,11.5
		C146.4,320.9,146.4,331.2,146.3,339.1z"/>
	<path class="st2" d="M116.2,496.4c7.8-4.4,14.1-1.9,20.2-2.8C132.5,497.5,129.8,497.9,116.2,496.4z"/>
	<path class="st2" d="M117.1,489.8c2.2,0.2,4.2-2.3,7,0C121.3,492.1,119.3,492.4,117.1,489.8L117.1,489.8z"/>
	<path class="st0" d="M165.5,73.1c1.6,10.3,2.5,15.6,5.4,18.4c3.4,3.4,6.1,1.1,17,2.8c13.4,2.1,22.9,7.9,29.1,21.6
		c21.5,47.2,37.2,95.8,41.4,148.2c0.7,9.6,1.1,19.3,1.4,28.9c0.7,14.2-7.4,20.9-18.4,27.2c-2.7,1.5-6.1,2.4-8.1-0.9
		c-1.6-2.8-1.3-6.5,1.6-8.4c5.6-3.7,4.7-8.2,3.3-13.7c-1.6-6-3.1-9.6-9.2-4.2c-2.3,2.1-5.1,2.4-7-0.5c-2.2-3-0.5-6,1.4-7.3
		c10.5-6.5,7-15.1,4.3-24.2c-6-19.8-11-40-18.2-59.6c0.4,6.2,0.7,12.6,0.9,18.8c-2.5,2.6-6,2.8-9,3.4c-34.1,6.2-68.5,6.3-102.6,0.2
		c-3.4-0.5-7.2-0.7-9.9-3.7c-0.5-6.2,2.2-12.4,0.5-18.6c-3.6,1.9-2.7,5.8-3.6,8.8c-5.6,19.3-10.7,39-16.6,58.1
		c-1.8,6-0.9,9.8,3.6,13.7c2.9,2.6,7.9,5.4,4.2,10.7c-3.3,4.4-6.5,0.5-9.4-1.3c-2.2-1.3-4.2-2.3-4.9,0.9c-1.3,6.2-7,12.6,1.3,18.2
		c2.7,1.9,3.6,5.1,2,8.2c-2,3.5-4.9,2.4-7.9,1.1c-11.2-4.4-17.9-13.7-18.4-26.1c-0.9-17.7,1.6-34.9,4-52.1
		c6-44.2,21-85.6,38.8-125.8c6.3-14.4,17-20,30.9-21.4c4.5-0.4,8.9-2.3,13.2-3c1.3-0.2,1.8-0.4,2.5-0.7c1.8-1.1,3.4-3.5,4.5-15.8
		c0.5-5.8,0.4-8.6,1.4-8.8c1.3-0.4,2,3.5,6,6.7c0.9,0.7,4.2,3.4,9,3.4c1.1,0,5.6-0.2,9-3.4c3.4-3.4,3.6-7.7,4.9-7.5
		C164.4,65.4,164.8,69.1,165.5,73.1z"/>
</g>
<path class="st3" d="M133.4,71.7c-0.4,0.7,0,1.4,0.6,1.9c4.1,2.9,28,4.5,14.7,4.5c6.6,0,12-1.7,16.3-5.1c-0.1-0.3-0.2-0.7-0.4-0.9
	l0,0c-0.2-0.8-1.1-1.3-2-1.3l-27.1-0.2C134.5,70.4,133.8,71,133.4,71.7L133.4,71.7z"/>
</svg>
