<?xml version="1.0" encoding="UTF-8" standalone="no"?>
<!-- Generator: Adobe Illustrator 23.0.1, SVG Export Plug-In . SVG Version: 6.00 Build 0)  -->

<svg
   xmlns:dc="http://purl.org/dc/elements/1.1/"
   xmlns:cc="http://creativecommons.org/ns#"
   xmlns:rdf="http://www.w3.org/1999/02/22-rdf-syntax-ns#"
   xmlns:svg="http://www.w3.org/2000/svg"
   xmlns="http://www.w3.org/2000/svg"
   xmlns:sodipodi="http://sodipodi.sourceforge.net/DTD/sodipodi-0.dtd"
   xmlns:inkscape="http://www.inkscape.org/namespaces/inkscape"
   version="1.1"
   id="Layer_1"
   x="0px"
   y="0px"
   viewBox="0 0 300 500"
   style="enable-background:new 0 0 300 500;"
   xml:space="preserve"
   sodipodi:docname="green_short_hair.svg"
   inkscape:version="0.92.3 (2405546, 2018-03-11)"><metadata
   id="metadata157"><rdf:RDF><cc:Work
       rdf:about=""><dc:format>image/svg+xml</dc:format><dc:type
         rdf:resource="http://purl.org/dc/dcmitype/StillImage" /><dc:title></dc:title></cc:Work></rdf:RDF></metadata><defs
   id="defs155" /><sodipodi:namedview
   pagecolor="#ffffff"
   bordercolor="#666666"
   borderopacity="1"
   objecttolerance="10"
   gridtolerance="10"
   guidetolerance="10"
   inkscape:pageopacity="0"
   inkscape:pageshadow="2"
   inkscape:window-width="1920"
   inkscape:window-height="1017"
   id="namedview153"
   showgrid="false"
   inkscape:zoom="1.63"
   inkscape:cx="150"
   inkscape:cy="250"
   inkscape:window-x="-8"
   inkscape:window-y="-8"
   inkscape:window-maximized="1"
   inkscape:current-layer="Layer_1" />
<style
   type="text/css"
   id="style148">
	.st0{fill:#4FD934;}
</style>
<path
   class="st0"
   d="M135.2,58.5c-0.7-11.7-8.2-22.9-6.3-34.8c0.2-1.4,0.9-2.7-1.6-3.1c-5.9-0.8-2.1-2.9-0.3-3.5  c5.6-2,3.3-4.2-0.2-7.1c4.7-0.8,8.9-0.1,12.4-1.8c6.1-2.9,19.1-2.6,25.2-3.7c10-1.8,14.2,8.3,22.6,5.2c4,15.7-2.4,30.1-6.1,44.9  c-2.8-4.9-5.9-9.7-7.2-15c-1.7-8.7-1.4-8.7-12.6-9.5c-15.7-1.2-15.7-0.3-19.8,11.3C139.6,46.9,138.7,53.1,135.2,58.5z"
   id="path150" />
<path
   style="fill:#00aa44;fill-opacity:1;stroke-width:0.61349696"
   d="m 133.90146,50.519286 c -0.92475,-3.626098 -2.3732,-9.077568 -3.21878,-12.114378 -1.15853,-4.160739 -1.53793,-7.000346 -1.5395,-11.522322 -0.001,-4.264171 -0.22401,-6.069222 -0.76895,-6.237103 -0.42178,-0.129939 -1.59509,-0.420638 -2.60736,-0.645997 l -1.84049,-0.409745 1.31318,-1.021864 c 0.72225,-0.562025 2.17164,-1.492153 3.22086,-2.066951 2.31639,-1.268988 2.41554,-2.65216 0.34504,-4.813294 l -1.56264,-1.631042 4.7835,-0.3509616 c 2.63092,-0.193029 6.3671,-0.9073688 8.30261,-1.5874217 1.93551,-0.6800529 6.35269,-1.5360509 9.81595,-1.9022178 3.46326,-0.3661669 8.78747,-0.9296534 11.83158,-1.2521922 6.52708,-0.6915777 8.26451,-0.3219205 14.89171,3.168369 3.78353,1.9926363 5.17667,2.4220163 7.30828,2.2524823 2.5703,-0.204425 2.64472,-0.157711 3.09363,1.942208 0.79636,3.725178 0.40201,15.395862 -0.67387,19.943083 -1.82988,7.734006 -5.6071,21.154503 -5.95555,21.160135 -0.87093,0.01407 -6.18325,-11.822248 -7.0624,-15.735673 -1.34649,-5.993738 -2.27038,-6.753268 -9.17697,-7.544445 -3.02807,-0.346877 -7.71417,-0.631919 -10.41356,-0.633427 -8.22497,-0.0046 -9.93278,1.90261 -14.00208,15.636845 -1.9591,6.612154 -3.86521,11.966917 -4.25769,11.961004 -0.0798,-0.0012 -0.90175,-2.968995 -1.8265,-6.595092 z"
   id="path159"
   inkscape:connector-curvature="0" /></svg>