<?xml version="1.0" encoding="utf-8"?>
<!-- Generator: Adobe Illustrator 23.0.3, SVG Export Plug-In . SVG Version: 6.00 Build 0)  -->
<svg version="1.1" id="Layer_1" xmlns="http://www.w3.org/2000/svg" xmlns:xlink="http://www.w3.org/1999/xlink" x="0px" y="0px"
	 viewBox="0 0 300 500" style="enable-background:new 0 0 300 500;" xml:space="preserve">
<style type="text/css">
	.st0{fill:#008033;}
</style>
<g id="Layer_3">
</g>
<path id="path181" class="st0" d="M130.7,70.7c-1.3-1.1-1.9-1.3-3.9-1l-2.3,0.3v-3.6v-3.6L121,63l-3.5,0.1l-0.6-2.2
	c-0.6-2.3-2.3-3.1-5.2-2.4c-1.7,0.4-1.8-0.2-0.3-3.5c0.6-1.3,0.9-2.7,0.7-3.1c-0.2-0.4-2.2-1-4.4-1.3c-5.8-0.9-6.4-1.3-3.9-2.7
	c1.1-0.6,3.7-2.3,5.7-3.7l3.7-2.6l-3.7-1.5c-5-2.1-7-3.4-6.4-4.1c0.3-0.3,1.2-0.6,2.1-0.6c0.9,0,2.3-0.4,3.1-0.9
	c1.9-1.1,1.4-1.5-4.4-3.8c-3.3-1.3-4.1-1.8-4.1-2.9c0-1.2,0.3-1.3,5-1.6c8.3-0.6,9.4-1.6,14-12.6c3.7-8.7,5-9.9,11.9-11.7
	C142.5-1,162.5-0.5,170.8,3c3.5,1.5,4.6,2.9,8.4,11.1c3.8,8.2,4.6,9.4,6.8,10.5c0.9,0.5,4.3,1,7.6,1.3c3.3,0.3,6.1,0.6,6.2,0.7
	c0.6,0.5-3,2.7-6.8,4.3c-2.2,0.9-4.2,1.8-4.4,2.1c-0.7,0.8,0.8,1.8,3.8,2.4c1.5,0.3,2.7,0.8,2.7,1.1c0,0.2-2.1,1.4-4.7,2.6
	c-2.6,1.2-4.7,2.5-4.8,2.9c0,0.7,2.1,2.4,6.8,5.3c3.5,2.1,3.2,2.7-1.8,3.2c-3.3,0.4-3.9,0.8-4.6,3.3c-0.8,3.2-1.1,3.5-3.5,4.1
	c-1.7,0.4-2.6,1.1-3.4,2.4c-1.2,2.1-2,2.6-4.1,2.6c-1.6,0-2.3,0.9-2.3,3c0,1.5-3.2,3.3-4.9,2.8c-1.5-0.4-2.6-2.7-3-5.8
	c-0.3-2.4,0.1-3.6,2.7-8.9c4-8,4.8-11,4.4-15.9c-0.5-6.8-3.2-9.3-18.7-17.4c-3.8-2-4.4-2.1-5.5-1.5c-6.7,3.6-19.1,11.6-20.3,13.1
	c-1.5,1.7-1.6,2.2-1.2,7.5c0.4,6.1,1.3,8.7,5.8,16.8c2.7,4.8,2.9,5.3,2.5,8.6c-0.5,4.3-1.1,6.9-1.7,6.9
	C132.4,72,131.5,71.4,130.7,70.7z M171.6,64.6c-0.5-1.1-0.9-0.9-0.9,0.3c0,0.6,0.3,0.9,0.6,0.7C171.7,65.5,171.8,65.1,171.6,64.6z"
	/>
</svg>
