<?xml version="1.0" encoding="UTF-8" standalone="no"?>
<!-- Generator: Adobe Illustrator 23.0.3, SVG Export Plug-In . SVG Version: 6.00 Build 0)  -->

<svg
   xmlns:dc="http://purl.org/dc/elements/1.1/"
   xmlns:cc="http://creativecommons.org/ns#"
   xmlns:rdf="http://www.w3.org/1999/02/22-rdf-syntax-ns#"
   xmlns:svg="http://www.w3.org/2000/svg"
   xmlns="http://www.w3.org/2000/svg"
   xmlns:sodipodi="http://sodipodi.sourceforge.net/DTD/sodipodi-0.dtd"
   xmlns:inkscape="http://www.inkscape.org/namespaces/inkscape"
   version="1.1"
   id="Layer_1"
   x="0px"
   y="0px"
   viewBox="0 0 300 500"
   style="enable-background:new 0 0 300 500;"
   xml:space="preserve"
   sodipodi:docname="green_short_hair.svg"
   inkscape:version="0.92.3 (2405546, 2018-03-11)"><metadata
   id="metadata433"><rdf:RDF><cc:Work
       rdf:about=""><dc:format>image/svg+xml</dc:format><dc:type
         rdf:resource="http://purl.org/dc/dcmitype/StillImage" /><dc:title></dc:title></cc:Work></rdf:RDF></metadata><defs
   id="defs431" /><sodipodi:namedview
   pagecolor="#ffffff"
   bordercolor="#666666"
   borderopacity="1"
   objecttolerance="10"
   gridtolerance="10"
   guidetolerance="10"
   inkscape:pageopacity="0"
   inkscape:pageshadow="2"
   inkscape:window-width="1920"
   inkscape:window-height="1017"
   id="namedview429"
   showgrid="false"
   inkscape:zoom="1.7469907"
   inkscape:cx="150"
   inkscape:cy="250"
   inkscape:window-x="-8"
   inkscape:window-y="-8"
   inkscape:window-maximized="1"
   inkscape:current-layer="Layer_1" />
<style
   type="text/css"
   id="style423">
	.st0{fill:#4FD934;}
</style>
<g
   id="Layer_3">
</g>
<path
   class="st0"
   d="M125.6,47.2c-0.7-9.6-8.7-18.7-6.7-28.4c0.2-1.1,1-2.2-1.7-2.5c-6.3-0.7-2.2-2.4-0.3-2.9c6-1.6,3.5-3.4-0.2-5.8  c5-0.7,9.5-0.1,13.2-1.5c6.5-2.4,20.3-2.1,26.8-3c10.6-1.5,15.1,6.8,24.1,4.2c4.3,12.8-2.6,24.6-6.5,36.7c-3-4-6.3-7.9-7.7-12.3  c-1.8-7.1-1.5-7.1-13.4-7.8c-16.7-1-16.7-0.2-21.1,9.2C130.3,37.7,129.3,42.8,125.6,47.2z"
   id="path426" />
<path
   style="fill:#008033;fill-opacity:1;stroke-width:0.57241285"
   d="m 125.17708,43.768994 c -0.19551,-1.22268 -1.56385,-5.279657 -3.04075,-9.015502 -2.77744,-7.025613 -2.69985,-6.564958 -3.03617,-18.024443 -0.006,-0.195882 -1.06021,-0.524014 -2.34325,-0.72918 -2.84961,-0.45567 -2.71138,-1.401501 0.36025,-2.464923 1.24086,-0.429597 2.64308,-1.174341 3.11605,-1.654986 0.76665,-0.779099 0.66642,-1.048173 -0.92397,-2.4803767 l -1.78391,-1.6064764 5.02884,-0.3796274 c 2.76586,-0.208795 6.27327,-0.7329879 7.79425,-1.164873 4.12022,-1.1699504 5.7164,-1.3709123 18.38929,-2.3152362 12.84533,-0.9571732 13.89715,-0.8541699 20.72433,2.0295051 3.13092,1.3224451 5.26179,1.8336806 7.87151,1.8885213 l 3.57842,0.075197 0.42247,2.0034451 c 0.69052,3.2745442 0.3741,10.9140272 -0.60456,14.5965282 -1.14233,4.298335 -6.29107,18.603419 -6.69581,18.603419 -0.89125,0 -6.47598,-9.428655 -7.40798,-12.506821 -1.84526,-6.0945 -2.19783,-6.268647 -14.03203,-6.931092 -9.91992,-0.555289 -14.15258,-0.0807 -16.18669,1.81493 -1.71178,1.595245 -4.06264,6.160809 -6.11539,11.876559 -1.61338,4.492394 -3.70075,8.608488 -4.36557,8.608488 -0.21661,0 -0.55381,-1.000375 -0.74933,-2.223056 z"
   id="path435"
   inkscape:connector-curvature="0" /></svg>