<?xml version="1.0" encoding="UTF-8" standalone="no"?>
<!-- Generator: Adobe Illustrator 23.0.1, SVG Export Plug-In . SVG Version: 6.00 Build 0)  -->

<svg
   xmlns:dc="http://purl.org/dc/elements/1.1/"
   xmlns:cc="http://creativecommons.org/ns#"
   xmlns:rdf="http://www.w3.org/1999/02/22-rdf-syntax-ns#"
   xmlns:svg="http://www.w3.org/2000/svg"
   xmlns="http://www.w3.org/2000/svg"
   xmlns:sodipodi="http://sodipodi.sourceforge.net/DTD/sodipodi-0.dtd"
   xmlns:inkscape="http://www.inkscape.org/namespaces/inkscape"
   version="1.1"
   id="Layer_1"
   x="0px"
   y="0px"
   viewBox="0 0 300 500"
   style="enable-background:new 0 0 300 500;"
   xml:space="preserve"
   sodipodi:docname="green_long_hair.svg"
   inkscape:version="0.92.3 (2405546, 2018-03-11)"><metadata
   id="metadata135"><rdf:RDF><cc:Work
       rdf:about=""><dc:format>image/svg+xml</dc:format><dc:type
         rdf:resource="http://purl.org/dc/dcmitype/StillImage" /><dc:title></dc:title></cc:Work></rdf:RDF></metadata><defs
   id="defs133" /><sodipodi:namedview
   pagecolor="#ffffff"
   bordercolor="#666666"
   borderopacity="1"
   objecttolerance="10"
   gridtolerance="10"
   guidetolerance="10"
   inkscape:pageopacity="0"
   inkscape:pageshadow="2"
   inkscape:window-width="1920"
   inkscape:window-height="1017"
   id="namedview131"
   showgrid="false"
   inkscape:zoom="1.6290957"
   inkscape:cx="150"
   inkscape:cy="250"
   inkscape:window-x="-8"
   inkscape:window-y="-8"
   inkscape:window-maximized="1"
   inkscape:current-layer="Layer_1" />
<style
   type="text/css"
   id="style126">
	.st0{fill:#037400;}
</style>
<path
   class="st0"
   d="M137.6,88.6c-6.2,3.1-13.3,0.5-19.7,2.9c-2,0.8-4.3,1-6.5,1.5c0.7-5-3.5-9.9-0.1-15.3c3.2,1.2,4.3,6.4,8.7,4.4  c4.7-2.1,3.8-6.5,3.8-10.3c0.2-16.4-1.1-32.8,2.9-49c2.2-8.8,7.9-13.3,17.2-13.9c0.3,0,0.5,0,0.8,0c19.2-1.6,31.7,2.4,31.3,28.8  c-0.2,12,0,24.1,0,36.1c0,3.6,0.6,7.1,4.5,8.6c4.2,1.6,5.6-2.3,8.5-5c1.3,5.3,1.6,9.8-0.8,14.3c-6.9,0.8-13.6-1.7-20.5-1.6  c-4.1,0.1-5.1-2.8-5.4-5.9c-0.3-3.9-0.1-7.9-0.1-11.8c2.3-8.2,5.1-16.2,4.2-24.9c-0.4-4.6-1.5-8.1-5.9-10.3c-4.1-2.1-7-5.6-10.2-9.8  c-3.9,5.2-8.2,9.3-13.4,12.4c-3,1.7-3.5,4.7-3.4,7.8c0.3,5.9,0.5,11.9,2.8,17.4C139.7,72.8,138.4,80.6,137.6,88.6z"
   id="path128" />
<path
   style="fill:#00aa44;fill-opacity:1;stroke-width:0.61383748"
   d="m 111.02186,87.090291 c -0.88815,-4.572537 -0.94071,-5.840007 -0.30575,-7.372949 l 0.76679,-1.851175 2.67122,2.46225 c 3.2161,2.964497 5.01171,3.120167 7.75313,0.67214 l 2.00466,-1.79011 0.37342,-22.303013 c 0.50296,-30.038835 1.6887,-36.727913 7.54678,-42.573196 4.19135,-4.182191 7.78417,-5.2040708 18.29696,-5.2040708 6.08566,0 8.59701,0.2704173 11.85408,1.2764248 7.47208,2.30789 11.72626,8.201415 13.18129,18.260704 0.32583,2.252588 0.59789,14.122556 0.60457,26.377707 0.0131,23.915471 0.0956,24.60311 3.21443,26.787647 2.33947,1.638627 4.77905,1.205774 7.34928,-1.303987 1.27408,-1.244107 2.50032,-2.078196 2.72497,-1.853537 0.71126,0.711253 0.48988,9.257547 -0.28766,11.105394 l -0.74573,1.772241 -5.35427,-0.353036 c -6.15467,-0.405808 -15.89806,-1.532642 -17.4782,-2.021373 -1.80596,-0.558574 -2.48975,-2.739968 -2.78575,-8.886931 -0.25571,-5.310474 -0.0588,-6.772021 2.00913,-14.914888 2.101,-8.272966 2.27182,-9.577076 2.04379,-15.602939 -0.30259,-7.996409 -1.11092,-9.793936 -5.73417,-12.751392 -3.16774,-2.026378 -9.49516,-8.033992 -9.49652,-9.016532 -0.002,-1.174247 -1.43326,-0.12872 -5.28058,3.856411 -2.29213,2.374235 -5.63863,5.293267 -7.43667,6.486739 -5.0976,3.383594 -5.31667,3.947999 -4.93024,12.702542 0.28008,6.345105 0.63963,8.385894 2.34751,13.32418 1.85913,5.375621 2.01722,6.431236 2.02253,13.504425 0.003,4.220132 -0.18246,8.402041 -0.4125,9.293137 -0.52541,2.035203 -1.70774,2.352937 -11.1711,3.002071 -4.05133,0.277896 -8.72203,0.939883 -10.37934,1.47108 -1.65731,0.531196 -3.21134,0.965811 -3.45341,0.965811 -0.24207,0 -0.92277,-2.484801 -1.51265,-5.521775 z"
   id="path137"
   inkscape:connector-curvature="0" /><path
   style="fill:#008033;fill-opacity:1;stroke-width:0.61383748"
   d="m 111.90224,90.240165 c -1.04539,-3.468292 -1.46312,-10.889931 -0.64154,-11.397697 0.38533,-0.238145 1.84121,0.548451 3.25509,1.758681 3.11326,2.664834 4.73007,2.74564 7.43405,0.371519 l 2.07059,-1.818009 0.41437,-19.895946 c 0.68936,-33.100015 1.6314,-38.578525 7.66809,-44.594443 4.52239,-4.506837 6.9273,-5.2064914 17.89711,-5.2067792 10.14015,-2.661e-4 13.83737,0.9522802 18.03392,4.6462292 6.47,5.695127 7.08079,8.918877 7.63058,40.274189 l 0.43556,24.84113 1.99867,1.785818 c 2.59556,2.319128 4.84259,2.3031 7.81076,-0.05568 1.27449,-1.012831 2.55549,-1.841512 2.84667,-1.841512 0.77447,0 0.64696,8.073399 -0.16425,10.400457 l -0.6937,1.989932 -4.9843,-0.415506 c -10.29526,-0.858249 -17.70255,-2.024983 -18.60865,-2.931087 -0.52543,-0.525426 -1.17009,-3.052847 -1.52277,-5.970103 -0.66285,-5.482864 -0.47569,-7.037948 2.29074,-19.033492 1.36958,-5.938633 1.58591,-8.082194 1.36287,-13.504425 -0.17511,-4.257095 -0.5977,-7.081546 -1.24472,-8.319361 -0.53878,-1.030738 -3.08256,-3.484805 -5.65284,-5.453483 -2.57029,-1.968679 -5.62125,-4.686938 -6.77991,-6.040576 l -2.10666,-2.46116 -3.97167,3.715303 c -2.18442,2.043416 -5.91917,5.269183 -8.29945,7.168371 -2.60751,2.080483 -4.48524,4.0804 -4.72389,5.031273 -0.21786,0.868013 -0.24654,4.656671 -0.0637,8.419241 0.25564,5.261512 0.7708,8.240322 2.2312,12.901447 1.72012,5.49007 1.89882,6.822129 1.89882,14.154399 0,5.627275 -0.24058,8.423004 -0.78942,9.17358 -0.6284,0.859397 -2.60029,1.263615 -9.66794,1.98183 -4.88318,0.496238 -10.18631,1.274731 -11.78473,1.72999 l -2.9062,0.827741 z"
   id="path409"
   inkscape:connector-curvature="0" /></svg>