<?xml version="1.0" encoding="UTF-8" standalone="no"?>
<!-- Generator: Adobe Illustrator 23.0.1, SVG Export Plug-In . SVG Version: 6.00 Build 0)  -->

<svg
   xmlns:dc="http://purl.org/dc/elements/1.1/"
   xmlns:cc="http://creativecommons.org/ns#"
   xmlns:rdf="http://www.w3.org/1999/02/22-rdf-syntax-ns#"
   xmlns:svg="http://www.w3.org/2000/svg"
   xmlns="http://www.w3.org/2000/svg"
   xmlns:sodipodi="http://sodipodi.sourceforge.net/DTD/sodipodi-0.dtd"
   xmlns:inkscape="http://www.inkscape.org/namespaces/inkscape"
   version="1.1"
   id="Layer_1"
   x="0px"
   y="0px"
   viewBox="0 0 300 500"
   style="enable-background:new 0 0 300 500;"
   xml:space="preserve"
   sodipodi:docname="green_Medium_hair.svg"
   inkscape:version="0.92.3 (2405546, 2018-03-11)"><metadata
   id="metadata78"><rdf:RDF><cc:Work
       rdf:about=""><dc:format>image/svg+xml</dc:format><dc:type
         rdf:resource="http://purl.org/dc/dcmitype/StillImage" /><dc:title></dc:title></cc:Work></rdf:RDF></metadata><defs
   id="defs76" /><sodipodi:namedview
   pagecolor="#ffffff"
   bordercolor="#666666"
   borderopacity="1"
   objecttolerance="10"
   gridtolerance="10"
   guidetolerance="10"
   inkscape:pageopacity="0"
   inkscape:pageshadow="2"
   inkscape:window-width="1920"
   inkscape:window-height="1017"
   id="namedview74"
   showgrid="false"
   inkscape:zoom="1.63"
   inkscape:cx="33.66691"
   inkscape:cy="281.907"
   inkscape:window-x="-8"
   inkscape:window-y="-8"
   inkscape:window-maximized="1"
   inkscape:current-layer="Layer_1" />
<style
   type="text/css"
   id="style69">
	.st0{fill:#00C955;}
</style>
<path
   class="st0"
   d="M137.4,86.9c-1,3.6,0.3,7.6-1.9,11c-2.9,0.5-0.9-5.8-5.6-3.6c-3.9,1.8-3.3-0.7-2.8-3.8c1.4-8.3-3.2-4.1-6.2-2.7  c-2.5-1.9,2.7-12-6.9-5.7c-0.6-4,1.8-6.7,2.9-10.2c-3.9-0.5-7.6-0.4-10.9-2.7c2.9-3.8,8.4-4.4,10.4-9.3c-2.7-2.9-8.2-2.3-9.9-7.1  c2-1.9,5.5,0,7.3-2.7c0.4-2.4-1.8-1.7-2.9-2.1c-3.2-1.1-7.6-1.9-7-5.9c0.6-3.7,4.7-1.2,7.1-1.3c6.3-0.4,8.1-4.6,9.5-9.6  c2.2-7.5,1.9-17.1,11.2-19.9c12.2-3.6,25-3.9,37.2,0.6c5.9,2.2,6.8,8.4,8.3,13.7c4.3,15.2,4.3,15.2,19.2,14.9  c-0.9,6.8-7.1,6.5-11.4,8.6c1.1,4.3,5.7,1.3,7.5,3.9c-1.9,4.3-6.6,4.2-9.9,6.5c1.4,3.6,4.6,5.3,7.8,7c1.7,0.9,3.5,1.8,0.8,3.7  c-1.9,2.6-7.6-2.5-7.8,3.7c0.2,0.5,0.3,1,0.3,1.6c1,2.1-0.2,3.2-1.9,4c-1.1,0.1-2.2,0.2-3.3,0.3c-2.7,1.1,0.7,4.8-2.5,5.6  c-6.7-0.8-3.4,4-3.9,6.7c-4.3,0.2-0.6-4.8-3.2-5.4c1.4,2.2,1.2,4.5,0,6.9c-1.1-0.2-2.2-0.5-3.3-0.7c-2-2.1-1.4-5.3-3.1-7.5  c-0.2-6.8,5-11.7,6.4-18c1.8-8.6,3.5-17.2-3.9-24c-4.2-3.8-9.7-5.8-13.6-10.2c-1.1-1.2-3.3-1-4.1,0.4c-3.3,5.7-9.4,7.5-14.1,11.2  c-3.4,2.6-4.6,6.3-4.5,10.5c0.2,7.8,2.2,15.1,5.8,22C135.7,80.6,138.4,83.1,137.4,86.9z"
   id="path71" />
<path
   style="fill:#447821;fill-opacity:1;stroke-width:0.61349696"
   d="m 133.52658,95.476577 c -0.933,-1.581313 -1.64344,-2.17008 -2.30994,-1.914325 -0.52939,0.203147 -1.64872,0.541582 -2.4874,0.752079 -1.49088,0.374184 -1.52263,0.309184 -1.42444,-2.91673 0.17696,-5.814178 0.1201,-6.062135 -1.38455,-6.038435 -0.75921,0.01196 -2.07056,0.416282 -2.91412,0.898503 -2.29427,1.311527 -2.45398,1.176662 -2.45398,-2.072123 0,-4.22708 -1.19738,-5.044043 -5.06135,-3.453313 -1.49251,0.614436 -1.4101,-1.648926 0.18835,-5.172405 0.67926,-1.497313 1.11176,-3.043589 0.96111,-3.436172 -0.15065,-0.392582 -1.79031,-0.870294 -3.6437,-1.061576 -1.85338,-0.191289 -4.13815,-0.750381 -5.07726,-1.24243 l -1.70747,-0.894634 2.67168,-1.763122 c 3.59728,-2.373956 8.1754,-6.791239 7.7507,-7.47841 -0.18885,-0.305575 -2.08116,-1.385687 -4.20513,-2.40025 -4.09462,-1.955885 -5.7325,-3.384529 -5.08373,-4.434274 0.21768,-0.352204 1.05169,-0.640371 1.85337,-0.640371 2.7176,0 4.70645,-1.119952 4.49413,-2.530712 -0.15175,-1.008248 -1.06054,-1.566358 -4.03082,-2.475418 -4.23775,-1.296972 -6.07963,-3.17976 -5.35234,-5.47123 0.39368,-1.240404 0.69188,-1.307507 4.20903,-0.947165 3.20294,0.328151 4.20197,0.174965 6.49346,-0.995669 3.4142,-1.744191 4.57133,-3.958288 6.82073,-13.051046 0.94849,-3.834081 2.29612,-8.091477 2.99474,-9.46088 2.32537,-4.55811 7.33026,-6.659447 19.19075,-8.0573645 10.03111,-1.1823002 23.09366,1.0710885 27.44794,4.7349795 2.51297,2.114517 3.18784,3.559595 5.51791,11.815144 3.86439,13.69177 4.86721,14.77687 13.65992,14.780626 6.03866,0.0026 6.48438,0.422015 3.81707,3.591939 -1.02234,1.214986 -2.90441,2.29367 -5.52147,3.164574 -2.18375,0.726703 -3.97044,1.679076 -3.97044,2.116385 0,1.180588 1.38843,2.119419 3.73945,2.528534 3.84569,0.669213 3.93468,0.764238 2.33404,2.49222 -0.80975,0.874168 -3.05969,2.283418 -4.99988,3.131665 -1.94018,0.848247 -3.5276,1.791968 -3.5276,2.097158 0,1.414394 2.29883,3.758687 5.94215,6.059648 3.85685,2.435822 3.94974,2.55375 2.9135,3.698778 -0.76917,0.849926 -1.88563,1.182742 -3.96764,1.182742 -3.6728,0 -4.57009,0.972797 -4.02743,4.366368 0.47677,2.981589 -0.30467,4.222589 -2.65894,4.222589 -2.35971,0 -3.62646,1.213607 -3.84215,3.680982 -0.17522,2.004319 -0.35105,2.167656 -2.6417,2.453987 l -2.45399,0.306749 0.0844,3.220859 c 0.0464,1.771472 -0.003,3.220859 -0.10955,3.220859 -0.10668,0 -0.59991,-0.405951 -1.09607,-0.902111 -0.79382,-0.793816 -0.94958,-0.712988 -1.29752,0.673307 -0.33983,1.353975 -0.62793,1.517049 -2.04967,1.160215 -2.00634,-0.503559 -2.29779,-0.930786 -3.55547,-5.21189 -1.27129,-4.327454 -0.92862,-6.17108 2.51704,-13.542251 4.76514,-10.193884 5.68224,-19.974175 2.46427,-26.279789 -1.77121,-3.47067 -3.37627,-4.965926 -10.51724,-9.79775 -3.07138,-2.078204 -6.08196,-4.328425 -6.69017,-5.000492 -1.63841,-1.810423 -2.47625,-1.536699 -5.67891,1.855308 -1.59801,1.692485 -5.51875,4.798313 -8.71274,6.90184 -7.85189,5.171152 -8.85938,6.991383 -8.39896,15.174287 0.41389,7.355764 1.52441,11.481457 5.35937,19.910559 l 3.05755,6.720374 -0.41411,6.01265 c -0.22776,3.306957 -0.7411,6.459828 -1.14075,7.006381 -0.63541,0.868981 -0.89579,0.707043 -2.07404,-1.289951 z m 36.16286,-8.486528 c -0.80119,-0.80119 -0.91264,0.08672 -0.22904,1.824804 0.42631,1.083902 0.45013,1.083374 0.67104,-0.01497 0.12596,-0.626331 -0.0729,-1.440748 -0.442,-1.809816 z"
   id="path80"
   inkscape:connector-curvature="0" /><path
   style="fill:#447821;fill-opacity:1;stroke-width:0.61349696"
   d="m 133.53285,95.15373 c -1.2377,-1.67408 -1.59632,-1.81184 -3.79947,-1.459546 l -2.43277,0.389018 v -4.453159 -4.45316 l -1.99386,0.376553 c -4.52721,0.854993 -4.4327,0.890423 -4.64694,-1.741976 -0.27828,-3.419245 -1.08662,-4.191994 -3.91241,-3.740129 -1.28162,0.204939 -2.33022,0.232417 -2.33022,0.06106 0,-0.171356 0.57176,-1.963718 1.27059,-3.983025 0.69882,-2.019313 1.11148,-3.928902 0.91703,-4.24354 -0.19446,-0.314638 -1.52543,-0.753429 -2.95771,-0.975086 -3.37251,-0.52192 -6.59615,-1.527803 -6.57606,-2.05194 0.009,-0.226899 1.39289,-1.346703 3.07597,-2.488452 3.56252,-2.416701 6.91181,-6.019848 6.38623,-6.870257 -0.20072,-0.324773 -1.94877,-1.39001 -3.88457,-2.367195 -3.81592,-1.926274 -5.31119,-3.298515 -4.68981,-4.303938 0.21768,-0.352204 1.08781,-0.640371 1.93364,-0.640371 2.16826,0 3.91119,-1.071429 3.91119,-2.404319 0,-0.809777 -1.00893,-1.533625 -3.52761,-2.530858 -4.5375,-1.796555 -5.77968,-2.881683 -5.55051,-4.848764 0.17489,-1.501194 0.3254,-1.557155 3.65029,-1.357247 4.47718,0.26919 8.40737,-1.382701 10.20326,-4.288524 0.70998,-1.14876 2.13786,-5.20371 3.17307,-9.010999 3.12574,-11.495827 4.1403,-13.188818 9.21083,-15.370101 11.5715,-4.9779231 33.94251,-3.7790383 40.52962,2.172023 2.20455,1.991677 2.70437,3.073066 5.53223,11.969418 2.18786,6.882942 3.61245,10.343704 4.80926,11.683172 1.60906,1.800854 2.02148,1.927514 7.66603,2.354428 3.28102,0.248153 6.09982,0.585526 6.26402,0.749719 0.79847,0.798472 -3.25144,4.179151 -6.82679,5.698696 -2.77337,1.1787 -3.96178,2.002146 -3.83554,2.657651 0.20327,1.055483 2.36371,2.293561 4.90718,2.812142 1.05742,0.215593 1.55082,0.638318 1.35146,1.157851 -0.26998,0.703543 -6.62304,4.826715 -8.50642,5.520707 -1.32013,0.486445 1.29898,3.800046 5.09853,6.450471 3.3714,2.351765 3.75297,2.810617 2.98,3.583585 -0.48757,0.487561 -2.09777,1.040618 -3.57825,1.229016 -3.64219,0.463497 -4.22551,1.074172 -4.22551,4.423737 0,3.272055 -0.76763,4.342061 -3.11506,4.342061 -1.94829,0 -2.72834,0.832804 -3.30468,3.528172 -0.37244,1.741791 -0.73112,2.043147 -2.83158,2.379024 l -2.40512,0.384595 v 3.064191 c 0,2.573282 -0.13916,2.948699 -0.86865,2.343282 -0.6948,-0.576632 -0.95091,-0.461743 -1.27965,0.574043 -0.30566,0.963043 -0.82638,1.246509 -2.03154,1.10592 -1.28861,-0.150325 -1.83646,-0.754509 -2.67471,-2.949779 -1.65246,-4.327565 -1.38535,-7.602 1.10101,-13.496933 3.34923,-7.940732 4.55398,-12.131616 4.94517,-17.202427 0.634,-8.218173 -2.08598,-13.865536 -8.90913,-18.497542 -1.57255,-1.067553 -4.82823,-3.410437 -7.23485,-5.206408 -2.40661,-1.795971 -4.70075,-3.265402 -5.09807,-3.265402 -0.39733,0 -2.15527,1.339722 -3.90655,2.97716 -1.75127,1.637438 -5.82906,4.918017 -9.06176,7.290176 -6.97307,5.116859 -7.92605,6.681189 -7.92605,13.010754 0,6.503169 1.55348,12.876169 5.18391,21.266475 l 3.24536,7.500386 -0.55357,6.021982 c -0.30446,3.312086 -0.76736,6.235773 -1.02867,6.497073 -0.2613,0.261301 -1.0901,-0.35676 -1.84179,-1.373466 z m 36.15659,-8.163681 c -0.48572,-0.485712 -0.67104,-0.326521 -0.67104,0.576411 0,1.621933 0.85795,2.482847 1.13116,1.135068 0.116,-0.572246 -0.0911,-1.342411 -0.46012,-1.711479 z"
   id="path82"
   inkscape:connector-curvature="0" /><path
   style="fill:#008033;fill-opacity:1;stroke-width:0.61349696"
   d="m 133.46888,95.200129 c -1.22265,-1.717043 -1.56328,-1.853295 -3.75642,-1.502601 l -2.41185,0.385674 v -4.453159 -4.45316 l -1.99386,0.376553 c -4.52721,0.854993 -4.4327,0.890423 -4.64694,-1.741976 -0.27859,-3.423006 -1.05105,-4.151276 -3.89378,-3.671 -1.32553,0.223951 -2.34885,0.147908 -2.34885,-0.17454 0,-0.314257 0.55484,-2.184061 1.23299,-4.155116 1.42004,-4.127442 1.41035,-4.141215 -3.62226,-5.144927 -3.33409,-0.664963 -5.54619,-1.583714 -4.95493,-2.057927 0.15894,-0.127475 1.97173,-1.506121 4.02842,-3.063659 2.05669,-1.557538 4.20095,-3.536261 4.76504,-4.397163 l 1.02561,-1.565275 -3.15386,-1.692767 c -6.13815,-3.294516 -7.69081,-5.680497 -3.69654,-5.680497 0.92786,0 2.22292,-0.397941 2.8779,-0.884314 1.7182,-1.275885 0.54567,-2.83846 -3.16827,-4.222223 -3.87484,-1.44371 -5.25485,-2.719043 -5.02572,-4.644483 0.1745,-1.46633 0.36873,-1.534817 4.47689,-1.578594 7.56916,-0.08066 9.21709,-1.922341 12.86927,-14.382305 3.20117,-10.921288 3.78499,-11.825918 9.16914,-14.207584 8.94864,-3.9584084 27.93223,-3.9581608 36.8573,4.81e-4 4.3725,1.939386 5.62871,3.820928 8.38587,12.560264 2.97436,9.427774 4.89022,13.533087 6.79735,14.565389 0.75966,0.41119 3.79424,0.924636 6.74351,1.140989 2.94928,0.216353 5.55185,0.582901 5.7835,0.81455 0.78392,0.783921 -2.96436,3.967016 -6.58445,5.591616 -1.97987,0.888512 -3.78928,1.922126 -4.02092,2.296921 -0.54939,0.888945 1.29056,2.203349 4.16953,2.978575 1.49398,0.402287 2.18579,0.899373 1.9839,1.425486 -0.27237,0.709799 -6.77673,4.909209 -8.50239,5.489398 -1.25,0.420269 0.92828,3.158994 4.90892,6.171887 2.17514,1.646345 3.95481,3.206762 3.95481,3.467592 0,0.662212 -3.52432,1.821263 -5.5379,1.821263 -2.24415,0 -2.93586,0.995202 -3.16519,4.553963 -0.20071,3.114601 -0.68247,3.679325 -3.67255,4.304927 -1.22572,0.256447 -1.82874,0.923668 -2.38952,2.643901 -0.87283,2.677473 -1.48865,3.198908 -3.79312,3.211743 -1.61286,0.009 -1.68712,0.143558 -1.68712,3.057625 0,2.449829 -0.17964,2.979295 -0.91507,2.69708 -0.52247,-0.200484 -1.07707,0.07099 -1.29263,0.632755 -0.20766,0.541141 -1.03112,0.983896 -1.82991,0.983896 -1.91253,0 -3.36216,-2.811166 -3.76853,-7.308068 -0.27431,-3.035515 0.0197,-4.260865 2.56722,-10.699184 1.58235,-3.99908 3.2956,-9.244478 3.80722,-11.656441 1.6228,-7.650383 -0.0771,-15.290687 -4.28392,-19.253951 -2.24988,-2.119638 -15.5796,-11.818553 -16.24285,-11.818553 -0.24376,0 -2.20044,1.532544 -4.34818,3.405653 -2.14774,1.873109 -5.88114,4.867096 -8.29645,6.653304 -7.72305,5.711463 -8.79323,7.797811 -8.17542,15.938311 0.45773,6.031199 1.83513,10.951182 5.37653,19.204542 l 3.02596,7.05211 -0.61249,5.906675 c -0.33687,3.248675 -0.85053,6.144712 -1.14146,6.435644 -0.29629,0.296295 -1.1204,-0.301613 -1.87353,-1.3593 z m 36.77652,-7.065761 c 0,-0.486221 -0.27607,-1.054662 -0.6135,-1.263202 -0.33742,-0.20854 -0.6135,0.189276 -0.6135,0.884036 0,0.694761 0.27608,1.263203 0.6135,1.263203 0.33743,0 0.6135,-0.397816 0.6135,-0.884037 z"
   id="path84"
   inkscape:connector-curvature="0" /></svg>