<?xml version="1.0" encoding="utf-8"?>
<!-- Generator: Adobe Illustrator 23.0.3, SVG Export Plug-In . SVG Version: 6.00 Build 0)  -->
<svg version="1.1" id="Layer_1" xmlns="http://www.w3.org/2000/svg" xmlns:xlink="http://www.w3.org/1999/xlink" x="0px" y="0px"
	 viewBox="0 0 300 500" style="enable-background:new 0 0 300 500;" xml:space="preserve">
<style type="text/css">
	.st0{fill:#4FD934;}
</style>
<g id="Layer_3">
</g>
<path class="st0" d="M125.6,47.2c-0.7-9.6-8.7-18.7-6.7-28.4c0.2-1.1,1-2.2-1.7-2.5c-6.3-0.7-2.2-2.4-0.3-2.9c6-1.6,3.5-3.4-0.2-5.8
	c5-0.7,9.5-0.1,13.2-1.5c6.5-2.4,20.3-2.1,26.8-3c10.6-1.5,15.1,6.8,24.1,4.2c4.3,12.8-2.6,24.6-6.5,36.7c-3-4-6.3-7.9-7.7-12.3
	c-1.8-7.1-1.5-7.1-13.4-7.8c-16.7-1-16.7-0.2-21.1,9.2C130.3,37.7,129.3,42.8,125.6,47.2z"/>
</svg>
