<?xml version="1.0" encoding="utf-8"?>
<!-- Generator: Adobe Illustrator 23.0.1, SVG Export Plug-In . SVG Version: 6.00 Build 0)  -->
<svg version="1.1" id="Layer_1" xmlns="http://www.w3.org/2000/svg" xmlns:xlink="http://www.w3.org/1999/xlink" x="0px" y="0px"
	 viewBox="0 0 300 500" style="enable-background:new 0 0 300 500;" xml:space="preserve">
<style type="text/css">
	.st0{fill:#FBC59F;}
	.st1{fill:#F9C29A;}
	.st2{fill:#02A0B4;}
	.st3{fill:#4C3628;}
	.st4{fill:#643312;}
	.st5{fill:#FAD2B4;}
	.st6{opacity:0.68;fill:#92745E;enable-background:new    ;}
</style>
<path class="st0" d="M146.6,283c0.1,68.3,0,136.7,0.3,205c0,8.5-3,13.1-13,11.7c-1.6-0.2-3.4,0.2-5.1-0.1
	c-4.7-0.8-11.2,2.6-13.9-2.3c-3-5.4,4.2-6.7,7.1-9.6c4.2-4.3,2.4-9.5,2-14.3c-2.5-29.3-5.3-58.6-7.9-87.9
	c-3.1-34.2-6.2-68.4-9.3-102.7C120,281.6,133.3,280.6,146.6,283z"/>
<path class="st0" d="M195,283.2c-2.5,29.6-4.8,59.2-7.3,88.9c-1.4,16.3-3.1,32.7-4.5,49c-1.8,19.5-3.2,38.9-5.5,58.3
	c-0.6,5.1,2.3,7.4,5.4,10.2c2.3,2.1,6.4,3.8,5.1,7.4c-1.6,4.2-6.2,2.7-9.7,2.8c-4.7,0.2-9.4,0-14.1,0.1c-4.3,0.1-7.2-1.2-7.5-5.6
	c0.1-65.2,0-130.4,0-195.6c0-5.9-0.7-12.1,6.8-15.1C174,282.5,184.4,280.1,195,283.2z"/>
<path class="st1" d="M155.1,282c3.4,1,6.8,1.8,10.2,2.8c-5.4,2.2-6.7,6.2-6.7,11.4c0.1,62.4,0.1,124.8,0.2,187.2
	c0,3,1.2,6.1,1.6,9.1c0.5,3.5-1.9,2.3-3.7,1.8c-1.5-2.5-1.8-5.3-1.8-8.1C155,418.1,155.1,350,155.1,282z"/>
<path class="st2" d="M146.6,275.8c0.6-3.9,0.3-11.6,4-13c0,0,0,0,0.1,0c1.1,0.1,2.2,0.1,3.3,0.2c2.4,6.3,0.6,12.6,1.1,19
	c2.4,4.3,6.8,2.1,10.2,2.8c9.9,0.1,19.9,0.4,29.7-1.5c0.5-3,1.1-6.1,1.2-9.1c1.1-19.2,4.4-38.8-9.6-55.9
	c-23.6,7.2-47.3,8.2-70.8-0.4c-7.8,9.4-11.2,20.3-11.1,31.9c0,11,1.3,22.1,2.1,33.2c13.3,3.5,26.5,1.8,39.8,0.1
	C146.5,280.6,146.5,278.1,146.6,275.8"/>
<g>
	<path class="st0" d="M132.3,80.7c0.1-0.1,0.1-0.3,0.2-0.4C132.4,80.4,132.4,80.5,132.3,80.7z"/>
	<path class="st0" d="M132.8,79.6c-0.1,0.2-0.2,0.3-0.3,0.5C132.6,80.1,132.7,79.9,132.8,79.6C132.8,79.8,132.8,79.8,132.8,79.6z"/>
	<path class="st0" d="M272.6,289.3c-4.2-20.8-8.3-41.4-12.7-62.1c-7.7-36.2-15.3-72.3-23.4-108.4c-3.3-14.5-10-18.3-25.7-20.5
		c-10.9-1.6-22.1-0.2-32.8-3.1c-1-1.1-2.5-2.8-3.7-5.1c-0.2-0.3-0.7-1.2-1.5-3.9c-2.3-7.2-2.1-6.3-2.4-7.6c-0.5-1.9-1-4.5-1.3-7.5
		c-1.9,1.4-7.8,5.5-16.7,5.8c-9.1,0.3-15.6-3.5-17.5-4.8c0,1.7-0.3,3.1-0.6,4.1c-0.4,1.4-0.9,2.6-1.3,3.4c0-0.1,0.1-0.1,0.1-0.2
		c0,0.1-0.1,0.2-0.1,0.2c-0.2,0.3-0.3,0.6-0.5,1c-1.3,2.5-2.5,4.6-3.2,6.4c-0.8,1.7-1.5,3-2.6,4.5c-0.4,0.8-1.2,1.8-2.3,3.2
		c-1.6,0.3-4.6,1-8.5,1.5c-12.4,1.7-19.7,1.2-32,3.5c-7.2,1.3-12,5-15,11c-2.8,5.4-4,11.1-5.3,17c-11.1,51.9-21.9,103.9-33.5,155.7
		c-3.6,15.7,2.2,27.1,14.3,36.9c2.7,2.2,6.1,5.2,9.7,2.1c3.4-2.9,1.6-6.4-1.2-9c-7.7-7-2.7-13.6,0.6-20.3c1.6-3.1,4-2.5,6.6-0.8
		c2.5,1.7,4.9,5.6,8.2,1.7c3.3-3.7,1-7.4-2.5-9.6c-6.6-4.3-5.6-9.6-3.7-15.5c4.4-14.3,8.5-28.7,13-43c6.8-21.9,11.3-44.5,20.6-65.8
		c1.3,2.5,2.7,4.9,4,7.4h0.1l0,0c3.6,17.3,10.7,33.5,16,50.4c1.9,4,6,4.8,9.8,5.6c16.6,3.7,33.2,4.2,49.8,0.1
		c4.1-1,8.9-1.2,11.1-5.4c5.6-17.5,11.1-35,16.7-52.7c-0.2,0.1-0.4,0.1-0.6,0.2c0.2-0.1,0.4-0.2,0.6-0.3c0.6-1.3,1.2-2.5,1.9-3.8
		l0,0c0,0,0,0,0.1,0.1c2.3-0.9,3.3-0.5,4,2.1c9.1,31.5,18.6,62.8,27.4,94.3c2.7,9.6,9.4,19.9-2.8,28.8c-2,1.4-2.7,5.3,0,7.7
		c3.1,2.8,5.6,0.5,7.7-1.4c4-3.5,5.8-2.1,8.1,1.9c4.3,7.4,4.9,13.9-2,20.2c-2.1,1.8-3.1,4.2-1,6.7c2.3,2.7,4.8,1.2,7.3,0.2
		C266.4,317.3,275.1,301.7,272.6,289.3z M128.7,87.8c-0.6,1.4-1,2.3-1,2.3C127.6,90,128.1,89.2,128.7,87.8z M96,158.1L96,158.1
		c0-0.1,0-0.1,0-0.2c0.1,0.1,0.2,0.3,0.2,0.4C96.2,158.4,96.1,158.2,96,158.1z"/>
</g>
<path class="st3" d="M181.1,56.9"/>
<path class="st3" d="M181.1,47.9L181.1,47.9"/>
<path class="st4" d="M141.5,42.3"/>
<path class="st5" d="M216.6,63.7"/>
<path class="st0" d="M199.4,49.2"/>
<path class="st0" d="M181.8,64.6"/>
<path class="st0" d="M172.9,89.5"/>
<path class="st0" d="M168.9,87.2"/>
<path class="st0" d="M131.7,83.3"/>
<path class="st0" d="M131.5,81.8"/>
<path class="st0" d="M132.8,81.9"/>
<g>
	<g>
		<path class="st0" d="M178.3,36.3c0.4,4.8,0.6,7.2,0.6,10.4c-0.1,4.9-0.8,8.9-1.3,11.7c-0.5,2.8-1.4,6.5-3.6,10.6
			c-1.5,2.9-3.2,5.3-4.7,7c-1.4,1.5-6,6.3-12,7c-0.9,0.1-2.7,0.2-4.6,0.2c0,0-3.6-0.1-6.8-1c-5.5-1.5-9.3-5.7-11.3-7.8
			c-5.4-5.5-7.2-11.4-8.5-15.4c-1.5-5-1.6-9.1-1.9-17.3c-0.2-6.6-0.2-9.9,0.8-14.4c0.9-4.1,2-8.5,5.6-12.8c0.8-1,8.6-9.9,20.9-9.6
			c8,0.2,13.6,4.1,15.7,5.6c1,0.8,6.4,4.9,9.1,11.9C177.1,24.8,177.5,28.6,178.3,36.3z"/>
		<path class="st6" d="M170.9,80.6L170.9,80.6c-0.7,1-1.4,1.8-2.1,2.6c-1.5,1.5-6.3,6.3-12.5,7c-0.9,0.1-2.8,0.2-4.8,0.2
			c0,0-3.8-0.1-7.1-1c-5.8-1.5-9.7-5.7-11.9-7.8c-0.2-0.2-0.3-0.3-0.5-0.5c0.3-0.8,0.7-1.6,1-2.7c0.3-1,0.6-2.4,0.6-4.1
			c2.1,1.3,8.8,5.1,18.3,4.8c9.3-0.3,15.6-4.4,17.5-5.8C169.9,76.2,170.4,78.7,170.9,80.6z"/>
	</g>
	<path class="st0" d="M177.3,41.3c0.4,4.8,0.6,7.2,0.6,10.4c-0.1,4.9-0.8,8.9-1.3,11.7c-0.5,2.8-1.4,6.5-3.6,10.6
		c-1.5,2.9-3.2,5.3-4.7,7c-1.4,1.5-6,6.3-12,7c-0.9,0.1-2.7,0.2-4.6,0.2c0,0-3.6-0.1-6.8-1c-5.5-1.5-9.3-5.7-11.3-7.8
		c-5.4-5.5-7.2-11.4-8.5-15.4c-1.5-5-1.6-9.1-1.9-17.3c-0.2-6.6-0.2-9.9,0.8-14.4c0.9-4.1,2-8.5,5.6-12.8c0.8-1,8.6-9.9,20.9-9.6
		c8,0.2,13.6,4.1,15.7,5.6c1,0.8,6.4,4.9,9.1,11.9C176.3,29.8,176.6,33.6,177.3,41.3z"/>
</g>
</svg>
