<?xml version="1.0" encoding="utf-8"?>
<!-- Generator: Adobe Illustrator 23.0.1, SVG Export Plug-In . SVG Version: 6.00 Build 0)  -->
<svg version="1.1" id="Layer_1" xmlns="http://www.w3.org/2000/svg" xmlns:xlink="http://www.w3.org/1999/xlink" x="0px" y="0px"
	 viewBox="0 0 288 560" style="enable-background:new 0 0 288 560;" xml:space="preserve">
<style type="text/css">
	.st0{fill:#FEE8B9;}
</style>
<path class="st0" d="M132,299.9c-0.4-8.6-4.7-16.8-3.6-25.6c0.1-1,0.5-2-0.9-2.3c-3.4-0.6-1.2-2.1-0.2-2.6c3.2-1.5,1.9-3.1-0.1-5.2
	c2.7-0.6,5.1-0.1,7.1-1.3c3.5-2.1,10.9-1.9,14.4-2.7c5.7-1.3,8.1,6.1,12.9,3.8c2.3,11.5-1.4,22.1-3.5,33c-1.6-3.6-3.4-7.1-4.1-11
	c-1-6.4-0.8-6.4-7.2-7c-9-0.9-9-0.2-11.3,8.3C134.5,291.4,134,295.9,132,299.9z"/>
</svg>
