<?xml version="1.0" encoding="utf-8"?>
<!-- Generator: Adobe Illustrator 23.0.1, SVG Export Plug-In . SVG Version: 6.00 Build 0)  -->
<svg version="1.1" id="Layer_1" xmlns="http://www.w3.org/2000/svg" xmlns:xlink="http://www.w3.org/1999/xlink" x="0px" y="0px"
	 viewBox="0 0 300 500" style="enable-background:new 0 0 300 500;" xml:space="preserve">
<style type="text/css">
	.st0{fill:#00A9C0;}
	.st1{fill:#FCC6A0;}
	.st2{fill:#FBBF9A;}
	.st3{fill:#FCC39D;}
	.st4{fill:#FDC796;}
	.st5{opacity:0.68;fill:#92745E;enable-background:new    ;}
	.st6{fill:#FBC59F;}
</style>
<g>
	<path class="st0" d="M153.4,289.2c-0.5,0.5-1.1,0.9-1.6,1.5c-0.5,1.3-1.1,1.3-1.6,0.2c-16.8-2.8-34.1-1.5-50.6-6.7
		c-3.3-20.9-2.7-41.6-2.9-62.6c9.6,1.1,19,2.3,28.5,3.5c28.5,3.9,56.9,1.9,85.1-3c2.7-0.4,5.4-0.2,8.1-0.4
		c-0.5,17.7-0.9,35.3-1.6,52.9c-0.2,3.4-1.1,6.7-1.6,10c-17.7,3.4-35.6,5.8-53.6,4.7c0-6.7,0-13.7,0-20.5c0-3.4-0.7-5.1-4.5-5.1
		c-3.6,0-3.6,2.4-3.6,4.9C153.4,275.5,153.4,282.5,153.4,289.2z"/>
</g>
<g>
	<g>
		<g>
			<path class="st1" d="M215.5,283.5c0.5,21-3.1,41.6-5.4,62.3c-3.6,32.1-6.5,64.4-14.3,95.8c-2.5,10.3-5.4,20.5-8.7,30.5
				c-2.5,7.5-2.5,13.9,4.5,18.8c1.8,1.3,4.5,3.2,3.1,6c-1.1,2.3-4,2.6-6.3,2.6c-5.1,0-10.3-0.5-15.4,0.2
				c-9.2,1.3-11.4-3.4-11.4-11.8c0.2-51.6,0-103.1,0.2-154.7c0-15.1,0-30,0.2-45.1c1.8-1.3,3.8-2.1,5.8-2.3
				c14.3-0.7,28.7-1.5,42.8-3.9C212.2,281.6,214,282.1,215.5,283.5z"/>
			<path class="st1" d="M153.9,288c0,67,0,134.2,0.4,201c0,8.1-2.9,11.4-10.7,10.5c-5.1-0.5-10.1,0-15.4-0.2c-2.3,0-5.2,0.7-6.1-2.4
				c-0.9-3.2,0.7-5.4,3.4-6.7c0.7,0.7,1.6,0.7,2.5,0.9c-0.7-0.4-1.8-0.2-2.5-0.9c5.8-5.3,5.6-11.4,3.3-18.6
				c-14.3-42.2-18.6-86.5-23.5-130.5c-2.2-19.5-5.1-38.8-5.2-58.4c2-1.9,4.5-1.5,6.9-1.1c11.6,2.1,23.1,3.5,35,3.5
				c4,0,7.9,0.5,9.6,5.4c0.2,63.5,0,127.3,0.2,190.9c0-63.2,0-126.4,0-189.6C151.7,290,151.3,288.2,153.9,288z"/>
		</g>
		<path class="st2" d="M164.9,294c0,62.6,0,125.4,0,188.1c-0.4,0-0.5,0-0.9,0c0-62.8,0-125.6,0-188.5
			C164.3,293.8,164.5,294,164.9,294z"/>
		<path class="st3" d="M150.6,289.4c0.5-0.4,1.1-0.4,1.6-0.2c0,67.2,0,134.3,0,201.4c-0.5,0-1.1,0-1.6,0
			C150.6,423.8,150.6,356.6,150.6,289.4z"/>
		<path class="st4" d="M143.2,307.1c0,58.4,0,116.7,0,175c-0.4,0-0.5,0-0.9,0c0-58.6,0-117,0-175.4
			C142.5,306.9,142.9,307.1,143.2,307.1z"/>
	</g>
	<path class="st3" d="M124.6,496.9c7.8-4.4,14.1-1.9,20.2-2.8C140.9,498,138.2,498.4,124.6,496.9z"/>
	<path class="st3" d="M125.5,490.3c2.2,0.2,4.2-2.3,7,0C129.7,492.6,127.7,492.9,125.5,490.3L125.5,490.3z"/>
</g>
<path class="st1" d="M173.9,73.5c1.6,10.3,2.5,15.6,5.4,18.4c3.4,3.4,6.1,1.1,17,2.8c13.4,2.1,22.9,7.9,29.1,21.6
	c21.5,47.2,37.2,95.8,41.4,148.2c0.7,9.6,1.1,19.3,1.4,28.9c0.7,14.2-7.4,20.9-18.4,27.2c-2.7,1.5-6.1,2.4-8.1-0.9
	c-1.6-2.8-1.3-6.5,1.6-8.4c5.6-3.7,4.7-8.2,3.3-13.7c-1.6-6-3.1-9.6-9.2-4.2c-2.3,2.1-5.1,2.4-7-0.5c-2.2-3-0.5-6,1.4-7.3
	c10.5-6.5,7-15.1,4.3-24.2c-6-19.8-11-40-18.2-59.6c0.4,6.2,0.7,12.6,0.9,18.8c-2.5,2.6-6,2.8-9,3.4c-34.1,6.2-68.5,6.3-102.6,0.2
	c-3.4-0.5-7.2-0.7-9.9-3.7c-0.5-6.2,2.2-12.4,0.5-18.6c-3.6,1.9-2.7,5.8-3.6,8.8c-5.6,19.3-10.7,39-16.6,58.1
	c-1.8,6-0.9,9.8,3.6,13.7c2.9,2.6,7.9,5.4,4.2,10.7c-3.3,4.4-6.5,0.5-9.4-1.3c-2.2-1.3-4.2-2.3-4.9,0.9c-1.3,6.2-7,12.6,1.3,18.2
	c2.7,1.9,3.6,5.1,2,8.2c-2,3.5-4.9,2.4-7.9,1.1c-11.2-4.4-17.9-13.7-18.4-26.1c-0.9-17.7,1.6-34.9,4-52.1c6-44.2,21-85.6,38.8-125.8
	c6.3-14.4,17-20,30.9-21.4c4.5-0.4,8.9-2.3,13.2-3c1.3-0.2,1.8-0.4,2.5-0.7c1.8-1.1,3.4-3.5,4.5-15.8c0.5-5.8,0.4-8.6,1.4-8.8
	c1.3-0.4,2,3.5,6,6.7c0.9,0.7,4.2,3.4,9,3.4c1.1,0,5.6-0.2,9-3.4c3.4-3.4,3.6-7.7,4.9-7.5C172.8,65.9,173.2,69.6,173.9,73.5z"/>
<path class="st5" d="M175.6,72.8L175.6,72.8c-0.6,0.9-1.2,1.8-1.8,2.5c-1.3,1.5-5.5,6-10.8,6.7c-0.8,0.1-2.4,0.2-4.2,0.2
	c0,0-3.3-0.1-6.2-0.9c-5-1.5-8.5-5.5-10.3-7.5c-0.1-0.2-0.3-0.3-0.4-0.5c0.3-0.7,0.6-1.6,0.9-2.6c0.2-0.9,0.5-2.3,0.5-3.9
	c1.8,1.2,7.6,4.9,15.9,4.6c8.1-0.3,13.5-4.3,15.2-5.6C174.7,68.5,175.2,70.8,175.6,72.8z"/>
<path class="st6" d="M183.9,35c0.4,4.6,0.6,7,0.6,10c-0.1,4.7-0.8,8.5-1.3,11.2c-0.5,2.7-1.4,6.2-3.5,10.2c-1.5,2.8-3.1,5.1-4.6,6.7
	c-1.4,1.5-5.8,6-11.6,6.7c-0.9,0.1-2.6,0.2-4.5,0.2c0,0-3.5-0.1-6.6-0.9c-5.3-1.5-9-5.5-11-7.5c-5.2-5.3-7-10.9-8.2-14.7
	c-1.5-4.8-1.6-8.7-1.8-16.6c-0.2-6.3-0.2-9.6,0.8-13.8c0.9-3.9,1.9-8.2,5.4-12.3c0.8-0.9,8.3-9.6,20.3-9.2
	c7.8,0.2,13.2,3.9,15.2,5.4c1,0.7,6.2,4.7,8.8,11.4C182.9,23.9,183.2,27.6,183.9,35z"/>
</svg>
