<?xml version="1.0" encoding="UTF-8" standalone="no"?>
<!-- Generator: Adobe Illustrator 23.0.1, SVG Export Plug-In . SVG Version: 6.00 Build 0)  -->

<svg
   xmlns:dc="http://purl.org/dc/elements/1.1/"
   xmlns:cc="http://creativecommons.org/ns#"
   xmlns:rdf="http://www.w3.org/1999/02/22-rdf-syntax-ns#"
   xmlns:svg="http://www.w3.org/2000/svg"
   xmlns="http://www.w3.org/2000/svg"
   xmlns:sodipodi="http://sodipodi.sourceforge.net/DTD/sodipodi-0.dtd"
   xmlns:inkscape="http://www.inkscape.org/namespaces/inkscape"
   version="1.1"
   id="Layer_1"
   x="0px"
   y="0px"
   viewBox="0 0 300 500"
   style="enable-background:new 0 0 300 500;"
   xml:space="preserve"
   sodipodi:docname="male_triangle_athletic.svg"
   inkscape:version="0.92.3 (2405546, 2018-03-11)"><metadata
   id="metadata868"><rdf:RDF><cc:Work
       rdf:about=""><dc:format>image/svg+xml</dc:format><dc:type
         rdf:resource="http://purl.org/dc/dcmitype/StillImage" /><dc:title></dc:title></cc:Work></rdf:RDF></metadata><defs
   id="defs866" /><sodipodi:namedview
   pagecolor="#ffffff"
   bordercolor="#666666"
   borderopacity="1"
   objecttolerance="10"
   gridtolerance="10"
   guidetolerance="10"
   inkscape:pageopacity="0"
   inkscape:pageshadow="2"
   inkscape:window-width="1920"
   inkscape:window-height="1001"
   id="namedview864"
   showgrid="false"
   inkscape:zoom="9.05042"
   inkscape:cx="138.97167"
   inkscape:cy="403.43699"
   inkscape:window-x="-9"
   inkscape:window-y="-9"
   inkscape:window-maximized="1"
   inkscape:current-layer="Layer_1" />
<style
   type="text/css"
   id="style815">
	.st0{fill:#422200;}
	.st1{fill:#FBC59F;}
	.st2{fill:#F9C29A;}
	.st3{fill:#02A0B4;}
	.st4{fill:#4C3628;}
	.st5{fill:#FAD2B4;}
	.st6{opacity:0.14;fill:#422200;enable-background:new    ;}
</style>
<path
   class="st0"
   d="M-76.7,51.5"
   id="path817" />

<path
   style="fill:#000000;stroke:#000000;stroke-width:1px;stroke-linecap:butt;stroke-linejoin:miter;stroke-opacity:1"
   d="M 122.4,88.7 112.38808,90.510309 91.115888,92.46026 93.7,154.1 l 4,7.4 16.1,50.4 70.8,0.4 16.6,-52.8 2,-3.8 4.0266,-63.417009 L 192.33607,91.219382 176,89.2 l -1.92256,5.919284 -5.67259,5.140776 -8.86341,2.12722 h -7.79981 l -12.05424,-0.17727 -6.38165,-2.481752 -4.78625,-3.190828 -3.19083,-4.431707 z"
   id="path870"
   inkscape:connector-curvature="0" /><path
   style="fill:#ff0000;stroke:#000000;stroke-width:1px;stroke-linecap:butt;stroke-linejoin:miter;stroke-opacity:1"
   d="m 113.8,211.9 -3.00733,4.11624 -4.96352,9.39522 -2.30448,7.97707 -1.24088,12.94058 2.83629,38.28995 39.35356,0.5318 1.41814,-24.46302 7.268,0.88634 v 24.10849 l 39.35356,0.35453 1.77268,-21.27219 1.06361,-8.33161 v -12.23151 l -1.24088,-11.1679 -0.88634,-4.25443 -2.12722,-6.02713 -4.96351,-8.50887 L 184.6,212.3 Z"
   id="path872"
   inkscape:connector-curvature="0" /></svg>