<?xml version="1.0" encoding="UTF-8" standalone="no"?>
<!-- Generator: Adobe Illustrator 23.0.1, SVG Export Plug-In . SVG Version: 6.00 Build 0)  -->

<svg
   xmlns:dc="http://purl.org/dc/elements/1.1/"
   xmlns:cc="http://creativecommons.org/ns#"
   xmlns:rdf="http://www.w3.org/1999/02/22-rdf-syntax-ns#"
   xmlns:svg="http://www.w3.org/2000/svg"
   xmlns="http://www.w3.org/2000/svg"
   xmlns:sodipodi="http://sodipodi.sourceforge.net/DTD/sodipodi-0.dtd"
   xmlns:inkscape="http://www.inkscape.org/namespaces/inkscape"
   version="1.1"
   id="Layer_1"
   x="0px"
   y="0px"
   viewBox="0 0 300 500"
   style="enable-background:new 0 0 300 500;"
   xml:space="preserve"
   sodipodi:docname="male_triangle_tshirtjeans.svg"
   inkscape:version="0.92.3 (2405546, 2018-03-11)"><metadata
   id="metadata868"><rdf:RDF><cc:Work
       rdf:about=""><dc:format>image/svg+xml</dc:format><dc:type
         rdf:resource="http://purl.org/dc/dcmitype/StillImage" /><dc:title></dc:title></cc:Work></rdf:RDF></metadata><defs
   id="defs866" /><sodipodi:namedview
   pagecolor="#ffffff"
   bordercolor="#666666"
   borderopacity="1"
   objecttolerance="10"
   gridtolerance="10"
   guidetolerance="10"
   inkscape:pageopacity="0"
   inkscape:pageshadow="2"
   inkscape:window-width="1920"
   inkscape:window-height="1001"
   id="namedview864"
   showgrid="false"
   inkscape:zoom="5.6411677"
   inkscape:cx="150"
   inkscape:cy="129.32742"
   inkscape:window-x="-9"
   inkscape:window-y="-9"
   inkscape:window-maximized="1"
   inkscape:current-layer="Layer_1" />
<style
   type="text/css"
   id="style815">
	.st0{fill:#422200;}
	.st1{fill:#FBC59F;}
	.st2{fill:#F9C29A;}
	.st3{fill:#02A0B4;}
	.st4{fill:#4C3628;}
	.st5{fill:#FAD2B4;}
	.st6{opacity:0.14;fill:#422200;enable-background:new    ;}
</style>
<path
   class="st0"
   d="M-76.7,51.5"
   id="path817" />

<path
   style="fill:#4d4d4d;stroke:#000000;stroke-width:1px;stroke-linecap:butt;stroke-linejoin:miter;stroke-opacity:1"
   d="m 122.4,88.7 -3.45299,1.101236 -10.81337,1.063609 -26.235702,2.659024 -5.495316,1.949951 -6.381657,4.254438 -3.899902,6.027122 -6.20439,24.99482 -10.458827,48.92605 32.971897,7.44526 L 93.7,154.1 l 4,7.4 1.215692,4.17205 1.595418,7.268 L 113.8,211.9 l 70.8,0.4 13.76319,-43.96892 2.12722,-6.55893 L 201.2,159.4 l 1.9,-3.8 2.70846,-0.56404 1.59541,1.77268 7.268,27.29931 32.79463,-10.99063 -10.10429,-47.86243 -3.01356,-14.18146 -2.30449,-6.38166 -4.96351,-6.381658 -9.04068,-3.722633 L 204.92211,91.751186 193.93148,91.042113 176,89.2 l -3.34071,5.032942 -2.83629,1.595415 c 0,0 -3.54537,0.354536 -6.55893,1.418146 -3.01356,1.063609 -6.73619,1.240878 -7.62253,1.240878 -0.88634,0 -6.02712,0.177268 -10.28156,0 -4.25444,-0.177269 -12.76332,-0.886342 -12.76332,-0.886342 l -3.8999,-1.772682 -1.94995,-3.190829 z"
   id="path870"
   inkscape:connector-curvature="0" /><path
   style="fill:#000080;stroke:#000000;stroke-width:1px;stroke-linecap:butt;stroke-linejoin:miter;stroke-opacity:1"
   d="m 113.8,211.9 -1.41192,2.34356 -3.72263,5.14078 -3.89991,7.62253 -1.94995,9.21795 -0.17726,7.97707 v 8.68615 L 104.8,276.8 l 13.43793,154.41991 4.60898,43.608 22.3358,0.88634 L 144.6,277 l 1.64632,-18.08484 6.38166,0.35454 0.35453,18.9677 0.35454,197.83138 22.15853,0.35454 5.14078,-56.90311 4.96351,-51.9396 3.72264,-40.94897 L 193,277.2 l 2.34963,-24.84377 v -8.50887 l -1.06361,-9.39522 -2.30449,-8.50888 -4.43171,-9.74975 L 184.6,212.3 Z"
   id="path872"
   inkscape:connector-curvature="0" /><path
   style="fill:none;stroke:#000000;stroke-width:1px;stroke-linecap:butt;stroke-linejoin:miter;stroke-opacity:1"
   d="m 121.60603,224.87965 -0.35454,4.78625 -3.01356,1.41814 c 0,0 -1.94995,1.24088 -3.54536,1.59542 -1.59542,0.35453 -2.12722,-0.17727 -3.19083,0.35453 -1.06361,0.53181 -1.77268,0.53181 -3.3681,0.53181 -1.59541,0 -2.65902,-0.17727 -2.65902,-0.17727 l -1.77269,-0.35454 1.94996,-8.86341 z"
   id="path874"
   inkscape:connector-curvature="0" /><path
   style="fill:none;stroke:#000000;stroke-width:1px;stroke-linecap:butt;stroke-linejoin:miter;stroke-opacity:1"
   d="m 107.95637,233.5658 0.35454,-5.31805 h 7.268 v 4.25444 l -6.7362,1.24088 z"
   id="path876"
   inkscape:connector-curvature="0" /><path
   style="fill:none;stroke:#000000;stroke-width:1px;stroke-linecap:butt;stroke-linejoin:miter;stroke-opacity:1"
   d="m 176.20466,226.12053 1.59541,2.65903 4.43171,3.36809 1.24087,0.53181 3.54537,1.06361 c 0,0 0.88634,-0.17727 2.12722,0.17726 1.24088,0.35454 5.14078,0.53181 5.14078,0.53181 l -2.30449,-8.50888 z"
   id="path880"
   inkscape:connector-curvature="0" /><path
   style="fill:none;stroke:#000000;stroke-width:1px;stroke-linecap:butt;stroke-linejoin:miter;stroke-opacity:1"
   d="m 183.47265,232.67946 v -3.54537 l 5.67259,0.35454 0.5318,4.60897 z"
   id="path882"
   inkscape:connector-curvature="0" /></svg>