<?xml version="1.0" encoding="UTF-8" standalone="no"?>
<!-- Generator: Adobe Illustrator 23.0.3, SVG Export Plug-In . SVG Version: 6.00 Build 0)  -->

<svg
   xmlns:dc="http://purl.org/dc/elements/1.1/"
   xmlns:cc="http://creativecommons.org/ns#"
   xmlns:rdf="http://www.w3.org/1999/02/22-rdf-syntax-ns#"
   xmlns:svg="http://www.w3.org/2000/svg"
   xmlns="http://www.w3.org/2000/svg"
   xmlns:sodipodi="http://sodipodi.sourceforge.net/DTD/sodipodi-0.dtd"
   xmlns:inkscape="http://www.inkscape.org/namespaces/inkscape"
   version="1.1"
   id="Layer_1"
   x="0px"
   y="0px"
   viewBox="0 0 300 500"
   style="enable-background:new 0 0 300 500;"
   xml:space="preserve"
   sodipodi:docname="male_rectangle_suit.svg"
   inkscape:version="0.92.3 (2405546, 2018-03-11)"><metadata
   id="metadata841"><rdf:RDF><cc:Work
       rdf:about=""><dc:format>image/svg+xml</dc:format><dc:type
         rdf:resource="http://purl.org/dc/dcmitype/StillImage" /><dc:title></dc:title></cc:Work></rdf:RDF></metadata><defs
   id="defs839" /><sodipodi:namedview
   pagecolor="#ffffff"
   bordercolor="#666666"
   borderopacity="1"
   objecttolerance="10"
   gridtolerance="10"
   guidetolerance="10"
   inkscape:pageopacity="0"
   inkscape:pageshadow="2"
   inkscape:window-width="1920"
   inkscape:window-height="1001"
   id="namedview837"
   showgrid="false"
   inkscape:zoom="5.6411677"
   inkscape:cx="147.05542"
   inkscape:cy="299.63511"
   inkscape:window-x="-9"
   inkscape:window-y="-9"
   inkscape:window-maximized="1"
   inkscape:current-layer="Layer_1" />
<style
   type="text/css"
   id="style815">
	.st0{fill:#00A9C0;}
	.st1{fill:#FCC6A0;}
	.st2{opacity:0.55;fill:#A3836B;stroke:#AF8165;stroke-miterlimit:10;enable-background:new    ;}
	.st3{fill:#FBC59F;}
</style>
<g
   id="Layer_3">
</g>



<path
   style="fill:#000000;stroke:#000000;stroke-width:1px;stroke-linecap:butt;stroke-linejoin:miter;stroke-opacity:1"
   d="m 123.37871,93.701137 -3.72263,1.06361 -8.50888,0.709073 -7.62253,1.949951 -7.622539,3.013559 -8.15434,6.55893 -4.963511,9.21795 -4.07717,10.81336 L 63.816575,201.12571 89.87501,211.23 96.965741,184.99429 101.7,176.6 v 42.3 l 0.93833,30.08814 20.38585,33.5037 z"
   id="path843"
   inkscape:connector-curvature="0" /><path
   style="fill:#000000;stroke:#000000;stroke-width:1px;stroke-linecap:butt;stroke-linejoin:miter;stroke-opacity:1"
   d="m 174.96378,93.169333 5.14078,1.772682 9.92702,1.06361 10.10429,1.949951 8.50888,4.786244 6.73619,9.39522 5.84985,14.89053 12.76332,62.39843 2.30449,12.94058 -26.94478,7.79981 L 198.3,178.9 l -0.64588,73.98804 -21.09493,29.95834 z"
   id="path845"
   inkscape:connector-curvature="0" /><path
   style="fill:#ffffff;stroke:#000000;stroke-width:1px;stroke-linecap:butt;stroke-linejoin:miter;stroke-opacity:1"
   d="m 123.37871,93.701137 16.84049,15.954143 20.20858,0.53181 14.536,-17.017757 1.06361,138.978317 -52.29414,0.17727 z"
   id="path847"
   inkscape:connector-curvature="0" /><path
   style="fill:#2ca089;stroke:#000000;stroke-width:1px;stroke-linecap:butt;stroke-linejoin:miter;stroke-opacity:1"
   d="m 140.2192,109.65528 -4.25444,6.20439 6.55892,6.91346 h 13.82693 l 8.33161,-7.09073 -4.25444,-5.49531 z"
   id="path849"
   inkscape:connector-curvature="0" /><path
   style="fill:none;stroke:#000000;stroke-width:1px;stroke-linecap:butt;stroke-linejoin:miter;stroke-opacity:1"
   d="m 135.96476,115.85967 -12.23151,-10.6361 z"
   id="path851"
   inkscape:connector-curvature="0" /><path
   style="fill:none;stroke:#000000;stroke-width:1px;stroke-linecap:butt;stroke-linejoin:miter;stroke-opacity:1"
   d="m 164.68222,115.6824 10.81336,-8.50887 z"
   id="path853"
   inkscape:connector-curvature="0" /><path
   style="fill:#2ca089;stroke:#000000;stroke-width:1px;stroke-linecap:butt;stroke-linejoin:miter;stroke-opacity:1"
   d="m 142.52368,122.77313 v 45.20341 l 5.67259,11.34517 6.20439,-10.99063 1.94995,-45.55795 z"
   id="path855"
   inkscape:connector-curvature="0" /><path
   style="fill:#000000;stroke:#000000;stroke-width:1px;stroke-linecap:butt;stroke-linejoin:miter;stroke-opacity:1"
   d="m 101.04291,226.47507 97.49755,0.5318 -1.24088,36.16273 L 197,280.1 l -1.11857,16.75057 -4.07717,51.9396 -6.91346,69.48916 -7.97707,56.19404 -1.24088,7.97707 -18.61317,-0.17727 L 157.6,282.4 l -0.4,-12.9 -13.43544,-0.30328 -0.5318,214.4946 -18.25863,-0.70907 -0.17727,-7.44527 -4.07717,-16.13141 -1.94995,-12.76332 -7.44527,-63.99384 L 103.4,281.8 Z"
   id="path868"
   inkscape:connector-curvature="0" /></svg>