<?xml version="1.0" encoding="utf-8"?>
<!-- Generator: Adobe Illustrator 23.0.3, SVG Export Plug-In . SVG Version: 6.00 Build 0)  -->
<svg version="1.1" id="Layer_1" xmlns="http://www.w3.org/2000/svg" xmlns:xlink="http://www.w3.org/1999/xlink" x="0px" y="0px"
	 viewBox="0 0 300 500" style="enable-background:new 0 0 300 500;" xml:space="preserve">
<style type="text/css">
	.st0{fill:#03A3B6;}
	.st1{fill:#FBC59F;}
	.st2{fill:#92745E;}
	.st3{opacity:0.14;fill:#422200;enable-background:new    ;}
	.st4{fill:#FEE8B9;}
</style>
<g>
	<g>
		<path class="st0" d="M192.2,198.1c-28,9.3-56.2,9.5-84.5,0c-15,10.2-24.6,22.9-24.2,39.3c0.2,11.3,1.3,22.5,2,33.8
			c19.7,2.7,39.7,3,59.4-0.2c4.9-2.5,3.4-6.6,3.8-10.2c0.4-3.6-0.2-7.7,5.6-9.3l0,0c0.2,6.6,0.4,13.2,0.6,19.9c1.3,0,2.7,0,3.8,0
			c0-0.1,0-0.2,0.1-0.3c0.1,0.1,0.1,0.2,0.2,0.3c18.4,3.4,37,2.1,55.3,0c0.7-7.3,1.3-14.6,2.2-22
			C218.4,229.4,213.1,211.4,192.2,198.1z"/>
		<g>
			<g>
				<path class="st1" d="M278.9,266.9c-18.6-49.3-36.1-98.7-52.4-148.4c-5.2-15.6-12.3-25.6-34.5-27c-9.2-0.5-11.7-0.9-15.5-3.2
					c-4.7-2.7-6.5-6.7-8.7-12.2c-1.3-3-2.2-6-2.7-8.5c-0.2,0.2-0.7,0.2-0.9,0.4c-9.9,5.4-19.3,5.4-28.7,0c0,0.4-0.2,0.7-0.2,1.1
					c-3.4,14-22.4,22.3-31.8,23.4c-0.4,0-1.6,0.4-3.4,0.4c-14.6,0.7-21.1,8-24.2,18.8c-4.3,14.6-9.6,28.8-14.8,43.3
					c-13.4,38.3-26.4,76.7-40.8,114.8c-5.6,15.1,2.2,26.1,12.3,37.1c2.5,2.5,5.4,4.1,9.6,2.1c3.8-1.8,3.4-4.6,1.6-7.1
					c-5.2-6.9-2.2-13.1,0.7-19.8c1.8-3.9,3.8-4.5,8.3-2.7c3.8,1.4,8.5,4.8,11.7,0.4c2.9-3.8-1.6-6.9-5.2-9
					c-6.3-3.8-6.1-7.6-3.4-13.1c11.2-23.4,21.7-47.2,32.5-70.8c5.8-12.4,11.7-24.7,17.5-37.1c0.7,0.2,1.3,0.4,2.2,0.5v48.4
					c0.7,1.1,1.8,2,3.1,2.5c26.2,10.3,52.7,9,78.9,0.2c1.3-0.5,2-1.6,2.7-2.7v-48.3c17.7,33.3,32.9,66.9,48.4,100.2
					c4,8.5,9.6,16.5-3.4,23.4c-2.5,1.3-3.1,4.3-0.9,6.5c2,2,5.2,1.6,7.2,0.4c9.2-5,11.4-0.9,13.9,5.4c1.8,5.2,1.8,9.9-0.7,14.7
					c-1.8,3.2-2.7,6.7,2.2,8.5c4.3,1.6,7.2-1.1,9.2-3.4C278.2,294.4,284.7,282.7,278.9,266.9z"/>
				<path class="st1" d="M148.7,284.3c0-3.8,0.2-7.8-2.5-11.4c-3.1-2.9-7.4-2-11.4-1.8c-12.3,0.7-24.6,0.4-37,0.2
					c-4.5-0.2-9-1.6-13,1.1c2.7,17.4,5.4,34.9,8.5,52.2c7.8,42.4,15.9,84.8,24,127.2c1.6,8,4.3,16.2-10.5,18.1
					c-0.7,0.2-1.1,0.7-1.8,1.1c-1.8,1.3-4.9,2.1-4.3,4.6c0.9,2.7,4,2.3,6.5,2.3c6.9,0,14.1,0,21.1,0c15.9-0.2,15.9-0.2,16.8-12.8
					c4.3-3.4,3.6-7.8,3.6-11.9C148.7,397,148.7,340.7,148.7,284.3z"/>
				<path class="st1" d="M183,446.9c9.4-58.2,22.6-116.2,30.9-174.6c-2.5-2-5.4-1.6-8.3-1.6c-16.1,1.1-32,0.7-48-0.2
					c-2.2,0.4-4.3,0.9-5.4,2.7c-2,3.4-2,7.1-2,10.6c0,56.4,0,112.8,0,169.1c0.2,4.1-0.2,8.3,3.6,11.9c0.4,12.8,0.4,12.6,16.8,12.8
					c6.1,0.2,12.1,0.7,17.9,0.5c3.1,0,7.8,0.5,9-2.1c1.6-3.6-3.1-6.2-6.1-6.5c-14.6-2-11.4-9.9-9.9-17.4
					C181.9,450.3,182.8,448.7,183,446.9z"/>
			</g>
		</g>
		<path class="st2" d="M171.6,69.7"/>
	</g>
</g>
<g>
	<path class="st3" d="M134.9,69.3c-0.3,1-0.1,2,0.5,2.7c0.1,0.1,0.2,0.2,0.3,0.3c4.5,4.4,27.5,6.6,14.5,6.6c6.1,0,11.2-2.3,15.3-6.7
		c0.6-0.6,0.9-1.6,0.6-2.4l0,0l0,0c-0.2-1.2-1.1-2-2-2l-27-0.3C136,67.5,135.2,68.2,134.9,69.3L134.9,69.3z"/>
	<path class="st1" d="M173.7,46.4c-3.8,19.1-11.1,29.3-24.5,29.3s-20.9-11.9-23.6-31.3c-2.7-19.2,10.9-35.1,24.3-35.1
		S177.2,29.2,173.7,46.4z"/>
</g>
<g id="Layer_3">
</g>
<path class="st4" d="M125.2,45.2c-0.7-9.3-8.8-18.2-6.7-27.7c0.2-1.1,1-2.1-1.7-2.5c-6.3-0.6-2.2-2.3-0.3-2.8c6-1.6,3.5-3.3-0.2-5.7
	c5-0.6,9.5-0.1,13.3-1.4c6.5-2.3,20.5-2.1,27-2.9c10.7-1.4,15.2,6.6,24.2,4.1c4.3,12.5-2.6,24-6.5,35.7c-3-3.9-6.3-7.7-7.7-11.9
	c-1.8-6.9-1.5-6.9-13.5-7.6c-16.8-1-16.8-0.2-21.2,9C129.9,36,128.9,40.9,125.2,45.2z"/>
</svg>
