<?xml version="1.0" encoding="utf-8"?>
<!-- Generator: Adobe Illustrator 23.0.1, SVG Export Plug-In . SVG Version: 6.00 Build 0)  -->
<svg version="1.1" id="Layer_1" xmlns="http://www.w3.org/2000/svg" xmlns:xlink="http://www.w3.org/1999/xlink" x="0px" y="0px"
	 viewBox="0 0 612 792" style="enable-background:new 0 0 612 792;" xml:space="preserve">
<style type="text/css">
	.st0{fill:#FCC6A0;}
	.st1{fill:#00A9C0;}
	.st2{fill:#F9D2B5;}
	.st3{fill:#09A2B6;}
	.st4{fill:#E2AC89;}
	.st5{fill:#E0A889;}
	.st6{fill:#E5AB89;}
	.st7{fill:#E1A785;}
	.st8{fill:#E1A985;}
	.st9{fill:#E7B18E;}
</style>
<path class="st0" d="M297.1,316.5c0-1.3,0-2.6,0-4c0.2-0.3,0.4-0.5,0.4-0.9c0.4-6.1,0.5-6.2,5.9-3.6c3,1.4,5.5,1,7.9-0.8
	c3.2-2.4,4.2-0.7,4.8,2.3c0,1,0.1,2,0.1,3c0.2,3.7,1.5,6.2,5.8,5.9c1.3-0.1,2.7,0.1,4,0.3c8.9,1.1,13.7,6.1,16.5,14.8
	c9,28.5,15.5,57.7,22.3,86.9c1.4,6.1,1.3,12.3-4.7,16.8c-1.9,1.5-4.1,2.2-6,1c-2-1.3-0.6-3.3,0.2-4.9c0.9-1.7,1.2-3.5,0.7-5.3
	c-0.8-2.7-0.5-7.8-5.4-2.7c-0.6,0.7-1.8,1.1-2.7,0.3c-0.9-0.7-1.2-2-0.7-2.7c6.6-8.7,0.8-16.8-1.3-24.8
	c-3.9-15.1-9.7-29.7-14.7-44.5c-0.4-1-0.6-1.9-1.9-1.8c-0.4-0.3-0.6-0.7-0.4-1.1c0.9-1.9,1.5-3.9,1.9-6c-0.4,2.3-1.3,4.4-2.2,6.5
	c-0.1,1.6-0.8,2.8-1.9,3.8c-4,1.4-8.2,1.4-10.5,1.2c2.3,0.1,6.6,0.4,10.6-1.3c0.4-0.5,0.8-0.6,1.3-0.2c-2.4,10.1-4.8,20.2-7.1,30.3
	c-5.7,4.1-12.2,3.2-18.5,2.8c-2.8-0.2-6.1,0.1-8.1-2.8c-1.6-9.9-5.4-19.3-6.4-29.2c4.1-1,8,1.7,11.2,0.3c-0.1,0-1.1,0.1-2,0.1
	c-10.3-0.6-9.8-1.1-11.6-8.6c-0.2,1.4,1.8,2.7,0.4,4.2c-1.5,0.5-1.6,1.9-2.1,3.1c-7.1,19-13.1,38.3-18.7,57.8
	c-0.6,2.1-0.5,3.8,0.7,5.6c1.4,2.2,3.9,4.8,1.5,7.1c-2.5,2.3-3.8-2.1-6.5-2.5c-1.4,3.6-2.8,7.3-0.6,11.2c0.8,1.5,1.6,3.2-0.2,4.5
	c-1.6,1.1-3.3,0.3-4.7-0.5c-4.8-2.7-7.6-9.5-6-16.3c6.8-29.4,13.1-59,22.5-87.8c3.9-12.1,8.5-15.2,21.1-15.5
	C293.6,317.4,296.1,318.9,297.1,316.5z"/>
<path class="st0" d="M331.8,419.6c-1.4,20.8-3.8,41.6-6.5,62.3c-1.7,13.1-2.8,26.4-4.2,39.6c-0.3,3.2-0.6,6.3,3.1,8.1
	c0.8,0.4,1.4,2,1.3,3c-0.2,1.3-1.6,1.2-2.8,1.4c-3.5,0.6-6.9-0.5-10.4-0.4c-1.9,0.1-2.7-1.2-3-2.7c-0.2-1-0.3-2-0.3-3
	c0-35.8,0.1-71.6,0.1-107.4c0.4-0.3,0.8-0.8,1.3-0.7C317.6,420.4,324.7,419.6,331.8,419.6z"/>
<path class="st0" d="M304.1,420.6c0,35.8,0,71.6,0.1,107.4c0,4.3-1.5,6.1-5.8,5.7c-2.5-0.2-5,0.4-7.4,0.2c-3-0.2-4.2-2.6-1.8-4.2
	c5.1-3.2,3-7.7,2.6-11.5c-2.4-24.1-5.2-48.1-7.8-72.2c-0.9-8.6-2.3-17.1-1.9-25.8c1.7-1.2,3.5-0.8,5.3-0.5c4.8,0.7,9.6,0.2,14.4-0.3
	C302.7,419.5,303.5,420,304.1,420.6z"/>
<path class="st1" d="M302.1,420.5c-6.7,1.7-13.4,0.9-20-0.2c-2.7-13.9,0.4-25.9,11.3-35.4c8.9,2.3,17.7,2.3,26.6,0
	c11.1,9.1,13.4,21.3,11.9,34.8c-7.4,2.9-15,1.8-22.6,0.9c0-3.7,0-7.3,0-11c1.1-1.7,3-1.9,4.7-2.4c0-0.1-0.1-0.1,0,0
	c-5,1.3-10,1.7-14.8-0.4c1.7,1.2,4.7,0.7,5,3.8c0,1,0,2,0,3C302.6,415.6,305,418.8,302.1,420.5z"/>
<path class="st2" d="M316.1,309.5c-1-1.3-1.3-3.7-4-1.2c-4.5,4.3-9,1.3-13.2-1.3c-1.6,1.7,0.2,4.2-1.7,5.5c1.7-5.7-3.2-10-3.4-15.4
	c-0.1-3.5-1-7.1-1.6-10.6c1.5-1.7,1.5-4,2-6c1.2-5.2,2.5-6.2,7.5-5.3c3.6,0.7,7.1,0.8,10.8,0c4.1-0.9,6.2,0.7,6.9,4.9
	c0.4,2.3,0.7,4.5,1.9,6.6C320.3,294.5,319,302.2,316.1,309.5z"/>
<path class="st3" d="M304.1,410.5c-1.8-2.5-5.8-1.9-7.9-5.7c4.1,0.5,6.9,3.2,10.2,2.7c3.2-0.5,6.4-1.1,9.9-1.8
	c-1.8,2.7-4.6,3.1-7.1,3.8C307.2,408.4,305.4,407.9,304.1,410.5z"/>
<path class="st4" d="M285,351.6c-0.6-2.3-1.2-4.7-1.8-7c1.5,10.9,9.3,11.7,18.1,11.2c-5,1-9.6,1-14.3-0.2
	C285.9,354.5,285.3,353.1,285,351.6z"/>
<path class="st3" d="M302.1,420.5c1.8-2,0-5,2-7c0,2.4,0,4.7,0,7.1C303.5,420.6,302.8,420.5,302.1,420.5z"/>
<path class="st2" d="M297.1,316.5c-0.6,3.3-3.3,1.6-5.1,2C293.7,317.8,295.4,317.1,297.1,316.5z"/>
<path class="st5" d="M328.1,350.5c0,0.4,0.1,0.8,0.2,1.1c-0.4,1-0.8,1.9-1.2,2.9h-0.5h-0.5l0,0c0.4-1.3,0.7-2.6,1.1-4
	C327.5,350.1,327.8,350.1,328.1,350.5z"/>
<path class="st6" d="M309.1,329.7c3.4-3.4,7.6-4.1,11.7-5.4c0.1,0.4,0.3,0.8,0.4,1.2C317.2,326.9,313.1,328.3,309.1,329.7z"/>
<path class="st7" d="M304.4,329.3c-3.3-0.2-6.3-1.6-9.1-3.9c3.1,0.9,6.2,1.7,9.4,2.6C304.6,328.4,304.5,328.8,304.4,329.3z"/>
<path class="st8" d="M326.1,354.5c-4.2,3.7-9.2,1.3-13.8,1.5C316.9,355.7,321.5,355.2,326.1,354.5L326.1,354.5z"/>
<path class="st9" d="M328.1,350.5c-0.3,0-0.6,0-1,0c0.8-2.3,1.6-4.6,2.5-7.5C330.5,346.2,329.6,348.4,328.1,350.5z"/>
</svg>
