<?xml version="1.0" encoding="UTF-8" standalone="no"?>
<!-- Generator: Adobe Illustrator 23.0.1, SVG Export Plug-In . SVG Version: 6.00 Build 0)  -->

<svg
   xmlns:dc="http://purl.org/dc/elements/1.1/"
   xmlns:cc="http://creativecommons.org/ns#"
   xmlns:rdf="http://www.w3.org/1999/02/22-rdf-syntax-ns#"
   xmlns:svg="http://www.w3.org/2000/svg"
   xmlns="http://www.w3.org/2000/svg"
   xmlns:sodipodi="http://sodipodi.sourceforge.net/DTD/sodipodi-0.dtd"
   xmlns:inkscape="http://www.inkscape.org/namespaces/inkscape"
   version="1.1"
   id="Layer_1"
   x="0px"
   y="0px"
   viewBox="0 0 300 500"
   style="enable-background:new 0 0 300 500;"
   xml:space="preserve"
   sodipodi:docname="male_triangle_suit.svg"
   inkscape:version="0.92.3 (2405546, 2018-03-11)"><metadata
   id="metadata868"><rdf:RDF><cc:Work
       rdf:about=""><dc:format>image/svg+xml</dc:format><dc:type
         rdf:resource="http://purl.org/dc/dcmitype/StillImage" /><dc:title></dc:title></cc:Work></rdf:RDF></metadata><defs
   id="defs866" /><sodipodi:namedview
   pagecolor="#ffffff"
   bordercolor="#666666"
   borderopacity="1"
   objecttolerance="10"
   gridtolerance="10"
   guidetolerance="10"
   inkscape:pageopacity="0"
   inkscape:pageshadow="2"
   inkscape:window-width="1920"
   inkscape:window-height="1001"
   id="namedview864"
   showgrid="false"
   showguides="true"
   inkscape:zoom="2.81"
   inkscape:cx="198.95351"
   inkscape:cy="321.91539"
   inkscape:window-x="-9"
   inkscape:window-y="-9"
   inkscape:window-maximized="1"
   inkscape:current-layer="g861" />
<style
   type="text/css"
   id="style815">
	.st0{fill:#422200;}
	.st1{fill:#FBC59F;}
	.st2{fill:#F9C29A;}
	.st3{fill:#02A0B4;}
	.st4{fill:#4C3628;}
	.st5{fill:#FAD2B4;}
	.st6{opacity:0.14;fill:#422200;enable-background:new    ;}
</style>
<path
   class="st0"
   d="M-76.7,51.5"
   id="path817" />
<g
   id="g861">
	
	
	
</g>
<path
   style="fill:#000000;stroke:#000000;stroke-width:1px;stroke-linecap:butt;stroke-linejoin:miter;stroke-opacity:1"
   d="m 122.4,88.7 -5.11605,0.960494 -9.72222,1.234568 -12.500002,1.234568 -15.895061,2.006172 -6.327161,3.549383 -6.172839,6.635805 -4.475309,14.35185 -12.654321,58.95062 32.716049,7.71605 L 93.7,154.1 l 4,7.4 16.1,50.4 9.65679,35.32222 z"
   id="path870"
   inkscape:connector-curvature="0" /><path
   style="fill:#000000;stroke:#000000;stroke-width:1px;stroke-linecap:butt;stroke-linejoin:miter;stroke-opacity:1"
   d="m 176,89.2 4.40123,0.923457 8.64198,1.080247 5.8642,-0.308642 16.2037,2.160494 10.49383,2.160493 5.09259,3.08642 3.24074,2.777781 2.9321,5.70987 3.39506,13.27161 12.03704,56.79012 -33.02469,8.48766 L 203.2,155.7 l -18.7,56.5 -8.41975,35.02222 z"
   id="path872"
   inkscape:connector-curvature="0" /><path
   style="fill:#ffffff;stroke:#000000;stroke-width:1px;stroke-linecap:butt;stroke-linejoin:miter;stroke-opacity:1"
   d="m 122.4,88.7 18.34074,17.78148 15.74074,0.30864 L 176,89.2 l -0.2284,147.68272 -51.85185,-0.92593 z"
   id="path874"
   inkscape:connector-curvature="0" /><path
   style="fill:#2ca089;stroke:#000000;stroke-width:1px;stroke-linecap:butt;stroke-linejoin:miter;stroke-opacity:1"
   d="m 140.74074,106.48148 -3.54938,3.24074 6.17284,5.55556 h 9.72222 l 6.17284,-4.78395 -2.77778,-3.70371 z"
   id="path876"
   inkscape:connector-curvature="0" /><path
   style="fill:none;stroke:#000000;stroke-width:1px;stroke-linecap:butt;stroke-linejoin:miter;stroke-opacity:1"
   d="M 137.19136,109.72222 121.2963,96.450617 Z"
   id="path878"
   inkscape:connector-curvature="0" /><path
   style="fill:none;stroke:#000000;stroke-width:1px;stroke-linecap:butt;stroke-linejoin:miter;stroke-opacity:1"
   d="M 159.25926,110.49383 175.92593,97.530864 Z"
   id="path880"
   inkscape:connector-curvature="0" /><path
   style="fill:#2ca089;stroke:#000000;stroke-width:1px;stroke-linecap:butt;stroke-linejoin:miter;stroke-opacity:1"
   d="m 143.3642,115.27778 v 49.84568 l 3.85802,9.25926 4.47531,-9.41358 1.38889,-49.69136 z"
   id="path882"
   inkscape:connector-curvature="0" /><path
   style="fill:#000000;stroke:#000000;stroke-width:1px;stroke-linecap:butt;stroke-linejoin:miter;stroke-opacity:1"
   d="m 113.8,211.9 70.8,0.4 3.20864,4.52099 3.24074,5.40123 2.9321,9.5679 1.23457,10.95679 -0.30864,12.19136 L 193,277.2 l -2.10494,27.89259 -8.02469,89.96914 -6.48148,73.14815 -23.7688,-0.0876 L 152,257 l -5.71179,1.73362 -1.31004,208.51529 -23.58079,-0.43668 -18.5504,-212.00796 -0.35588,-16.01423 1.42349,-11.03203 5.33808,-8.8968 z"
   id="path884"
   inkscape:connector-curvature="0" /></svg>