<?xml version="1.0" encoding="utf-8"?>
<!-- Generator: Adobe Illustrator 23.0.1, SVG Export Plug-In . SVG Version: 6.00 Build 0)  -->
<svg version="1.1" id="Layer_1" xmlns="http://www.w3.org/2000/svg" xmlns:xlink="http://www.w3.org/1999/xlink" x="0px" y="0px"
	 viewBox="0 0 612 792" style="enable-background:new 0 0 612 792;" xml:space="preserve">
<style type="text/css">
	.st0{fill:#00A9C0;}
	.st1{fill:#FCC6A0;}
	.st2{fill:#FBBF9A;}
	.st3{fill:#FCC39D;}
	.st4{fill:#FDC796;}
	.st5{fill:#DEA584;}
	.st6{fill:#DDA382;}
	.st7{fill:#DDA582;}
	.st8{fill:#E4AB88;}
	.st9{fill:#E4AA87;}
	.st10{fill:#FAD2B5;}
</style>
<g>
	<path class="st0" d="M280.2,272.9c-0.3,0.3-0.6,0.5-0.9,0.8c-0.3,0.7-0.6,0.7-0.9,0.1c-9.3-1.5-18.9-0.8-28-3.6
		c-1.8-11.1-1.5-22.2-1.6-33.4c5.3,0.6,10.5,1.2,15.8,1.9c15.8,2.1,31.5,1,47.1-1.6c1.5-0.2,3-0.1,4.5-0.2
		c-0.3,9.4-0.5,18.8-0.9,28.2c-0.1,1.8-0.6,3.6-0.9,5.3c-9.8,1.8-19.7,3.1-29.7,2.5c0-3.6,0-7.3,0-10.9c0-1.8-0.4-2.7-2.5-2.7
		c-2,0-2,1.3-2,2.6C280.2,265.6,280.2,269.3,280.2,272.9z"/>
</g>
<g>
	<g>
		<g>
			<g>
				<g>
					<path class="st1" d="M314.3,271.2c0.3,11.2-1.7,22.2-3,33.2c-2,17.1-3.6,34.3-7.9,51.1c-1.4,5.5-3,10.9-4.8,16.3
						c-1.4,4-1.4,7.4,2.5,10c1,0.7,2.5,1.7,1.7,3.2c-0.6,1.2-2.2,1.4-3.5,1.4c-2.8,0-5.7-0.3-8.5,0.1c-5.1,0.7-6.3-1.8-6.3-6.3
						c0.1-27.5,0-55,0.1-82.5c0-8,0-16,0.1-24c1-0.7,2.1-1.1,3.2-1.2c7.9-0.4,15.9-0.8,23.7-2.1
						C312.5,270.2,313.5,270.5,314.3,271.2z"/>
					<path class="st1" d="M280.2,273.6c0,35.7,0,71.5,0.2,107.2c0,4.3-1.6,6.1-5.9,5.6c-2.8-0.3-5.6,0-8.5-0.1
						c-1.3,0-2.9,0.4-3.4-1.3c-0.5-1.7,0.4-2.9,1.9-3.6c0.4,0.4,0.9,0.4,1.4,0.5c-0.4-0.2-1-0.1-1.4-0.5c3.2-2.8,3.1-6.1,1.8-9.9
						c-7.9-22.5-10.3-46.1-13-69.6c-1.2-10.4-2.8-20.7-2.9-31.1c1.1-1,2.5-0.8,3.8-0.6c6.4,1.1,12.8,1.9,19.4,1.9
						c2.2,0,4.4,0.3,5.3,2.9c0.1,33.9,0,67.9,0.1,101.8c0-33.7,0-67.4,0-101.1C279,274.7,278.8,273.7,280.2,273.6z"/>
				</g>
				<path class="st2" d="M286.3,276.8c0,33.4,0,66.9,0,100.3c-0.2,0-0.3,0-0.5,0c0-33.5,0-67,0-100.5
					C286,276.7,286.1,276.8,286.3,276.8z"/>
				<path class="st3" d="M278.4,274.4c0.3-0.2,0.6-0.2,0.9-0.1c0,35.8,0,71.6,0,107.4c-0.3,0-0.6,0-0.9,0
					C278.4,346,278.4,310.2,278.4,274.4z"/>
				<path class="st4" d="M274.3,283.8c0,31.1,0,62.2,0,93.3c-0.2,0-0.3,0-0.5,0c0-31.2,0-62.4,0-93.5
					C273.9,283.7,274.1,283.8,274.3,283.8z"/>
			</g>
			<path class="st3" d="M264,385c4.3-2.3,7.8-1,11.2-1.5C273,385.6,271.5,385.8,264,385z"/>
			<path class="st3" d="M264.5,381.5c1.2,0.1,2.3-1.2,3.9,0C266.8,382.7,265.7,382.9,264.5,381.5L264.5,381.5z"/>
		</g>
		<g>
			<g>
				<path class="st1" d="M291.3,159.3c0.9,5.5,1.4,8.3,3,9.8c1.9,1.8,3.4,0.6,9.4,1.5c7.4,1.1,12.7,4.2,16.1,11.5
					c11.9,25.2,20.6,51.1,22.9,79c0.4,5.1,0.6,10.3,0.8,15.4c0.4,7.6-4.1,11.1-10.2,14.5c-1.5,0.8-3.4,1.3-4.5-0.5
					c-0.9-1.5-0.7-3.5,0.9-4.5c3.1-2,2.6-4.4,1.8-7.3c-0.9-3.2-1.7-5.1-5.1-2.2c-1.3,1.1-2.8,1.3-3.9-0.3c-1.2-1.6-0.3-3.2,0.8-3.9
					c5.8-3.5,3.9-8,2.4-12.9c-3.3-10.6-6.1-21.3-10.1-31.8c0.2,3.3,0.4,6.7,0.5,10c-1.4,1.4-3.3,1.5-5,1.8
					c-18.9,3.3-37.9,3.4-56.8,0.1c-1.9-0.3-4-0.4-5.5-2c-0.3-3.3,1.2-6.6,0.3-9.9c-2,1-1.5,3.1-2,4.7c-3.1,10.3-5.9,20.8-9.2,31
					c-1,3.2-0.5,5.2,2,7.3c1.6,1.4,4.4,2.9,2.3,5.7c-1.8,2.3-3.6,0.3-5.2-0.7c-1.2-0.7-2.3-1.2-2.7,0.5c-0.7,3.3-3.9,6.7,0.7,9.7
					c1.5,1,2,2.7,1.1,4.4c-1.1,1.9-2.7,1.3-4.4,0.6c-6.2-2.3-9.9-7.3-10.2-13.9c-0.5-9.4,0.9-18.6,2.2-27.8
					c3.3-23.6,11.6-45.6,21.5-67.1c3.5-7.7,9.4-10.7,17.1-11.4c2.5-0.2,4.9-1.2,7.3-1.6c0.7-0.1,1-0.2,1.4-0.4
					c1-0.6,1.9-1.9,2.5-8.4c0.3-3.1,0.2-4.6,0.8-4.7c0.7-0.2,1.1,1.9,3.3,3.6c0.5,0.4,2.3,1.8,5,1.8c0.6,0,3.1-0.1,5-1.8
					c1.9-1.8,2-4.1,2.7-4C290.7,155.2,290.9,157.2,291.3,159.3z"/>
				<path class="st5" d="M248.6,223.3c1.9-9.1,0.2-18.4,1-27.7c1.5,1,0.8,2.3,0.8,3.4c0.1,8.6,1.1,9.6,9.9,10.5c6,0.6,12,1.8,19-0.4
					c-2.7,2.3-2.7,2.4-4.1,2.4c-7.3,0.1-14.6,0.3-21.7-1.9c-2.5-0.8-3.2,0-3.1,2.5C250.5,215.9,250.7,219.7,248.6,223.3z"/>
				<path class="st6" d="M312.4,208.5c-8.5,4.2-17.4,3.1-26.2,1.9c4.8,0.9,9.6,0.4,14.3-0.3C304.5,209.5,308.4,208.8,312.4,208.5
					L312.4,208.5z"/>
				<path class="st7" d="M312.4,208.5c3.5-3.8,1.3-8.5,2.5-12.8c1,9.1-0.4,18.4,1.3,27.5c-2.2-3.2-1.7-6.8-1.9-10.3
					C314.3,211.2,315.2,209,312.4,208.5L312.4,208.5z"/>
				<path class="st8" d="M280.8,185.2c-5.3-3.8-11.7-4.4-17.5-7C269.5,177.6,280.4,181.9,280.8,185.2z"/>
				<path class="st9" d="M302.4,177.5c-6.3,3.6-13,3.6-18,7.5C284.1,182.1,290.8,179.2,302.4,177.5z"/>
			</g>
			<path class="st10" d="M295.9,138.1c-0.2-8-3-17.9-8.3-20c-2.5-1-5.2-1-5.2-1s-2.9-0.1-5.5,0.9c-5.7,2.2-7.7,13.3-8,20.2
				c-0.3,7.9,1.5,19.2,7.2,22.1c3,1.6,6.3,1.5,6.3,1.5s2.3,0,4.4-0.9C292.2,158.8,296.2,148.3,295.9,138.1z"/>
		</g>
	</g>
</g>
</svg>
