<?xml version="1.0" encoding="UTF-8" standalone="no"?>
<!-- Generator: Adobe Illustrator 23.0.1, SVG Export Plug-In . SVG Version: 6.00 Build 0)  -->

<svg
   xmlns:dc="http://purl.org/dc/elements/1.1/"
   xmlns:cc="http://creativecommons.org/ns#"
   xmlns:rdf="http://www.w3.org/1999/02/22-rdf-syntax-ns#"
   xmlns:svg="http://www.w3.org/2000/svg"
   xmlns="http://www.w3.org/2000/svg"
   xmlns:sodipodi="http://sodipodi.sourceforge.net/DTD/sodipodi-0.dtd"
   xmlns:inkscape="http://www.inkscape.org/namespaces/inkscape"
   version="1.1"
   id="Layer_1"
   x="0px"
   y="0px"
   viewBox="0 0 300 500"
   style="enable-background:new 0 0 300 500;"
   xml:space="preserve"
   sodipodi:docname="male_hourglass_athletic.svg"
   inkscape:version="0.92.3 (2405546, 2018-03-11)"><metadata
   id="metadata848"><rdf:RDF><cc:Work
       rdf:about=""><dc:format>image/svg+xml</dc:format><dc:type
         rdf:resource="http://purl.org/dc/dcmitype/StillImage" /><dc:title></dc:title></cc:Work></rdf:RDF></metadata><defs
   id="defs846" /><sodipodi:namedview
   pagecolor="#ffffff"
   bordercolor="#666666"
   borderopacity="1"
   objecttolerance="10"
   gridtolerance="10"
   guidetolerance="10"
   inkscape:pageopacity="0"
   inkscape:pageshadow="2"
   inkscape:window-width="1920"
   inkscape:window-height="1001"
   id="namedview844"
   showgrid="false"
   inkscape:zoom="7.9742432"
   inkscape:cx="150"
   inkscape:cy="269.38303"
   inkscape:window-x="-9"
   inkscape:window-y="-9"
   inkscape:window-maximized="1"
   inkscape:current-layer="Layer_1" />
<style
   type="text/css"
   id="style815">
	.st0{fill:#03A1B5;}
	.st1{fill:#FAD2B4;}
	.st2{fill:#FBC59F;}
	.st3{opacity:0.14;fill:#422200;enable-background:new    ;}
</style>

<path
   style="fill:#000000;stroke:#000000;stroke-width:1px;stroke-linecap:butt;stroke-linejoin:miter;stroke-opacity:1"
   d="M 130.50063,91.449341 124.8,92.7 110.97203,94.859096 113.7,154.8 117.48156,167.08391 128.6,216.3 l 45.4,-0.5 13.6,-61.7 5.20615,-58.930926 -11.1592,-2.7898 -10.22926,-1.23991 -3.40976,6.81951 -5.88957,3.409756 -13.01907,1.23991 -8.67937,-2.16984 -6.50954,-2.479826 z"
   id="path850"
   inkscape:connector-curvature="0" /><path
   style="fill:#ff0000;stroke:#000000;stroke-width:1px;stroke-linecap:butt;stroke-linejoin:miter;stroke-opacity:1"
   d="m 128.8,216.7 -3.5944,3.3901 -6.55527,7.64781 -5.46272,11.36247 -4.15167,15.29562 -0.65553,11.36246 1.74807,24.91002 37.72254,-0.97057 L 147.6,264.1 l 8.40227,-0.73688 0.37621,26.33479 37.99733,0.1254 1.12864,-16.55329 v -6.89721 l -0.50162,-9.40528 -1.37944,-7.90043 -3.00969,-10.65932 -6.39559,-11.78796 L 174,215.8 Z"
   id="path854"
   inkscape:connector-curvature="0" /></svg>