<?xml version="1.0" encoding="UTF-8" standalone="no"?>
<!-- Generator: Adobe Illustrator 23.0.3, SVG Export Plug-In . SVG Version: 6.00 Build 0)  -->

<svg
   xmlns:dc="http://purl.org/dc/elements/1.1/"
   xmlns:cc="http://creativecommons.org/ns#"
   xmlns:rdf="http://www.w3.org/1999/02/22-rdf-syntax-ns#"
   xmlns:svg="http://www.w3.org/2000/svg"
   xmlns="http://www.w3.org/2000/svg"
   xmlns:sodipodi="http://sodipodi.sourceforge.net/DTD/sodipodi-0.dtd"
   xmlns:inkscape="http://www.inkscape.org/namespaces/inkscape"
   version="1.1"
   id="Layer_1"
   x="0px"
   y="0px"
   viewBox="0 0 300 500"
   style="enable-background:new 0 0 300 500;"
   xml:space="preserve"
   sodipodi:docname="male_rectangle_tshirtjeans.svg"
   inkscape:version="0.92.3 (2405546, 2018-03-11)"><metadata
   id="metadata841"><rdf:RDF><cc:Work
       rdf:about=""><dc:format>image/svg+xml</dc:format><dc:type
         rdf:resource="http://purl.org/dc/dcmitype/StillImage" /><dc:title></dc:title></cc:Work></rdf:RDF></metadata><defs
   id="defs839" /><sodipodi:namedview
   pagecolor="#ffffff"
   bordercolor="#666666"
   borderopacity="1"
   objecttolerance="10"
   gridtolerance="10"
   guidetolerance="10"
   inkscape:pageopacity="0"
   inkscape:pageshadow="2"
   inkscape:window-width="1920"
   inkscape:window-height="1001"
   id="namedview837"
   showgrid="false"
   inkscape:zoom="4.5764727"
   inkscape:cx="126.64854"
   inkscape:cy="429.15667"
   inkscape:window-x="-9"
   inkscape:window-y="-9"
   inkscape:window-maximized="1"
   inkscape:current-layer="Layer_1" />
<style
   type="text/css"
   id="style815">
	.st0{fill:#00A9C0;}
	.st1{fill:#FCC6A0;}
	.st2{opacity:0.55;fill:#A3836B;stroke:#AF8165;stroke-miterlimit:10;enable-background:new    ;}
	.st3{fill:#FBC59F;}
</style>
<g
   id="Layer_3">
</g>



<path
   style="fill:#4d4d4d;stroke:#000000;stroke-width:1px;stroke-linecap:butt;stroke-linejoin:miter;stroke-opacity:1"
   d="m 126.07963,92.043889 -4.80719,2.622106 -7.86632,1.092545 -9.39588,1.748071 -7.647816,2.403598 -6.555267,4.588691 -5.462723,7.21079 -2.185089,4.37018 -4.370178,14.64009 -6.773775,31.02827 -2.185089,12.01799 28.187647,12.455 L 101.7,176.6 l 0.5,43.1 96.1,-0.8 v -40 l 4.69477,13.43947 28.84317,-14.20308 -6.99228,-38.02054 -7.64782,-24.91002 -4.58868,-8.52185 -6.33676,-5.68123 -7.21079,-3.059121 -24.25449,-4.588687 -1.31106,4.588687 -16.38816,3.933161 -19.01028,-1.52956 -6.11825,-2.62211 z"
   id="path843"
   inkscape:connector-curvature="0" /><path
   style="fill:#000080;stroke:#000000;stroke-width:1px;stroke-linecap:butt;stroke-linejoin:miter;stroke-opacity:1"
   d="m 102.2,219.7 0.0622,8.03791 1.1378,54.06209 5.41743,74.85816 10.70694,98.54752 5.46272,24.25448 18.57326,0.43702 -0.21851,-98.76602 L 144.1,265.6 158.63746,266.41399 157.2,269.5 l 0.12641,21.824 v 191.19529 l 18.57325,-1.52956 2.4036,-17.0437 9.17737,-58.9974 3.71466,-48.29047 2.40359,-34.30589 L 197,280.1 l 1.3,-61.2 z"
   id="path845"
   inkscape:connector-curvature="0" /><path
   style="fill:none;stroke:#000000;stroke-width:1px;stroke-linecap:butt;stroke-linejoin:miter;stroke-opacity:1"
   d="m 119.74288,229.48599 -1.74808,5.24421 -3.71465,1.52956 -6.33675,1.52956 -6.33676,-0.21851 v -9.39588 z"
   id="path847"
   inkscape:connector-curvature="0" /><path
   style="fill:none;stroke:#000000;stroke-width:1px;stroke-linecap:butt;stroke-linejoin:miter;stroke-opacity:1"
   d="m 107.9434,237.78932 -0.43702,-5.68123 h 6.55526 l 0.21851,4.15167 z"
   id="path849"
   inkscape:connector-curvature="0" /><path
   style="fill:none;stroke:#000000;stroke-width:1px;stroke-linecap:butt;stroke-linejoin:miter;stroke-opacity:1"
   d="m 178.52177,230.36002 1.52956,4.8072 3.27763,1.52956 h 3.93316 5.02571 l 5.89974,-1.74807 -0.21851,-7.2108 z"
   id="path851"
   inkscape:connector-curvature="0" /><path
   style="fill:none;stroke:#000000;stroke-width:1px;stroke-linecap:butt;stroke-linejoin:miter;stroke-opacity:1"
   d="m 187.69914,236.91529 v -4.15167 h 5.68123 l -1.09254,3.93316 z"
   id="path853"
   inkscape:connector-curvature="0" /></svg>