<?xml version="1.0" encoding="utf-8"?>
<!-- Generator: Adobe Illustrator 23.0.1, SVG Export Plug-In . SVG Version: 6.00 Build 0)  -->
<svg version="1.1" id="Layer_1" xmlns="http://www.w3.org/2000/svg" xmlns:xlink="http://www.w3.org/1999/xlink" x="0px" y="0px"
	 viewBox="0 0 164 322.8" style="enable-background:new 0 0 164 322.8;" xml:space="preserve">
<style type="text/css">
	.st0{fill:#FBFDFB;}
	.st1{fill:#FBC59F;}
	.st2{fill:#FBD2B4;}
	.st3{fill:#E2A987;}
	.st4{fill:#E3AA87;}
	.st5{fill:#E3A987;}
	.st6{fill:#E5AC89;}
	.st7{fill:#D89F7D;}
	.st8{fill:#00A9C0;}
	.st9{fill:#03A3B6;}
</style>
<path class="st0" d="M81,175.5c0-2.7,0.3-5.4,0-8c-0.4-3.5,1.3-4.3,4.3-4c1.8,4,1.2,8,0.3,12c-0.1,17-0.2,34-0.2,51
	c-0.1,18.7-0.1,37.3-0.1,56c-1.3-0.1-2.6,2.4-3.9,0c0-33.5-0.1-67.1-0.1-100.6C81.2,179.8,81.1,177.6,81,175.5z"/>
<g>
	<path class="st1" d="M134.9,175.2c-8.3-27.4-16.1-54.8-23.4-82.4c-2.3-8.7-5.5-14.2-15.4-15c-4.1-0.3-5.2-0.5-6.9-1.8
		c-2.1-1.5-2.9-3.7-3.9-6.8c-0.6-1.7-1-3.3-1.2-4.7c-0.1,0.1-0.3,0.1-0.4,0.2c-4.4,3-8.6,3-12.8,0c0,0.2-0.1,0.4-0.1,0.6
		c-1.5,7.8-10,12.4-14.2,13c-0.2,0-0.7,0.2-1.5,0.2c-6.5,0.4-9.4,4.4-10.8,10.4c-1.9,8.1-4.3,16-6.6,24c-6,21.3-11.8,42.6-18.2,63.7
		c-2.5,8.4,1,14.5,5.5,20.6c1.1,1.4,2.4,2.3,4.3,1.2c1.7-1,1.5-2.6,0.7-3.9c-2.3-3.8-1-7.3,0.3-11c0.8-2.2,1.7-2.5,3.7-1.5
		c1.7,0.8,3.8,2.7,5.2,0.2c1.3-2.1-0.7-3.8-2.3-5c-2.8-2.1-2.7-4.2-1.5-7.3c5-13,9.7-26.2,14.5-39.3c2.6-6.9,5.2-13.7,7.8-20.6
		c0.3,0.1,0.6,0.2,1,0.3v26.9c0.3,0.6,0.8,1.1,1.4,1.4c11.7,5.7,23.5,5,35.2,0.1c0.6-0.3,0.9-0.9,1.2-1.5v-26.8
		c7.9,18.5,14.7,37.1,21.6,55.6c1.8,4.7,4.3,9.2-1.5,13c-1.1,0.7-1.4,2.4-0.4,3.6c0.9,1.1,2.3,0.9,3.2,0.2c4.1-2.8,5.1-0.5,6.2,3
		c0.8,2.9,0.8,5.5-0.3,8.2c-0.8,1.8-1.2,3.7,1,4.7c1.9,0.9,3.2-0.6,4.1-1.9C134.6,190.4,137.5,183.9,134.9,175.2z"/>
	<path class="st1" d="M75.2,285.2c-0.4,7-0.4,7-7.5,7.1c-3.1,0-6.3,0-9.4,0c-1.1,0-2.5,0.2-2.9-1.3c-0.3-1.4,1.1-1.9,1.9-2.6
		c0.3-0.2,0.5-0.5,0.8-0.6c6.6-1,5.4-5.6,4.7-10c-3.6-23.5-7.2-47.1-10.7-70.6c-1.4-9.6-2.6-19.3-3.8-29c1.8-1.5,3.8-0.7,5.8-0.6
		c5.5,0.1,11,0.3,16.5-0.1c1.8-0.1,3.7-0.6,5.1,1c1.2,2,1.1,4.2,1.1,6.3c0,31.3,0,62.6,0,93.8C76.8,280.9,77.1,283.3,75.2,285.2z"/>
	<path class="st1" d="M105.9,178.2c-3.7,32.4-9.6,64.6-13.8,96.9c-0.1,1-0.5,1.9-0.6,2.9c-0.7,4.2-2.1,8.6,4.4,9.7
		c1.3,0.2,3.4,1.6,2.7,3.6c-0.5,1.5-2.6,1.2-4,1.2c-2.6,0.1-5.3-0.2-8-0.3c-7.3-0.1-7.3,0-7.5-7.1c-1.7-2-1.5-4.3-1.6-6.6
		c0-31.3,0-62.6,0-93.9c0-2,0-4,0.9-5.9c0.5-1,1.4-1.3,2.4-1.5c7.1,0.5,14.2,0.7,21.4,0.1C103.5,177.3,104.8,177.1,105.9,178.2z"/>
	<path class="st2" d="M78.6,29.4c-6.5,0-11.8,7.1-12.8,16.5c0.5,5.8,0.8,12.8,4.4,17.5c0.1,0.1,0.2,0.3,0.2,0.4
		c0.1,0.1,0.1,0.1,0.1,0.1c0.2,0.2,0.3,0.4,0.4,0.6v0c2.1,2.4,4.8,3.8,7.6,3.8c3,0,5.7-1.5,7.9-4.1c0,0,0,0,0,0
		c0.1-0.3,0.4-0.5,0.5-0.7c2.8-5.9,4.1-12,4.2-18.5C90.1,36.2,84.9,29.4,78.6,29.4z"/>
	<path class="st3" d="M96.2,101.2c-0.3,2.3,0.5,4.5-0.8,6.8c-3.7,6.8-5.2,7.4-16.7,5.7c4.6-1.4,10,1.3,13-2.8
		c2.4-3.2,3.4-7.5,3.5-11.7C97.1,99.1,96.8,100.1,96.2,101.2z"/>
	<path class="st4" d="M66.2,114.1c-6.7-1.1-8.7-4.9-7.6-15.5c1.6,5.8,1.1,12.1,7.6,14.5c0.4,0.2,0.5,0.4,0.4,0.7
		C66.4,114,66.3,114.1,66.2,114.1z"/>
	<path class="st5" d="M78.4,87.8c3.1-3.8,7.9-3,11.9-4.3C87,86.8,82.2,86.2,78.4,87.8z"/>
	<path class="st6" d="M75.9,88c-3.8-1.8-8.3-1.3-11.6-4.4C75.1,88.1,68.8,78.2,75.9,88z"/>
	<path class="st7" d="M66.2,114.1c0-0.3,0-0.7,0-1c2.9,0,5.9,0,8.8,0c0,0.3,0,0.7,0,1C72.1,114.1,69.1,114.1,66.2,114.1z"/>
</g>
<g>
	<path class="st8" d="M105.8,177.3c-8.2,1.2-16.5,1.9-24.7,0c-2.8-6.6-1.8-11.2,3.7-13.8c-2.2,1.2-4.3,1.4-5.8,2.7
		c-2.6,0.9-2.3,3.2-2.5,5.2c-0.2,2,0.5,4.3-1.7,5.7c-8.8,1.8-17.7,1.6-26.5,0.1c-0.3-6.3-0.8-12.6-0.9-18.9
		c-0.2-9.2,4.1-16.3,10.8-22c12.6,5.3,25.2,5.2,37.7,0c9.3,7.4,11.7,17.5,10.9,28.7C106.4,169.1,106.1,173.2,105.8,177.3z"/>
	<path class="st9" d="M79.3,177.3c-0.1-4-0.2-8-0.3-12c2-1.6,4.3-2.2,8.2-1.8c-9.2,2.4-5.4,8.9-6.2,13.8
		C80.5,177.3,79.9,177.3,79.3,177.3z"/>
</g>
</svg>
