<?xml version="1.0" encoding="UTF-8" standalone="no"?>
<!-- Generator: Adobe Illustrator 23.0.1, SVG Export Plug-In . SVG Version: 6.00 Build 0)  -->

<svg
   xmlns:dc="http://purl.org/dc/elements/1.1/"
   xmlns:cc="http://creativecommons.org/ns#"
   xmlns:rdf="http://www.w3.org/1999/02/22-rdf-syntax-ns#"
   xmlns:svg="http://www.w3.org/2000/svg"
   xmlns="http://www.w3.org/2000/svg"
   xmlns:sodipodi="http://sodipodi.sourceforge.net/DTD/sodipodi-0.dtd"
   xmlns:inkscape="http://www.inkscape.org/namespaces/inkscape"
   version="1.1"
   id="Layer_1"
   x="0px"
   y="0px"
   viewBox="0 0 300 500"
   style="enable-background:new 0 0 300 500;"
   xml:space="preserve"
   sodipodi:docname="male_triangle_dress.svg"
   inkscape:version="0.92.3 (2405546, 2018-03-11)"><metadata
   id="metadata3883"><rdf:RDF><cc:Work
       rdf:about=""><dc:format>image/svg+xml</dc:format><dc:type
         rdf:resource="http://purl.org/dc/dcmitype/StillImage" /><dc:title></dc:title></cc:Work></rdf:RDF></metadata><defs
   id="defs3881" /><sodipodi:namedview
   pagecolor="#ffffff"
   bordercolor="#666666"
   borderopacity="1"
   objecttolerance="10"
   gridtolerance="10"
   guidetolerance="10"
   inkscape:pageopacity="0"
   inkscape:pageshadow="2"
   inkscape:window-width="1920"
   inkscape:window-height="1017"
   id="namedview3879"
   showgrid="false"
   inkscape:zoom="2.8284271"
   inkscape:cx="168.53993"
   inkscape:cy="334.34265"
   inkscape:window-x="-8"
   inkscape:window-y="-8"
   inkscape:window-maximized="1"
   inkscape:current-layer="Layer_1" />
<style
   type="text/css"
   id="style3830">
	.st0{fill:#422200;}
	.st1{fill:#FBC59F;}
	.st2{fill:#F9C29A;}
	.st3{fill:#02A0B4;}
	.st4{fill:#4C3628;}
	.st5{fill:#FAD2B4;}
	.st6{opacity:0.14;fill:#422200;enable-background:new    ;}
</style>
<path
   class="st0"
   d="M-76.7,51.5"
   id="path3832"
   style="stroke-width:1.8;stroke-miterlimit:4;stroke-dasharray:none" />

<path
   style="fill:none;stroke:#000000;stroke-width:1.8;stroke-linecap:butt;stroke-linejoin:miter;stroke-opacity:1;stroke-miterlimit:4;stroke-dasharray:none"
   d="m 94,152.1 3.8,9.4 16,50.4 -6.21976,10.2924 -3.4564,7.77688 -1.72819,9.50508 -41.044671,79.065 47.957451,-1.29615 44.93312,-0.43205 35.42803,-0.43205 29.81139,1.29615 -23.33066,-77.76885 -0.8641,-0.86409 -0.86409,-6.91279 -1.7282,-6.04869 -3.88844,-8.20893 L 184.6,212.3 l 18.5,-56.7 -11.70223,-31.05071 -90.73032,0.8641 z"
   id="path3895"
   inkscape:connector-curvature="0" /><path
   style="fill:none;stroke:#000000;stroke-width:1.8;stroke-linecap:butt;stroke-linejoin:miter;stroke-opacity:1;stroke-miterlimit:4;stroke-dasharray:none"
   d="M 250.15646,51.532985 Z"
   id="path3897"
   inkscape:connector-curvature="0" /><path
   style="fill:none;stroke:#000000;stroke-width:1.8;stroke-linecap:butt;stroke-linejoin:miter;stroke-opacity:1;stroke-miterlimit:4;stroke-dasharray:none"
   d="m 94.618763,93.441753 6.048687,31.971637 90.73032,-0.8641 0.8641,-33.267783 -0.8641,33.267783 -90.73032,0.8641 z"
   id="path3899"
   inkscape:connector-curvature="0" /><path
   style="fill:#6600ff;fill-opacity:1;stroke-width:0.1;stroke-miterlimit:4;stroke-dasharray:none"
   d="m 62.788727,317.44921 c 0.0019,-0.13438 9.033206,-17.61585 20.069633,-38.84772 l 20.06623,-38.60339 0.9195,-4.91541 c 1.13223,-6.05261 2.87098,-10.18968 7.44287,-17.70905 1.69402,-2.78615 3.0664,-5.29427 3.04973,-5.5736 -0.0764,-1.27964 -15.949474,-50.53819 -17.691494,-54.9015 l -1.962466,-4.91548 3.154161,-12.67594 c 1.734791,-6.97176 3.264169,-12.79909 3.398619,-12.9496 0.13446,-0.15052 13.2709,-0.39733 29.1921,-0.54846 15.9212,-0.15114 36.0575,-0.36271 44.74733,-0.47016 l 15.7997,-0.19536 5.71575,15.24045 5.71574,15.24046 -9.27176,28.40411 -9.27176,28.40411 2.25885,3.03241 c 2.62823,3.52826 5.56171,9.48721 6.78498,13.78271 0.45923,1.61255 1.04303,4.51928 1.29733,6.4594 0.2605,1.9874 0.66832,3.76527 0.93407,4.07209 0.43178,0.4985 23.51213,76.89866 23.29572,77.11307 -0.052,0.0515 -6.32478,-0.19073 -13.93959,-0.53826 -12.80588,-0.58444 -16.10691,-0.60742 -43.97854,-0.30614 -45.35961,0.4903 -55.97968,0.65816 -73.949113,1.16882 -18.701191,0.53146 -23.782445,0.58113 -23.77759,0.23244 z"
   id="path3927"
   inkscape:connector-curvature="0" /></svg>