<?xml version="1.0" encoding="utf-8"?>
<!-- Generator: Adobe Illustrator 23.0.1, SVG Export Plug-In . SVG Version: 6.00 Build 0)  -->
<svg version="1.1" id="Layer_1" xmlns="http://www.w3.org/2000/svg" xmlns:xlink="http://www.w3.org/1999/xlink" x="0px" y="0px"
	 viewBox="0 0 288 560" style="enable-background:new 0 0 288 560;" xml:space="preserve">
<style type="text/css">
	.st0{fill:#FBC59F;}
	.st1{fill:#00A9C0;}
	.st2{fill:#03A1B5;}
	.st3{fill:#E2AC89;}
	.st4{fill:#FAD2B4;}
	.st5{fill:#E0A788;}
	.st6{fill:#E5AB89;}
	.st7{fill:#E1A785;}
	.st8{fill:#E1A885;}
	.st9{fill:#E7B08D;}
</style>
<path class="st0" d="M135.1,200.47c0.02-1.32,0.04-2.64,0.05-3.97c0.24-0.25,0.41-0.54,0.44-0.86c0.44-6.09,0.5-6.23,5.85-3.61
	c2.95,1.44,5.51,1.04,7.9-0.78c3.22-2.44,4.2-0.67,4.75,2.25c0.05,1,0.09,2,0.15,3c0.21,3.67,1.51,6.22,5.82,5.93
	c1.32-0.09,2.66,0.09,3.98,0.25c8.94,1.1,13.72,6.07,16.49,14.82c9.04,28.55,15.49,57.74,22.25,86.86
	c1.42,6.09,1.25,12.33-4.69,16.75c-1.94,1.45-4.09,2.24-5.98,1.04c-2.01-1.27-0.57-3.33,0.22-4.91c0.86-1.74,1.19-3.55,0.67-5.33
	c-0.77-2.68-0.55-7.84-5.39-2.68c-0.62,0.66-1.76,1.13-2.72,0.34c-0.87-0.7-1.21-2.01-0.66-2.72c6.65-8.67,0.76-16.76-1.31-24.84
	c-3.88-15.15-9.68-29.72-14.69-44.52c-0.35-1.02-0.65-1.89-1.93-1.83c-0.44-0.28-0.58-0.66-0.44-1.15c0.89-1.93,1.53-3.93,1.91-6.02
	c-0.43,2.26-1.26,4.38-2.16,6.49c-0.07,1.57-0.83,2.78-1.91,3.84c-4.05,1.38-8.2,1.42-10.51,1.18c2.34,0.07,6.56,0.42,10.63-1.25
	c0.36-0.51,0.8-0.58,1.3-0.21c-2.38,10.1-4.76,20.21-7.14,30.31c-5.68,4.08-12.17,3.23-18.48,2.76c-2.78-0.21-6.07,0.08-8.09-2.77
	c-1.57-9.87-5.37-19.26-6.42-29.24c4.06-0.98,7.97,1.67,11.24,0.33c-0.14-0.02-1.08,0.12-2.02,0.07
	c-10.26-0.56-9.82-1.13-11.56-8.64c-0.21,1.44,1.78,2.68,0.39,4.22c-1.52,0.5-1.64,1.91-2.11,3.15
	c-7.13,18.99-13.12,38.34-18.7,57.83c-0.6,2.09-0.46,3.83,0.72,5.65c1.41,2.17,3.92,4.84,1.48,7.07c-2.5,2.3-3.84-2.14-6.54-2.5
	c-1.41,3.65-2.82,7.25-0.59,11.22c0.82,1.45,1.58,3.17-0.22,4.46c-1.59,1.14-3.26,0.3-4.69-0.5c-4.81-2.71-7.59-9.51-6.03-16.26
	c6.79-29.43,13.15-58.98,22.5-87.75c3.92-12.06,8.55-15.2,21.15-15.5C131.58,201.43,134.11,202.94,135.1,200.47z"/>
<path class="st0" d="M169.84,303.61c-1.41,20.84-3.82,41.57-6.47,62.29c-1.68,13.15-2.81,26.38-4.16,39.57
	c-0.32,3.18-0.57,6.29,3.12,8.07c0.77,0.37,1.42,2.05,1.29,3.02c-0.17,1.25-1.61,1.2-2.81,1.39c-3.5,0.56-6.9-0.55-10.36-0.38
	c-1.85,0.09-2.66-1.19-3.04-2.73c-0.24-0.95-0.28-1.97-0.28-2.96c0.03-35.79,0.07-71.59,0.11-107.38c0.39-0.3,0.79-0.77,1.25-0.73
	C155.61,304.4,162.72,303.61,169.84,303.61z"/>
<path class="st0" d="M142.15,304.59c0.02,35.79-0.01,71.58,0.13,107.37c0.02,4.34-1.45,6.11-5.82,5.74
	c-2.45-0.21-4.97,0.37-7.43,0.19c-3.01-0.23-4.19-2.63-1.75-4.18c5.07-3.22,2.96-7.71,2.58-11.5c-2.4-24.07-5.19-48.11-7.82-72.16
	c-0.93-8.57-2.3-17.12-1.91-25.79c1.66-1.21,3.48-0.77,5.28-0.52c4.81,0.68,9.59,0.17,14.38-0.26
	C140.72,303.55,141.48,303.97,142.15,304.59z"/>
<path class="st1" d="M140.14,304.5c-6.69,1.7-13.35,0.89-20.01-0.24c-2.68-13.86,0.44-25.87,11.28-35.42
	c8.86,2.27,17.71,2.28,26.57,0.01c11.08,9.15,13.38,21.3,11.86,34.76c-7.44,2.86-15.02,1.82-22.61,0.89c0-3.66,0-7.32,0-10.98
	c1.1-1.74,2.98-1.91,4.72-2.38c-0.03-0.06-0.06-0.12-0.02-0.05c-5.05,1.28-10.01,1.66-14.82-0.37c1.66,1.16,4.67,0.7,5,3.8
	c0.01,0.99,0.01,1.99,0.02,2.98C140.59,299.58,143.01,302.8,140.14,304.5z"/>
<path class="st2" d="M142.11,294.52c-1.83-2.49-5.81-1.92-7.92-5.71c4.09,0.47,6.85,3.18,10.24,2.68c3.22-0.48,6.4-1.15,9.93-1.79
	c-1.84,2.7-4.57,3.12-7.13,3.83C145.24,292.4,143.37,291.92,142.11,294.52z"/>
<path class="st3" d="M123.04,235.58c-0.6-2.33-1.21-4.67-1.81-7c1.48,10.89,9.34,11.67,18.08,11.2c-4.95,0.98-9.65,1.03-14.31-0.19
	C123.92,238.46,123.3,237.11,123.04,235.58z"/>
<path class="st2" d="M140.14,304.5c1.76-2.02-0.01-5.05,1.99-7.01c0.01,2.36,0.01,4.73,0.02,7.09
	C141.48,304.56,140.81,304.53,140.14,304.5z"/>
<path class="st4" d="M135.1,200.47c-0.65,3.34-3.26,1.63-5.08,1.96C131.71,201.78,133.41,201.13,135.1,200.47z"/>
<path class="st5" d="M166.13,234.51c0.05,0.38,0.11,0.77,0.16,1.15c-0.39,0.96-0.78,1.92-1.17,2.88h-0.49l-0.49-0.02l-0.03-0.04
	c0.36-1.32,0.72-2.64,1.07-3.96C165.49,234.1,165.81,234.11,166.13,234.51z"/>
<path class="st6" d="M147.09,213.7c3.37-3.35,7.65-4.11,11.74-5.41c0.14,0.41,0.28,0.82,0.43,1.22
	C155.2,210.9,151.15,212.3,147.09,213.7z"/>
<path class="st7" d="M142.41,213.26c-3.33-0.2-6.32-1.61-9.08-3.87c3.12,0.87,6.24,1.73,9.36,2.6
	C142.59,212.41,142.5,212.84,142.41,213.26z"/>
<path class="st8" d="M164.13,238.53c-4.22,3.73-9.18,1.27-13.82,1.51c4.62-0.33,9.22-0.81,13.79-1.54
	C164.1,238.49,164.13,238.53,164.13,238.53z"/>
<path class="st9" d="M166.13,234.51c-0.32,0-0.64,0.01-0.95,0.02c0.79-2.31,1.57-4.63,2.55-7.51
	C168.51,230.18,167.62,232.41,166.13,234.51z"/>
<path class="st4" d="M158.18,174.42c-0.03,3.19-0.07,7.65-2.79,12.24c-0.96,1.63-5,8.44-10.96,8.22c-4.38-0.16-7.32-4.05-9-6.26
	c-4.23-5.59-4.21-11.82-4.17-14.19c0.04-2.42,0.15-8.29,4.29-13.43c1.58-1.96,4.45-5.52,9.17-5.82c3.63-0.23,7.57,1.51,9.63,4.48
	c0.34,0.48,0.58,0.94,0.91,1.7C158.24,168.05,158.18,174.42,158.18,174.42z"/>
<path class="st4" d="M136.61,185.74"/>
</svg>
