<?xml version="1.0" encoding="UTF-8" standalone="no"?>
<!-- Generator: Adobe Illustrator 23.0.1, SVG Export Plug-In . SVG Version: 6.00 Build 0)  -->

<svg
   xmlns:dc="http://purl.org/dc/elements/1.1/"
   xmlns:cc="http://creativecommons.org/ns#"
   xmlns:rdf="http://www.w3.org/1999/02/22-rdf-syntax-ns#"
   xmlns:svg="http://www.w3.org/2000/svg"
   xmlns="http://www.w3.org/2000/svg"
   xmlns:sodipodi="http://sodipodi.sourceforge.net/DTD/sodipodi-0.dtd"
   xmlns:inkscape="http://www.inkscape.org/namespaces/inkscape"
   version="1.1"
   x="0px"
   y="0px"
   viewBox="0 0 300 500"
   style="enable-background:new 0 0 300 500;"
   xml:space="preserve"
   id="svg840"
   sodipodi:docname="male_pear_tshirtjeans.svg"
   inkscape:version="0.92.3 (2405546, 2018-03-11)"><metadata
   id="metadata846"><rdf:RDF><cc:Work
       rdf:about=""><dc:format>image/svg+xml</dc:format><dc:type
         rdf:resource="http://purl.org/dc/dcmitype/StillImage" /><dc:title></dc:title></cc:Work></rdf:RDF></metadata><defs
   id="defs844" /><sodipodi:namedview
   pagecolor="#ffffff"
   bordercolor="#666666"
   borderopacity="1"
   objecttolerance="10"
   gridtolerance="10"
   guidetolerance="10"
   inkscape:pageopacity="0"
   inkscape:pageshadow="2"
   inkscape:window-width="1920"
   inkscape:window-height="1001"
   id="namedview842"
   showgrid="false"
   inkscape:zoom="1.7375"
   inkscape:cx="150"
   inkscape:cy="286.01536"
   inkscape:window-x="-9"
   inkscape:window-y="-9"
   inkscape:window-maximized="1"
   inkscape:current-layer="svg840" />
<style
   type="text/css"
   id="style815">
	.st0{fill:#03A3B6;}
	.st1{fill:#FBC59F;}
	.st2{fill:#92745E;}
	.st3{opacity:0.14;fill:#422200;enable-background:new    ;}
</style>


<g
   id="Layer_3">
</g>
<path
   style="fill:#4d4d4d;stroke:#000000;stroke-width:1px;stroke-linecap:butt;stroke-linejoin:miter;stroke-opacity:1"
   d="m 118.57882,87.606422 -4.38716,1.880214 -7.52086,2.6323 -5.76599,0.626737 -9.902458,1.378824 -5.389947,2.506952 -5.765989,5.765991 -13.913583,39.23379 33.969198,21.81049 L 105.9,149.8 l 2.2,0.5 -0.4,47.8 85.1,0.6 v -48.3 l 8.13219,16.05006 33.9692,-22.18653 -9.15038,-28.2032 -5.0139,-11.28129 -5.38995,-5.515292 -5.0139,-3.509732 -6.89412,-2.506952 -7.39551,-1.629519 -10.15315,-0.250695 -7.77155,-1.880214 -0.87743,2.6323 -3.38439,3.885775 -3.25904,2.130909 -6.76877,1.504171 -7.01946,0.376039 -6.76877,-0.376039 -8.89968,-1.128128 -7.39551,-2.882995 -3.38438,-0.50139 -4.01113,-1.754867 -4.13647,-3.509732 z"
   id="path852"
   inkscape:connector-curvature="0" /><path
   style="fill:#000080;stroke:#000000;stroke-width:1px;stroke-linecap:butt;stroke-linejoin:miter;stroke-opacity:1"
   d="m 108.1,198.7 -2.80802,1.21786 -5.640644,4.13648 -7.520856,7.77155 -5.139251,7.77155 -1.754866,5.89133 -1.629519,6.01669 0.376043,14.28962 0.877433,29.20599 5.891337,33.84385 9.401073,54.40086 10.90524,55.27829 7.14481,37.98032 30.33412,-1.00279 0.50139,-199.55336 5.64064,1.00278 -3.76043,20.30631 -0.62674,177.99358 30.08342,0.62674 L 183,446.9 l 9.65925,-54.94962 12.40941,-65.18075 11.15594,-70.69604 0.75208,-11.53198 c 0,0 0.12535,-3.63508 0.12535,-4.38717 0,-0.75208 -1.50417,-10.90524 -1.50417,-10.90524 L 211.71208,218.46931 204.19123,207.31337 192.8,198.7 Z"
   id="path854"
   inkscape:connector-curvature="0" /><path
   style="fill:none;stroke:#000000;stroke-width:1px;stroke-linecap:butt;stroke-linejoin:miter;stroke-opacity:1"
   d="m 113.56492,204.68107 -0.62674,2.00556 -1.75487,3.38439 -2.50695,1.62952 c 0,0 -3.63508,1.37882 -4.01112,1.62952 -0.37604,0.25069 -3.00834,0.37604 -3.00834,0.37604 l -3.760431,-0.50139 -5.765989,-1.37882 7.520856,-7.77155 z"
   id="path858"
   inkscape:connector-curvature="0" /><path
   style="fill:none;stroke:#000000;stroke-width:1px;stroke-linecap:butt;stroke-linejoin:miter;stroke-opacity:1"
   d="m 97.896469,213.20471 2.506951,-4.38717 6.14203,1.25348 -2.13091,3.25904 z"
   id="path860"
   inkscape:connector-curvature="0" /><path
   style="fill:none;stroke:#000000;stroke-width:1px;stroke-linecap:butt;stroke-linejoin:miter;stroke-opacity:1"
   d="m 180.75123,206.31059 1.62952,3.50973 3.38438,2.38161 4.26182,0.50139 7.01946,0.62674 4.63787,-0.87744 3.25903,-2.6323 -0.75208,-2.50695 -5.2646,-3.25903 z"
   id="path862"
   inkscape:connector-curvature="0" /><path
   style="fill:none;stroke:#000000;stroke-width:1px;stroke-linecap:butt;stroke-linejoin:miter;stroke-opacity:1"
   d="m 201.68428,212.45262 -3.50974,-3.38438 -4.01112,2.00556 2.88299,2.25626 z"
   id="path864"
   inkscape:connector-curvature="0" /></svg>