<?xml version="1.0" encoding="utf-8"?>
<!-- Generator: Adobe Illustrator 23.0.1, SVG Export Plug-In . SVG Version: 6.00 Build 0)  -->
<svg version="1.1" id="Layer_1" xmlns="http://www.w3.org/2000/svg" xmlns:xlink="http://www.w3.org/1999/xlink" x="0px" y="0px"
	 viewBox="0 0 300 500" style="enable-background:new 0 0 300 500;" xml:space="preserve">
<style type="text/css">
	.st0{fill:#03A3B6;}
	.st1{fill:#FBC59F;}
	.st2{opacity:0.68;fill:#92745E;enable-background:new    ;}
	.st3{fill:#92745E;}
</style>
<path class="st0" d="M191.7,214.4c-28,9.3-56.2,9.5-84.5,0c-15,10.2-24.6,22.9-24.2,39.3c0.2,11.3,1.3,22.5,2,33.8
	c19.7,2.7,39.7,3,59.4-0.2c4.9-2.5,3.4-6.6,3.8-10.2c0.4-3.6-0.2-7.7,5.6-9.3l0,0c0.2,6.6,0.4,13.2,0.6,19.9c1.3,0,2.7,0,3.8,0
	c0-0.1,0-0.2,0.1-0.3c0.1,0.1,0.1,0.2,0.2,0.3c18.4,3.4,37,2.1,55.3,0c0.7-7.3,1.3-14.6,2.2-22C217.9,245.7,212.6,227.7,191.7,214.4
	z"/>
<g>
	<g>
		<path class="st1" d="M279.1,283.2c-18.6-49.3-36.1-98.7-52.4-148.4c-5.2-15.6-12.3-25.6-34.5-27c-9.2-0.5-11.7-0.9-15.5-3.2
			c-4.7-2.7-6.5-6.7-8.7-12.2c-1.3-3-2.2-6-2.7-8.5c-0.2,0.2-0.7,0.2-0.9,0.4c-9.9,5.4-19.3,5.4-28.7,0c0,0.4-0.2,0.7-0.2,1.1
			c-3.4,14-22.4,22.3-31.8,23.4c-0.4,0-1.6,0.4-3.4,0.4c-14.6,0.7-21.1,8-24.2,18.8c-4.3,14.6-9.6,28.8-14.8,43.3
			C47.9,209.6,34.9,248,20.5,286.1c-5.6,15.1,2.2,26.1,12.3,37.1c2.5,2.5,5.4,4.1,9.6,2.1c3.8-1.8,3.4-4.6,1.6-7.1
			c-5.2-6.9-2.2-13.1,0.7-19.8c1.8-3.9,3.8-4.5,8.3-2.7c3.8,1.4,8.5,4.8,11.7,0.4c2.9-3.8-1.6-6.9-5.2-9c-6.3-3.8-6.1-7.6-3.4-13.1
			c11.2-23.4,21.7-47.2,32.5-70.8c5.8-12.4,11.7-24.7,17.5-37.1c0.7,0.2,1.3,0.4,2.2,0.5V215c0.7,1.1,1.8,2,3.1,2.5
			c26.2,10.3,52.7,9,78.9,0.2c1.3-0.5,2-1.6,2.7-2.7v-48.3c17.7,33.3,32.9,66.9,48.4,100.2c4,8.5,9.6,16.5-3.4,23.4
			c-2.5,1.3-3.1,4.3-0.9,6.5c2,2,5.2,1.6,7.2,0.4c9.2-5,11.4-0.9,13.9,5.4c1.8,5.2,1.8,9.9-0.7,14.7c-1.8,3.2-2.7,6.7,2.2,8.5
			c4.3,1.6,7.2-1.1,9.2-3.4C278.4,310.7,284.9,299,279.1,283.2z"/>
		<path class="st1" d="M148.9,300.6c0-3.8,0.2-7.8-2.5-11.4c-3.1-2.9-7.4-2-11.4-1.8c-12.3,0.7-24.6,0.4-37,0.2
			c-4.5-0.2-9-1.6-13,1.1c2.7,17.4,5.4,34.9,8.5,52.2c7.8,42.4,15.9,84.8,24,127.2c1.6,8,4.3,16.2-10.5,18.1
			c-0.7,0.2-1.1,0.7-1.8,1.1c-1.8,1.3-4.9,2.1-4.3,4.6c0.9,2.7,4,2.3,6.5,2.3c6.9,0,14.1,0,21.1,0c15.9-0.2,15.9-0.2,16.8-12.8
			c4.3-3.4,3.6-7.8,3.6-11.9C148.9,413.3,148.9,357,148.9,300.6z"/>
		<path class="st1" d="M183.2,463.2c9.4-58.2,22.6-116.2,30.9-174.6c-2.5-2-5.4-1.6-8.3-1.6c-16.1,1.1-32,0.7-48-0.2
			c-2.2,0.4-4.3,0.9-5.4,2.7c-2,3.4-2,7.1-2,10.6c0,56.4,0,112.8,0,169.1c0.2,4.1-0.2,8.3,3.6,11.9c0.4,12.8,0.4,12.6,16.8,12.8
			c6.1,0.2,12.1,0.7,17.9,0.5c3.1,0,7.8,0.5,9-2.1c1.6-3.6-3.1-6.2-6.1-6.5c-14.6-2-11.4-9.9-9.9-17.4
			C182.1,466.6,183,465,183.2,463.2z"/>
	</g>
</g>
<g>
	<g>
		<path class="st1" d="M177.8,41.6c0.4,4.8,0.6,7.3,0.6,10.5c-0.1,4.9-0.8,8.9-1.3,11.8c-0.5,2.8-1.4,6.5-3.6,10.7
			c-1.5,2.9-3.2,5.3-4.7,7.1c-1.4,1.5-6,6.3-12,7.1c-0.9,0.1-2.7,0.2-4.6,0.2c0,0-3.6-0.1-6.8-1c-5.5-1.5-9.3-5.8-11.3-7.9
			c-5.4-5.6-7.2-11.5-8.5-15.5c-1.5-5-1.6-9.2-1.9-17.4c-0.2-6.7-0.2-10,0.8-14.5c0.9-4.1,2-8.6,5.6-12.9c0.8-1,8.6-10,20.9-9.7
			c8,0.2,13.6,4.1,15.7,5.7c1,0.8,6.4,4.9,9.1,12C176.6,30.1,177.1,33.9,177.8,41.6z"/>
		<path class="st2" d="M167.7,90.8c0,0.3,0,0.5,0,0.8c-2.5,1.6-6.5,3.7-11.8,4.4c-1.8,0.2-3.4,0.3-4.8,0.2c0,0-3.8-0.1-7.1-1
			c-5.8-1.5-6.6-2.4-8.8-4.5c-0.2-0.2,0.2,0.2,0,0c0.3-0.8,0.8-2-2.6-6.7c0.3-1,0.6-2.4,0.6-4.1c2.1,1.3,8.8,5.1,18.3,4.8
			c9.3-0.3,15.6-4.5,17.5-5.9C169.4,81.9,167.2,88.9,167.7,90.8z"/>
	</g>
	<path class="st1" d="M176.9,46.6c0.4,4.8,0.6,7.3,0.6,10.5c-0.1,4.9-0.8,8.9-1.3,11.8c-0.5,2.8-1.4,6.5-3.6,10.7
		c-1.5,2.9-3.2,5.3-4.7,7.1c-0.2,0.2-0.5,0.6-0.9,0.9c-2,2-6,5.5-11,6.1c-0.9,0.1-2.7,0.2-4.6,0.2c0,0-3.6-0.1-6.8-1
		c-5.5-1.5-9.3-5.8-11.3-7.9c-5.4-5.6-7.2-11.5-8.5-15.5c-1.5-5-1.6-9.2-1.9-17.4c-0.2-6.7-0.2-10,0.8-14.5c0.9-4.1,2-8.6,5.6-12.9
		c0.8-1,8.6-10,20.9-9.7c8,0.2,13.6,4.1,15.7,5.7c1,0.8,6.4,4.9,9.1,12C175.8,35.1,176.1,38.9,176.9,46.6z"/>
</g>
<path class="st3" d="M171.8,86"/>
</svg>
