<?xml version="1.0" encoding="utf-8"?>
<!-- Generator: Adobe Illustrator 23.0.1, SVG Export Plug-In . SVG Version: 6.00 Build 0)  -->
<svg version="1.1" id="Layer_1" xmlns="http://www.w3.org/2000/svg" xmlns:xlink="http://www.w3.org/1999/xlink" x="0px" y="0px"
	 viewBox="0 0 300 500" style="enable-background:new 0 0 300 500;" xml:space="preserve">
<style type="text/css">
	.st0{fill:#03A1B5;}
	.st1{fill:#FBC59F;}
	.st2{fill:#FAD2B4;}
	.st3{opacity:0.68;fill:#92745E;}
</style>
<path class="st0" d="M147.9,291.5c2.8-3.7-0.1-9.1,3-12.6c0.1,4.2,0.1,8.5,0.2,12.7C150.1,291.6,149,291.6,147.9,291.5z"/>
<g>
	<path class="st1" d="M195.6,289.4c-1.8,37.4-5.2,74.7-9,111.9c-2.4,23.6-3.9,47.4-5.8,71.1c-0.4,5.7-0.8,11.3,5.2,14.4
		c1.2,0.6,2.3,3.6,2.1,5.4c-0.2,2.2-2.6,2.2-4.5,2.6c-5.6,1.1-11.1-0.8-16.7-0.5c-3,0.2-4.3-2.1-4.9-4.8c-0.4-1.7-0.5-3.5-0.5-5.3
		c-0.8-64.2-1.5-128.4-2.2-192.6c0.6-0.5,1.3-1.4,2-1.3C172.8,291.1,184.2,289.5,195.6,289.4z"/>
	<path class="st1" d="M151.1,291.7c0.8,64.2,1.6,128.4,2.6,192.6c0.1,7.8-2.2,11-9.2,10.4c-3.9-0.3-8,0.8-11.9,0.5
		c-4.8-0.4-6.8-4.6-2.9-7.5c8.1-5.9,4.6-13.9,3.9-20.7c-4.4-43.1-9.4-86.2-14.2-129.3c-1.7-15.4-4.1-30.7-3.6-46.2
		c2.6-2.2,5.6-1.5,8.5-1c7.7,1.1,15.4,0.1,23.1-0.8C148.8,289.8,150.1,290.6,151.1,291.7z"/>
	<path class="st0" d="M175.8,227.2c-14.2,4.3-28.4,4.4-42.7,0.5c-17.2,17.4-22,39-17.3,63.8c10.7,1.9,21.5,3.2,32.2,0
		c4.6-3.1,0.6-8.8,3-12.6c0-1.8-0.1-3.6-0.1-5.3c0,0,0,0,0,0c2-4.7,5-3.9,8.2-1.9h0c0.1,6.6,0.2,13.1,0.2,19.7
		c12.2,1.5,24.4,3.2,36.3-2.1C197.8,265.2,193.8,243.4,175.8,227.2z"/>
	<path class="st1" d="M248.6,290c-11.5-52.1-22.5-104.3-37.7-155.4c-4.6-15.6-12.4-24.5-26.8-26.3c-2.1-0.3-4.3-0.6-6.4-0.4
		c-6.9,0.6-9.1-3.9-9.5-10.5c-0.1-1.8-0.2-3.6-0.3-5.4c-0.9-5.2-2.6-8.4-7.7-3.9c-3.8,3.3-7.9,4.1-12.7,1.6
		c-8.7-4.6-8.8-4.3-9.3,6.6c0,0.6-0.3,1.1-0.7,1.6c0,2.4,0,4.8,0,7.1c-1.5,4.5-5.6,1.8-8.1,3.7c-20.2,0.8-27.6,6.5-33.6,28.2
		c-14.4,51.8-23.9,104.9-34.2,157.9c-2.4,12.1,2.3,24.3,10.1,29c2.3,1.4,5,2.9,7.5,0.8c2.9-2.4,1.6-5.4,0.3-8
		c-3.7-7.1-1.5-13.6,0.7-20.1c4.3,0.6,6.6,8.5,10.6,4.4c3.9-4-0.2-8.8-2.5-12.7c-1.9-3.2-2.2-6.4-1.3-10.1
		c8.5-35.1,17.7-69.9,28.8-104.1c0.7-2.2,0.9-4.8,3.3-5.7c0.5,2.7,1.5,5.1,3.2,7.2c0,0,0,0,0,0c0,0,0,0,0,0
		c1.9,17.9,8.2,34.7,11,52.3c3.3,5.1,8.6,4.5,13.1,4.8c10.2,0.7,20.6,2.1,29.6-5.3c3.6-18.2,7.2-36.4,10.8-54.5l0,0
		c0.6-1.7,1.2-3.5,1.8-5.2c0,0,0,0,0,0c0,0,0,0,0,0c2.1-0.1,2.6,1.4,3.1,3.2c8.4,26.5,18,52.5,24.6,79.6
		c3.5,14.5,13.2,28.8,2.7,44.5c-0.9,1.3-0.3,3.6,1.1,4.9c1.6,1.4,3.4,0.5,4.4-0.7c7.7-9.4,7.4-0.1,8.7,4.7c0.9,3.2,0.4,6.4-1,9.6
		c-1.2,2.9-3.5,6.6-0.2,8.8c3.1,2.1,6.5,0.7,9.6-2C250.9,312.1,251,300.9,248.6,290z M119.7,167.4c-0.1-0.1-0.1-0.2-0.2-0.3
		c0-0.1,0-0.1,0.1-0.2C119.6,167.1,119.7,167.3,119.7,167.4z M118.2,160.7c0.2,0.9,0.4,1.7,0.5,2.5
		C118.4,162.4,118.1,161.6,118.2,160.7z M184.8,172.7C184.8,172.7,184.8,172.7,184.8,172.7c0-0.1,0.1-0.2,0.2-0.3c0,0.1,0,0.1,0,0.2
		C184.9,172.6,184.9,172.6,184.8,172.7z"/>
	<path class="st2" d="M139.6,78.6"/>
	<path class="st3" d="M167.9,89.4L167.9,89.4c-0.5,0.9-1.1,1.7-1.6,2.4c-1.2,1.4-4.9,5.8-9.7,6.5c-0.8,0.1-2.2,0.2-3.8,0.2
		c0,0-3-0.1-5.6-0.9c-4.5-1.4-7.6-5.3-9.3-7.2c-0.1-0.2-0.3-0.3-0.4-0.5c0.3-0.7,0.6-1.5,0.8-2.5c0.2-0.9,0.4-2.2,0.5-3.8
		c1.6,1.2,6.8,4.7,14.3,4.4c7.3-0.3,12.1-4.1,13.7-5.4C167,85.3,167.5,87.6,167.9,89.4z"/>
	<path class="st1" d="M178,53c0.4,4.4,0.6,6.7,0.6,9.6c-0.1,4.5-0.8,8.2-1.3,10.8c-0.5,2.6-1.4,6-3.5,9.8c-1.5,2.7-3.1,4.9-4.6,6.5
		c-1.4,1.4-5.8,5.8-11.6,6.5c-0.9,0.1-2.6,0.2-4.5,0.2c0,0-3.5-0.1-6.6-0.9c-5.3-1.4-9-5.3-11-7.2c-5.2-5.1-7-10.5-8.2-14.2
		c-1.5-4.6-1.6-8.4-1.8-16c-0.2-6.1-0.2-9.2,0.8-13.3c0.9-3.8,1.9-7.9,5.4-11.8c0.8-0.9,8.3-9.2,20.3-8.9c7.8,0.2,13.2,3.8,15.2,5.2
		c1,0.7,6.2,4.5,8.8,11C177,42.4,177.4,45.9,178,53z"/>
</g>
</svg>
