<?xml version="1.0" encoding="utf-8"?>
<!-- Generator: Adobe Illustrator 23.0.1, SVG Export Plug-In . SVG Version: 6.00 Build 0)  -->
<svg version="1.1" id="Layer_1" xmlns="http://www.w3.org/2000/svg" xmlns:xlink="http://www.w3.org/1999/xlink" x="0px" y="0px"
	 viewBox="0 0 288 560" style="enable-background:new 0 0 288 560;" xml:space="preserve">
<style type="text/css">
	.st0{fill:#FBC59F;}
	.st1{fill:#00A9C0;}
	.st2{fill:#FBD2B4;}
	.st3{fill:#FBFDFB;}
	.st4{fill:#E2A987;}
	.st5{fill:#E3AA87;}
	.st6{fill:#E3A987;}
	.st7{fill:#E5AC89;}
	.st8{fill:#D89F7D;}
	.st9{fill:#EFB792;}
	.st10{fill:#03A3B6;}
</style>
<path class="st0" d="M201.82,300.53c-8.26-27.35-16.09-54.84-23.44-82.44c-2.31-8.66-5.49-14.22-15.44-15.01
	c-4.06-0.32-5.16-0.5-6.94-1.81c-2.06-1.52-2.85-3.73-3.93-6.79c-0.6-1.7-0.98-3.28-1.23-4.66c-0.13,0.06-0.26,0.13-0.39,0.22
	c-4.43,2.96-8.56,3.01-12.84-0.04c-0.03,0.21-0.06,0.4-0.09,0.56c-1.46,7.76-10.04,12.4-14.24,13.01c-0.24,0.03-0.73,0.19-1.48,0.24
	c-6.5,0.45-9.41,4.36-10.83,10.38c-1.91,8.07-4.35,16.01-6.61,23.99c-6.02,21.25-11.84,42.56-18.23,63.69
	c-2.54,8.4,1.03,14.48,5.52,20.62c1.05,1.44,2.41,2.33,4.27,1.17c1.69-1.05,1.51-2.63,0.71-3.92c-2.33-3.79-0.96-7.3,0.29-10.98
	c0.75-2.22,1.72-2.46,3.66-1.51c1.66,0.82,3.75,2.69,5.2,0.2c1.25-2.15-0.73-3.84-2.29-4.97c-2.85-2.08-2.67-4.17-1.48-7.25
	c5.02-13.02,9.69-26.18,14.52-39.27c2.55-6.88,5.17-13.73,7.76-20.6c0.32,0.09,0.64,0.17,0.96,0.26v26.93
	c0.35,0.57,0.76,1.12,1.37,1.41c11.71,5.68,23.45,4.99,35.2,0.13c0.64-0.27,0.95-0.91,1.17-1.55V235.7
	c7.95,18.47,14.69,37.05,21.61,55.56c1.77,4.73,4.26,9.2-1.52,13.02c-1.11,0.73-1.37,2.38-0.39,3.6c0.87,1.08,2.26,0.89,3.2,0.24
	c4.05-2.83,5.12-0.54,6.17,3.05c0.84,2.89,0.83,5.48-0.34,8.19c-0.77,1.77-1.24,3.69,0.97,4.74c1.93,0.93,3.2-0.61,4.15-1.91
	C201.58,315.71,204.45,309.23,201.82,300.53z"/>
<path class="st0" d="M142.15,410.52c-0.38,7.03-0.38,7.04-7.49,7.1c-3.14,0.02-6.28,0.04-9.42-0.01c-1.11-0.02-2.54,0.24-2.87-1.29
	c-0.32-1.44,1.09-1.88,1.93-2.61c0.25-0.22,0.52-0.52,0.81-0.56c6.64-0.97,5.38-5.63,4.71-10.02c-3.57-23.54-7.19-47.08-10.67-70.63
	c-1.43-9.64-2.56-19.33-3.83-28.99c1.78-1.49,3.81-0.69,5.76-0.64c5.49,0.14,10.98,0.27,16.46-0.14c1.8-0.14,3.68-0.57,5.14,1.05
	c1.17,1.97,1.07,4.16,1.07,6.31c0.03,31.28,0.04,62.56-0.01,93.83C143.73,406.21,144.01,408.64,142.15,410.52z"/>
<path class="st0" d="M172.84,303.59c-3.72,32.43-9.58,64.55-13.83,96.9c-0.13,0.98-0.48,1.93-0.65,2.91
	c-0.72,4.22-2.11,8.64,4.45,9.7c1.34,0.22,3.38,1.65,2.74,3.57c-0.52,1.55-2.63,1.16-4.01,1.22c-2.64,0.12-5.3-0.23-7.96-0.25
	c-7.26-0.07-7.26-0.04-7.53-7.13c-1.68-1.95-1.54-4.33-1.55-6.65c-0.03-31.32-0.03-62.63,0-93.95c0-1.99-0.03-4.01,0.89-5.87
	c0.5-0.95,1.38-1.29,2.37-1.45c7.11,0.48,14.23,0.68,21.35,0.14C170.44,302.63,171.78,302.49,172.84,303.59z"/>
<path class="st1" d="M172.84,303.59c-8.24,1.17-16.49,1.85-24.72-0.04c-2.83-6.61-1.76-11.18,3.7-13.76
	c-2.24,1.19-4.27,1.44-5.82,2.71c-2.59,0.91-2.29,3.17-2.5,5.23c-0.2,2,0.49,4.28-1.66,5.72c-8.83,1.75-17.67,1.61-26.5,0.06
	c-0.33-6.31-0.81-12.62-0.95-18.93c-0.21-9.17,4.05-16.26,10.85-22.04c12.58,5.3,25.16,5.2,37.74-0.01
	c9.31,7.43,11.7,17.47,10.85,28.74C173.49,295.38,173.16,299.48,172.84,303.59z"/>
<path class="st2" d="M144.47,155.84c-6.47,0-11.82,7.14-12.78,16.49c0.51,5.8,0.79,12.78,4.4,17.53c0.1,0.13,0.16,0.26,0.2,0.38
	c0.05,0.05,0.09,0.1,0.13,0.15c0.18,0.16,0.32,0.37,0.41,0.64v0.04c2.15,2.37,4.79,3.8,7.64,3.8c2.99,0,5.74-1.53,7.94-4.09
	c0.01,0,0.02,0.01,0.03,0.01c0.14-0.27,0.35-0.53,0.51-0.74c2.77-5.92,4.06-11.98,4.21-18.53
	C155.98,162.58,150.76,155.84,144.47,155.84z"/>
<path class="st3" d="M141.82,303.45c0.03-2.66,0.34-5.35,0.04-7.97c-0.41-3.53,1.31-4.28,4.25-3.97c1.77,3.98,1.23,8,0.28,12.04
	c-0.08,16.99-0.18,33.98-0.24,50.98c-0.06,18.66-0.07,37.32-0.1,55.99c-1.3-0.1-2.6,2.37-3.9,0.01
	c-0.03-33.54-0.06-67.08-0.11-100.61C142.05,307.75,141.9,305.6,141.82,303.45z"/>
<path class="st4" d="M163.13,226.51c-0.27,2.26,0.47,4.53-0.78,6.79c-3.73,6.75-5.23,7.36-16.72,5.69
	c4.63-1.35,9.96,1.27,13.02-2.78c2.43-3.24,3.36-7.47,3.49-11.68C164.01,224.42,163.72,225.4,163.13,226.51z"/>
<path class="st5" d="M133.14,239.48c-6.68-1.07-8.7-4.95-7.62-15.48c1.55,5.79,1.12,12.06,7.61,14.49c0.35,0.22,0.46,0.44,0.35,0.66
	C133.37,239.37,133.25,239.48,133.14,239.48z"/>
<path class="st6" d="M145.31,213.14c3.09-3.82,7.86-3.04,11.88-4.31C153.91,212.1,149.2,211.5,145.31,213.14z"/>
<path class="st7" d="M142.88,213.32c-3.77-1.76-8.32-1.33-11.62-4.38C135.08,210.55,139.94,209.27,142.88,213.32z"/>
<path class="st8" d="M133.14,239.48c-0.01-0.33-0.01-0.66-0.01-1c2.94,0,5.87,0,8.81,0c0.01,0.33,0.01,0.66,0.02,1
	C139.01,239.48,136.07,239.48,133.14,239.48z"/>
<path class="st9" d="M163.13,226.51c-0.05-0.8-0.19-1.56-0.99-1.98c0.27-0.75-0.4-2.64,0.89-2.05
	C164.75,223.26,164.5,225.11,163.13,226.51z"/>
<path class="st10" d="M146.39,303.55c-0.09-4.01-0.19-8.03-0.28-12.04c2.01-1.58,4.29-2.17,8.23-1.79
	c-9.24,2.42-5.4,8.94-6.23,13.83C147.54,303.55,146.96,303.55,146.39,303.55z"/>
</svg>
