<?xml version="1.0" encoding="UTF-8" standalone="no"?>
<!-- Generator: Adobe Illustrator 23.0.1, SVG Export Plug-In . SVG Version: 6.00 Build 0)  -->

<svg
   xmlns:dc="http://purl.org/dc/elements/1.1/"
   xmlns:cc="http://creativecommons.org/ns#"
   xmlns:rdf="http://www.w3.org/1999/02/22-rdf-syntax-ns#"
   xmlns:svg="http://www.w3.org/2000/svg"
   xmlns="http://www.w3.org/2000/svg"
   xmlns:sodipodi="http://sodipodi.sourceforge.net/DTD/sodipodi-0.dtd"
   xmlns:inkscape="http://www.inkscape.org/namespaces/inkscape"
   version="1.1"
   id="Layer_1"
   x="0px"
   y="0px"
   viewBox="0 0 300 500"
   style="enable-background:new 0 0 300 500;"
   xml:space="preserve"
   sodipodi:docname="male_hourglass_suit.svg"
   inkscape:version="0.92.3 (2405546, 2018-03-11)"><metadata
   id="metadata848"><rdf:RDF><cc:Work
       rdf:about=""><dc:format>image/svg+xml</dc:format><dc:type
         rdf:resource="http://purl.org/dc/dcmitype/StillImage" /><dc:title></dc:title></cc:Work></rdf:RDF></metadata><defs
   id="defs846" /><sodipodi:namedview
   pagecolor="#ffffff"
   bordercolor="#666666"
   borderopacity="1"
   objecttolerance="10"
   gridtolerance="10"
   guidetolerance="10"
   inkscape:pageopacity="0"
   inkscape:pageshadow="2"
   inkscape:window-width="1920"
   inkscape:window-height="1001"
   id="namedview844"
   showgrid="false"
   inkscape:zoom="8.5465822"
   inkscape:cx="148.05807"
   inkscape:cy="437.90051"
   inkscape:window-x="-9"
   inkscape:window-y="-9"
   inkscape:window-maximized="1"
   inkscape:current-layer="g841" />
<style
   type="text/css"
   id="style815">
	.st0{fill:#03A1B5;}
	.st1{fill:#FAD2B4;}
	.st2{fill:#FBC59F;}
	.st3{opacity:0.14;fill:#422200;enable-background:new    ;}
</style>
<g
   id="g841">
	
	
</g>
<path
   style="fill:#000000;stroke:#000000;stroke-width:1px;stroke-linecap:butt;stroke-linejoin:miter;stroke-opacity:1"
   d="M 130.9954,91.734409 124.8,92.7 l -3.58342,0.664211 -10.38999,1.018627 -6.31549,2.240979 -7.130385,6.315483 -6.11176,10.59372 -10.593718,40.54134 -9.575092,43.3935 24.650767,10.18627 L 113.7,154.8 l 3.4,7.5 2.28305,13.57298 2.24098,9.37136 L 128.6,216.3 l 2.3954,21.91293 z"
   id="path850"
   inkscape:connector-curvature="0" /><path
   style="fill:#000000;stroke:#000000;stroke-width:1px;stroke-linecap:butt;stroke-linejoin:miter;stroke-opacity:1"
   d="m 170.51811,91.123233 2.44471,0.611176 9.57509,0.203725 7.13039,1.426077 9.98254,6.722939 6.72293,7.13038 3.87079,8.35274 7.33411,26.28057 14.66822,54.39467 -24.65076,10.59372 L 187.6,154.1 l -13.4,62.1 -4.49679,22.21666 z"
   id="path852"
   inkscape:connector-curvature="0" /><path
   style="fill:#ffffff;stroke:#000000;stroke-width:1px;stroke-linecap:butt;stroke-linejoin:miter;stroke-opacity:1"
   d="m 130.9954,91.734409 14.66822,14.464501 12.0198,0.20372 12.83469,-15.279397 -0.8149,152.590287 -38.70781,-0.20373 z"
   id="path854"
   inkscape:connector-curvature="0" /><path
   style="fill:#2ca089;stroke:#000000;stroke-width:1px;stroke-linecap:butt;stroke-linejoin:miter;stroke-opacity:1"
   d="m 145.66362,106.19891 -2.85215,4.48196 5.09313,3.87078 h 7.13039 l 4.88941,-3.66706 -2.24098,-4.48196 z"
   id="path856"
   inkscape:connector-curvature="0" /><path
   style="fill:none;stroke:#000000;stroke-width:1px;stroke-linecap:butt;stroke-linejoin:miter;stroke-opacity:1"
   d="M 142.81147,110.68087 130.75002,99.952485 Z"
   id="path858"
   inkscape:connector-curvature="0" /><path
   style="fill:none;stroke:#000000;stroke-width:1px;stroke-linecap:butt;stroke-linejoin:miter;stroke-opacity:1"
   d="m 159.9244,110.88459 10.00308,-9.69592 z"
   id="path860"
   inkscape:connector-curvature="0" /><path
   style="fill:#2ca089;stroke:#000000;stroke-width:1px;stroke-linecap:butt;stroke-linejoin:miter;stroke-opacity:1"
   d="m 147.9046,114.55165 0.15197,32.70857 3.32818,3.70855 3.56591,-3.61346 0.0843,-32.80366 z"
   id="path862"
   inkscape:connector-curvature="0" /><path
   style="fill:#000000;stroke:#000000;stroke-width:1px;stroke-linecap:butt;stroke-linejoin:miter;stroke-opacity:1"
   d="M 128.03993,216.81923 174.2,216.2 l 0.67221,0.3815 1.99691,1.80673 2.615,2.94782 2.47236,2.75764 3.51837,4.94472 2.75763,4.94473 2.42482,5.42018 2.615,7.84501 1.569,9.12872 0.76073,9.27137 -0.19018,9.55664 -0.80828,15.11945 -0.85581,12.1241 -2.47237,33.75727 -2.71009,30.33401 -2.90027,28.90764 -2.32973,23.48746 -1.42636,19.20836 -0.80828,9.60419 -1.61654,21.53809 -0.33282,6.22846 -20.58719,0.0951 -2.12513,-198.71304 0.0951,-10.84137 -8.84427,-0.0951 0.7906,56.07445 0.81904,65.52327 0.70203,55.92879 0.46803,33.81469 -19.891,-0.70204 -1.05305,-6.90334 -5.73328,-50.78053 -6.20131,-56.27981 -5.8503,-52.76963 -3.04215,-35.68678 -0.35102,-12.05161 0.81905,-10.53052 4.56322,-14.50872 4.91425,-9.00945 z"
   id="path864"
   inkscape:connector-curvature="0" /></svg>