<?xml version="1.0" encoding="utf-8"?>
<!-- Generator: Adobe Illustrator 23.0.1, SVG Export Plug-In . SVG Version: 6.00 Build 0)  -->
<svg version="1.1" id="Layer_1" xmlns="http://www.w3.org/2000/svg" xmlns:xlink="http://www.w3.org/1999/xlink" x="0px" y="0px"
	 viewBox="0 0 612 792" style="enable-background:new 0 0 612 792;" xml:space="preserve">
<style type="text/css">
	.st0{fill:#FCC6A0;}
	.st1{fill:#00A9C0;}
	.st2{fill:#FEFDF4;}
	.st3{fill:#DEA584;}
	.st4{fill:#DDA382;}
	.st5{fill:#DDA582;}
	.st6{fill:#E4AB88;}
	.st7{fill:#E4AA87;}
	.st8{fill:#FBBF9A;}
	.st9{fill:#FCC39D;}
	.st10{fill:#FDC796;}
	.st11{fill:#089FB4;}
	.st12{fill:#FAD2B5;}
</style>
<path class="st0" d="M308,135.3c0.9,5.5,1.4,8.3,3,9.8c1.9,1.8,3.4,0.6,9.4,1.5c7.4,1.1,12.7,4.2,16.1,11.5
	c11.9,25.2,20.6,51.1,22.9,79c0.4,5.1,0.6,10.3,0.8,15.4c0.4,7.6-4.1,11.1-10.2,14.5c-1.5,0.8-3.4,1.3-4.5-0.5
	c-0.9-1.5-0.7-3.5,0.9-4.5c3.1-2,2.6-4.4,1.8-7.3c-0.9-3.2-1.7-5.1-5.1-2.2c-1.3,1.1-2.8,1.3-3.9-0.3c-1.2-1.6-0.3-3.2,0.8-3.9
	c5.8-3.5,3.9-8,2.4-12.9c-3.3-10.6-6.1-21.3-10.1-31.8c0.2,3.3,0.4,6.7,0.5,10c-1.4,1.4-3.3,1.5-5,1.8c-18.9,3.3-37.9,3.4-56.8,0.1
	c-1.9-0.3-4-0.4-5.5-2c-0.3-3.3,1.2-6.6,0.3-9.9c-2,1-1.5,3.1-2,4.7c-3.1,10.3-5.9,20.8-9.2,31c-1,3.2-0.5,5.2,2,7.3
	c1.6,1.4,4.4,2.9,2.3,5.7c-1.8,2.3-3.6,0.3-5.2-0.7c-1.2-0.7-2.3-1.2-2.7,0.5c-0.7,3.3-3.9,6.7,0.7,9.7c1.5,1,2,2.7,1.1,4.4
	c-1.1,1.9-2.7,1.3-4.4,0.6c-6.2-2.3-9.9-7.3-10.2-13.9c-0.5-9.4,0.9-18.6,2.2-27.8c3.3-23.6,11.6-45.6,21.5-67.1
	c3.5-7.7,9.4-10.7,17.1-11.4c2.5-0.2,4.9-1.2,7.3-1.6c0.7-0.1,1-0.2,1.4-0.4c1-0.6,1.9-1.9,2.5-8.4c0.3-3.1,0.2-4.6,0.8-4.7
	c0.7-0.2,1.1,1.9,3.3,3.6c0.5,0.4,2.3,1.8,5,1.8c0.6,0,3.1-0.1,5-1.8c1.9-1.8,2-4.1,2.7-4C307.4,131.2,307.6,133.2,308,135.3z"/>
<path class="st0" d="M331,247.2c0.3,11.2-1.7,22.2-3,33.2c-2,17.1-3.6,34.3-7.9,51.1c-1.4,5.5-3,10.9-4.8,16.3
	c-1.4,4-1.4,7.4,2.5,10c1,0.7,2.5,1.7,1.7,3.2c-0.6,1.2-2.2,1.4-3.5,1.4c-2.8,0-5.7-0.3-8.5,0.1c-5.1,0.7-6.3-1.8-6.3-6.3
	c0.1-27.5,0-55,0.1-82.5c0-8,0-16,0.1-24c1-0.7,2.1-1.1,3.2-1.2c7.9-0.4,15.9-0.8,23.7-2.1C329.2,246.2,330.2,246.5,331,247.2z"/>
<path class="st0" d="M296.9,249.6c0,35.7,0,71.5,0.2,107.2c0,4.3-1.6,6.1-5.9,5.6c-2.8-0.3-5.6,0-8.5-0.1c-1.3,0-2.9,0.4-3.4-1.3
	c-0.5-1.7,0.4-2.9,1.9-3.6c0.4,0.4,0.9,0.4,1.4,0.5c-0.4-0.2-1-0.1-1.4-0.5c3.2-2.8,3.1-6.1,1.8-9.9c-7.9-22.5-10.3-46.1-13-69.6
	c-1.2-10.4-2.8-20.7-2.9-31.1c1.1-1,2.5-0.8,3.8-0.6c6.4,1.1,12.8,1.9,19.4,1.9c2.2,0,4.4,0.3,5.3,2.9c0.1,33.9,0,67.9,0.1,101.8
	c0-33.7,0-67.4,0-101.1C295.7,250.7,295.5,249.7,296.9,249.6z"/>
<path class="st1" d="M296.9,249.6c-0.3,0.3-0.6,0.5-0.9,0.8c-0.3,0.7-0.6,0.7-0.9,0.1c-9.3-1.5-18.9-0.8-28-3.6
	c-1.8-11.1-1.5-22.2-1.6-33.4c5.3,0.6,10.5,1.2,15.8,1.9c15.8,2.1,31.5,1,47.1-1.6c1.5-0.2,3-0.1,4.5-0.2
	c-0.3,9.4-0.5,18.8-0.9,28.2c-0.1,1.8-0.6,3.6-0.9,5.3c-9.8,1.8-19.7,3.1-29.7,2.5c0-3.6,0-7.3,0-10.9c0-1.8-0.4-2.7-2.5-2.7
	c-2,0-2,1.3-2,2.6C296.9,242.3,296.9,246,296.9,249.6z"/>
<path class="st2" d="M298.3,353.2c0-33.8,0-67.5,0-101.3c0.2,0,0.3,0,0.5,0c0,33.8,0,67.7,0,101.5
	C298.6,353.3,298.4,353.2,298.3,353.2z"/>
<path class="st3" d="M265.3,199.3c1.9-9.1,0.2-18.4,1-27.7c1.5,1,0.8,2.3,0.8,3.4c0.1,8.6,1.1,9.6,9.9,10.5c6,0.6,12,1.8,19-0.4
	c-2.7,2.3-2.7,2.4-4.1,2.4c-7.3,0.1-14.6,0.3-21.7-1.9c-2.5-0.8-3.2,0-3.1,2.5C267.2,191.9,267.4,195.7,265.3,199.3z"/>
<path class="st4" d="M329.1,184.5c-8.5,4.2-17.4,3.1-26.2,1.9C311.8,188,320.4,185,329.1,184.5L329.1,184.5z"/>
<path class="st5" d="M329.1,184.5c3.5-3.8,1.3-8.5,2.5-12.8c1,9.1-0.4,18.4,1.3,27.5c-2.2-3.2-1.7-6.8-1.9-10.3
	C331,187.2,331.9,185,329.1,184.5L329.1,184.5z"/>
<path class="st6" d="M297.5,161.2c-5.3-3.8-11.7-4.4-17.5-7C286.2,153.6,297.1,157.9,297.5,161.2z"/>
<path class="st7" d="M319.1,153.5c-6.3,3.6-13,3.6-18,7.5C300.8,158.1,307.5,155.2,319.1,153.5z"/>
<path class="st8" d="M303,252.8c0,33.4,0,66.9,0,100.3c-0.2,0-0.3,0-0.5,0c0-33.5,0-67,0-100.5C302.7,252.7,302.8,252.8,303,252.8z"
	/>
<path class="st9" d="M295.1,250.4c0.3-0.2,0.6-0.2,0.9-0.1c0,35.8,0,71.6,0,107.4c-0.3,0-0.6,0-0.9,0
	C295.1,322,295.1,286.2,295.1,250.4z"/>
<path class="st10" d="M291,259.8c0,31.1,0,62.2,0,93.3c-0.2,0-0.3,0-0.5,0c0-31.2,0-62.4,0-93.5C290.6,259.7,290.8,259.8,291,259.8z
	"/>
<path class="st9" d="M280.7,361c4.3-2.3,7.8-1,11.2-1.5C289.7,361.6,288.2,361.8,280.7,361z"/>
<path class="st9" d="M281.2,357.5c1.2,0.1,2.3-1.2,3.9,0C283.5,358.7,282.4,358.9,281.2,357.5L281.2,357.5z"/>
<path class="st11" d="M312.5,233.5c-3,2-6.1,3.4-9.8,3.5C304.4,234.1,304.4,234.1,312.5,233.5z"/>
<path class="st12" d="M312.6,114.1c-0.2-8-3-17.9-8.3-20c-2.5-1-5.2-1-5.2-1s-2.9-0.1-5.5,0.9c-5.7,2.2-7.7,13.3-8,20.2
	c-0.3,7.9,1.5,19.2,7.2,22.1c3,1.6,6.3,1.5,6.3,1.5s2.3,0,4.4-0.9C308.9,134.8,312.9,124.3,312.6,114.1z"/>
</svg>
