<?xml version="1.0" encoding="UTF-8" standalone="no"?>
<!-- Generator: Adobe Illustrator 23.0.3, SVG Export Plug-In . SVG Version: 6.00 Build 0)  -->

<svg
   xmlns:dc="http://purl.org/dc/elements/1.1/"
   xmlns:cc="http://creativecommons.org/ns#"
   xmlns:rdf="http://www.w3.org/1999/02/22-rdf-syntax-ns#"
   xmlns:svg="http://www.w3.org/2000/svg"
   xmlns="http://www.w3.org/2000/svg"
   xmlns:sodipodi="http://sodipodi.sourceforge.net/DTD/sodipodi-0.dtd"
   xmlns:inkscape="http://www.inkscape.org/namespaces/inkscape"
   version="1.1"
   id="Layer_1"
   x="0px"
   y="0px"
   viewBox="0 0 300 500"
   style="enable-background:new 0 0 300 500;"
   xml:space="preserve"
   sodipodi:docname="male_apple_tshirtjeans.svg"
   inkscape:version="0.92.3 (2405546, 2018-03-11)"><metadata
   id="metadata843"><rdf:RDF><cc:Work
       rdf:about=""><dc:format>image/svg+xml</dc:format><dc:type
         rdf:resource="http://purl.org/dc/dcmitype/StillImage" /><dc:title></dc:title></cc:Work></rdf:RDF></metadata><defs
   id="defs841" /><sodipodi:namedview
   pagecolor="#ffffff"
   bordercolor="#666666"
   borderopacity="1"
   objecttolerance="10"
   gridtolerance="10"
   guidetolerance="10"
   inkscape:pageopacity="0"
   inkscape:pageshadow="2"
   inkscape:window-width="1920"
   inkscape:window-height="1001"
   id="namedview839"
   showgrid="false"
   inkscape:zoom="6.45"
   inkscape:cx="165.98559"
   inkscape:cy="473.15629"
   inkscape:window-x="-9"
   inkscape:window-y="-9"
   inkscape:window-maximized="1"
   inkscape:current-layer="Layer_1" />
<style
   type="text/css"
   id="style815">
	.st0{fill:#00A9C0;}
	.st1{fill:#FCC6A0;}
	.st2{opacity:0.6;fill:#92745E;enable-background:new    ;}
	.st3{opacity:0.14;fill:#422200;enable-background:new    ;}
	.st4{fill:#FBC59F;}
</style>
<g
   id="Layer_3">
</g>



<path
   style="fill:#4d4d4d;stroke:#000000;stroke-width:1px;stroke-linecap:butt;stroke-linejoin:miter;stroke-opacity:1"
   d="m 128.9,84.8 -3.35854,0.828093 -1.46968,0.464109 -3.71287,1.082921 -4.02228,1.005569 -5.5693,0.696164 -9.20483,2.08849 -7.116336,3.480817 -4.64109,3.790223 -4.486386,5.801364 -10.751856,23.20544 -13.691213,36.66461 -9.591584,32.64232 34.498762,6.42018 0.541461,-3.63552 1.314975,-2.70731 L 89.2,195.5 l -1.1,19.6 122.1,-0.9 -0.9,-18.8 4.23225,14.49369 34.56772,-13.56455 -7.87619,-29.75449 -18.81534,-47.6947 -9.18889,-18.81534 -11.81429,-8.31376 -17.50264,-5.250793 -9.18889,1.312698 -1.75026,7.001057 c 0,0 -4.81323,1.750264 -5.68836,3.500529 -0.87513,1.750269 -3.06296,2.625399 -6.12593,3.062959 -3.06296,0.43757 -6.56349,0.43757 -6.56349,0.43757 l -10.06402,0.43757 -9.62645,-4.813231 -3.06296,-8.313756 z"
   id="path845"
   inkscape:connector-curvature="0" /><path
   style="fill:#000080;stroke:#000000;stroke-width:1px;stroke-linecap:butt;stroke-linejoin:miter;stroke-opacity:1"
   d="m 88.1,215.1 -0.03798,14.97752 0.620155,25.11628 2.635658,26.04651 6.976745,65.42636 4.806202,38.91473 8.68217,45.27131 10.23255,34.72869 26.97675,-0.93024 -3.72093,-205.11628 6.8217,-0.46511 1.24031,77.2093 v 130.07752 l 24.96124,0.93023 3.41086,-11.93798 6.35659,-23.87597 2.48062,-14.10853 4.8062,-25.11628 1.70542,-15.96899 4.96124,-42.17054 4.18605,-32.86822 2.0155,-32.4031 L 210.2,214.2 Z"
   id="path847"
   inkscape:connector-curvature="0" /><path
   style="fill:none;stroke:#000000;stroke-width:1px;stroke-linecap:butt;stroke-linejoin:miter;stroke-opacity:1"
   d="m 105.11628,225.27132 -0.93023,2.7907 -2.01551,2.63565 -4.496121,1.55039 -4.031008,1.08527 -3.72093,-0.15504 h -1.705427 l -0.155038,-8.37209 z"
   id="path849"
   inkscape:connector-curvature="0" /><path
   style="fill:none;stroke:#000000;stroke-width:1px;stroke-linecap:butt;stroke-linejoin:miter;stroke-opacity:1"
   d="M 93.643411,233.33333 93.79845,228.21705 100,228.06202 99.689922,231.47287 Z"
   id="path851"
   inkscape:connector-curvature="0" /><path
   style="fill:none;stroke:#000000;stroke-width:1px;stroke-linecap:butt;stroke-linejoin:miter;stroke-opacity:1"
   d="m 189.76744,226.97674 c 0,0 0.31008,1.70543 0.46512,2.32559 0.15504,0.62015 3.10077,3.72093 3.10077,3.72093 l 3.56589,2.0155 2.48062,0.31008 5.11628,0.93023 5.11628,0.77519 v -10.23255 z"
   id="path853"
   inkscape:connector-curvature="0" /><path
   style="fill:none;stroke:#000000;stroke-width:1px;stroke-linecap:butt;stroke-linejoin:miter;stroke-opacity:1"
   d="m 196.89922,235.03876 -0.15503,-4.34109 7.5969,0.15504 -0.15504,5.5814 z"
   id="path855"
   inkscape:connector-curvature="0" /></svg>