<?xml version="1.0" encoding="UTF-8" standalone="no"?>
<!-- Generator: Adobe Illustrator 23.0.1, SVG Export Plug-In . SVG Version: 6.00 Build 0)  -->

<svg
   xmlns:dc="http://purl.org/dc/elements/1.1/"
   xmlns:cc="http://creativecommons.org/ns#"
   xmlns:rdf="http://www.w3.org/1999/02/22-rdf-syntax-ns#"
   xmlns:svg="http://www.w3.org/2000/svg"
   xmlns="http://www.w3.org/2000/svg"
   xmlns:sodipodi="http://sodipodi.sourceforge.net/DTD/sodipodi-0.dtd"
   xmlns:inkscape="http://www.inkscape.org/namespaces/inkscape"
   version="1.1"
   x="0px"
   y="0px"
   viewBox="0 0 300 500"
   style="enable-background:new 0 0 300 500;"
   xml:space="preserve"
   id="svg840"
   sodipodi:docname="male_pear_suit.svg"
   inkscape:version="0.92.3 (2405546, 2018-03-11)"><metadata
   id="metadata846"><rdf:RDF><cc:Work
       rdf:about=""><dc:format>image/svg+xml</dc:format><dc:type
         rdf:resource="http://purl.org/dc/dcmitype/StillImage" /><dc:title></dc:title></cc:Work></rdf:RDF></metadata><defs
   id="defs844" /><sodipodi:namedview
   pagecolor="#ffffff"
   bordercolor="#666666"
   borderopacity="1"
   objecttolerance="10"
   gridtolerance="10"
   guidetolerance="10"
   inkscape:pageopacity="0"
   inkscape:pageshadow="2"
   inkscape:window-width="1920"
   inkscape:window-height="1001"
   id="namedview842"
   showgrid="false"
   inkscape:zoom="4.9109217"
   inkscape:cx="150"
   inkscape:cy="453.62776"
   inkscape:window-x="-9"
   inkscape:window-y="-9"
   inkscape:window-maximized="1"
   inkscape:current-layer="svg840" />
<style
   type="text/css"
   id="style815">
	.st0{fill:#03A3B6;}
	.st1{fill:#FBC59F;}
	.st2{fill:#92745E;}
	.st3{opacity:0.14;fill:#422200;enable-background:new    ;}
</style>


<g
   id="Layer_3">
</g>
<path
   style="fill:#000000;stroke:#000000;stroke-width:1px;stroke-linecap:butt;stroke-linejoin:miter;stroke-opacity:1"
   d="M 116.47508,88.671917 109.95899,90.911822 103.5,92.5 l -10.238484,1.669866 -6.923344,2.036278 -4.683439,4.479806 -3.868927,4.68344 -23.824449,69.6407 -12.421293,35.2276 29.322398,15.27208 L 105.9,149.8 l 2.2,0.5 0.0263,120.41514 9.16325,20.77003 z"
   id="path848"
   inkscape:connector-curvature="0" /><path
   style="fill:#000000;stroke:#000000;stroke-width:1px;stroke-linecap:butt;stroke-linejoin:miter;stroke-opacity:1"
   d="m 174.50899,87.246522 4.88707,3.054417 8.14511,1.425394 h 9.57051 l 8.14511,2.036278 8.75599,4.683438 7.12697,6.923341 6.71972,15.88297 27.69337,81.65473 -29.11877,15.67934 L 192.8,150.4 l -1.18627,121.33328 -7.12698,20.97366 z"
   id="path1428"
   inkscape:connector-curvature="0" /><path
   style="fill:#ffffff;stroke:#000000;stroke-width:1px;stroke-linecap:butt;stroke-linejoin:miter;stroke-opacity:1"
   d="m 116.47508,88.671917 19.75189,14.864823 h 25.45347 l 12.82855,-16.290218 5.49795,117.289588 -63.1246,-1.83265 z"
   id="path1430"
   inkscape:connector-curvature="0" /><path
   style="fill:#2c89a0;stroke:#000000;stroke-width:1px;stroke-linecap:butt;stroke-linejoin:miter;stroke-opacity:1"
   d="m 136.22697,103.53674 -4.07255,7.53423 8.34874,8.55237 h 15.67933 l 8.756,-7.53423 -3.25805,-8.55237 z"
   id="path1432"
   inkscape:connector-curvature="0" /><path
   style="fill:none;stroke:#000000;stroke-width:1px;stroke-linecap:butt;stroke-linejoin:miter;stroke-opacity:1"
   d="M 132.15442,111.07097 115.8642,100.2787 Z"
   id="path1434"
   inkscape:connector-curvature="0" /><path
   style="fill:none;stroke:#000000;stroke-width:1px;stroke-linecap:butt;stroke-linejoin:miter;stroke-opacity:1"
   d="m 164.93849,112.08911 10.58864,-9.57051 z"
   id="path1436"
   inkscape:connector-curvature="0" /><path
   style="fill:#000000;stroke:#000000;stroke-width:1px;stroke-linecap:butt;stroke-linejoin:miter;stroke-opacity:1"
   d="m 107.7,198.1 -6.70063,4.80709 -7.126971,6.31246 -6.923344,9.97776 -3.258044,11.19953 0.203628,23.41719 2.443533,30.95142 6.108833,38.0784 24.842585,129.71088 31.56231,-0.40725 -0.20363,-174.30537 h 2.03628 l -0.61089,174.71262 31.35868,0.81451 L 183,446.9 l 14.11168,-78.03628 12.21766,-65.9754 6.71972,-45.40899 1.01814,-17.30836 -0.61089,-7.3306 -3.25804,-10.38501 -5.49795,-10.58865 L 197.92619,201.4817 192.2,198.1 Z"
   id="path1440"
   inkscape:connector-curvature="0" /><path
   style="fill:#0088aa;stroke:#000000;stroke-width:1px;stroke-linecap:butt;stroke-linejoin:miter;stroke-opacity:1"
   d="m 140.50316,119.62334 v 37.06025 l 6.71971,14.25394 9.57051,-12.82855 -0.61089,-38.48564 z"
   id="path1438"
   inkscape:connector-curvature="0" /></svg>