<?xml version="1.0" encoding="utf-8"?>
<!-- Generator: Adobe Illustrator 23.0.1, SVG Export Plug-In . SVG Version: 6.00 Build 0)  -->
<svg version="1.1" id="Layer_1" xmlns="http://www.w3.org/2000/svg" xmlns:xlink="http://www.w3.org/1999/xlink" x="0px" y="0px"
	 viewBox="0 0 300 500" style="enable-background:new 0 0 300 500;" xml:space="preserve">
<style type="text/css">
	.st0{fill:#03A1B5;}
	.st1{fill:#FAD2B4;}
	.st2{fill:#FBC59F;}
	.st3{opacity:0.68;fill:#92745E;enable-background:new    ;}
</style>
<path class="st0" d="M171.1,216.1c-15.1,4.5-30.2,4.6-45.4,0.5c-12.8,12.7-19.2,27.6-20.1,44.2c-0.4,7.1,0.2,14.5,1.7,22.2
	c11.4,2,22.9,3.3,34.3,0c4.9-3.2,0.6-9.2,3.2-13.1c0-1.9-0.1-3.7-0.1-5.5l0,0c2.1-4.9,5.3-4.1,8.7-2l0,0c0.1,6.9,0.2,13.6,0.2,20.5
	c13,1.6,26,3.3,38.6-2.2C194.5,255.7,190.3,233,171.1,216.1z"/>
<g>
	<path class="st0" d="M143.6,289c-0.4,0.1-1-1.1-1.1-1.6c-1-2.9,0.4-9.8,1.1-12.8c1,4.1,1.1,7.3,1,9.7
		C144.5,285.2,144.4,288.9,143.6,289z"/>
	<path class="st1" d="M144.6,61.5"/>
	<g>
		<path class="st2" d="M192.2,281c-1.9,38.9-5.5,77.7-9.6,116.4c-2.6,24.6-4.1,49.3-6.2,74c-0.4,5.9-0.9,11.8,5.5,15
			c1.3,0.6,2.4,3.7,2.2,5.6c-0.2,2.3-2.8,2.3-4.8,2.7c-6,1.1-11.8-0.8-17.8-0.5c-3.2,0.2-4.6-2.2-5.2-5c-0.4-1.8-0.5-3.6-0.5-5.5
			c-0.9-66.8-1.6-133.6-2.3-200.4c0.6-0.5,1.4-1.5,2.1-1.4C168,282.7,180.1,281.1,192.2,281z"/>
		<path class="st2" d="M144.9,283.4c0.9,66.8,1.7,133.6,2.8,200.4c0.1,8.1-2.3,11.4-9.8,10.8c-4.1-0.3-8.5,0.8-12.7,0.5
			c-5.1-0.4-7.2-4.8-3.1-7.8c8.6-6.1,4.9-14.5,4.1-21.5c-4.7-44.8-10-89.7-15.1-134.5c-1.8-16-4.4-31.9-3.8-48.1c2.8-2.3,6-1.6,9-1
			c8.2,1.1,16.4,0.1,24.6-0.8C142.4,281.4,143.8,282.2,144.9,283.4z"/>
		<path class="st2" d="M248.6,281.6c-12.2-54.2-23.9-108.5-40.1-161.7c-4.9-16.2-13.2-25.5-28.5-27.4c-2.2-0.3-4.6-0.6-6.8-0.4
			c-7.3,0.6-9.7-4.1-10.1-10.9c-0.1-1.9-0.2-3.7-0.3-5.6c-1-5.4-2.8-8.7-8.2-4.1c-4,3.4-8.4,4.3-13.5,1.7c-9.3-4.8-9.4-4.5-9.9,6.9
			c0,0.6-0.3,1.1-0.7,1.7c0,2.5,0,5,0,7.4c-1.6,4.7-6,1.9-8.6,3.8c-21.5,0.8-29.4,6.8-35.7,29.3c-15.3,53.9-25.4,109.2-36.4,164.3
			c-2.6,12.6,2.4,25.3,10.7,30.2c2.4,1.5,5.3,3,8,0.8c3.1-2.5,1.7-5.6,0.3-8.3c-3.9-7.4-1.6-14.2,0.7-20.9c4.6,0.6,7,8.8,11.3,4.6
			c4.1-4.2-0.2-9.2-2.7-13.2c-2-3.3-2.3-6.7-1.4-10.5c9-36.5,18.8-72.7,30.6-108.3c0.7-2.3,1-5,3.5-5.9c0.5,2.8,1.6,5.3,3.4,7.5l0,0
			l0,0c2,18.6,8.7,36.1,11.7,54.4c3.5,5.3,9.1,4.7,13.9,5c10.9,0.7,21.9,2.2,31.5-5.5c3.8-18.9,7.7-37.9,11.5-56.7l0,0
			c0.6-1.8,1.3-3.6,1.9-5.4l0,0l0,0c2.2-0.1,2.8,1.5,3.3,3.3c8.9,27.6,19.2,54.6,26.2,82.8c3.7,15.1,14,30,2.9,46.3
			c-1,1.4-0.3,3.7,1.2,5.1c1.7,1.5,3.6,0.5,4.7-0.7c8.2-9.8,7.9-0.1,9.3,4.9c1,3.3,0.4,6.7-1.1,10c-1.3,3-3.7,6.9-0.2,9.2
			c3.3,2.2,6.9,0.7,10.2-2.1C251,304.6,251.2,292.9,248.6,281.6z M111.5,154c-0.1-0.1-0.1-0.2-0.2-0.3c0-0.1,0-0.1,0.1-0.2
			C111.3,153.7,111.5,153.9,111.5,154z M109.9,147c0.2,0.9,0.4,1.8,0.5,2.6C110.1,148.8,109.8,148,109.9,147z M180.7,159.5
			L180.7,159.5c0-0.1,0.1-0.2,0.2-0.3c0,0.1,0,0.1,0,0.2C180.8,159.4,180.8,159.4,180.7,159.5z"/>
		<path class="st2" d="M175,33.7c0.4,4.8,0.6,7.2,0.6,10.4c-0.1,4.9-0.8,8.9-1.3,11.7c-0.5,2.8-1.4,6.5-3.6,10.6
			c-1.5,2.9-3.2,5.3-4.7,7c-1.4,1.5-6,6.3-12,7c-0.9,0.1-2.7,0.2-4.6,0.2c0,0-3.6-0.1-6.8-1c-5.5-1.5-9.3-5.7-11.3-7.8
			c-5.4-5.5-7.2-11.3-8.5-15.3c-1.5-5-1.6-9.1-1.9-17.3c-0.2-6.6-0.2-9.9,0.8-14.4c0.9-4.1,2-8.5,5.6-12.8c0.8-1,8.6-9.9,20.9-9.6
			c8,0.2,13.6,4.4,15.7,5.9c1,0.8,6.4,4.5,9.1,11.6C173.8,22.3,174.2,26.1,175,33.7z"/>
		<path class="st3" d="M163.1,81.2L163.1,81.2c-0.7,1-0.2,5.1,0.4,3c-1.5,1.5-4.1,2.7-10.3,3.4c-0.9,0.1-2.8,0.2-4.8,0.2
			c0,0-3.8-0.1-7.1-1c-7-1.8-7.3-1.9-10.7-5.1c-0.2-0.2,0.2,0.2,0,0c0.8,2.6,0.4,4.7-0.7-5.9c0.3-1,0.6-2.4,0.6-4.1
			c2.1,1.3,8.8,5.1,18.3,4.8c9.3-0.3,15.6-4.4,17.5-5.8C166.6,73.6,162.6,79.3,163.1,81.2z"/>
	</g>
	<path class="st2" d="M175,38.9c0.4,4.8,0.6,7.2,0.6,10.4c-0.1,4.9-0.8,8.9-1.3,11.7c-0.5,2.8-1.4,6.5-3.6,10.6
		c-1.5,2.9-3.2,5.3-4.7,7c-1.4,1.5-6,6-12,6.7c-0.9,0.1-2.7,0.5-4.6,0.5c0,0-3.6-0.4-6.8-1.3c-5.5-1.5-9.3-5.4-11.3-7.5
		c-5.4-5.5-7.2-11.4-8.5-15.4c-1.5-5-1.6-9.1-1.9-17.3c-0.2-6.6-0.2-9.9,0.8-14.4c0.9-4.1,2-8.5,5.6-12.8c0.8-1,8.6-9.9,20.9-9.6
		c8,0.2,13.6,4.1,15.7,5.6c1,0.8,6.4,4.9,9.1,11.9C174,27.4,174.3,31.2,175,38.9z"/>
	<path class="st0" d="M204.2,243.1"/>
</g>
</svg>
