<?xml version="1.0" encoding="utf-8"?>
<!-- Generator: Adobe Illustrator 23.0.1, SVG Export Plug-In . SVG Version: 6.00 Build 0)  -->
<svg version="1.1" id="Layer_1" xmlns="http://www.w3.org/2000/svg" xmlns:xlink="http://www.w3.org/1999/xlink" x="0px" y="0px"
	 viewBox="0 0 612 792" style="enable-background:new 0 0 612 792;" xml:space="preserve">
<style type="text/css">
	.st0{fill:#FCC6A0;}
	.st1{fill:#00A9C0;}
	.st2{fill:#0E9FB4;}
	.st3{fill:#05A0B6;}
	.st4{fill:#E4AB88;}
	.st5{fill:#E5AC88;}
	.st6{fill:#E5AC89;}
	.st7{fill:#E1A985;}
	.st8{fill:#F9D2B5;}
</style>
<path class="st0" d="M281.2,382.6c0-7,0-14,0-22.2c-2.6,3.6-2.8,6.9-3.7,9.7c-4,12.7-7.8,25.4-11.8,38.1c-0.8,2.6-0.5,4.5,1.5,6.2
	c1.8,1.5,3.7,3.2,2.4,5.9c-1.4,2.9-3.3,1.7-5.4,0.6c-1.4-0.8-1.9,0.5-2.3,1.7c-1.5,3.6-0.4,6.8,1,10.1c0.6,1.5,2,3.5-0.4,4.8
	s-4.2,0.1-5.6-1.7c-3.6-4.7-5.1-9.6-3.9-15.8c5.3-28.5,9.6-57.3,16.2-85.5c2.2-9.4,7-15.8,17.6-16.7c3.4-0.3,5-0.5,7.1-1.8
	c2.5-1.6,3.8-4.3,4.4-6.5c0.5-1.7,0.2-3.2,0.1-3.9c-0.3-2.4-1.3-4-1-4.1s1,1.1,2.2,2.1c2.6,2.3,6,2.4,6.5,2.4c0.2,0,4.5,0.1,7.3-2.6
	c0.4-0.4,1.1-1.1,1.3-0.9c0.3,0.2-0.4,1.4-0.6,3c-0.2,1.4-0.1,2.5,0.1,3.4c1.1,4.2,3,6.2,4.5,7.1c3,1.9,5.4,1.4,12.3,2.7
	c7.6,1.5,10.2,7.5,12.2,13.7c4.5,14.1,6.1,28.9,9,43.3c2.8,14.3,5.1,28.7,7.7,43.1c1.1,6.2,0.3,11.9-3.7,16.9c-1.4,1.8-3,3.3-5.5,2
	c-2.6-1.4-1.3-3.5-0.4-5.2c1.4-2.8,1.6-5.6,1.1-8.7c-0.4-2.4-0.6-4-3.6-2.7c-1.4,0.6-3.2,1-4.1-0.5c-1-1.7-0.8-3.8,0.9-5
	c4.1-2.8,3.1-5.9,1.9-9.9c-4.7-14.7-9-29.5-14.5-44.1c0,7,0,14,0,21c-1.3,1.5-3,1.9-4.8,2.3c-13.6,2.6-27.3,2.6-40.9,0
	C284.2,384.6,282.5,384,281.2,382.6z"/>
<path class="st0" d="M303,416.5c0,36.8,0.1,73.6,0.1,110.5c0,3.9-1.3,5.9-5.6,5.6c-3.3-0.2-6.6-0.1-10.3-1.7
	c11.1-7.8,4.3-17.8,3.2-26.6c-2.1-16.8-4-33.6-5.4-50.5c-1-12.7-1.9-25.5-2.9-38.2C289.2,414.5,296.2,414,303,416.5z"/>
<path class="st0" d="M330.8,415.4c-0.9,11.9-1.7,23.8-2.7,35.7c-1.4,16.5-2.9,33-5.4,49.4c-1.1,7.5-2.1,15.1-3.3,22.6
	c-0.4,2.5,1.5,3,2.8,4.2c1,1,3,1.7,2.4,3.4c-0.5,1.5-2.5,1.4-3.9,1.6c-2.3,0.3-4.6,0.1-7,0.2c-2.5,0.1-3.6-1.2-3.7-3.6
	c0-0.7,0-1.3,0-2c0-36.8,0-73.5,0.1-110.3c1.3-1.2,3-1.6,4.6-1.5C320.1,415.6,325.5,413.6,330.8,415.4z"/>
<path class="st1" d="M330.8,415.4c-6.9,1.5-13.8,1-20.7,1.1c0-2.7,0-5.3,0-8c0.9-3.2,3.8-3.5,6.1-4.8c-2.5,1.4-5.3,2.1-8.1,2.5
	c-1.3,0-2.7,0-4,0c-2.6-0.9-5.3-1.8-8-2.9c2.4,1.3,5.1,1.4,7.1,3.1c-0.1,3.3-0.2,6.6-0.2,9.9c-6.9,0.1-13.9,0.3-20.8-1
	c-0.7-11-1.2-22-1-33c16.9,3.7,33.7,3.5,50.6,0.1C331.5,393.6,331.1,404.5,330.8,415.4z"/>
<path class="st2" d="M308.1,406.3c2.9-2.6,7.2-2.1,10.2-4.5c0.4-0.3,1.3,0,1.4,0.9c0.1,1-0.7,1.6-1.5,1.7c-3.1,0.6-5.7,2.2-8.1,4.2
	C309.9,407.4,309.4,406.5,308.1,406.3z"/>
<path class="st3" d="M303.2,406.6c-3-0.7-6-1.4-9.1-2.2c-0.8-0.2-1.7-0.6-1.3-1.7c0.3-0.9,1.2-1.1,2-0.7c3.1,1.4,6.7,1.8,9.2,4.4
	C303.8,406.5,303.5,406.6,303.2,406.6z"/>
<path class="st4" d="M282.6,352.2c-1,1.7-0.6,3.9-2.5,5.7c0.1-7.6,1.6-14.8,2-22.1c0,2.8,0,5.5,0,8.3c0,6.6,1.6,8.5,8,9.5
	c1.5,0.2,2.9,0.5,4.2,1.8C289.9,355.8,286,355.3,282.6,352.2z"/>
<path class="st5" d="M331.2,351.6c-4.3,3.4-8.5,4.2-13.5,3.2c14.1,0.8,14.4-8.3,14.4-18c0,7.2,0,14.4,0,21.7c-0.3,0-0.5,0-0.8,0
	C331.2,356.5,331.2,354.6,331.2,351.6z"/>
<path class="st6" d="M292.1,323.8c4.4,0.6,8.8,0.9,12.5,3.8C300.1,327.5,296.1,325.6,292.1,323.8z"/>
<path class="st7" d="M308.5,326.9c3.6-1.7,7.5-2.5,11.7-2.5c-3.8,1.3-7.6,2.6-11.5,4C308.7,327.9,308.6,327.4,308.5,326.9z"/>
<path class="st8" d="M317.3,290.4c-0.4-5.1-0.7-9.7-4.2-12.2c-2.3-1.6-5.1-1.7-6.5-1.7s-4.8,0-7.4,2c-3,2.4-3.3,6.3-3.7,11.8
	c-0.1,1.5-0.6,8.3,1.8,11.5c1,1.4,2.4,2.6,2.4,2.6c0.1,0.1,0.8,0.7,2.4,1.9c1.1,0.9,1.8,1.4,2.5,1.7c0.9,0.4,1.5,0.3,1.7,0.3
	c0.6,0,1.1-0.2,1.6-0.4c0.8-0.3,1.2-0.6,2.4-1.4c1.1-0.7,1.1-0.6,1.7-1c0,0,1.4-0.9,2.6-2.1C316,301.9,317.8,297.2,317.3,290.4z"/>
</svg>
