<?xml version="1.0" encoding="UTF-8" standalone="no"?>
<!-- Generator: Adobe Illustrator 23.0.1, SVG Export Plug-In . SVG Version: 6.00 Build 0)  -->

<svg
   xmlns:dc="http://purl.org/dc/elements/1.1/"
   xmlns:cc="http://creativecommons.org/ns#"
   xmlns:rdf="http://www.w3.org/1999/02/22-rdf-syntax-ns#"
   xmlns:svg="http://www.w3.org/2000/svg"
   xmlns="http://www.w3.org/2000/svg"
   xmlns:sodipodi="http://sodipodi.sourceforge.net/DTD/sodipodi-0.dtd"
   xmlns:inkscape="http://www.inkscape.org/namespaces/inkscape"
   version="1.1"
   x="0px"
   y="0px"
   viewBox="0 0 300 500"
   style="enable-background:new 0 0 300 500;"
   xml:space="preserve"
   id="svg840"
   sodipodi:docname="male_pear_athletic.svg"
   inkscape:version="0.92.3 (2405546, 2018-03-11)"><metadata
   id="metadata846"><rdf:RDF><cc:Work
       rdf:about=""><dc:format>image/svg+xml</dc:format><dc:type
         rdf:resource="http://purl.org/dc/dcmitype/StillImage" /><dc:title></dc:title></cc:Work></rdf:RDF></metadata><defs
   id="defs844" /><sodipodi:namedview
   pagecolor="#ffffff"
   bordercolor="#666666"
   borderopacity="1"
   objecttolerance="10"
   gridtolerance="10"
   guidetolerance="10"
   inkscape:pageopacity="0"
   inkscape:pageshadow="2"
   inkscape:window-width="1920"
   inkscape:window-height="1001"
   id="namedview842"
   showgrid="false"
   inkscape:zoom="6.0325519"
   inkscape:cx="108.84505"
   inkscape:cy="429.02871"
   inkscape:window-x="-9"
   inkscape:window-y="-9"
   inkscape:window-maximized="1"
   inkscape:current-layer="svg840" />
<style
   type="text/css"
   id="style815">
	.st0{fill:#03A3B6;}
	.st1{fill:#FBC59F;}
	.st2{fill:#92745E;}
	.st3{opacity:0.14;fill:#422200;enable-background:new    ;}
</style>


<g
   id="Layer_3">
</g>
<path
   style="fill:#000000;stroke:#000000;stroke-width:1px;stroke-linecap:butt;stroke-linejoin:miter;stroke-opacity:1"
   d="M 108.1,150.3 96.973885,93.041216 103.5,92.5 l 9.38755,-2.111061 6.13339,8.454133 c 0,0 1.82344,3.315348 6.79646,5.636088 4.97302,2.32074 5.30455,3.31535 12.43255,4.14418 7.12799,0.82884 2.65228,0.16577 9.28297,0.82884 6.63069,0.66307 7.6253,-0.82884 7.6253,-0.82884 l 7.62529,-1.32613 5.80186,-2.98382 5.30455,-2.98381 c 0,0 4.47572,-4.144181 5.30456,-4.80725 0.82884,-0.66307 4.30995,-5.470322 4.30995,-5.470322 l 5.96762,0.165767 10.27758,0.994604 L 192.8,150.4 v 48.3 h -84.7 z"
   id="path850"
   inkscape:connector-curvature="0" /><path
   style="fill:#ff0000;stroke:#000000;stroke-width:1px;stroke-linecap:butt;stroke-linejoin:miter;stroke-opacity:1"
   d="m 107.7,198.1 -3.26658,2.52421 -5.636094,4.64149 -8.122599,8.6199 -4.807252,7.95683 -2.320743,8.45413 L 84.8,272.4 l 61.4,0.5 2.49329,-0.167 v -14.91906 l 5.63609,0.16576 -2.48651,15.58213 L 213.9,272.3 l 2.42636,-23.60327 0.82884,-7.79106 -0.82884,-8.78567 -2.32074,-8.28836 -1.82344,-4.64149 -5.63609,-8.1226 -3.48112,-4.64148 -6.96222,-5.80186 L 192.8,198.7 Z"
   id="path852"
   inkscape:connector-curvature="0" /></svg>