<?xml version="1.0" encoding="UTF-8" standalone="no"?>
<!-- Generator: Adobe Illustrator 23.0.1, SVG Export Plug-In . SVG Version: 6.00 Build 0)  -->

<svg
   xmlns:dc="http://purl.org/dc/elements/1.1/"
   xmlns:cc="http://creativecommons.org/ns#"
   xmlns:rdf="http://www.w3.org/1999/02/22-rdf-syntax-ns#"
   xmlns:svg="http://www.w3.org/2000/svg"
   xmlns="http://www.w3.org/2000/svg"
   xmlns:sodipodi="http://sodipodi.sourceforge.net/DTD/sodipodi-0.dtd"
   xmlns:inkscape="http://www.inkscape.org/namespaces/inkscape"
   version="1.1"
   id="Layer_1"
   x="0px"
   y="0px"
   viewBox="0 0 300 500"
   style="enable-background:new 0 0 300 500;"
   xml:space="preserve"
   sodipodi:docname="male_hourglass_dress.svg"
   inkscape:version="0.92.3 (2405546, 2018-03-11)"><metadata
   id="metadata3781"><rdf:RDF><cc:Work
       rdf:about=""><dc:format>image/svg+xml</dc:format><dc:type
         rdf:resource="http://purl.org/dc/dcmitype/StillImage" /><dc:title></dc:title></cc:Work></rdf:RDF></metadata><defs
   id="defs3779" /><sodipodi:namedview
   pagecolor="#ffffff"
   bordercolor="#666666"
   borderopacity="1"
   objecttolerance="10"
   gridtolerance="10"
   guidetolerance="10"
   inkscape:pageopacity="0"
   inkscape:pageshadow="2"
   inkscape:window-width="1920"
   inkscape:window-height="1017"
   id="namedview3777"
   showgrid="false"
   inkscape:zoom="3.64"
   inkscape:cx="134.36309"
   inkscape:cy="332.27174"
   inkscape:window-x="-8"
   inkscape:window-y="-8"
   inkscape:window-maximized="1"
   inkscape:current-layer="Layer_1" />
<style
   type="text/css"
   id="style3748">
	.st0{fill:#03A1B5;}
	.st1{fill:#FAD2B4;}
	.st2{fill:#FBC59F;}
	.st3{opacity:0.14;fill:#422200;enable-background:new    ;}
</style>

<path
   id="path4672"
   style="fill:#000000;fill-opacity:1;stroke-width:0.11174048"
   d="m 124.70453,200.82166 c -0.0315,-0.10755 -1.818,-7.91402 -3.97012,-17.34771 -2.15212,-9.43369 -4.5447,-19.91774 -5.31685,-23.29789 -1.18629,-5.19314 -3.91807,-17.62282 -12.13015,-55.19269 -0.67082,-3.06895 -1.20809,-5.59012 -1.19394,-5.6026 0.0142,-0.01248 1.95197,-0.985212 4.30626,-2.161629 l 4.28053,-2.13894 7.117,-1.436032 c 3.91435,-0.789817 7.15373,-1.414415 7.19863,-1.387994 0.0449,0.02642 3.1103,3.980338 6.81201,8.786485 12.56483,16.31364 15.08866,19.57685 15.35529,19.8538 0.26467,0.27493 0.26744,0.27525 0.47743,0.0559 0.11616,-0.12136 5.35194,-6.90833 11.63505,-15.08214 6.28311,-8.173818 11.50819,-14.876241 11.61129,-14.894275 0.1031,-0.01803 3.5036,0.495608 7.55666,1.141425 l 7.3692,1.174214 4.80484,1.801986 c 2.64267,0.991092 4.85895,1.835098 4.92507,1.875568 0.0824,0.05041 -1.08318,9.101072 -3.70049,28.735012 l -3.82073,28.66144 -4.99265,23.13027 c -2.74597,12.72166 -5.01879,23.21828 -5.05073,23.32583 -0.0425,0.14324 -0.17561,0.19554 -0.4975,0.19554 -0.24169,0 -0.43943,-0.0409 -0.43943,-0.0908 0,-0.0499 1.80652,-8.45979 4.01449,-18.68859 2.20797,-10.2288 4.49377,-20.83542 5.07955,-23.57027 l 1.06506,-4.97245 3.36161,-25.30922 c 1.84888,-13.92007 3.52019,-26.50434 3.71402,-27.96505 0.30708,-2.314197 0.33162,-2.675878 0.19079,-2.811648 -0.0889,-0.0857 -2.1158,-0.889092 -4.50424,-1.785321 l -4.34262,-1.629508 -6.65201,-1.062062 c -3.65861,-0.584134 -6.70342,-1.062062 -6.76625,-1.062062 -0.0628,0 -0.0799,0.03436 -0.0379,0.07635 0.042,0.042 -0.0661,0.136259 -0.24024,0.209475 -0.17413,0.07322 -0.4854,0.353126 -0.6917,0.622023 l -0.3751,0.488904 0.554,-0.530767 c 0.64051,-0.613652 0.63057,-0.612263 2.57986,-0.360355 4.96974,0.642242 16.14357,3.483945 19.15235,4.870785 l 0.77112,0.355429 v 0.742537 c 0,2.4319 -4.62262,37.45353 -6.99189,52.97155 -0.69548,4.55519 -0.63514,4.26279 -7.79431,37.76828 l -2.49502,11.67688 -25.24469,0.0276 -25.24469,0.0276 -0.52835,-2.26241 c -0.29059,-1.24433 -0.95909,-4.09775 -1.48556,-6.34094 -0.8974,-3.82368 -3.40366,-14.72187 -5.57471,-24.24101 -0.56417,-2.47368 -1.02376,-4.25319 -1.12445,-4.35389 -0.15257,-0.15257 -0.1703,-0.14572 -0.1703,0.0658 0,0.12984 1.88562,8.49609 4.19027,18.59167 2.30465,10.09557 4.19027,18.39741 4.19027,18.44853 0,0.0511 -0.19775,0.0929 -0.43944,0.0929 -0.32223,0 -0.45468,-0.0522 -0.49661,-0.19554 z m -7.25368,-37.48893 c -0.0313,-0.13828 -0.24623,-1.12088 -0.47763,-2.18356 -0.34231,-1.57207 -0.45371,-1.92532 -0.59772,-1.89554 -0.10362,0.0214 -0.16393,0.12758 -0.14547,0.25604 0.0739,0.51412 0.8425,3.70032 0.93576,3.87893 0.14716,0.28182 0.35238,0.2416 0.28506,-0.0559 z m -1.01118,-4.58136 c -0.49263,-1.98443 -12.52524,-56.77919 -12.64586,-57.58741 -0.12368,-0.8287 0.53507,-1.467127 2.6274,-2.546348 2.16262,-1.115474 4.9603,-2.105325 8.09183,-2.862984 2.49831,-0.604456 8.40792,-1.784801 8.93591,-1.784801 0.36474,0 0.5302,0.08636 1.00676,0.525447 1.76953,1.630388 3.36974,3.571244 10.34579,12.548186 3.88439,4.99853 8.60075,10.95503 9.80647,12.38502 0.52261,0.61983 0.22321,0.0788 -0.4419,-0.79854 -3.23837,-4.27163 -18.47167,-23.997965 -19.34534,-25.051205 l -0.27807,-0.335221 -6.82988,1.367251 -6.82988,1.36725 -3.65553,1.873399 c -2.01055,1.030369 -3.74952,1.928952 -3.86439,1.996851 -0.20155,0.119136 -0.19632,0.181655 0.14952,1.787675 2.07047,9.61488 11.70568,53.61049 12.2332,55.85835 0.35848,1.52757 0.35123,1.5085 0.57315,1.5085 0.13402,0 0.16647,-0.0675 0.12082,-0.25142 z m 33.3102,-38.55047 c 1.0989,-1.36742 4.75687,-6.03119 8.12883,-10.36393 3.37196,-4.33273 7.2402,-9.25889 8.59608,-10.947006 1.35587,-1.688119 2.53553,-3.171474 2.62145,-3.296344 0.3495,-0.50793 -0.259,0.166673 -1.31694,1.459992 -1.00725,1.231357 -1.49138,1.683001 -1.31703,1.228635 0.0396,-0.10323 0.55836,-0.826627 1.15277,-1.607548 0.59441,-0.780921 0.9782,-1.31929 0.85288,-1.196376 -0.20472,0.200778 -3.48573,4.457884 -15.07101,19.554587 -5.45775,7.11197 -5.74345,7.48878 -5.74345,7.57503 0,0.0435 0.0222,0.0792 0.0492,0.0792 0.0271,0 0.94832,-1.1188 2.04721,-2.48623 z m -4.24542,0.13968 c -0.0768,-0.12291 -0.18555,-0.22348 -0.24175,-0.22348 -0.0562,0 -0.0112,0.10057 0.10007,0.22348 0.11124,0.12291 0.22002,0.22348 0.24175,0.22348 0.0217,0 -0.0233,-0.10057 -0.10007,-0.22348 z m 24.60189,-25.903054 c 0.38513,-0.449523 0.68039,-0.837161 0.65614,-0.861417 -0.0243,-0.02425 -0.39037,0.363296 -0.8136,0.861225 -0.42322,0.49793 -0.71848,0.885567 -0.65614,0.861417 0.0623,-0.02415 0.42846,-0.411701 0.8136,-0.861225 z m -0.47876,-0.355959 c 0.53478,-0.693549 0.92754,-1.297504 0.5778,-0.888499 -0.2913,0.340667 -1.1718,1.506269 -1.26204,1.670683 -0.14165,0.258109 0.0587,0.02914 0.68424,-0.782184 z m 1.39245,-1.805858 c 0.34982,-0.491276 0.1621,-0.374142 -0.25271,0.157686 -0.20372,0.261194 -0.28102,0.403938 -0.17178,0.317211 0.10924,-0.08673 0.30026,-0.300431 0.42449,-0.474897 z m 0.91117,-0.278765 c -0.0757,-0.03061 -0.22651,-0.03247 -0.33523,-0.0041 -0.10872,0.02833 -0.0468,0.05337 0.13755,0.05565 0.18437,0.0023 0.27333,-0.0209 0.19768,-0.05151 z M 118.82441,227.7746 c 0,-0.0332 0.10786,-0.27202 0.23969,-0.53077 0.23106,-0.45353 1.23685,-1.62437 6.70657,-7.80717 l 2.53643,-2.8671 -7.14673,-31.26961 c -4.55254,-19.91907 -8.93289,-39.44258 -12.06743,-53.78532 -2.70639,-12.38364 -5.39277,-24.67613 -5.96974,-27.31666 -0.57697,-2.64052 -1.0389,-4.809705 -1.02651,-4.820416 0.0124,-0.01071 1.94614,-0.98069 4.29724,-2.155509 l 4.27472,-2.136037 7.15712,-1.438962 7.15712,-1.438963 1.48196,1.914472 c 0.81507,1.052959 5.29763,6.867365 9.96123,12.920905 9.95638,12.92377 10.89121,14.12824 10.98728,14.15646 0.0399,0.0117 0.34576,-0.34028 0.67976,-0.78219 0.5298,-0.70094 22.54605,-29.329229 22.6545,-29.458202 0.0458,-0.0545 -0.0108,-0.06314 8.82732,1.346038 l 6.27704,1.000831 4.78526,1.794565 c 2.6319,0.98701 4.83887,1.827676 4.90438,1.868146 0.0809,0.04999 -1.10653,9.262642 -3.70377,28.735012 l -3.82288,28.66144 -6.61021,30.61689 c -3.63562,16.83929 -6.63481,30.71745 -6.66487,30.84037 -0.0428,0.17504 1.11501,1.43726 5.34154,5.82324 2.96789,3.07987 5.51807,5.73231 5.66707,5.89431 l 0.27089,0.29455 h -0.61428 -0.61428 l -5.52299,-5.72242 c -3.93622,-4.07836 -5.51713,-5.78787 -5.50258,-5.95018 0.0112,-0.12527 2.06213,-9.68101 4.55758,-21.23497 2.49545,-11.55397 5.51544,-25.55784 6.71109,-31.11972 l 2.1739,-10.11252 3.68831,-27.74629 c 2.02857,-15.26047 3.68831,-27.889722 3.68831,-28.065017 0,-0.364773 0.61065,-0.09871 -5.36861,-2.339167 l -3.63663,-1.362666 -7.17552,-1.145529 -7.17552,-1.14553 -0.2078,0.229339 c -0.24084,0.265802 -20.11532,26.11896 -22.80078,29.65974 -0.39069,0.51512 -0.64018,0.91459 -0.55443,0.88771 0.23567,-0.0739 2.91526,-3.43405 9.96457,-12.4955 8.4389,-10.847677 12.13099,-15.459919 13.76017,-17.18951 l 0.56145,-0.596045 0.89675,0.07502 c 4.515,0.377709 16.65962,3.36731 20.31166,5.000053 l 0.75425,0.337207 v 0.688249 c 0,1.615696 -1.63736,14.586076 -4.25397,33.697896 -2.45023,17.89663 -3.1037,22.08807 -4.40753,28.27034 -2.07344,9.8315 -11.87757,55.72512 -11.95928,55.98198 -0.0639,0.20101 -2.85796,1.85552 -4.5767,2.71014 -2.75801,1.37139 -5.18492,1.99269 -9.05098,2.31711 -2.30502,0.19341 -9.82147,0.26404 -13.68821,0.1286 -7.75078,-0.27146 -11.34895,-0.86916 -13.93342,-2.31447 -1.30578,-0.73023 -1.49244,-0.99754 -2.02933,-2.90609 -1.60828,-5.71707 -6.35058,-25.66674 -11.02119,-46.36346 -0.65185,-2.88849 -1.26227,-5.49065 -1.35651,-5.78257 -0.17746,-0.54976 -0.37685,-0.70615 -0.37685,-0.29558 0,0.12935 2.69336,12.0339 5.98525,26.45456 3.29188,14.42065 5.99461,26.27532 6.00605,26.34371 0.0114,0.0684 -1.97248,2.38562 -4.40872,5.14941 -2.43623,2.7638 -4.57327,5.23267 -4.74897,5.48639 -0.28822,0.4162 -0.36587,0.46171 -0.79435,0.46553 -0.26119,0.002 -0.47489,-0.0229 -0.47489,-0.0561 z m -1.34089,-64.30282 c 0,-0.0618 -0.20113,-1.01691 -0.44696,-2.12244 -0.24583,-1.10554 -0.44696,-2.03079 -0.44696,-2.05611 0,-0.0253 -0.10198,-0.0194 -0.22662,0.0132 -0.14592,0.0382 -0.20672,0.12396 -0.17074,0.24095 0.0307,0.0999 0.23334,0.95196 0.45026,1.89339 0.21691,0.94144 0.44637,1.80882 0.5099,1.92753 0.12203,0.22802 0.33112,0.29335 0.33112,0.10346 z m -1.00566,-4.54901 c 0,-0.0177 -0.65657,-2.98618 -1.45905,-6.59668 -2.4831,-11.17194 -11.00588,-50.00911 -11.18083,-50.94948 -0.1425,-0.766 0.0378,-1.11511 0.90605,-1.754278 1.96146,-1.443942 6.17664,-3.061515 10.50468,-4.031164 3.05647,-0.684768 7.14535,-1.502758 7.89652,-1.579717 l 0.70626,-0.07236 1.07498,1.048967 c 1.83876,1.794267 3.22097,3.482352 9.59649,11.720182 5.83252,7.53622 10.31315,13.13471 10.42365,13.02421 0.0487,-0.0487 -3.19404,-4.28923 -13.76213,-17.99666 -6.38041,-8.275758 -6.51023,-8.436407 -6.81717,-8.436407 -0.13694,0 -3.23452,0.604643 -6.88353,1.343652 l -6.63454,1.343651 -3.7919,1.922902 c -2.08554,1.057597 -3.81509,1.983362 -3.84345,2.057258 -0.0284,0.07389 0.30317,1.759214 0.73672,3.745164 12.76363,58.46574 12.045,55.24289 12.31807,55.24289 0.11505,0 0.20918,-0.0145 0.20918,-0.0321 z m 30.95211,-36.38957 c 0,-0.0232 -0.088,-0.1112 -0.19555,-0.19555 -0.17722,-0.13899 -0.18118,-0.13503 -0.0422,0.0422 0.14598,0.18614 0.23774,0.24533 0.23774,0.15336 z m -1.34089,-1.45263 c 0,-0.0232 -0.088,-0.11119 -0.19554,-0.19554 -0.17723,-0.13899 -0.18118,-0.13504 -0.0422,0.0422 0.14597,0.18613 0.23773,0.24532 0.23773,0.15335 z m -0.57535,-0.73862 c -0.13575,-0.18361 -0.27155,-0.30912 -0.30176,-0.27891 -0.0502,0.0502 0.41692,0.61276 0.50884,0.61276 0.0219,0 -0.0713,-0.15023 -0.20708,-0.33385 z m -26.52321,107.08823 c 0.093,-0.2226 0.16911,-0.42279 0.16911,-0.44486 0,-0.0221 2.05901,-2.3754 4.57558,-5.22964 l 4.57559,-5.18953 -7.14832,-31.26791 c -5.2045,-22.7653 -8.75981,-38.65154 -13.07448,-58.42084 -3.25938,-14.93412 -5.94794,-27.229068 -5.97457,-27.322114 -0.0361,-0.126088 1.05419,-0.718014 4.28069,-2.324049 l 4.3291,-2.154872 7.12726,-1.435196 7.12726,-1.435195 0.92206,1.189213 c 0.50714,0.654067 5.54034,7.187473 11.18491,14.518693 5.64456,7.33121 10.30153,13.31491 10.34882,13.29711 0.0473,-0.0178 5.30364,-6.82059 11.68078,-15.11732 6.37714,-8.296732 11.61355,-15.107881 11.63647,-15.13589 0.0229,-0.02801 3.42126,0.489033 7.55186,1.148979 l 7.51018,1.199903 4.92161,1.845663 4.92161,1.845664 -0.81336,6.112211 c -0.44735,3.36171 -2.16824,16.26941 -3.82419,28.68378 l -3.01082,22.57158 -6.65708,30.83508 -6.65708,30.83508 0.37127,0.39637 c 0.20419,0.21802 2.5013,2.60885 5.10468,5.31297 2.60337,2.70412 4.98672,5.18057 5.29631,5.50322 l 0.5629,0.58664 h -0.6136 -0.61359 l -5.54479,-5.74422 -5.54479,-5.74422 0.15011,-0.70879 c 0.0826,-0.38984 1.78368,-8.27642 3.78027,-17.52574 1.99659,-9.24932 4.96262,-23.00177 6.5912,-30.56102 l 2.96103,-13.74408 3.69391,-27.82338 c 2.03165,-15.30285 3.71675,-27.954036 3.74466,-28.113733 0.0502,-0.287385 0.004,-0.307771 -4.49649,-1.991091 l -4.54725,-1.700733 -7.20726,-1.152269 c -3.96399,-0.633749 -7.21249,-1.145688 -7.21889,-1.137643 -1.58954,1.998847 -23.60698,30.739129 -23.574,30.772119 0.0272,0.0272 0.10527,0.0148 0.17357,-0.0274 0.17277,-0.10678 3.86791,-4.75144 7.3352,-9.22009 1.59746,-2.05882 4.23054,-5.45294 5.85127,-7.54248 5.16081,-6.653622 9.51446,-12.019473 10.59771,-13.06163 l 0.45211,-0.434954 0.96359,0.07819 c 4.46027,0.361904 17.19424,3.518089 20.28092,5.02674 l 0.72632,0.354993 -0.0302,0.945469 c -0.10612,3.324182 -6.14182,48.139502 -7.67448,56.983322 -0.0905,0.52239 -3.04521,14.41751 -6.56596,30.87806 l -6.40137,29.92826 -1.75691,1.05669 c -5.77099,3.4709 -8.71483,4.07422 -19.86487,4.07115 -8.45884,-0.002 -13.23316,-0.35488 -16.71527,-1.2343 -2.07297,-0.52354 -4.00724,-1.58573 -4.45127,-2.44439 -0.7145,-1.3817 -6.45126,-25.33337 -12.19753,-50.92623 -0.65648,-2.92385 -0.78059,-3.35805 -0.94739,-3.31444 -0.17509,0.0458 -0.17906,0.10575 -0.0453,0.68286 0.39145,1.68846 11.91258,52.16151 11.93124,52.26972 0.0118,0.0686 -2.05542,2.47327 -4.59388,5.34375 -2.53847,2.87046 -4.67101,5.34108 -4.73897,5.49025 -0.10328,0.22668 -0.20348,0.27123 -0.60998,0.27123 h -0.48639 z m -2.12563,-66.75454 c -1.47915,-6.51512 -4.9127,-22.0552 -8.33176,-37.70916 -2.0269,-9.28005 -3.93467,-17.97568 -4.23948,-19.32364 -0.30481,-1.34795 -0.55421,-2.59359 -0.55421,-2.76807 0,-1.02516 2.83976,-2.678734 6.9538,-4.049156 2.35826,-0.785556 3.30857,-1.02126 8.41052,-2.086046 2.82751,-0.590107 4.35813,-0.862167 4.58136,-0.814311 0.22407,0.04804 0.70834,0.447086 1.46059,1.203559 1.72976,1.739464 3.33212,3.720269 10.04508,12.417484 3.61327,4.6813 8.78581,11.19225 9.49846,11.95623 0.35397,0.37945 0.38682,0.39633 0.21754,0.11174 -0.10968,-0.18438 -4.72,-6.20567 -10.24517,-13.38066 -8.71054,-11.311519 -10.07791,-13.037986 -10.28765,-12.989349 -0.13304,0.03085 -3.21555,0.656558 -6.85002,1.390459 l -6.60812,1.334367 -3.86755,1.932804 c -2.8689,1.433734 -3.86754,1.983212 -3.86754,2.128029 0,0.26834 11.35671,52.24415 12.7689,58.43894 0.85178,3.73647 1.18193,5.00608 1.3086,5.03233 0.0932,0.0193 0.18247,0.007 0.19843,-0.028 0.016,-0.0347 -0.25034,-1.29361 -0.59178,-2.79752 z m 30.56508,-38.1388 c 0,-0.0212 -0.11314,-0.13434 -0.25142,-0.25142 l -0.25141,-0.21286 0.21286,0.25141 c 0.20004,0.23627 0.28997,0.30229 0.28997,0.21287 z m -1.34089,-1.45627 c 0,-0.0232 -0.088,-0.11119 -0.19554,-0.19554 -0.17723,-0.13899 -0.18118,-0.13504 -0.0422,0.0422 0.14597,0.18613 0.23773,0.24532 0.23773,0.15335 z m -0.56328,-0.74642 c -0.1338,-0.18791 -0.27152,-0.31342 -0.30602,-0.27891 -0.057,0.057 0.40183,0.62056 0.5053,0.62056 0.0242,0 -0.0655,-0.15374 -0.19928,-0.34165 z m -42.88787,176.1576 c 2.15365,-3.48615 4.66488,-7.53243 5.58052,-8.99175 l 1.6648,-2.6533 0.0112,4.48061 c 0.006,2.46434 0.1828,6.51063 0.39253,8.99175 l 0.38133,4.51113 h -5.97305 -5.973058 z m 24.29499,6.4864 -15.6968,-0.16694 -0.36393,-2.20159 c -0.20016,-1.21088 -0.36685,-5.56561 -0.37042,-9.67717 -0.009,-10.06099 0.084,-10.13821 10.41665,-8.67597 3.45925,0.48954 7.05472,0.47021 14.38275,-0.0773 7.46081,-0.55744 10.07425,-0.56745 11.05542,-0.0423 1.24485,0.66622 1.28492,1.00882 1.28492,10.98532 v 10.29765 l -2.5059,-0.13736 c -1.37824,-0.0755 -9.56945,-0.21248 -18.20269,-0.3043 z m -11.70482,-21.91836 -3.81671,-0.34045 -0.42413,-2.35849 c -0.23327,-1.29717 -0.67799,-6.69211 -0.98827,-11.98875 l -0.56415,-9.63025 2.33742,-7.76362 c 3.69475,-12.27188 7.63528,-19.86735 14.49178,-27.93325 l 2.61019,-3.07058 2.16076,1.42016 c 3.14058,2.06415 6.24655,2.59193 17.78576,3.02223 11.64566,0.43427 14.78733,-0.0626 21.35297,-3.3769 l 3.69415,-1.8648 4.66306,4.94429 c 6.38527,6.77039 8.82748,10.74011 11.28594,18.34491 3.1263,9.6706 4.469,18.49724 4.45775,29.30425 -0.007,6.64338 -0.21408,9.28858 -0.76822,9.80916 -0.65046,0.61106 -25.44478,2.05863 -34.80947,2.03229 l -2.21108,-0.006 v -10.00284 c 0,-9.4685 -0.0643,-10.03726 -1.20421,-10.64731 -2.11181,-1.1302 -5.32041,-0.4681 -6.69712,1.38197 -1.09469,1.47107 -1.26104,2.63685 -1.43861,10.0817 l -0.20079,8.41828 -8.34874,0.38195 c -9.19635,0.42072 -17.51269,0.36458 -23.36828,-0.15773 z m 32.72106,9.53573 c -0.75312,-21.58865 -0.60392,-25.53537 1.06136,-28.07691 0.75657,-1.15467 1.51232,-1.55163 2.95406,-1.55163 4.09019,0 3.9439,-0.73956 4.34659,21.97451 l 0.36305,20.47832 h -4.13885 -4.13884 z m 46.57459,3.24292 c 0.22916,-5.26975 0.59219,-9.77269 0.80675,-10.00653 0.29111,-0.31726 8.08223,15.46611 9.40614,19.0551 0.10809,0.29304 -2.23933,0.5328 -5.2165,0.5328 h -5.41303 z m -37.73831,7.07548 c -0.19925,-1.37825 -0.28184,-6.08786 -0.18353,-10.46581 l 0.17875,-7.9599 9.72877,-0.36355 c 5.35083,-0.19996 13.94428,-0.56889 19.09656,-0.81986 l 9.36778,-0.45631 -0.3919,6.71608 c -0.21555,3.69385 -0.55169,8.7724 -0.74699,11.28567 l -0.35508,4.56957 h -18.16603 -18.16604 z m -37.74063,-19.35285 c -1.62146,-0.31853 -4.07211,-0.4448 -5.44589,-0.28061 -3.05692,0.36535 -2.8163,1.22946 -3.70509,-13.30576 l -0.67114,-10.97578 2.14633,-7.78558 c 2.98968,-10.84475 7.69684,-20.27531 13.385,-26.81615 l 4.31438,-4.96111 1.47405,1.38596 c 2.36993,2.22828 4.36728,2.6646 15.21062,3.32277 13.02034,0.79032 17.48192,0.23963 23.78438,-2.93564 l 4.50207,-2.26822 5.27567,5.65099 c 6.43898,6.89707 7.61512,8.74801 10.33476,16.26419 4.05526,11.20745 5.98335,26.45566 4.78951,37.8777 l -0.37185,3.55774 -7.44065,0.44074 c -4.09235,0.2424 -12.54858,0.60398 -18.79162,0.8035 l -11.35098,0.36277 7.4e-4,-10.07634 7.5e-4,-10.07635 -1.5018,-0.68427 c -2.34637,-1.06907 -4.64997,-0.82281 -6.00909,0.64239 -1.42899,1.54053 -2.04479,6.06318 -1.94685,14.29835 l 0.0631,5.3066 -3.99962,0.0239 c -2.19979,0.0132 -7.84691,0.20023 -12.54915,0.41564 -4.96798,0.22759 -9.78454,0.14905 -11.49764,-0.18747 z m 22.70047,-60.07072 c -6.42527,-0.4736 -9.65829,-1.43282 -11.24739,-3.33704 -0.89916,-1.07746 -12.38157,-50.72444 -22.07644,-95.45284 -2.46016,-11.35023 -4.60633,-21.09005 -4.76925,-21.64403 -0.45311,-1.540618 5.80168,-4.410681 12.60818,-5.785366 3.1529,-0.636781 6.294,-1.288725 6.98022,-1.448765 1.05244,-0.245448 3.02001,2.015457 12.57386,14.448371 6.2294,8.10664 11.55792,14.59612 11.84115,14.42108 0.28323,-0.17505 5.71399,-7.07695 12.06834,-15.33756 6.35436,-8.260613 11.87359,-15.017535 12.26495,-15.015384 4.27169,0.02347 20.68227,4.145251 22.08369,5.546672 0.38143,0.381427 -6.90628,54.184872 -8.07322,59.602722 -0.62863,2.91863 -3.73481,17.41473 -6.9026,32.21355 l -5.75962,26.90695 -2.38202,1.43763 c -4.55188,2.74724 -7.82734,3.52558 -15.64853,3.71852 -4.05365,0.10001 -10.15625,-0.0235 -13.56132,-0.27451 z M 237.61792,57.193396 Z M 102.59434,99.646226 110.84906,95.518868 124.8,92.7 v 0 l 22.60566,29.35189 23.58491,-30.660381 14.74056,2.358491 9.43396,3.537736 L 187.6,154.1 l -13.4,62.1 12.71038,13.16321 5.3066,14.15094 3.53774,18.86793 L 195.1,280.4 206.36792,304.24528 97.287736,303.65566 110.2,282.7 108.49057,257.07547 112.61792,241.74528 119.6934,227.00472 128.8,216.7 l -14.4,-63 z" /><path
   style="fill:none;stroke:#000000;stroke-width:1px;stroke-linecap:butt;stroke-linejoin:miter;stroke-opacity:1"
   d="m 128.8,216.7 c 0.124,0.0871 0.248,0.17425 0.37199,0.26137 0.0373,0 0.0784,-0.0167 0.11174,0 0.0471,0.0236 0.0646,0.0882 0.11174,0.11174 0.0725,0.0362 0.56517,-0.0351 0.67045,0 0.079,0.0263 0.14446,0.0854 0.22348,0.11174 0.0353,0.0118 0.0756,-0.009 0.11174,0 0.11427,0.0286 0.22095,0.0832 0.33522,0.11174 0.15963,0.0399 0.53064,-0.0466 0.67044,0 0.05,0.0167 0.0618,0.0951 0.11174,0.11174 0.0707,0.0236 0.14899,0 0.22348,0 0.11174,0 0.22348,0 0.33523,0 0.0745,0 0.15121,-0.0181 0.22348,0 0.0808,0.0202 0.14268,0.0915 0.22348,0.11174 0.0879,0.022 0.55424,0 0.67044,0 0.48421,0 0.96842,0 1.45263,0 0.74493,0 1.48987,0 2.23481,0 0.26072,0 0.52145,0 0.78218,0 0.14899,0 0.29912,0.0185 0.44696,0 0.15239,-0.019 0.29433,-0.0948 0.44696,-0.11174 0.1851,-0.0206 0.37391,0.0231 0.55871,0 0.11687,-0.0146 0.21862,-0.0951 0.33522,-0.11174 0.14749,-0.0211 0.29797,0 0.44696,0 0.29797,0 0.59595,0 0.89392,0 0.89393,0 1.78785,0 2.68177,0 0.18624,0 0.37247,0 0.55871,0 0.18623,0 0.37323,0.0169 0.5587,0 0.22563,-0.0205 0.44481,-0.0912 0.67044,-0.11174 0.18547,-0.0169 0.37247,0 0.5587,0 0.22348,0 0.44697,0 0.67045,0 0.74493,0 1.48987,0 2.23481,0 0.44696,0 0.89392,0 1.34088,0 0.11174,0 0.225,-0.0184 0.33522,0 0.11619,0.0194 0.22348,0.0745 0.33522,0.11174 0.14899,0 0.29948,-0.0211 0.44697,0 0.2332,0.0333 0.43724,0.19017 0.67044,0.22348 0.29498,0.0421 0.59743,-0.0297 0.89392,0 0.45088,0.0451 0.89001,0.17839 1.34089,0.22348 0.14825,0.0148 0.29889,-0.0164 0.44696,0 0.18876,0.021 0.36956,0.0945 0.5587,0.11174 0.22257,0.0202 0.44788,-0.0202 0.67045,0 0.18914,0.0172 0.36956,0.0945 0.5587,0.11174 0.22256,0.0202 0.44788,-0.0202 0.67044,0 0.18914,0.0172 0.37185,0.0778 0.5587,0.11174 0.44582,0.0811 0.89656,0.13462 1.34089,0.22348 0.15059,0.0301 0.29457,0.0927 0.44696,0.11175 0.14784,0.0185 0.29947,-0.0211 0.44696,0 0.1166,0.0167 0.22348,0.0745 0.33523,0.11174 0.22348,0.0372 0.445,0.0892 0.67044,0.11174 0.29649,0.0296 0.59777,-0.0329 0.89392,0 0.37752,0.0419 0.73912,0.18909 1.11741,0.22348 0.22256,0.0202 0.44788,-0.0202 0.67044,0 0.18914,0.0172 0.36956,0.0945 0.5587,0.11174 0.37094,0.0337 0.74722,-0.0411 1.11741,0 2.08864,0.23207 -0.49868,-0.009 0.89392,0.22348 0.11022,0.0184 0.2246,-0.0158 0.33522,0 0.15203,0.0217 0.29493,0.09 0.44696,0.11174 0.11062,0.0158 0.22348,0 0.33523,0 0.11174,0 0.22348,0 0.33522,0 0.0745,0 0.15121,-0.0181 0.22348,0 0.0808,0.0202 0.14268,0.0915 0.22348,0.11174 0.0723,0.0181 0.14899,0 0.22348,0 0.11174,0 0.22348,0 0.33522,0 0.33522,0 0.67044,0 1.00567,0 0.40971,0 0.81943,0 1.22914,0 0.0745,0 0.14899,0 0.22348,0 0.0373,0 0.0854,0.0263 0.11174,0 0.0263,-0.0263 -0.0263,-0.0854 0,-0.11174 0.0559,-0.0559 0.27935,0.0559 0.33522,0 0.0263,-0.0263 -0.0263,-0.0854 0,-0.11174 0.0263,-0.0263 0.0784,0.0167 0.11174,0 0.0471,-0.0236 0.0646,-0.0882 0.11174,-0.11174 0.0333,-0.0167 0.0854,0.0263 0.11174,0 0.0263,-0.0263 -0.0263,-0.0854 0,-0.11174 0.0527,-0.0527 0.17081,0.0527 0.22349,0 0.0263,-0.0263 -0.0263,-0.0854 0,-0.11174 0.0263,-0.0263 0.0784,0.0166 0.11174,0 0.0942,-0.0471 0.12925,-0.17637 0.22348,-0.22348 0.0333,-0.0167 0.0784,0.0166 0.11174,0 0.0942,-0.0471 0.12925,-0.17637 0.22348,-0.22348 0.0333,-0.0167 0.0784,0.0167 0.11174,0 0.0471,-0.0236 0.0646,-0.0882 0.11174,-0.11175 0.0333,-0.0166 0.0854,0.0263 0.11174,0 0.0263,-0.0263 -0.0167,-0.0784 0,-0.11174 0.12353,-0.24706 0.0694,-0.0347 0.22348,-0.11174 0.0942,-0.0471 0.12925,-0.17636 0.22348,-0.22348 0.0333,-0.0166 0.0854,0.0263 0.11174,0 0.2312,-0.23119 -0.35329,0.009 0.11174,-0.22348 0.29798,0 -0.0372,0.0373 0.11174,-0.11174 0.0263,-0.0263 0.0854,0.0263 0.11174,0 0.0263,-0.0263 -0.0263,-0.0854 0,-0.11174 0.0263,-0.0263 0.0854,0.0263 0.11174,0 0.0263,-0.0263 -0.0166,-0.0784 0,-0.11174 0.0148,-0.0297 0.30556,-0.32039 0.33523,-0.33522 0.0333,-0.0167 0.0854,0.0263 0.11174,0 0.0527,-0.0527 -0.0527,-0.17081 0,-0.22348 0.0263,-0.0263 0.0854,0.0263 0.11174,0 0.0263,-0.0263 0,-0.0745 0,-0.11174 0,-0.18624 0,-0.37247 0,-0.5587 0,-0.0373 -0.0263,-0.0854 0,-0.11175 0.0923,-0.0923 0.13454,0.0423 0.15488,0.08"
   id="path4675"
   inkscape:connector-curvature="0" /><ellipse
   style="fill:#000080;fill-opacity:1"
   id="path4681"
   cx="147.8118"
   cy="124.44939"
   rx="3.2183342"
   ry="3.3000767" /><ellipse
   style="fill:#00ffff;fill-opacity:1"
   id="path4685"
   cx="149.06055"
   cy="122.83794"
   rx="0.8985551"
   ry="0.78604484" /><circle
   style="fill:#0000ff;fill-opacity:1"
   id="path4687"
   cx="149.1684"
   cy="123.1083"
   r="0.51567775" /><rect
   style="fill:#0000ff;fill-opacity:1"
   id="rect4705"
   width="46.38271"
   height="0.53044999"
   x="128.31081"
   y="216.03571" /><path
   style="fill:#00ffff;fill-opacity:1"
   id="path4712"
   sodipodi:type="arc"
   sodipodi:cx="130.89189"
   sodipodi:cy="216.28751"
   sodipodi:rx="0.24297734"
   sodipodi:ry="0.20653073"
   sodipodi:start="0"
   sodipodi:end="6.066939"
   sodipodi:open="true"
   d="m 131.13487,216.28751 a 0.24297734,0.20653073 0 0 1 -0.22985,0.20623 0.24297734,0.20653073 0 0 1 -0.25469,-0.18395 0.24297734,0.20653073 0 0 1 0.20233,-0.2261 0.24297734,0.20653073 0 0 1 0.27655,0.1595" /><path
   style="fill:#00ffff;fill-opacity:1"
   id="path4712-5"
   sodipodi:type="arc"
   sodipodi:cx="128.92378"
   sodipodi:cy="216.32396"
   sodipodi:rx="0.24297734"
   sodipodi:ry="0.20653073"
   sodipodi:start="0"
   sodipodi:end="6.066939"
   sodipodi:open="true"
   d="m 129.16676,216.32396 a 0.24297734,0.20653073 0 0 1 -0.22985,0.20623 0.24297734,0.20653073 0 0 1 -0.25469,-0.18394 0.24297734,0.20653073 0 0 1 0.20233,-0.22611 0.24297734,0.20653073 0 0 1 0.27655,0.15951" /><path
   style="fill:#00ffff;fill-opacity:1"
   id="path4712-4"
   sodipodi:type="arc"
   sodipodi:cx="129.91997"
   sodipodi:cy="216.29965"
   sodipodi:rx="0.24297734"
   sodipodi:ry="0.20653073"
   sodipodi:start="0"
   sodipodi:end="6.066939"
   sodipodi:open="true"
   d="m 130.16294,216.29965 a 0.24297734,0.20653073 0 0 1 -0.22984,0.20623 0.24297734,0.20653073 0 0 1 -0.25469,-0.18394 0.24297734,0.20653073 0 0 1 0.20232,-0.22611 0.24297734,0.20653073 0 0 1 0.27656,0.15951" /><path
   style="fill:#00ffff;fill-opacity:1"
   id="path4712-0"
   sodipodi:type="arc"
   sodipodi:cx="131.9124"
   sodipodi:cy="216.29965"
   sodipodi:rx="0.24297734"
   sodipodi:ry="0.20653073"
   sodipodi:start="0"
   sodipodi:end="6.066939"
   sodipodi:open="true"
   d="m 132.15538,216.29965 a 0.24297734,0.20653073 0 0 1 -0.22985,0.20623 0.24297734,0.20653073 0 0 1 -0.25469,-0.18394 0.24297734,0.20653073 0 0 1 0.20232,-0.22611 0.24297734,0.20653073 0 0 1 0.27656,0.15951" /><path
   style="fill:#00ffff;fill-opacity:1"
   id="path4712-9"
   sodipodi:type="arc"
   sodipodi:cx="134.55942"
   sodipodi:cy="216.29944"
   sodipodi:rx="0.24297734"
   sodipodi:ry="0.20653073"
   sodipodi:start="0"
   sodipodi:end="6.066939"
   sodipodi:open="true"
   d="m 134.8024,216.29944 a 0.24297734,0.20653073 0 0 1 -0.22985,0.20623 0.24297734,0.20653073 0 0 1 -0.25469,-0.18394 0.24297734,0.20653073 0 0 1 0.20232,-0.22611 0.24297734,0.20653073 0 0 1 0.27656,0.1595" /><path
   style="fill:#00ffff;fill-opacity:1"
   id="path4712-51"
   sodipodi:type="arc"
   sodipodi:cx="136.28073"
   sodipodi:cy="216.29945"
   sodipodi:rx="0.24297734"
   sodipodi:ry="0.20653073"
   sodipodi:start="0"
   sodipodi:end="6.066939"
   sodipodi:open="true"
   d="m 136.52371,216.29945 a 0.24297734,0.20653073 0 0 1 -0.22985,0.20623 0.24297734,0.20653073 0 0 1 -0.25469,-0.18394 0.24297734,0.20653073 0 0 1 0.20233,-0.22611 0.24297734,0.20653073 0 0 1 0.27655,0.15951" /><path
   style="fill:#00ffff;fill-opacity:1"
   id="path4712-519"
   sodipodi:type="arc"
   sodipodi:cx="133.72844"
   sodipodi:cy="216.29944"
   sodipodi:rx="0.24297734"
   sodipodi:ry="0.20653073"
   sodipodi:start="0"
   sodipodi:end="6.066939"
   sodipodi:open="true"
   d="m 133.97142,216.29944 a 0.24297734,0.20653073 0 0 1 -0.22985,0.20623 0.24297734,0.20653073 0 0 1 -0.25469,-0.18394 0.24297734,0.20653073 0 0 1 0.20232,-0.22611 0.24297734,0.20653073 0 0 1 0.27656,0.1595" /><path
   style="fill:#00ffff;fill-opacity:1"
   id="path4712-8"
   sodipodi:type="arc"
   sodipodi:cx="137.17108"
   sodipodi:cy="216.29944"
   sodipodi:rx="0.24297734"
   sodipodi:ry="0.20653073"
   sodipodi:start="0"
   sodipodi:end="6.066939"
   sodipodi:open="true"
   d="m 137.41406,216.29944 a 0.24297734,0.20653073 0 0 1 -0.22985,0.20623 0.24297734,0.20653073 0 0 1 -0.25469,-0.18394 0.24297734,0.20653073 0 0 1 0.20233,-0.22611 0.24297734,0.20653073 0 0 1 0.27655,0.1595" /><path
   style="fill:#00ffff;fill-opacity:1"
   id="path4712-2"
   sodipodi:type="arc"
   sodipodi:cx="135.41019"
   sodipodi:cy="216.27966"
   sodipodi:rx="0.24297734"
   sodipodi:ry="0.20653073"
   sodipodi:start="0"
   sodipodi:end="6.066939"
   sodipodi:open="true"
   d="m 135.65316,216.27966 a 0.24297734,0.20653073 0 0 1 -0.22984,0.20623 0.24297734,0.20653073 0 0 1 -0.25469,-0.18394 0.24297734,0.20653073 0 0 1 0.20232,-0.22611 0.24297734,0.20653073 0 0 1 0.27656,0.15951" /><path
   style="fill:#00ffff;fill-opacity:1"
   id="path4712-20"
   sodipodi:type="arc"
   sodipodi:cx="138.89238"
   sodipodi:cy="216.29945"
   sodipodi:rx="0.24297734"
   sodipodi:ry="0.20653073"
   sodipodi:start="0"
   sodipodi:end="6.066939"
   sodipodi:open="true"
   d="m 139.13536,216.29945 a 0.24297734,0.20653073 0 0 1 -0.22985,0.20623 0.24297734,0.20653073 0 0 1 -0.25469,-0.18394 0.24297734,0.20653073 0 0 1 0.20233,-0.22611 0.24297734,0.20653073 0 0 1 0.27655,0.15951" /><path
   style="fill:#00ffff;fill-opacity:1"
   id="path4712-7"
   sodipodi:type="arc"
   sodipodi:cx="137.92291"
   sodipodi:cy="216.31923"
   sodipodi:rx="0.24297734"
   sodipodi:ry="0.20653073"
   sodipodi:start="0"
   sodipodi:end="6.066939"
   sodipodi:open="true"
   d="m 138.16589,216.31923 a 0.24297734,0.20653073 0 0 1 -0.22985,0.20623 0.24297734,0.20653073 0 0 1 -0.25469,-0.18394 0.24297734,0.20653073 0 0 1 0.20233,-0.22611 0.24297734,0.20653073 0 0 1 0.27655,0.1595" /><path
   style="fill:#00ffff;fill-opacity:1"
   id="path4712-6"
   sodipodi:type="arc"
   sodipodi:cx="140.73241"
   sodipodi:cy="216.29944"
   sodipodi:rx="0.24297734"
   sodipodi:ry="0.20653073"
   sodipodi:start="0"
   sodipodi:end="6.066939"
   sodipodi:open="true"
   d="m 140.97538,216.29944 a 0.24297734,0.20653073 0 0 1 -0.22984,0.20623 0.24297734,0.20653073 0 0 1 -0.25469,-0.18394 0.24297734,0.20653073 0 0 1 0.20232,-0.22611 0.24297734,0.20653073 0 0 1 0.27655,0.1595" /><path
   style="fill:#00ffff;fill-opacity:1"
   id="path4712-22"
   sodipodi:type="arc"
   sodipodi:cx="132.81831"
   sodipodi:cy="216.29945"
   sodipodi:rx="0.24297734"
   sodipodi:ry="0.20653073"
   sodipodi:start="0"
   sodipodi:end="6.066939"
   sodipodi:open="true"
   d="m 133.06129,216.29945 a 0.24297734,0.20653073 0 0 1 -0.22985,0.20623 0.24297734,0.20653073 0 0 1 -0.25468,-0.18394 0.24297734,0.20653073 0 0 1 0.20232,-0.22611 0.24297734,0.20653073 0 0 1 0.27655,0.15951" /><path
   style="fill:#00ffff;fill-opacity:1"
   id="path4712-73"
   sodipodi:type="arc"
   sodipodi:cx="139.78273"
   sodipodi:cy="216.29944"
   sodipodi:rx="0.24297734"
   sodipodi:ry="0.20653073"
   sodipodi:start="0"
   sodipodi:end="6.066939"
   sodipodi:open="true"
   d="m 140.02571,216.29944 a 0.24297734,0.20653073 0 0 1 -0.22985,0.20623 0.24297734,0.20653073 0 0 1 -0.25469,-0.18394 0.24297734,0.20653073 0 0 1 0.20233,-0.22611 0.24297734,0.20653073 0 0 1 0.27655,0.1595" /><path
   style="fill:#00ffff;fill-opacity:1"
   id="path4712-220"
   sodipodi:type="arc"
   sodipodi:cx="142.73071"
   sodipodi:cy="216.31923"
   sodipodi:rx="0.24297734"
   sodipodi:ry="0.20653073"
   sodipodi:start="0"
   sodipodi:end="6.066939"
   sodipodi:open="true"
   d="m 142.97369,216.31923 a 0.24297734,0.20653073 0 0 1 -0.22985,0.20623 0.24297734,0.20653073 0 0 1 -0.25469,-0.18394 0.24297734,0.20653073 0 0 1 0.20233,-0.22611 0.24297734,0.20653073 0 0 1 0.27655,0.1595" /><path
   style="fill:#00ffff;fill-opacity:1"
   id="path4712-92"
   sodipodi:type="arc"
   sodipodi:cx="143.81891"
   sodipodi:cy="216.27966"
   sodipodi:rx="0.24297734"
   sodipodi:ry="0.20653073"
   sodipodi:start="0"
   sodipodi:end="6.066939"
   sodipodi:open="true"
   d="m 144.06189,216.27966 a 0.24297734,0.20653073 0 0 1 -0.22985,0.20623 0.24297734,0.20653073 0 0 1 -0.25469,-0.18394 0.24297734,0.20653073 0 0 1 0.20232,-0.22611 0.24297734,0.20653073 0 0 1 0.27656,0.15951" /><path
   style="fill:#00ffff;fill-opacity:1"
   id="path4712-1"
   sodipodi:type="arc"
   sodipodi:cx="145.99529"
   sodipodi:cy="216.27966"
   sodipodi:rx="0.24297734"
   sodipodi:ry="0.20653073"
   sodipodi:start="0"
   sodipodi:end="6.066939"
   sodipodi:open="true"
   d="m 146.23826,216.27966 a 0.24297734,0.20653073 0 0 1 -0.22985,0.20623 0.24297734,0.20653073 0 0 1 -0.25468,-0.18394 0.24297734,0.20653073 0 0 1 0.20232,-0.22611 0.24297734,0.20653073 0 0 1 0.27655,0.15951" /><path
   style="fill:#00ffff;fill-opacity:1"
   id="path4712-49"
   sodipodi:type="arc"
   sodipodi:cx="144.96646"
   sodipodi:cy="216.29944"
   sodipodi:rx="0.24297734"
   sodipodi:ry="0.20653073"
   sodipodi:start="0"
   sodipodi:end="6.066939"
   sodipodi:open="true"
   d="m 145.20944,216.29944 a 0.24297734,0.20653073 0 0 1 -0.22985,0.20623 0.24297734,0.20653073 0 0 1 -0.25469,-0.18394 0.24297734,0.20653073 0 0 1 0.20233,-0.22611 0.24297734,0.20653073 0 0 1 0.27655,0.1595" /><path
   style="fill:#00ffff;fill-opacity:1"
   id="path4712-17"
   sodipodi:type="arc"
   sodipodi:cx="141.70189"
   sodipodi:cy="216.27965"
   sodipodi:rx="0.24297734"
   sodipodi:ry="0.20653073"
   sodipodi:start="0"
   sodipodi:end="6.066939"
   sodipodi:open="true"
   d="m 141.94487,216.27965 a 0.24297734,0.20653073 0 0 1 -0.22985,0.20623 0.24297734,0.20653073 0 0 1 -0.25469,-0.18394 0.24297734,0.20653073 0 0 1 0.20232,-0.22611 0.24297734,0.20653073 0 0 1 0.27656,0.1595" /><path
   style="fill:#00ffff;fill-opacity:1"
   id="path4712-3"
   sodipodi:type="arc"
   sodipodi:cx="146.91304"
   sodipodi:cy="216.32057"
   sodipodi:rx="0.24297734"
   sodipodi:ry="0.20653073"
   sodipodi:start="0"
   sodipodi:end="6.066939"
   sodipodi:open="true"
   d="m 147.15602,216.32057 a 0.24297734,0.20653073 0 0 1 -0.22985,0.20623 0.24297734,0.20653073 0 0 1 -0.25469,-0.18394 0.24297734,0.20653073 0 0 1 0.20233,-0.22611 0.24297734,0.20653073 0 0 1 0.27655,0.15951" /><path
   style="fill:#00ffff;fill-opacity:1"
   id="path4712-207"
   sodipodi:type="arc"
   sodipodi:cx="147.73953"
   sodipodi:cy="216.31293"
   sodipodi:rx="0.24297734"
   sodipodi:ry="0.20653073"
   sodipodi:start="0"
   sodipodi:end="6.066939"
   sodipodi:open="true"
   d="m 147.98251,216.31293 a 0.24297734,0.20653073 0 0 1 -0.22985,0.20623 0.24297734,0.20653073 0 0 1 -0.25469,-0.18395 0.24297734,0.20653073 0 0 1 0.20233,-0.2261 0.24297734,0.20653073 0 0 1 0.27655,0.1595" /><path
   style="fill:#00ffff;fill-opacity:1"
   id="path4712-35"
   sodipodi:type="arc"
   sodipodi:cx="148.6465"
   sodipodi:cy="216.31923"
   sodipodi:rx="0.24297734"
   sodipodi:ry="0.20653073"
   sodipodi:start="0"
   sodipodi:end="6.066939"
   sodipodi:open="true"
   d="m 148.88948,216.31923 a 0.24297734,0.20653073 0 0 1 -0.22985,0.20623 0.24297734,0.20653073 0 0 1 -0.25469,-0.18394 0.24297734,0.20653073 0 0 1 0.20232,-0.22611 0.24297734,0.20653073 0 0 1 0.27656,0.1595" /><path
   style="fill:#00ffff;fill-opacity:1"
   id="path4712-83"
   sodipodi:type="arc"
   sodipodi:cx="149.65431"
   sodipodi:cy="216.29047"
   sodipodi:rx="0.24297734"
   sodipodi:ry="0.20653073"
   sodipodi:start="0"
   sodipodi:end="6.066939"
   sodipodi:open="true"
   d="m 149.89729,216.29047 a 0.24297734,0.20653073 0 0 1 -0.22985,0.20623 0.24297734,0.20653073 0 0 1 -0.25469,-0.18395 0.24297734,0.20653073 0 0 1 0.20233,-0.2261 0.24297734,0.20653073 0 0 1 0.27655,0.1595" /><path
   style="fill:#00ffff;fill-opacity:1"
   id="path4712-45"
   sodipodi:type="arc"
   sodipodi:cx="150.6376"
   sodipodi:cy="216.29048"
   sodipodi:rx="0.24297734"
   sodipodi:ry="0.20653073"
   sodipodi:start="0"
   sodipodi:end="6.066939"
   sodipodi:open="true"
   d="m 150.88058,216.29048 a 0.24297734,0.20653073 0 0 1 -0.22985,0.20623 0.24297734,0.20653073 0 0 1 -0.25468,-0.18394 0.24297734,0.20653073 0 0 1 0.20232,-0.22611 0.24297734,0.20653073 0 0 1 0.27655,0.15951" /><path
   style="fill:#00ffff;fill-opacity:1"
   id="path4712-36"
   sodipodi:type="arc"
   sodipodi:cx="151.64517"
   sodipodi:cy="216.33904"
   sodipodi:rx="0.24297734"
   sodipodi:ry="0.20653073"
   sodipodi:start="0"
   sodipodi:end="6.066939"
   sodipodi:open="true"
   d="m 151.88815,216.33904 a 0.24297734,0.20653073 0 0 1 -0.22985,0.20622 0.24297734,0.20653073 0 0 1 -0.25469,-0.18394 0.24297734,0.20653073 0 0 1 0.20233,-0.22611 0.24297734,0.20653073 0 0 1 0.27655,0.15951" /><path
   style="fill:#00ffff;fill-opacity:1"
   id="path4712-26"
   sodipodi:type="arc"
   sodipodi:cx="152.66489"
   sodipodi:cy="216.32689"
   sodipodi:rx="0.24297734"
   sodipodi:ry="0.20653073"
   sodipodi:start="0"
   sodipodi:end="6.066939"
   sodipodi:open="true"
   d="m 152.90786,216.32689 a 0.24297734,0.20653073 0 0 1 -0.22984,0.20623 0.24297734,0.20653073 0 0 1 -0.25469,-0.18394 0.24297734,0.20653073 0 0 1 0.20232,-0.22611 0.24297734,0.20653073 0 0 1 0.27655,0.1595" /><path
   style="fill:#00ffff;fill-opacity:1"
   id="path4712-71"
   sodipodi:type="arc"
   sodipodi:cx="153.72101"
   sodipodi:cy="216.29048"
   sodipodi:rx="0.24297734"
   sodipodi:ry="0.20653073"
   sodipodi:start="0"
   sodipodi:end="6.066939"
   sodipodi:open="true"
   d="m 153.96399,216.29048 a 0.24297734,0.20653073 0 0 1 -0.22985,0.20623 0.24297734,0.20653073 0 0 1 -0.25469,-0.18394 0.24297734,0.20653073 0 0 1 0.20232,-0.22611 0.24297734,0.20653073 0 0 1 0.27656,0.15951" /><path
   style="fill:#00ffff;fill-opacity:1"
   id="path4712-30"
   sodipodi:type="arc"
   sodipodi:cx="154.82568"
   sodipodi:cy="216.30263"
   sodipodi:rx="0.24297734"
   sodipodi:ry="0.20653073"
   sodipodi:start="0"
   sodipodi:end="6.066939"
   sodipodi:open="true"
   d="m 155.06866,216.30263 a 0.24297734,0.20653073 0 0 1 -0.22985,0.20623 0.24297734,0.20653073 0 0 1 -0.25468,-0.18395 0.24297734,0.20653073 0 0 1 0.20232,-0.2261 0.24297734,0.20653073 0 0 1 0.27655,0.1595" /><path
   style="fill:#00ffff;fill-opacity:1"
   id="path4712-77"
   sodipodi:type="arc"
   sodipodi:cx="155.97893"
   sodipodi:cy="216.30261"
   sodipodi:rx="0.24297734"
   sodipodi:ry="0.20653073"
   sodipodi:start="0"
   sodipodi:end="6.066939"
   sodipodi:open="true"
   d="m 156.2219,216.30261 a 0.24297734,0.20653073 0 0 1 -0.22984,0.20623 0.24297734,0.20653073 0 0 1 -0.25469,-0.18394 0.24297734,0.20653073 0 0 1 0.20232,-0.22611 0.24297734,0.20653073 0 0 1 0.27656,0.15951" /><path
   style="fill:#00ffff;fill-opacity:1"
   id="path4712-223"
   sodipodi:type="arc"
   sodipodi:cx="156.86511"
   sodipodi:cy="216.30261"
   sodipodi:rx="0.24297734"
   sodipodi:ry="0.20653073"
   sodipodi:start="0"
   sodipodi:end="6.066939"
   sodipodi:open="true"
   d="m 157.10809,216.30261 a 0.24297734,0.20653073 0 0 1 -0.22985,0.20623 0.24297734,0.20653073 0 0 1 -0.25469,-0.18394 0.24297734,0.20653073 0 0 1 0.20233,-0.22611 0.24297734,0.20653073 0 0 1 0.27655,0.15951" /><path
   style="fill:#00ffff;fill-opacity:1"
   id="path4712-223-6"
   sodipodi:type="arc"
   sodipodi:cx="157.76343"
   sodipodi:cy="216.27834"
   sodipodi:rx="0.24297734"
   sodipodi:ry="0.20653073"
   sodipodi:start="0"
   sodipodi:end="6.066939"
   sodipodi:open="true"
   d="m 158.00641,216.27834 a 0.24297734,0.20653073 0 0 1 -0.22985,0.20622 0.24297734,0.20653073 0 0 1 -0.25469,-0.18394 0.24297734,0.20653073 0 0 1 0.20232,-0.2261 0.24297734,0.20653073 0 0 1 0.27656,0.1595" /><path
   style="fill:#00ffff;fill-opacity:1"
   id="path4712-223-0"
   sodipodi:type="arc"
   sodipodi:cx="158.62532"
   sodipodi:cy="216.29047"
   sodipodi:rx="0.24297734"
   sodipodi:ry="0.20653073"
   sodipodi:start="0"
   sodipodi:end="6.066939"
   sodipodi:open="true"
   d="m 158.8683,216.29047 a 0.24297734,0.20653073 0 0 1 -0.22985,0.20623 0.24297734,0.20653073 0 0 1 -0.25469,-0.18395 0.24297734,0.20653073 0 0 1 0.20233,-0.2261 0.24297734,0.20653073 0 0 1 0.27655,0.1595" /><path
   style="fill:#00ffff;fill-opacity:1"
   id="path4712-223-09"
   sodipodi:type="arc"
   sodipodi:cx="159.52364"
   sodipodi:cy="216.31476"
   sodipodi:rx="0.24297734"
   sodipodi:ry="0.20653073"
   sodipodi:start="0"
   sodipodi:end="6.066939"
   sodipodi:open="true"
   d="m 159.76661,216.31476 a 0.24297734,0.20653073 0 0 1 -0.22984,0.20623 0.24297734,0.20653073 0 0 1 -0.25469,-0.18394 0.24297734,0.20653073 0 0 1 0.20232,-0.22611 0.24297734,0.20653073 0 0 1 0.27655,0.1595" /><path
   style="fill:#00ffff;fill-opacity:1"
   id="path4712-223-8"
   sodipodi:type="arc"
   sodipodi:cx="160.54333"
   sodipodi:cy="216.29047"
   sodipodi:rx="0.24297734"
   sodipodi:ry="0.20653073"
   sodipodi:start="0"
   sodipodi:end="6.066939"
   sodipodi:open="true"
   d="m 160.78631,216.29047 a 0.24297734,0.20653073 0 0 1 -0.22985,0.20623 0.24297734,0.20653073 0 0 1 -0.25468,-0.18395 0.24297734,0.20653073 0 0 1 0.20232,-0.2261 0.24297734,0.20653073 0 0 1 0.27655,0.1595" /><path
   style="fill:#00ffff;fill-opacity:1"
   id="path4712-223-7"
   sodipodi:type="arc"
   sodipodi:cx="161.53877"
   sodipodi:cy="216.29047"
   sodipodi:rx="0.24297734"
   sodipodi:ry="0.20653073"
   sodipodi:start="0"
   sodipodi:end="6.066939"
   sodipodi:open="true"
   d="m 161.78175,216.29047 a 0.24297734,0.20653073 0 0 1 -0.22985,0.20623 0.24297734,0.20653073 0 0 1 -0.25469,-0.18395 0.24297734,0.20653073 0 0 1 0.20233,-0.2261 0.24297734,0.20653073 0 0 1 0.27655,0.1595" /><path
   style="fill:#00ffff;fill-opacity:1"
   id="path4712-223-2"
   sodipodi:type="arc"
   sodipodi:cx="162.61917"
   sodipodi:cy="216.2662"
   sodipodi:rx="0.24297734"
   sodipodi:ry="0.20653073"
   sodipodi:start="0"
   sodipodi:end="6.066939"
   sodipodi:open="true"
   d="m 162.86215,216.2662 a 0.24297734,0.20653073 0 0 1 -0.22985,0.20623 0.24297734,0.20653073 0 0 1 -0.25469,-0.18394 0.24297734,0.20653073 0 0 1 0.20233,-0.22611 0.24297734,0.20653073 0 0 1 0.27655,0.15951" /><path
   style="fill:#00ffff;fill-opacity:1"
   id="path4712-223-20"
   sodipodi:type="arc"
   sodipodi:cx="163.63889"
   sodipodi:cy="216.29048"
   sodipodi:rx="0.24297734"
   sodipodi:ry="0.20653073"
   sodipodi:start="0"
   sodipodi:end="6.066939"
   sodipodi:open="true"
   d="m 163.88186,216.29048 a 0.24297734,0.20653073 0 0 1 -0.22985,0.20623 0.24297734,0.20653073 0 0 1 -0.25468,-0.18394 0.24297734,0.20653073 0 0 1 0.20232,-0.22611 0.24297734,0.20653073 0 0 1 0.27655,0.15951" /><path
   style="fill:#00ffff;fill-opacity:1"
   id="path4712-223-77"
   sodipodi:type="arc"
   sodipodi:cx="164.69501"
   sodipodi:cy="216.30261"
   sodipodi:rx="0.24297734"
   sodipodi:ry="0.20653073"
   sodipodi:start="0"
   sodipodi:end="6.066939"
   sodipodi:open="true"
   d="m 164.93798,216.30261 a 0.24297734,0.20653073 0 0 1 -0.22984,0.20623 0.24297734,0.20653073 0 0 1 -0.25469,-0.18394 0.24297734,0.20653073 0 0 1 0.20232,-0.22611 0.24297734,0.20653073 0 0 1 0.27656,0.15951" /><path
   style="fill:#00ffff;fill-opacity:1"
   id="path4712-223-5"
   sodipodi:type="arc"
   sodipodi:cx="165.71472"
   sodipodi:cy="216.29048"
   sodipodi:rx="0.24297734"
   sodipodi:ry="0.20653073"
   sodipodi:start="0"
   sodipodi:end="6.066939"
   sodipodi:open="true"
   d="m 165.9577,216.29048 a 0.24297734,0.20653073 0 0 1 -0.22985,0.20623 0.24297734,0.20653073 0 0 1 -0.25469,-0.18394 0.24297734,0.20653073 0 0 1 0.20233,-0.22611 0.24297734,0.20653073 0 0 1 0.27655,0.15951" /><path
   style="fill:#00ffff;fill-opacity:1"
   id="path4712-223-3"
   sodipodi:type="arc"
   sodipodi:cx="166.80727"
   sodipodi:cy="216.26619"
   sodipodi:rx="0.24297734"
   sodipodi:ry="0.20653073"
   sodipodi:start="0"
   sodipodi:end="6.066939"
   sodipodi:open="true"
   d="m 167.05024,216.26619 a 0.24297734,0.20653073 0 0 1 -0.22984,0.20623 0.24297734,0.20653073 0 0 1 -0.25469,-0.18394 0.24297734,0.20653073 0 0 1 0.20232,-0.22611 0.24297734,0.20653073 0 0 1 0.27655,0.15951" /><path
   style="fill:#00ffff;fill-opacity:1"
   id="path4712-223-65"
   sodipodi:type="arc"
   sodipodi:cx="167.87553"
   sodipodi:cy="216.29047"
   sodipodi:rx="0.24297734"
   sodipodi:ry="0.20653073"
   sodipodi:start="0"
   sodipodi:end="6.066939"
   sodipodi:open="true"
   d="m 168.11851,216.29047 a 0.24297734,0.20653073 0 0 1 -0.22985,0.20623 0.24297734,0.20653073 0 0 1 -0.25468,-0.18395 0.24297734,0.20653073 0 0 1 0.20232,-0.2261 0.24297734,0.20653073 0 0 1 0.27655,0.1595" /><path
   style="fill:#00ffff;fill-opacity:1"
   id="path4712-223-1"
   sodipodi:type="arc"
   sodipodi:cx="168.79813"
   sodipodi:cy="216.2662"
   sodipodi:rx="0.24297734"
   sodipodi:ry="0.20653073"
   sodipodi:start="0"
   sodipodi:end="6.066939"
   sodipodi:open="true"
   d="m 169.0411,216.2662 a 0.24297734,0.20653073 0 0 1 -0.22984,0.20623 0.24297734,0.20653073 0 0 1 -0.25469,-0.18394 0.24297734,0.20653073 0 0 1 0.20232,-0.22611 0.24297734,0.20653073 0 0 1 0.27655,0.15951" /><path
   style="fill:#00ffff;fill-opacity:1"
   id="path4712-223-4"
   sodipodi:type="arc"
   sodipodi:cx="169.75713"
   sodipodi:cy="216.27834"
   sodipodi:rx="0.24297734"
   sodipodi:ry="0.20653073"
   sodipodi:start="0"
   sodipodi:end="6.066939"
   sodipodi:open="true"
   d="m 170.0001,216.27834 a 0.24297734,0.20653073 0 0 1 -0.22984,0.20622 0.24297734,0.20653073 0 0 1 -0.25469,-0.18394 0.24297734,0.20653073 0 0 1 0.20232,-0.2261 0.24297734,0.20653073 0 0 1 0.27655,0.1595" /><path
   style="fill:#00ffff;fill-opacity:1"
   id="path4712-223-090"
   sodipodi:type="arc"
   sodipodi:cx="170.71614"
   sodipodi:cy="216.30261"
   sodipodi:rx="0.24297734"
   sodipodi:ry="0.20653073"
   sodipodi:start="0"
   sodipodi:end="6.066939"
   sodipodi:open="true"
   d="m 170.95912,216.30261 a 0.24297734,0.20653073 0 0 1 -0.22985,0.20623 0.24297734,0.20653073 0 0 1 -0.25469,-0.18394 0.24297734,0.20653073 0 0 1 0.20233,-0.22611 0.24297734,0.20653073 0 0 1 0.27655,0.15951" /><path
   style="fill:#00ffff;fill-opacity:1"
   id="path4712-223-50"
   sodipodi:type="arc"
   sodipodi:cx="171.74799"
   sodipodi:cy="216.29048"
   sodipodi:rx="0.24297734"
   sodipodi:ry="0.20653073"
   sodipodi:start="0"
   sodipodi:end="6.066939"
   sodipodi:open="true"
   d="m 171.99096,216.29048 a 0.24297734,0.20653073 0 0 1 -0.22984,0.20623 0.24297734,0.20653073 0 0 1 -0.25469,-0.18394 0.24297734,0.20653073 0 0 1 0.20232,-0.22611 0.24297734,0.20653073 0 0 1 0.27655,0.15951" /><path
   style="fill:#00ffff;fill-opacity:1"
   id="path4712-223-9"
   sodipodi:type="arc"
   sodipodi:cx="172.9498"
   sodipodi:cy="216.27835"
   sodipodi:rx="0.24297734"
   sodipodi:ry="0.20653073"
   sodipodi:start="0"
   sodipodi:end="6.066939"
   sodipodi:open="true"
   d="m 173.19278,216.27835 a 0.24297734,0.20653073 0 0 1 -0.22985,0.20623 0.24297734,0.20653073 0 0 1 -0.25469,-0.18394 0.24297734,0.20653073 0 0 1 0.20232,-0.22611 0.24297734,0.20653073 0 0 1 0.27656,0.15951" /><path
   style="fill:#00ffff;fill-opacity:1"
   id="path4712-223-69"
   sodipodi:type="arc"
   sodipodi:cx="174.07877"
   sodipodi:cy="216.29048"
   sodipodi:rx="0.24297734"
   sodipodi:ry="0.20653073"
   sodipodi:start="0"
   sodipodi:end="6.066939"
   sodipodi:open="true"
   d="m 174.32174,216.29048 a 0.24297734,0.20653073 0 0 1 -0.22984,0.20623 0.24297734,0.20653073 0 0 1 -0.25469,-0.18394 0.24297734,0.20653073 0 0 1 0.20232,-0.22611 0.24297734,0.20653073 0 0 1 0.27655,0.15951" /><path
   style="fill:#00ffff;fill-opacity:1"
   id="path5031"
   sodipodi:type="arc"
   sodipodi:cx="184.41357"
   sodipodi:cy="95.901924"
   sodipodi:rx="1.4231825"
   sodipodi:ry="1.3888888"
   sodipodi:start="0"
   sodipodi:end="6.066939"
   sodipodi:open="true"
   d="m 185.83676,95.901924 a 1.4231825,1.3888888 0 0 1 -1.34628,1.38686 1.4231825,1.3888888 0 0 1 -1.49178,-1.236981 1.4231825,1.3888888 0 0 1 1.18507,-1.520541 1.4231825,1.3888888 0 0 1 1.61984,1.072655" /><path
   style="fill:#00ffff;fill-opacity:1"
   id="path5031-3"
   sodipodi:type="arc"
   sodipodi:cx="181.96158"
   sodipodi:cy="101.16598"
   sodipodi:rx="1.4231825"
   sodipodi:ry="1.3888888"
   sodipodi:start="0"
   sodipodi:end="6.066939"
   sodipodi:open="true"
   d="m 183.38476,101.16598 a 1.4231825,1.3888888 0 0 1 -1.34628,1.38686 1.4231825,1.3888888 0 0 1 -1.49177,-1.23698 1.4231825,1.3888888 0 0 1 1.18506,-1.520545 1.4231825,1.3888888 0 0 1 1.61984,1.072655" /><path
   style="fill:#00ffff;fill-opacity:1"
   id="path5031-5"
   sodipodi:type="arc"
   sodipodi:cx="179.2867"
   sodipodi:cy="106.24142"
   sodipodi:rx="1.4231825"
   sodipodi:ry="1.3888888"
   sodipodi:start="0"
   sodipodi:end="6.066939"
   sodipodi:open="true"
   d="m 180.70988,106.24142 a 1.4231825,1.3888888 0 0 1 -1.34628,1.38686 1.4231825,1.3888888 0 0 1 -1.49177,-1.23698 1.4231825,1.3888888 0 0 1 1.18506,-1.52055 1.4231825,1.3888888 0 0 1 1.61984,1.07266" /><path
   style="fill:#00ffff;fill-opacity:1"
   id="path5031-4"
   sodipodi:type="arc"
   sodipodi:cx="176.44034"
   sodipodi:cy="111.21399"
   sodipodi:rx="1.4231825"
   sodipodi:ry="1.3888888"
   sodipodi:start="0"
   sodipodi:end="6.066939"
   sodipodi:open="true"
   d="m 177.86352,111.21399 a 1.4231825,1.3888888 0 0 1 -1.34628,1.38686 1.4231825,1.3888888 0 0 1 -1.49177,-1.23698 1.4231825,1.3888888 0 0 1 1.18506,-1.52054 1.4231825,1.3888888 0 0 1 1.61984,1.07265" /><path
   style="fill:#00ffff;fill-opacity:1"
   id="path5031-2"
   sodipodi:type="arc"
   sodipodi:cx="173.64902"
   sodipodi:cy="116.76879"
   sodipodi:rx="1.4231825"
   sodipodi:ry="1.3888888"
   sodipodi:start="0"
   sodipodi:end="6.066939"
   sodipodi:open="true"
   d="m 175.0722,116.76879 a 1.4231825,1.3888888 0 0 1 -1.34628,1.38686 1.4231825,1.3888888 0 0 1 -1.49177,-1.23698 1.4231825,1.3888888 0 0 1 1.18506,-1.52054 1.4231825,1.3888888 0 0 1 1.61984,1.07265" /><path
   style="fill:#00ffff;fill-opacity:1"
   id="path5031-55"
   sodipodi:type="arc"
   sodipodi:cx="170.75209"
   sodipodi:cy="121.83844"
   sodipodi:rx="1.4231825"
   sodipodi:ry="1.3888888"
   sodipodi:start="0"
   sodipodi:end="6.066939"
   sodipodi:open="true"
   d="m 172.17527,121.83844 a 1.4231825,1.3888888 0 0 1 -1.34628,1.38686 1.4231825,1.3888888 0 0 1 -1.49177,-1.23698 1.4231825,1.3888888 0 0 1 1.18506,-1.52054 1.4231825,1.3888888 0 0 1 1.61985,1.07265" /><path
   style="fill:#00ffff;fill-opacity:1"
   id="path5031-28"
   sodipodi:type="arc"
   sodipodi:cx="168.1337"
   sodipodi:cy="126.68523"
   sodipodi:rx="1.4231825"
   sodipodi:ry="1.3888888"
   sodipodi:start="0"
   sodipodi:end="6.066939"
   sodipodi:open="true"
   d="m 169.55688,126.68523 a 1.4231825,1.3888888 0 0 1 -1.34628,1.38686 1.4231825,1.3888888 0 0 1 -1.49177,-1.23698 1.4231825,1.3888888 0 0 1 1.18506,-1.52055 1.4231825,1.3888888 0 0 1 1.61984,1.07266" /><path
   style="fill:#00ffff;fill-opacity:1"
   id="path5031-7"
   sodipodi:type="arc"
   sodipodi:cx="112.53482"
   sodipodi:cy="98.105858"
   sodipodi:rx="1.4231825"
   sodipodi:ry="1.3888888"
   sodipodi:start="0"
   sodipodi:end="6.066939"
   sodipodi:open="true"
   d="m 113.958,98.105858 a 1.4231825,1.3888888 0 0 1 -1.34628,1.38686 1.4231825,1.3888888 0 0 1 -1.49177,-1.236982 1.4231825,1.3888888 0 0 1 1.18506,-1.52054 1.4231825,1.3888888 0 0 1 1.61985,1.072655" /><path
   style="fill:#00ffff;fill-opacity:1"
   id="path5031-0"
   sodipodi:type="arc"
   sodipodi:cx="114.5404"
   sodipodi:cy="102.7298"
   sodipodi:rx="1.4231825"
   sodipodi:ry="1.3888888"
   sodipodi:start="0"
   sodipodi:end="6.066939"
   sodipodi:open="true"
   d="m 115.96358,102.7298 a 1.4231825,1.3888888 0 0 1 -1.34628,1.38686 1.4231825,1.3888888 0 0 1 -1.49177,-1.23698 1.4231825,1.3888888 0 0 1 1.18506,-1.52054 1.4231825,1.3888888 0 0 1 1.61984,1.07265" /><path
   style="fill:#00ffff;fill-opacity:1"
   id="path5031-283"
   sodipodi:type="arc"
   sodipodi:cx="116.93594"
   sodipodi:cy="107.5766"
   sodipodi:rx="1.4231825"
   sodipodi:ry="1.3888888"
   sodipodi:start="0"
   sodipodi:end="6.066939"
   sodipodi:open="true"
   d="m 118.35913,107.5766 a 1.4231825,1.3888888 0 0 1 -1.34628,1.38686 1.4231825,1.3888888 0 0 1 -1.49178,-1.23698 1.4231825,1.3888888 0 0 1 1.18507,-1.52054 1.4231825,1.3888888 0 0 1 1.61984,1.07265" /><path
   style="fill:#00ffff;fill-opacity:1"
   id="path5031-51"
   sodipodi:type="arc"
   sodipodi:cx="119.10864"
   sodipodi:cy="112.31197"
   sodipodi:rx="1.4231825"
   sodipodi:ry="1.3888888"
   sodipodi:start="0"
   sodipodi:end="6.066939"
   sodipodi:open="true"
   d="m 120.53183,112.31197 a 1.4231825,1.3888888 0 0 1 -1.34629,1.38686 1.4231825,1.3888888 0 0 1 -1.49177,-1.23698 1.4231825,1.3888888 0 0 1 1.18506,-1.52054 1.4231825,1.3888888 0 0 1 1.61985,1.07266" /><path
   style="fill:#00ffff;fill-opacity:1"
   id="path5031-6"
   sodipodi:type="arc"
   sodipodi:cx="121.67132"
   sodipodi:cy="117.04736"
   sodipodi:rx="1.4231825"
   sodipodi:ry="1.3888888"
   sodipodi:start="0"
   sodipodi:end="6.066939"
   sodipodi:open="true"
   d="m 123.0945,117.04736 a 1.4231825,1.3888888 0 0 1 -1.34628,1.38686 1.4231825,1.3888888 0 0 1 -1.49177,-1.23698 1.4231825,1.3888888 0 0 1 1.18506,-1.52054 1.4231825,1.3888888 0 0 1 1.61984,1.07266" /><path
   style="fill:#00ffff;fill-opacity:1"
   id="path5031-22"
   sodipodi:type="arc"
   sodipodi:cx="124.28969"
   sodipodi:cy="121.33706"
   sodipodi:rx="1.4231825"
   sodipodi:ry="1.3888888"
   sodipodi:start="0"
   sodipodi:end="6.066939"
   sodipodi:open="true"
   d="m 125.71287,121.33706 a 1.4231825,1.3888888 0 0 1 -1.34628,1.38686 1.4231825,1.3888888 0 0 1 -1.49177,-1.23698 1.4231825,1.3888888 0 0 1 1.18506,-1.52054 1.4231825,1.3888888 0 0 1 1.61984,1.07265" /><path
   style="fill:#00ffff;fill-opacity:1"
   id="path5031-22-5"
   sodipodi:type="arc"
   sodipodi:cx="127.24233"
   sodipodi:cy="125.62675"
   sodipodi:rx="1.4231825"
   sodipodi:ry="1.3888888"
   sodipodi:start="0"
   sodipodi:end="6.066939"
   sodipodi:open="true"
   d="m 128.66551,125.62675 a 1.4231825,1.3888888 0 0 1 -1.34628,1.38686 1.4231825,1.3888888 0 0 1 -1.49177,-1.23698 1.4231825,1.3888888 0 0 1 1.18506,-1.52055 1.4231825,1.3888888 0 0 1 1.61985,1.07266" /></svg>