<?xml version="1.0" encoding="UTF-8" standalone="no"?>
<!-- Generator: Adobe Illustrator 23.0.1, SVG Export Plug-In . SVG Version: 6.00 Build 0)  -->

<svg
   xmlns:dc="http://purl.org/dc/elements/1.1/"
   xmlns:cc="http://creativecommons.org/ns#"
   xmlns:rdf="http://www.w3.org/1999/02/22-rdf-syntax-ns#"
   xmlns:svg="http://www.w3.org/2000/svg"
   xmlns="http://www.w3.org/2000/svg"
   xmlns:sodipodi="http://sodipodi.sourceforge.net/DTD/sodipodi-0.dtd"
   xmlns:inkscape="http://www.inkscape.org/namespaces/inkscape"
   version="1.1"
   id="Layer_1"
   x="0px"
   y="0px"
   viewBox="0 0 300 500"
   style="enable-background:new 0 0 300 500;"
   xml:space="preserve"
   sodipodi:docname="male_hourglass_tshirtjeans.svg"
   inkscape:version="0.92.3 (2405546, 2018-03-11)"><metadata
   id="metadata848"><rdf:RDF><cc:Work
       rdf:about=""><dc:format>image/svg+xml</dc:format><dc:type
         rdf:resource="http://purl.org/dc/dcmitype/StillImage" /><dc:title></dc:title></cc:Work></rdf:RDF></metadata><defs
   id="defs846" /><sodipodi:namedview
   pagecolor="#ffffff"
   bordercolor="#666666"
   borderopacity="1"
   objecttolerance="10"
   gridtolerance="10"
   guidetolerance="10"
   inkscape:pageopacity="0"
   inkscape:pageshadow="2"
   inkscape:window-width="1920"
   inkscape:window-height="1001"
   id="namedview844"
   showgrid="false"
   showguides="false"
   inkscape:zoom="9.8225"
   inkscape:cx="170.71903"
   inkscape:cy="233.71087"
   inkscape:window-x="-9"
   inkscape:window-y="-9"
   inkscape:window-maximized="1"
   inkscape:current-layer="Layer_1" />
<style
   type="text/css"
   id="style815">
	.st0{fill:#03A1B5;}
	.st1{fill:#FAD2B4;}
	.st2{fill:#FBC59F;}
	.st3{opacity:0.14;fill:#422200;enable-background:new    ;}
</style>

<path
   style="fill:#4d4d4d;stroke:#000000;stroke-width:1px;stroke-linecap:butt;stroke-linejoin:miter;stroke-opacity:1"
   d="M 131.33113,91.65182 129.4986,91.957241 126.648,92.059048 124.8,92.7 l -10.67427,1.089768 -4.98854,1.425299 -4.68313,1.628914 -6.515653,5.497579 -4.17409,6.41385 -13.031306,44.18427 -1.425299,6.71927 27.895138,9.46805 3.76686,-10.89335 L 113.7,154.8 117.58717,167.09086 128.6,216.3 l 45.4,-0.5 11.7,-56.3 1.9,-5.4 2.2702,0.77401 6.61746,20.056 28.20056,-7.94095 -11.30059,-40.41741 -3.35963,-11.30059 -3.66506,-7.53372 -3.35963,-5.29397 -5.39578,-5.192161 -8.55179,-4.072283 -11.40239,-1.425299 c 0,0 -2.64699,0.101807 -3.15602,0.101807 -0.50904,0 -2.8506,-0.509035 -2.8506,-0.509035 l -1.62891,2.952405 -2.34157,1.934334 -3.76686,1.018071 -4.88674,0.101807 -7.02469,0.509035 -4.68312,-0.203614 c 0,0 -2.64699,-0.509035 -3.05421,-0.712649 -0.40723,-0.203614 -6.00662,-1.323492 -6.00662,-1.323492 l -3.86867,-1.119878 -2.23976,-1.221685 z"
   id="path850"
   inkscape:connector-curvature="0" /><path
   style="fill:#000080;stroke:#000000;stroke-width:1px;stroke-linecap:butt;stroke-linejoin:miter;stroke-opacity:1"
   d="m 128.6,216.3 -1.74838,1.6944 -3.05422,3.25783 -4.78493,6.61746 -4.47951,7.53372 -4.07228,11.70781 -1.73072,10.48613 -0.61085,11.80962 L 110.2,282.9 l 0.15887,11.95874 3.15602,30.94935 3.56325,33.79995 3.15602,24.63732 4.27589,36.85416 3.97048,38.07584 0.61084,7.43192 1.52711,8.55179 19.85238,0.71265 L 147.8,283.1 l -0.2,-19 8.97928,-0.29242 -0.20361,26.46984 2.34156,186.51057 20.25961,-0.81446 4.98855,-60.98244 4.07228,-39.70476 1.11988,-14.04937 3.97047,-46.32222 0.81446,-15.88191 1.52711,-24.23008 0.20361,-5.7012 -0.50904,-9.77348 -1.22168,-9.26444 -2.34156,-7.53372 -2.34157,-6.82108 -5.19216,-9.16264 -5.49758,-6.92288 L 174.2,216.2 Z"
   id="path852"
   inkscape:connector-curvature="0" /><path
   style="fill:none;stroke:#000000;stroke-width:1px;stroke-linecap:butt;stroke-linejoin:miter;stroke-opacity:1"
   d="m 134.38534,224.51005 -0.40723,2.34157 -1.83253,1.93433 -2.9524,0.91626 -3.97048,0.50904 h -3.05421 l -1.93433,-0.30542 -1.62892,-0.50904 0.40723,-1.5271 3.05421,-4.17409 z"
   id="path854"
   inkscape:connector-curvature="0" /><path
   style="fill:none;stroke:#000000;stroke-width:1px;stroke-linecap:butt;stroke-linejoin:miter;stroke-opacity:1"
   d="m 122.16849,230.21125 1.83253,-3.46144 4.68312,0.71265 -1.01807,2.13795 z"
   id="path856"
   inkscape:connector-curvature="0" /><path
   style="fill:none;stroke:#000000;stroke-width:1px;stroke-linecap:butt;stroke-linejoin:miter;stroke-opacity:1"
   d="m 168.69432,224.61186 2.44337,3.86867 2.64699,1.52711 3.66505,0.81445 4.47951,0.10181 3.66506,-0.71265 -4.37771,-7.43192 z"
   id="path858"
   inkscape:connector-curvature="0" /><path
   style="fill:none;stroke:#000000;stroke-width:1px;stroke-linecap:butt;stroke-linejoin:miter;stroke-opacity:1"
   d="m 177.44973,230.82209 -1.83252,-3.86867 4.27589,-0.81445 2.03614,4.78493 z"
   id="path860"
   inkscape:connector-curvature="0" /></svg>