<?xml version="1.0" encoding="utf-8"?>
<!-- Generator: Adobe Illustrator 23.0.3, SVG Export Plug-In . SVG Version: 6.00 Build 0)  -->
<svg version="1.1" id="Layer_1" xmlns="http://www.w3.org/2000/svg" xmlns:xlink="http://www.w3.org/1999/xlink" x="0px" y="0px"
	 viewBox="0 0 300 500" style="enable-background:new 0 0 300 500;" xml:space="preserve">
<style type="text/css">
	.st0{fill:#00A9C0;}
	.st1{fill:#FCC6A0;}
	.st2{opacity:0.55;fill:#A3836B;stroke:#AF8165;stroke-miterlimit:10;enable-background:new    ;}
	.st3{fill:#FBC59F;}
</style>
<g id="Layer_3">
</g>
<g>
	<path class="st0" d="M196.6,282.6c-13.1,2.9-26.3,1.9-39.4,2.1c0-5.1,0-10.1,0-15.2c1.7-6.1,7.2-6.7,11.6-9.1
		c-4.8,2.7-10.1,4-15.4,4.8c-2.5,0-5.1,0-7.6,0c-4.9-1.7-10.1-3.4-15.2-5.5c4.6,2.5,9.7,2.7,13.5,5.9c-0.2,6.3-0.4,12.6-0.4,18.9
		c-13.2,0.2-26.5,0.6-39.6-1.9c-1.3-21-2.3-41.9-1.9-62.9c32.2,7.1,64.2,6.7,96.4,0.2C197.9,241.1,197.2,261.8,196.6,282.6z"/>
	<g>
		<path class="st1" d="M101.7,218.9c0-13.3,0-26.7,0-42.3c-4.9,6.9-5.3,13.2-7.1,18.5c-7.6,24.2-14.9,48.4-22.5,72.6
			c-1.5,5-0.9,8.6,2.9,11.8c3.4,2.9,7.1,6.1,4.6,11.2c-2.7,5.5-6.3,3.2-10.3,1.1c-2.7-1.5-3.6,1-4.4,3.2c-2.9,6.9-0.8,13,1.9,19.2
			c1.1,2.9,3.8,6.7-0.8,9.1c-4.6,2.5-8,0.2-10.7-3.2c-6.9-9-9.7-18.3-7.4-30.1c10.2-54.1,18.4-109,30.9-162.7
			c4.2-17.9,13.3-30.1,33.5-31.8c6.5-0.6,9.5-0.9,13.5-3.4c4.8-3.1,7.2-8.2,8.4-12.4c0.9-3.2,0.4-6.1,0.2-7.4
			c-0.6-4.6-2.5-7.6-1.9-7.8c0.6-0.2,1.9,2.1,4.2,4c4.9,4.4,11.4,4.6,12.4,4.6c0.4,0,8.6,0.2,13.9-5c0.8-0.8,2.1-2.1,2.5-1.7
			c0.6,0.4-0.8,2.7-1.1,5.7c-0.4,2.7-0.2,4.8,0.2,6.5c2.1,8,5.7,11.8,8.6,13.5c5.7,3.6,10.3,2.7,23.4,5.1
			c14.5,2.9,19.4,14.3,23.2,26.1c8.6,26.9,11.6,55.1,17.1,82.5c5.3,27.3,9.7,54.7,14.7,82.1c2.1,11.8,0.6,22.7-7.1,32.2
			c-2.7,3.4-5.7,6.3-10.5,3.8c-4.9-2.7-2.5-6.7-0.8-9.9c2.7-5.3,3.1-10.7,2.1-16.6c-0.8-4.6-1.1-7.6-6.9-5.1c-2.7,1.1-6.1,1.9-7.8-1
			c-1.9-3.2-1.5-7.2,1.7-9.5c7.8-5.3,5.9-11.2,3.6-18.9c-8.9-28-17.1-56.2-27.6-84c0,13.3,0,26.7,0,40c-2.5,2.9-5.7,3.6-9.1,4.4
			c-25.9,4.9-52,4.9-77.9,0C107.4,222.8,104.2,221.6,101.7,218.9z"/>
		<g>
			<path class="st1" d="M143.2,283.5c0,70.1,0.2,140.2,0.2,210.5c0,7.4-2.5,11.2-10.7,10.7c-6.3-0.4-12.6-0.2-19.6-3.2
				c21.2-14.9,8.2-33.9,6.1-50.7c-4-32-7.6-64-10.3-96.2c-1.9-24.2-3.6-48.6-5.5-72.8C116.9,279.7,130.3,278.8,143.2,283.5z"/>
			<path class="st1" d="M197,280.1c-1.7,22.7-3.2,45.4-5.1,68c-2.7,31.4-5.5,62.9-10.3,94.1c-2.1,14.3-4,28.8-6.3,43.1
				c-0.8,4.8,2.9,5.7,5.3,8c1.9,1.9,5.7,3.2,4.6,6.5c-0.9,2.9-4.8,2.7-7.4,3c-4.4,0.6-8.8,0.2-13.3,0.4c-4.8,0.2-6.9-2.3-7.1-6.9
				c0-1.3,0-2.5,0-3.8c0-70.1,0-140,0.2-210.1c2.5-2.3,5.7-3,8.8-2.9C176.6,280.5,186.9,276.7,197,280.1z"/>
		</g>
	</g>
</g>
<path class="st2" d="M163.9,68.4c0.5,0.6-5.5,13.9-14.9,13.7c-10-0.1-15.7-15-15.2-15.6C134.3,66,140,77,149,77.3
	C157.4,77.6,163.4,67.7,163.9,68.4z"/>
<path class="st3" d="M173.7,46.4c-3.8,19.1-11.1,29.3-24.5,29.3s-20.9-11.9-23.6-31.3c-2.7-19.2,10.9-35.1,24.3-35.1
	S177.2,29.2,173.7,46.4z"/>
</svg>
