<?xml version="1.0" encoding="UTF-8" standalone="no"?>
<!-- Generator: Adobe Illustrator 23.0.1, SVG Export Plug-In . SVG Version: 6.00 Build 0)  -->

<svg
   xmlns:dc="http://purl.org/dc/elements/1.1/"
   xmlns:cc="http://creativecommons.org/ns#"
   xmlns:rdf="http://www.w3.org/1999/02/22-rdf-syntax-ns#"
   xmlns:svg="http://www.w3.org/2000/svg"
   xmlns="http://www.w3.org/2000/svg"
   xmlns:sodipodi="http://sodipodi.sourceforge.net/DTD/sodipodi-0.dtd"
   xmlns:inkscape="http://www.inkscape.org/namespaces/inkscape"
   version="1.1"
   id="Layer_1"
   x="0px"
   y="0px"
   viewBox="0 0 300 500"
   style="enable-background:new 0 0 300 500;"
   xml:space="preserve"
   sodipodi:docname="male_triangle_dress.svg"
   inkscape:version="0.92.3 (2405546, 2018-03-11)"><metadata
   id="metadata923"><rdf:RDF><cc:Work
       rdf:about=""><dc:format>image/svg+xml</dc:format><dc:type
         rdf:resource="http://purl.org/dc/dcmitype/StillImage" /><dc:title></dc:title></cc:Work></rdf:RDF></metadata><defs
   id="defs921" /><sodipodi:namedview
   pagecolor="#ffffff"
   bordercolor="#666666"
   borderopacity="1"
   objecttolerance="10"
   gridtolerance="10"
   guidetolerance="10"
   inkscape:pageopacity="0"
   inkscape:pageshadow="2"
   inkscape:window-width="1920"
   inkscape:window-height="1001"
   id="namedview919"
   showgrid="false"
   inkscape:zoom="6.9324351"
   inkscape:cx="172.56327"
   inkscape:cy="385.05877"
   inkscape:window-x="-9"
   inkscape:window-y="-9"
   inkscape:window-maximized="1"
   inkscape:current-layer="Layer_1" />
<style
   type="text/css"
   id="style870">
	.st0{fill:#422200;}
	.st1{fill:#FBC59F;}
	.st2{fill:#F9C29A;}
	.st3{fill:#02A0B4;}
	.st4{fill:#4C3628;}
	.st5{fill:#FAD2B4;}
	.st6{opacity:0.14;fill:#422200;enable-background:new    ;}
</style>
<path
   class="st0"
   d="M-76.7,51.5"
   id="path872" />

<path
   style="fill:#000000;stroke:#000000;stroke-width:1px;stroke-linecap:butt;stroke-linejoin:miter;stroke-opacity:1"
   d="M 122.4,88.7 146.24632,126.3185 176,89.2 l 7.11812,1.310309 27.65385,1.772682 L 203.1,155.6 l -2.5,4.1 -16.1,52.5 2.34075,3.28444 4.78624,8.15434 2.48176,9.92702 1.24088,4.60897 0.17727,12.94059 -1.41815,14.53599 -0.35454,7.79981 10.99064,17.72682 -110.969938,-1.24087 10.636098,-18.4359 -0.88634,-12.94059 -1.24088,-16.13141 1.06361,-10.10429 3.19083,-9.57249 4.60897,-6.91346 L 113.8,211.9 104.94281,185.17156 98.206619,164.07664 97.7,161.5 l -4,-7.4 -9.320306,-60.930667 z"
   id="path925"
   inkscape:connector-curvature="0" /><ellipse
   style="fill:#0000ff;fill-opacity:1"
   id="path939"
   cx="146.33916"
   cy="128.25108"
   rx="2.7235427"
   ry="2.6356864" /><ellipse
   style="fill:#00ffff;fill-opacity:1"
   id="path943"
   cx="147.42273"
   cy="127.72393"
   rx="1.1714162"
   ry="1.229987" /><ellipse
   style="fill:#00ffff;fill-opacity:1"
   id="path943-5"
   cx="103.88481"
   cy="92.643936"
   rx="1.1714162"
   ry="1.229987" /><ellipse
   style="fill:#00ffff;fill-opacity:1"
   id="path943-3"
   cx="105.28179"
   cy="96.85865"
   rx="1.1714162"
   ry="1.229987" /><ellipse
   style="fill:#00ffff;fill-opacity:1"
   id="path943-55"
   cx="111.23228"
   cy="110.55311"
   rx="1.1714162"
   ry="1.229987" /><ellipse
   style="fill:#00ffff;fill-opacity:1"
   id="path943-2"
   cx="106.98034"
   cy="101.37492"
   rx="1.1714162"
   ry="1.229987" /><ellipse
   style="fill:#00ffff;fill-opacity:1"
   id="path943-1"
   cx="109.1823"
   cy="106.11044"
   rx="1.1714162"
   ry="1.229987" /><ellipse
   style="fill:#00ffff;fill-opacity:1"
   id="path943-10"
   cx="113.56641"
   cy="115.08918"
   rx="1.1714162"
   ry="1.229987" /><ellipse
   style="fill:#00ffff;fill-opacity:1"
   id="path943-12"
   cx="115.90924"
   cy="119.67754"
   rx="1.1714162"
   ry="1.229987" /><ellipse
   style="fill:#00ffff;fill-opacity:1"
   id="path943-6"
   cx="120.30684"
   cy="128.68327"
   rx="1.1714162"
   ry="1.229987" /><ellipse
   style="fill:#00ffff;fill-opacity:1"
   id="path943-7"
   cx="118.19589"
   cy="124.3854"
   rx="1.1714162"
   ry="1.229987" /><ellipse
   style="fill:#00ffff;fill-opacity:1"
   id="path943-4"
   cx="196.45816"
   cy="93.089401"
   rx="1.1714162"
   ry="1.229987" /><ellipse
   style="fill:#00ffff;fill-opacity:1"
   id="path943-52"
   cx="194.70888"
   cy="97.058929"
   rx="1.1714162"
   ry="1.229987" /><ellipse
   style="fill:#00ffff;fill-opacity:1"
   id="path943-41"
   cx="192.89232"
   cy="100.75934"
   rx="1.1714162"
   ry="1.229987" /><ellipse
   style="fill:#00ffff;fill-opacity:1"
   id="path943-9"
   cx="190.94119"
   cy="104.59431"
   rx="1.1714162"
   ry="1.229987" /><ellipse
   style="fill:#00ffff;fill-opacity:1"
   id="path943-24"
   cx="188.8555"
   cy="108.29472"
   rx="1.1714162"
   ry="1.229987" /><ellipse
   style="fill:#00ffff;fill-opacity:1"
   id="path943-78"
   cx="186.70253"
   cy="112.26425"
   rx="1.1714162"
   ry="1.229987" /><ellipse
   style="fill:#00ffff;fill-opacity:1"
   id="path943-44"
   cx="184.41501"
   cy="116.97387"
   rx="1.1714162"
   ry="1.229987" /><ellipse
   style="fill:#00ffff;fill-opacity:1"
   id="path943-8"
   cx="181.99292"
   cy="120.67428"
   rx="1.1714162"
   ry="1.229987" /><ellipse
   style="fill:#00ffff;fill-opacity:1"
   id="path943-0"
   cx="179.30171"
   cy="124.57653"
   rx="1.1714162"
   ry="1.229987" /><ellipse
   style="fill:#00ffff;fill-opacity:1"
   id="path943-34"
   cx="176.54323"
   cy="129.01701"
   rx="1.1714162"
   ry="1.229987" /></svg>