<?xml version="1.0" encoding="utf-8"?>
<!-- Generator: Adobe Illustrator 23.0.1, SVG Export Plug-In . SVG Version: 6.00 Build 0)  -->
<svg version="1.1" id="Layer_1" xmlns="http://www.w3.org/2000/svg" xmlns:xlink="http://www.w3.org/1999/xlink" x="0px" y="0px"
	 viewBox="0 0 300 500" style="enable-background:new 0 0 300 500;" xml:space="preserve">
<style type="text/css">
	.st0{fill:#00A9C0;}
	.st1{fill:#FCC6A0;}
	.st2{fill:#FBBF9A;}
	.st3{fill:#FCC39D;}
	.st4{fill:#FDC796;}
	.st5{fill:#DEA584;}
	.st6{fill:#DDA382;}
	.st7{fill:#DDA582;}
	.st8{fill:#E4AB88;}
	.st9{fill:#E4AA87;}
	.st10{opacity:0.68;fill:#92745E;}
	.st11{fill:#FBC59F;}
</style>
<g>
	<path class="st0" d="M148.4,288c-0.5,0.5-1.1,0.9-1.6,1.4c-0.5,1.3-1.1,1.3-1.6,0.2c-16.8-2.7-34.1-1.4-50.6-6.5
		c-3.3-20.1-2.7-40.1-2.9-60.3c9.6,1.1,19,2.2,28.5,3.4c28.5,3.8,56.9,1.8,85.1-2.9c2.7-0.4,5.4-0.2,8.1-0.4
		c-0.5,17-0.9,34-1.6,50.9c-0.2,3.3-1.1,6.5-1.6,9.6c-17.7,3.3-35.6,5.6-53.6,4.5c0-6.5,0-13.2,0-19.7c0-3.3-0.7-4.9-4.5-4.9
		c-3.6,0-3.6,2.3-3.6,4.7C148.4,274.8,148.4,281.5,148.4,288z"/>
</g>
<g>
	<g>
		<g>
			<g>
				<g>
					<path class="st1" d="M213.5,297.5c0.5,20.2-3.1,40.1-5.4,60c-3.6,30.9-6.5,62-14.3,92.3c-2.5,9.9-5.4,19.7-8.7,29.4
						c-2.5,7.2-2.5,13.4,4.5,18.1c1.8,1.3,4.5,3.1,3.1,5.8c-1.1,2.2-4,2.5-6.3,2.5c-5.1,0-10.3-0.5-15.4,0.2
						c-9.2,1.3-11.4-3.3-11.4-11.4c0.2-49.7,0-99.3,0.2-149c0-14.5,0-28.9,0.2-43.4c1.8-1.3,3.8-2,5.8-2.2
						c14.3-0.7,28.7-1.4,42.8-3.8C210.2,295.7,212,296.2,213.5,297.5z"/>
					<path class="st1" d="M151.9,301.8c0,64.5,0,129.2,0.4,193.6c0,7.8-2.9,11-10.7,10.1c-5.1-0.5-10.1,0-15.4-0.2
						c-2.3,0-5.2,0.7-6.1-2.3c-0.9-3.1,0.7-5.2,3.4-6.5c0.7,0.7,1.6,0.7,2.5,0.9c-0.7-0.4-1.8-0.2-2.5-0.9c5.8-5.1,5.6-11,3.3-17.9
						c-14.3-40.6-18.6-83.3-23.5-125.7c-2.2-18.8-5.1-37.4-5.2-56.2c2-1.8,4.5-1.4,6.9-1.1c11.6,2,23.1,3.4,35,3.4
						c4,0,7.9,0.5,9.6,5.2c0.2,61.2,0,122.6,0.2,183.9c0-60.9,0-121.7,0-182.6C149.7,303.8,149.3,302,151.9,301.8z"/>
				</g>
				<path class="st2" d="M162.9,307.6c0,60.3,0,120.8,0,181.2c-0.4,0-0.5,0-0.9,0c0-60.5,0-121,0-181.5
					C162.3,307.4,162.5,307.6,162.9,307.6z"/>
				<path class="st3" d="M148.6,303.2c0.5-0.4,1.1-0.4,1.6-0.2c0,64.7,0,129.3,0,194c-0.5,0-1.1,0-1.6,0
					C148.6,432.6,148.6,367.9,148.6,303.2z"/>
				<path class="st4" d="M141.2,320.2c0,56.2,0,112.4,0,168.5c-0.4,0-0.5,0-0.9,0c0-56.4,0-112.7,0-168.9
					C140.5,320,140.9,320.2,141.2,320.2z"/>
			</g>
			<path class="st3" d="M122.6,503c7.8-4.2,14.1-1.8,20.2-2.7C138.9,504.1,136.2,504.5,122.6,503z"/>
			<path class="st3" d="M123.5,496.7c2.2,0.2,4.2-2.2,7,0C127.7,498.9,125.7,499.2,123.5,496.7L123.5,496.7z"/>
		</g>
		<g>
			<g>
				<path class="st1" d="M171.9,95.3c1.6,9.9,2.5,15,5.4,17.7c3.4,3.3,6.1,1.1,17,2.7c13.4,2,22.9,7.6,29.1,20.8
					c21.5,45.5,37.2,92.3,41.4,142.7c0.7,9.2,1.1,18.6,1.4,27.8c0.7,13.7-7.4,20.1-18.4,26.2c-2.7,1.4-6.1,2.3-8.1-0.9
					c-1.6-2.7-1.3-6.3,1.6-8.1c5.6-3.6,4.7-7.9,3.3-13.2c-1.6-5.8-3.1-9.2-9.2-4c-2.3,2-5.1,2.3-7-0.5c-2.2-2.9-0.5-5.8,1.4-7
					c10.5-6.3,7-14.5,4.3-23.3c-6-19.1-11-38.5-18.2-57.4c0.4,6,0.7,12.1,0.9,18.1c-2.5,2.5-6,2.7-9,3.3c-34.1,6-68.5,6.1-102.6,0.2
					c-3.4-0.5-7.2-0.7-9.9-3.6c-0.5-6,2.2-11.9,0.5-17.9c-3.6,1.8-2.7,5.6-3.6,8.5c-5.6,18.6-10.7,37.6-16.6,56
					c-1.8,5.8-0.9,9.4,3.6,13.2c2.9,2.5,7.9,5.2,4.2,10.3c-3.3,4.2-6.5,0.5-9.4-1.3c-2.2-1.3-4.2-2.2-4.9,0.9
					c-1.3,6-7,12.1,1.3,17.5c2.7,1.8,3.6,4.9,2,7.9c-2,3.4-4.9,2.3-7.9,1.1c-11.2-4.2-17.9-13.2-18.4-25.1c-0.9-17,1.6-33.6,4-50.2
					c6-42.6,21-82.4,38.8-121.2c6.3-13.9,17-19.3,30.9-20.6c4.5-0.4,8.9-2.2,13.2-2.9c1.3-0.2,1.8-0.4,2.5-0.7
					c1.8-1.1,3.4-3.4,4.5-15.2c0.5-5.6,0.4-8.3,1.4-8.5c1.3-0.4,2,3.4,6,6.5c0.9,0.7,4.2,3.3,9,3.3c1.1,0,5.6-0.2,9-3.3
					c3.4-3.3,3.6-7.4,4.9-7.2C170.8,87.9,171.2,91.5,171.9,95.3z"/>
				<path class="st5" d="M94.8,210.9c3.4-16.4,0.4-33.2,1.8-50c2.7,1.8,1.4,4.2,1.4,6.1c0.2,15.5,2,17.3,17.9,19
					c10.8,1.1,21.7,3.3,34.3-0.7c-4.9,4.2-4.9,4.3-7.4,4.3c-13.2,0.2-26.4,0.5-39.2-3.4c-4.5-1.4-5.8,0-5.6,4.5
					C98.2,197.6,98.6,204.4,94.8,210.9z"/>
				<path class="st6" d="M210,184.2c-15.4,7.6-31.4,5.6-47.3,3.4c8.7,1.6,17.3,0.7,25.8-0.5C195.8,186,202.8,184.7,210,184.2
					L210,184.2z"/>
				<path class="st7" d="M210,184.2c6.3-6.9,2.3-15.4,4.5-23.1c1.8,16.4-0.7,33.2,2.3,49.7c-4-5.8-3.1-12.3-3.4-18.6
					C213.5,189.1,215.1,185.1,210,184.2L210,184.2z"/>
				<path class="st8" d="M153,142.1c-9.6-6.9-21.1-7.9-31.6-12.6C132.5,128.4,152.2,136.2,153,142.1z"/>
				<path class="st9" d="M192,128.2c-11.4,6.5-23.5,6.5-32.5,13.5C158.9,136.5,171,131.3,192,128.2z"/>
			</g>
		</g>
	</g>
</g>
<path class="st10" d="M173.6,94.6L173.6,94.6c-0.6,0.9-1.2,1.7-1.8,2.4c-1.3,1.4-5.5,5.8-10.8,6.5c-0.8,0.1-2.4,0.2-4.2,0.2
	c0,0-3.3-0.1-6.2-0.9c-5-1.4-8.5-5.3-10.3-7.2c-0.1-0.2-0.3-0.3-0.4-0.5c0.3-0.7,0.6-1.5,0.9-2.5c0.2-0.9,0.5-2.2,0.5-3.8
	c1.8,1.2,7.6,4.7,15.9,4.4c8.1-0.3,13.5-4.1,15.2-5.4C172.7,90.4,173.2,92.7,173.6,94.6z"/>
<path class="st11" d="M181.9,58.2c0.4,4.4,0.6,6.7,0.6,9.6c-0.1,4.5-0.8,8.2-1.3,10.8c-0.5,2.6-1.4,6-3.5,9.8
	c-1.5,2.7-3.1,4.9-4.6,6.5c-1.4,1.4-5.8,5.8-11.6,6.5c-0.9,0.1-2.6,0.2-4.5,0.2c0,0-3.5-0.1-6.6-0.9c-5.3-1.4-9-5.3-11-7.2
	c-5.2-5.1-7-10.5-8.2-14.2c-1.5-4.6-1.6-8.4-1.8-16c-0.2-6.1-0.2-9.2,0.8-13.3c0.9-3.8,1.9-7.9,5.4-11.8c0.8-0.9,8.3-9.2,20.3-8.9
	c7.8,0.2,13.2,3.8,15.2,5.2c1,0.7,6.2,4.5,8.8,11C180.9,47.5,181.2,51.1,181.9,58.2z"/>
</svg>
