<?xml version="1.0" encoding="utf-8"?>
<!-- Generator: Adobe Illustrator 23.0.1, SVG Export Plug-In . SVG Version: 6.00 Build 0)  -->
<svg version="1.1" id="Layer_1" xmlns="http://www.w3.org/2000/svg" xmlns:xlink="http://www.w3.org/1999/xlink" x="0px" y="0px"
	 viewBox="0 0 288 560" style="enable-background:new 0 0 288 560;" xml:space="preserve">
<style type="text/css">
	.st0{fill:#FBC59F;}
	.st1{fill:#00A9C0;}
	.st2{fill:#F9C29A;}
	.st3{fill:#E2A988;}
	.st4{fill:#049FB2;}
	.st5{fill:#E6AE8C;}
	.st6{fill:#02A0B4;}
	.st7{fill:#DFA583;}
	.st8{fill:#DDA582;}
	.st9{fill:#E7AF8C;}
	.st10{fill:#DDA382;}
	.st11{fill:#EAB08F;}
	.st12{fill:#E6AD8A;}
	.st13{fill:#E9B18D;}
	.st14{fill:#4C3628;}
	.st15{fill:#643312;}
	.st16{fill:#FAD2B4;}
</style>
<path class="st0" d="M204.41,303.78c-2.08-11.1-4.12-22.2-6.29-33.27c-3.8-19.38-7.55-38.77-11.59-58.1
	c-1.62-7.75-4.93-9.79-12.7-11.03c-5.58-0.9-11.31-0.07-16.76-1.87c0.19,0.06,0.37,0.11,0.56,0.17c-0.53-0.58-1.25-1.49-1.85-2.72
	c-0.08-0.16-0.36-0.61-0.78-2.09c-1.11-3.87-1.02-3.37-1.17-4.04c-0.24-1.07-0.49-2.41-0.65-3.98c-0.93,0.75-3.88,2.95-8.27,3.13
	c-4.51,0.19-7.68-1.86-8.65-2.54c-0.02,0.93-0.16,1.68-0.29,2.22c-0.28,1.12-0.68,1.89-0.91,2.35c-1.44,2.83-2.27,5.05-2.3,5.04
	c-0.03-0.01,1.05-2.45,2.3-5.04c0.12-0.25,0.23-0.47,0.31-0.64c-0.06,0.13-0.17,0.35-0.31,0.64c-1.56,3.23-1.91,4.23-2.86,5.85
	c-0.22,0.38-0.6,0.99-1.12,1.73c-0.82,0.2-2.31,0.53-4.19,0.82c-6.13,0.95-9.73,0.64-15.79,1.86c-3.59,0.72-5.92,2.66-7.44,5.92
	c-1.36,2.9-1.97,5.97-2.58,9.07c-5.48,27.81-10.79,55.66-16.57,83.41c-1.76,8.41,1.06,14.52,7.09,19.75c1.31,1.14,3,2.76,4.8,1.1
	c1.7-1.57,0.81-3.43-0.59-4.81c-3.81-3.77-1.33-7.32,0.32-10.87c0.79-1.7,2-1.34,3.26-0.4c1.22,0.92,2.43,2.99,4.1,0.94
	c1.61-1.98,0.52-3.95-1.2-5.17c-3.24-2.31-2.75-5.13-1.83-8.31c2.21-7.66,4.2-15.37,6.4-23.03c3.38-11.76,5.61-23.86,10.19-35.27
	c0.1,0,0.19-0.12,0.3-0.35c0.05-0.12,0.06-0.24,0.03-0.36c1.02,2.61,2.82,3.91,4.92,4.7c-1.03-0.29-2.08-0.43-3.22-0.05
	c1.79,9.25,5.32,17.98,7.9,26.99c0.92,2.13,2.94,2.57,4.86,3.03c8.2,1.96,16.43,2.28,24.64,0.08c2.02-0.55,4.37-0.62,5.51-2.9
	c2.75-9.39,5.5-18.79,8.25-28.19c-1.35,0.55-2.72,0.99-4.09,1.33c2.05-0.76,3.77-2.13,4.66-4.88c0.06-0.05,0.11-0.12,0.16-0.17
	c-0.33,0.59-0.35,1.16,0.21,1.69c1.14-0.49,1.62-0.31,1.99,1.09c4.49,16.85,9.18,33.65,13.58,50.52c1.34,5.16,4.62,10.68-1.37,15.43
	c-0.96,0.76-1.31,2.82-0.01,4.12c1.52,1.51,2.76,0.28,3.84-0.74c1.98-1.87,2.86-1.09,4.02,1.04c2.15,3.95,2.45,7.46-0.95,10.83
	c-1.01,0.99-1.54,2.25-0.51,3.57c1.12,1.42,2.39,0.66,3.6,0.11C201.37,318.76,205.65,310.41,204.41,303.78z M117.11,233.47
	c-0.71-1.63-1.41-3.26-2.26-5.46c1.04,2.18,1.55,3.99,2.4,5.64C117.21,233.59,117.17,233.53,117.11,233.47z M126.49,239.73
	c-1.01-0.04-1.97-0.38-2.94-0.73c1.04,0.3,2.12,0.52,3.2,0.76C126.67,239.75,126.58,239.74,126.49,239.73z M128.87,239.99
	c1.75,0.02,3.47,0.02,5.05,0.01C132.34,240.05,130.63,240.1,128.87,239.99z M149.37,240.17c-0.15,0-0.22,0.05-0.21,0.14
	c0.04,0.66-0.49-0.44,0.18-0.38c2.27,0.05,4.56,0.17,6.83,0.17C153.91,240.18,151.64,240.17,149.37,240.17z M171.39,233.3
	c0.97-1.3,1.32-2.97,2.34-4.24C172.72,230.33,172.47,232.07,171.39,233.3z"/>
<path class="st0" d="M142.13,300.43c0.03,36.61,0.02,73.22,0.13,109.83c0.01,4.58-1.49,7.01-6.42,6.26
	c-0.81-0.12-1.68,0.11-2.49-0.03c-2.34-0.4-5.53,1.38-6.88-1.24c-1.5-2.89,2.09-3.58,3.51-5.18c2.08-2.33,1.17-5.12,0.98-7.65
	c-1.21-15.7-2.61-31.38-3.92-47.07c-1.54-18.33-3.06-36.67-4.58-55C129.01,299.66,135.57,299.15,142.13,300.43z"/>
<path class="st0" d="M166.06,300.54c-1.21,15.87-2.38,31.73-3.63,47.6c-0.69,8.76-1.52,17.51-2.26,26.26
	c-0.88,10.4-1.58,20.83-2.68,31.21c-0.29,2.72,1.12,3.91,2.63,5.44c1.11,1.12,3.16,2.01,2.49,3.93c-0.79,2.27-3.08,1.42-4.81,1.5
	c-2.32,0.1-4.66-0.02-6.99,0.03c-2.12,0.04-3.59-0.62-3.71-3c0.03-34.92,0.01-69.83,0.01-104.75c0-3.18-0.35-6.48,3.38-8.09
	C155.69,300.11,160.86,298.83,166.06,300.54z"/>
<path class="st1" d="M166.06,300.54c-4.85,1.03-9.76,0.89-14.67,0.82c-1.71-0.42-3.9,0.79-5.05-1.51c-0.28-3.4,0.62-6.87-0.58-10.21
	c1.54-0.73,3.64,0.24,4.78-1.58c-1.94,1.88-4.36,0.7-6.59,0.95c-1.62,0.47-3.22,0.73-4.39-0.06c3.88,1.14,0.92,5.21,2.55,7.56
	c0,1.31,0,2.61,0,3.92c-6.56,0.88-13.13,1.75-19.68-0.08c-0.36-5.92-1-11.84-1.02-17.76c-0.02-6.2,1.62-12.05,5.51-17.08
	c11.64,4.63,23.32,4.08,35.01,0.22c6.96,9.12,5.34,19.61,4.76,29.93C166.63,297.29,166.29,298.92,166.06,300.54z"/>
<path class="st2" d="M146.35,299.86c1.68,0.5,3.36,1.01,5.05,1.51c-2.66,1.17-3.32,3.29-3.31,6.07
	c0.06,33.41,0.03,66.83,0.08,100.24c0,1.62,0.59,3.23,0.8,4.85c0.25,1.87-0.94,1.2-1.85,0.97c-0.75-1.35-0.89-2.82-0.89-4.34
	C146.28,372.73,146.31,336.29,146.35,299.86z"/>
<path class="st3" d="M171.11,233.5c0.01,0.67,0.02,1.34,0.04,2c-0.31,0.68-0.63,1.35-0.94,2.03c-8.06,4.3-16.31,3.44-24.61,1.57
	c8.99,0.27,18.43,3.4,25.53-5.58L171.11,233.5z"/>
<path class="st4" d="M142.13,296.51c-0.89-3.95-1.96-7.78-6.82-9.21c3.25,0.22,5.86,1.83,8.81,1.22c0.33,0.23,0.44,0.45,0.33,0.68
	s-0.22,0.34-0.33,0.34C140.88,291.12,143.11,294.27,142.13,296.51z"/>
<path class="st5" d="M117.13,233.5c2.47,3.44,6.31,4.61,10.01,5.99c-0.05,0.61-0.7,0.62-0.99,0.98c-2.37-0.65-4.74-1.3-7.1-1.95
	c-0.67-1.31-1.34-2.62-2.01-3.93c0.03-0.36,0.05-0.72,0.08-1.08L117.13,233.5z"/>
<path class="st6" d="M144.12,289.53c0-0.34,0-0.68,0-1.02c1.78-0.14,3.65,0.38,5.28-0.83c1.03-0.76,2.48-2.01,3.31-0.29
	c1.15,2.37-1.57,1.24-2.34,1.98c-1.37,1.32-2.97,1.8-4.6,0.28C145.22,289.61,144.67,289.57,144.12,289.53z"/>
<path class="st7" d="M126.15,240.48c0.33-0.33,0.66-0.66,0.99-0.98c5.14-0.28,10.38,0.86,15.48-0.46
	C137.38,241.53,131.65,240.1,126.15,240.48z"/>
<path class="st8" d="M136.15,209.48c5.8,0.18,5.8,0.18,6.96,4.78c-2.63-3.27-5.6-4.05-8.92-3.79
	C134.07,208.6,135.06,208.94,136.15,209.48z"/>
<path class="st9" d="M117.12,233.51c-1.94-2.41-3.44-5.02-3.99-9.2c3.01,3.14,3.65,6.11,4.01,9.19
	C117.13,233.5,117.12,233.51,117.12,233.51z"/>
<path class="st10" d="M154.09,210.47c-2.95-0.11-5.81,0.1-8.05,2.57c1.09-4.01,4.22-3.49,7.07-3.56
	C154.16,209.1,154.33,209.58,154.09,210.47z"/>
<path class="st11" d="M136.15,209.48c-0.79,0.06-1.55,0.18-1.97,0.99c-1.86-1.27-4.57-0.42-6.47-2.78
	C130.88,207.8,133.6,208.18,136.15,209.48z"/>
<path class="st12" d="M171.13,233.52c0.51-2.72,1.94-4.98,3.64-7.1c-0.67,2.64-0.61,5.66-3.65,7.09
	C171.11,233.5,171.13,233.52,171.13,233.52z"/>
<path class="st13" d="M154.09,210.47c-0.33-0.33-0.65-0.66-0.98-0.99c2-1.68,4.67-0.69,6.93-1.62
	C158.43,209.6,156.26,210.02,154.09,210.47z"/>
<path class="st14" d="M159.22,179.32"/>
<path class="st14" d="M159.24,174.4l-0.02-0.02"/>
<path class="st15" d="M139.59,171.46"/>
<path class="st16" d="M157.77,168.26c0.22,2.55,0.33,3.86,0.29,5.58c-0.05,2.62-0.39,4.77-0.68,6.26c-0.23,1.49-0.71,3.49-1.76,5.67
	c-0.75,1.56-1.6,2.82-2.36,3.78c-0.71,0.83-2.98,3.34-5.89,3.78c-0.46,0.07-1.31,0.14-2.28,0.11c0,0-1.8-0.06-3.36-0.54
	c-2.71-0.83-4.59-3.05-5.6-4.17c-2.66-2.96-3.56-6.08-4.16-8.24c-0.74-2.68-0.79-4.88-0.9-9.28c-0.09-3.53-0.12-5.34,0.39-7.73
	c0.47-2.19,0.98-4.55,2.74-6.85c0.41-0.54,4.22-5.34,10.37-5.18c3.98,0.1,6.71,2.22,7.73,3.03c0.51,0.41,3.15,2.58,4.5,6.36
	C157.24,162.08,157.42,164.14,157.77,168.26z"/>
<path class="st16" d="M176.75,182.93"/>
<path class="st0" d="M168.24,175.11"/>
<path class="st0" d="M159.53,183.42"/>
<path class="st0" d="M155.13,196.7"/>
<path class="st0" d="M153.17,195.52"/>
<path class="st0" d="M134.78,193.43"/>
<path class="st0" d="M134.66,192.61"/>
<path class="st0" d="M135.3,192.65"/>
</svg>
