<?xml version="1.0" encoding="utf-8"?>
<!-- Generator: Adobe Illustrator 23.0.1, SVG Export Plug-In . SVG Version: 6.00 Build 0)  -->
<svg version="1.1" id="Layer_1" xmlns="http://www.w3.org/2000/svg" xmlns:xlink="http://www.w3.org/1999/xlink" x="0px" y="0px"
	 viewBox="0 0 300 500" style="enable-background:new 0 0 300 500;" xml:space="preserve">
<style type="text/css">
	.st0{fill:#03A3B6;}
	.st1{fill:#FBC59F;}
	.st2{opacity:0.68;fill:#92745E;}
</style>
<path class="st0" d="M195.7,211.4c-28,9.3-56.2,9.5-84.5,0c-15,10.2-24.6,22.9-24.2,39.3c0.2,11.3,1.3,22.5,2,33.8
	c19.7,2.7,39.7,3,59.4-0.2c4.9-2.5,3.4-6.6,3.8-10.2c0.4-3.6-0.2-7.7,5.6-9.3c0,0,0,0,0,0c0.2,6.6,0.4,13.2,0.6,19.9
	c1.3,0,2.7,0,3.8,0c0-0.1,0-0.2,0.1-0.3c0.1,0.1,0.1,0.2,0.2,0.3c18.4,3.4,37,2.1,55.3,0c0.7-7.3,1.3-14.6,2.2-22
	C221.9,242.7,216.6,224.7,195.7,211.4z"/>
<g>
	<g>
		<path class="st1" d="M283.1,280.9C264.5,232,247,183,230.7,133.8c-5.2-15.5-12.3-25.4-34.5-26.8c-9.2-0.5-11.7-0.9-15.5-3.2
			c-4.7-2.7-6.5-6.6-8.7-12.1c-1.3-3-2.2-5.9-2.7-8.4c-0.2,0.2-0.7,0.2-0.9,0.4c-9.9,5.4-19.3,5.4-28.7,0c0,0.4-0.2,0.7-0.2,1.1
			c-3.4,13.9-22.4,22.1-31.8,23.2c-0.4,0-1.6,0.4-3.4,0.4c-14.6,0.7-21.1,7.9-24.2,18.6c-4.3,14.5-9.6,28.6-14.8,42.9
			c-13.4,38-26.4,76.1-40.8,113.8c-5.6,15,2.2,25.9,12.3,36.8c2.5,2.5,5.4,4.1,9.6,2.1c3.8-1.8,3.4-4.6,1.6-7
			c-5.2-6.8-2.2-13,0.7-19.6c1.8-3.9,3.8-4.5,8.3-2.7c3.8,1.4,8.5,4.8,11.7,0.4c2.9-3.8-1.6-6.8-5.2-8.9c-6.3-3.8-6.1-7.5-3.4-13
			c11.2-23.2,21.7-46.8,32.5-70.2c5.8-12.3,11.7-24.5,17.5-36.8c0.7,0.2,1.3,0.4,2.2,0.5v48c0.7,1.1,1.8,2,3.1,2.5
			c26.2,10.2,52.7,8.9,78.9,0.2c1.3-0.5,2-1.6,2.7-2.7v-47.9c17.7,33,32.9,66.3,48.4,99.3c4,8.4,9.6,16.4-3.4,23.2
			c-2.5,1.3-3.1,4.3-0.9,6.4c2,2,5.2,1.6,7.2,0.4c9.2-5,11.4-0.9,13.9,5.4c1.8,5.2,1.8,9.8-0.7,14.6c-1.8,3.2-2.7,6.6,2.2,8.4
			c4.3,1.6,7.2-1.1,9.2-3.4C282.4,308.1,288.9,296.5,283.1,280.9z"/>
		<path class="st1" d="M152.9,298.1c0-3.8,0.2-7.7-2.5-11.3c-3.1-2.9-7.4-2-11.4-1.8c-12.3,0.7-24.6,0.4-37,0.2
			c-4.5-0.2-9-1.6-13,1.1c2.7,17.3,5.4,34.6,8.5,51.8c7.8,42,15.9,84.1,24,126.1c1.6,7.9,4.3,16.1-10.5,17.9
			c-0.7,0.2-1.1,0.7-1.8,1.1c-1.8,1.3-4.9,2.1-4.3,4.6c0.9,2.7,4,2.3,6.5,2.3c6.9,0,14.1,0,21.1,0c15.9-0.2,15.9-0.2,16.8-12.7
			c4.3-3.4,3.6-7.7,3.6-11.8C152.9,409.9,152.9,354,152.9,298.1z"/>
		<path class="st1" d="M187.2,459.3c9.4-57.7,22.6-115.2,30.9-173.1c-2.5-2-5.4-1.6-8.3-1.6c-16.1,1.1-32,0.7-48-0.2
			c-2.2,0.4-4.3,0.9-5.4,2.7c-2,3.4-2,7-2,10.5c0,55.9,0,111.8,0,167.7c0.2,4.1-0.2,8.2,3.6,11.8c0.4,12.7,0.4,12.5,16.8,12.7
			c6.1,0.2,12.1,0.7,17.9,0.5c3.1,0,7.8,0.5,9-2.1c1.6-3.6-3.1-6.1-6.1-6.4c-14.6-2-11.4-9.8-9.9-17.3
			C186.1,462.7,187,461.1,187.2,459.3z"/>
	</g>
	<path class="st2" d="M170.7,83.2L170.7,83.2c-0.6,0.9-1.1,1.7-1.6,2.4c-1.2,1.4-5,5.8-9.8,6.5c-0.8,0.1-2.2,0.2-3.8,0.2
		c0,0-3-0.1-5.6-0.9c-4.5-1.4-7.6-5.3-9.3-7.2c-0.1-0.2-0.3-0.3-0.4-0.5c0.3-0.7,0.6-1.5,0.8-2.5c0.2-0.9,0.4-2.2,0.5-3.8
		c1.6,1.2,6.9,4.7,14.4,4.4c7.3-0.3,12.2-4.1,13.8-5.4C169.9,79,170.3,81.3,170.7,83.2z"/>
	<path class="st1" d="M180.7,45.8c0.4,4.4,0.6,6.7,0.6,9.6c-0.1,4.5-0.8,8.2-1.3,10.8c-0.5,2.6-1.4,6-3.5,9.8
		c-1.5,2.7-3.1,4.9-4.6,6.5c-1.4,1.4-5.8,5.8-11.6,6.5c-0.9,0.1-2.6,0.2-4.5,0.2c0,0-3.5-0.1-6.6-0.9c-5.3-1.4-9-5.3-11-7.2
		c-5.2-5.1-7-10.5-8.2-14.2c-1.5-4.6-1.6-8.4-1.8-16c-0.2-6.1-0.2-9.2,0.8-13.3c0.9-3.8,1.9-7.9,5.4-11.8c0.8-0.9,8.3-9.2,20.3-8.9
		c7.8,0.2,13.2,3.8,15.2,5.2c1,0.7,6.2,4.5,8.8,11C179.6,35.1,180,38.7,180.7,45.8z"/>
</g>
</svg>
