<?xml version="1.0" encoding="utf-8"?>
<!-- Generator: Adobe Illustrator 23.0.1, SVG Export Plug-In . SVG Version: 6.00 Build 0)  -->
<svg version="1.1" id="Layer_1" xmlns="http://www.w3.org/2000/svg" xmlns:xlink="http://www.w3.org/1999/xlink" x="0px" y="0px"
	 viewBox="0 0 300 500" style="enable-background:new 0 0 300 500;" xml:space="preserve">
<style type="text/css">
	.st0{fill:#03A1B5;}
	.st1{fill:#FAD2B4;}
	.st2{fill:#FBC59F;}
	.st3{opacity:0.14;fill:#422200;enable-background:new    ;}
</style>
<g>
	<g>
		<g>
			<path class="st0" d="M174,215.8c-15.1,4.5-30.2,4.6-45.4,0.5c-12.8,12.7-19.2,27.6-20.1,44.2c-0.4,7.1,0.2,14.5,1.7,22.2
				c11.4,2,22.9,3.3,34.3,0c4.9-3.2,0.6-9.2,3.2-13.1c0-1.9-0.1-3.7-0.1-5.5l0,0c2.1-4.9,5.3-4.1,8.7-2l0,0
				c0.1,6.9,0.2,13.6,0.2,20.5c13,1.6,26,3.3,38.6-2.2C197.4,255.4,193.2,232.7,174,215.8z"/>
			<g>
				<path class="st0" d="M146.5,288.7c-0.4,0.1-1-1.1-1.1-1.6c-1-2.9,0.4-9.8,1.1-12.8c1,4.1,1.1,7.3,1,9.7
					C147.4,284.9,147.3,288.6,146.5,288.7z"/>
				<path class="st1" d="M147.5,61.2"/>
				<path class="st2" d="M195.1,280.7c-1.9,38.9-5.5,77.7-9.6,116.4c-2.6,24.6-4.1,49.3-6.2,74c-0.4,5.9-0.9,11.8,5.5,15
					c1.3,0.6,2.4,3.7,2.2,5.6c-0.2,2.3-2.8,2.3-4.8,2.7c-6,1.1-11.8-0.8-17.8-0.5c-3.2,0.2-4.6-2.2-5.2-5c-0.4-1.8-0.5-3.6-0.5-5.5
					c-0.9-66.8-1.6-133.6-2.3-200.4c0.6-0.5,1.4-1.5,2.1-1.4C170.9,282.4,183,280.8,195.1,280.7z"/>
				<path class="st2" d="M147.8,283.1c0.9,66.8,1.7,133.6,2.8,200.4c0.1,8.1-2.3,11.4-9.8,10.8c-4.1-0.3-8.5,0.8-12.7,0.5
					c-5.1-0.4-7.2-4.8-3.1-7.8c8.6-6.1,4.9-14.5,4.1-21.5c-4.7-44.8-10-89.7-15.1-134.5c-1.8-16-4.4-31.9-3.8-48.1
					c2.8-2.3,6-1.6,9-1c8.2,1.1,16.4,0.1,24.6-0.8C145.3,281.1,146.7,281.9,147.8,283.1z"/>
				<path class="st2" d="M251.5,281.3c-12.2-54.2-23.9-108.5-40.1-161.7c-4.9-16.2-13.2-25.5-28.5-27.4c-2.2-0.3-4.6-0.6-6.8-0.4
					c-7.3,0.6-9.7-4.1-10.1-10.9c-0.1-1.9-0.2-3.7-0.3-5.6c-1-5.4-2.8-8.7-8.2-4.1c-4,3.4-8.4,4.3-13.5,1.7
					c-9.3-4.8-9.4-4.5-9.9,6.9c0,0.6-0.3,1.1-0.7,1.7c0,2.5,0,5,0,7.4c-1.6,4.7-6,1.9-8.6,3.8c-21.5,0.8-29.4,6.8-35.7,29.3
					c-15.3,53.9-25.4,109.2-36.4,164.3c-2.6,12.6,2.4,25.3,10.7,30.2c2.4,1.5,5.3,3,8,0.8c3.1-2.5,1.7-5.6,0.3-8.3
					c-3.9-7.4-1.6-14.2,0.7-20.9c4.6,0.6,7,8.8,11.3,4.6c4.1-4.2-0.2-9.2-2.7-13.2c-2-3.3-2.3-6.7-1.4-10.5
					c9-36.5,18.8-72.7,30.6-108.3c0.7-2.3,1-5,3.5-5.9c0.5,2.8,1.6,5.3,3.4,7.5l0,0l0,0c2,18.6,8.7,36.1,11.7,54.4
					c3.5,5.3,9.1,4.7,13.9,5c10.9,0.7,21.9,2.2,31.5-5.5c3.8-18.9,7.7-37.9,11.5-56.7l0,0c0.6-1.8,1.3-3.6,1.9-5.4l0,0l0,0
					c2.2-0.1,2.8,1.5,3.3,3.3c8.9,27.6,19.2,54.6,26.2,82.8c3.7,15.1,14,30,2.9,46.3c-1,1.4-0.3,3.7,1.2,5.1
					c1.7,1.5,3.6,0.5,4.7-0.7c8.2-9.8,7.9-0.1,9.3,4.9c1,3.3,0.4,6.7-1.1,10c-1.3,3-3.7,6.9-0.2,9.2c3.3,2.2,6.9,0.7,10.2-2.1
					C253.9,304.3,254.1,292.6,251.5,281.3z M114.4,153.7c-0.1-0.1-0.1-0.2-0.2-0.3c0-0.1,0-0.1,0.1-0.2
					C114.2,153.4,114.4,153.6,114.4,153.7z M112.8,146.7c0.2,0.9,0.4,1.8,0.5,2.6C113,148.5,112.7,147.7,112.8,146.7z M183.6,159.2
					L183.6,159.2c0-0.1,0.1-0.2,0.2-0.3c0,0.1,0,0.1,0,0.2C183.7,159.1,183.7,159.1,183.6,159.2z"/>
				<path class="st0" d="M207.1,242.8"/>
			</g>
		</g>
		<path class="st3" d="M133.8,70.9c-0.4,1,0,2.1,0.6,2.8c4.2,4.3,28.5,6.5,15,6.5c6.7,0,12.2-2.5,16.6-7.4c-0.1-0.4-0.2-1-0.4-1.3
			l0,0c-0.2-1.2-1.1-1.9-2.1-1.9l-27.7-0.3C134.9,69.1,134.2,69.8,133.8,70.9L133.8,70.9z"/>
	</g>
	<path class="st2" d="M173.7,46.4c-3.8,19.1-11.1,29.3-24.5,29.3s-20.9-11.9-23.6-31.3c-2.7-19.2,10.9-35.1,24.3-35.1
		S177.2,29.2,173.7,46.4z"/>
</g>
</svg>
