<?xml version="1.0" encoding="utf-8"?>
<!-- Generator: Adobe Illustrator 23.0.1, SVG Export Plug-In . SVG Version: 6.00 Build 0)  -->
<svg version="1.1" id="Layer_1" xmlns="http://www.w3.org/2000/svg" xmlns:xlink="http://www.w3.org/1999/xlink" x="0px" y="0px"
	 viewBox="0 0 288 560" style="enable-background:new 0 0 288 560;" xml:space="preserve">
<style type="text/css">
	.st0{fill:#00A9C0;}
	.st1{fill:#049FB2;}
	.st2{fill:#02A0B4;}
	.st3{fill:#4C3628;}
	.st4{fill:#643312;}
	.st5{fill:#E6AE8C;}
	.st6{fill:#FBC59F;}
	.st7{fill:#F9C29A;}
	.st8{fill:#E2A988;}
	.st9{fill:#DFA583;}
	.st10{fill:#DDA582;}
	.st11{fill:#E7AF8C;}
	.st12{fill:#DDA382;}
	.st13{fill:#EAB08F;}
	.st14{fill:#E6AD8A;}
	.st15{fill:#E9B18D;}
	.st16{fill:#FAD2B4;}
</style>
<path class="st0" d="M166.1,300.5c-4.9,1-9.8,0.9-14.7,0.8c-1.7-0.4-3.9,0.8-5.1-1.5c-0.3-3.4,0.6-6.9-0.6-10.2
	c1.5-0.7,3.6,0.2,4.8-1.6c-1.9,1.9-4.4,0.7-6.6,1c-1.6,0.5-3.2,0.7-4.4-0.1c3.9,1.1,0.9,5.2,2.6,7.6c0,1.3,0,2.6,0,3.9
	c-6.6,0.9-13.1,1.8-19.7-0.1c-0.4-5.9-1-11.8-1-17.8c0-6.2,1.6-12,5.5-17.1c11.6,4.6,23.3,4.1,35,0.2c7,9.1,5.3,19.6,4.8,29.9
	C166.6,297.3,166.3,298.9,166.1,300.5z"/>
<path class="st1" d="M142.1,296.5c-0.9-4-2-7.8-6.8-9.2c3.3,0.2,5.9,1.8,8.8,1.2c0.3,0.2,0.4,0.5,0.3,0.7s-0.2,0.3-0.3,0.3
	C140.9,291.1,143.1,294.3,142.1,296.5z"/>
<path class="st2" d="M144.1,289.5c0-0.3,0-0.7,0-1c1.8-0.1,3.6,0.4,5.3-0.8c1-0.8,2.5-2,3.3-0.3c1.1,2.4-1.6,1.2-2.3,2
	c-1.4,1.3-3,1.8-4.6,0.3C145.2,289.6,144.7,289.6,144.1,289.5z"/>
<path class="st3" d="M159.2,179.3"/>
<path class="st3" d="M159.2,174.4L159.2,174.4"/>
<path class="st4" d="M139.6,171.5"/>
<g>
	<path class="st5" d="M117.1,233.5c2.5,3.4,6.3,4.6,10,6c-0.1,0.6-0.7,0.6-1,1c-2.4-0.6-4.7-1.3-7.1-1.9c-0.7-1.3-1.3-2.6-2-3.9
		C117.1,234.2,117.1,233.9,117.1,233.5L117.1,233.5z"/>
	<g>
		<path class="st6" d="M204.4,303.8c-2.1-11.1-4.1-22.2-6.3-33.3c-3.8-19.4-7.6-38.8-11.6-58.1c-1.6-7.8-4.9-9.8-12.7-11
			c-5.6-0.9-11.3-0.1-16.8-1.9c0.2,0.1,0.4,0.1,0.6,0.2c-0.5-0.6-1.3-1.5-1.9-2.7c-0.1-0.2-0.4-0.6-0.8-2.1c-1.1-3.9-1-3.4-1.2-4
			c-0.2-1.1-0.5-2.4-0.6-4c-0.9,0.8-3.9,2.9-8.3,3.1c-4.5,0.2-7.7-1.9-8.6-2.5c0,0.9-0.2,1.7-0.3,2.2c-0.3,1.1-0.7,1.9-0.9,2.4
			c-1.4,2.8-2.3,5.1-2.3,5c0,0,1.1-2.4,2.3-5c0.1-0.3,0.2-0.5,0.3-0.6c-0.1,0.1-0.2,0.4-0.3,0.6c-1.6,3.2-1.9,4.2-2.9,5.9
			c-0.2,0.4-0.6,1-1.1,1.7c-0.8,0.2-2.3,0.5-4.2,0.8c-6.1,0.9-9.7,0.6-15.8,1.9c-3.6,0.7-5.9,2.7-7.4,5.9c-1.4,2.9-2,6-2.6,9.1
			c-5.5,27.8-10.8,55.7-16.6,83.4c-1.8,8.4,1.1,14.5,7.1,19.8c1.3,1.1,3,2.8,4.8,1.1c1.7-1.6,0.8-3.4-0.6-4.8
			c-3.8-3.8-1.3-7.3,0.3-10.9c0.8-1.7,2-1.3,3.3-0.4c1.2,0.9,2.4,3,4.1,0.9c1.6-2,0.5-4-1.2-5.2c-3.2-2.3-2.8-5.1-1.8-8.3
			c2.2-7.7,4.2-15.4,6.4-23c3.4-11.8,5.6-23.9,10.2-35.3c0.1,0,0.2-0.1,0.3-0.4c0.1-0.1,0.1-0.2,0-0.4c1,2.6,2.8,3.9,4.9,4.7
			c-1-0.3-2.1-0.4-3.2-0.1c1.8,9.3,5.3,18,7.9,27c0.9,2.1,2.9,2.6,4.9,3c8.2,2,16.4,2.3,24.6,0.1c2-0.5,4.4-0.6,5.5-2.9
			c2.8-9.4,5.5-18.8,8.3-28.2c-1.4,0.6-2.7,1-4.1,1.3c2.1-0.8,3.8-2.1,4.7-4.9c0.1-0.1,0.1-0.1,0.2-0.2c-0.3,0.6-0.4,1.2,0.2,1.7
			c1.1-0.5,1.6-0.3,2,1.1c4.5,16.9,9.2,33.6,13.6,50.5c1.3,5.2,4.6,10.7-1.4,15.4c-1,0.8-1.3,2.8,0,4.1c1.5,1.5,2.8,0.3,3.8-0.7
			c2-1.9,2.9-1.1,4,1c2.1,4,2.4,7.5-0.9,10.8c-1,1-1.5,2.3-0.5,3.6c1.1,1.4,2.4,0.7,3.6,0.1C201.4,318.8,205.6,310.4,204.4,303.8z
			 M117.1,233.5c-0.7-1.6-1.4-3.3-2.3-5.5c1,2.2,1.6,4,2.4,5.6C117.2,233.6,117.2,233.5,117.1,233.5z M126.5,239.7
			c-1,0-2-0.4-2.9-0.7c1,0.3,2.1,0.5,3.2,0.8C126.7,239.8,126.6,239.7,126.5,239.7z M128.9,240c1.8,0,3.5,0,5.1,0
			C132.3,240.1,130.6,240.1,128.9,240z M149.4,240.2c-0.1,0-0.2,0.1-0.2,0.1c0,0.7-0.5-0.4,0.2-0.4c2.3,0.1,4.6,0.2,6.8,0.2
			C153.9,240.2,151.6,240.2,149.4,240.2z M171.4,233.3c1-1.3,1.3-3,2.3-4.2C172.7,230.3,172.5,232.1,171.4,233.3z"/>
		<path class="st6" d="M142.1,300.4c0,36.6,0,73.2,0.1,109.8c0,4.6-1.5,7-6.4,6.3c-0.8-0.1-1.7,0.1-2.5,0c-2.3-0.4-5.5,1.4-6.9-1.2
			c-1.5-2.9,2.1-3.6,3.5-5.2c2.1-2.3,1.2-5.1,1-7.6c-1.2-15.7-2.6-31.4-3.9-47.1c-1.5-18.3-3.1-36.7-4.6-55
			C129,299.7,135.6,299.1,142.1,300.4z"/>
		<path class="st6" d="M166.1,300.5c-1.2,15.9-2.4,31.7-3.6,47.6c-0.7,8.8-1.5,17.5-2.3,26.3c-0.9,10.4-1.6,20.8-2.7,31.2
			c-0.3,2.7,1.1,3.9,2.6,5.4c1.1,1.1,3.2,2,2.5,3.9c-0.8,2.3-3.1,1.4-4.8,1.5c-2.3,0.1-4.7,0-7,0c-2.1,0-3.6-0.6-3.7-3
			c0-34.9,0-69.8,0-104.8c0-3.2-0.4-6.5,3.4-8.1C155.7,300.1,160.9,298.8,166.1,300.5z"/>
		<path class="st7" d="M146.4,299.9c1.7,0.5,3.4,1,5.1,1.5c-2.7,1.2-3.3,3.3-3.3,6.1c0.1,33.4,0,66.8,0.1,100.2
			c0,1.6,0.6,3.2,0.8,4.9c0.3,1.9-0.9,1.2-1.9,1c-0.8-1.4-0.9-2.8-0.9-4.3C146.3,372.7,146.3,336.3,146.4,299.9z"/>
		<path class="st8" d="M171.1,233.5c0,0.7,0,1.3,0,2c-0.3,0.7-0.6,1.4-0.9,2c-8.1,4.3-16.3,3.4-24.6,1.6
			C154.6,239.4,164,242.5,171.1,233.5L171.1,233.5z"/>
		<path class="st9" d="M126.2,240.5c0.3-0.3,0.7-0.7,1-1c5.1-0.3,10.4,0.9,15.5-0.5C137.4,241.5,131.6,240.1,126.2,240.5z"/>
		<path class="st10" d="M136.1,209.5c5.8,0.2,5.8,0.2,7,4.8c-2.6-3.3-5.6-4.1-8.9-3.8C134.1,208.6,135.1,208.9,136.1,209.5z"/>
		<path class="st11" d="M117.1,233.5c-1.9-2.4-3.4-5-4-9.2C116.1,227.4,116.8,230.4,117.1,233.5
			C117.1,233.5,117.1,233.5,117.1,233.5z"/>
		<path class="st12" d="M154.1,210.5c-2.9-0.1-5.8,0.1-8.1,2.6c1.1-4,4.2-3.5,7.1-3.6C154.2,209.1,154.3,209.6,154.1,210.5z"/>
		<path class="st13" d="M136.1,209.5c-0.8,0.1-1.6,0.2-2,1c-1.9-1.3-4.6-0.4-6.5-2.8C130.9,207.8,133.6,208.2,136.1,209.5z"/>
		<path class="st14" d="M171.1,233.5c0.5-2.7,1.9-5,3.6-7.1C174.1,229.1,174.2,232.1,171.1,233.5
			C171.1,233.5,171.1,233.5,171.1,233.5z"/>
		<path class="st15" d="M154.1,210.5c-0.3-0.3-0.6-0.7-1-1c2-1.7,4.7-0.7,6.9-1.6C158.4,209.6,156.3,210,154.1,210.5z"/>
		<path class="st16" d="M157.8,168.3c0.2,2.6,0.3,3.9,0.3,5.6c-0.1,2.6-0.4,4.8-0.7,6.3c-0.2,1.5-0.7,3.5-1.8,5.7
			c-0.8,1.6-1.6,2.8-2.4,3.8c-0.7,0.8-3,3.3-5.9,3.8c-0.5,0.1-1.3,0.1-2.3,0.1c0,0-1.8-0.1-3.4-0.5c-2.7-0.8-4.6-3.1-5.6-4.2
			c-2.7-3-3.6-6.1-4.2-8.2c-0.7-2.7-0.8-4.9-0.9-9.3c-0.1-3.5-0.1-5.3,0.4-7.7c0.5-2.2,1-4.6,2.7-6.9c0.4-0.5,4.2-5.3,10.4-5.2
			c4,0.1,6.7,2.2,7.7,3c0.5,0.4,3.1,2.6,4.5,6.4C157.2,162.1,157.4,164.1,157.8,168.3z"/>
	</g>
</g>
<path class="st16" d="M176.8,182.9"/>
<path class="st6" d="M168.2,175.1"/>
<path class="st6" d="M159.5,183.4"/>
<path class="st6" d="M155.1,196.7"/>
<path class="st6" d="M153.2,195.5"/>
<path class="st6" d="M134.8,193.4"/>
<path class="st6" d="M134.7,192.6"/>
<path class="st6" d="M135.3,192.6"/>
</svg>
