<?xml version="1.0" encoding="UTF-8" standalone="no"?>
<!-- Generator: Adobe Illustrator 23.0.3, SVG Export Plug-In . SVG Version: 6.00 Build 0)  -->

<svg
   xmlns:dc="http://purl.org/dc/elements/1.1/"
   xmlns:cc="http://creativecommons.org/ns#"
   xmlns:rdf="http://www.w3.org/1999/02/22-rdf-syntax-ns#"
   xmlns:svg="http://www.w3.org/2000/svg"
   xmlns="http://www.w3.org/2000/svg"
   xmlns:sodipodi="http://sodipodi.sourceforge.net/DTD/sodipodi-0.dtd"
   xmlns:inkscape="http://www.inkscape.org/namespaces/inkscape"
   version="1.1"
   id="Layer_1"
   x="0px"
   y="0px"
   viewBox="0 0 300 500"
   style="enable-background:new 0 0 300 500;"
   xml:space="preserve"
   sodipodi:docname="male_apple_suit.svg"
   inkscape:version="0.92.3 (2405546, 2018-03-11)"><metadata
   id="metadata843"><rdf:RDF><cc:Work
       rdf:about=""><dc:format>image/svg+xml</dc:format><dc:type
         rdf:resource="http://purl.org/dc/dcmitype/StillImage" /><dc:title></dc:title></cc:Work></rdf:RDF></metadata><defs
   id="defs841" /><sodipodi:namedview
   pagecolor="#ffffff"
   bordercolor="#666666"
   borderopacity="1"
   objecttolerance="10"
   gridtolerance="10"
   guidetolerance="10"
   inkscape:pageopacity="0"
   inkscape:pageshadow="2"
   inkscape:window-width="1920"
   inkscape:window-height="1001"
   id="namedview839"
   showgrid="false"
   inkscape:zoom="6.48"
   inkscape:cx="150"
   inkscape:cy="77.160494"
   inkscape:window-x="-9"
   inkscape:window-y="-9"
   inkscape:window-maximized="1"
   inkscape:current-layer="Layer_1" />
<style
   type="text/css"
   id="style815">
	.st0{fill:#00A9C0;}
	.st1{fill:#FCC6A0;}
	.st2{opacity:0.6;fill:#92745E;enable-background:new    ;}
	.st3{opacity:0.14;fill:#422200;enable-background:new    ;}
	.st4{fill:#FBC59F;}
</style>
<g
   id="Layer_3">
</g>



<path
   style="fill:#000000;stroke:#000000;stroke-width:1px;stroke-linecap:butt;stroke-linejoin:miter;stroke-opacity:1"
   d="m 128.9,84.8 -6.36914,1.465432 -4.62963,1.697531 -10.18518,1.234568 -6.48148,1.697531 -7.56173,3.858024 -4.475309,4.62963 -4.475309,6.018514 -20.061728,46.45062 -11.265432,35.03087 -3.858025,17.43827 32.407407,12.65432 L 89.2,195.5 l -1.1,19.6 0.171605,20.08519 40.277775,57.4074 z"
   id="path845"
   inkscape:connector-curvature="0" /><path
   style="fill:#000000;stroke:#000000;stroke-width:1px;stroke-linecap:butt;stroke-linejoin:miter;stroke-opacity:1"
   d="m 172.68519,87.5 6.6358,0.308642 9.72222,0.308642 7.71605,2.623457 6.6358,2.932099 5.8642,4.938271 4.01234,4.166669 5.40124,11.88271 8.02469,19.13581 8.33333,20.67901 13.73457,44.90741 -33.48765,11.72839 L 209.3,195.4 l 0.9,18.8 -1.24938,25.46049 -36.11111,51.54321 z"
   id="path847"
   inkscape:connector-curvature="0" /><path
   style="fill:#ffffff;stroke:#000000;stroke-width:1px;stroke-linecap:butt;stroke-linejoin:miter;stroke-opacity:1"
   d="m 128.9,84.8 14.61852,15.81728 14.50617,-0.15432 14.6605,-12.96296 -0.30865,144.44444 0.15432,19.75309 -43.51851,0.15432 z"
   id="path849"
   inkscape:connector-curvature="0" /><path
   style="fill:#2c89a0;stroke:#000000;stroke-width:1px;stroke-linecap:butt;stroke-linejoin:miter;stroke-opacity:1"
   d="m 143.51852,100.61728 -3.24074,4.78395 6.17284,4.93828 8.33333,-0.15432 5.24691,-4.93828 -2.00617,-4.78395 z"
   id="path851"
   inkscape:connector-curvature="0" /><path
   style="fill:none;stroke:#000000;stroke-width:1px;stroke-linecap:butt;stroke-linejoin:miter;stroke-opacity:1"
   d="M 140.27778,105.40123 128.7037,96.91358 Z"
   id="path853"
   inkscape:connector-curvature="0" /><path
   style="fill:none;stroke:#000000;stroke-width:1px;stroke-linecap:butt;stroke-linejoin:miter;stroke-opacity:1"
   d="m 160.03086,105.24691 12.34568,-7.098762 z"
   id="path855"
   inkscape:connector-curvature="0" /><path
   style="fill:#2c89a0;stroke:#000000;stroke-width:1px;stroke-linecap:butt;stroke-linejoin:miter;stroke-opacity:1"
   d="m 146.45062,110.33951 0.30864,37.5 4.01234,9.25926 4.32099,-9.41358 -0.30864,-37.5 z"
   id="path857"
   inkscape:connector-curvature="0" /><path
   style="fill:#000000;stroke:#000000;stroke-width:1px;stroke-linecap:butt;stroke-linejoin:miter;stroke-opacity:1"
   d="m 88.271605,235.18519 121.141975,-0.15433 -0.46296,16.97531 -0.77161,15.74074 L 206.9,277 l 0.19877,8.80247 -4.32099,41.82099 -5.24692,48.14814 -7.4074,48.14815 -13.27161,47.53087 -24.07407,-1.08025 0.15432,-207.25309 h -8.17901 l 3.85802,208.17902 -25.46296,0.30864 -3.24074,-10.03087 -7.25309,-26.85185 -7.71605,-35.3395 L 97.067901,337.5 91.820988,289.96914 89.04321,259.87654 Z"
   id="path859"
   inkscape:connector-curvature="0" /></svg>