<?xml version="1.0" encoding="utf-8"?>
<!-- Generator: Adobe Illustrator 23.0.1, SVG Export Plug-In . SVG Version: 6.00 Build 0)  -->
<svg version="1.1" id="Layer_1" xmlns="http://www.w3.org/2000/svg" xmlns:xlink="http://www.w3.org/1999/xlink" x="0px" y="0px"
	 viewBox="0 0 300 500" style="enable-background:new 0 0 300 500;" xml:space="preserve">
<style type="text/css">
	.st0{fill:#FBC59F;}
	.st1{fill:#F9C29A;}
	.st2{fill:#02A0B4;}
	.st3{fill:#4C3628;}
	.st4{fill:#643312;}
	.st5{fill:#FAD2B4;}
	.st6{opacity:0.68;fill:#92745E;}
</style>
<g>
	<path class="st0" d="M143.1,282.3c0.1,63.2,0,126.4,0.3,189.6c0,7.9-2.9,12.1-12.6,10.8c-1.6-0.2-3.3,0.2-4.9-0.1
		c-4.6-0.7-10.9,2.4-13.5-2.1c-2.9-5,4.1-6.2,6.9-8.9c4.1-4,2.3-8.8,1.9-13.2c-2.4-27.1-5.1-54.2-7.7-81.3c-3-31.6-6-63.3-9-95
		C117.3,281,130.2,280.1,143.1,282.3z"/>
	<path class="st0" d="M190,282.5c-2.4,27.4-4.7,54.8-7.1,82.2c-1.4,15.1-3,30.2-4.4,45.3c-1.7,18-3.1,36-5.3,53.9
		c-0.6,4.7,2.2,6.8,5.2,9.4c2.2,1.9,6.2,3.5,4.9,6.8c-1.6,3.9-6,2.5-9.4,2.6c-4.6,0.2-9.1,0-13.7,0.1c-4.2,0.1-7-1.1-7.3-5.2
		c0.1-60.3,0-120.6,0-180.9c0-5.5-0.7-11.2,6.6-14C169.7,281.8,179.8,279.6,190,282.5z"/>
	<path class="st1" d="M151.3,281.4c3.3,0.9,6.6,1.7,9.9,2.6c-5.2,2-6.5,5.7-6.5,10.5c0.1,57.7,0.1,115.4,0.2,173.1
		c0,2.8,1.2,5.6,1.6,8.4c0.5,3.2-1.8,2.1-3.6,1.7c-1.5-2.3-1.7-4.9-1.7-7.5C151.2,407.2,151.3,344.3,151.3,281.4z"/>
	<path class="st2" d="M143.1,275.6c0.6-3.6,0.3-10.7,3.9-12c0,0,0,0,0.1,0c1.1,0.1,2.1,0.1,3.2,0.2c2.3,5.8,0.6,11.7,1.1,17.6
		c2.3,4,6.6,1.9,9.9,2.6c9.6,0.1,19.3,0.4,28.8-1.4c0.5-2.8,1.1-5.6,1.2-8.4c1.1-17.8,4.3-35.9-9.3-51.7
		c-22.9,6.7-45.9,7.6-68.7-0.4c-7.6,8.7-10.9,18.8-10.8,29.5c0,10.2,1.3,20.4,2,30.7c12.9,3.2,25.7,1.7,38.6,0.1
		C143,280.1,143,277.8,143.1,275.6"/>
	<g>
		<path class="st0" d="M129.2,95.2c0.1-0.1,0.1-0.3,0.2-0.4C129.3,94.9,129.3,95,129.2,95.2z"/>
		<path class="st0" d="M129.7,94.2c-0.1,0.2-0.2,0.3-0.3,0.5C129.5,94.6,129.6,94.4,129.7,94.2C129.7,94.3,129.7,94.3,129.7,94.2z"
			/>
		<path class="st0" d="M265.3,288.1c-4.1-19.2-8.1-38.3-12.3-57.4c-7.5-33.5-14.8-66.9-22.7-100.3c-3.2-13.4-9.7-16.9-24.9-19
			c-10.6-1.5-21.4-0.2-31.8-2.9c-1-1-2.4-2.6-3.6-4.7c-0.2-0.3-0.7-1.1-1.5-3.6c-2.2-6.7-2-5.8-2.3-7c-0.5-1.8-1-4.2-1.3-6.9
			c-1.8,1.3-7.6,5.1-16.2,5.4c-8.8,0.3-15.1-3.2-17-4.4c0,1.6-0.3,2.9-0.6,3.8c-0.4,1.3-0.9,2.4-1.3,3.1c0-0.1,0.1-0.1,0.1-0.2
			c0,0.1-0.1,0.2-0.1,0.2c-0.2,0.3-0.3,0.6-0.5,0.9c-1.3,2.3-2.4,4.3-3.1,5.9c-0.8,1.6-1.5,2.8-2.5,4.2c-0.4,0.7-1.2,1.7-2.2,3
			c-1.6,0.3-4.5,0.9-8.2,1.4c-12,1.6-19.1,1.1-31,3.2c-7,1.2-11.6,4.6-14.6,10.2c-2.7,5-3.9,10.3-5.1,15.7
			c-10.8,48-21.2,96.1-32.5,144c-3.5,14.5,2.1,25.1,13.9,34.1c2.6,2,5.9,4.8,9.4,1.9c3.3-2.7,1.6-5.9-1.2-8.3
			c-7.5-6.5-2.6-12.6,0.6-18.8c1.6-2.9,3.9-2.3,6.4-0.7c2.4,1.6,4.8,5.2,8,1.6c3.2-3.4,1-6.8-2.4-8.9c-6.4-4-5.4-8.9-3.6-14.3
			c4.3-13.2,8.2-26.5,12.6-39.8c6.6-20.3,11-41.2,20-60.9c1.3,2.3,2.6,4.5,3.9,6.8c0,0,0.1,0,0.1,0c0,0,0,0,0,0
			c3.5,16,10.4,31,15.5,46.6c1.8,3.7,5.8,4.4,9.5,5.2c16.1,3.4,32.2,3.9,48.3,0.1c4-0.9,8.6-1.1,10.8-5
			c5.4-16.2,10.8-32.4,16.2-48.7c-0.2,0.1-0.4,0.1-0.6,0.2c0.2-0.1,0.4-0.2,0.6-0.3c0.6-1.2,1.2-2.3,1.8-3.5c0,0,0,0,0,0
			c0,0,0,0,0.1,0.1c2.2-0.8,3.2-0.5,3.9,1.9c8.8,29.1,18,58.1,26.6,87.2c2.6,8.9,9.1,18.4-2.7,26.6c-1.9,1.3-2.6,4.9,0,7.1
			c3,2.6,5.4,0.5,7.5-1.3c3.9-3.2,5.6-1.9,7.9,1.8c4.2,6.8,4.8,12.9-1.9,18.7c-2,1.7-3,3.9-1,6.2c2.2,2.5,4.7,1.1,7.1,0.2
			C259.3,314,267.7,299.6,265.3,288.1z M125.7,101.7c-0.6,1.3-1,2.1-1,2.1C124.7,103.8,125.1,103,125.7,101.7z M94,166.8
			C94,166.8,94,166.8,94,166.8c0-0.1,0-0.1,0-0.2c0.1,0.1,0.2,0.3,0.2,0.4C94.2,167,94.1,166.9,94,166.8z"/>
	</g>
	<path class="st3" d="M176.6,73.2"/>
	<path class="st3" d="M176.6,64.8L176.6,64.8"/>
	<path class="st4" d="M138.1,59.7"/>
	<path class="st0" d="M173.8,54.1c0.4,4.4,0.6,6.7,0.6,9.6c-0.1,4.5-0.8,8.2-1.3,10.8c-0.5,2.6-1.4,6-3.5,9.8
		c-1.5,2.7-3.1,4.9-4.6,6.5c-1.4,1.4-5.8,5.8-11.6,6.5c-0.9,0.1-2.6,0.2-4.5,0.2c0,0-3.5-0.1-6.6-0.9c-5.3-1.4-9-5.3-11-7.2
		c-5.2-5.1-7-10.5-8.2-14.2c-1.5-4.6-1.6-8.4-1.8-16c-0.2-6.1-0.2-9.2,0.8-13.3c0.9-3.8,1.9-7.9,5.4-11.8c0.8-0.9,8.3-9.2,20.3-8.9
		c7.8,0.2,13.2,3.8,15.2,5.2c1,0.7,6.2,4.5,8.8,11C172.7,43.5,173.1,47,173.8,54.1z"/>
	<path class="st5" d="M211,79.5"/>
	<path class="st0" d="M194.3,66"/>
	<path class="st0" d="M177.2,80.3"/>
	<path class="st0" d="M168.6,103.3"/>
	<path class="st0" d="M164.7,101.2"/>
	<path class="st0" d="M128.6,97.6"/>
	<path class="st0" d="M128.4,96.2"/>
	<path class="st0" d="M129.7,96.3"/>
	<path class="st6" d="M166.7,95.1L166.7,95.1c-0.7,0.9-1.4,1.7-2,2.4c-1.5,1.4-6.1,5.8-12.1,6.5c-0.9,0.1-2.7,0.2-4.7,0.2
		c0,0-3.7-0.1-6.9-0.9c-5.6-1.4-9.4-5.3-11.5-7.2c-0.2-0.2-0.3-0.3-0.5-0.5c0.3-0.7,0.7-1.5,1-2.5c0.3-0.9,0.6-2.2,0.6-3.8
		c2,1.2,8.5,4.7,17.8,4.4c9-0.3,15.1-4.1,17-5.4C165.7,91,166.2,93.3,166.7,95.1z"/>
	<path class="st0" d="M172.9,58.7c0.4,4.4,0.6,6.7,0.6,9.6c-0.1,4.5-0.8,8.2-1.3,10.8c-0.5,2.6-1.4,6-3.5,9.8
		c-1.5,2.7-3.1,4.9-4.6,6.5c-1.4,1.4-5.8,5.8-11.6,6.5c-0.9,0.1-2.6,0.2-4.5,0.2c0,0-3.5-0.1-6.6-0.9c-5.3-1.4-9-5.3-11-7.2
		c-5.2-5.1-7-10.5-8.2-14.2c-1.5-4.6-1.6-8.4-1.8-16c-0.2-6.1-0.2-9.2,0.8-13.3c0.9-3.8,1.9-7.9,5.4-11.8c0.8-0.9,8.3-9.2,20.3-8.9
		c7.8,0.2,13.2,3.8,15.2,5.2c1,0.7,6.2,4.5,8.8,11C171.9,48.1,172.2,51.6,172.9,58.7z"/>
</g>
</svg>
