<?xml version="1.0" encoding="utf-8"?>
<!-- Generator: Adobe Illustrator 23.0.1, SVG Export Plug-In . SVG Version: 6.00 Build 0)  -->
<svg version="1.1" id="Layer_1" xmlns="http://www.w3.org/2000/svg" xmlns:xlink="http://www.w3.org/1999/xlink" x="0px" y="0px"
	 viewBox="0 0 300 500" style="enable-background:new 0 0 300 500;" xml:space="preserve">
<style type="text/css">
	.st0{fill:#422200;}
	.st1{fill:#FBC59F;}
	.st2{fill:#F9C29A;}
	.st3{fill:#02A0B4;}
	.st4{fill:#4C3628;}
	.st5{fill:#FAD2B4;}
	.st6{opacity:0.14;fill:#422200;enable-background:new    ;}
</style>
<path class="st0" d="M-76.7,51.5"/>
<g>
	<g>
		<path class="st1" d="M144.6,277c0.1,68.3,0,136.7,0.3,205c0,8.5-3,13.1-13,11.7c-1.6-0.2-3.4,0.2-5.1-0.1
			c-4.7-0.8-11.2,2.6-13.9-2.3c-3-5.4,4.2-6.7,7.1-9.6c4.2-4.3,2.4-9.5,2-14.3c-2.5-29.3-5.3-58.6-7.9-87.9
			c-3.1-34.2-6.2-68.4-9.3-102.7C118,275.6,131.3,274.6,144.6,277z"/>
		<path class="st1" d="M193,277.2c-2.5,29.6-4.8,59.2-7.3,88.9c-1.4,16.3-3.1,32.7-4.5,49c-1.8,19.5-3.2,38.9-5.5,58.3
			c-0.6,5.1,2.3,7.4,5.4,10.2c2.3,2.1,6.4,3.8,5.1,7.4c-1.6,4.2-6.2,2.7-9.7,2.8c-4.7,0.2-9.4,0-14.1,0.1c-4.3,0.1-7.2-1.2-7.5-5.6
			c0.1-65.2,0-130.4,0-195.6c0-5.9-0.7-12.1,6.8-15.1C172,276.5,182.4,274.1,193,277.2z"/>
		<path class="st2" d="M153.1,276c3.4,1,6.8,1.8,10.2,2.8c-5.4,2.2-6.7,6.2-6.7,11.4c0.1,62.4,0.1,124.8,0.2,187.2
			c0,3,1.2,6.1,1.6,9.1c0.5,3.5-1.9,2.3-3.7,1.8c-1.5-2.5-1.8-5.3-1.8-8.1C153,412.1,153.1,344,153.1,276z"/>
		<path class="st3" d="M144.6,269.8c0.6-3.9,0.3-11.6,4-13c0,0,0,0,0.1,0c1.1,0.1,2.2,0.1,3.3,0.2c2.4,6.3,0.6,12.6,1.1,19
			c2.4,4.3,6.8,2.1,10.2,2.8c9.9,0.1,19.9,0.4,29.7-1.5c0.5-3,1.1-6.1,1.2-9.1c1.1-19.2,4.4-38.8-9.6-55.9
			c-23.6,7.2-47.3,8.2-70.8-0.4c-7.8,9.4-11.2,20.3-11.1,31.9c0,11,1.3,22.1,2.1,33.2c13.3,3.5,26.5,1.8,39.8,0.1
			C144.5,274.6,144.5,272.1,144.6,269.8"/>
		<g>
			<path class="st1" d="M130.3,74.7c0.1-0.1,0.1-0.3,0.2-0.4C130.4,74.4,130.4,74.5,130.3,74.7z"/>
			<path class="st1" d="M130.8,73.6c-0.1,0.2-0.2,0.3-0.3,0.5C130.6,74.1,130.7,73.9,130.8,73.6C130.8,73.8,130.8,73.8,130.8,73.6z"
				/>
			<path class="st1" d="M270.6,283.3c-4.2-20.8-8.3-41.4-12.7-62.1c-7.7-36.2-15.3-72.3-23.4-108.4c-3.3-14.5-10-18.3-25.7-20.5
				c-10.9-1.6-22.1-0.2-32.8-3.1c-1-1.1-2.5-2.8-3.7-5.1c-0.2-0.3-0.7-1.2-1.5-3.9c-2.3-7.2-2.1-6.3-2.4-7.6c-0.5-1.9-1-4.5-1.3-7.5
				c-1.9,1.4-7.8,5.5-16.7,5.8c-9.1,0.3-15.6-3.5-17.5-4.8c0,1.7-0.3,3.1-0.6,4.1c-0.4,1.4-0.9,2.6-1.3,3.4c0-0.1,0.1-0.1,0.1-0.2
				c0,0.1-0.1,0.2-0.1,0.2c-0.2,0.3-0.3,0.6-0.5,1c-1.3,2.5-2.5,4.6-3.2,6.4c-0.8,1.7-1.5,3-2.6,4.5c-0.4,0.8-1.2,1.8-2.3,3.2
				c-1.6,0.3-4.6,1-8.5,1.5c-12.4,1.7-19.7,1.2-32,3.5c-7.2,1.3-12,5-15,11c-2.8,5.4-4,11.1-5.3,17
				c-11.1,51.9-21.9,103.9-33.5,155.7c-3.6,15.7,2.2,27.1,14.3,36.9c2.7,2.2,6.1,5.2,9.7,2.1c3.4-2.9,1.6-6.4-1.2-9
				c-7.7-7-2.7-13.6,0.6-20.3c1.6-3.1,4-2.5,6.6-0.8c2.5,1.7,4.9,5.6,8.2,1.7c3.3-3.7,1-7.4-2.5-9.6c-6.6-4.3-5.6-9.6-3.7-15.5
				c4.4-14.3,8.5-28.7,13-43c6.8-21.9,11.3-44.5,20.6-65.8c1.3,2.5,2.7,4.9,4,7.4h0.1l0,0c3.6,17.3,10.7,33.5,16,50.4
				c1.9,4,6,4.8,9.8,5.6c16.6,3.7,33.2,4.2,49.8,0.1c4.1-1,8.9-1.2,11.1-5.4c5.6-17.5,11.1-35,16.7-52.7c-0.2,0.1-0.4,0.1-0.6,0.2
				c0.2-0.1,0.4-0.2,0.6-0.3c0.6-1.3,1.2-2.5,1.9-3.8l0,0c0,0,0,0,0.1,0.1c2.3-0.9,3.3-0.5,4,2.1c9.1,31.5,18.6,62.8,27.4,94.3
				c2.7,9.6,9.4,19.9-2.8,28.8c-2,1.4-2.7,5.3,0,7.7c3.1,2.8,5.6,0.5,7.7-1.4c4-3.5,5.8-2.1,8.1,1.9c4.3,7.4,4.9,13.9-2,20.2
				c-2.1,1.8-3.1,4.2-1,6.7c2.3,2.7,4.8,1.2,7.3,0.2C264.4,311.3,273.1,295.7,270.6,283.3z M126.7,81.8c-0.6,1.4-1,2.3-1,2.3
				C125.6,84,126.1,83.2,126.7,81.8z M94,152.1L94,152.1c0-0.1,0-0.1,0-0.2c0.1,0.1,0.2,0.3,0.2,0.4S94.1,152.2,94,152.1z"/>
		</g>
		<path class="st4" d="M179.1,50.9"/>
		<path class="st4" d="M179.1,41.9L179.1,41.9"/>
		<path class="st5" d="M214.6,57.7"/>
		<path class="st1" d="M197.4,43.2"/>
		<path class="st1" d="M179.8,58.6"/>
		<path class="st1" d="M170.9,83.5"/>
		<path class="st1" d="M166.9,81.2"/>
		<path class="st1" d="M129.7,77.3"/>
		<path class="st1" d="M129.5,75.8"/>
		<path class="st1" d="M130.8,75.9"/>
	</g>
	<path class="st6" d="M134.1,68.2c-1.9,1.2-3.4,3.4-3,5.2c1.3,5.5,21.8,5.3,21.7,5.8c-0.1,0.4-3.2,0.2-3.1,0.2c4,0,8.3-1.8,8.3-1.8
		c2-0.7,5.4-1.3,11.7-0.9c-0.9-3.9-1.7-7.8-2.6-11.6c-1.4,3.2-3.5,5.9-6.5,7.1C151.5,76,141.1,63.8,134.1,68.2z"/>
	<path class="st1" d="M173.7,46.4c-3.8,19.1-11.1,29.3-24.5,29.3s-20.9-11.9-23.6-31.3c-2.7-19.2,10.9-35.1,24.3-35.1
		S177.2,29.2,173.7,46.4z"/>
</g>
</svg>
