<?xml version="1.0" encoding="utf-8"?>
<!-- Generator: Adobe Illustrator 23.0.1, SVG Export Plug-In . SVG Version: 6.00 Build 0)  -->
<svg version="1.1"
	 id="Layer_1" xmlns:cc="http://creativecommons.org/ns#" xmlns:dc="http://purl.org/dc/elements/1.1/" xmlns:rdf="http://www.w3.org/1999/02/22-rdf-syntax-ns#" xmlns:svg="http://www.w3.org/2000/svg"
	 xmlns="http://www.w3.org/2000/svg" xmlns:xlink="http://www.w3.org/1999/xlink" x="0px" y="0px" viewBox="0 0 300 500"
	 style="enable-background:new 0 0 300 500;" xml:space="preserve">
<g>
	<g>
		<path d="M151.8,42.2c0.4,1.4,0,2.9,0.5,4.2c0.1,0.4,0.5,0.8,0.8,1.2c0.2,0.3,0.7,0.7,0.6,1.1c-0.1,0.6-1.5,0.8-2,0.9
			c-0.9,0.1-1.7-0.3-2.5-0.5c-0.6-0.2-1.1-0.3-1.8-0.4c-0.3,0-0.7,0-0.9-0.2c-0.6-0.4-0.5-1.1,0.2-1.3c0.5-0.2,0.3-0.9-0.2-0.7
			c-0.8,0.3-1.4,0.7-1.3,1.4c0.1,0.6,0.6,1.2,1.4,1.4c0.3,0.1,0.7,0.1,1.1,0.1c0.6,0,1.2,0.3,1.8,0.5c1.1,0.4,2.1,0.5,3.3,0.3
			c0.7-0.2,1.7-0.5,1.9-1.1c0.2-0.5-0.1-1-0.4-1.4c-0.6-0.8-1-1.3-1.1-2.2c-0.1-1.2,0-2.3-0.4-3.4C152.5,41.6,151.7,41.8,151.8,42.2
			L151.8,42.2z"/>
	</g>
</g>
</svg>
