<?xml version="1.0" encoding="utf-8"?>
<!-- Generator: Adobe Illustrator 23.0.1, SVG Export Plug-In . SVG Version: 6.00 Build 0)  -->
<svg version="1.1"
	 id="Layer_1" xmlns:cc="http://creativecommons.org/ns#" xmlns:dc="http://purl.org/dc/elements/1.1/" xmlns:rdf="http://www.w3.org/1999/02/22-rdf-syntax-ns#" xmlns:svg="http://www.w3.org/2000/svg"
	 xmlns="http://www.w3.org/2000/svg" xmlns:xlink="http://www.w3.org/1999/xlink" x="0px" y="0px" viewBox="0 0 300 500"
	 style="enable-background:new 0 0 300 500;" xml:space="preserve">
<g>
	<g>
		<g>
			<path d="M145.3,59.6c-0.7,1.3-0.5,3.3,1.4,3.2c0.5,0,0.5-0.8,0-0.8c-1.3,0.1-1.1-1.3-0.7-2.1C146.2,59.5,145.5,59.1,145.3,59.6
				L145.3,59.6z"/>
		</g>
	</g>
	<g>
		<g>
			<path d="M153.5,60.7c0.4,0.3,0.8,0.8,0.7,1.3c-0.1,0.6-0.9,0.6-1.3,0.6c-0.5-0.1-0.5,0.7,0,0.8c0.8,0.1,1.8-0.1,2.1-1
				c0.3-0.8-0.2-1.7-0.8-2.2C153.6,59.8,153.1,60.4,153.5,60.7L153.5,60.7z"/>
		</g>
	</g>
	<g>
		<g>
			<path d="M148,62.4c0,1.2,0.9,1.7,2.1,1.7c1.3,0.1,1.8-0.8,1.9-1.9c0-0.5-0.8-0.5-0.8,0c0,0.6-0.1,1.1-0.9,1.1
				c-0.7,0-1.4-0.2-1.4-1C148.8,61.9,148,61.9,148,62.4L148,62.4z"/>
		</g>
	</g>
	<g>
		<g>
			<path d="M148.8,55.2c0.3,1.3,0.4,2.8-0.8,3.7c-0.4,0.3,0.2,0.9,0.6,0.6c1.4-1.1,1.3-2.9,1-4.4C149.5,54.5,148.7,54.7,148.8,55.2
				L148.8,55.2z"/>
		</g>
	</g>
</g>
</svg>
