<?xml version="1.0" encoding="UTF-8" standalone="no"?>
<!-- Generator: Adobe Illustrator 23.0.1, SVG Export Plug-In . SVG Version: 6.00 Build 0)  -->

<svg
   xmlns:dc="http://purl.org/dc/elements/1.1/"
   xmlns:cc="http://creativecommons.org/ns#"
   xmlns:rdf="http://www.w3.org/1999/02/22-rdf-syntax-ns#"
   xmlns:svg="http://www.w3.org/2000/svg"
   xmlns="http://www.w3.org/2000/svg"
   xmlns:sodipodi="http://sodipodi.sourceforge.net/DTD/sodipodi-0.dtd"
   xmlns:inkscape="http://www.inkscape.org/namespaces/inkscape"
   version="1.1"
   id="Layer_1"
   x="0px"
   y="0px"
   viewBox="0 0 300 500"
   style="enable-background:new 0 0 300 500;"
   xml:space="preserve"
   sodipodi:docname="pink_long_hair.svg"
   inkscape:version="0.92.3 (2405546, 2018-03-11)"><metadata
   id="metadata365"><rdf:RDF><cc:Work
       rdf:about=""><dc:format>image/svg+xml</dc:format><dc:type
         rdf:resource="http://purl.org/dc/dcmitype/StillImage" /><dc:title></dc:title></cc:Work></rdf:RDF></metadata><defs
   id="defs363" /><sodipodi:namedview
   pagecolor="#ffffff"
   bordercolor="#666666"
   borderopacity="1"
   objecttolerance="10"
   gridtolerance="10"
   guidetolerance="10"
   inkscape:pageopacity="0"
   inkscape:pageshadow="2"
   inkscape:window-width="1920"
   inkscape:window-height="1017"
   id="namedview361"
   showgrid="false"
   inkscape:zoom="1.63"
   inkscape:cx="150"
   inkscape:cy="250"
   inkscape:window-x="-8"
   inkscape:window-y="-8"
   inkscape:window-maximized="1"
   inkscape:current-layer="Layer_1" />
<style
   type="text/css"
   id="style356">
	.st0{fill:#FFAAFD;}
</style>
<path
   class="st0"
   d="M137.6,88.6c-6.2,3.1-13.3,0.5-19.7,2.9c-2,0.8-4.3,1-6.5,1.5c0.7-5-3.5-9.9-0.1-15.3c3.2,1.2,4.3,6.4,8.7,4.4  c4.7-2.1,3.8-6.5,3.8-10.3c0.2-16.4-1.1-32.8,2.9-49c2.2-8.8,7.9-13.3,17.2-13.9c0.3,0,0.5,0,0.8,0c19.2-1.6,31.7,2.4,31.3,28.8  c-0.2,12,0,24.1,0,36.1c0,3.6,0.6,7.1,4.5,8.6c4.2,1.6,5.6-2.3,8.5-5c1.3,5.3,1.6,9.8-0.8,14.3c-6.9,0.8-13.6-1.7-20.5-1.6  c-4.1,0.1-5.1-2.8-5.4-5.9c-0.3-3.9-0.1-7.9-0.1-11.8c2.3-8.2,5.1-16.2,4.2-24.9c-0.4-4.6-1.5-8.1-5.9-10.3c-4.1-2.1-7-5.6-10.2-9.8  c-3.9,5.2-8.2,9.3-13.4,12.4c-3,1.7-3.5,4.7-3.4,7.8c0.3,5.9,0.5,11.9,2.8,17.4C139.7,72.8,138.4,80.6,137.6,88.6z"
   id="path358" />
<path
   style="fill:#ffaaee;fill-opacity:1;stroke-width:0.61349696"
   d="m 110.86107,88.393521 c -1.15893,-6.758355 -0.89874,-10.418061 0.74066,-10.418061 0.40384,0 1.6708,0.966258 2.81545,2.147239 2.65453,2.738786 4.91627,2.846829 7.40915,0.353939 l 1.7933,-1.793294 V 62.77432 c 0,-23.89474 1.56259,-38.40376 4.81599,-44.717701 1.64736,-3.197047 4.695,-5.994594 8.3742,-7.68699 2.80717,-1.2912751 3.9265,-1.4110808 13.19018,-1.4117942 9.81167,-7.557e-4 10.23574,0.052147 13.80187,1.7217862 5.60877,2.625988 8.10396,5.439671 10.44158,11.774367 1.01123,2.740331 1.16919,5.859955 1.48107,29.250495 0.3375,25.313253 0.39169,26.240517 1.63127,27.914112 2.98789,4.034055 6.39909,3.944172 9.75124,-0.256945 l 1.80512,-2.262294 0.42143,1.511669 c 0.67791,2.431748 0.60117,8.83249 -0.13108,10.933024 -0.91945,2.63754 -2.30481,2.852816 -10.8614,1.687755 -3.98447,-0.542522 -8.38688,-0.986405 -9.78313,-0.986405 -1.79851,0 -3.04047,-0.431448 -4.25996,-1.47989 l -1.72132,-1.479889 v -8.489436 c 0,-7.420466 0.21581,-9.261939 1.71396,-14.624405 2.08353,-7.457819 2.68448,-14.106539 1.70177,-18.827753 -0.87707,-4.213638 -2.2119,-6.020806 -6.44934,-8.731462 -1.77143,-1.133175 -4.55813,-3.609348 -6.19265,-5.502607 l -2.97185,-3.44229 -3.81112,4.141627 c -2.09611,2.277894 -5.48626,5.245921 -7.53366,6.595614 -5.4805,3.612877 -5.9511,4.913892 -5.09726,14.092002 0.46988,5.050807 1.27376,9.171638 2.54681,13.055269 1.59861,4.876839 1.85524,6.559183 1.82485,11.963189 -0.0533,9.473491 -0.4532,11.042061 -3.04144,11.928534 -1.17586,0.40273 -4.36519,0.747822 -7.08739,0.766871 -2.8731,0.02012 -6.86234,0.543307 -9.5092,1.247178 -7.09139,1.885791 -6.95077,1.940975 -7.8091,-3.06443 z"
   id="path367"
   inkscape:connector-curvature="0" /><path
   style="fill:#ffaaee;fill-opacity:1;stroke-width:0.61349696"
   d="m 111.67775,91.932515 c -1.29281,-4.014957 -1.93201,-11.033883 -1.18266,-12.986632 0.55321,-1.441656 1.3705,-1.20138 4.00287,1.176816 2.83901,2.564872 4.68107,2.707203 7.23411,0.558964 l 1.88756,-1.588283 0.001,-15.129511 c 0.002,-22.830273 1.47694,-38.313937 4.2486,-44.608535 1.64185,-3.728727 4.63139,-6.776028 8.52193,-8.68657 3.38962,-1.6645499 3.76623,-1.7117088 13.66963,-1.7117088 h 10.18398 l 4.20599,2.1472388 c 4.81317,2.457216 7.39755,5.405347 9.5286,10.869748 1.33414,3.420991 1.39659,4.478463 1.75227,29.668878 0.406,28.754614 0.33507,28.25481 4.30053,30.30543 2.26972,1.173717 3.8938,0.595227 6.77717,-2.413994 2.10966,-2.201749 2.15422,-2.216209 2.5462,-0.826307 0.53923,1.911976 0.61086,7.255074 0.12953,9.661724 -0.73031,3.651589 -2.035,3.957196 -12.00288,2.811546 -12.42154,-1.427669 -12.46669,-1.437031 -13.74814,-2.850951 -0.95968,-1.058883 -1.19281,-2.461405 -1.36215,-8.194613 -0.18227,-6.17073 0.0146,-7.802326 1.82422,-15.121507 1.60794,-6.503343 2.03,-9.476443 2.03559,-14.339401 0.009,-7.937185 -0.86352,-9.807362 -6.48367,-13.895118 -2.28708,-1.663481 -5.36048,-4.419847 -6.82978,-6.125258 l -2.67146,-3.100746 -2.83655,3.320227 c -1.56011,1.826125 -4.44551,4.528665 -6.41199,6.005646 -5.7939,4.351659 -6.83937,5.498627 -7.25512,7.959407 -0.60294,3.568738 0.76687,13.841313 2.77707,20.826076 1.3987,4.859999 1.82287,7.580299 1.82287,11.690471 0,7.713644 -0.55007,10.972239 -1.98149,11.738313 -0.65691,0.351571 -4.5519,0.887522 -8.65553,1.191006 -4.10363,0.303485 -8.81637,0.970902 -10.47276,1.483154 -3.66071,1.132098 -5.22951,1.178546 -5.55603,0.16449 z"
   id="path369"
   inkscape:connector-curvature="0" /></svg>