<?xml version="1.0" encoding="UTF-8" standalone="no"?>
<!-- Generator: Adobe Illustrator 23.0.1, SVG Export Plug-In . SVG Version: 6.00 Build 0)  -->

<svg
   xmlns:dc="http://purl.org/dc/elements/1.1/"
   xmlns:cc="http://creativecommons.org/ns#"
   xmlns:rdf="http://www.w3.org/1999/02/22-rdf-syntax-ns#"
   xmlns:svg="http://www.w3.org/2000/svg"
   xmlns="http://www.w3.org/2000/svg"
   xmlns:sodipodi="http://sodipodi.sourceforge.net/DTD/sodipodi-0.dtd"
   xmlns:inkscape="http://www.inkscape.org/namespaces/inkscape"
   version="1.1"
   id="Layer_1"
   x="0px"
   y="0px"
   viewBox="0 0 300 500"
   style="enable-background:new 0 0 300 500;"
   xml:space="preserve"
   sodipodi:docname="pink_Medium_hair.svg"
   inkscape:version="0.92.3 (2405546, 2018-03-11)"><metadata
   id="metadata135"><rdf:RDF><cc:Work
       rdf:about=""><dc:format>image/svg+xml</dc:format><dc:type
         rdf:resource="http://purl.org/dc/dcmitype/StillImage" /><dc:title></dc:title></cc:Work></rdf:RDF></metadata><defs
   id="defs133" /><sodipodi:namedview
   pagecolor="#ffffff"
   bordercolor="#666666"
   borderopacity="1"
   objecttolerance="10"
   gridtolerance="10"
   guidetolerance="10"
   inkscape:pageopacity="0"
   inkscape:pageshadow="2"
   inkscape:window-width="1920"
   inkscape:window-height="1017"
   id="namedview131"
   showgrid="false"
   inkscape:zoom="1.63"
   inkscape:cx="150"
   inkscape:cy="250"
   inkscape:window-x="-8"
   inkscape:window-y="-8"
   inkscape:window-maximized="1"
   inkscape:current-layer="Layer_1" />
<style
   type="text/css"
   id="style126">
	.st0{fill:#FF94EE;}
</style>
<path
   class="st0"
   d="M137.4,86.9c-1,3.6,0.3,7.6-1.9,11c-2.9,0.5-0.9-5.8-5.6-3.6c-3.9,1.8-3.3-0.7-2.8-3.8c1.4-8.3-3.2-4.1-6.2-2.7  c-2.5-1.9,2.7-12-6.9-5.7c-0.6-4,1.8-6.7,2.9-10.2c-3.9-0.5-7.6-0.4-10.9-2.7c2.9-3.8,8.4-4.4,10.4-9.3c-2.7-2.9-8.2-2.3-9.9-7.1  c2-1.9,5.5,0,7.3-2.7c0.4-2.4-1.8-1.7-2.9-2.1c-3.2-1.1-7.6-1.9-7-5.9c0.6-3.7,4.7-1.2,7.1-1.3c6.3-0.4,8.1-4.6,9.5-9.6  c2.2-7.5,1.9-17.1,11.2-19.9c12.2-3.6,25-3.9,37.2,0.6c5.9,2.2,6.8,8.4,8.3,13.7c4.3,15.2,4.3,15.2,19.2,14.9  c-0.9,6.8-7.1,6.5-11.4,8.6c1.1,4.3,5.7,1.3,7.5,3.9c-1.9,4.3-6.6,4.2-9.9,6.5c1.4,3.6,4.6,5.3,7.8,7c1.7,0.9,3.5,1.8,0.8,3.7  c-1.9,2.6-7.6-2.5-7.8,3.7c0.2,0.5,0.3,1,0.3,1.6c1,2.1-0.2,3.2-1.9,4c-1.1,0.1-2.2,0.2-3.3,0.3c-2.7,1.1,0.7,4.8-2.5,5.6  c-6.7-0.8-3.4,4-3.9,6.7c-4.3,0.2-0.6-4.8-3.2-5.4c1.4,2.2,1.2,4.5,0,6.9c-1.1-0.2-2.2-0.5-3.3-0.7c-2-2.1-1.4-5.3-3.1-7.5  c-0.2-6.8,5-11.7,6.4-18c1.8-8.6,3.5-17.2-3.9-24c-4.2-3.8-9.7-5.8-13.6-10.2c-1.1-1.2-3.3-1-4.1,0.4c-3.3,5.7-9.4,7.5-14.1,11.2  c-3.4,2.6-4.6,6.3-4.5,10.5c0.2,7.8,2.2,15.1,5.8,22C135.7,80.6,138.4,83.1,137.4,86.9z"
   id="path128" />
<path
   style="fill:#ffaaee;fill-opacity:1;stroke-width:0.61349696"
   d="m 133.51605,95.733994 c -0.62001,-1.778577 -0.80154,-1.863939 -3.58762,-1.687117 l -2.93456,0.186252 0.21603,-4.136313 c 0.25791,-4.938031 -0.3776,-5.484362 -4.14429,-3.562742 l -2.51346,1.282276 v -2.9627 c 0,-1.629478 -0.38792,-3.493196 -0.86203,-4.141589 -0.82218,-1.124392 -0.96109,-1.13165 -3.00497,-0.156987 -1.17862,0.562043 -2.27692,0.88792 -2.44067,0.724171 -0.40768,-0.407674 0.43589,-3.727926 1.67454,-6.590957 0.56321,-1.301803 0.90637,-2.48457 0.76258,-2.628362 -0.14379,-0.143797 -1.99652,-0.540871 -4.11717,-0.882392 -2.12065,-0.341522 -4.38362,-0.903467 -5.02883,-1.248773 -1.5204,-0.813694 -0.76569,-1.77009 3.60118,-4.563543 3.45931,-2.212893 5.49439,-4.694001 4.78785,-5.837205 -0.24134,-0.390497 -1.71452,-1.263924 -3.27374,-1.940948 -3.12208,-1.355633 -5.59568,-3.342894 -5.59568,-4.495513 0,-0.409005 1.21976,-0.926559 2.71058,-1.150121 4.71536,-0.707113 5.4702,-3.543364 1.12782,-4.237738 -3.66767,-0.586484 -6.59913,-2.820349 -6.59913,-5.028744 v -1.816053 l 4.76995,-0.04505 c 7.59844,-0.07176 9.83513,-2.471666 12.41046,-13.316043 2.78282,-11.718094 4.49476,-14.139703 11.52865,-16.30778 11.8921,-3.665532 30.20247,-2.7853987 37.63652,1.809091 2.68944,1.662169 3.8546,4.021534 6.63852,13.442604 3.77439,12.772888 5.07919,14.110429 13.76506,14.110429 5.30745,0 5.54427,0.174754 4.07837,3.009505 -0.86043,1.663872 -4.52639,3.688844 -8.46557,4.676127 -3.23336,0.810383 -1.79773,2.947384 2.45077,3.648079 1.43229,0.236222 2.73212,0.636555 2.88853,0.88963 0.6492,1.050422 -1.71705,3.066169 -5.47336,4.662624 -2.20388,0.936658 -4.00704,1.928067 -4.00704,2.203128 0,1.178718 4.11217,5.035119 6.84661,6.420765 4.57251,2.317066 3.72174,4.551492 -1.73301,4.551492 -3.78858,0 -4.80414,1.129724 -4.15001,4.616552 0.50832,2.709564 -0.3308,3.757644 -3.4273,4.280798 -1.63342,0.275963 -2.51635,0.79273 -2.78143,1.627932 -0.2136,0.672994 -0.23484,1.37716 -0.0472,1.564804 0.82204,0.822037 -0.98685,2.63384 -2.6296,2.63384 -2.46956,0 -3.32154,1.292013 -2.81786,4.273258 0.41573,2.460681 -0.0556,3.09081 -1.34651,1.799957 -0.49134,-0.491344 -0.78666,-0.324251 -1.08429,0.613497 -0.45797,1.442939 -2.05751,1.681491 -3.49929,0.521877 -1.18249,-0.951067 -2.96203,-6.442374 -2.96203,-9.140233 0,-1.134681 1.33195,-4.825908 3.06284,-8.487994 2.47351,-5.233264 3.24089,-7.670873 3.98813,-12.668365 1.73563,-11.607839 -0.1278,-15.878689 -9.79164,-22.441772 -3.04785,-2.069907 -6.55525,-4.661485 -7.79422,-5.759061 -2.71327,-2.40362 -4.14543,-2.222924 -6.14629,0.775477 -0.77934,1.167882 -4.03968,3.866635 -7.2452,5.997229 -6.60744,4.391721 -8.13333,5.852495 -9.47993,9.075351 -2.31832,5.548525 -0.11511,17.429097 5.21024,28.095669 1.26808,2.539939 2.38398,5.300675 2.47977,6.134969 0.17963,1.564491 -0.46278,8.811516 -1.04538,11.792963 -0.43796,2.241234 -1.79325,2.144356 -2.60571,-0.186251 z M 170,87.423313 c -0.21834,-0.568982 -0.53502,-0.896479 -0.70373,-0.727767 -0.16871,0.168712 -0.1281,0.772282 0.0902,1.341264 0.21834,0.568981 0.53502,0.896478 0.70373,0.727767 0.16871,-0.168712 0.12811,-0.772283 -0.0902,-1.341264 z"
   id="path137"
   inkscape:connector-curvature="0" /></svg>