<?xml version="1.0" encoding="utf-8"?>
<!-- Generator: Adobe Illustrator 23.0.3, SVG Export Plug-In . SVG Version: 6.00 Build 0)  -->
<svg version="1.1" id="Layer_1" xmlns="http://www.w3.org/2000/svg" xmlns:xlink="http://www.w3.org/1999/xlink" x="0px" y="0px"
	 viewBox="0 0 300 500" style="enable-background:new 0 0 300 500;" xml:space="preserve">
<style type="text/css">
	.st0{fill:#FF94EE;}
</style>
<g id="Layer_3">
</g>
<path class="st0" d="M136.5,66.4c-1.1,3,0.3,6.4-2.1,9.3c-3.2,0.4-1-4.9-6.2-3c-4.3,1.5-3.6-0.6-3.1-3.2c1.5-7-3.5-3.5-6.8-2.3
	c-2.8-1.6,3-10.2-7.6-4.8c-0.7-3.4,2-5.7,3.2-8.6c-4.3-0.4-8.4-0.3-12-2.3c3.2-3.2,9.2-3.7,11.4-7.9c-3-2.5-9-1.9-10.9-6
	c2.2-1.6,6.1,0,8-2.3c0.4-2-2-1.4-3.2-1.8c-3.5-0.9-8.4-1.6-7.7-5c0.7-3.1,5.2-1,7.8-1.1c6.9-0.3,8.9-3.9,10.5-8.1
	c2.4-6.4,2.1-14.5,12.3-16.9c13.4-3,27.5-3.3,41,0.5c6.5,1.9,7.5,7.1,9.1,11.6c4.7,12.9,4.7,12.9,21.1,12.6c-1,5.8-7.8,5.5-12.6,7.3
	c1.2,3.6,6.3,1.1,8.3,3.3c-2.1,3.6-7.3,3.6-10.9,5.5c1.5,3,5.1,4.5,8.6,5.9c1.9,0.8,3.9,1.5,0.9,3.1c-2.1,2.2-8.4-2.1-8.6,3.1
	c0.2,0.4,0.3,0.8,0.3,1.4c1.1,1.8-0.2,2.7-2.1,3.4c-1.2,0.1-2.4,0.2-3.6,0.3c-3,0.9,0.8,4.1-2.8,4.7c-7.4-0.7-3.7,3.4-4.3,5.7
	c-4.7,0.2-0.7-4.1-3.5-4.6c1.5,1.9,1.3,3.8,0,5.8c-1.2-0.2-2.4-0.4-3.6-0.6c-2.2-1.8-1.5-4.5-3.4-6.4c-0.2-5.8,5.5-9.9,7-15.2
	c2-7.3,3.9-14.6-4.3-20.3c-4.6-3.2-10.7-4.9-15-8.6c-1.2-1-3.6-0.8-4.5,0.3c-3.6,4.8-10.3,6.4-15.5,9.5c-3.7,2.2-5.1,5.3-5,8.9
	c0.2,6.6,2.4,12.8,6.4,18.6C134.6,61,137.6,63.1,136.5,66.4z"/>
</svg>
