<?xml version="1.0" encoding="utf-8"?>
<!-- Generator: Adobe Illustrator 23.0.3, SVG Export Plug-In . SVG Version: 6.00 Build 0)  -->
<svg version="1.1" id="Layer_1" xmlns="http://www.w3.org/2000/svg" xmlns:xlink="http://www.w3.org/1999/xlink" x="0px" y="0px"
	 viewBox="0 0 300 500" style="enable-background:new 0 0 300 500;" xml:space="preserve">
<style type="text/css">
	.st0{fill:#FED8F1;}
</style>
<g id="Layer_3">
</g>
<path class="st0" d="M124.6,42.5c-0.8-8.6-8.9-16.9-6.8-25.7c0.2-1,1-2-1.7-2.3c-6.4-0.6-2.3-2.1-0.3-2.6c6.1-1.5,3.6-3.1-0.2-5.2
	c5.1-0.6,9.6-0.1,13.4-1.3c6.6-2.1,20.7-1.9,27.3-2.7c10.8-1.3,15.4,6.1,24.5,3.8c4.3,11.6-2.6,22.2-6.6,33.1
	c-3-3.6-6.4-7.2-7.8-11.1c-1.8-6.4-1.5-6.4-13.6-7c-17-0.9-17-0.2-21.4,8.3C129.4,33.9,128.4,38.5,124.6,42.5z"/>
</svg>
