<?xml version="1.0" encoding="utf-8"?>
<!-- Generator: Adobe Illustrator 23.0.3, SVG Export Plug-In . SVG Version: 6.00 Build 0)  -->
<svg version="1.1" id="Layer_1" xmlns="http://www.w3.org/2000/svg" xmlns:xlink="http://www.w3.org/1999/xlink" x="0px" y="0px"
	 viewBox="0 0 300 500" style="enable-background:new 0 0 300 500;" xml:space="preserve">
<style type="text/css">
	.st0{fill:#782121;}
</style>
<g id="Layer_3">
</g>
<path id="path179" class="st0" d="M131.7,79.2c-1.1-1.4-1.9-1.9-2.6-1.7c-0.6,0.2-1.9,0.5-2.8,0.7c-1.7,0.3-1.7,0.3-1.6-2.6
	c0.2-5.1,0.1-5.4-1.6-5.3c-0.9,0-2.3,0.4-3.3,0.8c-2.6,1.2-2.8,1-2.8-1.8c0-4-1.2-4.6-5.7-3.1c-1.7,0.6-1.6-1.5,0.2-4.6
	c0.8-1.3,1.3-2.7,1.1-3c-0.2-0.3-2-0.8-4-0.9c-2-0.2-4.6-0.6-5.6-1c-2.3-0.8-1.8-1.4,2.6-3.5c3.2-1.5,7.5-5,7-5.7
	c-0.2-0.2-2.3-1.2-4.7-2.1c-4.6-1.7-6.5-3-5.7-3.9c0.2-0.3,1.2-0.6,2.1-0.6c3.1,0,5.3-1,5.1-2.2c-0.2-0.9-1.2-1.4-4.6-2.2
	c-4.8-1.1-6.9-2.8-6-4.8c0.4-1.1,0.8-1.2,4.8-0.8c3.6,0.3,4.7,0.2,7.3-0.9c3.9-1.5,5.2-3.5,7.7-11.6c2.4-7.5,4-10.2,7.4-11.9
	c5.5-2.8,20.5-4.6,30.9-3.6c11.6,1.1,18.4,3.4,20.8,7.1c0.5,0.8,2.1,4.6,3.5,8.4c3,8.4,3.9,9.8,6.8,11.2c1.8,0.8,3.5,1.1,8.3,1.1
	c6.8,0,7.3,0.4,4.3,3.2c-1.2,1.1-3.3,2-6.2,2.8c-2.5,0.6-4.5,1.5-4.5,1.9c0,1,1.6,1.9,4.2,2.2c4.3,0.6,4.4,0.7,2.6,2.2
	c-0.9,0.8-3.5,2-5.6,2.8c-2.2,0.8-4,1.6-4,1.9c0,1.3,2.6,3.3,6.7,5.4c4.4,2.2,4.5,2.3,3.3,3.3c-0.9,0.8-2.1,1-4.5,1
	c-4.1,0-5.2,0.9-4.5,3.9c0.5,2.6-0.3,3.7-3,3.7c-2.7,0-4.1,1.1-4.3,3.3c-0.2,1.8-0.4,1.9-3,2.2l-2.8,0.3l0.1,2.9
	c0.1,1.6,0,2.9-0.1,2.9c-0.1,0-0.7-0.4-1.3-0.8c-1-0.8-1.1-0.7-1.5,0.6c-0.4,1.2-0.7,1.4-2.3,1.1c-2.2-0.4-2.5-0.8-4-4.6
	c-1.4-3.8-1.1-5.2,2.8-11.9c5.4-9.3,6.4-17.8,2.8-23.4c-2-3.1-3.8-4.4-11.9-8.7c-3.5-1.8-6.9-3.8-7.6-4.4c-1.9-1.6-2.9-1.3-6.5,1.6
	c-1.8,1.5-6.2,4.2-9.8,6.1c-8.8,4.6-10,6.1-9.4,13.4c0.5,6.5,1.7,10.1,6,17.7l3.5,6l-0.5,5.3c-0.3,2.9-0.8,5.7-1.3,6.1
	C133.3,81.1,133,80.9,131.7,79.2L131.7,79.2z M172.5,71.6c-0.9-0.7-1,0.1-0.3,1.6c0.5,1,0.5,1,0.8,0C173.1,72.7,172.9,72,172.5,71.6
	L172.5,71.6z"/>
</svg>
