<?xml version="1.0" encoding="UTF-8" standalone="no"?>
<!-- Generator: Adobe Illustrator 23.0.1, SVG Export Plug-In . SVG Version: 6.00 Build 0)  -->

<svg
   xmlns:dc="http://purl.org/dc/elements/1.1/"
   xmlns:cc="http://creativecommons.org/ns#"
   xmlns:rdf="http://www.w3.org/1999/02/22-rdf-syntax-ns#"
   xmlns:svg="http://www.w3.org/2000/svg"
   xmlns="http://www.w3.org/2000/svg"
   xmlns:sodipodi="http://sodipodi.sourceforge.net/DTD/sodipodi-0.dtd"
   xmlns:inkscape="http://www.inkscape.org/namespaces/inkscape"
   version="1.1"
   id="Layer_1"
   x="0px"
   y="0px"
   viewBox="0 0 300 500"
   style="enable-background:new 0 0 300 500;"
   xml:space="preserve"
   sodipodi:docname="red_long_hair.svg"
   inkscape:version="0.92.3 (2405546, 2018-03-11)"><metadata
   id="metadata391"><rdf:RDF><cc:Work
       rdf:about=""><dc:format>image/svg+xml</dc:format><dc:type
         rdf:resource="http://purl.org/dc/dcmitype/StillImage" /><dc:title></dc:title></cc:Work></rdf:RDF></metadata><defs
   id="defs389" /><sodipodi:namedview
   pagecolor="#ffffff"
   bordercolor="#666666"
   borderopacity="1"
   objecttolerance="10"
   gridtolerance="10"
   guidetolerance="10"
   inkscape:pageopacity="0"
   inkscape:pageshadow="2"
   inkscape:window-width="1920"
   inkscape:window-height="1017"
   id="namedview387"
   showgrid="false"
   inkscape:zoom="1.63"
   inkscape:cx="150"
   inkscape:cy="250"
   inkscape:window-x="-8"
   inkscape:window-y="-8"
   inkscape:window-maximized="1"
   inkscape:current-layer="Layer_1" />
<style
   type="text/css"
   id="style382">
	.st0{fill:#C93800;}
</style>
<path
   class="st0"
   d="M137.6,88.6c-6.2,3.1-13.3,0.5-19.7,2.9c-2,0.8-4.3,1-6.5,1.5c0.7-5-3.5-9.9-0.1-15.3c3.2,1.2,4.3,6.4,8.7,4.4  c4.7-2.1,3.8-6.5,3.8-10.3c0.2-16.4-1.1-32.8,2.9-49c2.2-8.8,7.9-13.3,17.2-13.9c0.3,0,0.5,0,0.8,0c19.2-1.6,31.7,2.4,31.3,28.8  c-0.2,12,0,24.1,0,36.1c0,3.6,0.6,7.1,4.5,8.6c4.2,1.6,5.6-2.3,8.5-5c1.3,5.3,1.6,9.8-0.8,14.3c-6.9,0.8-13.6-1.7-20.5-1.6  c-4.1,0.1-5.1-2.8-5.4-5.9c-0.3-3.9-0.1-7.9-0.1-11.8c2.3-8.2,5.1-16.2,4.2-24.9c-0.4-4.6-1.5-8.1-5.9-10.3c-4.1-2.1-7-5.6-10.2-9.8  c-3.9,5.2-8.2,9.3-13.4,12.4c-3,1.7-3.5,4.7-3.4,7.8c0.3,5.9,0.5,11.9,2.8,17.4C139.7,72.8,138.4,80.6,137.6,88.6z"
   id="path384" />
<path
   style="fill:#782121;fill-opacity:1;stroke-width:0.61349696"
   d="m 111.62899,90.40327 c -0.21531,-1.26781 -0.64077,-3.271368 -0.94547,-4.45235 -0.72025,-2.791693 -0.70397,-4.451576 0.0634,-6.47 l 0.62425,-1.641908 2.73628,2.522215 c 1.50495,1.387215 3.13858,2.522209 3.63029,2.522209 1.83366,0 4.01142,-1.224387 5.08291,-2.85773 0.9944,-1.515847 1.14327,-3.911553 1.47892,-23.800391 0.39217,-23.237587 0.97344,-29.025606 3.6273,-36.118673 1.49058,-3.983929 4.74225,-7.50532 8.44146,-9.141656 3.79014,-1.6765571 14.13872,-2.5654378 20.1437,-1.7302218 8.23894,1.1459308 12.94155,4.1191458 16.00777,10.1208668 2.74645,5.375816 3.20234,10.303641 3.22564,34.866528 0.0229,24.199982 0.17984,25.573056 3.16059,27.660853 2.39807,1.679681 4.81724,1.268025 7.4065,-1.260325 1.27337,-1.243417 2.49893,-2.077043 2.72346,-1.852509 0.69562,0.695613 0.49755,9.233994 -0.25552,11.015098 -0.6378,1.508503 -1.02344,1.685755 -3.64262,1.674252 -1.61111,-0.0071 -6.91182,-0.526068 -11.77936,-1.153326 -10.00517,-1.289319 -10.16924,-1.387042 -10.79959,-6.432177 -0.68306,-5.467 0.0196,-12.079412 2.09365,-19.702246 1.80192,-6.622672 1.9828,-8.039646 1.80123,-14.110429 -0.24351,-8.141872 -1.08283,-9.961724 -6.14085,-13.314966 -1.88491,-1.249612 -4.90079,-3.913155 -6.70196,-5.918985 l -3.27485,-3.646964 -3.57003,3.896064 c -1.96352,2.142836 -5.47687,5.282976 -7.80744,6.978088 -2.33057,1.695112 -4.56457,3.693353 -4.96445,4.440536 -0.50175,0.937531 -0.62583,3.651141 -0.4004,8.756848 0.26741,6.056673 0.6729,8.444687 2.23599,13.168233 2.19978,6.647575 2.77501,11.829557 2.08279,18.762913 -0.45223,4.529644 -0.61733,4.962177 -2.17945,5.709779 -0.92959,0.444877 -5.07069,1.042957 -9.20246,1.329061 -4.13176,0.286104 -8.34052,0.799706 -9.35279,1.141337 -4.75712,1.605497 -5.12399,1.542025 -5.54892,-0.960024 z"
   id="path393"
   inkscape:connector-curvature="0" /></svg>