<?xml version="1.0" encoding="UTF-8" standalone="no"?>
<!-- Generator: Adobe Illustrator 23.0.1, SVG Export Plug-In . SVG Version: 6.00 Build 0)  -->

<svg
   xmlns:dc="http://purl.org/dc/elements/1.1/"
   xmlns:cc="http://creativecommons.org/ns#"
   xmlns:rdf="http://www.w3.org/1999/02/22-rdf-syntax-ns#"
   xmlns:svg="http://www.w3.org/2000/svg"
   xmlns="http://www.w3.org/2000/svg"
   xmlns:sodipodi="http://sodipodi.sourceforge.net/DTD/sodipodi-0.dtd"
   xmlns:inkscape="http://www.inkscape.org/namespaces/inkscape"
   version="1.1"
   id="Layer_1"
   x="0px"
   y="0px"
   viewBox="0 0 300 500"
   style="enable-background:new 0 0 300 500;"
   xml:space="preserve"
   sodipodi:docname="red_Medium_hair.svg"
   inkscape:version="0.92.3 (2405546, 2018-03-11)"><metadata
   id="metadata177"><rdf:RDF><cc:Work
       rdf:about=""><dc:format>image/svg+xml</dc:format><dc:type
         rdf:resource="http://purl.org/dc/dcmitype/StillImage" /><dc:title></dc:title></cc:Work></rdf:RDF></metadata><defs
   id="defs175" /><sodipodi:namedview
   pagecolor="#ffffff"
   bordercolor="#666666"
   borderopacity="1"
   objecttolerance="10"
   gridtolerance="10"
   guidetolerance="10"
   inkscape:pageopacity="0"
   inkscape:pageshadow="2"
   inkscape:window-width="1920"
   inkscape:window-height="1017"
   id="namedview173"
   showgrid="false"
   inkscape:zoom="1.63"
   inkscape:cx="150"
   inkscape:cy="250"
   inkscape:window-x="-8"
   inkscape:window-y="-8"
   inkscape:window-maximized="1"
   inkscape:current-layer="Layer_1" />
<style
   type="text/css"
   id="style168">
	.st0{fill:#4B3527;}
</style>
<path
   class="st0"
   d="M137.4,86.9c-1,3.6,0.3,7.6-1.9,11c-2.9,0.5-0.9-5.8-5.6-3.6c-3.9,1.8-3.3-0.7-2.8-3.8c1.4-8.3-3.2-4.1-6.2-2.7  c-2.5-1.9,2.7-12-6.9-5.7c-0.6-4,1.8-6.7,2.9-10.2c-3.9-0.5-7.6-0.4-10.9-2.7c2.9-3.8,8.4-4.4,10.4-9.3c-2.7-2.9-8.2-2.3-9.9-7.1  c2-1.9,5.5,0,7.3-2.7c0.4-2.4-1.8-1.7-2.9-2.1c-3.2-1.1-7.6-1.9-7-5.9c0.6-3.7,4.7-1.2,7.1-1.3c6.3-0.4,8.1-4.6,9.5-9.6  c2.2-7.5,1.9-17.1,11.2-19.9c12.2-3.6,25-3.9,37.2,0.6c5.9,2.2,6.8,8.4,8.3,13.7c4.3,15.2,4.3,15.2,19.2,14.9  c-0.9,6.8-7.1,6.5-11.4,8.6c1.1,4.3,5.7,1.3,7.5,3.9c-1.9,4.3-6.6,4.2-9.9,6.5c1.4,3.6,4.6,5.3,7.8,7c1.7,0.9,3.5,1.8,0.8,3.7  c-1.9,2.6-7.6-2.5-7.8,3.7c0.2,0.5,0.3,1,0.3,1.6c1,2.1-0.2,3.2-1.9,4c-1.1,0.1-2.2,0.2-3.3,0.3c-2.7,1.1,0.7,4.8-2.5,5.6  c-6.7-0.8-3.4,4-3.9,6.7c-4.3,0.2-0.6-4.8-3.2-5.4c1.4,2.2,1.2,4.5,0,6.9c-1.1-0.2-2.2-0.5-3.3-0.7c-2-2.1-1.4-5.3-3.1-7.5  c-0.2-6.8,5-11.7,6.4-18c1.8-8.6,3.5-17.2-3.9-24c-4.2-3.8-9.7-5.8-13.6-10.2c-1.1-1.2-3.3-1-4.1,0.4c-3.3,5.7-9.4,7.5-14.1,11.2  c-3.4,2.6-4.6,6.3-4.5,10.5c0.2,7.8,2.2,15.1,5.8,22C135.7,80.6,138.4,83.1,137.4,86.9z"
   id="path170" />
<path
   style="fill:#782121;fill-opacity:1;stroke-width:0.61349696"
   d="m 133.52658,95.476577 c -0.933,-1.581313 -1.64344,-2.17008 -2.30994,-1.914325 -0.52939,0.203147 -1.64872,0.541582 -2.4874,0.752079 -1.49088,0.374184 -1.52263,0.309184 -1.42444,-2.91673 0.17696,-5.814178 0.1201,-6.062135 -1.38455,-6.038435 -0.75921,0.01196 -2.07056,0.416282 -2.91412,0.898503 -2.28837,1.308153 -2.45316,1.174773 -2.46338,-1.993865 -0.0146,-4.518105 -1.03144,-5.230822 -5.05195,-3.540865 -1.49346,0.627754 -1.4108,-1.63808 0.18835,-5.163111 0.67926,-1.497313 1.11176,-3.043589 0.96111,-3.436172 -0.15065,-0.392582 -1.74775,-0.866601 -3.54911,-1.05338 -1.80136,-0.186773 -4.03224,-0.685362 -4.95752,-1.107969 -2.01773,-0.921578 -1.60574,-1.63114 2.26373,-3.8988 2.85537,-1.673359 6.6847,-5.655387 6.19715,-6.444266 -0.16702,-0.270242 -2.04146,-1.321444 -4.16543,-2.336007 -4.09462,-1.955885 -5.7325,-3.384529 -5.08373,-4.434274 0.21768,-0.352204 1.05169,-0.640371 1.85337,-0.640371 2.7176,0 4.70645,-1.119952 4.49413,-2.530712 -0.15175,-1.008248 -1.06054,-1.566358 -4.03082,-2.475418 -4.23775,-1.296972 -6.07963,-3.17976 -5.35234,-5.47123 0.39368,-1.240404 0.69188,-1.307507 4.20903,-0.947165 3.20294,0.328151 4.20197,0.174965 6.49346,-0.995669 3.4142,-1.744191 4.57133,-3.958288 6.82073,-13.051046 2.1004,-8.490478 3.56419,-11.493391 6.55344,-13.444169 4.90814,-3.203033 18.15187,-5.1873566 27.36748,-4.1004997 10.31968,1.2170667 16.30701,3.8058167 18.42465,7.9662867 0.45185,0.887721 1.83923,5.180413 3.08306,9.539315 2.70006,9.462084 3.47423,11.080893 6.05045,12.651708 1.55189,0.946244 3.09065,1.198052 7.33218,1.199864 6.03866,0.0026 6.48438,0.422015 3.81707,3.591939 -1.02234,1.214986 -2.90441,2.29367 -5.52147,3.164574 -2.18375,0.726703 -3.97044,1.679076 -3.97044,2.116385 0,1.180588 1.38843,2.119419 3.73945,2.528534 3.84569,0.669213 3.93468,0.764238 2.33404,2.49222 -0.80975,0.874168 -3.05969,2.283418 -4.99988,3.131665 -1.94018,0.848247 -3.5276,1.791968 -3.5276,2.097158 0,1.414394 2.29883,3.758687 5.94215,6.059648 3.85685,2.435822 3.94974,2.55375 2.9135,3.698778 -0.76917,0.849926 -1.88563,1.182742 -3.96764,1.182742 -3.6728,0 -4.57009,0.972797 -4.02743,4.366368 0.47677,2.981589 -0.30467,4.222589 -2.65894,4.222589 -2.35971,0 -3.62646,1.213607 -3.84215,3.680982 -0.17522,2.004319 -0.35105,2.167656 -2.6417,2.453987 l -2.45399,0.306749 0.0844,3.220859 c 0.0464,1.771472 -0.003,3.220859 -0.10955,3.220859 -0.10668,0 -0.61963,-0.425669 -1.1399,-0.945933 -0.85224,-0.852245 -0.98585,-0.78684 -1.34908,0.660362 -0.34413,1.371123 -0.6378,1.547399 -2.00585,1.204037 -1.95178,-0.489859 -2.25085,-0.93362 -3.5039,-5.198945 -1.26602,-4.309534 -0.97945,-5.849926 2.50077,-13.442301 4.79152,-10.453107 5.69657,-20.077938 2.48054,-26.379739 -1.77121,-3.47067 -3.37627,-4.965926 -10.51724,-9.79775 -3.07138,-2.078204 -6.08196,-4.328425 -6.69017,-5.000492 -1.65468,-1.828403 -2.59556,-1.524198 -5.73026,1.85272 -1.56977,1.691062 -5.47682,4.79689 -8.68235,6.901841 -7.82918,5.141143 -8.82063,6.939027 -8.36935,15.176874 0.40201,7.33821 1.50253,11.447248 5.34977,19.974454 l 3.06088,6.78427 -0.41846,5.953068 c -0.23015,3.27419 -0.74402,6.398313 -1.14194,6.942491 -0.63109,0.863061 -0.89554,0.697785 -2.07088,-1.29427 z m 36.16286,-8.486528 c -0.80119,-0.80119 -0.91264,0.08672 -0.22904,1.824804 0.42631,1.083902 0.45013,1.083374 0.67104,-0.01497 0.12596,-0.626331 -0.0729,-1.440748 -0.442,-1.809816 z"
   id="path179"
   inkscape:connector-curvature="0" /></svg>