<?xml version="1.0" encoding="utf-8"?>
<!-- Generator: Adobe Illustrator 23.0.3, SVG Export Plug-In . SVG Version: 6.00 Build 0)  -->
<svg version="1.1" id="Layer_1" xmlns="http://www.w3.org/2000/svg" xmlns:xlink="http://www.w3.org/1999/xlink" x="0px" y="0px"
	 viewBox="0 0 300 500" style="enable-background:new 0 0 300 500;" xml:space="preserve">
<style type="text/css">
	.st0{fill:#CC3131;}
</style>
<g id="Layer_3">
</g>
<path class="st0" d="M126.3,44.3c-0.7-9.6-8.7-18.7-6.7-28.4c0.2-1.1,1-2.2-1.7-2.5c-6.2-0.7-2.2-2.4-0.3-2.9
	c5.9-1.6,3.5-3.4-0.2-5.8c5-0.7,9.4-0.1,13.1-1.5c6.5-2.4,20.2-2.1,26.6-3c10.6-1.5,15,6.8,23.9,4.2c4.2,12.8-2.5,24.6-6.5,36.7
	c-3-4-6.2-7.9-7.6-12.3c-1.8-7.1-1.5-7.1-13.3-7.8c-16.6-1-16.6-0.2-20.9,9.2C130.9,34.8,130,39.9,126.3,44.3z"/>
</svg>
